# Blender 4.3.2
# www.blender.org
mtllib Dadotexturizado.mtl
o Exterior
v 0.568313 -0.626042 0.542495
v 0.563160 -0.623176 -0.512550
v -0.460950 -0.621533 -0.562272
v -0.507651 -0.622499 0.556728
v 0.532918 -0.572644 0.616446
v -0.561202 -0.571334 -0.519090
v 0.621273 -0.540574 0.564393
v 0.609325 -0.533108 -0.560039
v -0.553466 -0.532863 0.602796
v 0.203380 -0.376961 0.623550
v 0.241792 -0.394832 -0.580480
v -0.464053 -0.030185 -0.578631
v -0.572071 -0.150736 -0.213938
v -0.572071 -0.121797 -0.146687
v -0.304328 0.130433 0.623621
v 0.519929 -0.030225 0.621372
v 0.623255 0.508949 0.528481
v 0.627929 -0.039603 0.143983
v 0.519577 -0.027962 -0.578684
v 0.154812 -0.009169 -0.578629
v -0.567545 0.509323 -0.485424
v -0.572066 -0.018292 0.146050
v 0.570125 0.481368 0.614944
v 0.612337 0.553808 -0.481486
v 0.567254 0.510837 -0.567843
v -0.572071 0.048961 0.174993
v -0.569172 0.479700 0.548624
v -0.499119 0.480291 0.617848
v 0.027930 0.461775 0.621372
v 0.187076 0.302311 -0.581018
v -0.517138 0.481883 -0.571978
v -0.489270 0.563569 -0.522498
v -0.506060 0.562690 0.558125
v 0.554697 0.562339 0.561735
v 0.203843 0.571977 0.367231
v 0.378963 0.572076 0.206634
v -0.155522 0.571693 -0.331493
v -0.322384 0.572074 -0.164057
v 0.187394 0.569775 0.180545
v 0.273844 0.569775 -0.104237
v 0.038687 -0.630225 -0.099050
v 0.148027 -0.630225 0.012238
v 0.627929 -0.018454 -0.097795
v 0.627929 -0.106855 0.115045
v 0.627928 -0.150666 0.043661
v 0.627929 0.050494 0.116877
v 0.627928 -0.133913 -0.038405
v 0.627930 -0.080615 -0.088599
v 0.627929 0.050495 -0.072481
v 0.627928 0.094644 0.022197
v -0.572072 -0.150152 0.267835
v -0.572071 -0.129093 -0.294712
v -0.572070 0.013321 -0.340734
v -0.572070 -0.070406 -0.338484
v -0.572071 0.076013 -0.285197
v -0.572071 -0.070406 -0.110700
v -0.572073 0.092767 -0.203132
v -0.572071 0.056223 -0.139422
v -0.572072 0.002691 -0.106507
v -0.572071 -0.133914 0.207234
v -0.572066 -0.089547 0.162869
v -0.572070 0.089136 0.236197
v -0.572071 -0.070406 0.381727
v -0.572072 -0.129093 0.337955
v -0.572071 0.078085 0.329634
v -0.572072 0.002691 0.385922
v -0.217265 0.569775 0.389217
v -0.338979 0.569775 -0.245874
v 0.154478 0.569775 0.245943
v 0.316111 0.569775 0.150849
v -0.227761 0.569775 -0.344407
v -0.287383 0.569775 0.368157
v -0.335348 0.569775 0.299657
v -0.331157 0.569775 0.226565
v -0.279058 0.569775 0.160978
v -0.268927 0.569775 -0.113617
v -0.287384 0.569775 -0.324555
v -0.106464 0.569775 0.319681
v -0.156661 0.569775 0.372980
v -0.174989 0.569775 0.151874
v -0.101121 0.569775 0.225744
v -0.106464 0.569775 -0.172748
v -0.174989 0.569775 -0.108274
v -0.099176 0.569775 -0.256054
v 0.159947 0.569775 0.308444
v 0.242662 0.569775 0.150643
v 0.273844 0.569775 0.388192
v 0.203719 0.569775 -0.125297
v 0.159947 0.569775 -0.183985
v 0.154478 0.569775 -0.246484
v 0.187394 0.569775 -0.311884
v 0.273840 0.569775 -0.349034
v 0.343962 0.569775 0.367130
v 0.395556 0.569775 0.288450
v 0.384636 0.569775 -0.173772
v 0.334442 0.569775 -0.120477
v 0.360284 0.569775 -0.311884
v 0.393201 0.569775 -0.246483
v 0.273844 -0.630225 -0.104237
v 0.316111 -0.630225 -0.341579
v -0.268926 -0.630225 0.378812
v -0.322226 -0.630225 0.328617
v -0.339048 -0.630225 0.257361
v -0.296709 -0.630225 0.173338
v -0.130817 -0.630225 0.354459
v -0.196212 -0.630225 0.387375
v -0.013422 -0.630225 0.136628
v -0.072110 -0.630225 0.092855
v -0.217266 -0.630225 0.146812
v -0.147142 -0.630225 0.167872
v -0.108095 -0.630225 0.217112
v -0.095476 -0.630225 0.278671
v -0.042088 -0.630225 -0.077407
v -0.093683 -0.630225 0.001272
v 0.138829 -0.630225 0.074403
v 0.070303 -0.630225 0.138877
v 0.122711 -0.630225 -0.056710
v 0.203720 -0.630225 -0.125297
v 0.159947 -0.630225 -0.183985
v 0.154478 -0.630225 -0.246485
v 0.187394 -0.630225 -0.311884
v 0.242662 -0.630225 -0.341786
v 0.343962 -0.630225 -0.125299
v 0.378803 -0.630225 -0.286041
v 0.395556 -0.630225 -0.203979
v 0.155291 0.184067 0.621372
v -0.249365 0.334820 0.621371
v -0.098364 0.237784 0.621373
v 0.049051 -0.149701 0.621372
v -0.093197 -0.030339 0.621371
v 0.392737 -0.255671 0.621370
v -0.249365 -0.393780 0.621366
v -0.310571 -0.197786 0.621373
v -0.310568 -0.353606 0.621374
v -0.259178 -0.161801 0.621373
v -0.238773 0.097373 0.621373
v -0.310568 0.294646 0.621374
v -0.341320 0.216735 0.621376
v -0.341320 -0.275695 0.621374
v -0.124882 -0.353606 0.621373
v -0.098364 -0.296744 0.621371
v -0.076956 -0.090946 0.621372
v -0.023657 -0.141138 0.621371
v -0.176274 -0.389588 0.621371
v -0.110689 -0.213898 0.621377
v -0.186084 -0.157608 0.621372
v -0.023658 0.080458 0.621360
v -0.076956 0.030264 0.621372
v -0.176272 0.102841 0.621371
v -0.110690 0.154938 0.621376
v -0.124883 0.294646 0.621372
v -0.176274 0.330628 0.621374
v 0.159485 -0.318179 0.621371
v 0.294838 -0.398436 0.621377
v 0.105913 -0.123186 0.621372
v 0.146092 -0.061980 0.621372
v 0.221710 -0.165923 0.621371
v 0.157236 -0.234448 0.621372
v 0.138802 0.021326 0.621371
v 0.070278 0.085800 0.621356
v 0.195470 0.122862 0.621371
v 0.262722 0.093923 0.621371
v 0.203258 0.315853 0.621373
v 0.159486 0.257168 0.621370
v 0.380413 -0.338516 0.621369
v 0.366222 -0.198810 0.621372
v 0.305016 -0.158634 0.621371
v 0.333976 0.110744 0.621373
v 0.378341 0.155107 0.621371
v 0.395162 0.226365 0.621351
v 0.366224 0.293615 0.621374
v 0.294838 0.337426 0.621333
v -0.228225 0.336727 -0.578630
v -0.101585 0.259007 -0.578628
v 0.262723 -0.154934 -0.578629
v 0.273776 0.092747 -0.578628
v -0.186402 -0.148301 -0.578633
v -0.094450 -0.030214 -0.578628
v -0.337086 0.195687 -0.578622
v -0.249684 0.087871 -0.578631
v 0.335174 -0.383756 -0.578632
v 0.387270 -0.318174 -0.578630
v 0.305814 -0.148300 -0.578627
v 0.367019 -0.108123 -0.578585
v 0.392737 -0.255671 -0.578623
v 0.352822 -0.182041 -0.578619
v 0.393534 -0.051261 -0.578630
v 0.381208 0.031584 -0.578765
v 0.315625 0.083679 -0.578685
v 0.352822 0.121030 -0.578633
v 0.387269 0.257163 -0.578634
v 0.392737 0.194660 -0.578624
v 0.351282 0.308557 -0.578630
v 0.166340 -0.338516 -0.578627
v 0.167138 -0.092012 -0.578627
v 0.232721 -0.144108 -0.578629
v 0.186933 -0.190273 -0.578630
v 0.154016 -0.255669 -0.578627
v 0.181328 0.047695 -0.578627
v 0.186933 0.129262 -0.578630
v 0.254984 0.094808 -0.578629
v 0.273377 0.339303 -0.578621
v 0.149782 0.215708 -0.578630
v -0.155929 -0.382731 -0.578629
v -0.099639 -0.307334 -0.578629
v -0.103833 -0.234238 -0.578628
v -0.147607 -0.175551 -0.578627
v -0.216495 -0.153950 -0.578624
v -0.125197 -0.108122 -0.578628
v -0.176272 0.102841 -0.578630
v -0.110690 0.154937 -0.578628
v -0.125199 0.047695 -0.578628
v -0.176592 0.083679 -0.578630
v -0.166062 0.327532 -0.578629
v -0.304170 -0.362139 -0.578630
v -0.238776 -0.395055 -0.578626
v -0.297170 -0.181015 -0.578627
v -0.341319 -0.275695 -0.578625
v -0.331937 -0.071666 -0.578631
v -0.288165 -0.130357 -0.578626
v -0.310571 0.138826 -0.578628
v -0.249366 0.098648 -0.578631
v -0.303217 0.054957 -0.578631
v -0.336131 0.001424 -0.578632
v -0.278325 0.321699 -0.578626
v -0.328522 0.268402 -0.578627
v -0.125086 0.111559 0.579191
v -0.130742 0.116413 0.621532
v -0.292409 0.117361 0.621401
vn -0.0472 -0.0395 0.9981
vn -0.0740 -0.0051 0.9972
vn -0.6825 -0.2896 0.6710
vn -0.0096 -0.1089 0.9940
vn 0.0149 -0.0071 0.9999
vn 0.0029 -0.0072 1.0000
vn -0.0294 -0.0026 0.9996
vn -0.0106 0.0082 0.9999
vn -0.0060 0.0117 0.9999
vn -0.3413 0.2724 0.8996
vn 0.0536 0.0454 0.9975
vn -0.4261 -0.8011 0.4203
vn 0.2440 -0.4202 0.8740
vn -0.0072 -0.0362 0.9993
vn -0.0028 0.0033 1.0000
vn -0.0062 0.0067 1.0000
vn -0.0009 -0.1072 0.9942
vn -0.0000 -0.0000 1.0000
vn 0.0045 -0.0004 1.0000
vn 0.0020 -0.0034 1.0000
vn 0.0001 -0.0000 1.0000
vn 0.0004 -0.0000 1.0000
vn 0.0622 0.0714 0.9955
vn 0.0015 0.1269 0.9919
vn -0.0037 0.0081 1.0000
vn -0.0017 -0.0014 1.0000
vn -0.0013 -0.0005 1.0000
vn -0.0001 -0.0001 1.0000
vn -0.0006 0.0007 1.0000
vn 0.0002 0.0002 1.0000
vn 0.0095 0.0188 0.9998
vn -0.0001 -0.0000 1.0000
vn 0.0200 -0.0080 0.9998
vn 0.0137 -0.0053 0.9999
vn 0.0205 -0.0003 0.9998
vn 0.0874 -0.0021 0.9962
vn 0.0187 0.0076 0.9998
vn 0.0002 0.0001 1.0000
vn 0.0176 0.0151 0.9997
vn 0.4449 0.2684 0.8544
vn 0.8602 -0.2457 0.4469
vn 0.8848 0.3919 0.2521
vn 0.9999 -0.0069 0.0082
vn 0.9999 -0.0014 0.0118
vn 0.9997 -0.0258 -0.0051
vn 1.0000 0.0047 0.0061
vn 0.9998 0.0185 -0.0063
vn 0.9995 -0.0111 -0.0288
vn 0.6822 -0.2988 -0.6673
vn 0.9994 0.0013 -0.0353
vn 0.9995 -0.0300 -0.0127
vn 0.6845 0.6723 -0.2819
vn 0.9997 0.0156 -0.0189
vn 0.0390 0.9992 -0.0008
vn 0.3147 0.8404 0.4411
vn 0.4190 0.4340 -0.7976
vn 0.0351 -0.0598 -0.9976
vn 0.0107 -0.0837 -0.9964
vn 0.0653 -0.0188 -0.9977
vn -0.0005 0.0004 -1.0000
vn 0.0155 -0.0031 -0.9999
vn 0.1050 -0.0027 -0.9945
vn 0.0418 -0.0162 -0.9990
vn -0.0004 0.0002 -1.0000
vn -0.0002 0.0019 -1.0000
vn -0.0009 0.0023 -1.0000
vn -0.0000 0.0007 -1.0000
vn 0.0232 0.0119 -0.9997
vn 0.0020 0.0032 -1.0000
vn 0.0218 0.0300 -0.9993
vn 0.0058 0.0528 -0.9986
vn 0.0323 0.0175 -0.9993
vn -0.0000 -0.0000 -1.0000
vn -0.0022 0.0031 -1.0000
vn -0.0003 0.0004 -1.0000
vn -0.0012 -0.0016 -1.0000
vn -0.0020 -0.0117 -0.9999
vn 0.0048 0.9993 -0.0380
vn -0.2886 0.8443 -0.4516
vn -0.0040 -0.0471 -0.9989
vn -0.0000 -0.0001 -1.0000
vn -0.0043 -0.0058 -1.0000
vn -0.0002 0.0004 -1.0000
vn -0.0002 0.0322 -0.9995
vn -0.0036 0.0284 -0.9996
vn -0.0452 -0.0357 -0.9983
vn -0.0107 -0.0584 -0.9982
vn -0.2633 -0.6945 -0.6696
vn -0.0441 -0.0213 -0.9988
vn -0.1941 -0.0146 -0.9809
vn 0.0150 -0.0042 -0.9999
vn -0.0166 0.0068 -0.9998
vn -0.0000 0.0001 -1.0000
vn -0.0265 0.0233 -0.9994
vn -0.0040 0.0358 -0.9994
vn -0.0119 0.0238 -0.9996
vn -0.0256 0.0085 -0.9996
vn -0.7872 -0.4280 -0.4439
vn -0.9994 -0.0325 0.0092
vn -0.9998 -0.0179 -0.0132
vn -0.9989 -0.0049 -0.0464
vn -1.0000 0.0081 -0.0050
vn -1.0000 0.0081 -0.0010
vn -0.8735 0.4238 -0.2395
vn -0.9993 -0.0013 -0.0372
vn -1.0000 -0.0000 -0.0000
vn -1.0000 0.0063 -0.0012
vn -0.9997 -0.0255 0.0054
vn -0.9990 -0.0449 0.0013
vn -1.0000 0.0001 -0.0000
vn -0.9993 -0.0314 0.0224
vn -0.9987 -0.0155 0.0495
vn -1.0000 0.0055 0.0032
vn -0.9990 -0.0078 0.0436
vn -0.8958 0.2801 0.3451
vn -0.4000 0.8146 0.4200
vn -0.0046 0.9995 0.0309
vn -0.0135 0.9997 0.0217
vn -0.0289 0.9996 0.0072
vn 0.0048 1.0000 0.0064
vn 0.0017 1.0000 0.0016
vn -0.0274 0.9996 -0.0032
vn -0.0258 0.9997 0.0044
vn -0.0128 0.9998 -0.0182
vn -0.0226 0.9997 -0.0017
vn 0.0069 0.9996 -0.0262
vn -0.0016 1.0000 -0.0017
vn -0.0066 1.0000 -0.0035
vn 0.0031 0.9997 0.0251
vn -0.0064 0.9998 -0.0203
vn -0.0000 1.0000 -0.0000
vn -0.0026 1.0000 -0.0025
vn 0.0025 1.0000 0.0029
vn 0.0051 0.9999 0.0088
vn 0.0050 0.9953 -0.0963
vn 0.0147 0.9996 0.0223
vn 0.0299 0.9995 -0.0055
vn 0.0045 0.9997 0.0246
vn -0.0485 0.9988 -0.0068
vn 0.0594 0.9982 -0.0098
vn -0.0047 1.0000 -0.0064
vn 0.0346 0.9985 -0.0425
vn -0.0419 -0.9991 -0.0018
vn -0.0266 -0.9996 0.0123
vn -0.0085 -0.9994 0.0325
vn -0.0044 -1.0000 -0.0070
vn -0.0115 -0.9999 -0.0092
vn 0.4619 -0.8359 0.2966
vn -0.0017 -0.9994 0.0345
vn 0.0044 -1.0000 0.0058
vn 0.0035 -1.0000 0.0025
vn 0.0036 -1.0000 0.0040
vn -0.0000 -1.0000 -0.0000
vn -0.0083 -0.9999 -0.0064
vn -0.0049 -1.0000 -0.0068
vn -0.0077 -0.9999 -0.0113
vn 0.0068 -1.0000 0.0027
vn 0.0038 -1.0000 0.0023
vn 0.0021 -1.0000 0.0037
vn -0.0092 -0.9999 -0.0110
vn -0.0085 -0.9999 -0.0053
vn -0.0014 -0.9994 -0.0348
vn 0.0044 -1.0000 0.0048
vn 0.0294 -0.9996 -0.0020
vn 0.4230 -0.8109 -0.4043
vn 0.0247 -0.9996 -0.0110
vn 0.0057 -0.9994 -0.0328
vn 0.0059 0.9936 -0.1131
vn 0.0020 0.0241 0.9997
vn 0.0018 0.0003 1.0000
vn -0.0000 0.0001 1.0000
vn 0.0031 0.0260 -0.9997
vn -0.0001 0.0001 -1.0000
vn -0.0001 -0.0004 -1.0000
vn -0.0002 -0.0005 -1.0000
vn -0.6112 0.3384 -0.7155
vn -0.9999 0.0133 -0.0073
vn 0.0447 0.9989 -0.0158
vn -0.0006 0.9999 0.0152
vn 0.0106 0.9994 -0.0334
vn -0.0273 0.9996 0.0045
vn 0.0001 -0.0000 -1.0000
vt 0.244262 0.202185
vt 0.219514 0.266860
vt 0.048788 0.053379
vt 0.293516 0.168835
vt 0.244260 0.331535
vt 0.285619 0.361407
vt 0.249284 0.603997
vt 0.244262 0.740314
vt 0.293516 0.773664
vt 0.092524 0.894423
vt 0.219514 0.675639
vt 0.085658 -0.021030
vt 0.923065 0.020356
vt 0.657867 0.182797
vt 0.415035 0.249387
vt 0.393695 0.202185
vt 0.352336 0.172315
vt 0.432263 0.420225
vt 0.419193 0.470536
vt 0.344442 0.364887
vt 0.405117 0.318160
vt 0.475156 0.562512
vt 0.550751 0.566946
vt 0.415035 0.693112
vt 0.302040 0.576553
vt 0.432263 0.520844
vt 0.405116 0.624339
vt 0.352338 0.581092
vt 0.393694 0.740314
vt 0.516671 0.879052
vt 0.352336 0.770184
vt 0.579429 0.393462
vt 0.533669 0.371451
vt 0.672618 0.357985
vt 0.611763 0.444270
vt 0.705623 0.573689
vt 0.651501 0.597712
vt 0.619166 0.648520
vt 0.657768 0.757919
vt 0.731468 0.775827
vt 0.622542 0.709203
vt 0.800335 0.214711
vt 0.810253 0.283483
vt 0.731468 0.164970
vt 0.788915 0.330685
vt 0.912612 0.470631
vt 0.739659 0.364036
vt 0.762965 0.587653
vt 0.812205 0.683633
vt 0.798668 0.624480
vt 0.788917 0.739458
vt 0.953008 0.895317
vt 0.994170 0.046978
vt 0.905434 0.927009
vt 0.883238 0.998784
vt 0.060820 0.956820
vt 0.409860 0.583806
vt 0.463981 0.607828
vt 0.374602 0.524548
vt 0.536488 0.585326
vt 0.572018 0.506730
vt 0.430977 0.414756
vt 0.066829 0.023402
vt 0.481001 0.407122
vt 0.388085 0.456423
vt 0.941534 0.088611
vt 0.536489 0.428136
vt 0.986979 0.088611
vt 0.799169 0.659836
vt 0.940592 0.954614
vt 0.906953 0.016924
vt 0.763929 0.177156
vt 0.984555 0.053176
vt 0.688779 0.167962
vt 0.805854 0.231598
vt 0.789557 0.405966
vt 0.810895 0.453169
vt 0.912329 0.472510
vt 0.778131 0.344605
vt 0.748197 0.565185
vt 0.714518 0.572713
vt 0.778131 0.596191
vt 0.810253 0.657314
vt 0.800975 0.521940
vt 0.776892 0.751862
vt 0.714197 0.777385
vt 0.950698 0.919780
vt 0.805853 0.709199
vt 0.644631 0.337771
vt 0.618140 0.283484
vt 0.414009 0.240596
vt 0.681479 0.376094
vt 0.705623 0.367107
vt 0.628700 0.419340
vt 0.618781 0.488110
vt 0.614733 0.674786
vt 0.644631 0.603025
vt 0.369037 0.213124
vt 0.100450 0.054566
vt 0.368709 0.178007
vt 0.393441 0.405967
vt 0.418185 0.470640
vt 0.410634 0.301275
vt 0.375406 0.349992
vt 0.405116 0.624339
vt 0.412443 0.710730
vt 0.352080 0.565185
vt 0.293259 0.568665
vt 0.293515 0.577612
vt 0.393440 0.535314
vt 0.644746 0.746677
vt 0.360555 0.767614
vt 0.249411 0.195101
vt 0.302037 0.167777
vt 0.123241 -0.020228
vt 0.219515 0.266860
vt 0.227065 0.436230
vt 0.120744 0.470664
vt 0.223690 0.496904
vt 0.255044 0.345457
vt 0.262291 0.387509
vt 0.222921 0.658166
vt 0.244260 0.610964
vt 0.250178 0.541343
vt 0.078023 0.895744
vt 0.310528 0.775247
vt 0.270210 0.762772
vt 0.229813 0.718529
vt 0.036066 0.057395
vt 0.374546 0.310709
vt 0.391963 0.243656
vt 0.439192 0.207320
vt 0.557024 0.251555
vt 0.570507 0.319679
vt 0.905735 0.085342
vt 0.506572 0.205452
vt 0.541098 0.372566
vt 0.498018 0.399890
vt 0.535254 0.633570
vt -0.005110 0.950457
vt 0.067026 0.988700
vt 0.397835 0.366536
vt 0.375016 0.710640
vt 0.388084 0.660334
vt 0.423788 0.623505
vt 0.481132 0.609544
vt 0.391963 0.768849
vt 0.439192 0.805185
vt 0.558692 0.761941
vt 0.498018 0.808667
vt 0.881895 0.943730
vt 0.036148 0.893932
vt 0.086938 0.962824
vt 0.086938 0.951617
vt 0.319349 0.811402
vt 0.262920 0.793920
vt 0.224320 0.737056
vt 0.269620 0.621936
vt 0.353371 0.614378
vt 0.234753 0.352116
vt 0.227693 0.676381
vt 0.262920 0.218883
vt 0.310902 0.202403
vt 0.221398 0.284198
vt 0.412816 0.675700
vt 0.408517 0.753679
vt 0.658239 0.793151
vt 0.368120 0.797924
vt 0.645002 0.638179
vt 0.408517 0.344902
vt 0.353371 0.398423
vt 0.714573 0.401774
vt 0.658139 0.384292
vt 0.622913 0.335574
vt 0.618512 0.283692
vt 0.645002 0.229401
vt 0.714570 0.198562
vt 0.771001 0.793067
vt 0.714573 0.810552
vt 0.812522 0.727753
vt 0.803734 0.344052
vt 0.810627 0.283692
vt 0.763340 0.388293
vt 0.784136 0.229401
vt 0.085658 0.950457
vt 0.221343 0.701946
vt 0.234880 0.761097
vt 0.277774 0.802765
vt 0.123241 0.021548
vt 0.319348 0.610176
vt 0.255415 0.632196
vt 0.951550 0.938642
vt 0.336291 0.809873
vt 0.388918 0.782549
vt 0.417359 0.719635
vt 0.550772 0.603589
vt 0.407204 0.668534
vt 0.375781 0.627659
vt 0.418802 0.489360
vt 0.436163 0.565385
vt 0.483393 0.601722
vt 0.525328 0.406080
vt 0.460324 0.424047
vt 0.605919 0.550068
vt 0.613321 0.498463
vt 0.592947 0.441228
vt 0.658140 0.384292
vt 0.618512 0.283691
vt 0.689479 0.204579
vt 0.771001 0.384290
vt 0.812522 0.318976
vt 0.947403 0.062824
vt 0.799040 0.250854
vt 0.748588 0.204751
vt 0.258876 1.004144
vt 0.388979 1.004253
vt 0.393530 0.969104
vt 0.475156 0.378559
vt 0.622542 0.231593
vt 0.620732 0.301101
vt 0.605897 0.513425
vt 0.951550 -0.023971
vt 0.628058 0.214711
vt 0.740301 0.372614
vt 0.344186 0.372613
vt 0.319968 0.367924
vt 0.042562 0.021443
vt 0.883652 0.013491
vt 0.949390 0.054566
vt 0.439192 0.396409
vt 0.042562 0.057395
vt 0.948682 0.951617
vt 0.567585 0.684377
vt 0.277773 0.393988
vt 0.414382 0.275747
vt 0.622913 0.744351
vt 0.618512 0.692467
vt 0.689479 0.613356
vt 0.748588 0.613527
vt 0.923065 1.000031
vt 0.940592 0.962533
vt -0.007961 0.938642
vt -0.005654 0.062824
vt 0.948400 0.954614
vt 0.995765 0.927009
vt 0.947403 -0.021592
vt 0.640120 0.535314
vt 0.699395 0.574424
vt 0.100450 0.963554
vt 0.950698 0.016924
vt 0.037457 0.085342
s 1
usemtl Texture
f 134/1/1 139/2/2 9/3/3
f 9/3/3 132/4/4 134/1/1
f 133/5/5 135/6/6 15/7/7
f 15/7/7 139/2/2 133/5/5
f 137/8/8 127/9/9 28/10/10
f 28/10/10 138/11/11 137/8/8
f 9/3/3 4/12/12 5/13/13
f 10/14/14 141/15/15 140/16/16
f 10/14/14 140/16/16 144/17/17
f 142/18/18 130/19/19 146/20/20
f 142/18/18 146/20/20 145/21/18
f 147/22/21 160/23/18 128/24/22
f 136/25/23 130/19/19 148/26/21
f 148/26/21 150/27/21 149/28/18
f 151/29/18 128/24/22 29/30/24
f 29/30/24 152/31/25 151/29/18
f 155/32/18 129/33/26 157/34/18
f 157/34/18 156/35/27 155/32/18
f 160/23/18 162/36/18 161/37/28
f 161/37/28 126/38/29 160/23/18
f 163/39/30 172/40/31 29/30/24
f 29/30/24 164/41/32 163/39/30
f 165/42/33 5/13/13 131/43/34
f 165/42/33 154/44/35 5/13/13
f 166/45/18 131/43/34 16/46/36
f 16/46/36 167/47/18 166/45/18
f 168/48/18 162/36/18 16/46/36
f 16/46/36 170/49/37 169/50/38
f 169/50/38 168/48/18 16/46/36
f 171/51/39 170/49/37 23/52/40
f 23/52/40 172/40/31 171/51/39
f 23/52/40 5/13/13 7/53/41
f 17/54/42 23/55/40 7/56/41
f 44/57/43 18/58/44 7/56/41
f 45/59/45 44/57/43 7/56/41
f 17/54/42 18/58/44 46/60/46
f 46/60/46 50/61/47 17/54/42
f 48/62/48 8/63/49 43/64/50
f 47/65/51 45/59/45 8/63/49
f 8/63/49 48/62/48 47/65/51
f 24/66/52 50/61/47 49/67/53
f 49/67/53 43/64/50 24/66/52
f 24/68/52 36/69/54 34/70/55
f 25/71/56 24/66/52 8/63/49
f 181/72/57 8/73/49 11/74/58
f 181/72/57 182/75/59 8/73/49
f 184/76/60 187/77/61 19/78/62
f 19/78/62 185/43/63 186/79/64
f 189/80/65 176/81/66 190/82/67
f 190/82/67 192/83/68 19/78/62
f 19/78/62 188/84/69 189/80/65
f 193/85/70 202/86/71 25/87/56
f 25/87/56 191/88/72 193/85/70
f 197/89/73 198/90/73 205/91/74
f 196/92/73 175/93/75 197/89/73
f 205/91/74 195/94/73 196/92/73
f 20/95/76 203/96/77 200/97/73
f 37/98/78 24/68/52 32/99/79
f 204/100/80 205/91/74 11/74/58
f 209/101/73 178/102/73 20/95/76
f 205/91/74 206/103/73 20/95/76
f 20/95/76 206/103/73 207/104/81
f 211/105/73 174/106/82 203/96/77
f 213/107/73 180/108/83 222/109/73
f 203/96/77 178/102/73 212/110/73
f 203/96/77 212/110/73 213/107/73
f 30/111/84 174/106/82 214/112/85
f 215/113/86 216/114/87 3/115/88
f 3/115/88 218/116/89 215/113/86
f 219/117/81 12/118/90 224/119/91
f 217/120/73 218/116/89 12/118/90
f 12/118/90 219/117/81 220/121/73
f 12/118/90 179/122/92 221/123/93
f 223/124/73 224/119/91 12/118/90
f 12/118/90 221/123/93 222/109/73
f 31/125/94 173/126/95 225/127/96
f 31/125/94 225/127/96 226/128/97
f 6/129/98 13/130/99 52/131/100
f 52/131/100 54/132/101 6/129/98
f 55/133/102 57/134/103 21/135/104
f 53/136/105 55/133/102 21/135/104
f 58/137/106 59/138/106 26/139/107
f 26/139/107 57/134/103 58/137/106
f 4/140/12 9/141/3 6/129/98
f 14/142/108 6/129/98 9/141/3
f 14/142/108 51/143/109 60/144/110
f 61/145/110 22/146/106 14/142/108
f 60/144/110 61/145/110 14/142/108
f 64/147/111 51/143/109 9/141/3
f 9/141/3 63/148/112 64/147/111
f 65/149/113 66/150/114 27/151/115
f 28/10/10 27/152/115 9/3/3
f 28/10/10 33/153/116 27/152/115
f 33/154/116 67/155/117 72/156/118
f 72/156/118 73/157/119 33/154/116
f 75/158/120 80/159/121 38/160/122
f 38/160/122 74/161/123 75/158/120
f 77/162/124 71/163/125 32/99/79
f 32/99/79 68/164/126 77/162/124
f 81/165/127 78/166/128 35/167/129
f 79/168/130 67/155/117 35/167/129
f 35/167/129 78/166/128 79/168/130
f 80/159/121 81/165/127 39/169/131
f 39/169/131 82/170/131 83/171/131
f 39/169/131 40/172/132 88/173/131
f 88/173/131 89/174/131 39/169/131
f 37/98/78 90/175/133 91/176/134
f 91/176/134 92/177/135 37/98/78
f 93/178/136 87/179/137 34/70/55
f 34/70/55 94/180/138 93/178/136
f 95/181/139 36/69/54 98/182/140
f 96/183/141 40/172/132 36/69/54
f 36/69/54 95/181/139 96/183/141
f 24/68/52 92/177/135 97/184/142
f 97/184/142 98/182/140 24/68/52
f 4/185/12 103/186/143 102/187/144
f 102/187/144 101/188/145 4/185/12
f 3/189/88 109/190/146 104/191/147
f 104/191/147 103/186/143 3/189/88
f 1/192/148 106/193/149 105/194/150
f 105/194/150 112/195/151 1/192/148
f 116/196/152 112/195/151 111/197/153
f 110/198/153 109/190/146 114/199/154
f 108/200/153 107/201/153 110/198/153
f 3/189/88 41/202/155 113/203/156
f 113/203/156 114/199/154 3/189/88
f 115/204/157 42/205/158 1/192/148
f 116/196/152 115/204/157 1/192/148
f 99/172/159 42/205/158 117/206/153
f 41/202/155 119/174/153 118/207/153
f 121/176/160 120/208/161 3/189/88
f 3/189/88 122/209/162 121/176/160
f 1/192/148 99/172/159 123/210/163
f 123/210/163 125/211/164 1/192/148
f 2/212/165 125/211/164 124/213/166
f 124/213/166 100/214/167 2/212/165
f 132/4/4 9/3/3 10/14/14 144/17/17
f 229/215/168 228/216/168 227/217/168
f 139/2/2 15/7/7 9/3/3
f 135/6/6 146/20/20 15/7/7
f 15/7/7 138/11/11 28/10/10
f 146/20/20 130/19/19 15/7/7
f 141/15/15 129/33/26 143/218/18
f 130/19/19 136/25/23 15/7/7
f 148/26/21 149/28/18 136/25/23
f 150/27/21 147/22/21 128/24/22
f 154/44/35 10/14/14 5/13/13
f 141/15/15 153/219/169 158/220/170
f 159/221/171 156/35/27 162/36/18
f 29/30/24 172/40/31 23/52/40
f 29/30/24 23/52/40 28/10/10
f 162/36/18 167/47/18 16/46/36
f 16/46/36 131/43/34 5/13/13
f 170/49/37 16/46/36 23/52/40
f 5/13/13 1/222/148 7/53/41
f 18/58/44 17/54/42 7/56/41
f 24/66/52 43/64/50 8/63/49
f 8/63/49 45/59/45 7/56/41
f 24/66/52 17/54/42 50/61/47
f 19/78/62 25/87/56 8/73/49
f 182/75/59 185/43/63 8/73/49
f 19/78/62 187/77/61 188/84/69
f 190/82/67 19/78/62 189/80/65
f 194/223/172 205/91/74 198/90/73
f 20/95/76 195/94/73 205/91/74
f 175/93/75 196/92/73 183/224/173
f 196/92/73 197/89/73 205/91/74
f 177/225/174 207/104/81 208/226/175
f 20/95/76 178/102/73 203/96/77
f 210/28/73 213/107/73 222/109/73
f 203/96/77 174/106/82 30/111/84
f 218/116/89 3/115/88 12/118/90
f 217/120/73 220/121/73 208/226/73
f 179/122/92 12/118/90 31/125/94
f 226/128/97 179/122/92 31/125/94
f 3/115/88 31/125/94 12/118/90
f 6/227/98 31/125/176 3/115/88
f 21/135/104 31/228/176 6/129/98
f 31/228/176 21/135/104 32/229/79
f 53/136/105 21/135/104 6/129/98
f 54/132/101 53/136/105 6/129/98
f 22/146/106 56/230/106 14/142/108
f 14/142/108 13/130/99 6/129/98
f 3/189/88 4/185/12 6/231/98
f 33/232/116 21/135/104 27/151/115
f 33/154/116 38/160/122 32/99/79
f 65/149/113 27/151/115 62/233/177
f 15/7/7 28/10/10 9/3/3
f 80/159/121 76/234/178 38/160/122
f 82/170/131 39/169/131 84/235/179
f 81/165/127 85/236/180 69/237/131
f 40/172/132 86/238/131 70/239/181
f 84/235/179 90/175/133 37/98/78
f 40/172/132 70/239/181 36/69/54
f 114/199/154 109/190/146 3/189/88
f 108/200/153 110/198/153 114/199/154
f 41/202/155 120/208/161 119/174/153
f 99/172/159 117/206/153 41/202/155
f 125/211/164 2/212/165 1/192/148
f 4/185/12 1/192/148 5/240/13
f 145/21/18 141/15/15 143/218/18 142/18/18
f 127/9/9 152/31/25 29/30/24 28/10/10
f 150/27/21 148/26/21 147/22/21
f 160/23/18 29/30/24 128/24/22
f 167/47/18 162/36/18 156/35/27 157/34/18
f 33/154/116 34/70/55 35/167/129
f 10/14/14 9/3/3 5/13/13
f 141/15/15 10/14/14 153/219/169
f 129/33/26 141/15/15 158/220/170
f 160/23/18 126/38/29 164/41/32 29/30/24
f 158/220/170 157/34/18 129/33/26
f 162/36/18 160/23/18 159/221/171
f 33/153/116 28/10/10 23/52/40 34/241/55
f 8/63/49 7/56/41 1/242/148 2/243/165
f 16/46/36 5/13/13 23/52/40
f 34/244/55 23/55/40 17/54/42
f 184/76/60 19/78/62 186/79/64 183/224/173
f 34/70/55 17/245/42 24/68/52
f 19/78/62 8/73/49 185/43/63
f 183/224/173 186/79/64 175/93/75
f 192/83/68 191/88/72 25/87/56 19/78/62
f 11/74/58 3/115/88 216/114/87 204/100/80
f 8/73/49 2/246/165 3/115/88
f 8/73/49 3/115/88 11/74/58
f 194/223/172 11/74/58 205/91/74
f 199/247/182 20/95/76 200/97/73
f 201/248/73 199/247/182 200/97/73
f 30/111/84 25/87/56 202/86/71
f 30/111/84 31/125/94 25/87/56
f 25/87/56 31/125/176 32/249/79
f 24/68/52 25/250/56 32/99/79
f 213/107/73 210/28/73 211/105/73 203/96/77
f 209/101/73 20/95/76 207/104/81
f 177/225/174 209/101/73 207/104/81
f 173/126/95 31/125/94 30/111/84 214/112/85
f 222/109/73 180/108/83 223/124/73 12/118/90
f 217/120/73 12/118/90 220/121/73
f 21/135/104 57/134/103 26/139/107 27/151/115
f 22/146/106 59/138/106 56/230/106
f 22/146/106 26/139/107 59/138/106
f 9/141/3 27/151/115 66/150/114 63/148/112
f 27/151/115 26/139/107 62/233/177
f 32/99/79 21/251/104 33/154/116
f 33/154/116 73/157/119 74/161/123 38/160/122
f 14/142/108 9/141/3 51/143/109
f 89/174/131 90/175/133 84/235/179 39/169/131
f 80/159/121 83/171/131 76/234/178
f 68/164/126 32/99/79 38/160/122
f 33/154/116 35/167/129 67/155/117
f 80/159/121 39/169/131 83/171/131
f 32/99/79 71/163/125 37/98/78
f 81/165/127 35/167/129 85/236/180
f 69/237/131 39/169/131 81/165/127
f 40/172/132 39/169/131 86/238/131
f 106/193/149 1/192/148 4/185/12 101/188/145
f 35/167/129 34/70/55 87/179/137
f 34/70/55 36/69/54 94/180/138
f 36/69/54 24/68/52 98/182/140
f 92/177/135 24/68/52 37/98/78
f 107/201/153 116/196/152 111/197/153 110/198/153
f 4/185/12 3/189/88 103/186/143
f 2/212/165 100/214/167 122/209/162 3/189/88
f 116/196/152 1/192/148 112/195/151
f 118/207/153 99/172/159 41/202/155
f 41/202/155 3/189/88 120/208/161
f 99/172/159 1/192/148 42/205/158
