# Blender 4.3.2
# www.blender.org
mtllib MesaConSillas_optim.mtl
o old_table
v 64.885620 3.501079 31.552416
v 70.764839 3.486148 31.568262
v 70.810432 3.509202 37.552593
v 70.816734 20.411877 30.077181
v 64.901161 3.484582 37.534122
v 63.387413 20.533678 37.588879
v 62.530609 71.285347 37.645988
v 70.960342 71.285446 37.657471
v 63.361580 21.065199 30.034109
v 62.551727 71.285606 29.171921
v 70.933540 71.285431 29.153105
v 64.877182 3.495463 -42.365913
v 64.869133 3.500418 -36.403233
v 70.765488 3.484145 -36.420792
v 70.796547 3.526661 -42.398506
v 70.819130 20.511871 -34.903709
v 70.960808 71.285461 -42.491489
v 63.363640 20.785347 -42.418118
v 63.358749 21.118956 -34.868870
v 62.532276 71.285339 -42.480694
v 62.551655 71.285606 -34.006042
v 70.931877 71.285339 -33.986206
v -64.832619 3.495450 37.531807
v -64.824570 3.500404 31.569124
v -70.720932 3.484128 31.586685
v -70.751984 3.526646 37.564400
v -70.774574 20.511938 30.069593
v -70.916260 71.285431 37.657364
v -63.319080 20.785313 37.584003
v -63.314182 21.118872 30.034767
v -62.487728 71.285316 37.646564
v -62.507111 71.285583 29.171928
v -70.887321 71.285309 29.152084
v -64.845390 3.488091 -36.391216
v -70.722847 3.494086 -36.400799
v -70.766129 3.502986 -42.383472
v -70.915794 71.285423 -42.491570
v -70.772186 20.412016 -34.911274
v -63.317005 21.065258 -34.868206
v -63.336266 20.736496 -42.416901
v -62.507172 71.285583 -34.006035
v -62.486065 71.285316 -42.480110
v -70.888992 71.285408 -33.987225
v -64.842697 3.513412 -42.369041
v -78.079880 70.656494 39.250736
v -77.799858 70.637985 -45.996212
v -77.618607 70.641884 41.658466
v -76.172729 70.603157 -47.681183
v -76.247993 70.609749 43.054722
v -73.900223 70.683334 -48.150269
v -73.972961 70.702629 43.565426
v 73.899536 70.710083 -48.172661
v 76.247963 70.609634 -47.645054
v 77.584793 70.622566 41.706493
v 76.174072 70.602646 43.090389
v 77.806290 70.643959 -45.947479
v 78.095856 70.726189 39.362705
v -78.085724 73.795052 -43.841595
v -78.064148 73.817085 39.421055
v -77.583824 73.842499 41.712257
v -76.172729 73.870255 43.090809
v -73.826187 73.782837 43.577732
v -73.899521 73.763359 -48.172668
v -76.247925 73.863785 -47.645096
v 73.972946 73.770821 43.565456
v 73.900246 73.790123 -48.150253
v 76.172737 73.870277 -47.681183
v 76.247925 73.863815 43.054714
v 77.803757 73.837761 41.348915
v 77.579895 73.852814 -46.301579
v 78.081940 73.793236 -43.938015
v -77.620094 73.838081 -46.242672
v 73.826180 70.690613 43.577763
v -62.732334 70.830246 37.250744
v -62.732334 70.830246 33.958046
v -62.732327 70.830246 -42.084896
v -62.732357 62.053223 37.178467
v -57.768349 62.060406 37.179806
v -53.094719 64.640366 37.180817
v -53.099903 64.655678 34.021751
v -57.699379 62.080475 34.030869
v -62.732193 62.040066 34.029900
v 53.118298 64.650764 37.174702
v 53.162296 64.637405 34.036293
v -57.767838 62.062233 -42.014935
v -62.732342 62.053215 -42.012623
v -57.710617 62.072456 -38.867912
v -53.121513 64.640907 -38.859852
v -53.070755 64.651825 -42.008923
v -62.732128 62.044476 -38.872360
v 53.143604 64.650978 -38.865776
v -62.732327 70.830246 -38.792183
v 53.142403 64.638496 -42.014290
v 57.813065 62.062195 37.180702
v 62.776886 62.053242 37.178490
v 62.776855 70.830261 37.250767
v 57.755264 62.072548 34.033566
v 62.776672 62.044502 34.038235
v 62.776855 70.830261 33.958065
v 57.813053 62.060272 -42.013515
v 62.776867 70.830261 -42.084873
v 62.776897 62.053234 -42.012592
v 57.744133 62.080528 -38.864864
v 62.776733 62.040081 -38.864025
v 62.776867 70.830261 -38.792175
v 66.557365 70.830276 -34.176334
v 69.850052 70.830276 -34.176334
v 66.633049 62.072514 -28.642139
v 66.625015 64.641190 -24.052025
v 69.783966 64.655579 -24.003990
v 69.779861 62.062275 -28.699684
v 69.777779 62.053234 -34.176350
v 66.637520 62.044506 -34.176159
v 69.769432 64.636520 19.191324
v 69.850052 70.830276 29.342230
v 69.779198 62.060547 23.865208
v 69.777779 62.053242 29.342245
v 66.630119 62.080532 23.796398
v 66.629204 62.040089 29.342098
v 66.630959 64.651077 19.196011
v 66.557365 70.830276 29.342232
v -69.805527 70.830246 -34.176357
v -69.724838 64.636292 -24.025772
v -69.734673 62.060520 -28.699329
v -69.733246 62.053215 -34.176373
v -66.585648 62.080479 -28.630653
v -66.584679 62.040058 -34.176224
v -66.586334 64.651985 -24.029026
v -69.739220 64.654671 19.171288
v -66.588333 62.072563 23.807772
v -66.593002 62.044491 29.342030
v -69.735336 62.062263 23.865551
v -69.733253 62.053223 29.342222
v -66.580582 64.641418 19.217222
v -66.512833 70.830246 29.342205
v -66.512840 70.830246 -34.176361
v -69.805534 70.830246 29.342205
v 18.547827 -0.084718 -61.672546
v -21.348431 -0.084718 -61.672539
v 21.163996 -0.097635 -61.743698
v 21.520939 42.785637 -58.770817
v 18.262520 42.785637 -58.770813
v 21.235634 -0.084718 -59.127491
v 21.520939 42.785637 -62.029228
v 18.262520 42.785637 -62.029224
v 18.619465 -0.097635 -59.056335
v -21.633736 42.785637 -62.029217
v -18.375313 42.785637 -58.770809
v -21.633736 42.785637 -58.770805
v -21.276793 -0.097635 -59.056324
v -18.660620 -0.084718 -59.127480
v -18.732258 -0.097635 -61.743694
v -18.375313 42.785637 -62.029221
v 18.252018 99.323471 -105.124306
v 11.134870 100.721802 -106.270332
v -18.379173 99.406166 -102.848557
v -11.031945 90.209824 -101.827454
v -11.022498 100.754784 -104.018730
v 18.272051 90.209717 -101.168831
v 11.780718 100.660553 -103.923981
v 18.266935 99.411888 -102.849785
v -11.037463 100.690987 -106.240486
v -18.366230 99.324516 -105.131111
v -18.375332 90.209824 -100.998383
v -18.375332 90.209824 -104.051758
v 18.272354 90.209473 -104.226639
v -11.031947 90.209824 -104.880829
v -1.200168 54.952869 -100.200150
v -1.200170 90.345367 -103.577965
v 1.730137 90.345367 -103.577965
v 1.727968 54.952869 -98.757362
v 1.730138 54.952858 -100.200150
v -1.200169 54.952869 -98.757362
v -1.200169 90.345367 -102.158302
v 1.727967 90.345367 -102.158302
v 11.294818 54.952869 -98.757362
v 14.222953 90.345367 -102.158310
v 5.138896 54.952869 -98.757362
v 8.067033 54.952869 -98.757362
v 5.138896 90.345367 -102.158302
v 8.067032 90.345367 -102.158302
v -11.061007 90.345367 -102.158302
v -7.669848 54.952869 -98.757362
v -4.741714 54.952869 -98.757362
v -7.669848 90.345367 -102.158302
v -4.741713 90.345367 -102.158302
v -4.739541 54.952858 -100.200150
v -7.669847 54.952869 -100.200150
v -4.739542 90.345367 -103.577965
v -7.669848 90.345367 -103.577965
v -13.989143 54.952869 -98.757362
v -13.989143 90.345367 -102.158302
v -13.989145 90.345367 -103.577965
v -11.058839 90.345367 -103.577965
v -11.061007 54.952869 -98.757362
v -11.058837 54.952858 -100.200150
v -13.989143 54.952869 -100.200150
v 8.069203 54.952858 -100.200142
v 5.138896 54.952869 -100.200142
v 5.138895 90.345367 -103.577965
v 8.069201 90.345367 -103.577965
v 11.294818 90.345367 -102.158302
v 11.294816 90.345367 -103.577965
v 14.222953 54.952869 -98.757362
v 14.225124 54.952858 -100.200150
v 11.294818 54.952869 -100.200142
v 14.225121 90.345367 -103.577965
v -21.633743 100.649437 -102.623970
v 18.738895 -0.110545 -101.509056
v 18.262512 100.649437 -102.623985
v -21.633743 100.649437 -105.882385
v -21.640081 73.124069 -102.073128
v -21.591709 22.130634 -96.953972
v -18.375332 49.377327 -100.754410
v -11.031945 55.172611 -101.583488
v 11.309583 55.176903 -101.583488
v 21.520931 61.110012 -96.890289
v 18.320208 21.865337 -96.966164
v 21.464384 21.899973 -96.991608
v 21.044548 -0.110545 -101.509056
v -18.374355 60.496120 -101.647408
v -18.851700 -0.110545 -103.814697
v -21.157360 -0.110545 -103.814697
v 18.262512 100.649437 -105.882401
v 18.255230 73.123436 -102.073135
v 18.262512 78.787727 -98.592125
v 18.262516 61.162685 -96.895248
v 18.346512 20.976301 -101.812973
v 21.520931 100.649437 -102.623985
v 21.520924 78.787727 -98.592125
v 21.520920 78.787727 -102.627831
v 21.436928 20.976301 -101.812973
v 21.520931 100.649437 -105.882401
v 21.522045 60.495148 -101.647415
v 21.044548 -0.110545 -103.814713
v 18.738892 -0.110545 -103.814713
v -18.375320 100.649437 -102.623970
v -21.633739 78.787727 -98.592110
v -18.375320 78.787727 -98.592110
v -21.633743 61.162685 -96.895233
v -21.157360 -0.110545 -101.509048
v -18.375320 100.649437 -105.882385
v -18.375320 78.787727 -102.627815
v -18.375320 61.109871 -96.890266
v -18.427032 21.622019 -97.009354
v -18.448044 20.976301 -101.812958
v -18.851700 -0.110545 -101.509048
v -18.375328 49.377327 -97.582825
v 11.309583 49.377327 -98.411896
v 11.309583 55.181122 -98.411903
v 18.262520 55.179016 -97.582840
v 18.262516 55.174721 -100.754433
v -11.031945 55.176826 -98.411903
v -18.375332 55.174721 -100.754417
v -18.375328 55.179016 -97.582832
v -11.031945 49.377327 -101.583481
v -11.031945 49.377327 -98.411896
v 11.309583 49.377327 -101.583481
v 18.262516 49.377327 -100.754425
v 18.262520 49.377327 -97.582832
v -21.561016 20.976301 -101.812958
v -20.728340 36.643948 -59.718414
v 20.629665 42.785637 -59.718422
v 20.629658 36.644066 -96.686638
v 20.629658 42.785633 -96.686638
v -20.728340 42.785637 -59.718414
v -20.728344 42.785633 -96.686630
v -20.728344 36.644066 -96.686630
v 20.629665 36.643948 -59.718418
v -1.200181 67.604149 -99.870087
v 1.729052 65.174866 -99.822502
v 1.731183 79.680283 -101.087746
v -1.200169 82.055099 -101.529961
v 1.728981 79.748871 -99.653389
v 1.726930 65.174896 -98.379715
v -1.200197 67.613716 -98.428070
v -1.200168 82.055061 -100.087410
v 14.221917 65.174797 -98.379715
v 11.294791 67.613693 -98.428070
v 14.223968 79.748840 -99.653389
v 11.294818 82.055115 -100.087425
v 8.065994 65.174759 -98.379707
v 5.138869 67.613670 -98.428055
v 8.068047 79.748795 -99.653374
v 5.138896 82.055054 -100.087410
v -11.062044 65.174858 -98.379715
v -13.989170 67.613846 -98.428070
v -11.059995 79.748924 -99.653397
v -13.989143 82.055092 -100.087418
v -4.742750 65.174843 -98.379715
v -7.669875 67.613777 -98.428070
v -4.740699 79.748886 -99.653389
v -7.669847 82.055092 -100.087410
v -4.738496 79.680336 -101.087753
v -4.740630 65.174858 -99.822502
v -7.669859 67.604050 -99.870079
v -7.669848 82.055153 -101.529968
v -13.989155 67.604134 -99.870087
v -13.989143 82.055290 -101.530006
v -11.057795 79.680328 -101.087761
v -11.059923 65.174850 -99.822502
v 5.138885 67.604050 -99.870087
v 5.138896 82.055122 -101.529968
v 8.070249 79.680328 -101.087753
v 8.068116 65.174759 -99.822502
v 11.294806 67.604088 -99.870079
v 11.294818 82.055115 -101.529961
v 14.226170 79.680298 -101.087746
v 14.224038 65.174805 -99.822502
v 15.699032 46.902592 -58.890423
v -15.736067 46.974834 -59.546478
v -7.435460 47.055023 -58.469921
v 22.417624 45.149479 -64.150261
v 18.842585 45.229568 -54.839951
v -22.433313 45.167847 -64.416077
v 19.758818 46.098801 -58.840202
v 8.971928 47.377106 -65.516045
v -19.845882 46.194675 -58.643669
v -17.853613 45.174095 -54.706913
v -19.414843 45.324512 -55.216843
v -22.476982 45.126755 -96.819077
v -22.456343 42.943005 -96.863770
v 22.423008 42.925026 -96.815926
v 22.278606 42.910934 -58.391487
v 20.674623 42.895805 -55.950043
v 21.868023 45.144981 -57.366154
v -22.269039 42.876972 -58.420593
v 9.494552 47.302208 -96.844658
v -15.202821 47.078007 -96.854401
v 18.249987 42.874100 -54.788929
v -18.244593 42.885216 -54.804100
v -20.695065 42.866589 -55.971416
v -21.818005 45.142097 -57.307320
v 18.411776 46.641159 -96.851891
v -19.917006 46.285206 -96.856491
v 22.435272 45.076710 -96.862198
v -22.825796 -0.097624 75.249657
v 15.684653 -0.097625 64.825806
v -25.332426 -0.084707 76.002357
v -26.453506 42.785641 73.225708
v -23.308266 42.785641 72.374374
v -26.084641 -0.097625 73.495659
v -25.602165 42.785645 76.370941
v -22.456928 42.785641 75.519608
v -23.578011 -0.084708 72.742958
v 16.053520 42.785641 65.095749
v 12.056938 42.785641 62.801861
v 15.202181 42.785641 61.950520
v 14.932438 -0.084709 62.319111
v 12.425803 -0.097626 63.071812
v 13.178020 -0.084708 65.578514
v 12.908277 42.785641 65.947098
v -11.187186 99.323494 117.114998
v -4.017848 100.721825 116.361710
v 23.577024 99.406204 105.347542
v 23.143984 90.209747 103.727303
v 16.932671 100.724510 108.304268
v -5.347273 90.209846 112.118797
v -5.043381 100.699768 114.262917
v -12.275312 90.209846 113.135147
v -11.795856 99.411911 114.923393
v 17.376547 100.691017 110.539856
v 24.160902 99.324524 107.554207
v 23.887676 90.209846 106.509956
v -11.441348 90.209564 116.253838
v 17.015984 90.209846 109.228859
v 6.302774 54.952881 107.279549
v 7.185308 90.345390 110.540031
v 4.356788 90.345390 111.305641
v 3.099387 54.952881 106.651924
v 3.474253 54.952869 108.045158
v 5.925814 54.952881 105.886879
v 6.814389 90.345390 109.169685
v 3.987963 90.345390 109.934731
v -6.135155 54.952881 109.151497
v -8.073007 90.345390 113.199348
v -0.193063 54.952881 107.543114
v -3.019490 54.952881 108.308159
v 0.695514 90.345390 110.825920
v -2.130913 90.345390 111.590965
v 16.332706 90.345390 106.593300
v 12.170767 54.952881 104.196526
v 9.344341 54.952881 104.961563
v 13.059340 90.345390 107.479332
v 10.232915 90.345390 108.244370
v 9.719204 54.952869 106.354805
v 12.547726 54.952881 105.589188
v 10.601740 90.345390 109.615288
v 13.430260 90.345390 108.849670
v 18.270557 54.952881 102.545456
v 19.159134 90.345390 105.828262
v 19.530056 90.345390 107.198616
v 16.701534 90.345390 107.964218
v 15.444134 54.952881 103.310493
v 15.818997 54.952869 104.703735
v 18.647518 54.952881 103.938118
v -2.644624 54.952869 109.701393
v 0.183897 54.952881 108.935776
v 1.066433 90.345390 112.196266
v -1.762088 90.345390 112.961876
v -5.246579 90.345390 112.434303
v -4.875659 90.345390 113.804642
v -8.961585 54.952881 109.916542
v -8.586717 54.952869 111.309769
v -5.758196 54.952881 110.544151
v -7.704181 90.345390 114.570259
v 26.659866 100.649460 104.280426
v -12.601718 -0.110528 113.752556
v -11.850582 100.649460 114.704277
v 27.511208 100.649460 107.425652
v 26.660873 78.787743 104.284134
v 26.410444 60.548801 103.335922
v 25.137897 22.130396 98.818375
v 23.026169 49.377338 103.327156
v 16.154472 55.172623 106.046051
v -5.411016 55.176914 111.883308
v -16.493881 61.108768 110.021080
v -13.382199 22.122025 109.245758
v -16.401937 21.616423 110.120445
v -14.827283 -0.110528 114.354965
v 24.285568 -0.110529 106.156685
v 26.511139 -0.110529 105.554268
v -10.999243 100.649460 117.849510
v -11.987155 73.132309 114.172005
v -12.903998 78.787743 110.812462
v -13.347350 61.162697 109.174530
v -12.143559 20.976316 113.943398
v -14.995818 100.649460 115.555611
v -16.049225 78.787743 111.663803
v -14.994804 78.787743 115.559326
v -15.126627 20.976316 114.750839
v -14.144479 100.649460 118.700844
v -15.252097 60.562912 114.613129
v -14.224875 -0.110528 116.580528
v -11.999310 -0.110528 115.978119
v 23.514626 100.649460 105.131767
v 25.606449 78.787743 100.388611
v 22.461205 78.787743 101.239952
v 25.163097 61.162697 98.750679
v 25.908733 -0.110529 103.328705
v 24.365963 100.649460 108.277000
v 23.377548 74.240211 104.635696
v 22.016562 61.110016 99.597229
v 22.097601 21.621626 99.698700
v 23.372925 20.976315 104.329941
v 23.683159 -0.110529 103.931122
v 22.197517 49.377338 100.265739
v -6.239668 49.377338 108.821899
v -6.239668 55.181133 108.821892
v -13.167706 55.179028 109.838242
v -12.339053 55.174732 112.899666
v 15.325819 55.176838 102.984634
v 23.026169 55.174732 103.327148
v 22.197517 55.179028 100.265732
v 16.154472 49.377338 106.046059
v 15.325819 49.377338 102.984642
v -5.411016 49.377338 111.883316
v -12.339053 49.377338 112.899673
v -13.167706 49.377338 109.838249
v 26.377773 20.976315 103.516602
v 14.575817 36.643959 63.101765
v -25.345600 42.785641 73.907539
v -15.686774 36.644081 109.591652
v -15.686774 42.785645 109.591652
v 14.575817 42.785641 63.101765
v 24.234650 42.785645 98.785889
v 24.234650 36.644081 98.785889
v -25.345600 36.643959 73.907532
v 6.216546 67.604019 106.960938
v 3.376632 65.174812 107.680344
v 3.705155 79.680405 108.902222
v 6.650223 82.055191 108.563187
v 3.332513 79.748833 107.517090
v 3.001719 65.174728 106.287125
v 5.839807 67.613907 105.569023
v 6.273320 82.055099 107.170738
v -9.059255 65.174835 109.551727
v -6.221173 67.613426 108.833611
v -8.728450 79.749008 110.781723
v -5.787649 82.055069 110.435341
v -3.117158 65.174828 107.943352
v -0.279075 67.613747 107.225250
v -2.786360 79.748886 109.173325
v 0.154446 82.055138 108.826973
v 15.346462 65.174828 102.945694
v 18.184549 67.613808 102.227592
v 15.677261 79.748863 104.175667
v 18.618063 82.055054 103.829300
v 9.246674 65.174896 104.596764
v 12.084753 67.613663 103.878654
v 9.577464 79.748795 105.826721
v 12.518272 82.055092 105.480377
v 9.950105 79.680367 107.211861
v 9.621589 65.174828 105.989983
v 12.461501 67.604172 105.270592
v 12.895173 82.055130 106.872818
v 18.561296 67.604187 103.619530
v 18.994974 82.055191 105.221771
v 16.049902 79.680412 105.560791
v 15.721378 65.174980 104.338921
v 0.097671 67.604111 108.617180
v 0.531347 82.055161 110.219414
v -2.413721 79.680420 110.558456
v -2.742244 65.174789 109.336578
v -5.844422 67.604065 110.225563
v -5.410749 82.055084 111.827782
v -8.355815 79.680428 112.166840
v -8.684337 65.174858 110.944962
v -20.802574 46.902599 71.820061
v 9.712046 46.974834 64.240135
v 1.418321 47.055027 65.369759
v -25.913538 45.149483 78.652550
v -24.895212 45.229572 68.731606
v 17.448950 45.167854 67.190811
v -24.734442 46.098808 72.832314
v -12.578014 47.377110 76.457954
v 13.443222 46.194672 62.294922
v 10.491569 45.174099 59.015427
v 12.131803 45.324512 59.099731
v 25.957150 45.126770 98.456856
v 25.948898 42.943016 98.505394
v -17.384050 42.925041 110.185013
v -27.283960 42.910938 73.057541
v -26.373585 42.895813 70.281815
v -27.155531 45.144981 71.960503
v 15.723912 42.876976 61.446484
v -4.897253 47.302216 106.834915
v 18.944906 47.078022 100.391502
v -24.336538 42.874104 68.527519
v 10.894392 42.885220 59.007088
v 13.564697 42.866589 59.493610
v 14.997676 45.142101 60.489719
v -13.502714 46.641178 109.171677
v 23.495920 46.285198 99.161827
v -17.383802 45.076717 110.232880
vn -0.3834 -0.5257 0.7594
vn 0.3943 -0.6136 0.6841
vn -0.7106 0.1275 0.6920
vn 0.7594 -0.5255 0.3836
vn 0.7244 -0.4166 -0.5492
vn 0.6099 0.0792 0.7885
vn -0.4843 -0.4329 -0.7603
vn -0.8167 -0.0774 -0.5718
vn -0.7595 -0.5253 -0.3837
vn -0.7243 -0.4168 0.5493
vn -0.6100 0.0793 -0.7884
vn 0.4844 -0.4328 0.7603
vn 0.8164 -0.0773 0.5723
vn 0.3850 -0.5235 -0.7601
vn -0.3921 -0.6154 -0.6838
vn 0.7105 0.1280 -0.6920
vn 0.5817 -0.7605 -0.2885
vn 0.7245 -0.6833 0.0908
vn 0.7795 -0.5286 0.3361
vn -0.1457 -0.7619 -0.6310
vn 0.0007 -0.0086 -1.0000
vn 0.2692 -0.5963 -0.7563
vn 0.2060 -0.7333 0.6479
vn 0.0009 -0.0087 1.0000
vn 0.2487 -0.5964 0.7631
vn 0.0005 -0.0092 1.0000
vn 0.1500 -0.7614 0.6307
vn 0.0171 -0.7091 0.7049
vn 0.0012 -0.0089 -1.0000
vn 0.2702 -0.6860 -0.6756
vn 0.3596 -0.6615 -0.6581
vn 0.2216 -0.7262 0.6508
vn -0.0009 -0.0095 -1.0000
vn -0.1500 -0.7614 -0.6307
vn -0.0175 -0.7085 -0.7055
vn -0.0012 -0.0089 1.0000
vn -0.2702 -0.6857 0.6759
vn -0.3597 -0.6617 0.6579
vn -0.2216 -0.7274 -0.6495
vn 0.1456 -0.7619 0.6311
vn -0.2696 -0.5958 0.7565
vn -0.2058 -0.7332 -0.6481
vn -0.0010 -0.0088 -1.0000
vn -0.2489 -0.5964 -0.7631
vn -1.0000 -0.0092 0.0004
vn -0.6312 -0.7612 0.1491
vn -0.6975 -0.7164 0.0143
vn 0.6767 -0.7363 -0.0053
vn 1.0000 -0.0089 -0.0013
vn 0.6938 -0.6972 -0.1804
vn 0.6473 -0.7329 -0.2093
vn -0.6766 -0.7363 0.0051
vn -1.0000 -0.0089 0.0013
vn -0.6937 -0.6972 0.1805
vn -0.6472 -0.7330 0.2095
vn 1.0000 -0.0092 -0.0004
vn 0.6311 -0.7612 -0.1492
vn 0.6976 -0.7164 -0.0143
vn 0.6666 -0.6998 0.2566
vn 1.0000 -0.0088 0.0011
vn 0.7996 -0.6004 -0.0088
vn -1.0000 -0.0000 0.0010
vn -1.0000 -0.0080 -0.0040
vn -1.0000 -0.0009 -0.0010
vn 0.0086 -0.1024 0.9947
vn 0.0092 -0.1011 0.9948
vn -0.0005 0.0466 0.9989
vn -1.0000 -0.0000 0.0011
vn -1.0000 -0.0080 -0.0038
vn -1.0000 -0.0013 -0.0016
vn 0.0022 -0.0916 0.9958
vn -0.0001 -0.1120 0.9937
vn -0.0003 0.0467 0.9989
vn 0.5269 -0.6581 0.5379
vn 0.1401 -0.6738 0.7255
vn 0.7256 -0.6737 0.1402
vn 0.7444 0.5734 0.3421
vn 0.0094 0.9803 0.1971
vn 0.3068 0.5085 0.8046
vn 0.1256 0.9758 0.1790
vn -0.1170 0.5194 0.8465
vn -0.3546 0.6097 0.7089
vn -0.1672 -0.6152 0.7704
vn -0.5306 -0.6456 0.5492
vn -0.8157 0.4336 0.3830
vn -0.8470 0.5316 -0.0001
vn -0.7466 -0.6529 0.1276
vn -0.5799 -0.5433 -0.6071
vn -0.6579 0.4990 -0.5641
vn -0.0750 0.7257 -0.6839
vn -0.2246 0.6920 -0.6861
vn 0.6641 0.4381 -0.6059
vn 0.8387 0.5446 0.0003
vn 0.9650 -0.0006 -0.2622
vn 0.9663 -0.0082 -0.2574
vn 0.9649 -0.0004 -0.2626
vn -0.2624 -0.0917 -0.9606
vn -0.2596 -0.1121 -0.9592
vn -0.2607 0.0467 -0.9643
vn 0.9650 -0.0001 -0.2624
vn 0.9663 -0.0081 -0.2571
vn 0.9655 -0.0012 -0.2603
vn -0.2622 -0.0917 -0.9606
vn -0.2596 -0.1119 -0.9592
vn -0.6490 -0.6582 -0.3815
vn -0.3240 -0.6719 -0.6660
vn -0.7301 -0.6833 -0.0011
vn -0.8081 0.5733 -0.1355
vn -0.0607 0.9803 -0.1878
vn -0.4834 0.5060 -0.7144
vn -0.1680 0.9758 -0.1400
vn -0.1082 0.5193 -0.8477
vn 0.1568 0.6096 -0.7770
vn -0.0408 -0.6153 -0.7872
vn 0.3686 -0.6456 -0.6688
vn 0.6874 0.4336 -0.5826
vn 0.8176 0.5316 -0.2211
vn 0.6555 -0.6759 -0.3367
vn 0.7319 -0.5408 0.4145
vn 0.8515 0.3860 0.3548
vn 0.2298 0.7268 0.6472
vn 0.3960 0.6919 0.6037
vn -0.4830 0.4379 0.7583
vn -0.8091 0.5453 0.2193
vn 0.7596 -0.4335 -0.4848
vn 0.7528 0.1035 -0.6501
vn -0.7597 -0.4331 0.4850
vn -0.7527 0.1031 0.6502
vn -0.6444 -0.7635 -0.0427
vn -0.6385 -0.7508 -0.1690
vn -0.6535 -0.7282 0.2063
vn 0.5262 0.7212 -0.4506
vn 0.6418 0.7499 0.1606
vn 0.8715 0.4877 -0.0522
vn -0.7339 0.6520 -0.1906
vn -0.8641 0.5032 -0.0059
vn 0.1810 -0.6972 0.6936
vn 0.2935 -0.6542 -0.6971
vn 0.1812 -0.6978 -0.6930
vn -0.1809 -0.6978 0.6931
vn -0.1809 -0.6972 -0.6937
vn -0.2935 -0.6555 0.6958
vn -0.6508 -0.7251 0.2253
vn 0.7680 -0.5957 0.2352
vn 0.6934 -0.6980 -0.1788
vn 1.0000 -0.0085 0.0007
vn 0.6759 -0.6854 0.2708
vn -1.0000 -0.0089 -0.0011
vn -0.7562 -0.5964 -0.2693
vn -0.6313 -0.7609 -0.1500
vn -0.6955 -0.6553 -0.2947
vn 0.7563 -0.5963 0.2693
vn 0.6316 -0.7616 -0.1450
vn -0.8398 -0.5405 -0.0512
vn -0.7681 -0.5956 -0.2351
vn -0.6931 -0.6978 -0.1807
vn -1.0000 -0.0085 -0.0007
vn 0.2402 0.6224 -0.7449
vn 0.0668 -0.1469 -0.9869
vn 0.0980 0.6564 -0.7480
vn 0.0083 -0.0046 -1.0000
vn -0.0211 -0.0573 -0.9981
vn 0.0223 -0.1441 -0.9893
vn 0.0215 0.0577 0.9981
vn -0.0088 0.0048 0.9999
vn -0.0218 0.1455 0.9891
vn 0.0212 0.0576 0.9981
vn -0.0220 0.1454 0.9891
vn 0.0214 0.0576 0.9981
vn -0.0217 0.1455 0.9891
vn -0.0089 0.0048 0.9999
vn -0.0221 0.1455 0.9891
vn 0.0212 0.0574 0.9981
vn -0.0219 0.1454 0.9891
vn -0.0211 -0.0574 -0.9981
vn 0.0223 -0.1442 -0.9893
vn 0.0081 -0.0045 -1.0000
vn -0.0211 -0.0572 -0.9981
vn -0.9999 -0.0118 -0.0041
vn -0.0008 0.0476 0.9989
vn -0.0373 -0.0634 -0.9973
vn 0.0420 -0.1236 -0.9914
vn 0.0932 -0.0084 -0.9956
vn -0.9999 -0.0114 -0.0033
vn -0.0373 -0.0635 -0.9973
vn 0.0419 -0.1236 -0.9914
vn 0.0933 -0.0084 -0.9956
vn -0.0007 0.0477 0.9989
vn 0.5226 -0.6262 -0.5785
vn 0.2842 0.9544 0.0917
vn -0.2891 0.9455 0.1497
vn -0.0686 0.9915 0.1108
vn -0.0605 0.7285 -0.6824
vn 0.1762 0.7259 -0.6648
vn -0.0000 -1.0000 -0.0000
vn -0.0373 0.6224 0.7818
vn 0.1934 -0.1470 0.9700
vn 0.0990 0.6527 0.7511
vn 0.2533 -0.0046 0.9674
vn 0.2811 -0.0571 0.9580
vn 0.2369 -0.1440 0.9608
vn -0.2813 0.0571 -0.9579
vn -0.2530 0.0046 -0.9675
vn -0.2371 0.1455 -0.9605
vn -0.2811 0.0577 -0.9579
vn -0.2528 0.0048 -0.9675
vn -0.2810 0.0578 -0.9580
vn -0.2527 0.0047 -0.9675
vn -0.2813 0.0575 -0.9579
vn -0.2533 0.0049 -0.9674
vn -0.2370 0.1456 -0.9605
vn 0.2530 -0.0045 0.9674
vn 0.2811 -0.0572 0.9580
vn 0.2370 -0.1441 0.9608
vn 0.2534 -0.0046 0.9674
vn 0.2812 -0.0571 0.9580
vn 0.2368 -0.1440 0.9608
vn 0.2532 -0.0044 0.9674
vn 0.2370 -0.1439 0.9608
vn 0.2531 -0.0045 0.9674
vn 0.2371 -0.1440 0.9608
vn 0.9663 -0.0119 -0.2571
vn -0.2603 0.0477 -0.9644
vn 0.2723 -0.1245 0.9541
vn 0.2176 -0.0675 0.9737
vn 0.3564 -0.0085 0.9343
vn 0.9660 -0.0116 -0.2581
vn 0.2960 -0.0637 0.9531
vn 0.2184 -0.1236 0.9680
vn 0.1697 -0.0085 0.9855
vn -0.9653 -0.0000 0.2611
vn -0.9654 0.0001 0.2607
vn -0.9645 -0.0013 0.2640
vn -0.3736 -0.6381 0.6732
vn -0.2990 0.9541 -0.0145
vn 0.2399 0.9456 -0.2200
vn 0.0149 0.9885 -0.1504
vn 0.2404 0.7186 0.6525
vn 0.0033 0.7258 0.6879
vn -0.7652 0.1413 0.6281
vn -0.5866 -0.1630 -0.7933
vn 0.6980 0.1664 0.6965
vn -0.4782 -0.4664 -0.7442
vn 0.6276 0.1400 -0.7658
vn -0.7410 -0.5408 0.3981
vn -0.7644 0.1418 -0.6289
vn -0.6046 -0.1961 0.7720
vn -0.6972 0.1641 0.6978
vn 0.6984 0.1664 -0.6961
vn 0.6272 0.1398 0.7662
vn 0.7409 -0.5409 -0.3980
vn 0.7650 0.1413 0.6283
vn 0.6044 -0.1962 -0.7721
vn 0.6973 0.1640 -0.6978
vn -0.6984 0.1663 0.6961
vn -0.6273 0.1399 -0.7661
vn 0.3909 -0.7996 0.4560
vn 0.6174 0.0588 0.7844
vn 0.7652 0.1411 -0.6281
vn -0.6980 0.1666 -0.6965
vn -0.6277 0.1400 0.7658
vn -0.3031 -0.7831 0.5431
vn 0.4330 -0.7399 0.5148
vn -0.4762 -0.5111 -0.7156
vn 0.2511 -0.5822 -0.7733
vn -0.5974 0.6073 0.5237
vn -0.6146 0.7771 0.1353
vn -0.1922 0.6131 0.7663
vn -0.2062 0.6367 -0.7430
vn 0.4326 0.7399 -0.5151
vn 0.2513 0.5820 0.7734
vn -0.0373 0.5389 0.8416
vn -0.1456 0.6829 0.7159
vn 0.1345 -0.6898 0.7114
vn -0.2203 -0.5877 0.7785
vn -0.0172 -0.5142 -0.8575
vn -0.0408 0.4904 -0.8705
vn -0.0143 -0.7004 -0.7136
vn 0.1204 0.5382 -0.8342
vn 0.5585 -0.5824 -0.5906
vn -0.5586 -0.5823 0.5907
vn -0.5922 -0.5781 -0.5614
vn 0.5586 -0.5823 -0.5907
vn -0.5922 -0.5779 -0.5615
vn -1.0000 -0.0067 0.0011
vn -1.0000 -0.0067 -0.0000
vn -0.0011 -0.0082 -1.0000
vn 0.5922 -0.5781 0.5614
vn 0.0011 -0.0082 1.0000
vn 1.0000 -0.0067 -0.0011
vn 1.0000 -0.0067 -0.0000
vn -0.0245 0.7208 0.6927
vn 0.0529 0.2068 0.9770
vn -0.0353 0.8118 0.5829
vn 0.0532 0.8090 0.5854
vn 0.0201 0.7099 0.7040
vn -0.0590 0.2207 0.9736
vn -0.2229 0.6154 -0.7561
vn -0.0000 -1.0000 0.0001
vn -0.0562 -0.1325 -0.9896
vn -0.1114 0.6514 -0.7505
vn 0.0067 0.0350 -0.9994
vn -0.0000 0.0369 -0.9993
vn -0.0066 -0.1970 -0.9804
vn -0.0079 -0.2372 -0.9714
vn 1.0000 0.0001 0.0016
vn 1.0000 0.0002 0.0015
vn 1.0000 -0.0000 0.0017
vn 1.0000 0.0001 0.0011
vn 1.0000 -0.0000 0.0015
vn 1.0000 -0.0000 0.0010
vn 1.0000 0.0001 0.0015
vn -0.0068 -0.0350 0.9994
vn 0.0066 0.1988 0.9800
vn 0.0078 0.2393 0.9709
vn -0.0000 0.2419 0.9703
vn -1.0000 -0.0000 -0.0000
vn 0.0062 0.1986 0.9801
vn 0.0078 0.2398 0.9708
vn -0.0000 0.2423 0.9702
vn 0.0064 0.1987 0.9800
vn 0.0063 0.1986 0.9801
vn -0.0000 0.2424 0.9702
vn 0.0078 0.2394 0.9709
vn -0.0000 0.2420 0.9703
vn 1.0000 -0.0000 0.0009
vn 1.0000 0.0001 0.0012
vn 1.0000 0.0002 0.0014
vn 1.0000 -0.0000 0.0012
vn -0.0067 -0.1971 -0.9804
vn 1.0000 -0.0000 0.0013
vn -0.0000 1.0000 -0.0000
vn -0.9998 -0.0186 -0.0002
vn -0.9998 -0.0191 -0.0002
vn -1.0000 0.0001 0.0002
vn -1.0000 0.0003 0.0012
vn -0.1122 -0.0000 -0.9937
vn -0.0562 -0.0000 -0.9984
vn 0.0593 -0.0000 -0.9982
vn 0.1184 -0.0000 -0.9930
vn -0.0000 0.1387 0.9903
vn -0.0000 0.1804 0.9836
vn -0.0000 0.1391 0.9903
vn 0.0009 -0.2020 0.9794
vn 0.0065 -0.1463 -0.9892
vn -0.0000 -0.1472 -0.9891
vn 0.0029 0.0489 -0.9988
vn -0.0000 0.0945 -0.9955
vn -0.0000 0.0491 -0.9988
vn -1.0000 0.0004 0.0014
vn 1.0000 -0.0000 -0.0000
vn 1.0000 -0.0006 -0.0000
vn 1.0000 -0.0088 -0.0041
vn 0.9999 -0.0116 -0.0034
vn 0.0065 -0.1469 -0.9891
vn -0.0000 0.1808 0.9835
vn -0.0013 -0.2023 0.9793
vn 1.0000 -0.0007 0.0001
vn 1.0000 -0.0088 -0.0025
vn 0.9999 -0.0114 -0.0034
vn 0.9998 -0.0191 -0.0002
vn 0.9998 -0.0191 -0.0000
vn 0.9998 -0.0186 -0.0003
vn 0.9998 -0.0186 -0.0000
vn 0.1122 -0.0000 0.9937
vn 0.0562 -0.0000 0.9984
vn -0.0593 -0.0000 0.9982
vn -0.1184 -0.0000 0.9930
vn 0.0004 1.0000 -0.0018
vn 0.0001 1.0000 -0.0017
vn -0.0000 1.0000 -0.0013
vn 0.0001 1.0000 -0.0008
vn 0.0001 1.0000 -0.0014
vn -0.0000 -0.0000 -1.0000
vn -0.0000 -0.0000 1.0000
vn 0.0240 0.9996 0.0130
vn 0.7160 -0.5825 0.3848
vn -0.7161 -0.5823 -0.3848
vn 0.3873 -0.5779 -0.7183
vn -0.7159 -0.5824 -0.3851
vn 0.3872 -0.5781 -0.7183
vn 0.9650 -0.0082 -0.2623
vn -0.3875 -0.5782 0.7180
vn 0.2623 -0.0067 0.9650
vn 0.2613 -0.0067 0.9652
vn -0.2623 -0.0067 -0.9650
vn -0.2613 -0.0067 -0.9652
vn -0.9650 -0.0082 0.2623
vn -0.3873 -0.5779 0.7184
vn -0.1104 0.8133 -0.5713
vn -0.2011 0.2068 -0.9575
vn -0.1961 0.8073 -0.5566
vn -0.3111 0.2192 -0.9248
vn -0.1623 0.7127 -0.6825
vn -0.2050 0.7182 -0.6650
vn 0.4131 0.6154 0.6713
vn 0.3001 0.6545 0.6940
vn -0.0000 -1.0000 -0.0001
vn 0.3127 -0.1324 0.9406
vn 0.2546 0.0350 0.9664
vn 0.2611 0.0369 0.9646
vn 0.2626 -0.1970 0.9446
vn 0.2614 -0.2372 0.9356
vn -0.9658 -0.0002 0.2593
vn -0.9657 0.0002 0.2598
vn -0.9658 -0.0002 0.2594
vn -0.9658 0.0001 0.2594
vn -0.9656 -0.0000 0.2599
vn -0.9657 0.0001 0.2598
vn -0.2546 -0.0350 -0.9664
vn -0.2622 0.1987 -0.9444
vn -0.2611 0.2398 -0.9351
vn -0.2535 0.2423 -0.9365
vn 0.9651 -0.0000 -0.2617
vn 0.9652 -0.0001 -0.2614
vn 0.9653 -0.0000 -0.2613
vn -0.2547 -0.0347 -0.9664
vn -0.2622 0.1987 -0.9443
vn -0.2535 0.2424 -0.9365
vn -0.2618 0.1986 -0.9445
vn -0.2619 0.1986 -0.9445
vn -0.2534 0.2420 -0.9366
vn -0.2620 0.1986 -0.9444
vn -0.9658 -0.0000 0.2594
vn -0.9656 0.0002 0.2600
vn 0.2627 -0.1970 0.9446
vn -0.9657 0.0005 0.2598
vn -0.9656 0.0004 0.2600
vn -0.9656 0.0002 0.2599
vn 0.2628 -0.1971 0.9445
vn 0.2616 -0.2368 0.9357
vn -0.9656 0.0001 0.2599
vn -0.9657 0.0003 0.2598
vn -0.9657 0.0001 0.2595
vn 0.2613 -0.2369 0.9357
vn 0.2626 -0.1971 0.9446
vn 0.9652 -0.0186 -0.2610
vn 0.9651 -0.0191 -0.2610
vn 0.9654 0.0002 -0.2608
vn 0.9654 0.0002 -0.2609
vn 0.3679 -0.0000 0.9299
vn 0.3151 -0.0000 0.9491
vn 0.2036 -0.0000 0.9791
vn 0.1451 -0.0000 0.9894
vn -0.2587 0.1387 -0.9559
vn -0.2571 0.1805 -0.9494
vn -0.2588 0.1387 -0.9559
vn -0.2546 -0.2026 -0.9456
vn 0.2620 -0.1472 0.9538
vn 0.2640 0.0489 0.9633
vn 0.2610 0.0491 0.9641
vn 0.2605 0.0946 0.9608
vn 0.2598 0.0948 0.9610
vn 0.9652 0.0001 -0.2614
vn 0.9649 0.0004 -0.2626
vn -0.9653 -0.0000 0.2613
vn -0.9652 -0.0000 0.2616
vn -0.9651 -0.0000 0.2617
vn -0.9653 -0.0006 0.2612
vn -0.9645 -0.0088 0.2638
vn -0.9645 -0.0113 0.2640
vn 0.2522 -0.1468 0.9565
vn 0.2581 0.0489 0.9649
vn 0.2601 0.0945 0.9609
vn -0.2567 0.1808 -0.9494
vn -0.2584 0.1391 -0.9560
vn -0.9653 -0.0000 0.2612
vn -0.9644 -0.0111 0.2644
vn -0.9651 -0.0193 0.2610
vn -0.9651 -0.0191 0.2612
vn -0.9650 -0.0186 0.2615
vn -0.9651 -0.0186 0.2612
vn -0.3679 -0.0000 -0.9299
vn -0.3151 -0.0000 -0.9491
vn -0.2036 -0.0000 -0.9791
vn -0.1451 -0.0000 -0.9894
vn -0.0001 1.0000 0.0014
vn 0.0002 1.0000 0.0013
vn 0.0004 1.0000 0.0013
vn -0.0000 1.0000 0.0020
vn 0.2613 -0.0000 0.9653
vn -0.2613 -0.0000 -0.9653
vn -0.0337 0.9994 -0.0070
vn -0.6971 0.1642 -0.6979
vn 0.6972 0.1639 0.6979
vn -0.0000 -0.0083 -1.0000
vn -0.0000 -0.0083 1.0000
vn 0.1100 0.1961 0.9744
vn -0.1114 -0.1168 -0.9869
vn -0.0000 -0.2398 -0.9708
vn -0.0000 -0.0369 0.9993
vn -0.9998 -0.0186 -0.0000
vn -0.9998 -0.0191 -0.0000
vn -0.0000 -0.2021 0.9794
vn 1.0000 -0.0007 0.0005
vn -0.0000 -0.1478 -0.9890
vn -0.0000 -0.2024 0.9793
vn 1.0000 -0.0006 0.0003
vn -0.0001 1.0000 -0.0017
vn 0.9652 -0.0083 -0.2613
vn -0.9652 -0.0083 0.2613
vn -0.1426 0.1958 -0.9702
vn 0.3652 -0.1172 0.9235
vn 0.2536 -0.2398 0.9371
vn -0.2611 -0.0369 -0.9646
vn -0.9657 -0.0000 0.2596
vn 0.2538 -0.2395 0.9371
vn 0.9652 0.0002 -0.2614
vn 0.2537 -0.2398 0.9371
vn 0.2535 -0.2395 0.9372
vn 0.9651 -0.0186 -0.2612
vn 0.9651 -0.0191 -0.2612
vn -0.2558 -0.2028 -0.9452
vn 0.2584 -0.1477 0.9547
vn -0.9654 -0.0008 0.2608
vn -0.9645 -0.0086 0.2640
vn -0.3148 -0.0000 -0.9492
vt 0.622288 0.689562
vt 0.646960 0.684809
vt 0.630007 0.763086
vt 0.852816 0.344786
vt 0.880896 0.340405
vt 0.858547 0.427224
vt 0.767051 0.340375
vt 0.794743 0.344779
vt 0.788498 0.427235
vt 0.645697 0.663539
vt 0.617630 0.668003
vt 0.639723 0.581119
vt 0.731474 0.667697
vt 0.703770 0.663375
vt 0.709771 0.580901
vt 0.709168 0.973009
vt 0.684381 0.976281
vt 0.705669 0.899155
vt 0.013472 0.978498
vt 0.011899 0.709350
vt 0.013510 0.702219
vt 0.560936 0.259905
vt 0.553787 0.296247
vt 0.540142 0.258192
vt 0.517718 0.245713
vt 0.554025 0.208536
vt 0.539985 0.247011
vt 0.553706 0.296884
vt 0.560914 0.333236
vt 0.540124 0.334980
vt 0.554102 0.384588
vt 0.517731 0.347481
vt 0.539980 0.346151
vt 0.517641 0.333515
vt 0.025754 0.296884
vt 0.018481 0.260584
vt 0.039266 0.258799
vt 0.025202 0.209186
vt 0.061573 0.246275
vt 0.039398 0.247626
vt 0.061741 0.260226
vt 0.018459 0.333679
vt 0.025671 0.297390
vt 0.039249 0.335433
vt 0.061597 0.347862
vt 0.025278 0.385093
vt 0.039393 0.346615
vt 0.023131 0.202922
vt 0.015544 0.164471
vt 0.039625 0.162388
vt 0.283092 0.147881
vt 0.300182 0.106921
vt 0.307387 0.146285
vt 0.259762 0.146748
vt 0.348993 0.161060
vt 0.332468 0.199781
vt 0.325895 0.162417
vt 0.371158 0.162347
vt 0.596416 0.110912
vt 0.603367 0.147528
vt 0.580472 0.149349
vt 0.371145 0.148245
vt 0.332717 0.111629
vt 0.558116 0.147826
vt 0.642926 0.099489
vt 0.201251 0.053548
vt 0.539395 0.052413
vt 0.196132 0.418813
vt 0.196395 0.446419
vt 0.536090 0.446722
vt 0.640327 0.046159
vt 0.196386 0.000524
vt 0.536801 -0.000918
vt 0.198402 0.446484
vt 0.194017 0.418887
vt 0.536088 0.418487
vt 0.912856 0.942301
vt 0.924308 0.922082
vt 0.894024 0.954948
vt 0.490627 0.965937
vt 0.471788 0.966210
vt 0.481189 0.990478
vt 0.475877 0.647570
vt 0.508062 0.915178
vt 0.468917 0.882958
vt 0.511649 0.544823
vt 0.501399 0.527373
vt 0.528782 0.966195
vt 0.932035 0.966334
vt 0.529677 0.990425
vt 0.940461 0.990311
vt 0.505324 0.990152
vt 0.499325 0.965931
vt 0.481936 0.990403
vt 0.419379 0.990154
vt 0.471588 0.966201
vt 0.013209 0.966256
vt 0.013107 0.990493
vt 0.007219 0.568498
vt 0.049361 0.496559
vt 0.015002 0.521838
vt 0.013107 0.990276
vt 0.421499 0.990127
vt 0.924242 0.598773
vt 0.893910 0.566634
vt 0.534075 0.093838
vt 0.201248 0.053544
vt 0.198324 0.418726
vt 0.193966 0.446321
vt 0.536079 0.446722
vt 0.640404 0.046172
vt 0.198578 0.000219
vt 0.198399 0.446485
vt 0.194013 0.418887
vt 0.536090 0.418487
vt 0.912856 0.942301
vt 0.924308 0.922082
vt 0.894024 0.954948
vt 0.490627 0.965938
vt 0.471788 0.966210
vt 0.481189 0.990478
vt 0.475877 0.647572
vt 0.508062 0.915178
vt 0.468917 0.882958
vt 0.511649 0.544823
vt 0.501399 0.527374
vt 0.528784 0.966195
vt 0.932035 0.966334
vt 0.529677 0.990425
vt 0.940461 0.990311
vt 0.499325 0.965931
vt 0.481936 0.990403
vt 0.419376 0.990154
vt 0.471588 0.966201
vt 0.013209 0.966256
vt 0.013108 0.990493
vt 0.007219 0.568496
vt 0.049361 0.496559
vt 0.015003 0.521838
vt 0.013107 0.990276
vt 0.421499 0.990127
vt 0.893910 0.566634
vt 0.569947 0.691362
vt 0.567950 0.765159
vt 0.545191 0.688231
vt 0.761666 0.974391
vt 0.768073 0.900804
vt 0.786181 0.978963
vt 0.504671 0.709008
vt 0.503558 0.978081
vt 0.503183 0.701667
vt 0.011261 0.412004
vt 0.014207 0.688338
vt 0.009790 0.419332
vt 0.010858 0.010527
vt 0.006644 0.023355
vt 0.005912 0.010494
vt 0.504378 0.020698
vt 0.505068 0.007690
vt 0.509310 0.020659
vt 0.560973 0.245622
vt 0.517736 0.259659
vt 0.560977 0.347492
vt 0.018395 0.246329
vt 0.018400 0.347961
vt 0.061643 0.333940
vt 0.063189 0.163766
vt 0.039653 0.150588
vt 0.015332 0.149450
vt 0.021789 0.110034
vt 0.062867 0.148908
vt 0.300598 0.199820
vt 0.283350 0.159689
vt 0.307466 0.161333
vt 0.259915 0.161598
vt 0.348837 0.149858
vt 0.325926 0.148134
vt 0.558289 0.161969
vt 0.580358 0.160584
vt 0.603464 0.161824
vt 0.597052 0.199333
vt 0.593383 0.257296
vt 0.593489 0.171702
vt 0.661142 0.270734
vt 0.641709 0.507995
vt 0.668527 0.540426
vt 0.802229 0.507995
vt 0.668632 0.540386
vt 0.641707 0.507995
vt 0.802988 0.507995
vt 0.668633 0.540413
vt 0.641708 0.507995
vt 0.802987 0.507995
vt 0.668633 0.540413
vt 0.641707 0.507995
vt 0.802988 0.507995
vt 0.668634 0.540386
vt 0.641707 0.507995
vt 0.802988 0.507995
vt 0.668633 0.540386
vt 0.641707 0.507995
vt 0.802988 0.507995
vt 0.641709 0.507995
vt 0.668525 0.540426
vt 0.802230 0.507995
vt 0.641708 0.507995
vt 0.668527 0.540426
vt 0.802230 0.507995
vt 0.641707 0.507995
vt 0.668526 0.540426
vt 0.641706 0.507995
vt 0.668527 0.540426
vt 0.802229 0.507995
vt 0.191173 0.095026
vt 0.536546 0.418487
vt 0.638768 0.401138
vt 0.687961 0.372903
vt 0.529460 0.372903
vt 0.188578 0.041695
vt 0.638762 0.372903
vt 0.687961 0.401138
vt 0.529452 0.401138
vt 0.536546 0.446722
vt 0.912366 0.578948
vt 0.528804 0.562528
vt 0.529191 0.958870
vt 0.470295 0.921529
vt 0.484735 0.943931
vt 0.471743 0.526655
vt 0.437115 0.499642
vt 0.485367 0.505911
vt 0.462095 0.562735
vt 0.968122 0.990277
vt 0.958744 0.966171
vt 0.013481 0.966246
vt 0.004494 0.829340
vt 0.012558 0.909168
vt 0.026210 0.949968
vt 0.049912 0.949797
vt 0.025964 0.496686
vt 0.950672 0.140794
vt 0.950772 0.171702
vt 0.879208 0.171702
vt 0.641708 0.507995
vt 0.668526 0.540426
vt 0.802230 0.507995
vt 0.668635 0.540413
vt 0.641705 0.507995
vt 0.802988 0.507995
vt 0.668630 0.540413
vt 0.641708 0.507995
vt 0.802989 0.507995
vt 0.668634 0.540413
vt 0.641708 0.507995
vt 0.802989 0.507995
vt 0.668633 0.540386
vt 0.641706 0.507995
vt 0.802988 0.507995
vt 0.668633 0.540413
vt 0.641709 0.507995
vt 0.802987 0.507995
vt 0.641708 0.507995
vt 0.668527 0.540426
vt 0.802230 0.507995
vt 0.641708 0.507995
vt 0.668527 0.540426
vt 0.802230 0.507995
vt 0.668525 0.540426
vt 0.802232 0.507995
vt 0.648428 0.372903
vt 0.529917 0.401138
vt 0.638839 0.372903
vt 0.530039 0.401138
vt 0.649993 0.046672
vt 0.689525 0.013786
vt 0.536344 -0.000918
vt 0.912366 0.578948
vt 0.528804 0.562528
vt 0.529191 0.958870
vt 0.470295 0.921529
vt 0.484735 0.943931
vt 0.471743 0.526655
vt 0.437112 0.499642
vt 0.485367 0.505911
vt 0.462095 0.562735
vt 0.958744 0.966171
vt 0.013481 0.966246
vt 0.004495 0.829335
vt 0.012558 0.909167
vt 0.026210 0.949968
vt 0.049912 0.949798
vt 0.025964 0.496686
vt 0.642401 0.977239
vt 0.598808 0.765560
vt 0.678204 0.974436
vt 0.596469 0.692298
vt 0.570026 0.979933
vt 0.533876 0.979510
vt 0.848186 0.739875
vt 0.959310 0.853008
vt 0.847606 0.852796
vt 0.824155 0.346505
vt 0.783160 0.667131
vt 0.824197 0.428842
vt 0.823861 0.668110
vt 0.743034 0.665354
vt 0.864162 0.667393
vt 0.904570 0.665550
vt 0.958952 0.973457
vt 0.848241 0.859920
vt 0.959944 0.860538
vt 0.674352 0.661737
vt 0.714404 0.340991
vt 0.674069 0.579400
vt 0.673700 0.340132
vt 0.754534 0.342649
vt 0.633400 0.340967
vt 0.592998 0.342930
vt 0.729508 0.299928
vt 0.617543 0.186419
vt 0.731930 0.186361
vt 0.735326 0.972140
vt 0.737294 0.898553
vt 0.706472 0.684640
vt 0.670564 0.685292
vt 0.778879 0.686292
vt 0.814938 0.688881
vt 0.498846 0.697308
vt 0.017901 0.697706
vt 0.498973 0.983486
vt 0.018029 0.983890
vt 0.504123 0.683725
vt 0.502440 0.413540
vt 0.505512 0.676355
vt 0.500839 0.406224
vt 0.499749 0.688066
vt 0.496462 0.401907
vt 0.015552 0.407620
vt 0.018839 0.693779
vt 0.185427 0.022427
vt 0.189452 0.009484
vt 0.189493 0.022315
vt 0.180471 0.022438
vt 0.184690 0.009432
vt 0.500272 0.007807
vt 0.678891 0.006655
vt 0.683823 0.006683
vt 0.678907 0.019707
vt 0.001915 0.023534
vt 0.993849 0.017848
vt 0.998677 0.004845
vt 0.998675 0.017847
vt 0.692807 0.019689
vt 0.993829 0.004803
vt 0.687929 0.019567
vt 0.692790 0.006640
vt 0.683863 0.019643
vt 0.687888 0.006736
vt 0.194354 0.009430
vt 0.495411 0.020692
vt 0.495394 0.007642
vt 0.491869 0.985149
vt 0.025005 0.696049
vt 0.492664 0.689808
vt 0.022637 0.405878
vt 0.008161 0.008533
vt 0.030746 0.027078
vt 0.008161 0.027078
vt 0.948742 0.480352
vt 0.979577 0.955246
vt 0.943475 0.955246
vt 0.003946 0.458585
vt 0.478840 0.489421
vt 0.003803 0.484150
vt 0.961080 0.005111
vt 0.992884 0.471258
vt 0.989061 0.004968
vt 0.974310 0.480352
vt 0.486041 0.485707
vt 0.945348 0.454872
vt 0.945348 0.490974
vt 0.003946 0.484154
vt 0.478840 0.453318
vt 0.003803 0.458589
vt 0.989064 0.005111
vt 0.956781 0.471258
vt 0.961086 0.004968
vt 0.486041 0.460139
vt 0.583532 0.272052
vt 0.511508 0.361263
vt 0.511502 0.260480
vt 0.292356 0.261370
vt 0.224156 0.250550
vt 0.292356 0.239982
vt 0.224156 0.272015
vt 0.224265 0.361280
vt 0.583532 0.250530
vt 0.879208 0.140794
vt 0.950772 0.140794
vt 0.878868 0.171702
vt 0.950432 0.257296
vt 0.878868 0.270734
vt 0.528449 0.540426
vt 0.528449 0.507995
vt 0.828723 0.540426
vt 0.920587 0.507995
vt 0.920587 0.540234
vt 0.802229 0.556219
vt 0.920587 0.556219
vt 0.802988 0.540234
vt 0.641709 0.556219
vt 0.528449 0.540234
vt 0.528449 0.556219
vt 0.828722 0.540385
vt 0.920587 0.540426
vt 0.828722 0.540426
vt 0.668527 0.556219
vt 0.828723 0.556219
vt 0.828723 0.540385
vt 0.828723 0.540426
vt 0.828724 0.540426
vt 0.828724 0.540385
vt 0.828723 0.540385
vt 0.828723 0.540426
vt 0.828723 0.540385
vt 0.828723 0.540426
vt 0.802230 0.556219
vt 0.802988 0.540234
vt 0.641709 0.556219
vt 0.828723 0.540426
vt 0.668525 0.556219
vt 0.828723 0.556219
vt 0.668527 0.556219
vt 0.828725 0.556219
vt 0.802230 0.556219
vt 0.802988 0.540234
vt 0.641708 0.556219
vt 0.828725 0.540426
vt 0.668526 0.556219
vt 0.828723 0.556219
vt 0.802988 0.540234
vt 0.641707 0.556219
vt 0.828723 0.540426
vt 0.668527 0.556219
vt 0.828723 0.556219
vt 0.802229 0.556219
vt 0.802987 0.540234
vt 0.641706 0.556219
vt 0.828723 0.540426
vt 0.030746 0.008533
vt 0.142012 0.074163
vt 0.119427 0.092708
vt 0.119427 0.074163
vt 0.005857 0.039062
vt 0.007001 0.092393
vt 0.881555 0.130288
vt 0.692119 0.067117
vt 0.881555 0.102054
vt 0.230264 0.157059
vt 0.289771 0.205506
vt 0.289771 0.157059
vt 0.476267 0.157059
vt 0.476267 0.205506
vt 0.536098 0.205506
vt 0.536098 0.157059
vt 0.689270 0.446722
vt 0.878706 0.418487
vt 0.689270 0.418487
vt 0.005602 0.442594
vt 0.877396 0.401138
vt 0.877396 0.372903
vt 0.187014 0.400508
vt 0.004293 0.397010
vt 0.187014 0.373533
vt 0.004293 0.377031
vt 0.878961 0.076958
vt 0.878961 0.048723
vt 0.692119 0.102087
vt 0.533611 0.093838
vt 0.199244 0.053774
vt 0.878706 0.446722
vt 0.689525 0.048756
vt 0.531025 0.040507
vt 0.194271 0.000778
vt 0.005857 0.059041
vt 0.007001 0.112372
vt 0.230264 0.205506
vt 0.289771 0.231381
vt 0.230264 0.231381
vt 0.476267 0.231381
vt 0.536098 0.231381
vt 0.576241 0.101504
vt 0.228378 0.153161
vt 0.576241 0.153161
vt 0.228378 0.101503
vt 0.576241 0.101503
vt 0.615102 0.283450
vt 0.927797 0.335106
vt 0.927797 0.283449
vt 0.218998 0.367034
vt -0.000692 0.122637
vt -0.000692 0.367034
vt 0.060106 0.910624
vt 0.399385 0.813446
vt 0.424007 0.949330
vt 0.059912 0.568956
vt 0.059962 0.833224
vt 0.060069 0.523593
vt 0.060233 0.499368
vt 0.060029 0.950031
vt 0.974310 0.480352
vt 0.948746 0.480209
vt 0.003946 0.484154
vt 0.478840 0.453319
vt 0.989064 0.005111
vt 0.948742 0.480352
vt 0.974306 0.480209
vt 0.486041 0.460139
vt 0.485898 0.485703
vt 0.003946 0.458585
vt 0.961081 0.005111
vt 0.486041 0.485707
vt 0.485898 0.460143
vt 0.511502 0.260873
vt 0.292362 0.361276
vt 0.292356 0.260935
vt 0.583438 0.361259
vt 0.583532 0.272052
vt 0.224156 0.250550
vt 0.583532 0.250530
vt 0.511502 0.239943
vt 0.661482 0.140794
vt 0.593829 0.171702
vt 0.593723 0.140794
vt 0.828724 0.540426
vt 0.802230 0.556219
vt 0.802988 0.540234
vt 0.641708 0.556219
vt 0.668526 0.556219
vt 0.828724 0.556219
vt 0.828722 0.540385
vt 0.828722 0.540426
vt 0.828725 0.540426
vt 0.828725 0.540385
vt 0.828722 0.540385
vt 0.828722 0.540426
vt 0.828724 0.540426
vt 0.828724 0.540385
vt 0.802230 0.556219
vt 0.802987 0.540234
vt 0.641708 0.556219
vt 0.668527 0.556219
vt 0.802988 0.540234
vt 0.668527 0.556219
vt 0.828725 0.556219
vt 0.802230 0.556219
vt 0.802989 0.540234
vt 0.641708 0.556219
vt 0.828725 0.540426
vt 0.668525 0.556219
vt 0.828723 0.556219
vt 0.802232 0.556219
vt 0.802989 0.540234
vt 0.641707 0.556219
vt 0.142012 0.092708
vt 0.005602 0.422615
vt 0.534198 0.093838
vt 0.196815 0.054116
vt 0.060106 0.910624
vt 0.399384 0.813446
vt 0.423999 0.949329
vt 0.059912 0.568955
vt 0.059962 0.833224
vt 0.060069 0.523593
vt 0.060233 0.499368
vt 0.060029 0.950031
vt 0.742478 0.185916
vt 0.854024 0.299311
vt 0.742559 0.300144
vt 0.606098 0.979349
vt 0.959031 0.739839
vt 0.848108 0.973089
vt 0.617569 0.299520
vt 0.742836 0.684712
vt 0.500313 0.020638
vt 0.001931 0.010424
vt 0.194371 0.022480
vt 0.025212 0.985481
vt 0.491662 0.695718
vt 0.026039 0.695290
vt 0.489262 0.400396
vt 0.974306 0.480209
vt 0.485898 0.460143
vt 0.583538 0.361259
vt 0.511502 0.239943
vt 0.593827 0.140794
vt 0.950432 0.171702
vt 0.641707 0.540234
vt 0.641707 0.540234
vt 0.641707 0.540234
vt 0.641707 0.540234
vt 0.641708 0.540234
vt 0.538939 0.052413
vt 0.536343 -0.000918
vt 0.228378 0.101504
vt 0.615102 0.335106
vt 0.218998 0.122637
vt 0.003803 0.458589
vt 0.961085 0.004968
vt 0.003803 0.484150
vt 0.989061 0.004968
vt 0.224161 0.361280
vt 0.641705 0.540234
vt 0.641709 0.540234
vt 0.641706 0.540234
vt 0.641708 0.540234
vt 0.641708 0.540234
vt 0.538928 0.052413
vt 0.194267 0.000779
vt 0.854376 0.186179
s 1
usemtl old_table_mat.001
f 5/1/1 3/2/2 6/3/3
f 14/4/4 15/5/5 16/6/6
f 15/7/5 12/8/7 18/9/8
f 25/10/9 26/11/10 27/12/11
f 26/13/10 23/14/12 29/15/13
f 44/16/14 36/17/15 40/18/16
f 56/19/17 57/20/18 54/21/19
f 82/22/20 75/23/21 81/24/22
f 79/25/23 74/26/24 78/27/25
f 92/28/26 90/29/27 87/30/28
f 76/31/29 89/32/30 85/33/31
f 88/34/32 92/28/26 87/30/28
f 99/35/33 98/36/34 97/37/35
f 96/38/36 83/39/37 94/40/38
f 84/41/39 99/35/33 97/37/35
f 104/42/40 105/43/36 103/44/41
f 93/45/42 101/46/43 100/47/44
f 106/48/45 113/49/46 108/50/47
f 116/51/48 115/52/49 117/53/50
f 114/54/51 115/52/49 116/51/48
f 124/55/52 122/56/53 125/57/54
f 123/58/55 122/56/53 124/55/52
f 135/59/56 131/60/57 130/61/58
f 128/62/59 136/63/60 134/64/61
f 135/59/56 134/64/61 136/63/60
f 2/143/125 4/144/126 3/145/2
f 35/146/127 38/147/128 36/148/15
f 45/149/129 46/150/130 47/151/131
f 70/152/132 69/153/133 71/154/134
f 57/155/18 69/156/133 54/157/19
f 72/158/135 46/159/130 58/160/136
f 74/26/24 77/161/137 78/27/25
f 80/162/138 81/24/22 75/23/21
f 85/33/31 86/163/139 76/31/29
f 94/40/38 95/164/140 96/38/36
f 101/46/43 102/165/141 100/47/44
f 91/166/142 103/44/41 105/43/36
f 106/48/45 108/50/47 109/167/143
f 111/168/144 112/169/145 107/170/146
f 110/171/147 111/168/144 107/170/146
f 121/172/148 118/173/149 119/174/150
f 120/175/151 118/173/149 121/172/148
f 136/63/60 126/176/152 127/177/153
f 128/62/59 126/176/152 136/63/60
f 123/58/55 129/178/154 122/56/53
f 135/59/56 130/61/58 134/64/61
f 132/179/155 133/180/156 137/181/157
f 129/178/154 132/179/155 137/181/157
f 137/181/157 122/56/53 129/178/154
f 7/293/240 9/294/241 6/3/3
f 8/295/242 6/3/3 3/2/2
f 4/144/126 1/296/243 9/294/241
f 9/294/241 11/297/244 4/144/126
f 8/298/242 4/144/126 11/297/244
f 14/299/4 12/300/7 15/301/5
f 13/302/245 18/9/8 12/8/7
f 20/303/246 19/304/247 21/305/248
f 18/9/8 17/306/249 15/7/5
f 16/6/6 13/302/245 14/4/4
f 22/307/250 19/304/247 16/6/6
f 17/308/249 16/6/6 15/5/5
f 25/309/9 23/310/12 26/311/10
f 24/312/251 29/15/13 23/14/12
f 31/313/252 30/314/253 32/315/254
f 29/15/13 28/316/255 26/13/10
f 27/12/11 24/312/251 25/10/9
f 33/317/256 30/314/253 27/12/11
f 28/318/255 27/12/11 26/11/10
f 35/319/127 44/320/14 34/321/257
f 34/322/257 40/18/16 39/323/258
f 42/324/259 39/323/258 40/18/16
f 37/325/260 40/18/16 36/17/15
f 38/147/128 34/322/257 39/323/258
f 39/323/258 43/326/261 38/147/128
f 37/327/260 38/147/128 43/326/261
f 46/150/130 49/328/262 47/151/131
f 55/329/263 48/330/264 53/331/265
f 55/329/263 56/19/17 54/21/19
f 60/332/266 58/333/136 59/334/267
f 72/335/135 61/336/268 64/337/269
f 67/338/270 61/336/268 68/339/271
f 69/153/133 67/338/270 68/339/271
f 70/340/132 53/341/265 67/342/270
f 57/155/18 71/343/134 69/156/133
f 56/344/17 70/340/132 71/343/134
f 72/158/135 48/345/264 46/159/130
f 45/346/129 58/160/136 46/159/130
f 47/347/131 59/348/267 45/346/129
f 68/349/271 54/157/19 69/156/133
f 65/350/272 55/351/263 68/352/271
f 62/353/273 73/354/274 65/350/272
f 61/355/268 51/356/275 62/353/273
f 60/357/266 49/358/262 61/355/268
f 52/359/276 67/342/270 53/341/265
f 63/360/277 52/359/276 50/361/278
f 48/345/264 63/360/277 50/361/278
f 50/362/278 53/331/265 48/330/264
f 73/363/274 49/328/262 55/329/263
f 62/364/273 68/339/271 61/336/268
f 66/365/279 64/337/269 67/338/270
f 79/25/23 81/24/22 80/162/138
f 78/27/25 82/22/20 81/24/22
f 99/35/33 80/162/138 75/23/21
f 74/26/24 83/39/37 96/38/36
f 83/39/37 80/162/138 84/41/39
f 89/32/30 87/30/28 85/33/31
f 85/33/31 90/29/27 86/163/139
f 91/166/142 92/28/26 88/34/32
f 89/32/30 101/46/43 93/45/42
f 89/32/30 91/166/142 88/34/32
f 83/39/37 97/37/35 94/40/38
f 94/40/38 98/36/34 95/164/140
f 93/45/42 103/44/41 91/166/142
f 100/47/44 104/42/40 103/44/41
f 111/168/144 113/49/46 112/169/145
f 110/171/147 108/50/47 111/168/144
f 110/171/147 115/52/49 114/54/51
f 116/51/48 119/174/150 118/173/149
f 114/54/51 118/173/149 120/175/151
f 110/171/147 120/175/151 109/167/143
f 106/48/45 120/175/151 121/172/148
f 124/55/52 127/177/153 126/176/152
f 123/58/55 126/176/152 128/62/59
f 132/179/155 131/60/57 133/180/156
f 129/178/154 130/61/58 132/179/155
f 128/62/59 129/178/154 123/58/55
f 1/296/243 6/3/3 9/294/241
f 2/577/125 5/578/1 1/579/243
f 7/293/240 10/580/484 9/294/241
f 8/295/242 7/293/240 6/3/3
f 4/144/126 2/143/125 1/296/243
f 9/294/241 10/580/484 11/297/244
f 8/298/242 3/145/2 4/144/126
f 14/299/4 13/581/245 12/300/7
f 13/302/245 19/304/247 18/9/8
f 20/303/246 18/9/8 19/304/247
f 18/9/8 20/303/246 17/306/249
f 16/6/6 19/304/247 13/302/245
f 22/307/250 21/305/248 19/304/247
f 17/308/249 22/307/250 16/6/6
f 25/309/9 24/582/251 23/310/12
f 24/312/251 30/314/253 29/15/13
f 31/313/252 29/15/13 30/314/253
f 29/15/13 31/313/252 28/316/255
f 27/12/11 30/314/253 24/312/251
f 33/317/256 32/315/254 30/314/253
f 28/318/255 33/317/256 27/12/11
f 35/319/127 36/583/15 44/320/14
f 34/322/257 44/16/14 40/18/16
f 42/324/259 41/584/485 39/323/258
f 37/325/260 42/324/259 40/18/16
f 38/147/128 35/146/127 34/322/257
f 39/323/258 41/584/485 43/326/261
f 37/327/260 36/148/15 38/147/128
f 46/150/130 48/330/264 49/328/262
f 55/329/263 49/328/262 48/330/264
f 55/329/263 53/331/265 56/19/17
f 60/332/266 72/335/135 58/333/136
f 72/335/135 60/332/266 61/336/268
f 67/338/270 64/337/269 61/336/268
f 69/153/133 70/152/132 67/338/270
f 70/340/132 56/344/17 53/341/265
f 57/155/18 56/344/17 71/343/134
f 72/158/135 64/585/269 48/345/264
f 45/346/129 59/348/267 58/160/136
f 47/347/131 60/357/266 59/348/267
f 68/349/271 55/586/263 54/157/19
f 65/350/272 73/354/274 55/351/263
f 62/353/273 51/356/275 73/354/274
f 61/355/268 49/358/262 51/356/275
f 60/357/266 47/347/131 49/358/262
f 52/359/276 66/587/279 67/342/270
f 63/360/277 66/587/279 52/359/276
f 48/345/264 64/585/269 63/360/277
f 50/362/278 52/588/276 53/331/265
f 73/363/274 51/589/275 49/328/262
f 62/364/273 65/590/272 68/339/271
f 66/365/279 63/591/277 64/337/269
f 79/25/23 78/27/25 81/24/22
f 78/27/25 77/161/137 82/22/20
f 99/35/33 84/41/39 80/162/138
f 74/26/24 79/25/23 83/39/37
f 83/39/37 79/25/23 80/162/138
f 89/32/30 88/34/32 87/30/28
f 85/33/31 87/30/28 90/29/27
f 91/166/142 105/43/36 92/28/26
f 89/32/30 76/31/29 101/46/43
f 89/32/30 93/45/42 91/166/142
f 83/39/37 84/41/39 97/37/35
f 94/40/38 97/37/35 98/36/34
f 93/45/42 100/47/44 103/44/41
f 100/47/44 102/165/141 104/42/40
f 111/168/144 108/50/47 113/49/46
f 110/171/147 109/167/143 108/50/47
f 110/171/147 107/170/146 115/52/49
f 116/51/48 117/53/50 119/174/150
f 114/54/51 116/51/48 118/173/149
f 110/171/147 114/54/51 120/175/151
f 106/48/45 109/167/143 120/175/151
f 124/55/52 125/57/54 127/177/153
f 123/58/55 124/55/52 126/176/152
f 132/179/155 130/61/58 131/60/57
f 129/178/154 134/64/61 130/61/58
f 128/62/59 134/64/61 129/178/154
f 1/296/243 5/1/1 6/3/3
f 2/577/125 3/620/2 5/578/1
usemtl chair_mat.001
f 212/65/62 213/66/63 240/67/64
f 218/68/65 219/69/66 217/70/67
f 225/71/68 218/72/69 227/73/70
f 213/74/71 245/75/72 244/76/73
f 325/77/74 330/78/75 324/79/76
f 325/80/74 324/81/76 326/82/77
f 312/83/78 314/84/79 310/85/80
f 319/86/81 312/83/78 320/87/82
f 331/88/83 330/89/75 319/90/81
f 314/91/79 319/90/81 330/89/75
f 320/92/82 331/88/83 319/90/81
f 331/88/83 320/92/82 332/93/84
f 333/94/85 315/95/86 327/96/87
f 322/97/88 327/96/87 321/98/89
f 315/95/86 321/98/89 327/96/87
f 329/99/90 322/100/88 335/101/91
f 336/102/92 313/103/93 324/81/76
f 330/78/75 331/104/83 327/105/87
f 412/106/94 413/107/95 439/67/96
f 418/108/97 419/109/98 417/110/99
f 424/111/100 418/112/101 426/73/102
f 413/113/103 444/114/104 443/115/99
f 524/116/105 529/117/106 523/118/107
f 524/119/105 523/120/107 525/121/108
f 511/122/109 513/123/110 509/124/111
f 518/125/112 511/122/109 519/126/113
f 530/127/114 529/128/106 518/129/112
f 513/130/110 518/129/112 529/128/106
f 519/92/113 530/127/114 518/129/112
f 530/127/114 519/92/113 531/131/115
f 532/132/116 514/133/117 526/134/118
f 521/135/119 526/134/118 520/136/120
f 514/133/117 520/136/120 526/134/118
f 528/137/121 521/138/119 534/139/122
f 535/140/123 512/141/124 523/120/107
f 529/117/106 530/104/114 526/142/118
f 154/182/158 166/183/159 155/184/160
f 271/185/161 270/186/162 272/187/163
f 276/188/164 275/189/165 274/190/166
f 279/191/167 278/192/165 280/193/168
f 283/194/169 282/195/165 284/196/170
f 287/197/167 286/198/171 288/199/172
f 291/200/173 290/201/165 292/202/174
f 295/203/161 296/204/175 294/205/176
f 301/206/161 298/207/162 300/208/163
f 305/209/177 302/210/178 304/208/163
f 309/211/177 306/212/162 308/213/163
f 212/65/62 261/214/179 213/66/63
f 227/215/180 218/68/65 217/70/67
f 212/216/181 243/217/182 221/218/183
f 225/71/68 228/219/184 218/72/69
f 225/220/185 231/221/186 234/222/187
f 240/223/188 213/74/71 244/76/73
f 332/224/84 327/105/87 331/104/83
f 326/82/77 324/81/76 313/103/93
f 322/225/88 330/78/75 327/105/87
f 322/225/88 323/226/189 330/78/75
f 316/227/190 314/84/79 326/228/77
f 318/229/191 315/230/86 333/231/85
f 320/87/82 318/229/191 333/231/85
f 312/83/78 319/86/81 314/84/79
f 320/87/82 312/83/78 311/232/192
f 318/229/191 320/87/82 311/232/192
f 326/233/77 314/91/79 325/234/74
f 333/94/85 332/93/84 320/92/82
f 332/93/84 333/94/85 327/96/87
f 323/235/189 336/102/92 324/81/76
f 324/79/76 330/78/75 323/226/189
f 328/236/193 334/237/194 329/99/90
f 322/100/88 336/238/92 323/239/189
f 335/101/91 322/100/88 321/240/89
f 356/241/195 364/242/195 366/243/195
f 353/182/196 365/183/197 354/184/198
f 470/244/199 469/245/200 471/246/201
f 475/247/202 474/248/203 473/249/204
f 478/250/205 477/251/206 479/252/204
f 482/253/207 481/254/208 483/255/204
f 486/256/209 485/257/210 487/258/204
f 490/259/202 489/260/210 491/261/211
f 494/262/212 495/263/213 493/264/214
f 500/262/215 497/212/216 499/246/217
f 504/265/218 501/266/200 503/267/219
f 508/198/220 505/268/213 507/269/221
f 412/106/94 460/214/222 413/107/95
f 426/215/223 418/108/97 417/110/99
f 411/221/224 442/270/225 412/271/226
f 424/111/100 427/219/227 418/112/101
f 424/272/228 430/221/229 433/273/230
f 439/223/223 413/113/103 443/115/99
f 442/274/231 438/275/232 443/276/233
f 531/277/115 526/142/118 530/104/114
f 525/121/108 523/120/107 512/141/124
f 521/278/119 529/117/106 526/142/118
f 521/278/119 522/279/234 529/117/106
f 515/280/235 513/123/110 525/281/108
f 517/282/236 514/283/117 532/284/116
f 519/126/113 517/282/236 532/284/116
f 511/122/109 518/125/112 513/123/110
f 519/126/113 511/122/109 510/285/237
f 517/282/236 519/126/113 510/285/237
f 525/233/108 513/130/110 524/286/105
f 532/132/116 531/131/115 519/92/113
f 531/131/115 532/132/116 526/134/118
f 522/287/234 535/140/123 523/120/107
f 523/118/107 529/117/106 522/279/234
f 527/288/238 533/289/239 528/137/121
f 521/138/119 535/290/123 522/291/234
f 534/139/122 521/138/119 520/292/120
f 152/366/280 150/367/281 139/368/282
f 140/366/283 146/367/281 138/368/284
f 139/369/282 149/370/285 147/371/286
f 138/372/284 144/373/287 140/374/283
f 143/375/288 142/376/289 146/377/281
f 143/378/288 144/371/290 141/370/291
f 138/379/284 142/380/285 145/381/286
f 139/382/282 153/383/287 152/384/280
f 151/385/288 149/386/289 150/387/281
f 151/388/288 153/381/290 148/380/291
f 156/389/292 157/390/293 158/391/294
f 157/390/293 160/392/295 158/391/294
f 160/392/295 154/393/158 155/394/160
f 161/395/296 160/392/295 159/396/297
f 158/391/294 163/397/298 156/389/292
f 155/394/160 158/391/294 160/392/295
f 165/242/195 157/398/195 164/399/195
f 166/183/299 157/398/195 167/243/195
f 167/400/300 163/401/298 162/402/301
f 167/400/300 155/184/160 166/183/159
f 168/403/302 271/185/161 172/404/303
f 273/405/304 170/406/305 272/187/163
f 272/187/163 270/186/162 273/405/304
f 175/407/306 272/408/307 170/409/308
f 274/410/309 271/411/310 272/408/307
f 271/411/310 171/412/311 172/413/312
f 173/403/313 275/189/165 276/188/164
f 277/414/314 175/406/315 174/415/316
f 277/416/314 276/188/164 274/190/166
f 173/412/317 270/417/317 168/413/317
f 270/417/317 277/416/317 273/418/317
f 273/418/317 174/407/317 169/409/317
f 176/403/313 278/192/165 279/191/167
f 281/419/318 177/406/319 202/415/320
f 281/420/318 279/191/167 280/193/168
f 178/403/313 282/195/165 283/194/169
f 285/421/321 181/406/319 180/415/320
f 285/422/321 283/194/169 284/196/170
f 191/403/313 286/198/171 287/197/167
f 289/423/322 182/406/319 192/415/323
f 289/424/322 287/197/167 288/199/172
f 183/403/313 290/201/165 291/200/173
f 293/425/318 186/406/324 185/415/325
f 293/426/318 291/200/173 292/202/174
f 186/407/306 294/427/307 189/409/308
f 292/428/309 295/429/310 294/427/307
f 295/429/310 184/412/326 187/413/312
f 188/403/302 295/203/161 187/404/303
f 297/430/304 189/406/305 294/205/176
f 294/205/176 296/204/175 297/430/304
f 183/412/317 296/431/317 188/413/317
f 296/431/317 293/426/317 297/432/317
f 297/432/317 185/407/317 190/409/317
f 191/412/317 298/433/317 197/413/317
f 298/433/317 289/424/317 299/434/317
f 299/434/317 192/407/317 193/409/317
f 182/407/308 300/435/307 194/409/308
f 288/436/310 301/437/310 300/435/307
f 301/437/310 195/412/326 196/413/312
f 197/403/302 301/206/161 196/404/303
f 299/438/304 194/406/305 300/208/163
f 300/208/163 298/207/162 299/438/304
f 178/412/317 302/439/317 199/413/317
f 302/439/317 285/422/317 303/440/317
f 303/440/317 180/407/317 200/409/317
f 181/407/306 304/435/307 201/409/306
f 284/441/327 305/442/328 304/435/307
f 305/442/328 179/412/329 198/413/312
f 199/403/302 305/209/177 198/404/303
f 303/443/330 201/406/305 304/208/163
f 304/208/163 302/210/178 303/443/330
f 176/412/317 306/444/317 206/413/317
f 306/444/317 281/420/317 307/445/317
f 307/445/317 202/407/317 203/409/317
f 177/407/306 308/446/307 207/409/306
f 280/447/331 309/448/310 308/446/307
f 309/448/310 204/412/312 205/413/312
f 206/403/302 309/211/177 205/404/303
f 307/449/304 207/406/305 308/213/163
f 308/213/163 306/212/162 307/449/304
f 247/450/195 223/368/195 222/366/195
f 208/451/332 242/452/332 211/453/332
f 209/367/195 235/366/195 220/450/195
f 210/451/332 233/452/332 224/453/332
f 228/219/184 209/454/333 218/72/69
f 261/214/179 241/455/334 213/66/63
f 211/456/335 238/457/336 208/458/317
f 214/459/337 215/460/338 256/461/338
f 212/65/62 240/67/64 238/457/336
f 258/462/339 215/460/338 216/463/339
f 258/462/339 252/464/340 259/465/340
f 230/466/341 210/467/342 226/468/343
f 227/215/180 230/466/341 226/468/343
f 218/68/65 220/469/344 219/69/66
f 243/217/182 211/470/345 242/471/346
f 221/218/183 261/472/347 212/216/181
f 223/473/348 246/474/349 222/475/348
f 224/476/335 226/275/350 210/477/317
f 229/458/351 231/478/351 233/456/351
f 225/71/68 227/73/70 226/275/350
f 230/457/351 234/479/352 231/478/351
f 234/479/352 219/480/353 232/214/354
f 224/471/355 231/221/186 225/220/185
f 234/222/187 228/474/347 225/220/185
f 236/475/348 232/472/349 235/473/348
f 239/468/343 208/481/356 238/466/343
f 240/223/188 239/468/343 238/466/343
f 241/469/357 245/75/72 213/74/71
f 237/477/351 243/482/351 242/476/351
f 239/275/351 221/483/358 243/482/351
f 221/483/358 245/484/359 246/219/360
f 246/219/360 247/454/361 222/485/362
f 232/214/354 220/455/363 235/486/364
f 248/459/365 253/460/366 255/487/365
f 253/460/366 249/462/367 250/463/367
f 249/462/367 251/464/368 250/463/367
f 252/487/369 250/488/370 251/489/369
f 216/460/370 253/490/371 250/488/370
f 253/490/371 254/464/372 255/491/373
f 214/464/195 257/490/195 248/491/195
f 249/488/195 256/463/195 258/460/195
f 249/488/195 259/487/195 260/489/195
f 264/492/374 267/493/374 265/494/374
f 263/494/375 262/495/375 269/496/375
f 264/497/351 263/498/351 269/499/351
f 266/498/317 268/497/317 262/499/317
f 269/500/195 268/501/195 264/502/195
f 334/503/194 317/504/376 310/85/80
f 310/85/80 314/84/79 316/227/190
f 316/227/190 326/228/77 313/505/93
f 310/85/80 316/227/190 334/503/194
f 329/506/90 317/504/376 328/507/193
f 335/508/91 311/232/192 329/506/90
f 317/504/376 311/232/192 312/83/78
f 317/504/376 312/83/78 310/85/80
f 315/230/86 335/508/91 321/509/89
f 334/237/194 322/100/88 329/99/90
f 330/89/75 325/234/74 314/91/79
f 334/503/194 313/505/93 336/510/92
f 338/368/377 350/450/378 349/367/379
f 337/368/377 342/450/380 345/367/381
f 349/511/379 346/371/382 338/512/377
f 339/513/383 344/514/384 343/373/385
f 345/515/381 340/386/386 341/376/387
f 339/516/383 340/370/388 342/517/380
f 345/518/381 344/381/382 337/519/377
f 351/520/389 346/373/384 352/383/385
f 349/521/379 347/376/386 348/386/387
f 351/522/389 347/380/388 350/523/378
f 357/524/390 358/525/391 359/526/392
f 356/527/393 357/524/390 355/528/394
f 358/525/391 361/395/395 359/526/392
f 359/526/392 353/529/196 354/394/198
f 357/524/390 363/530/396 355/528/394
f 357/524/390 354/394/198 362/531/397
f 358/532/398 366/243/195 365/183/398
f 366/400/399 363/401/396 362/402/397
f 365/533/398 360/534/398 358/532/398
f 366/400/399 354/184/198 365/183/197
f 367/403/400 470/244/199 371/404/401
f 472/535/402 369/406/403 471/246/201
f 471/246/201 469/245/200 472/535/402
f 374/407/404 471/536/405 369/409/406
f 473/537/407 470/538/408 471/536/405
f 470/538/408 370/412/409 371/413/409
f 372/403/410 474/248/203 475/247/202
f 476/423/411 374/406/412 373/415/413
f 476/424/411 475/247/202 473/249/204
f 372/412/414 469/539/415 367/413/416
f 469/539/415 476/424/416 472/540/416
f 472/540/416 373/407/416 368/409/416
f 375/403/417 477/251/206 478/250/205
f 480/541/418 376/406/412 401/415/419
f 480/542/418 478/250/205 479/252/204
f 377/403/410 481/254/208 482/253/207
f 484/543/420 380/406/412 379/415/419
f 484/544/420 482/253/207 483/255/204
f 390/403/410 485/257/210 486/256/209
f 488/545/421 381/406/412 391/415/422
f 488/546/421 486/256/209 487/258/204
f 382/403/410 489/260/210 490/259/202
f 492/547/423 385/406/412 384/415/413
f 492/548/423 490/259/202 491/261/211
f 385/407/408 493/549/405 388/409/424
f 491/550/409 494/551/425 493/549/405
f 494/551/425 383/412/409 386/413/409
f 387/403/400 494/262/212 386/404/401
f 496/449/426 388/406/403 493/264/214
f 493/264/214 495/263/213 496/449/426
f 382/412/416 495/552/416 387/413/416
f 495/552/416 492/548/416 496/445/416
f 496/445/416 384/407/416 389/409/416
f 390/412/416 497/444/416 396/413/416
f 497/444/416 488/546/416 498/540/416
f 498/540/416 391/407/416 392/409/416
f 381/407/427 499/536/428 393/409/424
f 487/553/429 500/551/408 499/536/428
f 500/551/408 394/412/409 395/413/409
f 396/403/400 500/262/215 395/404/401
f 498/535/430 393/406/431 499/246/217
f 499/246/217 497/212/216 498/535/430
f 377/412/416 501/554/415 398/413/416
f 501/554/415 484/544/416 502/555/416
f 502/555/416 379/407/416 399/409/416
f 380/407/432 503/556/433 400/409/434
f 483/557/409 504/558/408 503/556/433
f 504/558/408 378/412/409 397/413/409
f 398/403/400 504/265/218 397/404/401
f 502/559/402 400/406/435 503/267/219
f 503/267/219 501/266/200 502/559/402
f 375/412/416 505/560/416 405/413/416
f 505/560/416 480/542/416 506/561/416
f 506/561/416 401/407/416 402/409/416
f 376/407/434 507/562/405 406/409/432
f 479/563/405 508/564/408 507/562/405
f 508/564/408 403/412/409 404/413/409
f 405/403/400 508/198/220 404/404/401
f 506/424/436 406/406/435 507/269/221
f 507/269/221 505/268/213 506/424/436
f 422/368/195 446/450/195 440/367/195
f 436/565/332 410/453/332 407/451/332
f 435/368/195 420/450/195 408/367/195
f 432/452/332 409/451/332 428/565/332
f 427/219/227 408/454/437 418/112/101
f 460/214/222 440/455/438 413/107/95
f 407/458/416 411/478/439 437/457/440
f 437/457/440 412/106/94 439/67/96
f 414/459/441 415/460/442 455/461/442
f 457/462/443 415/460/442 416/463/443
f 457/462/443 451/464/444 458/465/444
f 425/468/445 428/481/446 409/467/446
f 429/466/447 426/215/223 417/110/99
f 408/566/448 419/109/98 418/108/97
f 411/221/224 441/471/449 442/270/225
f 412/271/226 445/474/450 460/472/451
f 422/473/452 445/474/450 421/475/453
f 423/476/454 425/275/455 409/477/416
f 428/458/456 430/478/457 432/456/456
f 424/111/100 426/73/102 425/275/455
f 429/457/458 433/567/459 430/478/457
f 433/567/459 419/568/460 431/214/461
f 423/471/462 430/221/229 424/272/228
f 433/273/230 427/474/463 424/272/228
f 431/472/451 435/475/464 427/474/463
f 437/466/445 436/467/465 407/481/465
f 439/223/223 438/468/466 437/466/445
f 440/469/448 444/114/104 413/113/103
f 438/275/232 441/476/467 436/477/456
f 443/276/233 445/219/468 442/274/231
f 445/219/468 446/454/469 421/485/470
f 431/214/461 420/455/471 434/486/472
f 447/459/473 452/460/474 454/487/473
f 452/460/474 448/462/475 449/463/475
f 448/462/475 450/464/476 449/463/475
f 451/487/477 449/488/478 450/489/477
f 416/460/478 452/490/479 449/488/478
f 452/490/479 453/464/478 454/491/480
f 414/464/195 456/490/195 447/491/195
f 457/460/195 456/490/195 455/463/195
f 448/488/195 458/487/195 459/489/195
f 463/492/481 466/493/481 464/494/481
f 468/496/482 465/493/482 461/495/482
f 463/497/456 462/498/456 468/499/456
f 465/498/416 467/497/416 461/499/416
f 468/500/195 467/501/195 463/502/195
f 533/569/239 516/570/483 509/124/111
f 509/124/111 513/123/110 515/280/235
f 515/280/235 525/281/108 512/571/124
f 509/124/111 515/280/235 533/569/239
f 528/572/121 516/570/483 527/573/238
f 534/574/122 510/285/237 528/572/121
f 516/570/483 510/285/237 511/122/109
f 516/570/483 511/122/109 509/124/111
f 514/283/117 534/574/122 520/575/120
f 533/289/239 521/138/119 528/137/121
f 529/128/106 524/286/105 513/130/110
f 533/569/239 512/571/124 535/576/123
f 152/366/280 151/450/288 150/367/281
f 140/366/283 143/450/288 146/367/281
f 139/369/282 150/592/281 149/370/285
f 138/372/284 145/514/486 144/373/287
f 143/375/288 141/386/487 142/376/289
f 143/378/288 140/512/283 144/371/290
f 138/379/284 146/593/281 142/380/285
f 139/382/282 147/373/486 153/383/287
f 151/385/288 148/376/487 149/386/289
f 151/388/288 152/519/280 153/381/290
f 156/389/292 164/594/488 157/390/293
f 157/390/293 159/396/297 160/392/295
f 160/392/295 161/395/296 154/393/158
f 158/391/294 162/595/301 163/397/298
f 155/394/160 162/595/301 158/391/294
f 165/242/195 167/243/195 157/398/195
f 166/183/299 159/596/299 157/398/195
f 167/400/300 165/597/489 163/401/298
f 167/400/300 162/402/301 155/184/160
f 168/403/302 270/186/162 271/185/161
f 273/405/304 169/415/490 170/406/305
f 175/407/306 274/410/309 272/408/307
f 274/410/309 275/598/310 271/411/310
f 271/411/310 275/598/310 171/412/311
f 173/403/313 171/404/491 275/189/165
f 277/414/314 274/190/166 175/406/315
f 173/412/317 276/188/317 270/417/317
f 270/417/317 276/188/317 277/416/317
f 273/418/317 277/414/317 174/407/317
f 176/403/313 204/404/491 278/192/165
f 281/419/318 280/193/168 177/406/319
f 178/403/313 179/404/491 282/195/165
f 285/421/321 284/196/170 181/406/319
f 191/403/313 195/404/491 286/198/171
f 289/423/322 288/199/172 182/406/319
f 183/403/313 184/404/491 290/201/165
f 293/425/318 292/202/174 186/406/324
f 186/407/306 292/428/309 294/427/307
f 292/428/309 290/599/310 295/429/310
f 295/429/310 290/599/310 184/412/326
f 188/403/302 296/204/175 295/203/161
f 297/430/304 190/415/490 189/406/305
f 183/412/317 291/200/317 296/431/317
f 296/431/317 291/200/317 293/426/317
f 297/432/317 293/425/317 185/407/317
f 191/412/317 287/197/317 298/433/317
f 298/433/317 287/197/317 289/424/317
f 299/434/317 289/423/317 192/407/317
f 182/407/308 288/436/310 300/435/307
f 288/436/310 286/600/310 301/437/310
f 301/437/310 286/600/310 195/412/326
f 197/403/302 298/207/162 301/206/161
f 299/438/304 193/415/490 194/406/305
f 178/412/317 283/194/317 302/439/317
f 302/439/317 283/194/317 285/422/317
f 303/440/317 285/421/317 180/407/317
f 181/407/306 284/441/327 304/435/307
f 284/441/327 282/601/310 305/442/328
f 305/442/328 282/601/310 179/412/329
f 199/403/302 302/210/178 305/209/177
f 303/443/330 200/415/490 201/406/305
f 176/412/317 279/191/317 306/444/317
f 306/444/317 279/191/317 281/420/317
f 307/445/317 281/419/317 202/407/317
f 177/407/306 280/447/331 308/446/307
f 280/447/331 278/602/310 309/448/310
f 309/448/310 278/602/310 204/412/312
f 206/403/302 306/212/162 309/211/177
f 307/449/304 203/415/490 207/406/305
f 247/450/195 241/367/195 223/368/195
f 208/451/332 237/565/332 242/452/332
f 209/367/195 236/368/195 235/366/195
f 210/451/332 229/565/332 233/452/332
f 228/219/184 236/485/492 209/454/333
f 261/214/179 223/486/493 241/455/334
f 211/456/335 212/65/62 238/457/336
f 214/459/337 254/487/337 215/460/338
f 258/462/339 256/461/338 215/460/338
f 258/462/339 216/463/339 252/464/340
f 230/466/341 229/481/342 210/467/342
f 227/215/180 217/70/67 230/466/341
f 218/68/65 209/566/494 220/469/344
f 243/217/182 212/216/181 211/470/345
f 221/218/183 246/474/349 261/472/347
f 223/473/348 261/472/347 246/474/349
f 224/476/335 225/71/68 226/275/350
f 229/458/351 230/457/351 231/478/351
f 230/457/351 217/603/495 234/479/352
f 234/479/352 217/603/495 219/480/353
f 224/471/355 233/470/496 231/221/186
f 234/222/187 232/472/349 228/474/347
f 236/475/348 228/474/347 232/472/349
f 239/468/343 237/467/356 208/481/356
f 240/223/188 244/76/73 239/468/343
f 241/469/357 247/566/497 245/75/72
f 237/477/351 239/275/351 243/482/351
f 239/275/351 244/604/498 221/483/358
f 221/483/358 244/604/498 245/484/359
f 246/219/360 245/484/359 247/454/361
f 232/214/354 219/480/353 220/455/363
f 248/459/365 257/461/366 253/460/366
f 253/460/366 257/461/366 249/462/367
f 249/462/367 260/465/368 251/464/368
f 252/487/369 216/460/370 250/488/370
f 216/460/370 215/463/499 253/490/371
f 253/490/371 215/463/499 254/464/372
f 214/464/195 256/463/195 257/490/195
f 249/488/195 257/490/195 256/463/195
f 249/488/195 258/460/195 259/487/195
f 264/492/374 268/605/374 267/493/374
f 263/494/375 266/493/375 262/495/375
f 264/497/351 265/606/351 263/498/351
f 266/498/317 267/606/317 268/497/317
f 269/500/195 262/607/195 268/501/195
f 334/503/194 328/507/193 317/504/376
f 329/506/90 311/232/192 317/504/376
f 335/508/91 318/229/191 311/232/192
f 315/230/86 318/229/191 335/508/91
f 334/237/194 336/238/92 322/100/88
f 334/503/194 316/227/190 313/505/93
f 338/368/377 351/366/389 350/450/378
f 337/368/377 339/366/383 342/450/380
f 349/511/379 348/370/500 346/371/382
f 339/513/383 337/608/377 344/514/384
f 345/515/381 342/609/380 340/386/386
f 339/516/383 343/371/501 340/370/388
f 345/518/381 341/380/500 344/381/382
f 351/520/389 338/610/377 346/373/384
f 349/521/379 350/611/378 347/376/386
f 351/522/389 352/381/501 347/380/388
f 357/524/390 356/527/393 358/525/391
f 358/525/391 360/612/502 361/395/395
f 359/526/392 361/395/395 353/529/196
f 357/524/390 362/531/397 363/530/396
f 357/524/390 359/526/392 354/394/198
f 358/532/398 356/241/195 366/243/195
f 366/400/399 364/597/503 363/401/396
f 366/400/399 362/402/397 354/184/198
f 367/403/400 469/245/200 470/244/199
f 472/535/402 368/415/504 369/406/403
f 374/407/404 473/537/407 471/536/405
f 473/537/407 474/613/408 470/538/408
f 470/538/408 474/613/408 370/412/409
f 372/403/410 370/404/505 474/248/203
f 476/423/411 473/249/204 374/406/412
f 372/412/414 475/247/454 469/539/415
f 469/539/415 475/247/454 476/424/416
f 472/540/416 476/423/416 373/407/416
f 375/403/417 403/404/505 477/251/206
f 480/541/418 479/252/204 376/406/412
f 377/403/410 378/404/505 481/254/208
f 484/543/420 483/255/204 380/406/412
f 390/403/410 394/404/505 485/257/210
f 488/545/421 487/258/204 381/406/412
f 382/403/410 383/404/505 489/260/210
f 492/547/423 491/261/211 385/406/412
f 385/407/408 491/550/409 493/549/405
f 491/550/409 489/614/506 494/551/425
f 494/551/425 489/614/506 383/412/409
f 387/403/400 495/263/213 494/262/212
f 496/449/426 389/415/507 388/406/403
f 382/412/416 490/259/416 495/552/416
f 495/552/416 490/259/416 492/548/416
f 496/445/416 492/547/416 384/407/416
f 390/412/416 486/256/416 497/444/416
f 497/444/416 486/256/416 488/546/416
f 498/540/416 488/545/416 391/407/416
f 381/407/427 487/553/429 499/536/428
f 487/553/429 485/615/506 500/551/408
f 500/551/408 485/615/506 394/412/409
f 396/403/400 497/212/216 500/262/215
f 498/535/430 392/415/504 393/406/431
f 377/412/416 482/253/508 501/554/415
f 501/554/415 482/253/508 484/544/416
f 502/555/416 484/543/416 379/407/416
f 380/407/432 483/557/409 503/556/433
f 483/557/409 481/616/506 504/558/408
f 504/558/408 481/616/506 378/412/409
f 398/403/400 501/266/200 504/265/218
f 502/559/402 399/415/509 400/406/435
f 375/412/416 478/250/416 505/560/416
f 505/560/416 478/250/416 480/542/416
f 506/561/416 480/541/416 401/407/416
f 376/407/434 479/563/405 507/562/405
f 479/563/405 477/617/408 508/564/408
f 508/564/408 477/617/408 403/412/409
f 405/403/400 505/268/213 508/198/220
f 506/424/436 402/415/510 406/406/435
f 422/368/195 421/366/195 446/450/195
f 436/565/332 441/452/332 410/453/332
f 435/368/195 434/366/195 420/450/195
f 432/452/332 423/453/332 409/451/332
f 427/219/227 435/485/511 408/454/437
f 460/214/222 422/486/512 440/455/438
f 407/458/416 410/456/416 411/478/439
f 437/457/440 411/478/439 412/106/94
f 414/459/441 453/487/441 415/460/442
f 457/462/443 455/461/442 415/460/442
f 457/462/443 416/463/443 451/464/444
f 425/468/445 429/466/447 428/481/446
f 429/466/447 425/468/445 426/215/223
f 408/566/448 420/469/513 419/109/98
f 411/221/224 410/470/514 441/471/449
f 412/271/226 442/270/225 445/474/450
f 422/473/452 460/472/451 445/474/450
f 423/476/454 424/111/100 425/275/455
f 428/458/456 429/457/458 430/478/457
f 429/457/458 417/618/515 433/567/459
f 433/567/459 417/618/515 419/568/460
f 423/471/462 432/470/514 430/221/229
f 433/273/230 431/472/451 427/474/463
f 431/472/451 434/473/464 435/475/464
f 437/466/445 438/468/466 436/467/465
f 439/223/223 443/115/99 438/468/466
f 440/469/448 446/566/513 444/114/104
f 438/275/232 442/274/231 441/476/467
f 443/276/233 444/619/516 445/219/468
f 445/219/468 444/619/516 446/454/469
f 431/214/461 419/568/460 420/455/471
f 447/459/473 456/461/517 452/460/474
f 452/460/474 456/461/517 448/462/475
f 448/462/475 459/465/476 450/464/476
f 451/487/477 416/460/478 449/488/478
f 416/460/478 415/463/479 452/490/479
f 452/490/479 415/463/479 453/464/478
f 414/464/195 455/463/195 456/490/195
f 457/460/195 448/488/195 456/490/195
f 448/488/195 457/460/195 458/487/195
f 463/492/481 467/605/481 466/493/481
f 468/496/482 462/494/482 465/493/482
f 463/497/456 464/606/456 462/498/456
f 465/498/416 466/606/416 467/497/416
f 468/500/195 461/607/195 467/501/195
f 533/569/239 527/573/238 516/570/483
f 528/572/121 510/285/237 516/570/483
f 534/574/122 517/282/236 510/285/237
f 514/283/117 517/282/236 534/574/122
f 533/289/239 535/290/123 521/138/119
f 533/569/239 515/280/235 512/571/124
