# Blender 4.3.2
# www.blender.org
mtllib GloboAmarillo.mtl
o BezierCurve.001
v 0.003804 -0.904418 0.057157
v 0.003747 -0.907833 0.058258
v 0.003599 -0.909690 0.061324
v 0.003418 -0.908588 0.064734
v 0.003324 -0.905516 0.066590
v 0.003409 -0.901153 0.064704
v 0.003667 -0.900604 0.059990
v 0.051942 -1.308649 0.091634
v 0.049400 -1.308038 0.087665
v 0.044964 -1.309727 0.087399
v 0.043256 -1.311509 0.090003
v 0.043865 -1.312671 0.093342
v 0.047888 -1.312036 0.095793
v 0.050816 -1.310347 0.094587
v 0.051930 -1.308131 0.090360
v 0.044429 -1.309816 0.087109
v 0.046532 -1.312711 0.096064
v 0.038047 -1.274187 0.099038
v 0.027637 -1.267443 0.105912
v 0.037402 -1.272377 0.108885
v 0.018121 -1.195073 0.114695
v 0.016377 -1.199849 0.122150
v 0.027920 -1.219169 0.112625
v 0.020664 -1.190429 0.124383
v 0.017722 -1.139035 0.122030
v 0.009277 -1.137022 0.122327
v 0.016331 -1.133927 0.128979
v 0.007131 -1.049430 0.122440
v 0.007214 -1.094612 0.129357
v 0.012090 -1.050202 0.121790
v 0.004611 -1.040738 0.125848
v 0.014500 -1.046649 0.126505
v 0.010140 -1.050457 0.130579
v 0.009020 -1.007983 0.118428
v 0.007270 -0.999511 0.104473
v 0.010167 -0.956294 0.091551
v 0.007930 -0.947201 0.082119
v 0.001620 -0.910701 0.067472
v 0.001863 -0.943196 0.088420
v 0.012321 -0.909021 0.065928
v 0.005995 -0.906455 0.061808
v 0.008188 -0.899823 0.065464
v 0.011933 -0.902202 0.068860
v 0.013675 -0.906661 0.062744
v 0.005251 -0.904453 0.069467
v 0.013413 -0.901518 0.063028
v -0.027563 -0.907649 0.053046
v -0.031524 -0.903267 0.051330
v -0.025430 -0.909355 0.047478
v -0.045326 -0.900345 0.038534
v -0.026886 -0.902934 0.043364
v -0.056963 -0.909452 0.022868
v -0.046531 -0.904348 0.026034
v -0.057634 -0.905536 0.028136
v -0.052061 -0.905681 0.015520
v -0.054428 -0.901287 0.012445
v -0.060984 -0.901680 0.014431
v -0.060367 -0.908058 0.003144
v -0.042981 -0.909401 -0.030453
v -0.052921 -0.900381 -0.010590
v -0.044342 -0.904209 -0.014245
v -0.041130 -0.904226 -0.038927
v -0.033298 -0.908053 -0.034292
v -0.027817 -0.900296 -0.046909
v -0.022358 -0.903282 -0.044362
v -0.006009 -0.908681 -0.055939
v -0.011771 -0.909296 -0.059995
v -0.018055 -0.902514 -0.058686
v -0.005204 -0.904419 -0.053551
v -0.002289 -0.904232 -0.063184
v -0.002682 -0.900123 -0.057637
v 0.016558 -0.904429 -0.048038
v 0.019983 -0.907964 -0.055795
v 0.025357 -0.909571 -0.046806
v 0.019804 -0.901478 -0.055470
v 0.027796 -0.900625 -0.045337
v 0.052115 -0.906143 -0.022506
v 0.051926 -0.905482 -0.036338
v 0.059231 -0.900328 -0.023811
v 0.060145 -0.909834 -0.020421
v 0.058634 -0.903395 -0.013735
v 0.068695 -0.905525 -0.013292
v 0.071136 -0.906765 0.001218
v 0.066945 -0.900216 -0.004359
v 0.060489 -0.904374 0.000628
v 0.066257 -0.909705 -0.000750
v 0.062538 -0.900462 0.013663
v 0.044149 -0.906942 0.031583
v 0.034758 -0.909683 0.050053
v 0.045344 -0.907833 0.043806
v 0.051159 -0.903080 0.036384
v 0.044898 -0.902134 0.031047
v 0.028208 -0.903058 0.059789
v 0.025739 -0.900161 0.053619
v 0.019691 -0.906587 0.054634
v 0.020640 -0.908073 0.062576
v 0.003722 -0.901112 0.059148
v 0.003719 -0.909382 0.059100
v 0.003293 -0.903467 0.067378
vn 0.9987 0.0008 0.0508
vn 0.9987 0.0052 0.0513
vn 0.9987 0.0007 0.0509
vn 0.9987 0.0011 0.0509
vn 0.9987 -0.0006 0.0517
vn 0.9987 0.0009 0.0519
vn 0.9985 -0.0042 0.0540
vn 0.3533 -0.8630 -0.3612
vn 0.3521 -0.8636 -0.3608
vn 0.3576 -0.8600 -0.3640
vn 0.3516 -0.8642 -0.3599
vn 0.3515 -0.8639 -0.3607
vn 0.3524 -0.8635 -0.3608
vn 0.3513 -0.8651 -0.3580
vn 0.9423 0.2875 -0.1718
vn 0.4971 -0.1065 0.8611
vn -0.2172 -0.4803 0.8498
vn 0.4369 0.4260 -0.7922
vn -0.6379 -0.0481 -0.7686
vn -0.9663 -0.2547 0.0366
vn -0.7873 -0.2169 0.5771
vn -0.9771 -0.0726 -0.2000
vn -0.1697 0.0968 -0.9807
vn 0.9486 0.0997 -0.3005
vn 0.4794 -0.0364 0.8769
vn 0.9059 0.2586 -0.3353
vn -0.5797 -0.1284 -0.8047
vn -0.7274 -0.0504 0.6843
vn 0.4808 -0.0976 -0.8714
vn -0.8983 0.0703 0.4338
vn 0.0296 0.0947 0.9951
vn 0.9504 0.0971 0.2956
vn 0.1511 0.3654 0.9185
vn 0.9609 -0.1286 -0.2451
vn 0.4450 -0.2884 -0.8478
vn 0.7807 -0.2837 -0.5568
vn -0.9729 0.0984 -0.2092
vn -0.1172 0.4497 -0.8854
vn 0.8857 -0.3896 -0.2525
vn 0.5630 0.5505 0.6164
vn 0.8335 -0.3492 -0.4282
vn 0.4947 0.2976 -0.8165
vn 0.7705 0.5454 -0.3300
vn -0.3906 -0.6228 0.6779
vn 0.1778 -0.9303 -0.3207
vn -0.3695 0.8449 0.3868
vn 0.8106 0.0236 -0.5852
vn -0.3797 -0.9189 0.1066
vn -0.5189 0.3260 0.7902
vn -0.8431 -0.0369 0.5364
vn 0.9420 -0.3233 -0.0904
vn -0.8316 0.5484 0.0875
vn 0.3861 0.9223 0.0175
vn -0.8523 -0.4821 -0.2029
vn -0.4283 -0.8638 -0.2655
vn 0.4477 -0.8237 0.3480
vn 0.6785 0.6564 0.3298
vn -0.4242 0.8789 -0.2182
vn -0.7669 0.1271 -0.6291
vn -0.1480 0.9769 -0.1544
vn 0.5188 0.5832 0.6251
vn -0.1883 -0.7693 -0.6105
vn -0.4646 0.4000 -0.7900
vn 0.0237 -0.8325 0.5536
vn 0.1333 0.1071 0.9853
vn -0.0051 0.9997 -0.0219
vn -0.0930 -0.9822 0.1633
vn 0.3366 -0.5718 -0.7482
vn 0.0605 0.1119 -0.9919
vn 0.3231 0.6463 -0.6912
vn -0.3613 0.0792 0.9291
vn -0.1512 0.9598 0.2364
vn 0.6342 -0.1305 -0.7620
vn -0.5691 -0.5326 0.6264
vn 0.3424 0.9394 -0.0175
vn 0.3997 0.8811 -0.2528
vn -0.8803 0.3318 0.3391
vn 0.9326 -0.1025 -0.3462
vn 0.9591 -0.2436 0.1443
vn 0.1362 -0.9879 -0.0739
vn -0.9496 0.2114 -0.2313
vn 0.3974 0.8963 0.1968
vn 0.7283 0.4507 0.5162
vn 0.1488 -0.9667 0.2082
vn -0.3409 0.0530 -0.9386
vn -0.7896 -0.3088 -0.5302
vn -0.1771 0.9595 -0.2190
vn -0.7431 0.3542 -0.5677
vn 0.4987 0.3840 0.7771
vn 0.2472 -0.6047 0.7571
vn 0.6750 -0.4678 0.5706
vn -0.2717 -0.8971 -0.3484
vn 0.0507 0.1879 0.9809
vn -0.1753 0.8566 -0.4852
vn 0.3869 -0.0556 0.9204
vn -0.7338 0.2793 0.6193
vn -0.3786 0.4945 0.7824
vn 0.0341 0.9764 0.2134
vn 0.0224 -0.9994 -0.0279
vt 0.363636 0.000000
vt 0.227245 0.000000
vt 0.090909 0.000000
vt 0.500047 0.000000
vt 0.500036 0.000000
vt 0.681885 0.000000
vt 0.863653 0.000000
vt 0.545455 0.000000
vt 0.863605 0.000000
vt 0.681826 0.000000
vt 0.409070 0.000000
vt 1.000000 0.000000
vt 0.045461 0.000000
vt 0.227244 0.000000
vt 0.000000 1.000000
vt 0.021178 0.846887
vt 0.000000 0.742398
vt 0.019580 0.214899
vt 0.000000 0.083755
vt 0.000000 0.385852
vt 0.024687 0.586181
vt 0.058369 0.665646
vt 0.089657 0.493989
vt 0.059167 0.345999
vt 0.088712 0.102422
vt 0.100827 0.000000
vt 0.048563 0.206685
vt 0.164855 0.374877
vt 0.115306 0.644630
vt 0.090621 0.729512
vt 0.163033 0.204084
vt 0.172223 0.603001
vt 0.161284 0.800524
vt 0.166704 0.965442
vt 0.204524 0.841993
vt 0.254144 0.049527
vt 0.167090 0.011936
vt 0.214656 0.272984
vt 0.264018 0.212616
vt 0.310263 0.561453
vt 0.325933 0.429075
vt 0.318263 1.000000
vt 0.331131 0.835649
vt 0.272062 1.000000
vt 0.331842 0.119999
vt 0.349738 0.048859
vt 0.333333 0.000000
vt 0.438024 0.925571
vt 0.349685 0.878506
vt 0.349711 1.000000
vt 0.431034 0.374206
vt 0.435869 0.270883
vt 0.465355 0.654377
vt 0.480634 0.046014
vt 0.439142 0.000000
vt 0.499573 0.264162
vt 0.437046 0.526425
vt 0.489100 0.458252
vt 0.480535 0.936985
vt 0.514255 0.016971
vt 0.515206 0.569476
vt 0.517383 0.824545
vt 0.535263 0.408867
vt 0.592456 0.311687
vt 0.602163 0.119794
vt 0.558628 0.027779
vt 0.559105 0.652041
vt 0.603484 0.493468
vt 0.573423 0.936326
vt 0.626006 0.750062
vt 0.627415 0.928848
vt 0.657845 0.305728
vt 0.645825 0.539005
vt 0.666971 0.128902
vt 0.666464 0.000000
vt 0.632044 0.000000
vt 0.666442 0.955569
vt 0.673983 0.731137
vt 0.724255 0.151960
vt 0.711808 0.373474
vt 0.673615 0.507421
vt 0.712205 0.578278
vt 0.712897 0.000000
vt 0.712411 0.955610
vt 0.728592 0.796216
vt 0.761797 0.469063
vt 0.775430 0.032378
vt 0.776761 0.985640
vt 0.813042 0.637085
vt 0.781151 0.633163
vt 0.794152 0.924677
vt 0.800611 0.458263
vt 0.824573 0.415870
vt 0.786295 0.239051
vt 0.825836 0.043307
vt 0.805556 0.000000
vt 0.825980 0.936280
vt 0.851232 0.640432
vt 0.900357 0.533332
vt 0.938302 0.214326
vt 0.965870 0.036231
vt 0.901569 0.044313
vt 0.955531 0.782439
vt 0.900364 0.876075
vt 0.968553 1.000000
vt 0.913908 1.000000
vt 0.955603 0.535306
vt 0.970031 0.369260
vt 0.917091 0.374269
vt 1.000043 0.130634
vt 0.999629 0.486877
vt 1.000000 1.000000
vt 1.000038 0.833091
vt 0.018984 0.000000
vt 0.061876 0.803140
vt 0.060478 1.000000
vt 0.264889 0.663017
vt 0.355229 0.504232
vt 0.348408 0.688717
vt 0.507623 0.967635
vt 0.603728 1.000000
vt 0.822563 0.230440
s 1
usemtl hair.002
f 4/1/1 3/2/2 2/3/3
f 5/4/4 4/1/1 2/3/3
f 5/4/4 2/3/3 1/5/5
f 6/6/6 5/4/4 1/5/5
f 6/6/6 1/5/5 7/7/7
f 11/8/8 13/9/9 12/10/10
f 10/11/11 13/9/9 11/8/8
f 10/11/11 14/12/12 13/9/9
f 10/11/11 8/13/13 14/12/12
f 9/14/14 8/13/13 10/11/11
f 15/15/15 20/16/16 17/17/17
f 18/18/18 15/19/15 16/20/19
f 19/21/20 16/20/19 17/17/17
f 20/16/16 22/22/21 19/21/20
f 26/23/22 21/24/23 19/21/20
f 25/25/24 27/26/25 23/27/26
f 28/28/27 25/25/24 21/24/23
f 29/29/28 26/23/22 22/22/21
f 27/30/25 29/29/28 22/22/21
f 30/31/29 25/25/24 28/28/27
f 31/32/30 28/28/27 26/23/22
f 33/33/31 31/32/30 29/29/28
f 32/34/32 33/33/31 27/30/25
f 34/35/33 31/32/30 33/33/31
f 32/34/32 34/35/33 33/33/31
f 30/31/29 36/36/34 32/37/32
f 28/28/27 35/38/35 30/31/29
f 35/38/35 37/39/36 36/36/34
f 38/40/37 35/38/35 28/28/27
f 38/40/37 28/28/27 31/32/30
f 38/40/37 41/41/38 35/38/35
f 40/42/39 43/43/40 36/44/34
f 37/39/36 40/45/39 36/36/34
f 40/45/39 44/46/41 43/47/40
f 51/48/42 46/49/43 44/50/41
f 47/51/44 49/52/45 40/45/39
f 51/48/42 50/53/46 46/49/43
f 49/52/45 53/54/47 51/55/42
f 52/56/48 53/54/47 49/52/45
f 47/51/44 52/56/48 49/52/45
f 48/57/49 54/58/50 47/51/44
f 53/59/47 50/53/46 51/48/42
f 52/56/48 55/60/51 53/54/47
f 57/61/52 54/58/50 50/53/46
f 56/62/53 50/53/46 53/59/47
f 58/63/54 52/56/48 54/58/50
f 59/64/55 52/56/48 58/63/54
f 63/65/56 61/66/57 52/56/48
f 60/67/58 62/68/59 58/63/54
f 62/68/59 59/64/55 58/63/54
f 61/69/57 64/70/60 60/67/58
f 64/70/60 62/68/59 60/67/58
f 65/71/61 64/70/60 61/69/57
f 62/68/59 67/72/62 59/64/55
f 68/73/63 62/68/59 64/70/60
f 66/74/64 69/75/65 65/76/61
f 69/77/65 64/70/60 65/71/61
f 71/78/66 68/73/63 64/70/60
f 74/79/67 66/74/64 67/72/62
f 73/80/68 67/72/62 70/81/69
f 71/78/66 75/82/70 70/81/69
f 74/79/67 72/83/71 66/74/64
f 75/82/70 73/80/68 70/81/69
f 72/84/71 76/85/72 71/78/66
f 78/86/73 73/80/68 75/82/70
f 74/79/67 77/87/74 72/83/71
f 77/88/74 76/85/72 72/84/71
f 84/89/75 79/90/76 81/91/77
f 82/92/78 83/93/79 80/94/80
f 84/89/75 82/92/78 79/90/76
f 80/94/80 85/95/81 81/96/77
f 83/93/79 82/92/78 84/89/75
f 85/97/81 84/89/75 81/91/77
f 84/89/75 87/98/82 83/93/79
f 91/99/83 83/93/79 87/98/82
f 89/100/84 95/101/85 88/102/86
f 94/103/87 87/98/82 92/104/88
f 95/105/85 94/103/87 88/106/86
f 93/107/89 96/108/90 90/109/91
f 96/108/90 98/110/92 89/100/84
f 93/107/89 99/111/93 96/108/90
f 99/111/93 93/107/89 94/103/87
f 98/112/92 97/113/94 95/105/85
f 15/19/15 18/18/18 20/114/16
f 19/21/20 18/18/18 16/20/19
f 17/17/17 20/16/16 19/21/20
f 18/18/18 23/27/26 20/114/16
f 21/24/23 23/27/26 18/18/18
f 19/21/20 21/24/23 18/18/18
f 20/16/16 24/115/95 22/22/21
f 20/16/16 23/116/26 24/115/95
f 21/24/23 25/25/24 23/27/26
f 22/22/21 26/23/22 19/21/20
f 23/116/26 27/30/25 24/115/95
f 24/115/95 27/30/25 22/22/21
f 26/23/22 28/28/27 21/24/23
f 25/25/24 32/37/32 27/26/25
f 30/31/29 32/37/32 25/25/24
f 29/29/28 31/32/30 26/23/22
f 27/30/25 33/33/31 29/29/28
f 30/31/29 35/38/35 36/36/34
f 32/34/32 36/44/34 34/35/33
f 39/117/96 38/40/37 31/32/30
f 34/35/33 39/117/96 31/32/30
f 35/38/35 41/41/38 37/39/36
f 36/44/34 43/43/40 34/35/33
f 45/118/97 42/119/98 50/53/46 48/57/49
f 37/39/36 41/41/38 40/45/39
f 45/118/97 38/40/37 39/117/96
f 38/40/37 45/118/97 41/41/38
f 45/118/97 43/43/40 42/119/98
f 43/43/40 44/50/41 46/49/43
f 45/118/97 40/45/39 41/41/38
f 43/43/40 46/49/43 42/119/98
f 40/45/39 49/52/45 44/46/41
f 45/118/97 47/51/44 40/45/39
f 46/49/43 50/53/46 42/119/98
f 45/118/97 48/57/49 47/51/44
f 44/46/41 49/52/45 51/55/42
f 66/74/64 63/65/56 59/64/55 67/72/62
f 47/51/44 54/58/50 52/56/48
f 50/53/46 54/58/50 48/57/49
f 39/117/96 34/35/33 43/43/40 45/118/97
f 56/62/53 57/61/52 50/53/46
f 55/120/51 56/62/53 53/59/47
f 57/61/52 58/63/54 54/58/50
f 56/62/53 60/67/58 57/61/52
f 55/120/51 61/69/57 56/62/53
f 52/56/48 61/66/57 55/60/51
f 57/61/52 60/67/58 58/63/54
f 59/64/55 63/65/56 52/56/48
f 56/62/53 61/69/57 60/67/58
f 63/121/56 65/71/61 61/69/57
f 63/65/56 66/74/64 65/76/61
f 80/94/80 74/79/67 73/80/68 78/86/73
f 62/68/59 68/73/63 67/72/62
f 68/73/63 70/81/69 67/72/62
f 71/78/66 70/81/69 68/73/63
f 69/77/65 71/78/66 64/70/60
f 66/74/64 72/83/71 69/75/65
f 73/80/68 74/79/67 67/72/62
f 69/77/65 72/84/71 71/78/66
f 71/78/66 76/85/72 75/82/70
f 88/102/86 85/95/81 86/122/99 89/100/84
f 79/90/76 78/86/73 75/82/70
f 76/85/72 79/90/76 75/82/70
f 74/79/67 80/94/80 77/87/74
f 81/91/77 79/90/76 76/85/72
f 77/88/74 81/91/77 76/85/72
f 78/86/73 82/92/78 80/94/80
f 79/90/76 82/92/78 78/86/73
f 77/87/74 80/94/80 81/96/77
f 80/94/80 83/93/79 86/122/99
f 80/94/80 86/122/99 85/95/81
f 88/106/86 92/104/88 85/97/81
f 89/100/84 86/122/99 83/93/79 90/109/91
f 84/89/75 85/97/81 92/104/88 87/98/82
f 83/93/79 91/99/83 90/109/91
f 91/99/83 87/98/82 94/103/87 93/107/89
f 88/106/86 94/103/87 92/104/88
f 91/99/83 93/107/89 90/109/91
f 90/109/91 96/108/90 89/100/84
f 95/105/85 97/113/94 94/103/87
f 89/100/84 98/110/92 95/101/85
f 97/113/94 99/111/93 94/103/87
f 96/108/90 99/111/93 98/110/92
o Cube.003
v -0.293584 -0.628759 0.318385
v -0.669006 1.514372 -0.668470
v 0.668470 1.514372 -0.669006
v -0.816089 0.431603 0.684119
v -0.614958 0.431080 -0.876088
v 0.760089 0.431156 0.760089
v -0.327543 -0.707718 0.060439
v -0.656823 0.902180 0.899978
v -0.669005 1.514373 0.668470
v -0.661995 -0.086475 -0.554573
v -0.318386 -0.628758 -0.293585
v -0.013434 -0.669107 -0.380175
v -0.126762 1.818480 -0.665693
v 0.503008 1.807776 -0.466747
v 0.554573 -0.086475 -0.661995
v 0.287654 -0.638458 -0.311024
v 0.377664 -0.671619 -0.012908
v 0.699213 1.781378 0.000000
v 0.452838 1.852496 0.435529
v 0.612689 -0.095534 0.612689
v 0.311024 -0.638458 0.287654
v 0.060533 -0.709785 0.325393
v 0.031014 1.800798 0.678697
v -0.466749 1.807774 0.503009
v -0.554572 -0.086479 0.661992
v -0.899978 0.902181 -0.656823
v 0.692837 0.709424 -0.884953
v 0.668470 1.514372 0.669006
v 0.899978 0.902181 0.656823
v 0.323512 0.207581 0.934280
v -0.337080 0.241292 0.956055
v 0.952337 0.616849 -0.552184
v 1.046014 0.438006 -0.086252
v 1.009362 0.476671 0.312095
v -0.086252 0.438006 -1.046014
v 0.312095 0.476671 -1.009362
v -0.956054 0.241290 -0.337082
v -0.948793 1.049416 0.551366
v -1.009361 0.476671 0.312095
v -0.861942 1.629779 0.098370
v -1.095481 0.874652 -0.037064
v -0.901762 1.428028 -0.409578
v -0.551366 1.049415 -0.948793
v 0.000000 1.077636 -1.066668
v -0.187693 1.522859 -0.904966
v 0.409577 1.428028 -0.901763
v 0.934598 1.424964 -0.337633
v 1.066668 1.077636 -0.000000
v 0.901762 1.428028 0.409577
v 0.551366 1.049416 0.948793
v 0.114682 0.841498 1.086811
v 0.187693 1.522860 0.904966
v -0.252971 0.840549 1.061062
v -0.409578 1.428028 0.901762
v -0.055936 -0.919545 0.000000
v 0.043256 -0.922739 0.000000
v 0.125025 2.004586 -0.223216
v -0.550263 1.855510 -0.269860
v -0.207975 1.994267 0.218335
v -0.016953 -0.408428 0.630833
v 0.772960 -0.108628 -0.341738
v 0.803856 -0.115182 0.206807
v -0.341738 -0.108628 -0.772960
v 0.206807 -0.115182 -0.803856
v -0.772959 -0.108629 0.341737
v -0.646401 -0.360040 -0.135115
vn -0.7481 -0.2242 0.6246
vn -0.8791 0.1650 0.4472
vn -0.9482 -0.2097 0.2388
vn -0.9980 0.0527 -0.0349
vn -0.8509 0.4129 -0.3248
vn -0.8315 0.0410 -0.5540
vn -0.6446 0.4966 0.5812
vn -0.5743 0.0485 0.8172
vn -0.4164 0.8007 0.4307
vn -0.7953 0.5980 0.0996
vn -0.4751 0.8515 -0.2219
vn -0.5820 0.5201 -0.6251
vn -0.5499 -0.2182 -0.8062
vn -0.9093 -0.3115 -0.2758
vn -0.0884 -0.2074 -0.9743
vn 0.0184 0.1423 -0.9897
vn 0.2674 -0.1901 -0.9447
vn 0.3366 0.4153 -0.8451
vn 0.6013 -0.0425 -0.7979
vn -0.4559 0.1445 -0.8782
vn -0.0990 0.8027 -0.5881
vn -0.1590 0.4948 -0.8543
vn 0.4309 0.8026 -0.4124
vn 0.6336 0.4706 -0.6141
vn 0.8682 0.4015 -0.2917
vn 0.9894 0.1453 0.0063
vn 0.8823 -0.1011 -0.4597
vn 0.9736 -0.2139 -0.0799
vn 0.9421 -0.1913 0.2753
vn 0.8470 0.4258 0.3183
vn 0.8350 0.0629 0.5467
vn 0.6846 -0.2276 0.6925
vn 0.3865 0.8483 0.3619
vn 0.5840 0.5130 0.6291
vn 0.4625 0.1432 0.8750
vn 0.2568 -0.3371 0.9058
vn -0.1963 0.0337 0.9800
vn -0.3111 0.4217 0.8517
vn 0.1545 0.4888 0.8586
vn -0.2705 -0.3202 0.9079
vn 0.1043 0.0186 0.9944
vn -0.0112 -0.7373 -0.6755
vn 0.2201 -0.9755 -0.0058
vn -0.2612 -0.9653 -0.0000
vn 0.0885 -0.7649 0.6380
vn -0.5022 -0.7298 -0.4638
vn -0.4586 -0.7223 0.5177
vn -0.6595 -0.7469 0.0848
vn 0.1073 0.9804 -0.1653
vn 0.6341 0.7733 0.0069
vn -0.1715 0.9711 0.1658
vn 0.0209 0.7910 0.6115
vn 0.6061 -0.5175 0.6040
vn -0.0009 -0.6161 0.7876
vn -0.5360 -0.5050 0.6765
vn 0.4729 -0.7212 -0.5063
vn 0.8075 -0.4931 -0.3237
vn 0.6874 -0.7263 -0.0070
vn 0.8448 -0.5032 0.1820
vn -0.2971 -0.5080 -0.8085
vn 0.1787 -0.5015 -0.8465
vn -0.6746 -0.4945 -0.5480
vn -0.8180 -0.4968 0.2899
vn -0.7875 -0.6032 -0.1266
vn 0.5140 -0.7056 0.4878
vn 0.5500 -0.4728 -0.6884
vt 0.471708 0.014299
vt 0.534381 0.045164
vt 0.482094 0.081003
vt 0.518040 0.131522
vt 0.572886 0.184275
vt 0.519900 0.224846
vt 0.584064 0.006954
vt 0.522167 0.000000
vt 0.625000 0.050929
vt 0.599319 0.106187
vt 0.625000 0.199072
vt 0.590482 0.251621
vt 0.480654 0.278342
vt 0.467316 0.177628
vt 0.483553 0.361737
vt 0.535167 0.375133
vt 0.484905 0.418997
vt 0.572969 0.434275
vt 0.504150 0.479248
vt 0.536115 0.295164
vt 0.622992 0.344966
vt 0.585516 0.342845
vt 0.625000 0.449072
vt 0.591602 0.501621
vt 0.575543 0.573656
vt 0.535989 0.624867
vt 0.497820 0.545060
vt 0.483590 0.611737
vt 0.484936 0.668997
vt 0.575759 0.684275
vt 0.520099 0.724846
vt 0.480650 0.750110
vt 0.662861 0.538815
vt 0.671968 0.698968
vt 0.591602 0.748379
vt 0.536163 0.795164
vt 0.464442 0.825153
vt 0.515268 0.906250
vt 0.572507 0.934275
vt 0.516778 0.974846
vt 0.625000 0.800928
vt 0.585511 0.842844
vt 0.625000 0.950076
vt 0.594642 0.991426
vt 0.470328 1.000000
vt 0.464037 0.927627
vt 0.515675 0.859485
vt 0.234722 0.509599
vt 0.292004 0.628504
vt 0.216953 0.625766
vt 0.266710 0.740286
vt 0.133566 0.524241
vt 0.149242 0.741434
vt 0.134799 0.640642
vt 0.731908 0.592499
vt 0.637096 0.626126
vt 0.843650 0.574928
vt 0.784765 0.661062
vt 0.751177 0.739753
vt 0.836218 0.716124
vt 0.875000 0.500000
vt 0.776461 0.513182
vt 0.875000 0.616243
vt 0.440699 0.749857
vt 0.418706 0.890459
vt 0.392399 0.979767
vt 0.385391 0.856296
vt 0.436134 0.985551
vt 0.357866 0.507645
vt 0.439949 0.559701
vt 0.373594 0.619321
vt 0.438475 0.663639
vt 0.392332 0.237655
vt 0.440448 0.309701
vt 0.390575 0.370219
vt 0.439095 0.413639
vt 0.441138 0.235550
vt 0.393543 0.015630
vt 0.437709 0.059702
vt 0.385801 0.107280
vt 0.418545 0.156738
vt 0.435727 0.000000
vt 0.385428 0.737535
vt 0.621461 0.870709
vt 0.370564 0.729890
vt 0.441018 0.485550
vt 0.388128 0.487535
s 1
usemtl red_baloon.002
f 103/123/100 137/124/101 138/125/102
f 140/126/103 141/127/104 125/128/105
f 108/129/106 137/124/101 107/130/107
f 123/131/108 139/132/109 108/129/106
f 141/127/104 157/133/110 101/134/111
f 141/127/104 101/134/111 125/128/105
f 125/128/105 104/135/112 136/136/113
f 138/125/102 140/126/103 136/136/113
f 134/137/114 143/138/115 135/139/116
f 143/138/115 145/140/117 126/141/118
f 101/134/111 142/142/119 125/128/105
f 112/143/120 144/144/121 101/134/111
f 145/140/117 113/145/122 102/146/123
f 145/140/117 102/146/123 126/141/118
f 146/147/124 147/148/125 131/149/126
f 132/150/127 147/148/125 133/151/128
f 147/148/125 148/152/129 128/153/130
f 128/153/130 105/154/131 133/151/128
f 102/146/123 146/147/124 126/141/118
f 113/155/122 146/147/124 102/146/123
f 148/152/129 118/156/132 127/157/133
f 148/152/129 127/157/133 128/153/130
f 105/154/131 149/158/134 129/159/135
f 152/160/136 153/161/137 107/162/107
f 127/157/133 149/158/134 128/153/130
f 118/163/132 151/164/138 127/157/133
f 153/161/137 123/165/108 108/166/106
f 153/161/137 108/166/106 107/162/107
f 107/162/107 103/167/100 130/168/139
f 129/159/135 150/169/140 130/168/139
f 111/170/141 155/171/142 154/172/143
f 155/171/142 121/173/144 154/172/143
f 111/170/141 154/172/143 110/174/145
f 154/172/143 121/173/144 100/175/146
f 106/176/147 154/172/143 100/175/146
f 154/172/143 106/176/147 110/174/145
f 113/155/122 156/177/148 117/178/149
f 157/179/110 158/180/150 156/177/148
f 156/177/148 118/156/132 117/178/149
f 158/180/150 122/181/151 118/156/132
f 158/180/150 123/182/108 122/181/151
f 101/183/111 157/179/110 112/184/120
f 157/179/110 139/185/109 158/180/150
f 119/186/152 129/159/135 159/187/153
f 129/159/135 130/168/139 159/187/153
f 159/187/153 100/188/146 121/189/144
f 130/168/139 124/190/154 159/187/153
f 115/191/155 160/192/156 116/193/157
f 160/192/156 161/194/158 116/193/157
f 160/192/156 132/150/127 161/194/158
f 110/195/145 162/196/159 111/197/141
f 162/196/159 163/198/160 111/197/141
f 162/196/159 134/137/114 163/198/160
f 109/199/161 104/135/112 162/196/159
f 100/200/146 164/201/162 106/202/147
f 164/201/162 136/136/113 165/203/163
f 165/203/163 110/195/145 106/202/147
f 136/136/113 109/199/161 165/203/163
f 124/204/154 103/123/100 164/201/162
f 108/129/106 139/132/109 137/124/101
f 137/124/101 140/126/103 138/125/102
f 137/124/101 139/132/109 140/126/103
f 140/126/103 139/132/109 141/127/104
f 140/126/103 125/128/105 136/136/113
f 103/123/100 107/130/107 137/124/101
f 141/127/104 139/132/109 157/133/110
f 101/134/111 144/144/121 142/142/119
f 104/135/112 142/142/119 134/137/114
f 142/142/119 143/138/115 134/137/114
f 142/142/119 144/144/121 143/138/115
f 143/138/115 144/144/121 145/140/117
f 144/144/121 112/143/120 145/140/117
f 135/139/116 143/138/115 126/141/118
f 104/135/112 125/128/105 142/142/119
f 145/140/117 112/143/120 113/145/122
f 131/149/126 147/148/125 132/150/127
f 153/161/137 152/160/136 150/169/140 151/164/138
f 147/148/125 146/147/124 148/152/129
f 146/147/124 117/178/149 148/152/129
f 133/151/128 147/148/125 128/153/130
f 126/141/118 146/147/124 131/149/126
f 113/155/122 117/178/149 146/147/124
f 148/152/129 117/178/149 118/156/132
f 127/157/133 151/164/138 149/158/134
f 129/159/135 149/158/134 150/169/140
f 149/158/134 151/164/138 150/169/140
f 159/187/153 121/189/144 120/205/164 119/186/152
f 151/164/138 122/206/151 153/161/137
f 152/160/136 107/162/107 130/168/139
f 105/154/131 128/153/130 149/158/134
f 118/163/132 122/206/151 151/164/138
f 153/161/137 122/206/151 123/165/108
f 150/169/140 152/160/136 130/168/139
f 111/170/141 115/191/155 155/171/142
f 155/171/142 115/191/155 116/193/157
f 116/193/157 120/207/164 155/171/142
f 155/171/142 120/207/164 121/173/144
f 113/155/122 112/184/120 156/177/148
f 112/184/120 157/179/110 156/177/148
f 156/177/148 158/180/150 118/156/132
f 158/180/150 139/185/109 123/182/108
f 120/207/164 116/193/157 161/194/158 119/186/152
f 159/187/153 124/190/154 100/188/146
f 119/186/152 105/154/131 129/159/135
f 130/168/139 103/167/100 124/190/154
f 131/149/126 160/192/156 114/208/165 126/141/118
f 115/191/155 114/208/165 160/192/156
f 119/186/152 161/194/158 133/151/128 105/154/131
f 160/192/156 131/149/126 132/150/127
f 132/150/127 133/151/128 161/194/158
f 115/209/155 111/197/141 163/198/160 114/208/165
f 114/208/165 163/198/160 135/139/116 126/141/118
f 110/195/145 109/199/161 162/196/159
f 162/196/159 104/135/112 134/137/114
f 134/137/114 135/139/116 163/198/160
f 106/202/147 164/201/162 165/203/163
f 165/203/163 109/199/161 110/195/145
f 100/200/146 124/204/154 164/201/162
f 164/201/162 103/123/100 138/125/102
f 164/201/162 138/125/102 136/136/113
f 136/136/113 104/135/112 109/199/161
o Cylinder.006
v 0.070257 -0.752878 -0.105617
v 0.094957 -1.047363 -0.061508
v 0.111876 -1.048028 0.009562
v 0.096532 -0.767708 0.026586
v 0.085212 -1.045255 0.066417
v 0.028924 -1.045062 0.109973
v -0.045876 -1.051191 0.094375
v -0.050924 -0.765186 0.084305
v -0.093947 -1.047627 0.050603
v -0.118306 -0.754764 -0.014987
v -0.103624 -1.045509 -0.015492
v -0.019933 -1.049430 -0.105201
v 0.039397 -0.802345 -0.068862
v 0.058923 -0.758753 0.095028
v -0.079038 -0.796481 -0.005176
v -0.020863 -0.760360 -0.101511
v 0.045100 -0.920290 -0.027654
v 0.055429 -0.929793 0.007467
v 0.024190 -0.913517 0.051287
v -0.031721 -0.912935 0.041443
v -0.045498 -0.916022 -0.014030
v -0.005112 -0.913042 -0.051707
v -0.070088 -1.048472 -0.091470
v 0.044628 -0.951752 -0.018829
v 0.011509 -0.948479 0.045802
v -0.035427 -0.954522 0.016209
v -0.017982 -0.956717 -0.033572
vn 0.5681 -0.4405 -0.6951
vn 0.6968 0.2669 -0.6658
vn 0.8636 0.4766 0.1646
vn -0.4786 -0.4929 -0.7266
vn -0.1679 0.0774 -0.9828
vn 0.4467 -0.6534 -0.6111
vn -0.9582 0.1315 -0.2541
vn -0.6744 -0.7052 0.2189
vn -0.0308 -0.8573 0.5138
vn -0.6862 0.0694 0.7241
vn -0.6321 -0.7707 0.0802
vn 0.3752 0.0469 0.9258
vn 0.0536 -0.7725 0.6327
vn 0.5267 -0.7700 0.3600
vn 0.5707 -0.8174 -0.0785
vn 0.9745 0.1752 0.1404
vn 0.7542 0.0887 -0.6507
vn -0.4475 0.4607 0.7665
vn -0.8708 -0.4847 -0.0823
vn -0.0612 -0.8801 -0.4707
vn -0.4963 -0.8302 0.2540
vn -0.9055 0.3605 -0.2238
vn -0.2509 0.3866 -0.8875
vn 0.3668 0.5206 0.7710
vn 0.6436 -0.6813 -0.3486
vn 0.5229 -0.8489 -0.0771
vn 0.2202 -0.7866 0.5769
vt 0.926721 0.928027
vt 0.910815 1.000000
vt 0.714043 0.968138
vt 0.106278 0.500000
vt 0.052636 0.718910
vt 0.011569 0.500000
vt 0.191437 0.718996
vt 0.236045 0.500000
vt 0.430064 0.500000
vt 0.370445 0.706713
vt 0.330552 0.500000
vt 0.566724 0.722351
vt 0.539473 0.500000
vt 0.638611 0.500000
vt 0.728570 0.500000
vt 0.741357 0.696081
vt 0.869639 0.709702
vt 0.990791 0.763033
vt 0.408447 0.970100
vt 0.237608 0.928530
vt 0.544047 0.276618
vt 0.607139 0.431719
vt 0.713659 0.447175
vt 0.914006 0.123390
vt 0.782446 0.081612
vt 0.904330 0.327509
vt 0.225938 1.000000
vt 0.049439 0.970761
vt 0.476506 0.203541
vt 0.367021 0.437252
vt 0.168061 0.472777
vt 0.027086 0.283597
vt 0.123327 0.056956
vt 0.370522 0.047702
vt 0.000000 1.000000
vt 0.000000 0.928027
vt 0.835423 0.500000
vt 0.584797 0.983442
vt 0.973086 0.500000
vt 0.581470 0.182150
vt 0.653477 0.404422
vt 0.654374 0.062334
vt 0.558159 0.142027
vt 0.802899 0.034097
vt 0.924453 0.370539
vt 0.967508 0.234026
s 1
usemtl red_baloon.002
f 178/210/166 166/211/167 169/212/168
f 188/213/169 187/214/170 177/215/171
f 186/216/172 188/213/169 176/217/173
f 172/218/174 185/219/175 174/220/176
f 184/221/177 171/222/178 170/223/179
f 168/224/180 183/225/181 170/223/179
f 178/210/166 182/226/182 187/227/170
f 182/226/182 169/212/168 183/225/181
f 173/228/183 185/219/175 184/221/177
f 185/219/175 180/229/184 186/216/172
f 184/221/177 183/225/181 169/212/168
f 176/230/173 188/231/169 177/232/171
f 170/233/179 190/234/185 189/235/186
f 173/228/183 175/236/187 180/229/184
f 175/236/187 181/237/188 180/229/184
f 169/238/168 166/239/167 181/240/188 175/241/187 173/242/183 179/243/189
f 186/216/172 176/217/173 174/220/176 185/219/175
f 181/237/188 166/244/167 178/245/166
f 188/213/169 186/216/172 187/214/170
f 185/219/175 172/218/174 171/222/178 184/221/177
f 183/225/181 168/224/180 167/246/190 182/226/182
f 170/223/179 183/225/181 184/221/177
f 181/237/188 187/214/170 186/216/172 180/229/184
f 178/210/166 169/212/168 182/226/182
f 184/221/177 169/212/168 179/247/189
f 179/247/189 173/228/183 184/221/177
f 173/228/183 180/229/184 185/219/175
f 182/226/182 167/246/190 177/248/171 187/227/170
f 181/237/188 178/245/166 187/214/170
f 189/235/186 190/234/185 191/249/191 192/250/192
f 191/249/191 190/234/185 172/251/174 174/252/176
f 171/253/178 172/251/174 190/234/185
f 192/250/192 191/249/191 176/230/173 177/232/171
f 167/254/190 168/255/180 189/235/186
f 168/255/180 170/233/179 189/235/186
f 174/252/176 176/230/173 191/249/191
f 189/235/186 192/250/192 177/232/171 167/254/190
f 170/233/179 171/253/178 190/234/185
o Torus.001
v 0.071284 -0.885438 -0.002913
v 0.045594 -0.893238 0.005825
v 0.066762 -0.902258 0.000077
v 0.040912 -0.890656 -0.019340
v 0.046231 -0.899577 -0.015801
v 0.070854 -0.895357 -0.022093
v 0.055704 -0.890351 -0.047822
v 0.050255 -0.882529 -0.031716
v 0.052207 -0.899806 -0.044881
v 0.027408 -0.897129 -0.033711
v 0.018856 -0.902378 -0.058106
v 0.018854 -0.883288 -0.058109
v 0.009568 -0.890716 -0.040690
v 0.025178 -0.891888 -0.067645
v -0.000721 -0.886130 -0.045156
v 0.000045 -0.899391 -0.045101
v -0.001718 -0.895676 -0.070114
v -0.029469 -0.887754 -0.062181
v -0.022557 -0.892833 -0.033881
v -0.029842 -0.901748 -0.055897
v -0.036115 -0.886390 -0.026282
v -0.029272 -0.899507 -0.032502
v -0.046828 -0.883294 -0.037537
v -0.057275 -0.899582 -0.034545
v -0.060415 -0.890289 -0.035300
v -0.060533 -0.902383 -0.005981
v -0.039274 -0.892833 -0.011740
v -0.044799 -0.899203 -0.006100
v -0.071277 -0.890462 0.002834
v -0.061013 -0.883305 0.002868
v -0.039875 -0.886397 0.027173
v -0.042011 -0.890781 0.007704
v -0.059927 -0.893939 0.044403
v -0.057930 -0.885988 0.038149
v -0.043132 -0.899507 0.019028
v -0.065773 -0.901872 0.012429
v -0.003808 -0.883663 0.069868
v -0.024891 -0.897931 0.039931
v -0.035856 -0.899498 0.062002
v -0.014050 -0.886186 0.048065
v -0.032801 -0.887373 0.066118
v -0.009284 -0.892833 0.046200
v -0.005530 -0.895340 0.076043
v 0.003822 -0.902364 0.066591
v 0.006641 -0.899400 0.051215
v 0.014618 -0.886206 0.049433
v 0.027210 -0.883293 0.061613
v 0.019364 -0.894730 0.043975
v 0.029275 -0.890439 0.071498
v 0.039731 -0.899520 0.063601
v 0.044543 -0.886342 0.027236
v 0.038128 -0.895018 0.029224
v 0.054012 -0.903003 0.031400
v 0.057663 -0.890810 0.051473
v 0.056203 -0.883287 0.036042
v 0.075126 -0.895380 0.017247
v 0.072771 -0.890594 0.022467
vn 0.0927 0.9923 -0.0821
vn -0.4917 0.8393 -0.2319
vn 0.2541 0.9525 0.1678
vn -0.9850 -0.1693 -0.0337
vn -0.5818 -0.7634 0.2806
vn 0.0980 -0.9924 0.0738
vn 0.9158 -0.2268 -0.3314
vn 0.6745 0.7346 -0.0734
vn 0.9382 -0.3147 0.1439
vn -0.7241 0.4558 0.5176
vn 0.6765 0.2646 -0.6873
vn 0.4309 -0.7928 -0.4310
vn 0.3705 -0.9279 -0.0409
vn -0.4236 -0.7348 0.5297
vn 0.0937 -0.9541 -0.2845
vn -0.2420 0.1535 0.9581
vn 0.2869 0.0976 -0.9530
vn -0.4213 0.4317 -0.7976
vn 0.0526 0.9480 -0.3140
vn -0.2200 0.9576 -0.1859
vn 0.3774 0.8852 0.2721
vn 0.0729 0.8547 0.5140
vn 0.3917 -0.8426 0.3696
vn -0.2976 -0.8263 -0.4782
vn 0.0538 -0.8494 0.5249
vn 0.9069 -0.2547 0.3356
vn 0.5078 -0.0934 0.8564
vn -0.9778 0.1986 -0.0669
vn -0.2717 0.9623 -0.0142
vn -0.8127 0.2917 -0.5044
vn -0.2348 -0.9703 -0.0590
vn -0.5715 -0.8149 0.0970
vn -0.6222 -0.6717 -0.4022
vn 0.7456 0.4489 -0.4926
vn 0.9088 -0.4134 -0.0564
vn 0.5203 -0.8454 0.1207
vn 0.3797 -0.9104 -0.1644
vn -0.8173 -0.1841 0.5461
vn 0.5684 -0.3636 -0.7381
vn -0.4370 0.5199 0.7340
vn -0.0255 0.8734 0.4863
vn -0.5454 0.7862 0.2906
vn -0.3885 -0.7096 0.5878
vn 0.2600 0.1291 -0.9570
vn -0.0974 -0.8911 -0.4432
vn -0.1121 -0.2486 0.9621
vn 0.0209 -0.9558 0.2933
vn -0.1337 0.8606 -0.4914
vn 0.2816 0.7600 -0.5857
vn 0.3068 0.2381 0.9215
vn 0.1212 0.9676 0.2216
vn 0.3889 -0.6801 0.6215
vn 0.7644 0.1192 0.6336
vn 0.8385 0.4664 0.2816
vn -0.0401 -0.2052 -0.9779
vn -0.4154 -0.0748 -0.9065
vn -0.6836 -0.3803 -0.6229
vt 0.601639 0.750385
vt 0.418079 0.888433
vt 0.415360 0.684156
vt 0.498321 0.962168
vt 0.486833 0.026549
vt 0.569131 0.130986
vt 0.420705 0.250820
vt 0.557026 0.456650
vt 0.514205 0.631564
vt 0.469938 0.443014
vt 0.583364 0.961132
vt 0.565741 0.000000
vt 0.621355 0.537608
vt 0.620603 0.384922
vt 0.510730 0.323073
vt 0.654872 0.061454
vt 0.705550 0.297613
vt 0.724038 0.963690
vt 0.701278 0.512954
vt 0.820737 0.558589
vt 0.705557 0.702345
vt 0.887872 0.699234
vt 0.893872 0.885968
vt 0.763272 0.865946
vt 0.866092 0.113114
vt 0.824989 0.394979
vt 0.756930 0.111883
vt 0.944940 1.000000
vt 0.843708 1.000000
vt 0.986068 0.539050
vt 0.987479 0.685820
vt 0.911795 0.542516
vt 0.970689 0.300705
vt 0.987727 0.416667
vt 0.908870 0.392166
vt 1.000000 0.833333
vt 0.994596 0.967615
vt 1.000000 0.000000
vt 0.962820 0.109319
vt 0.944940 0.000000
vt 1.000000 0.166667
vt 0.030017 0.392871
vt 0.093120 0.478382
vt 0.012935 0.539050
vt 0.145516 0.088031
vt 0.056189 0.127796
vt 0.169263 0.576218
vt 0.232366 0.638031
vt 0.081714 0.606584
vt 0.157687 0.386529
vt 0.208270 0.000000
vt 0.263247 0.117674
vt 0.233267 0.463966
vt 0.248773 0.308146
vt 0.291705 0.887130
vt 0.195660 0.884248
vt 0.309955 0.536768
vt 0.319215 0.682429
vt 0.338039 0.393100
vt 0.386457 0.525136
vt 0.457792 0.532956
vt 0.659246 1.000000
vt 0.742586 0.000000
vt 0.758989 0.450581
vt 0.843708 0.000000
vt 0.208270 1.000000
vt 0.114592 1.000000
vt 0.083504 0.885381
vt 0.017913 0.685820
vt 0.031277 0.000000
vt 0.012276 0.083333
vt 0.011835 0.300705
vt 0.023893 0.967615
vt 0.305090 1.000000
vt 0.398904 1.000000
vt 0.313992 0.024054
vt 0.401930 0.030527
s 1
usemtl hair.002
f 200/256/193 243/257/194 247/258/195
f 200/256/193 194/259/196 243/257/194
f 194/260/196 197/261/197 245/262/198
f 198/263/199 193/264/200 248/265/201
f 200/256/193 196/266/202 194/259/196
f 196/267/202 197/261/197 194/260/196
f 199/268/203 200/256/193 193/264/200
f 201/269/204 198/263/199 195/270/205
f 196/267/202 202/271/206 197/261/197
f 203/272/207 201/269/204 195/270/205
f 200/256/193 205/273/208 196/266/202
f 206/274/209 199/268/203 201/269/204
f 210/275/210 204/276/211 206/274/209
f 215/277/212 213/278/213 207/279/214
f 214/280/215 212/281/216 208/282/217
f 213/278/213 219/283/218 211/284/219
f 221/285/220 222/286/221 217/287/222
f 222/286/221 213/278/213 215/277/212
f 218/288/223 228/289/224 216/290/225
f 228/289/224 221/285/220 216/290/225
f 222/286/221 223/291/226 213/278/213
f 223/291/226 224/292/227 213/278/213
f 224/293/227 220/294/228 219/295/218
f 227/296/229 218/288/223 220/294/228
f 228/297/224 225/298/230 221/299/220
f 230/300/231 228/297/224 227/301/229
f 233/302/232 229/303/233 226/304/234
f 231/305/235 225/298/230 228/297/224
f 234/306/236 237/307/237 230/300/231
f 231/305/235 235/308/238 233/302/232
f 237/307/237 236/309/239 230/300/231
f 229/303/233 238/310/240 232/311/241
f 241/312/242 239/313/243 229/303/233
f 239/313/243 238/310/240 229/303/233
f 242/314/244 241/312/242 235/308/238
f 245/262/198 236/309/239 237/307/237
f 242/314/244 246/315/245 241/312/242
f 245/262/198 242/314/244 236/309/239
f 248/265/201 246/315/245 242/314/244
f 248/265/201 249/316/246 246/315/245
f 249/316/246 193/264/200 247/258/195
f 195/270/205 248/265/201 245/262/198
f 193/264/200 200/256/193 247/258/195
f 203/272/207 195/270/205 197/261/197 202/271/206
f 245/262/198 197/261/197 195/270/205
f 195/270/205 198/263/199 248/265/201
f 198/263/199 199/268/203 193/264/200
f 198/263/199 201/269/204 199/268/203
f 200/256/193 199/268/203 206/274/209 204/276/211
f 210/275/210 212/281/216 216/290/225 217/287/222
f 196/266/202 205/273/208 202/317/206
f 201/269/204 203/272/207 206/274/209
f 204/276/211 207/279/214 200/256/193
f 200/256/193 207/279/214 205/273/208
f 202/271/206 208/282/217 203/272/207
f 202/271/206 205/318/208 208/282/217
f 203/272/207 209/319/247 206/274/209
f 209/319/247 210/275/210 206/274/209
f 203/272/207 212/281/216 209/319/247
f 210/275/210 215/277/212 204/276/211
f 204/276/211 215/277/212 207/279/214
f 207/279/214 211/284/219 205/273/208
f 205/318/208 211/320/219 208/282/217
f 208/282/217 212/281/216 203/272/207
f 212/281/216 210/275/210 209/319/247
f 207/279/214 213/278/213 211/284/219
f 211/320/219 214/280/215 208/282/217
f 210/275/210 217/287/222 215/277/212
f 214/280/215 218/288/223 212/281/216
f 212/281/216 218/288/223 216/290/225
f 214/280/215 211/320/219 219/295/218 220/294/228
f 234/321/236 230/322/231 223/323/226 232/311/241
f 214/280/215 220/294/228 218/288/223
f 217/287/222 222/286/221 215/277/212
f 213/278/213 224/292/227 219/283/218
f 216/290/225 221/285/220 217/287/222
f 221/299/220 226/304/234 222/324/221
f 224/325/227 227/301/229 220/326/228
f 227/301/229 228/297/224 218/327/223
f 225/298/230 226/304/234 221/299/220
f 223/323/226 230/322/231 224/328/227
f 224/325/227 230/300/231 227/301/229
f 226/304/234 229/303/233 222/324/221
f 222/324/221 229/303/233 223/323/226
f 225/298/230 233/302/232 226/304/234
f 229/303/233 232/311/241 223/323/226
f 240/329/248 238/310/240 243/257/194 244/330/249
f 230/300/231 236/309/239 228/297/224
f 228/297/224 236/309/239 231/305/235
f 231/305/235 233/302/232 225/298/230
f 231/305/235 236/309/239 235/308/238
f 235/308/238 229/303/233 233/302/232
f 232/311/241 238/310/240 234/321/236
f 235/308/238 241/312/242 229/303/233
f 238/310/240 240/329/248 234/321/236
f 234/306/236 240/331/248 237/307/237
f 236/309/239 242/314/244 235/308/238
f 239/313/243 243/257/194 238/310/240
f 239/313/243 241/312/242 246/315/245 247/258/195
f 240/331/248 245/262/198 237/307/237
f 240/331/248 244/332/249 245/262/198
f 239/313/243 247/258/195 243/257/194
f 245/262/198 248/265/201 242/314/244
f 246/315/245 249/316/246 247/258/195
f 243/257/194 194/259/196 244/330/249
f 244/332/249 194/260/196 245/262/198
f 248/265/201 193/264/200 249/316/246
