# Blender 4.3.2
# www.blender.org
mtllib GloboRojo.mtl
o BezierCurve.001
v 0.003804 -0.904418 0.057157
v 0.003652 -0.909590 0.060040
v 0.003319 -0.906802 0.066489
v 0.003554 -0.899764 0.062479
v 0.052091 -1.309088 0.092837
v 0.047085 -1.308465 0.086494
v 0.043129 -1.312505 0.092297
v 0.047888 -1.312036 0.095793
v 0.048843 -1.308941 0.089626
v 0.044429 -1.309816 0.087109
v 0.047844 -1.312776 0.097552
v 0.027637 -1.267443 0.105912
v 0.012743 -1.163967 0.118746
v 0.018734 -1.189618 0.126037
v 0.020613 -1.173086 0.120169
v 0.007131 -1.049430 0.122440
v 0.005491 -1.053717 0.130179
v 0.014698 -1.047020 0.123759
v 0.009020 -1.007983 0.118428
v 0.009513 -0.966452 0.092134
v 0.003281 -0.905051 0.070415
v 0.003729 -0.905919 0.062540
v 0.013159 -0.899348 0.065699
v 0.012631 -0.908780 0.064345
v -0.030917 -0.905915 0.052535
v -0.056606 -0.909052 0.027866
v -0.045326 -0.900345 0.038534
v -0.026886 -0.902934 0.043364
v -0.052397 -0.903643 0.017991
v -0.060552 -0.900449 0.010133
v -0.060367 -0.908058 0.003144
v -0.044342 -0.904209 -0.014245
v -0.041130 -0.904226 -0.038927
v -0.039555 -0.909950 -0.029879
v -0.024763 -0.900954 -0.044568
v -0.000896 -0.909645 -0.063220
v -0.009257 -0.902728 -0.063335
v -0.005481 -0.907053 -0.053703
v 0.012351 -0.900190 -0.057562
v 0.020623 -0.901914 -0.046726
v 0.063027 -0.903023 -0.026180
v 0.070788 -0.909628 -0.002251
v 0.055719 -0.904752 -0.018197
v 0.060489 -0.904374 0.000628
v 0.068538 -0.900285 0.001527
v 0.043291 -0.904310 0.031269
v 0.037609 -0.905892 0.055621
v 0.025739 -0.900161 0.053619
v 0.027891 -0.909335 0.052515
v 0.003722 -0.901112 0.059148
v 0.003719 -0.909382 0.059100
v 0.003293 -0.903467 0.067378
vn 0.9987 -0.0026 0.0512
vn 0.9987 -0.0005 0.0518
vn 0.9987 -0.0044 0.0508
vn 0.3511 -0.8636 -0.3619
vn 0.3510 -0.8636 -0.3619
vn 0.3511 -0.8635 -0.3619
vn -0.9429 -0.2933 0.1578
vn -0.6549 0.0742 -0.7521
vn 0.0929 -0.5108 0.8547
vn -0.1469 -0.1179 0.9821
vn -0.5568 -0.1600 -0.8151
vn 0.9369 0.1896 -0.2938
vn -0.7721 -0.0276 -0.6349
vn -0.5592 0.0289 0.8286
vn 0.9984 -0.0318 -0.0464
vn 0.1224 0.3938 0.9110
vn 0.8695 -0.2036 -0.4500
vn -0.4227 0.4918 -0.7613
vn 0.6628 0.7479 0.0357
vn -0.4757 0.3433 0.8098
vn 0.7485 -0.2427 -0.6171
vn 0.4205 0.4099 -0.8094
vn -0.4788 -0.1897 0.8572
vn -0.6550 -0.6554 0.3761
vn -0.4299 0.8091 0.4007
vn 0.9494 0.2880 -0.1255
vn -0.6620 0.7475 0.0553
vn 0.0996 -0.9947 0.0264
vn -0.8289 -0.5196 -0.2072
vn 0.9055 0.0472 0.4217
vn -0.7496 0.1475 -0.6453
vn 0.1544 0.9458 0.2858
vn 0.1408 -0.7078 -0.6923
vn -0.3544 0.3660 -0.8605
vn 0.3164 0.7692 -0.5552
vn -0.4201 0.6587 0.6242
vn 0.3222 -0.6346 0.7025
vn 0.6613 0.2629 -0.7025
vn -0.4781 0.7754 0.4125
vn 0.5653 0.8078 0.1668
vn 0.7366 -0.6758 -0.0282
vn -0.9397 0.1911 -0.2835
vn 0.6543 -0.0798 0.7520
vn -0.7859 -0.1615 -0.5969
vn -0.1584 0.9569 -0.2434
vn -0.2841 -0.9338 -0.2175
vn -0.0992 -0.9478 -0.3031
vn 0.2315 0.1336 0.9636
vn -0.1715 0.8558 -0.4880
vn 0.8141 0.3992 -0.4218
vt 0.456285 0.000000
vt 0.183521 0.000000
vt 0.500036 0.000000
vt 0.772738 0.000000
vt 0.318163 0.000000
vt 0.863605 0.000000
vt 0.638064 0.000000
vt 0.351721 0.000000
vt 0.024687 0.586181
vt 0.000000 0.385852
vt 0.000051 0.742648
vt 0.063397 0.701235
vt 0.164855 0.374877
vt 0.071863 0.146177
vt 0.075552 0.425523
vt 0.157911 0.734768
vt 0.165714 0.077087
vt 0.166704 0.965442
vt 0.204524 0.841993
vt 0.245630 0.182402
vt 0.323268 0.451591
vt 0.342504 0.801619
vt 0.352922 0.508287
vt 0.318263 1.000000
vt 0.272062 1.000000
vt 0.438024 0.925571
vt 0.349711 1.000000
vt 0.434492 0.461754
vt 0.492764 0.332737
vt 0.337993 0.095546
vt 0.465355 0.654377
vt 0.502968 0.026721
vt 0.439142 0.000000
vt 0.503465 0.922581
vt 0.522343 0.582900
vt 0.595116 0.259096
vt 0.535263 0.408867
vt 0.558628 0.027779
vt 0.603484 0.493468
vt 0.573423 0.936326
vt 0.626773 0.847358
vt 0.675993 0.320690
vt 0.662186 0.520411
vt 0.699230 0.630168
vt 0.712897 0.000000
vt 0.666708 0.062094
vt 0.781021 0.482049
vt 0.790878 0.015776
vt 0.824032 0.638048
vt 0.785678 0.954380
vt 0.819140 0.350745
vt 0.825836 0.043307
vt 0.825980 0.936280
vt 0.939476 0.447641
vt 0.907025 0.937024
vt 0.955531 0.782439
vt 0.968553 1.000000
vt 1.000043 0.130634
vt 0.950699 0.134241
vt 0.999629 0.486877
vt 1.000000 1.000000
vt 1.000038 0.833091
vt 0.000124 0.084585
vt 0.018984 0.000000
vt 0.060478 1.000000
vt 0.100827 0.000000
vt 0.901569 0.044313
vt 0.603728 1.000000
vt 0.632044 0.000000
vt 0.666442 0.955569
vt 0.718836 0.892315
s 1
usemtl hair
f 3/1/1 2/2/2 1/3/1
f 4/4/3 3/1/1 1/3/1
f 6/5/4 8/6/4 7/7/5
f 6/5/4 5/8/6 8/6/4
f 12/9/7 10/10/8 11/11/9
f 11/11/9 14/12/10 12/9/7
f 16/13/11 15/14/12 13/15/13
f 17/16/14 13/15/13 14/12/10
f 18/17/15 15/14/12 16/13/11
f 17/16/14 16/13/11 13/15/13
f 18/18/15 17/16/14 14/12/10
f 18/18/15 19/19/16 17/16/14
f 16/13/11 20/20/17 18/17/15
f 22/21/18 20/20/17 16/13/11
f 22/21/18 16/13/11 17/16/14
f 23/22/19 21/23/20 19/19/16
f 24/24/21 23/22/19 20/25/17
f 28/26/22 23/22/19 24/27/21
f 25/28/23 26/29/24 24/30/21
f 28/26/22 27/31/25 23/22/19
f 26/29/24 29/32/26 28/33/22
f 29/34/26 27/31/25 28/26/22
f 30/35/27 26/29/24 27/31/25
f 34/36/28 26/29/24 31/37/29
f 34/36/28 32/38/30 26/29/24
f 30/35/27 33/39/31 31/37/29
f 33/39/31 34/36/28 31/37/29
f 32/40/30 35/41/32 30/35/27
f 35/41/32 33/39/31 30/35/27
f 33/39/31 36/42/33 34/36/28
f 37/43/34 33/39/31 35/41/32
f 39/44/35 37/43/34 35/41/32
f 36/42/33 40/45/36 38/46/37
f 39/44/35 36/42/33 37/43/34
f 41/47/38 36/42/33 39/44/35
f 36/42/33 43/48/39 40/45/36
f 45/49/40 41/47/38 43/50/39
f 21/23/20 23/22/19 27/31/25 25/28/23
f 42/51/41 44/52/42 43/48/39
f 42/51/41 41/47/38 45/49/40
f 44/53/42 45/49/40 43/50/39
f 47/54/43 42/51/41 45/49/40
f 46/55/44 45/49/40 44/53/42
f 48/56/45 47/54/43 45/49/40
f 48/56/45 45/49/40 46/55/44
f 49/57/46 48/56/45 46/55/44
f 47/54/43 51/58/47 49/59/46
f 52/60/48 47/54/43 48/56/45
f 51/61/47 50/62/49 49/57/46
f 12/9/7 9/63/50 10/10/8
f 9/63/50 15/14/12 11/64/9
f 13/15/13 15/14/12 9/63/50
f 12/9/7 13/15/13 9/63/50
f 11/11/9 15/65/12 14/12/10
f 14/12/10 13/15/13 12/9/7
f 15/14/12 18/17/15 14/66/10
f 18/18/15 20/25/17 19/19/16
f 21/23/20 22/21/18 17/16/14
f 19/19/16 21/23/20 17/16/14
f 20/25/17 23/22/19 19/19/16
f 20/20/17 22/21/18 24/30/21
f 21/23/20 24/30/21 22/21/18
f 21/23/20 25/28/23 24/30/21
f 24/30/21 26/29/24 28/33/22
f 46/67/44 44/52/42 42/51/41 49/59/46
f 27/31/25 26/29/24 25/28/23
f 29/34/26 30/35/27 27/31/25
f 30/35/27 31/37/29 26/29/24
f 26/29/24 32/38/30 29/32/26
f 29/34/26 32/40/30 30/35/27
f 34/68/28 35/41/32 32/40/30
f 34/36/28 38/46/37 35/69/32
f 34/36/28 36/42/33 38/46/37
f 33/39/31 37/43/34 36/42/33
f 38/70/37 39/44/35 35/41/32
f 38/70/37 40/71/36 39/44/35
f 36/42/33 41/47/38 42/51/41
f 40/71/36 41/47/38 39/44/35
f 36/42/33 42/51/41 43/48/39
f 43/50/39 41/47/38 40/71/36
f 42/51/41 47/54/43 49/59/46
f 49/57/46 50/62/49 48/56/45
f 50/62/49 52/60/48 48/56/45
f 47/54/43 52/60/48 51/58/47
o Cube.003
v -0.293584 -0.628759 0.318385
v -0.669006 1.514372 -0.668470
v 0.668470 1.514372 -0.669006
v -0.816089 0.431603 0.684119
v -0.614958 0.431080 -0.876088
v 0.760089 0.431156 0.760089
v -0.327543 -0.707718 0.060439
v -0.656823 0.902180 0.899978
v -0.669005 1.514373 0.668470
v -0.661995 -0.086475 -0.554573
v -0.318386 -0.628758 -0.293585
v -0.013434 -0.669107 -0.380175
v -0.126762 1.818480 -0.665693
v 0.503008 1.807776 -0.466747
v 0.554573 -0.086475 -0.661995
v 0.287654 -0.638458 -0.311024
v 0.377664 -0.671619 -0.012908
v 0.699213 1.781378 -0.000000
v 0.452838 1.852496 0.435529
v 0.612689 -0.095534 0.612689
v 0.311024 -0.638458 0.287654
v 0.060533 -0.709785 0.325393
v 0.031014 1.800798 0.678697
v -0.466749 1.807774 0.503009
v -0.554572 -0.086479 0.661992
v -0.899978 0.902181 -0.656823
v 0.692837 0.709424 -0.884953
v 0.668470 1.514372 0.669006
v 0.899978 0.902181 0.656823
v 0.323512 0.207581 0.934280
v -0.337080 0.241292 0.956055
v 0.952337 0.616849 -0.552184
v 1.046014 0.438006 -0.086252
v 1.009362 0.476671 0.312095
v -0.086252 0.438006 -1.046014
v 0.312095 0.476671 -1.009362
v -0.956054 0.241290 -0.337082
v -0.948793 1.049416 0.551366
v -1.009361 0.476671 0.312095
v -0.861942 1.629779 0.098370
v -1.095481 0.874652 -0.037064
v -0.901762 1.428028 -0.409578
v -0.551366 1.049415 -0.948793
v 0.000000 1.077636 -1.066668
v -0.187693 1.522859 -0.904966
v 0.409577 1.428028 -0.901763
v 0.934598 1.424964 -0.337633
v 1.066668 1.077636 -0.000000
v 0.901762 1.428028 0.409577
v 0.551366 1.049416 0.948793
v 0.114682 0.841498 1.086811
v 0.187693 1.522860 0.904966
v -0.252971 0.840549 1.061062
v -0.409578 1.428028 0.901762
v -0.055936 -0.919545 0.000000
v 0.043256 -0.922739 0.000000
v 0.125025 2.004586 -0.223216
v -0.550263 1.855510 -0.269860
v -0.207975 1.994267 0.218335
v -0.016953 -0.408428 0.630833
v 0.772960 -0.108628 -0.341738
v 0.803856 -0.115182 0.206807
v -0.341738 -0.108628 -0.772960
v 0.206807 -0.115182 -0.803856
v -0.772959 -0.108629 0.341737
v -0.646401 -0.360040 -0.135115
vn -0.7481 -0.2242 0.6246
vn -0.8791 0.1650 0.4472
vn -0.9482 -0.2097 0.2388
vn -0.9980 0.0527 -0.0349
vn -0.8509 0.4129 -0.3248
vn -0.8315 0.0410 -0.5540
vn -0.6446 0.4966 0.5812
vn -0.5743 0.0485 0.8172
vn -0.4164 0.8007 0.4307
vn -0.7953 0.5980 0.0996
vn -0.4751 0.8515 -0.2219
vn -0.5820 0.5201 -0.6251
vn -0.5499 -0.2182 -0.8062
vn -0.9093 -0.3115 -0.2758
vn -0.0884 -0.2074 -0.9743
vn 0.0184 0.1423 -0.9897
vn 0.2674 -0.1901 -0.9447
vn 0.3366 0.4153 -0.8451
vn 0.6013 -0.0425 -0.7979
vn -0.4559 0.1445 -0.8782
vn -0.0990 0.8027 -0.5881
vn -0.1590 0.4948 -0.8543
vn 0.4309 0.8026 -0.4124
vn 0.6336 0.4706 -0.6141
vn 0.8682 0.4015 -0.2917
vn 0.9894 0.1453 0.0063
vn 0.8823 -0.1011 -0.4597
vn 0.9736 -0.2139 -0.0799
vn 0.9421 -0.1913 0.2753
vn 0.8470 0.4258 0.3183
vn 0.8350 0.0629 0.5467
vn 0.6846 -0.2276 0.6925
vn 0.3865 0.8483 0.3619
vn 0.5840 0.5130 0.6291
vn 0.4625 0.1432 0.8750
vn 0.2568 -0.3371 0.9058
vn -0.1963 0.0337 0.9800
vn -0.3111 0.4217 0.8517
vn 0.1545 0.4888 0.8586
vn -0.2705 -0.3202 0.9079
vn 0.1043 0.0186 0.9944
vn -0.0112 -0.7373 -0.6755
vn 0.2201 -0.9755 -0.0058
vn -0.2612 -0.9653 -0.0000
vn 0.0885 -0.7649 0.6380
vn -0.5022 -0.7298 -0.4638
vn -0.4586 -0.7223 0.5177
vn -0.6595 -0.7469 0.0848
vn 0.1073 0.9804 -0.1653
vn 0.6341 0.7733 0.0069
vn -0.1715 0.9711 0.1658
vn 0.0209 0.7910 0.6115
vn 0.6061 -0.5175 0.6040
vn -0.0009 -0.6161 0.7876
vn -0.5360 -0.5050 0.6765
vn 0.4729 -0.7212 -0.5063
vn 0.8075 -0.4931 -0.3237
vn 0.6874 -0.7263 -0.0070
vn 0.8448 -0.5032 0.1820
vn -0.2971 -0.5080 -0.8085
vn 0.1787 -0.5015 -0.8465
vn -0.6746 -0.4945 -0.5480
vn -0.8180 -0.4968 0.2899
vn -0.7875 -0.6032 -0.1266
vn 0.5140 -0.7056 0.4878
vn 0.5500 -0.4728 -0.6884
vt 0.435908 0.117883
vt 0.549842 0.144630
vt 0.454789 0.175688
vt 0.520136 0.219466
vt 0.619841 0.265181
vt 0.523517 0.300339
vt 0.640162 0.111518
vt 0.527638 0.105492
vt 0.714580 0.149626
vt 0.667894 0.197512
vt 0.714580 0.278004
vt 0.651829 0.323542
vt 0.452171 0.346698
vt 0.427924 0.259421
vt 0.457441 0.418967
vt 0.551271 0.430575
vt 0.459899 0.468587
vt 0.619992 0.481827
vt 0.494885 0.520800
vt 0.552994 0.361276
vt 0.710930 0.404433
vt 0.642801 0.402595
vt 0.714580 0.494650
vt 0.653865 0.540188
vt 0.624671 0.602612
vt 0.552765 0.646990
vt 0.483377 0.577831
vt 0.457508 0.635612
vt 0.459955 0.685233
vt 0.625064 0.698472
vt 0.523879 0.733630
vt 0.452164 0.755524
vt 0.783408 0.572419
vt 0.788999 0.711205
vt 0.653865 0.754024
vt 0.553082 0.794567
vt 0.422699 0.820555
vt 0.515096 0.890832
vt 0.619152 0.915118
vt 0.517841 0.950276
vt 0.714580 0.799562
vt 0.642792 0.835885
vt 0.714580 0.928811
vt 0.659392 0.964644
vt 0.433399 0.972074
vt 0.421963 0.909357
vt 0.515836 0.850306
vt 0.159629 0.547101
vt 0.200017 0.650142
vt 0.147100 0.647769
vt 0.182183 0.747010
vt 0.088306 0.559790
vt 0.099359 0.748005
vt 0.089175 0.660661
vt 0.825801 0.618941
vt 0.736569 0.648081
vt 0.894407 0.603714
vt 0.858253 0.678356
vt 0.837631 0.746548
vt 0.889844 0.726072
vt 0.913654 0.538783
vt 0.853155 0.550206
vt 0.913654 0.639517
vt 0.379536 0.755304
vt 0.339555 0.877148
vt 0.291731 0.954540
vt 0.278991 0.847543
vt 0.371237 0.959553
vt 0.246455 0.545408
vt 0.378173 0.590519
vt 0.257545 0.642184
vt 0.375493 0.680589
vt 0.291609 0.311439
vt 0.379080 0.373873
vt 0.288415 0.426317
vt 0.376620 0.463944
vt 0.380334 0.309615
vt 0.293810 0.119037
vt 0.374101 0.157229
vt 0.279736 0.198459
vt 0.339262 0.241318
vt 0.370498 0.105492
vt 0.279058 0.744626
vt 0.708146 0.860033
vt 0.255408 0.738001
vt 0.380116 0.526261
vt 0.283966 0.527981
s 1
usemtl Texture
f 56/72/51 90/73/52 91/74/53
f 93/75/54 94/76/55 78/77/56
f 61/78/57 90/73/52 60/79/58
f 76/80/59 92/81/60 61/78/57
f 94/76/55 110/82/61 54/83/62
f 94/76/55 54/83/62 78/77/56
f 78/77/56 57/84/63 89/85/64
f 91/74/53 93/75/54 89/85/64
f 87/86/65 96/87/66 88/88/67
f 96/87/66 98/89/68 79/90/69
f 54/83/62 95/91/70 78/77/56
f 65/92/71 97/93/72 54/83/62
f 98/89/68 66/94/73 55/95/74
f 98/89/68 55/95/74 79/90/69
f 99/96/75 100/97/76 84/98/77
f 85/99/78 100/97/76 86/100/79
f 100/97/76 101/101/80 81/102/81
f 81/102/81 58/103/82 86/100/79
f 55/95/74 99/96/75 79/90/69
f 66/104/73 99/96/75 55/95/74
f 101/101/80 71/105/83 80/106/84
f 101/101/80 80/106/84 81/102/81
f 58/103/82 102/107/85 82/108/86
f 105/109/87 106/110/88 60/111/58
f 80/106/84 102/107/85 81/102/81
f 71/112/83 104/113/89 80/106/84
f 106/110/88 76/114/59 61/115/57
f 106/110/88 61/115/57 60/111/58
f 60/111/58 56/116/51 83/117/90
f 82/108/86 103/118/91 83/117/90
f 64/119/92 108/120/93 107/121/94
f 108/120/93 74/122/95 107/121/94
f 64/119/92 107/121/94 63/123/96
f 107/121/94 74/122/95 53/124/97
f 59/125/98 107/121/94 53/124/97
f 107/121/94 59/125/98 63/123/96
f 66/104/73 109/126/99 70/127/100
f 110/128/61 111/129/101 109/126/99
f 109/126/99 71/105/83 70/127/100
f 111/129/101 75/130/102 71/105/83
f 111/129/101 76/131/59 75/130/102
f 54/132/62 110/128/61 65/133/71
f 110/128/61 92/134/60 111/129/101
f 72/135/103 82/108/86 112/136/104
f 82/108/86 83/117/90 112/136/104
f 112/136/104 53/137/97 74/138/95
f 83/117/90 77/139/105 112/136/104
f 68/140/106 113/141/107 69/142/108
f 113/141/107 114/143/109 69/142/108
f 113/141/107 85/99/78 114/143/109
f 63/144/96 115/145/110 64/146/92
f 115/145/110 116/147/111 64/146/92
f 115/145/110 87/86/65 116/147/111
f 62/148/112 57/84/63 115/145/110
f 53/149/97 117/150/113 59/151/98
f 117/150/113 89/85/64 118/152/114
f 118/152/114 63/144/96 59/151/98
f 89/85/64 62/148/112 118/152/114
f 77/153/105 56/72/51 117/150/113
f 61/78/57 92/81/60 90/73/52
f 90/73/52 93/75/54 91/74/53
f 90/73/52 92/81/60 93/75/54
f 93/75/54 92/81/60 94/76/55
f 93/75/54 78/77/56 89/85/64
f 56/72/51 60/79/58 90/73/52
f 94/76/55 92/81/60 110/82/61
f 54/83/62 97/93/72 95/91/70
f 57/84/63 95/91/70 87/86/65
f 95/91/70 96/87/66 87/86/65
f 95/91/70 97/93/72 96/87/66
f 96/87/66 97/93/72 98/89/68
f 97/93/72 65/92/71 98/89/68
f 88/88/67 96/87/66 79/90/69
f 57/84/63 78/77/56 95/91/70
f 98/89/68 65/92/71 66/94/73
f 84/98/77 100/97/76 85/99/78
f 106/110/88 105/109/87 103/118/91 104/113/89
f 100/97/76 99/96/75 101/101/80
f 99/96/75 70/127/100 101/101/80
f 86/100/79 100/97/76 81/102/81
f 79/90/69 99/96/75 84/98/77
f 66/104/73 70/127/100 99/96/75
f 101/101/80 70/127/100 71/105/83
f 80/106/84 104/113/89 102/107/85
f 82/108/86 102/107/85 103/118/91
f 102/107/85 104/113/89 103/118/91
f 112/136/104 74/138/95 73/154/115 72/135/103
f 104/113/89 75/155/102 106/110/88
f 105/109/87 60/111/58 83/117/90
f 58/103/82 81/102/81 102/107/85
f 71/112/83 75/155/102 104/113/89
f 106/110/88 75/155/102 76/114/59
f 103/118/91 105/109/87 83/117/90
f 64/119/92 68/140/106 108/120/93
f 108/120/93 68/140/106 69/142/108
f 69/142/108 73/156/115 108/120/93
f 108/120/93 73/156/115 74/122/95
f 66/104/73 65/133/71 109/126/99
f 65/133/71 110/128/61 109/126/99
f 109/126/99 111/129/101 71/105/83
f 111/129/101 92/134/60 76/131/59
f 73/156/115 69/142/108 114/143/109 72/135/103
f 112/136/104 77/139/105 53/137/97
f 72/135/103 58/103/82 82/108/86
f 83/117/90 56/116/51 77/139/105
f 84/98/77 113/141/107 67/157/116 79/90/69
f 68/140/106 67/157/116 113/141/107
f 72/135/103 114/143/109 86/100/79 58/103/82
f 113/141/107 84/98/77 85/99/78
f 85/99/78 86/100/79 114/143/109
f 68/158/106 64/146/92 116/147/111 67/157/116
f 67/157/116 116/147/111 88/88/67 79/90/69
f 63/144/96 62/148/112 115/145/110
f 115/145/110 57/84/63 87/86/65
f 87/86/65 88/88/67 116/147/111
f 59/151/98 117/150/113 118/152/114
f 118/152/114 62/148/112 63/144/96
f 53/149/97 77/153/105 117/150/113
f 117/150/113 56/72/51 91/74/53
f 117/150/113 91/74/53 89/85/64
f 89/85/64 57/84/63 62/148/112
o Cylinder.006
v 0.070257 -0.752878 -0.105617
v 0.094957 -1.047363 -0.061508
v 0.111876 -1.048028 0.009562
v 0.096532 -0.767708 0.026586
v 0.085212 -1.045255 0.066417
v 0.028924 -1.045062 0.109973
v -0.045876 -1.051191 0.094375
v -0.050924 -0.765186 0.084305
v -0.093947 -1.047627 0.050603
v -0.118306 -0.754764 -0.014987
v -0.103624 -1.045509 -0.015492
v -0.019933 -1.049430 -0.105201
v 0.039397 -0.802345 -0.068862
v 0.058923 -0.758753 0.095028
v -0.079038 -0.796481 -0.005176
v -0.020863 -0.760360 -0.101511
v 0.045100 -0.920290 -0.027654
v 0.055429 -0.929793 0.007467
v 0.024190 -0.913517 0.051287
v -0.031721 -0.912935 0.041443
v -0.045498 -0.916022 -0.014030
v -0.005112 -0.913042 -0.051707
v -0.070088 -1.048472 -0.091470
v 0.044628 -0.951752 -0.018829
v 0.011509 -0.948479 0.045802
v -0.035427 -0.954522 0.016209
v -0.017982 -0.956717 -0.033572
vn 0.5681 -0.4405 -0.6951
vn 0.6968 0.2669 -0.6658
vn 0.8636 0.4766 0.1646
vn -0.4786 -0.4929 -0.7266
vn -0.1679 0.0774 -0.9828
vn 0.4467 -0.6534 -0.6112
vn -0.9582 0.1315 -0.2541
vn -0.6744 -0.7052 0.2189
vn -0.0308 -0.8573 0.5138
vn -0.6862 0.0694 0.7241
vn -0.6321 -0.7707 0.0802
vn 0.3752 0.0469 0.9258
vn 0.0536 -0.7725 0.6327
vn 0.5267 -0.7700 0.3600
vn 0.5707 -0.8174 -0.0785
vn 0.9745 0.1752 0.1404
vn 0.7542 0.0887 -0.6507
vn -0.4475 0.4607 0.7665
vn -0.8708 -0.4847 -0.0823
vn -0.0612 -0.8802 -0.4707
vn -0.4963 -0.8302 0.2540
vn -0.9055 0.3605 -0.2238
vn -0.2509 0.3866 -0.8875
vn 0.3668 0.5206 0.7710
vn 0.6436 -0.6813 -0.3486
vn 0.5229 -0.8489 -0.0771
vn 0.2202 -0.7866 0.5769
vt 0.926721 0.928027
vt 0.910815 1.000000
vt 0.714043 0.968138
vt 0.106278 0.500000
vt 0.052636 0.718910
vt 0.011569 0.500000
vt 0.191437 0.718996
vt 0.236045 0.500000
vt 0.430064 0.500000
vt 0.370445 0.706713
vt 0.330552 0.500000
vt 0.566724 0.722351
vt 0.539473 0.500000
vt 0.638611 0.500000
vt 0.728570 0.500000
vt 0.741357 0.696081
vt 0.869639 0.709702
vt 0.990791 0.763033
vt 0.408447 0.970100
vt 0.237608 0.928530
vt 0.544047 0.276618
vt 0.607139 0.431719
vt 0.713659 0.447175
vt 0.914006 0.123390
vt 0.782446 0.081612
vt 0.904330 0.327509
vt 0.225938 1.000000
vt 0.049439 0.970761
vt 0.476506 0.203541
vt 0.367021 0.437252
vt 0.168061 0.472777
vt 0.027086 0.283597
vt 0.123327 0.056956
vt 0.370522 0.047702
vt 0.000000 1.000000
vt 0.000000 0.928027
vt 0.835423 0.500000
vt 0.584797 0.983442
vt 0.973086 0.500000
vt 0.581470 0.182150
vt 0.653477 0.404422
vt 0.654374 0.062334
vt 0.558159 0.142027
vt 0.802899 0.034097
vt 0.924453 0.370539
vt 0.967508 0.234026
s 1
usemtl red_baloon
f 131/159/117 119/160/118 122/161/119
f 141/162/120 140/163/121 130/164/122
f 139/165/123 141/162/120 129/166/124
f 125/167/125 138/168/126 127/169/127
f 137/170/128 124/171/129 123/172/130
f 121/173/131 136/174/132 123/172/130
f 131/159/117 135/175/133 140/176/121
f 135/175/133 122/161/119 136/174/132
f 126/177/134 138/168/126 137/170/128
f 138/168/126 133/178/135 139/165/123
f 137/170/128 136/174/132 122/161/119
f 129/179/124 141/180/120 130/181/122
f 123/182/130 143/183/136 142/184/137
f 126/177/134 128/185/138 133/178/135
f 128/185/138 134/186/139 133/178/135
f 122/187/119 119/188/118 134/189/139 128/190/138 126/191/134 132/192/140
f 139/165/123 129/166/124 127/169/127 138/168/126
f 134/186/139 119/193/118 131/194/117
f 141/162/120 139/165/123 140/163/121
f 138/168/126 125/167/125 124/171/129 137/170/128
f 136/174/132 121/173/131 120/195/141 135/175/133
f 123/172/130 136/174/132 137/170/128
f 134/186/139 140/163/121 139/165/123 133/178/135
f 131/159/117 122/161/119 135/175/133
f 137/170/128 122/161/119 132/196/140
f 132/196/140 126/177/134 137/170/128
f 126/177/134 133/178/135 138/168/126
f 135/175/133 120/195/141 130/197/122 140/176/121
f 134/186/139 131/194/117 140/163/121
f 142/184/137 143/183/136 144/198/142 145/199/143
f 144/198/142 143/183/136 125/200/125 127/201/127
f 124/202/129 125/200/125 143/183/136
f 145/199/143 144/198/142 129/179/124 130/181/122
f 120/203/141 121/204/131 142/184/137
f 121/204/131 123/182/130 142/184/137
f 127/201/127 129/179/124 144/198/142
f 142/184/137 145/199/143 130/181/122 120/203/141
f 123/182/130 124/202/129 143/183/136
o Torus.001
v 0.077043 -0.889847 0.013212
v 0.045611 -0.892366 -0.009811
v 0.063734 -0.903169 0.015585
v 0.037212 -0.897820 -0.027747
v 0.063713 -0.895179 -0.041126
v 0.039637 -0.882721 -0.048012
v -0.008907 -0.902041 -0.065709
v 0.012911 -0.893508 -0.071777
v 0.004362 -0.888366 -0.042602
v -0.035636 -0.884472 -0.056757
v -0.013259 -0.897346 -0.041637
v -0.036115 -0.886390 -0.026282
v -0.061247 -0.895416 -0.036596
v -0.065171 -0.902034 0.010887
v -0.042363 -0.897201 -0.005552
v -0.069421 -0.885268 0.013606
v -0.039875 -0.886397 0.027173
v -0.037652 -0.896804 0.027292
v -0.059927 -0.893939 0.044403
v -0.021934 -0.884462 0.069642
v -0.023838 -0.901770 0.066682
v 0.000648 -0.888193 0.050004
v 0.021889 -0.897211 0.077443
v 0.006641 -0.899400 0.051215
v 0.045392 -0.883281 0.053199
v 0.031729 -0.895218 0.038368
v 0.045705 -0.890653 0.065067
v 0.044543 -0.886342 0.027236
vn 0.2209 0.9174 -0.3309
vn -0.9223 0.3675 -0.1196
vn 0.2592 0.9326 0.2511
vn -0.9070 -0.3382 0.2509
vn -0.7010 0.0852 0.7081
vn 0.3283 -0.9345 0.1375
vn 0.8362 -0.1806 -0.5179
vn 0.9546 0.2449 0.1695
vn -0.1870 -0.7417 -0.6441
vn 0.1965 -0.0039 -0.9805
vn -0.1011 0.7566 0.6460
vn -0.4087 0.6036 -0.6846
vn 0.3840 0.8879 0.2535
vn -0.8501 -0.2179 -0.4794
vn 0.6142 -0.7699 0.1733
vn 0.2772 -0.7736 0.5699
vn -0.8055 0.5874 0.0788
vn -0.5834 -0.8120 0.0184
vn 0.4356 0.8687 -0.2359
vn 0.6350 -0.6681 -0.3879
vn -0.8044 -0.0764 0.5891
vn -0.2734 -0.7588 0.5911
vn 0.0599 0.7301 -0.6807
vn -0.2944 0.0729 -0.9529
vn 0.2250 -0.2829 0.9324
vn -0.2599 0.6754 0.6901
vn 0.6239 -0.0402 0.7804
vn -0.5495 -0.0323 -0.8349
vt 0.648787 0.728589
vt 0.418079 0.888433
vt 0.366970 0.683287
vt 0.549156 0.961549
vt 0.534001 0.010679
vt 0.617979 0.091372
vt 0.469421 0.289919
vt 0.599082 0.477306
vt 0.478816 0.509731
vt 0.772659 0.352320
vt 0.728143 0.483919
vt 0.743509 0.915181
vt 0.839200 0.597268
vt 0.893872 0.885968
vt 0.910463 0.474074
vt 0.944940 1.000000
vt 0.843708 1.000000
vt 0.986694 0.604162
vt 0.986258 0.406666
vt 1.000000 0.833333
vt 0.994596 0.967615
vt 1.000000 0.166667
vt 0.958804 0.084763
vt 0.028449 0.384922
vt 0.093120 0.478382
vt 0.033716 0.581096
vt 0.186360 0.361854
vt 0.083504 0.885381
vt 0.242581 0.916475
vt 0.057317 0.979549
vt 0.208270 0.000000
vt 0.263247 0.117674
vt 0.084362 0.088799
vt 0.291360 0.424673
vt 0.193902 0.600353
vt 0.347684 0.531031
vt 0.356936 1.000000
vt 0.659246 1.000000
vt 0.804863 0.085124
vt 0.742586 0.000000
vt 0.362591 0.027631
s 1
usemtl hair
f 151/205/144 173/206/145 170/207/146
f 151/205/144 147/208/147 173/206/145
f 147/209/147 149/210/148 148/211/149
f 150/212/150 151/205/144 146/213/151
f 149/210/148 152/214/152 148/211/149
f 152/214/152 150/212/150 148/211/149
f 153/215/153 151/205/144 150/212/150
f 151/205/144 154/216/154 147/208/147
f 155/217/155 151/205/144 153/215/153
f 155/217/155 157/218/156 154/216/154
f 158/219/157 155/217/155 152/214/152
f 157/218/156 160/220/158 156/221/159
f 161/222/160 157/218/156 155/217/155
f 159/223/161 161/222/160 158/219/157
f 161/222/160 162/224/162 157/218/156
f 162/224/162 163/225/163 157/218/156
f 163/226/163 159/223/161 160/227/158
f 159/228/161 164/229/164 161/230/160
f 166/231/165 164/229/164 159/228/161
f 162/232/162 167/233/166 163/234/163
f 167/235/166 169/236/167 163/237/163
f 166/231/165 168/238/168 165/239/169
f 169/236/167 166/231/165 163/237/163
f 172/240/170 170/207/146 165/239/169
f 170/207/146 167/233/166 165/239/169
f 173/206/145 171/241/171 167/233/166
f 148/211/149 166/231/165 169/236/167
f 148/211/149 168/238/168 166/231/165
f 146/213/151 172/240/170 168/238/168
f 146/213/151 151/205/144 170/207/146
f 148/211/149 150/212/150 146/213/151
f 147/208/147 154/216/154 149/242/148
f 150/212/150 152/214/152 153/215/153
f 149/210/148 156/243/159 152/214/152
f 149/210/148 154/244/154 156/243/159
f 151/205/144 155/217/155 154/216/154
f 152/214/152 155/217/155 153/215/153
f 154/216/154 157/218/156 156/221/159
f 156/243/159 159/223/161 152/214/152
f 152/214/152 159/223/161 158/219/157
f 156/243/159 160/227/158 159/223/161
f 158/219/157 161/222/160 155/217/155
f 157/218/156 163/225/163 160/220/158
f 161/230/160 165/239/169 162/232/162
f 164/229/164 165/239/169 161/230/160
f 165/239/169 167/233/166 162/232/162
f 163/237/163 166/231/165 159/228/161
f 166/231/165 165/239/169 164/229/164
f 168/238/168 172/240/170 165/239/169
f 167/235/166 171/245/171 169/236/167
f 170/207/146 173/206/145 167/233/166
f 171/245/171 148/211/149 169/236/167
f 148/211/149 146/213/151 168/238/168
f 172/240/170 146/213/151 170/207/146
f 173/206/145 147/208/147 171/241/171
f 171/245/171 147/209/147 148/211/149
