# Blender 4.3.2
# www.blender.org
mtllib ParedParaGlobos.mtl
o Cube
v 3.385799 0.011887 -0.200384
v 3.385799 0.011887 0.200384
v -3.385800 0.011887 0.200384
v -3.385798 0.011887 -0.200384
v 3.385801 4.341390 -0.200384
v 3.385797 4.341390 0.200384
v -3.385801 4.341390 0.200384
v -3.385799 4.341390 -0.200384
vn -0.0000 -1.0000 -0.0000
vn -0.0000 1.0000 -0.0000
vn 1.0000 -0.0000 -0.0000
vn -0.0000 -0.0000 1.0000
vn -1.0000 -0.0000 -0.0000
vn -0.0000 -0.0000 -1.0000
vt 0.000000 0.666667
vt 0.333333 0.666667
vt 0.333333 1.000000
vt 0.000000 1.000000
vt 0.333333 0.333333
vt 0.000000 0.666667
vt 0.000000 0.333333
vt 0.666667 0.333333
vt 0.333333 0.333333
vt 0.333333 0.000000
vt 0.666667 0.000000
vt 0.000000 0.333333
vt 0.000000 0.000000
vt 0.333333 0.000000
vt 0.333333 0.333333
vt 1.000000 0.333333
vt 0.666667 0.333333
vt 0.666667 0.000000
vt 1.000000 0.000000
vt 0.666667 0.333333
vt 0.666667 0.666667
vt 0.333333 0.666667
s 0
usemtl Material
f 1/1/1 2/2/1 3/3/1 4/4/1
f 5/5/2 8/2/2 7/6/2 6/7/2
f 1/8/3 5/9/3 6/10/3 2/11/3
f 2/12/4 6/13/4 7/14/4 3/15/4
f 3/16/5 7/17/5 8/18/5 4/19/5
f 5/5/6 1/20/6 4/21/6 8/22/6
