# Blender 4.3.2
# www.blender.org
mtllib banqueta.mtl
o Cube
v -11.440566 0.822432 -6.827890
v -11.440566 0.468617 -6.827890
v -11.440566 0.822435 7.760228
v -11.440566 0.468620 7.760228
v 11.173150 0.822432 -6.827890
v 11.173150 0.468617 -6.827890
v 11.173150 0.822435 7.760228
v 11.173150 0.468620 7.760228
vn -1.0000 -0.0000 -0.0000
vn -0.0000 -0.0000 1.0000
vn 1.0000 -0.0000 -0.0000
vn -0.0000 -0.0000 -1.0000
vn -0.0000 1.0000 -0.0000
vn -0.0000 -1.0000 -0.0000
vt 0.520914 -0.849307
vt 0.479086 1.099307
vt 0.479086 -0.849307
vt 0.511709 -0.699228
vt 0.488291 1.449228
vt 0.488291 -0.699228
vt 0.519573 -0.308211
vt 0.480427 1.558211
vt 0.480427 -0.308211
vt 0.525434 -0.133425
vt 0.474566 1.883425
vt 0.474566 -0.133425
vt 1.704720 -0.826347
vt -0.693001 1.822441
vt -0.693001 -0.826347
vt 0.875000 0.500000
vt 0.625000 0.750000
vt 0.625000 0.500000
vt 0.520914 1.099307
vt 0.511709 1.449228
vt 0.519573 1.558211
vt 0.525434 1.883425
vt 1.704720 1.822441
vt 0.875000 0.750000
s 1
usemtl Material.001
f 2/1/1 3/2/1 1/3/1
f 4/4/2 7/5/2 3/6/2
f 8/7/3 5/8/3 7/9/3
f 6/10/4 1/11/4 5/12/4
f 7/13/5 1/14/5 3/15/5
f 4/16/6 6/17/6 8/18/6
f 2/1/1 4/19/1 3/2/1
f 4/4/2 8/20/2 7/5/2
f 8/7/3 6/21/3 5/8/3
f 6/10/4 2/22/4 1/11/4
f 7/13/5 5/23/5 1/14/5
f 4/16/6 2/24/6 6/17/6
