# Blender 4.4.0
# www.blender.org
mtllib BolaBoliche.mtl
o bolaboliche.011
v -0.092563 0.059086 0.520769
v 0.085682 0.223688 0.466456
v -0.040962 -0.008915 0.530718
v -0.256661 0.208253 0.407133
v 0.018162 0.277314 0.451931
v 0.100137 0.294002 0.428655
v -0.046172 -0.245596 0.470763
v 0.104594 0.418697 0.315099
v 0.381889 0.177775 0.351980
v 0.291894 -0.010332 0.460145
v 0.167955 -0.243995 0.451828
v -0.290185 -0.122881 0.414477
v -0.391556 0.151316 0.289703
v 0.321557 0.372440 0.226048
v -0.066280 0.485504 0.193075
v 0.391140 -0.120242 0.360774
v 0.124805 -0.399174 0.337419
v -0.177604 -0.404273 0.290443
v -0.372283 0.325550 0.131673
v 0.342818 -0.356697 0.237671
v -0.380073 -0.275999 0.211324
v -0.460720 -0.056829 0.218931
v 0.483044 -0.147848 0.222124
v 0.491357 0.241822 0.047262
v 0.521934 0.071868 0.138993
v -0.048155 -0.507541 0.153583
v 0.215622 0.479409 0.043832
v -0.008175 0.514788 -0.098860
v 0.271656 -0.470686 0.058988
v -0.502735 0.051565 0.000340
v -0.244418 0.451341 -0.039460
v 0.318012 0.426380 -0.082707
v 0.545569 -0.062509 -0.065942
v 0.491183 -0.235920 0.050766
v -0.443682 -0.246870 -0.045424
v -0.421434 0.209303 -0.193582
v 0.378501 0.285833 -0.259973
v 0.404001 -0.334023 -0.150770
v -0.259465 -0.448529 0.015652
v -0.097611 0.395702 -0.329244
v 0.158659 0.422231 -0.269329
v 0.490920 0.080774 -0.214565
v 0.223249 -0.477674 -0.105563
v -0.005553 -0.523590 -0.072434
v -0.445009 -0.110492 -0.211952
v -0.300470 0.262147 -0.306021
v -0.177534 -0.449840 -0.183344
v -0.295470 -0.333120 -0.262962
v -0.336517 0.063591 -0.375813
v 0.427279 -0.187242 -0.281257
v 0.033487 -0.415043 -0.341305
v -0.175488 0.197852 -0.444371
v 0.227012 -0.367126 -0.323543
v -0.302502 -0.162021 -0.378756
v 0.354709 0.061391 -0.406901
v 0.115932 0.222606 -0.463145
v -0.108740 -0.290927 -0.416394
v 0.238926 -0.064818 -0.477527
v -0.095150 -0.006017 -0.519148
v 0.089213 -0.172054 -0.495369
v 0.150411 0.116067 0.495631
v -0.000268 -0.019550 0.290313
v 0.130790 0.089795 0.236540
v 0.036404 0.105005 0.253531
v 0.089830 0.133677 0.243352
v -0.062557 -0.056407 0.270481
v -0.060671 0.031391 0.262844
v 0.069399 0.089912 0.267291
v 0.114151 0.044960 0.267711
v 0.038481 0.169396 0.227228
v 0.144037 0.189986 0.470800
v -0.098854 -0.071240 0.506049
v -0.167263 -0.017025 0.488064
v 0.221966 0.149989 0.458611
vn -0.0289 0.6290 0.7769
vn 0.4031 0.1047 0.9091
vn 0.0557 0.3847 0.9214
vn -0.2634 -0.1648 0.9505
vn -0.5131 0.4344 0.7402
vn -0.0596 -0.0223 0.9980
vn 0.8806 0.4693 0.0653
vn 0.9505 0.1321 0.2813
vn 0.9857 -0.1030 -0.1331
vn 0.8796 -0.2419 0.4097
vn 0.8994 0.1711 -0.4022
vn 0.6689 0.5450 -0.5055
vn 0.2630 0.8054 -0.5312
vn 0.5603 0.8129 -0.1589
vn 0.7324 -0.6249 -0.2702
vn 0.4578 -0.8804 0.1237
vn 0.3587 -0.9052 -0.2281
vn -0.3743 -0.8554 -0.3580
vn -0.0433 -0.9891 -0.1407
vn -0.5495 -0.8351 0.0247
vn 0.7636 -0.3311 -0.5544
vn 0.0075 -0.7773 -0.6291
vn 0.4112 -0.6622 -0.6265
vn -0.6948 0.1120 -0.7105
vn -0.6085 -0.2866 -0.7400
vn -0.8970 -0.1788 -0.4042
vn -0.3538 0.3883 -0.8509
vn -0.6117 0.6072 -0.5070
vn 0.6283 0.1436 -0.7646
vn 0.1874 0.4288 -0.8837
vn -0.2710 -0.5312 -0.8027
vn -0.6051 -0.6291 -0.4879
vn 0.3990 -0.1192 -0.9092
vn 0.1762 0.3555 0.9179
vn -0.3635 -0.1604 0.9177
vn -0.3188 0.2685 0.9090
vn 0.2082 0.7061 0.6768
vn -0.4089 -0.0527 0.9110
vn -0.9372 0.0957 0.3355
vn 0.3456 0.4309 0.8336
vn 0.2929 -0.4251 0.8564
vn 0.4852 -0.0323 0.8738
vn 0.5679 0.7112 0.4144
vn 0.6902 0.3437 0.6367
vn -0.5981 -0.2294 0.7679
vn -0.8065 0.2793 0.5210
vn -0.1415 -0.4676 0.8725
vn 0.1814 -0.7741 0.6065
vn -0.3833 -0.7404 0.5522
vn -0.7587 -0.5271 0.3829
vn -0.9147 -0.0941 0.3931
vn -0.9930 0.1180 -0.0060
vn -0.5238 0.8453 -0.1051
vn -0.1936 0.9111 0.3638
vn -0.0424 0.9825 -0.1811
vn 0.3328 0.9386 0.0911
vn 0.6019 -0.6629 0.4452
vn -0.1025 -0.9556 0.2764
vn -0.8830 -0.4628 -0.0784
vn -0.8373 0.4253 -0.3437
vn -0.7427 0.6253 0.2395
vn -0.2373 0.7551 -0.6112
vn 0.1264 -0.3243 -0.9375
vn -0.2077 -0.0060 -0.9782
vn 0.1531 0.5127 0.8448
vn 0.1600 0.8055 0.5706
vn 0.7035 -0.2180 0.6764
vn 0.8817 -0.4662 0.0723
vn 0.1156 -0.6725 0.7310
vn -0.0025 0.9599 0.2804
vn 0.3564 -0.3627 0.8611
vn 0.9106 -0.0936 0.4025
vn 0.4007 0.8805 0.2534
vn -0.7687 0.3565 0.5310
vt 0.000000 0.000000
s 1
usemtl New_Material_5.002
f 2/1/1 71/1/2 6/1/3
f 1/1/4 4/1/5 73/1/6
f 24/1/7 25/1/8 33/1/9
f 25/1/8 23/1/10 33/1/9
f 42/1/11 37/1/12 24/1/7
f 37/1/12 41/1/13 32/1/14
f 38/1/15 29/1/16 43/1/17
f 47/1/18 44/1/19 39/1/20
f 50/1/21 42/1/11 33/1/9
f 51/1/22 53/1/23 43/1/17
f 49/1/24 54/1/25 45/1/26
f 52/1/27 49/1/24 46/1/28
f 55/1/29 56/1/30 37/1/12
f 54/1/25 57/1/31 48/1/32
f 53/1/23 58/1/33 50/1/21
f 74/1/34 71/1/2 63/1/35
f 73/1/6 72/1/36 66/1/37
f 72/1/36 3/1/38 62/1/39
f 61/1/40 1/1/4 3/1/38
f 11/1/41 10/1/42 3/1/38
f 14/1/43 6/1/3 9/1/44
f 12/1/45 4/1/5 13/1/46
f 11/1/41 7/1/47 17/1/48
f 7/1/47 12/1/45 18/1/49
f 18/1/49 12/1/45 21/1/50
f 14/1/43 9/1/44 24/1/7
f 24/1/7 9/1/44 25/1/8
f 22/1/51 13/1/46 30/1/52
f 31/1/53 15/1/54 28/1/55
f 32/1/14 27/1/56 14/1/43
f 29/1/16 20/1/57 17/1/48
f 26/1/58 18/1/49 39/1/20
f 21/1/50 22/1/51 35/1/59
f 36/1/60 30/1/52 19/1/61
f 28/1/55 40/1/62 31/1/53
f 40/1/62 36/1/60 31/1/53
f 46/1/28 49/1/24 36/1/60
f 47/1/18 51/1/22 44/1/19
f 56/1/30 52/1/27 40/1/62
f 53/1/23 50/1/21 38/1/15
f 58/1/33 56/1/30 55/1/29
f 51/1/22 60/1/63 53/1/23
f 53/1/23 60/1/63 58/1/33
f 58/1/33 60/1/63 59/1/64
f 5/1/65 6/1/3 8/1/66
f 2/1/1 5/1/65 1/1/4
f 61/1/40 3/1/38 10/1/42
f 3/1/38 72/1/36 7/1/47
f 6/1/3 71/1/2 74/1/34
f 10/1/42 74/1/34 61/1/40
f 8/1/66 6/1/3 14/1/43
f 11/1/41 16/1/67 10/1/42
f 19/1/61 4/1/5 15/1/54
f 12/1/45 13/1/46 22/1/51
f 9/1/44 10/1/42 16/1/67
f 16/1/67 11/1/41 20/1/57
f 13/1/46 4/1/5 19/1/61
f 23/1/10 9/1/44 16/1/67
f 20/1/57 11/1/41 17/1/48
f 17/1/48 7/1/47 18/1/49
f 21/1/50 12/1/45 22/1/51
f 15/1/54 8/1/66 27/1/56
f 27/1/56 8/1/66 14/1/43
f 26/1/58 17/1/48 18/1/49
f 30/1/52 13/1/46 19/1/61
f 39/1/20 18/1/49 21/1/50
f 28/1/55 27/1/56 32/1/14
f 33/1/9 23/1/10 34/1/68
f 23/1/10 20/1/57 34/1/68
f 36/1/60 19/1/61 31/1/53
f 37/1/12 32/1/14 24/1/7
f 43/1/17 29/1/16 44/1/19
f 36/1/60 45/1/26 30/1/52
f 40/1/62 28/1/55 41/1/13
f 50/1/21 33/1/9 38/1/15
f 48/1/32 35/1/59 45/1/26
f 55/1/29 37/1/12 42/1/11
f 58/1/33 59/1/64 56/1/30
f 51/1/22 47/1/18 48/1/32
f 58/1/33 55/1/29 50/1/21
f 59/1/64 52/1/27 56/1/30
f 59/1/64 57/1/31 54/1/25
f 60/1/63 51/1/22 57/1/31
f 6/1/3 74/1/34 9/1/44
f 67/1/69 3/1/38 1/1/4
f 69/1/70 61/1/40 74/1/34
f 70/1/71 6/1/3 5/1/65
f 62/1/39 66/1/37 72/1/36
f 67/1/69 62/1/39 3/1/38
f 73/1/6 66/1/37 67/1/69
f 63/1/35 71/1/2 68/1/72
f 68/1/72 61/1/40 69/1/70
f 63/1/35 69/1/70 74/1/34
f 64/1/73 70/1/71 5/1/65
f 65/1/74 64/1/73 2/1/1
f 65/1/74 6/1/3 70/1/71
f 62/1/39 67/1/69 66/1/37
f 69/1/70 63/1/35 68/1/72
f 70/1/71 64/1/73 65/1/74
f 71/1/2 2/1/1 1/1/4
f 61/1/40 71/1/2 1/1/4
f 5/1/65 4/1/5 1/1/4
f 12/1/45 7/1/47 72/1/36
f 12/1/45 72/1/36 73/1/6
f 12/1/45 73/1/6 4/1/5
f 10/1/42 9/1/44 74/1/34
f 5/1/65 15/1/54 4/1/5
f 8/1/66 15/1/54 5/1/65
f 15/1/54 31/1/53 19/1/61
f 23/1/10 25/1/8 9/1/44
f 23/1/10 16/1/67 20/1/57
f 27/1/56 28/1/55 15/1/54
f 26/1/58 29/1/16 17/1/48
f 30/1/52 35/1/59 22/1/51
f 34/1/68 20/1/57 29/1/16
f 26/1/58 44/1/19 29/1/16
f 32/1/14 41/1/13 28/1/55
f 34/1/68 29/1/16 38/1/15
f 30/1/52 45/1/26 35/1/59
f 34/1/68 38/1/15 33/1/9
f 39/1/20 44/1/19 26/1/58
f 35/1/59 48/1/32 39/1/20
f 40/1/62 46/1/28 36/1/60
f 48/1/32 47/1/18 39/1/20
f 44/1/19 51/1/22 43/1/17
f 36/1/60 49/1/24 45/1/26
f 40/1/62 52/1/27 46/1/28
f 41/1/13 56/1/30 40/1/62
f 37/1/12 56/1/30 41/1/13
f 50/1/21 55/1/29 42/1/11
f 43/1/17 53/1/23 38/1/15
f 45/1/26 54/1/25 48/1/32
f 48/1/32 57/1/31 51/1/22
f 52/1/27 59/1/64 49/1/24
f 49/1/24 59/1/64 54/1/25
f 59/1/64 60/1/63 57/1/31
f 71/1/2 61/1/40 68/1/72
f 5/1/65 2/1/1 64/1/73
f 2/1/1 6/1/3 65/1/74
f 1/1/4 73/1/6 67/1/69
f 24/1/7 32/1/14 14/1/43
f 3/1/38 7/1/47 11/1/41
f 39/1/20 21/1/50 35/1/59
f 24/1/7 33/1/9 42/1/11
