# Blender 4.4.0
# www.blender.org
mtllib Boliche.mtl
o bolaboliche
v 8.785383 1.209599 2.677541
v 8.785383 1.209597 -6.322455
v -8.914609 1.209599 2.677541
v -8.914609 1.209597 -6.322455
v -1.410215 1.378586 1.321306
v -2.020183 1.413574 1.309783
v -1.523077 1.358937 1.388563
v -2.101275 1.329736 1.316657
v -1.487883 1.300674 1.685231
v -2.011135 1.388078 -1.197621
v -1.409118 1.338756 -1.054555
v -1.531988 1.230775 1.197532
v -1.504940 1.194425 1.328955
v -1.477571 1.293485 -1.512648
v -8.180149 1.603402 -0.802155
v -7.768528 1.611272 -0.814159
v -8.252233 2.020994 -0.737992
v -7.998612 2.015631 -0.267394
v -8.034585 2.026736 -0.241346
v -8.040353 2.031048 -0.237776
v -8.054213 2.036130 -0.203672
v -8.068941 2.038104 -0.339542
v -8.002455 2.038538 -0.120484
v -8.069487 2.031370 -0.129010
v -8.097445 2.036984 -0.116018
v -8.047101 2.033148 -0.159348
v -8.051105 2.032028 -0.132034
v -8.075072 2.030908 -0.171290
v -7.964671 2.039419 0.836720
v -7.748794 1.624337 0.915490
v -7.717124 1.610217 1.158676
v -7.992882 2.949831 1.127849
v -8.389373 2.918940 1.130534
v -1.423233 1.357816 1.220693
v -1.456799 1.218912 -1.099585
v -1.540033 1.187050 -1.141518
v -1.461598 1.215305 1.264787
v -1.462634 1.260356 1.381318
v -8.020532 2.034956 -0.228209
v -8.030048 2.036928 -0.167832
v -7.956575 2.045989 -0.757892
v -8.102290 2.037735 -0.361991
v -8.102051 2.036788 -0.183540
v -8.027488 2.031682 -0.357287
v -7.973685 2.034706 -0.008599
v -7.997221 2.041464 0.089597
v -8.094646 2.040066 0.085022
v -7.996113 2.029242 -0.051100
v -8.059295 2.036508 -0.094738
v -8.081835 2.039126 -0.042205
v -7.628943 1.502737 1.182910
v -8.181613 1.625731 0.806003
v -8.184528 1.611963 0.704232
v -8.265363 2.031932 0.828462
v -8.386284 2.926616 -1.030334
v -7.954350 2.061039 1.132298
v -7.992520 2.938565 -1.051660
v -8.363040 1.919150 1.128772
v -8.267515 1.539527 1.131120
v -7.861481 1.960166 0.879218
v -7.964195 2.069595 -1.045041
v -8.369546 1.931185 -1.042571
v -6.870675 1.455054 1.255433
v -8.173931 1.585701 0.879282
v -8.070159 1.659521 0.764779
v -7.368644 1.641862 0.851451
v -7.694559 1.598032 0.888925
v -6.619515 1.542974 0.955816
v -6.382346 1.570373 0.847540
v -8.268286 1.535330 -1.044816
v -8.172650 1.494231 0.750847
v -7.501148 1.476778 0.941806
v -7.949728 1.619749 0.864176
v -8.171787 1.538826 0.695149
v -8.157073 1.546091 -0.613075
v -6.571313 1.404363 0.918576
v -7.064735 1.574218 1.237520
v -4.372836 1.447240 1.393721
v -7.131215 1.495268 0.773771
v -8.195926 1.501732 -0.695719
v -5.460189 1.381615 0.877836
v -5.424443 1.367712 1.080233
v -7.856416 1.943436 -0.796056
v -6.263194 1.400905 1.104041
v -3.779731 1.501737 1.140345
v -7.216904 1.500029 -0.665354
v -7.866287 1.956541 -1.037832
v -4.965309 1.516684 1.410007
v -7.720270 1.615955 -1.061434
v -7.520673 1.456488 -0.735424
v -5.795353 1.398977 1.068202
v -8.048486 1.639653 -0.633162
v -8.189792 1.635218 -0.669597
v -7.503309 1.645341 -0.767668
v -5.793891 1.418040 -0.782855
v -4.671511 1.375101 0.965718
v -2.975024 1.377155 1.236056
v -6.172117 1.570321 -0.781147
v -7.683464 1.608518 -1.064389
v -7.143822 1.454173 -0.845735
v -5.442189 1.381746 1.355735
v -1.563819 1.365193 1.687510
v -3.338959 1.478876 1.077963
v -4.558158 1.374654 -0.857830
v -4.622604 1.338183 -0.825638
v -5.439826 1.356142 1.115270
v -6.063433 1.556177 -1.203310
v -7.682009 1.495255 -1.070607
v -4.375710 1.312103 1.191744
v -2.816132 1.378767 1.500906
v -1.394945 1.314944 1.247662
v -7.037463 1.462556 -1.131620
v -6.702207 1.452105 -0.906979
v -5.758435 1.364867 -0.902733
v -3.447832 1.257226 1.165494
v -1.507136 1.223729 1.701468
v -1.556695 1.194162 1.114999
v -6.979895 1.437283 -1.003349
v -3.697925 1.482144 1.463712
v -2.922267 1.456341 1.567602
v -2.764197 1.367726 1.584984
v -1.969946 1.359590 1.657130
v -5.431670 1.488163 -0.934342
v -5.927271 1.394672 -0.995777
v -3.205356 1.258910 -1.045860
v -4.860233 1.347977 -0.999297
v -4.267411 1.317258 -1.054739
v -4.303869 1.321889 -1.314796
v -2.919475 1.457915 -1.418226
v -2.908042 1.381203 -1.355386
v -2.791205 1.371741 -1.424394
v -2.129955 1.433885 -1.126693
v -3.008692 1.469994 -0.986469
v -1.467247 1.244660 -1.217356
v -1.393923 1.376789 -1.143099
v -1.480132 1.324387 -1.222150
v -3.132778 1.285685 -1.415302
v -4.333211 1.341056 1.466590
v -1.533933 1.229922 -1.031424
v -5.252664 1.563229 -0.929605
v -5.146773 1.336279 -1.055892
v -4.255642 1.514489 -1.307976
v -1.596838 1.379097 -1.208507
v -1.961372 1.367151 -1.494905
v -1.563529 1.359500 -1.519150
v -1.502440 1.225501 -1.522822
v -1.544099 1.196503 -0.987684
v -5.603299 1.373393 -0.988461
v -4.975006 1.377944 -1.294879
v -2.129334 1.333578 -1.152548
v -2.912142 1.271183 1.572052
v -2.944031 1.255308 1.275345
v -4.976800 1.476768 -1.234895
v -5.649492 1.395045 -1.222338
v -1.410215 1.378586 -2.053042
v -2.020182 1.413574 -2.064565
v -1.523077 1.358937 -1.985786
v -2.101275 1.329736 -2.057691
v -1.487883 1.300674 -1.689118
v -2.011136 1.388078 -4.571969
v -1.409118 1.338756 -4.428904
v -1.531988 1.230775 -2.176816
v -1.504940 1.194425 -2.045393
v -1.477571 1.293485 -4.886996
v -8.180149 1.603402 -4.176504
v -7.768529 1.611272 -4.188508
v -8.252233 2.020994 -4.112340
v -7.998612 2.015631 -3.641741
v -8.034585 2.026736 -3.615694
v -8.040353 2.031048 -3.612124
v -8.054213 2.036130 -3.578020
v -8.068941 2.038104 -3.713890
v -8.002455 2.038538 -3.494832
v -8.069487 2.031370 -3.503358
v -8.097445 2.036984 -3.490366
v -8.047101 2.033148 -3.533696
v -8.051105 2.032028 -3.506382
v -8.075072 2.030908 -3.545638
v -7.964671 2.039419 -2.537627
v -7.748793 1.624336 -2.458858
v -7.717124 1.610217 -2.215672
v -7.992882 2.949831 -2.246499
v -8.389374 2.918940 -2.243814
v -1.423233 1.357816 -2.153656
v -1.456799 1.218912 -4.473933
v -1.540033 1.187050 -4.515867
v -1.461598 1.215305 -2.109561
v -1.462633 1.260356 -1.993031
v -8.020532 2.034957 -3.602558
v -8.030048 2.036928 -3.542180
v -7.956575 2.045989 -4.132240
v -8.102290 2.037735 -3.736340
v -8.102051 2.036788 -3.557888
v -8.027488 2.031681 -3.731635
v -7.973686 2.034706 -3.382947
v -7.997221 2.041464 -3.284751
v -8.094646 2.040066 -3.289325
v -7.996113 2.029242 -3.425448
v -8.059295 2.036508 -3.469086
v -8.081835 2.039126 -3.416553
v -7.628940 1.502737 -2.191438
v -8.181613 1.625731 -2.568346
v -8.184528 1.611962 -2.670116
v -8.265363 2.031932 -2.545886
v -8.386284 2.926616 -4.404682
v -7.954350 2.061039 -2.242050
v -7.992520 2.938565 -4.426008
v -8.363040 1.919151 -2.245576
v -8.267515 1.539527 -2.243229
v -7.861482 1.960166 -2.495131
v -7.964195 2.069595 -4.419389
v -8.369546 1.931184 -4.416919
v -6.870674 1.455054 -2.118916
v -8.173931 1.585701 -2.495066
v -8.070159 1.659522 -2.609569
v -7.368650 1.641862 -2.522897
v -7.694559 1.598032 -2.485423
v -6.619520 1.542974 -2.418534
v -6.382334 1.570373 -2.526807
v -8.268286 1.535330 -4.419164
v -8.172650 1.494231 -2.623501
v -7.501146 1.476778 -2.432542
v -7.949727 1.619749 -2.510173
v -8.171787 1.538826 -2.679199
v -8.157073 1.546092 -3.987423
v -6.571307 1.404362 -2.455772
v -7.064736 1.574218 -2.136829
v -4.372846 1.447241 -1.980628
v -7.131212 1.495267 -2.600577
v -8.195926 1.501732 -4.070068
v -5.460182 1.381615 -2.496511
v -5.424445 1.367713 -2.294115
v -7.856415 1.943436 -4.170404
v -6.263193 1.400905 -2.270308
v -3.779739 1.501737 -2.234004
v -7.216909 1.500029 -4.039702
v -7.866288 1.956543 -4.412180
v -4.965316 1.516685 -1.964342
v -7.720270 1.615955 -4.435782
v -7.520673 1.456488 -4.109772
v -5.795350 1.398977 -2.306146
v -8.048486 1.639653 -4.007510
v -8.189792 1.635218 -4.043946
v -7.503311 1.645341 -4.142016
v -5.793893 1.418040 -4.157204
v -4.671524 1.375102 -2.408631
v -2.975028 1.377155 -2.138293
v -6.172116 1.570320 -4.155496
v -7.683464 1.608518 -4.438737
v -7.143822 1.454173 -4.220083
v -5.442190 1.381746 -2.018613
v -1.563819 1.365194 -1.686838
v -3.338964 1.478877 -2.296386
v -4.558156 1.374654 -4.232179
v -4.622605 1.338183 -4.199986
v -5.439825 1.356142 -2.259079
v -6.063436 1.556177 -4.577658
v -7.682009 1.495254 -4.444955
v -4.375709 1.312103 -2.182605
v -2.816131 1.378767 -1.873442
v -1.394945 1.314944 -2.126687
v -7.037463 1.462556 -4.505969
v -6.702208 1.452105 -4.281328
v -5.758439 1.364867 -4.277082
v -3.447828 1.257225 -2.208854
v -1.507136 1.223729 -1.672880
v -1.556695 1.194162 -2.259349
v -6.979894 1.437283 -4.377697
v -3.697929 1.482145 -1.910636
v -2.922267 1.456341 -1.806746
v -2.764196 1.367726 -1.789364
v -1.969946 1.359590 -1.717218
v -5.431673 1.488163 -4.308690
v -5.927270 1.394672 -4.370125
v -3.205356 1.258910 -4.420208
v -4.860234 1.347977 -4.373645
v -4.267411 1.317258 -4.429087
v -4.303869 1.321889 -4.689144
v -2.919475 1.457915 -4.792574
v -2.908042 1.381203 -4.729734
v -2.791205 1.371741 -4.798742
v -2.129953 1.433884 -4.501041
v -3.008689 1.469994 -4.360817
v -1.467247 1.244660 -4.591705
v -1.393923 1.376789 -4.517447
v -1.480132 1.324387 -4.596498
v -3.132779 1.285685 -4.789650
v -4.333212 1.341056 -1.907758
v -1.533933 1.229922 -4.405772
v -5.252662 1.563229 -4.303953
v -5.146773 1.336279 -4.430241
v -4.255641 1.514489 -4.682324
v -1.596838 1.379097 -4.582855
v -1.961372 1.367151 -4.869253
v -1.563529 1.359500 -4.893498
v -1.502440 1.225501 -4.897171
v -1.544099 1.196503 -4.362032
v -5.603299 1.373393 -4.362810
v -4.975007 1.377944 -4.669227
v -2.129333 1.333578 -4.526896
v -2.912142 1.271183 -1.802297
v -2.944031 1.255308 -2.099003
v -4.976801 1.476768 -4.609243
v -5.649492 1.395045 -4.596686
vn -0.0000 1.0000 -0.0000
vn 0.0158 -0.9998 0.0104
vn -0.1847 -0.9768 -0.1088
vn -0.1622 -0.9810 0.1068
vn -0.0843 -0.9905 0.1083
vn 0.6621 -0.5420 -0.5176
vn -0.1401 -0.9898 -0.0267
vn 0.6448 -0.7274 -0.2350
vn 0.0740 -0.9972 -0.0085
vn 0.1428 -0.9679 0.2068
vn 0.2337 0.5586 0.7959
vn -0.5363 -0.5887 0.6048
vn -0.1203 -0.6286 0.7683
vn -0.7266 -0.0986 0.6800
vn 0.5995 0.2025 0.7743
vn -0.6034 0.5449 0.5822
vn 0.5445 0.6130 0.5724
vn 0.5450 0.5924 -0.5934
vn -0.7284 -0.0971 -0.6783
vn 0.7677 0.4219 -0.4823
vn 0.7728 -0.3942 -0.4974
vn 0.6378 0.7571 0.1413
vn 0.8057 0.4603 -0.3729
vn 0.0319 0.9738 0.2253
vn 0.0817 0.5705 -0.8172
vn -0.0552 0.9877 -0.1465
vn 0.7995 -0.6004 -0.0168
vn 0.5715 0.2257 -0.7890
vn -0.6051 0.5676 -0.5583
vn -0.0373 0.6593 0.7510
vn -0.1026 -0.6713 0.7341
vn 0.5032 0.7202 -0.4776
vn 0.7730 0.6178 0.1443
vn 0.1067 0.9392 0.3263
vn -0.1706 -0.9834 0.0623
vn 0.0034 0.8875 0.4608
vn -0.0072 0.8404 0.5419
vn 0.5578 0.6475 -0.5193
vn 0.0854 0.7555 -0.6495
vn 0.0597 -0.9978 0.0298
vn 0.0979 -0.9948 0.0281
vn -0.2249 -0.9740 0.0283
vn -0.5319 -0.5918 -0.6057
vn -0.0504 -0.9987 0.0112
vn -0.0686 -0.9907 0.1175
vn 0.6725 -0.5352 0.5112
vn 0.4587 0.7627 0.4558
vn -0.0171 0.7869 0.6169
vn 0.0853 0.8003 0.5934
vn -0.2363 -0.9715 -0.0186
vn -0.0382 -0.9900 -0.1356
vn -0.0106 0.9097 0.4151
vn 0.0550 0.8914 -0.4499
vn 0.4985 0.6699 0.5501
vn 0.7115 0.3199 0.6256
vn 0.8383 0.1999 0.5072
vn -0.0908 -0.6621 -0.7439
vn -0.0326 -0.9464 0.3214
vn 0.0836 0.7324 -0.6757
vn 0.3413 0.9397 0.0226
vn -0.2500 0.7866 0.5645
vn -0.1531 0.9673 0.2023
vn 0.0753 0.7597 0.6458
vn 0.0841 0.6734 0.7345
vn -0.0167 0.7644 0.6446
vn 0.7002 0.6377 0.3209
vn 0.0875 0.7263 -0.6818
vn 0.3303 0.5075 -0.7958
vn -0.0763 -0.9610 0.2657
vn -0.0781 -0.9282 0.3638
vn -0.0721 -0.9911 -0.1118
vn -0.0067 0.7906 -0.6123
vn 0.0315 0.9796 -0.1982
vn -0.0654 -0.9891 -0.1321
vn 0.6561 0.6005 -0.4570
vn 0.0674 0.6727 0.7369
vn 0.9316 -0.2235 0.2866
vn 0.3860 0.8642 0.3227
vn 0.9329 -0.1706 -0.3171
vn -0.0494 -0.9986 -0.0173
vn -0.1136 0.6775 0.7267
vn 0.3609 -0.9278 0.0948
vn 0.4490 -0.5793 0.6802
vn 0.0698 0.7492 0.6586
vn -0.0719 -0.9968 -0.0349
vn -0.1177 -0.6284 -0.7689
vn 0.1310 0.9089 0.3958
vn 0.0654 0.8364 -0.5443
vn -0.0072 0.8444 -0.5357
vn -0.0693 -0.9917 -0.1084
vn -0.0593 -0.9885 -0.1388
vn -0.0663 -0.6127 -0.7875
vn -0.0688 -0.6535 -0.7538
vn -0.0797 -0.9273 -0.3657
vn -0.0683 0.8939 -0.4430
vn 0.1490 0.9723 -0.1802
vn -0.1988 0.8976 -0.3933
vn 0.8105 0.5645 -0.1564
vn -0.0843 0.6718 -0.7359
vn 0.2256 0.7014 -0.6762
vn 0.4350 -0.8997 -0.0357
vn 0.4780 0.4363 0.7623
vn 0.4301 -0.6143 -0.6616
vn 0.7915 0.2474 -0.5589
vn 0.8560 -0.4797 -0.1927
vn 0.6817 0.5501 -0.4825
vn 0.0535 0.7323 -0.6789
vn 0.2561 0.9138 -0.3154
vn -0.0412 -0.9991 0.0087
vn 0.2005 -0.9784 -0.0495
vn 0.5571 -0.8245 0.0992
vn -0.0402 -0.9965 0.0728
vn -0.0903 -0.6819 0.7259
vn -0.0484 -0.9896 0.1358
vn -0.0354 -0.9962 -0.0795
vn -0.0843 -0.6461 0.7586
vn 0.0637 0.8549 0.5148
vn -0.0015 0.8990 -0.4379
vn 0.0177 0.7198 -0.6939
vn -0.0621 -0.9567 -0.2842
vn -0.0476 -0.9908 -0.1267
vn -0.0448 -0.9984 0.0342
vn 0.1597 0.9157 0.3687
vn 0.0444 0.9691 0.2427
vn 0.4761 0.4629 -0.7477
vn -0.0518 -0.9955 0.0797
vn -0.0533 -0.9978 -0.0388
vn -0.2172 0.7896 -0.5739
vn 0.7109 0.2550 0.6554
vn 0.0682 0.8358 0.5448
vn -0.0600 -0.9979 -0.0238
vn -0.0390 -0.9714 -0.2340
vn 0.7039 -0.6889 0.1727
vn 0.6824 -0.7059 -0.1900
vn 0.1416 -0.9883 0.0568
vn 0.4012 -0.7428 -0.5360
vn -0.5258 -0.8435 0.1098
vn 0.2170 -0.9762 -0.0023
vn 0.4662 0.7680 -0.4392
vn -0.0710 0.9211 0.3828
vn 0.8112 0.5827 0.0495
vn -0.0014 -0.9955 0.0946
vn 0.7105 0.4546 -0.5372
vn 0.4870 0.5203 -0.7016
vn 0.2376 0.7248 0.6467
vn 0.7794 0.2976 0.5513
vn -0.0450 -0.9943 0.0966
vn 0.7140 -0.5184 0.4706
vn -0.1352 -0.7722 0.6208
vn -0.1848 -0.9767 -0.1088
vn 0.7677 0.4219 -0.4824
vn -0.0553 0.9877 -0.1465
vn 0.7995 -0.6005 -0.0168
vn -0.0373 0.6592 0.7510
vn 0.8383 0.2000 0.5072
vn 0.6561 0.6005 -0.4571
vn 0.7915 0.2474 -0.5588
vn 0.4013 -0.7428 -0.5360
vn 0.2168 -0.9762 -0.0023
vn -0.0710 0.9211 0.3829
vt 1.880379 -1.155407
vt -0.880379 -1.155407
vt 1.880379 2.325172
vt -0.880379 2.325172
vt 0.858365 0.572321
vt 0.864333 0.572613
vt 0.861082 0.574127
vt 0.859432 0.593301
vt 0.850106 0.667896
vt 0.858945 0.587552
vt 0.985184 0.530069
vt 0.983696 0.530652
vt 0.985533 0.528048
vt 0.113296 0.065618
vt 0.120425 0.017425
vt 0.121756 0.070090
vt 0.083209 0.007682
vt 0.076832 0.038812
vt 0.006126 0.003335
vt 0.001615 0.034142
vt 0.957350 0.553349
vt 0.887011 0.736797
vt 0.885861 0.582562
vt 0.080567 0.598549
vt 0.078409 0.781551
vt 0.002903 0.782495
vt 0.991049 0.916361
vt 0.988262 0.920318
vt 0.986829 0.915933
vt 0.958397 0.003474
vt 0.962366 0.036486
vt 0.952834 0.013835
vt 0.914316 0.749852
vt 0.914156 0.755622
vt 0.889650 0.746353
vt 0.261781 0.070082
vt 0.255421 0.051136
vt 0.257961 0.011670
vt 0.958857 0.650330
vt 0.951551 0.737022
vt 0.958199 0.578026
vt 0.001918 0.598929
vt 0.115189 0.119349
vt 0.123746 0.121122
vt 0.737254 0.933645
vt 0.759800 0.930704
vt 0.725622 0.942261
vt 0.725483 0.966959
vt 0.915174 0.864919
vt 0.270526 0.046685
vt 0.270778 0.039545
vt 0.288011 0.044918
vt 0.344437 0.850092
vt 0.342200 0.857765
vt 0.343626 0.839938
vt 0.263321 0.159473
vt 0.260139 0.379944
vt 0.262882 0.139361
vt 0.338720 0.002047
vt 0.342871 0.002147
vt 0.339677 0.142528
vt 0.921580 0.758595
vt 0.860943 0.599592
vt 0.859961 0.610411
vt 0.693709 0.062222
vt 0.663568 0.006881
vt 0.846753 0.011974
vt 0.684797 0.104430
vt 0.679298 0.136927
vt 0.682072 0.087685
vt 0.347411 0.154344
vt 0.886814 0.875402
vt 0.920115 0.843759
vt 0.931214 0.420555
vt 0.926117 0.354307
vt 0.930072 0.119054
vt 0.498908 0.002953
vt 0.398379 0.076201
vt 0.390827 0.005485
vt 0.824619 0.020652
vt 0.689506 0.228403
vt 0.291525 0.271351
vt 0.285321 0.330974
vt 0.291199 0.099085
vt 0.981731 0.122206
vt 0.949071 0.116144
vt 0.960390 0.089755
vt 0.845929 0.059572
vt 0.822559 0.065808
vt 0.338449 0.290318
vt 0.949897 0.126647
vt 0.932384 0.493797
vt 0.925643 0.498696
vt 0.559776 0.208386
vt 0.549888 0.137829
vt 0.558609 0.052675
vt 0.166639 0.009002
vt 0.246083 0.001330
vt 0.248504 0.031940
vt 0.551331 0.011551
vt 0.259392 0.580346
vt 0.255007 0.414067
vt 0.265550 0.532465
vt 0.175517 0.040503
vt 0.132206 0.019020
vt 0.138258 0.062376
vt 0.129017 0.067935
vt 0.645489 0.225108
vt 0.660385 0.213582
vt 0.660417 0.226113
vt 0.936190 0.207876
vt 0.936787 0.016225
vt 0.939613 0.049295
vt 0.848907 0.071035
vt 0.830203 0.091928
vt 0.284351 0.462582
vt 0.263145 0.450559
vt 0.290814 0.469505
vt 0.265542 0.523990
vt 0.373303 0.997510
vt 0.368611 0.994457
vt 0.373660 0.991629
vt 0.961084 0.135430
vt 0.954111 0.144033
vt 0.956318 0.132795
vt 0.121990 0.687575
vt 0.117043 0.613103
vt 0.122094 0.599936
vt 0.291143 0.537220
vt 0.950355 0.145582
vt 0.957958 0.168270
vt 0.559319 0.314934
vt 0.843593 0.110593
vt 0.850280 0.108934
vt 0.290543 0.456269
vt 0.287653 0.389962
vt 0.941819 0.216721
vt 0.325432 0.062815
vt 0.330994 0.229004
vt 0.323843 0.253604
vt 0.874051 0.678345
vt 0.879177 0.738296
vt 0.870558 0.762387
vt 0.112993 0.745721
vt 0.113944 0.804707
vt 0.109063 0.789581
vt 0.619749 0.767025
vt 0.621991 0.709712
vt 0.622860 0.797622
vt 0.325293 0.519320
vt 0.320699 0.565402
vt 0.319510 0.530601
vt 0.328094 0.580392
vt 0.297052 0.537523
vt 0.297040 0.570323
vt 0.237292 0.609124
vt 0.239845 0.712372
vt 0.235906 0.666118
vt 0.368017 0.325785
vt 0.516559 0.284246
vt 0.356464 0.534751
vt 0.950116 0.210475
vt 0.947376 0.209765
vt 0.952579 0.187253
vt 0.950787 0.189423
vt 0.135070 0.483992
vt 0.128420 0.476553
vt 0.140010 0.471185
vt 0.873359 0.409934
vt 0.846084 0.415587
vt 0.864384 0.326578
vt 0.136792 0.557466
vt 0.130089 0.593184
vt 0.881296 0.537728
vt 0.137489 0.588447
vt 0.861745 0.536461
vt 0.813081 0.534019
vt 0.821674 0.298407
vt 0.834407 0.401692
vt 0.121133 0.593199
vt 0.116177 0.486860
vt 0.123330 0.483815
vt 0.294938 0.792126
vt 0.316243 0.690977
vt 0.312689 0.791564
vt 0.564218 0.014202
vt 0.581146 0.045298
vt 0.580521 0.153950
vt 0.309830 0.585540
vt 0.314454 0.681981
vt 0.298386 0.588218
vt 0.812211 0.681769
vt 0.811131 0.584092
vt 0.813633 0.550437
vt 0.841082 0.198852
vt 0.840307 0.120823
vt 0.857741 0.215147
vt 0.843775 0.222710
vt 0.863860 0.270448
vt 0.846615 0.257758
vt 0.814065 0.827058
vt 0.809206 0.748505
vt 0.494699 0.850124
vt 0.492793 0.857496
vt 0.494596 0.824918
vt 0.298324 0.688980
vt 0.245130 0.724211
vt 0.246777 0.728299
vt 0.246739 0.770388
vt 0.890066 0.164099
vt 0.896477 0.121823
vt 0.892075 0.332418
vt 0.778282 0.548984
vt 0.776324 0.673979
vt 0.773871 0.669935
vt 0.667574 0.529107
vt 0.893286 0.006187
vt 0.649883 0.495338
vt 0.655325 0.387321
vt 0.935374 0.485371
vt 0.320111 0.520530
vt 0.299399 0.279925
vt 0.321909 0.240037
vt 0.551360 0.577467
vt 0.546750 0.471620
vt 0.333503 0.458612
vt 0.943669 0.482612
vt 0.808619 0.675989
vt 0.849252 0.326768
vt 0.839779 0.282663
vt 0.840293 0.342446
vt 0.834405 0.210249
vt 0.571513 0.009366
vt 0.576025 0.013115
vt 0.567009 0.006017
vt 0.730446 0.971882
vt 0.724427 0.977054
vt 0.726388 0.970270
vt 0.948655 0.136379
vt 0.982906 0.535251
vt 0.980272 0.548653
vt 0.978611 0.527646
vt 0.996343 0.689194
vt 0.994494 0.685982
vt 0.994494 0.680688
vt 0.981339 0.527214
vt 0.985753 0.533216
vt 0.225316 0.599667
vt 0.224822 0.783829
vt 0.192214 0.783328
vt 0.197077 0.602787
vt 0.950203 0.042162
vt 0.915589 0.740297
vt 0.257446 0.002941
vt 0.263350 0.004095
vt 0.926705 0.040678
vt 0.929438 0.008965
vt 0.930699 0.034827
vt 0.255122 0.016248
vt 0.264995 0.136141
vt 0.655718 0.098948
vt 0.660032 0.042946
vt 0.677340 0.065195
vt 0.759988 0.962658
vt 0.265948 0.020800
vt 0.693360 0.019820
vt 0.956070 0.714394
vt 0.868048 0.672916
vt 0.867351 0.610391
vt 0.853799 0.546854
vt 0.865335 0.545900
vt 0.866024 0.577456
vt 0.894552 0.501828
vt 0.891099 0.453673
vt 0.772960 0.869967
vt 0.775831 0.795243
vt 0.778621 0.831045
vt 0.662298 0.150184
vt 0.652581 0.128746
vt 0.669395 0.092391
vt 0.499143 0.089805
vt 0.895815 0.369605
vt 0.983716 0.103414
vt 0.276501 0.610752
vt 0.282015 0.606608
vt 0.282043 0.778714
vt 0.852103 0.754330
vt 0.863404 0.755589
vt 0.851262 0.784376
vt 0.113107 0.287307
vt 0.255542 0.183084
vt 0.554014 0.001921
vt 0.558571 0.004761
vt 0.913048 0.881178
vt 0.324474 0.044651
vt 0.317743 0.037291
vt 0.318745 0.003379
vt 0.331906 0.010718
vt 0.378106 0.211675
vt 0.350730 0.421793
vt 0.347976 0.577669
vt 0.339375 0.571247
vt 0.299284 0.041674
vt 0.298836 0.045850
vt 0.158993 0.052261
vt 0.329556 0.002258
vt 0.290700 0.571925
vt 0.265959 0.573348
vt 0.123557 0.368728
vt 0.253818 0.579725
vt 0.136258 0.067222
vt 0.782834 0.649247
vt 0.790586 0.701451
vt 0.785922 0.730277
vt 0.798376 0.732908
vt 0.803777 0.629195
vt 0.802927 0.791240
vt 0.520165 0.987767
vt 0.516804 0.987605
vt 0.520244 0.968699
vt 0.281024 0.577503
vt 0.275923 0.577177
vt 0.688574 0.995204
vt 0.691472 0.990591
vt 0.691735 0.994060
vt 0.880086 0.772417
vt 0.668206 0.223211
vt 0.894773 0.301835
vt 0.628218 0.793107
vt 0.631476 0.722161
vt 0.631416 0.790154
vt 0.112923 0.588495
vt 0.117035 0.594757
vt 0.960817 0.167170
vt 0.128426 0.121612
vt 0.633638 0.562547
vt 0.626066 0.503509
vt 0.605745 0.268098
vt 0.111011 0.473367
vt 0.138565 0.216224
vt 0.117025 0.695467
vt 0.301095 0.450680
vt 0.296548 0.464689
vt 0.955835 0.182545
vt 0.947567 0.181203
vt 0.949130 0.173719
vt 0.321132 0.574557
vt 0.084166 0.988342
vt 0.088006 0.984539
vt 0.087637 0.993502
vt 0.127680 0.327533
vt 0.833914 0.330982
vt 0.114422 0.554345
vt 0.846987 0.277176
vt 0.809283 0.848405
vt 0.298440 0.576328
vt 0.134470 0.594411
vt 0.542461 0.568181
vt 0.298880 0.226524
vt 0.111481 0.701964
vt 0.108298 0.729372
vt 0.109830 0.653127
vt 0.120661 0.743542
vt 0.120186 0.800516
vt 0.118537 0.761485
vt 0.712906 0.988845
vt 0.720401 0.979255
vt 0.720609 0.989821
vt 0.638971 0.661947
vt 0.637874 0.746435
vt 0.639609 0.602570
vt 0.141478 0.348685
vt 0.559273 0.570449
vt 0.338979 0.577419
vt 0.757948 0.942104
vt 0.991304 0.384845
vt 0.988263 0.383471
vt 0.988742 0.372872
vt 0.726987 0.975596
vt 0.982783 0.538975
vt 0.874477 0.639823
vt 0.875634 0.610523
vt 0.881066 0.634606
vt 0.581088 0.993193
vt 0.576544 0.993877
vt 0.580142 0.982776
vt 0.627150 0.642376
vt 0.627562 0.682688
vt 0.050824 0.818280
vt 0.065722 0.867469
vt 0.053880 0.854868
vt 0.941700 0.491601
vt 0.732719 0.982537
vt 0.725870 0.981375
vt 0.334424 0.579409
vt 0.571299 0.001622
vt 0.773398 0.934308
vt 0.768826 0.940969
vt 0.767452 0.927759
vt 0.983354 0.920515
vt 0.979712 0.920437
vt 0.979940 0.912884
vt 0.113684 0.604206
vt 0.109129 0.604784
vt 0.776753 0.758466
vt 0.835985 0.190908
vt 0.838149 0.184541
vt 0.955624 0.191273
vt 0.839840 0.217093
vt 0.862401 0.594998
vt 0.103886 0.599735
vt 0.991628 0.929675
vt 0.996473 0.923114
vt 0.996468 0.931002
vt 0.984647 0.536057
vt 0.861750 0.592112
vt 0.102862 0.779754
vt 0.991606 0.922873
vt 0.113297 0.065618
vt 0.255421 0.051135
vt 0.288011 0.044919
vt 0.260139 0.379943
vt 0.679297 0.136928
vt 0.347411 0.154346
vt 0.886814 0.875403
vt 0.931214 0.420554
vt 0.926117 0.354306
vt 0.930072 0.119053
vt 0.398379 0.076200
vt 0.390827 0.005484
vt 0.291525 0.271350
vt 0.338449 0.290317
vt 0.559777 0.208386
vt 0.549888 0.137830
vt 0.558609 0.052676
vt 0.166638 0.009002
vt 0.138257 0.062376
vt 0.621992 0.709712
vt 0.235907 0.666118
vt 0.516559 0.284245
vt 0.580520 0.153950
vt 0.314454 0.681982
vt 0.298385 0.588218
vt 0.813633 0.550438
vt 0.857742 0.215147
vt 0.814065 0.827057
vt 0.890067 0.164098
vt 0.896478 0.121823
vt 0.892075 0.332419
vt 0.776324 0.673978
vt 0.649883 0.495337
vt 0.321909 0.240036
vt 0.255122 0.016249
vt 0.660032 0.042945
vt 0.669395 0.092392
vt 0.499143 0.089806
vt 0.113108 0.287308
vt 0.255542 0.183086
vt 0.123557 0.368727
vt 0.782834 0.649246
vt 0.798375 0.732908
vt 0.803777 0.629196
vt 0.802926 0.791241
vt 0.628218 0.793106
vt 0.633638 0.562548
vt 0.321131 0.574557
vt 0.627562 0.682687
vt 0.053880 0.854867
vt 0.732719 0.982538
s 1
usemtl Material.003
f 2/1/1 4/2/1 1/3/1
f 1/3/1 4/2/1 3/4/1
usemtl tripo_mat_51ace24e-b9c9-49dd-b6b2-e52beccee3e1.004
f 42/5/2 44/6/3 22/7/4
f 25/8/5 54/9/6 43/10/7
f 26/11/8 40/12/9 27/13/10
f 31/14/11 59/15/12 51/16/13
f 58/17/14 56/18/15 33/19/16
f 56/18/15 32/20/17 33/19/16
f 56/21/15 57/22/18 32/23/17
f 62/24/19 58/25/14 33/26/16
f 56/18/15 58/17/14 59/15/12
f 56/27/15 60/28/20 29/29/21
f 56/30/15 31/31/11 60/32/20
f 52/33/22 53/34/23 54/35/6
f 66/36/24 69/37/25 65/38/26
f 45/39/27 61/40/28 29/41/21
f 62/24/19 33/26/16 55/42/29
f 77/43/30 51/16/13 63/44/31
f 51/16/13 77/43/30 31/14/11
f 60/45/20 30/46/32 29/47/21
f 54/48/6 29/47/21 30/46/32
f 93/49/33 54/35/6 53/34/23
f 67/50/34 30/51/32 31/52/11
f 46/53/35 45/54/27 29/55/21
f 61/40/28 57/22/18 56/21/15
f 68/56/36 85/57/37 66/58/24
f 74/59/38 53/60/23 79/61/39
f 74/62/38 93/49/33 53/34/23
f 50/63/40 47/64/41 54/9/6
f 71/65/42 59/66/12 70/67/43
f 71/68/42 76/69/44 72/70/45
f 69/71/25 79/61/39 53/60/23
f 93/49/33 17/72/46 54/35/6
f 75/73/47 93/49/33 74/62/38
f 97/74/48 85/75/37 68/76/36
f 74/77/38 86/78/49 75/79/47
f 80/80/50 81/81/51 71/65/42
f 88/82/52 78/83/53 77/84/30
f 15/85/54 83/86/55 41/87/56
f 108/88/57 90/89/58 80/80/50
f 80/80/50 70/67/43 108/88/57
f 79/61/39 69/71/25 96/90/59
f 83/86/55 15/85/54 16/91/60
f 8/92/61 6/93/62 97/74/48
f 95/94/63 98/95/64 86/96/49
f 62/97/19 55/98/29 57/99/18
f 86/96/49 98/95/64 92/100/65
f 5/101/66 103/102/67 6/103/62
f 62/97/19 61/104/28 70/105/43
f 70/105/43 89/106/68 108/107/57
f 101/108/69 91/109/70 106/110/71
f 123/111/72 16/112/60 94/113/73
f 90/89/58 108/114/57 100/115/74
f 78/83/53 110/116/75 97/117/48
f 121/118/76 97/117/48 110/116/75
f 8/119/61 97/117/48 121/118/76
f 38/120/77 5/121/66 7/122/78
f 5/123/66 38/124/77 111/125/79
f 114/126/80 90/127/58 100/128/74
f 121/118/76 122/129/81 8/119/61
f 13/130/82 38/124/77 116/131/83
f 104/132/84 98/95/64 95/94/63
f 118/133/85 100/115/74 112/134/86
f 120/135/87 119/136/88 88/82/52
f 140/137/89 123/111/72 94/113/73
f 94/138/73 98/139/64 140/140/89
f 124/141/90 113/142/91 118/143/85
f 114/144/80 100/145/74 113/146/91
f 149/147/92 137/148/93 128/149/94
f 132/150/95 143/151/96 10/152/97
f 132/150/95 135/153/98 143/151/96
f 143/151/96 144/154/99 10/152/97
f 145/155/100 144/154/99 143/151/96
f 117/156/101 76/157/44 81/158/51
f 104/159/84 96/160/59 139/161/102
f 146/162/103 14/163/104 134/164/105
f 136/165/106 134/164/105 14/163/104
f 131/166/107 137/167/93 129/168/108
f 137/169/93 125/170/109 128/171/94
f 144/172/99 146/173/103 131/166/107
f 137/167/93 131/166/107 146/173/103
f 146/174/103 125/170/109 137/169/93
f 144/172/99 145/175/100 146/173/103
f 36/176/110 125/170/109 146/174/103
f 147/177/111 105/178/112 125/179/109
f 116/180/83 121/181/76 151/182/113
f 116/183/83 152/184/114 13/185/82
f 36/186/110 147/187/111 125/188/109
f 109/189/115 152/190/114 138/191/116
f 153/192/117 107/193/118 99/194/119
f 112/134/86 124/195/90 118/196/85
f 112/134/86 154/197/120 124/195/90
f 124/195/90 154/197/120 148/198/121
f 148/198/121 149/199/92 141/200/122
f 130/201/123 142/202/124 153/192/117
f 147/203/111 139/204/102 12/205/125
f 152/184/114 116/183/83 151/206/113
f 12/207/125 117/208/101 147/209/111
f 115/210/126 152/211/114 82/212/127
f 152/213/114 109/214/115 82/215/127
f 117/216/101 81/81/51 105/178/112
f 13/217/82 152/211/114 115/210/126
f 117/216/101 13/218/82 115/219/126
f 154/197/120 149/199/92 148/198/121
f 123/111/72 140/137/89 150/220/128
f 150/221/128 153/222/117 123/223/72
f 11/224/129 133/225/130 98/95/64
f 140/140/89 133/226/130 132/150/95
f 132/227/95 150/220/128 140/137/89
f 107/193/118 153/192/117 142/228/124
f 128/171/94 127/229/131 149/199/92
f 126/230/132 125/231/109 114/232/80
f 139/233/102 147/234/111 35/235/133
f 37/236/134 12/237/125 111/238/79
f 38/124/77 13/130/82 37/239/134
f 39/240/135 41/241/56 45/242/27
f 45/243/27 48/244/136 23/245/137
f 23/246/137 39/240/135 45/242/27
f 26/11/8 21/247/138 40/12/9
f 55/248/29 33/249/16 32/250/17
f 59/15/12 31/14/11 56/18/15
f 56/21/15 29/41/21 61/40/28
f 57/251/18 55/248/29 32/250/17
f 60/32/20 31/31/11 30/252/32
f 64/253/139 52/33/22 54/35/6
f 53/254/23 52/255/22 65/38/26
f 66/256/24 73/257/140 67/258/34
f 65/38/26 69/37/25 53/259/23
f 67/258/34 68/76/36 66/256/24
f 67/50/34 31/52/11 68/260/36
f 63/261/31 51/262/13 72/263/45
f 54/48/6 30/46/32 64/264/139
f 73/265/140 30/51/32 67/50/34
f 51/262/13 59/66/12 72/263/45
f 59/66/12 71/266/42 72/263/45
f 41/267/56 61/40/28 45/39/27
f 54/9/6 47/64/41 29/268/21
f 47/64/41 46/269/35 29/268/21
f 42/5/2 43/10/7 54/9/6
f 54/9/6 17/270/46 42/5/2
f 42/5/2 17/270/46 41/271/56
f 41/271/56 18/272/141 44/6/3
f 68/260/36 31/52/11 78/83/53
f 80/80/50 71/65/42 70/67/43
f 72/273/45 76/274/44 82/212/127
f 72/275/45 91/276/70 84/277/142
f 84/278/142 63/279/31 72/280/45
f 86/78/49 74/77/38 79/281/39
f 82/212/127 91/282/70 72/273/45
f 77/84/30 78/83/53 31/52/11
f 17/283/46 15/85/54 41/87/56
f 81/284/51 76/285/44 71/286/42
f 78/83/53 97/117/48 68/260/36
f 87/287/143 83/288/55 89/289/68
f 91/109/70 63/279/31 84/278/142
f 77/43/30 63/44/31 88/290/52
f 85/57/37 103/102/67 66/36/24
f 66/36/24 103/102/67 69/291/25
f 93/292/33 75/293/47 92/100/65
f 93/49/33 15/294/54 17/72/46
f 94/295/73 16/296/60 15/297/54
f 92/298/65 98/139/64 94/138/73
f 96/160/59 104/159/84 95/299/63
f 96/90/59 103/300/67 34/301/144
f 6/93/62 85/75/37 97/74/48
f 6/103/62 103/102/67 85/57/37
f 96/90/59 34/301/144 12/302/125
f 89/303/68 16/296/60 99/304/119
f 87/305/143 89/106/68 61/104/28
f 57/99/18 61/104/28 62/97/19
f 105/178/112 81/81/51 80/80/50
f 91/109/70 101/108/69 63/279/31
f 93/306/33 92/298/65 94/295/73
f 6/103/62 102/307/145 7/308/78
f 89/106/68 70/105/43 61/104/28
f 88/290/52 63/44/31 138/309/116
f 86/96/49 92/100/65 75/293/47
f 103/102/67 5/101/66 34/310/144
f 99/311/119 108/107/57 89/106/68
f 109/312/115 101/313/69 106/314/71
f 101/315/69 138/316/116 63/317/31
f 69/71/25 103/300/67 96/90/59
f 6/318/62 8/319/61 122/320/81
f 102/307/145 9/321/146 7/322/78
f 34/323/144 5/324/66 111/325/79
f 112/134/86 100/115/74 108/114/57
f 118/143/85 113/142/91 100/326/74
f 76/69/44 115/219/126 82/327/127
f 82/212/127 106/328/71 91/282/70
f 110/329/75 119/330/88 120/331/87
f 102/332/145 116/180/83 9/333/146
f 38/124/77 9/334/146 116/131/83
f 16/296/60 123/223/72 99/304/119
f 99/311/119 112/335/86 108/107/57
f 80/336/50 90/337/58 105/338/112
f 138/309/116 120/339/87 88/290/52
f 120/135/87 121/118/76 110/116/75
f 107/340/118 112/335/86 99/311/119
f 114/126/80 105/341/112 90/127/58
f 130/342/123 150/221/128 131/343/107
f 135/153/98 132/150/95 133/226/130
f 35/344/133 135/345/98 11/346/129
f 135/345/98 35/344/133 134/164/105
f 135/153/98 136/347/106 143/151/96
f 10/348/97 144/349/99 150/350/128
f 150/221/128 144/154/99 131/343/107
f 129/168/108 137/167/93 149/351/92
f 125/170/109 127/229/131 128/171/94
f 125/231/109 105/352/112 114/232/80
f 121/181/76 116/180/83 122/353/81
f 127/229/131 126/354/132 149/199/92
f 142/202/124 130/201/123 129/355/108
f 136/347/106 145/155/100 143/151/96
f 136/347/106 14/356/104 145/155/100
f 146/173/103 145/175/100 14/357/104
f 120/339/87 138/309/116 151/182/113
f 151/182/113 121/181/76 120/339/87
f 139/161/102 96/160/59 12/358/125
f 98/139/64 133/226/130 140/140/89
f 123/223/72 153/359/117 99/304/119
f 107/340/118 149/351/92 112/335/86
f 114/360/80 148/361/121 126/362/132
f 126/363/132 148/364/121 141/365/122
f 129/168/108 149/351/92 107/340/118
f 153/222/117 150/221/128 130/342/123
f 149/366/92 126/367/132 141/368/122
f 152/190/114 151/206/113 138/191/116
f 147/177/111 117/216/101 105/178/112
f 154/369/120 112/370/86 149/371/92
f 107/340/118 142/372/124 129/168/108
f 98/95/64 104/132/84 139/373/102
f 139/373/102 11/224/129 98/95/64
f 111/374/79 12/302/125 34/301/144
f 30/46/32 73/375/140 64/264/139
f 52/376/22 64/377/139 73/378/140
f 37/236/134 117/379/101 12/237/125
f 35/235/133 147/234/111 36/186/110
f 39/240/135 18/380/141 41/241/56
f 39/240/135 23/246/137 40/12/9
f 89/381/68 83/382/55 16/383/60
f 6/103/62 7/308/78 5/101/66
f 93/306/33 94/295/73 15/297/54
f 102/307/145 6/103/62 122/129/81
f 38/384/77 7/385/78 9/386/146
f 116/180/83 102/332/145 122/353/81
f 88/387/52 119/330/88 78/388/53
f 78/388/53 119/330/88 110/329/75
f 101/389/69 109/390/115 138/391/116
f 150/220/128 132/227/95 10/392/97
f 37/236/134 13/393/82 117/394/101
f 133/226/130 11/395/129 135/153/98
f 11/396/129 139/233/102 35/235/133
f 134/397/105 136/398/106 135/399/98
f 130/400/123 131/401/107 129/402/108
f 125/403/109 126/362/132 127/404/131
f 106/405/71 82/215/127 109/214/115
f 114/406/80 113/407/91 124/195/90
f 134/164/105 36/408/110 146/162/103
f 35/344/133 36/408/110 134/164/105
f 114/406/80 124/195/90 148/409/121
f 115/219/126 76/69/44 117/216/101
f 111/125/79 38/124/77 37/239/134
f 44/6/3 42/5/2 41/271/56
f 21/247/138 39/240/135 40/12/9
f 25/8/5 49/410/147 50/63/40
f 70/411/43 58/25/14 62/24/19
f 73/265/140 65/38/26 52/255/22
f 83/412/55 61/413/28 41/414/56
f 54/9/6 25/8/5 50/63/40
f 79/281/39 95/299/63 86/78/49
f 21/247/138 20/415/148 39/240/135
f 25/8/5 24/416/149 49/410/147
f 70/411/43 59/417/12 58/25/14
f 73/265/140 66/36/24 65/38/26
f 83/412/55 87/418/143 61/413/28
f 79/281/39 96/160/59 95/299/63
usemtl tripo_mat_51ace24e-b9c9-49dd-b6b2-e52beccee3e1.005
f 192/5/2 194/6/150 172/7/4
f 175/8/5 204/9/6 193/10/7
f 176/11/8 190/12/9 177/13/10
f 181/419/11 209/15/12 201/16/13
f 208/17/14 206/18/15 183/19/16
f 206/18/15 182/20/17 183/19/16
f 206/21/15 207/22/18 182/23/17
f 212/24/19 208/25/14 183/26/16
f 206/18/15 208/17/14 209/15/12
f 206/27/15 210/28/151 179/29/21
f 206/30/15 181/31/11 210/32/151
f 202/33/22 203/34/23 204/35/6
f 216/36/24 219/420/25 215/38/152
f 195/39/153 211/40/28 179/41/21
f 212/24/19 183/26/16 205/42/29
f 227/43/154 201/16/13 213/44/31
f 201/16/13 227/43/154 181/419/11
f 210/45/151 180/46/32 179/47/21
f 204/48/6 179/47/21 180/46/32
f 243/49/33 204/35/6 203/34/23
f 217/50/34 180/51/32 181/421/11
f 196/53/35 195/54/153 179/55/21
f 211/40/28 207/22/18 206/21/15
f 218/56/36 235/422/37 216/58/24
f 224/59/38 203/60/23 229/61/39
f 224/62/38 243/49/33 203/34/23
f 200/63/40 197/64/41 204/9/6
f 221/65/42 209/66/12 220/67/43
f 221/68/42 226/423/44 222/70/45
f 219/424/25 229/61/39 203/60/23
f 243/49/33 167/425/46 204/35/6
f 225/73/47 243/49/33 224/62/38
f 247/426/48 235/427/37 218/428/36
f 224/77/38 236/429/49 225/430/47
f 230/80/50 231/81/51 221/65/42
f 238/431/52 228/83/53 227/84/154
f 165/85/54 233/86/55 191/87/155
f 258/88/57 240/89/58 230/80/50
f 230/80/50 220/67/43 258/88/57
f 229/61/39 219/424/25 246/432/59
f 233/86/55 165/85/54 166/91/60
f 158/92/61 156/93/62 247/426/48
f 245/433/63 248/434/64 236/435/49
f 212/436/19 205/98/29 207/99/18
f 236/435/49 248/434/64 242/100/65
f 155/101/66 253/102/67 156/103/62
f 212/436/19 211/104/28 220/105/43
f 220/105/43 239/437/68 258/107/57
f 251/108/69 241/109/70 256/110/71
f 273/111/72 166/112/60 244/113/73
f 240/89/58 258/114/57 250/115/74
f 228/83/53 260/116/156 247/117/48
f 271/118/76 247/117/48 260/116/156
f 158/119/61 247/117/48 271/118/76
f 188/120/77 155/121/66 157/122/78
f 155/123/66 188/124/77 261/125/79
f 264/126/80 240/127/58 250/128/74
f 271/118/76 272/129/81 158/119/61
f 163/130/82 188/124/77 266/131/83
f 254/132/84 248/434/64 245/433/63
f 268/133/85 250/115/74 262/134/86
f 270/135/87 269/136/88 238/431/52
f 290/137/89 273/111/72 244/113/73
f 244/138/73 248/139/64 290/140/89
f 274/141/90 263/142/91 268/143/85
f 264/144/80 250/145/74 263/146/91
f 299/147/92 287/438/93 278/149/94
f 282/150/95 293/151/96 160/152/97
f 282/150/95 285/153/98 293/151/96
f 293/151/96 294/154/99 160/152/97
f 295/155/100 294/154/99 293/151/96
f 267/156/101 226/157/44 231/439/51
f 254/159/84 246/440/59 289/161/102
f 296/162/103 164/163/157 284/164/105
f 286/165/106 284/164/105 164/163/157
f 281/166/107 287/167/93 279/168/108
f 287/169/93 275/170/109 278/171/94
f 294/172/99 296/173/103 281/166/107
f 287/167/93 281/166/107 296/173/103
f 296/174/103 275/170/109 287/169/93
f 294/172/99 295/175/100 296/173/103
f 186/176/110 275/170/109 296/174/103
f 297/177/111 255/178/112 275/179/109
f 266/180/83 271/181/76 301/182/113
f 266/183/83 302/184/114 163/185/82
f 186/186/110 297/187/111 275/441/109
f 259/189/115 302/442/114 288/443/116
f 303/192/117 257/193/118 249/444/119
f 262/134/86 274/195/90 268/196/85
f 262/134/86 304/445/120 274/195/90
f 274/195/90 304/445/120 298/198/121
f 298/198/121 299/199/92 291/200/122
f 280/446/123 292/202/124 303/192/117
f 297/203/111 289/204/102 162/205/125
f 302/184/114 266/183/83 301/206/113
f 162/207/125 267/208/101 297/209/111
f 265/447/126 302/448/114 232/449/127
f 302/213/114 259/450/115 232/215/127
f 267/216/101 231/81/51 255/178/112
f 163/217/82 302/448/114 265/447/126
f 267/216/101 163/451/82 265/219/126
f 304/445/120 299/199/92 298/198/121
f 273/111/72 290/137/89 300/220/128
f 300/221/128 303/222/117 273/452/72
f 161/224/129 283/225/130 248/434/64
f 290/140/89 283/226/130 282/150/95
f 282/227/95 300/220/128 290/137/89
f 257/193/118 303/192/117 292/228/124
f 278/171/94 277/229/131 299/199/92
f 276/230/132 275/231/109 264/232/80
f 289/233/102 297/234/111 185/235/133
f 187/236/134 162/237/125 261/238/79
f 188/124/77 163/130/82 187/239/134
f 189/240/135 191/241/155 195/242/153
f 195/243/153 198/244/158 173/245/137
f 173/246/137 189/240/135 195/242/153
f 176/11/8 171/247/159 190/12/9
f 205/248/29 183/249/16 182/250/17
f 209/15/12 181/419/11 206/18/15
f 206/21/15 179/41/21 211/40/28
f 207/251/18 205/248/29 182/250/17
f 210/32/151 181/31/11 180/252/32
f 214/253/139 202/33/22 204/35/6
f 203/254/23 202/255/22 215/38/152
f 216/256/24 223/257/160 217/258/34
f 215/38/152 219/420/25 203/453/23
f 217/258/34 218/428/36 216/256/24
f 217/50/34 181/421/11 218/260/36
f 213/261/31 201/454/13 222/263/45
f 204/48/6 180/46/32 214/264/139
f 223/265/160 180/51/32 217/50/34
f 201/454/13 209/66/12 222/263/45
f 209/66/12 221/266/42 222/263/45
f 191/267/155 211/40/28 195/39/153
f 204/9/6 197/64/41 179/268/21
f 197/64/41 196/269/35 179/268/21
f 192/5/2 193/10/7 204/9/6
f 204/9/6 167/270/46 192/5/2
f 192/5/2 167/270/46 191/271/155
f 191/271/155 168/272/141 194/6/150
f 218/260/36 181/421/11 228/83/53
f 230/80/50 221/65/42 220/67/43
f 222/273/45 226/274/44 232/449/127
f 222/275/45 241/276/70 234/277/142
f 234/278/142 213/279/31 222/455/45
f 236/429/49 224/77/38 229/456/39
f 232/449/127 241/282/70 222/273/45
f 227/84/154 228/83/53 181/421/11
f 167/283/46 165/85/54 191/87/155
f 231/284/51 226/285/44 221/286/42
f 228/83/53 247/117/48 218/260/36
f 237/287/143 233/288/55 239/289/68
f 241/109/70 213/279/31 234/278/142
f 227/43/154 213/44/31 238/457/52
f 235/422/37 253/102/67 216/36/24
f 216/36/24 253/102/67 219/458/25
f 243/292/33 225/293/47 242/100/65
f 243/49/33 165/294/54 167/425/46
f 244/295/73 166/296/60 165/297/54
f 242/298/65 248/139/64 244/138/73
f 246/440/59 254/159/84 245/299/63
f 246/432/59 253/300/67 184/301/144
f 156/93/62 235/427/37 247/426/48
f 156/103/62 253/102/67 235/422/37
f 246/432/59 184/301/144 162/302/125
f 239/303/68 166/296/60 249/304/119
f 237/305/143 239/437/68 211/104/28
f 207/99/18 211/104/28 212/436/19
f 255/178/112 231/81/51 230/80/50
f 241/109/70 251/108/69 213/279/31
f 243/306/33 242/298/65 244/295/73
f 156/103/62 252/307/145 157/308/78
f 239/437/68 220/105/43 211/104/28
f 238/457/52 213/44/31 288/459/116
f 236/435/49 242/100/65 225/293/47
f 253/102/67 155/101/66 184/310/144
f 249/311/119 258/107/57 239/437/68
f 259/460/115 251/313/69 256/314/71
f 251/461/69 288/462/116 213/463/31
f 219/424/25 253/300/67 246/432/59
f 156/318/62 158/319/61 272/320/81
f 252/307/145 159/321/146 157/322/78
f 184/323/144 155/324/66 261/325/79
f 262/134/86 250/115/74 258/114/57
f 268/143/85 263/142/91 250/326/74
f 226/423/44 265/219/126 232/327/127
f 232/449/127 256/328/71 241/282/70
f 260/464/156 269/330/88 270/331/87
f 252/332/145 266/180/83 159/333/146
f 188/124/77 159/334/146 266/131/83
f 166/296/60 273/452/72 249/304/119
f 249/311/119 262/335/86 258/107/57
f 230/465/50 240/337/58 255/338/112
f 288/459/116 270/339/87 238/457/52
f 270/135/87 271/118/76 260/116/156
f 257/340/118 262/335/86 249/311/119
f 264/126/80 255/341/112 240/127/58
f 280/342/123 300/221/128 281/343/107
f 285/153/98 282/150/95 283/226/130
f 185/344/133 285/345/98 161/346/129
f 285/345/98 185/344/133 284/164/105
f 285/153/98 286/466/106 293/151/96
f 160/348/97 294/349/99 300/350/128
f 300/221/128 294/154/99 281/343/107
f 279/168/108 287/167/93 299/351/92
f 275/170/109 277/229/131 278/171/94
f 275/231/109 255/352/112 264/232/80
f 271/181/76 266/180/83 272/353/81
f 277/229/131 276/354/132 299/199/92
f 292/202/124 280/446/123 279/355/108
f 286/466/106 295/155/100 293/151/96
f 286/466/106 164/356/157 295/155/100
f 296/173/103 295/175/100 164/357/157
f 270/339/87 288/459/116 301/182/113
f 301/182/113 271/181/76 270/339/87
f 289/161/102 246/440/59 162/358/125
f 248/139/64 283/226/130 290/140/89
f 273/452/72 303/359/117 249/304/119
f 257/340/118 299/351/92 262/335/86
f 264/360/80 298/361/121 276/362/132
f 276/363/132 298/364/121 291/365/122
f 279/168/108 299/351/92 257/340/118
f 303/222/117 300/221/128 280/342/123
f 299/366/92 276/367/132 291/368/122
f 302/442/114 301/206/113 288/443/116
f 297/177/111 267/216/101 255/178/112
f 304/369/120 262/370/86 299/371/92
f 257/340/118 292/372/124 279/168/108
f 248/434/64 254/132/84 289/373/102
f 289/373/102 161/224/129 248/434/64
f 261/374/79 162/302/125 184/301/144
f 180/46/32 223/375/160 214/264/139
f 202/376/22 214/377/139 223/378/160
f 187/236/134 267/379/101 162/237/125
f 185/235/133 297/234/111 186/186/110
f 189/240/135 168/380/141 191/241/155
f 189/240/135 173/246/137 190/12/9
f 239/381/68 233/382/55 166/383/60
f 156/103/62 157/308/78 155/101/66
f 243/306/33 244/295/73 165/297/54
f 252/307/145 156/103/62 272/129/81
f 188/384/77 157/385/78 159/386/146
f 266/180/83 252/332/145 272/353/81
f 238/387/52 269/330/88 228/467/53
f 228/467/53 269/330/88 260/464/156
f 251/389/69 259/390/115 288/468/116
f 300/220/128 282/227/95 160/392/97
f 187/236/134 163/469/82 267/394/101
f 283/226/130 161/395/129 285/153/98
f 161/396/129 289/233/102 185/235/133
f 284/397/105 286/398/106 285/399/98
f 280/400/123 281/401/107 279/402/108
f 275/403/109 276/362/132 277/404/131
f 256/405/71 232/215/127 259/450/115
f 264/406/80 263/407/91 274/195/90
f 284/164/105 186/408/110 296/162/103
f 185/344/133 186/408/110 284/164/105
f 264/406/80 274/195/90 298/409/121
f 265/219/126 226/423/44 267/216/101
f 261/125/79 188/124/77 187/239/134
f 194/6/150 192/5/2 191/271/155
f 171/247/159 189/240/135 190/12/9
f 175/8/5 199/410/147 200/63/40
f 220/411/43 208/25/14 212/24/19
f 223/265/160 215/38/152 202/255/22
f 233/412/55 211/413/28 191/414/155
f 204/9/6 175/8/5 200/63/40
f 229/456/39 245/299/63 236/429/49
f 171/247/159 170/415/148 189/240/135
f 175/8/5 174/416/149 199/410/147
f 220/411/43 209/417/12 208/25/14
f 223/265/160 216/36/24 215/38/152
f 233/412/55 237/418/143 211/413/28
f 229/456/39 246/440/59 245/299/63
l 169 170
l 177 199
l 19 20
l 27 49
l 178 193
l 28 43
l 171 178
l 21 28
