# Blender 4.3.2
# www.blender.org
mtllib MallaRejas.mtl
o fence__Cylinder
v -3.875631 -0.092455 -0.110796
v -3.875631 5.587619 -0.110796
v -3.810255 -0.092455 -0.083716
v -3.810255 5.587619 -0.083716
v -3.783175 -0.092455 -0.018340
v -3.783175 5.587619 -0.018340
v -3.810255 -0.092455 0.047036
v -3.810255 5.587619 0.047036
v -3.875631 -0.092455 0.074116
v -3.875631 5.587619 0.074116
v -3.941007 -0.092455 0.047036
v -3.941007 5.587619 0.047036
v -3.968087 -0.092455 -0.018340
v -3.968087 5.587619 -0.018340
v -3.941007 -0.092455 -0.083716
v -3.941007 5.587619 -0.083716
v -3.793104 5.598426 -0.100867
v -3.875631 5.598426 -0.135050
v -3.757969 5.598426 -0.018340
v -3.793104 5.598426 0.064187
v -3.875631 5.598426 0.098370
v -3.958157 5.598426 0.064187
v -3.993292 5.598426 -0.018340
v -3.958157 5.598426 -0.100867
v -3.793104 5.807148 -0.100867
v -3.875631 5.807148 -0.135050
v -3.757969 5.807148 -0.018340
v -3.793104 5.807148 0.064187
v -3.875631 5.807148 0.098370
v -3.958157 5.807148 0.064187
v -3.993292 5.807148 -0.018340
v -3.958157 5.807148 -0.100867
v 3.839502 5.434460 -0.057539
v -3.879526 5.434460 -0.057540
v 3.839502 5.465106 -0.042780
v -3.879526 5.465107 -0.042781
v 3.839502 5.472676 -0.009617
v -3.879526 5.472676 -0.009618
v 3.839502 5.451468 0.016978
v -3.879526 5.451468 0.016978
v 3.839502 5.417450 0.016978
v -3.879526 5.417451 0.016978
v 3.839502 5.396243 -0.009617
v -3.879526 5.396243 -0.009618
v 3.839502 5.403811 -0.042780
v -3.879526 5.403811 -0.042781
v 3.824369 -0.092455 -0.110796
v 3.824369 5.587619 -0.110796
v 3.889745 -0.092455 -0.083716
v 3.889745 5.587619 -0.083716
v 3.916825 -0.092455 -0.018340
v 3.916825 5.587619 -0.018340
v 3.889745 -0.092455 0.047036
v 3.889745 5.587619 0.047036
v 3.824369 -0.092455 0.074116
v 3.824369 5.587619 0.074116
v 3.758993 -0.092455 0.047036
v 3.758993 5.587619 0.047036
v 3.731913 -0.092455 -0.018340
v 3.731913 5.587619 -0.018340
v 3.758993 -0.092455 -0.083716
v 3.758993 5.587619 -0.083716
v 3.906896 5.598426 -0.100867
v 3.824369 5.598426 -0.135050
v 3.942030 5.598426 -0.018340
v 3.906896 5.598426 0.064187
v 3.824369 5.598426 0.098370
v 3.741842 5.598426 0.064187
v 3.706708 5.598426 -0.018340
v 3.741842 5.598426 -0.100867
v 3.906896 5.807148 -0.100867
v 3.824369 5.807148 -0.135050
v 3.942031 5.807148 -0.018340
v 3.906896 5.807148 0.064187
v 3.824369 5.807148 0.098370
v 3.741843 5.807148 0.064187
v 3.706708 5.807148 -0.018340
v 3.741843 5.807148 -0.100867
v 3.839502 0.497199 -0.057539
v -3.879526 0.497200 -0.057540
v 3.839502 0.527847 -0.042780
v -3.879526 0.527847 -0.042781
v 3.839502 0.535417 -0.009617
v -3.879526 0.535417 -0.009618
v 3.839502 0.514207 0.016978
v -3.879526 0.514208 0.016978
v 3.839502 0.480191 0.016978
v -3.879526 0.480192 0.016978
v 3.839502 0.458982 -0.009617
v -3.879526 0.458982 -0.009618
v 3.839502 0.466552 -0.042780
v -3.879526 0.466552 -0.042781
v 3.840036 0.502319 -0.018339
v -3.891298 0.502319 -0.018340
v 3.840036 5.426847 -0.018340
v -3.891298 5.426847 -0.018341
vn -0.0000 -1.0000 -0.0000
vn -0.0000 1.0000 -0.0000
vn -0.0000 -0.6303 -0.7764
vn -0.0000 -0.6153 -0.7883
vn 0.5554 -0.6168 -0.5577
vn 0.5490 -0.6303 -0.5490
vn 0.7851 -0.6193 -0.0000
vn 0.7764 -0.6303 -0.0000
vn 0.5554 -0.6168 0.5577
vn 0.5489 -0.6303 0.5491
vn -0.0000 -0.6153 0.7883
vn -0.0000 -0.6303 0.7764
vn -0.5554 -0.6168 0.5577
vn -0.5490 -0.6303 0.5490
vn -0.7851 -0.6193 -0.0000
vn -0.7764 -0.6303 -0.0000
vn 0.6122 -0.4930 -0.6181
vn 0.8701 -0.4928 -0.0000
vn -0.5554 -0.6168 -0.5577
vn -0.5490 -0.6303 -0.5490
vn -0.8701 -0.4928 -0.0000
vn -0.6122 -0.4930 0.6181
vn -0.5458 0.6311 0.5512
vn -0.7776 0.6287 -0.0000
vn -0.0000 -0.4912 0.8710
vn -0.6122 -0.4930 -0.6181
vn -0.0000 -0.4912 -0.8710
vn 0.6122 -0.4930 0.6181
vn 0.5458 0.6311 0.5512
vn -0.0000 0.6303 0.7764
vn 0.5458 0.6311 -0.5512
vn 0.7776 0.6287 -0.0000
vn -0.5457 0.6311 -0.5513
vn -0.0000 0.6303 -0.7764
vn -0.0000 -0.0000 -1.0000
vn -0.0000 0.7818 -0.6235
vn -0.0000 0.9749 0.2225
vn -0.0000 0.4339 0.9010
vn -0.0000 -0.4339 0.9010
vn -0.0000 -0.9749 0.2225
vn -0.0000 -0.7818 -0.6235
vn 0.5490 -0.6303 0.5490
vn -0.5490 -0.6303 0.5489
vn 0.5457 0.6311 -0.5513
vn -0.5459 0.6311 -0.5511
vt 0.391024 0.406886
vt 0.454389 0.433062
vt 0.454389 0.470079
vt 0.391024 0.496255
vt 0.301411 0.496255
vt 0.238046 0.470079
vt 0.238046 0.433062
vt 0.301411 0.406886
vt 0.240479 0.368818
vt 0.395218 0.395295
vt 0.304574 0.395295
vt 0.459313 0.331374
vt 0.304574 0.304897
vt 0.395218 0.304897
vt 0.460205 0.368970
vt 0.239588 0.331222
vt 0.979665 0.006835
vt 0.975708 0.979203
vt 0.948195 0.984581
vt 0.950346 0.006837
vt 0.917105 0.986147
vt 0.924005 0.006824
vt 0.885606 0.987580
vt 0.897674 0.006783
vt 0.855466 0.987928
vt 0.871320 0.006714
vt 0.826693 0.988213
vt 0.844966 0.006614
vt 0.796809 0.986041
vt 0.818613 0.006482
vt 0.951051 0.990072
vt 0.918055 0.992603
vt 0.766217 0.984665
vt 0.792285 0.006320
vt 0.738914 0.978420
vt 0.765946 0.006128
vt 0.166432 0.070853
vt 0.166433 0.099055
vt 0.015460 0.099055
vt 0.015460 0.070853
vt 0.854892 0.993277
vt 0.826303 0.993088
vt 0.763804 0.990087
vt 0.732099 0.982771
vt 0.981515 0.983098
vt 0.885313 0.993277
vt 0.795887 0.992213
vt 0.166432 0.127142
vt 0.166432 0.155229
vt 0.015461 0.155229
vt 0.015460 0.127142
vt 0.166432 0.183432
vt 0.166432 0.211635
vt 0.015460 0.211635
vt 0.015461 0.183432
vt 0.166432 0.042650
vt 0.015460 0.042650
vt 0.166432 0.239721
vt 0.015461 0.239721
vt 0.166432 0.014563
vt 0.015460 0.014563
vt 0.610745 0.984533
vt 0.610745 0.006684
vt 0.629020 0.006545
vt 0.629020 0.984393
vt 0.647295 0.006405
vt 0.647295 0.984254
vt 0.665570 0.006266
vt 0.665570 0.984114
vt 0.683844 0.006126
vt 0.683844 0.983975
vt 0.702119 0.005987
vt 0.702119 0.983835
vt 0.574195 0.984812
vt 0.574195 0.006963
vt 0.592470 0.006824
vt 0.592470 0.984673
vt 0.000000 0.000000
vt 1.000000 0.000000
vt 1.000000 1.000000
vt 0.000000 1.000000
s 1
usemtl metal_baked_2
f 1/1/1 3/2/1 5/3/1 7/4/1 9/5/1 11/6/1 13/7/1 15/8/1
f 32/9/2 25/10/2 26/11/2
f 28/12/2 30/13/2 29/14/2
f 27/15/2 31/16/2 28/12/2
f 31/16/2 27/15/2 25/10/2
f 28/12/2 31/16/2 30/13/2
f 25/10/2 32/9/2 31/16/2
f 47/1/1 49/2/1 51/3/1 53/4/1 55/5/1 57/6/1 59/7/1 61/8/1
f 78/9/2 71/10/2 72/11/2
f 74/12/2 76/13/2 75/14/2
f 73/15/2 77/16/2 74/12/2
f 77/16/2 73/15/2 71/10/2
f 74/12/2 77/16/2 76/13/2
f 71/10/2 78/9/2 77/16/2
f 1/17/3 2/18/4 4/19/5 3/20/6
f 3/20/6 4/19/5 6/21/7 5/22/8
f 5/22/8 6/21/7 8/23/9 7/24/10
f 7/24/10 8/23/9 10/25/11 9/26/12
f 9/26/12 10/25/11 12/27/13 11/28/14
f 11/28/14 12/27/13 14/29/15 13/30/16
f 6/21/7 4/19/5 17/31/17 19/32/18
f 13/30/16 14/29/15 16/33/19 15/34/20
f 15/34/20 16/33/19 2/35/4 1/36/3
f 23/37/21 22/38/22 30/39/23 31/40/24
f 12/27/13 10/25/11 21/41/25 22/42/22
f 2/35/4 16/33/19 24/43/26 18/44/27
f 4/19/5 2/18/4 18/45/27 17/31/17
f 8/23/9 6/21/7 19/32/18 20/46/28
f 14/29/15 12/27/13 22/42/22 23/47/21
f 10/25/11 8/23/9 20/46/28 21/41/25
f 16/33/19 14/29/15 23/47/21 24/43/26
f 21/48/25 20/49/28 28/50/29 29/51/30
f 19/52/18 17/53/17 25/54/31 27/55/32
f 24/56/26 23/37/21 31/40/24 32/57/33
f 22/38/22 21/48/25 29/51/30 30/39/23
f 20/49/28 19/52/18 27/55/32 28/50/29
f 17/53/17 18/58/27 26/59/34 25/54/31
f 18/60/27 24/56/26 32/57/33 26/61/34
f 33/62/35 34/63/35 36/64/36 35/65/36
f 35/65/36 36/64/36 38/66/37 37/67/37
f 37/67/37 38/66/37 40/68/38 39/69/38
f 39/69/38 40/68/38 42/70/39 41/71/39
f 41/71/39 42/70/39 44/72/40 43/73/40
f 43/74/40 44/75/40 46/76/41 45/77/41
f 45/77/41 46/76/41 34/63/35 33/62/35
f 47/17/3 48/18/4 50/19/5 49/20/6
f 49/20/6 50/19/5 52/21/7 51/22/8
f 51/22/8 52/21/7 54/23/9 53/24/42
f 53/24/42 54/23/9 56/25/11 55/26/12
f 55/26/12 56/25/11 58/27/13 57/28/43
f 57/28/43 58/27/13 60/29/15 59/30/16
f 52/21/7 50/19/5 63/31/17 65/32/18
f 59/30/16 60/29/15 62/33/19 61/34/20
f 61/34/20 62/33/19 48/35/4 47/36/3
f 69/37/21 68/38/22 76/39/23 77/40/24
f 58/27/13 56/25/11 67/41/25 68/42/22
f 48/35/4 62/33/19 70/43/26 64/44/27
f 50/19/5 48/18/4 64/45/27 63/31/17
f 54/23/9 52/21/7 65/32/18 66/46/28
f 60/29/15 58/27/13 68/42/22 69/47/21
f 56/25/11 54/23/9 66/46/28 67/41/25
f 62/33/19 60/29/15 69/47/21 70/43/26
f 67/48/25 66/49/28 74/50/29 75/51/30
f 65/52/18 63/53/17 71/54/44 73/55/32
f 70/56/26 69/37/21 77/40/24 78/57/45
f 68/38/22 67/48/25 75/51/30 76/39/23
f 66/49/28 65/52/18 73/55/32 74/50/29
f 63/53/17 64/58/27 72/59/34 71/54/44
f 64/60/27 70/56/26 78/57/45 72/61/34
f 79/62/35 80/63/35 82/64/36 81/65/36
f 81/65/36 82/64/36 84/66/37 83/67/37
f 83/67/37 84/66/37 86/68/38 85/69/38
f 85/69/38 86/68/38 88/70/39 87/71/39
f 87/71/39 88/70/39 90/72/40 89/73/40
f 89/74/40 90/75/40 92/76/41 91/77/41
f 91/77/41 92/76/41 80/63/35 79/62/35
usemtl fence
f 93/78/35 94/79/35 96/80/35 95/81/35
