# Blender 4.3.2
# www.blender.org
mtllib BrazoDer_DP.mtl
o BrazoDer_DP
v 0.108194 -0.119995 0.120454
v 0.001567 -0.033334 0.198460
v -0.330139 -0.989693 0.051244
v 0.147660 -0.147069 -0.009914
v 0.123225 -0.097894 -0.180938
v -0.321468 -1.074451 -0.049466
v -0.387701 -1.157036 -0.143216
v -0.416037 -0.948658 0.094822
v -0.566475 -1.460806 0.166966
v -0.496398 -1.489773 0.129976
v -0.475072 -1.516221 0.048676
v -0.508479 -1.527861 -0.035552
v -0.580236 -1.516035 -0.067778
v -0.500346 -1.215042 -0.162260
v -0.642503 -1.488961 -0.032990
v -0.555654 -1.107000 -0.144680
v -0.649735 -1.455715 0.090790
v -0.563582 -0.998134 -0.048002
v -0.501216 -0.927552 0.048310
v -0.198373 0.056380 0.128878
v -0.196355 0.047366 -0.180938
v -0.239053 0.079543 -0.035918
v -0.013439 -0.011398 -0.223784
v -0.496316 -1.198629 -0.171050
v -0.702044 -1.841814 0.071380
v -0.698482 -1.793554 0.194428
v -0.630859 -1.817131 0.225190
v -0.597559 -1.857556 0.105076
v -0.227178 -2.299006 0.125584
v -0.128367 -2.440501 0.180148
v -0.671692 -2.625942 0.230320
v -0.255398 -2.583019 0.049408
v -0.666329 -2.679176 0.066256
v -0.858898 -2.481544 0.021580
v -0.907380 -2.377492 0.262546
v -0.163855 -2.213639 0.267304
v -0.068525 -2.350291 0.352630
v -0.061857 -2.268031 0.515596
v -0.675294 -2.502472 0.576388
v -0.627769 -2.337688 0.528778
v -0.925718 -2.289069 0.510838
v -0.663299 -2.562549 0.392914
v -0.136834 -2.387338 0.332494
v -0.244040 -2.252511 0.254854
v -0.625181 -2.417148 0.266206
v -0.254239 -2.543101 0.208348
v -0.332068 -2.446968 -0.004058
v -0.630868 -2.485658 0.040258
v -0.160313 -2.142068 0.410860
v -0.332950 -2.397001 0.128878
v -0.607875 -1.904931 0.269134
v -0.669336 -2.060452 0.563572
v -0.635311 -2.257046 0.692842
v -0.798512 -2.006940 0.603856
v -0.877064 -2.241848 0.689914
v -0.389790 -2.063128 0.817720
v -0.320117 -2.028902 0.656590
v -0.689482 -2.074123 -0.057524
v -0.731539 -1.922521 0.075778
v -0.757730 -1.830652 0.265474
v -0.762287 -1.789830 0.594700
v -0.404394 -1.843555 0.868258
v -0.327115 -1.847489 0.693940
v -0.639699 -1.815780 0.524386
v -0.583825 -1.993743 0.086764
v -0.557573 -2.133789 -0.037382
v -0.122362 -2.329246 0.632050
v -0.127857 -2.224729 0.801610
v -0.219448 -2.206617 0.522556
v -0.225610 -2.107038 0.677830
v -0.674410 -2.427855 0.819916
v -0.688173 -2.517013 0.636814
vn 0.7988 0.0878 0.5952
vn 0.5533 0.2919 0.7802
vn 0.6364 -0.4367 0.6358
vn 0.9760 0.1034 0.1918
vn 0.9978 -0.0636 -0.0187
vn 0.4725 -0.0105 0.8813
vn 0.8144 0.2575 0.5200
vn 0.9897 -0.0223 -0.1411
vn 0.9054 -0.0766 -0.4177
vn 0.2554 -0.3824 -0.8880
vn 0.1011 0.0890 -0.9909
vn -0.3207 -0.7020 -0.6359
vn -0.6403 0.4818 -0.5982
vn -0.5058 -0.3838 -0.7726
vn -0.7676 0.6389 0.0512
vn -0.9674 -0.0113 -0.2530
vn -0.9119 0.0129 0.4102
vn -0.6626 0.2620 0.7017
vn 0.1360 0.4037 0.9047
vn -0.2578 0.7724 0.5805
vn -0.5691 0.2057 -0.7961
vn -0.3417 0.8424 -0.4167
vn 0.2719 0.2656 -0.9250
vn 0.0981 0.2518 -0.9628
vn -0.1492 0.9766 0.1551
vn 0.5005 0.7500 0.4325
vn 0.8421 0.3763 -0.3863
vn -0.4393 0.5538 -0.7074
vn 0.2563 -0.9313 -0.2589
vn -0.1823 -0.8777 -0.4432
vn 0.3514 -0.8111 -0.4675
vn -0.2581 -0.8201 -0.5107
vn -0.6214 -0.4481 -0.6426
vn 0.9098 0.4147 -0.0198
vn 0.9519 -0.2269 0.2058
vn 0.4017 0.2298 -0.8865
vn 0.6824 -0.4248 0.5949
vn 0.5294 0.8326 -0.1629
vn -0.4855 -0.8071 0.3359
vn -0.1656 -0.4857 0.8583
vn -0.4195 0.1377 -0.8972
vn 0.7391 0.6255 -0.2501
vn 0.7530 -0.0946 -0.6512
vn 0.7942 0.1307 -0.5935
vn -0.7685 0.5502 0.3266
vn 0.7703 0.3954 0.5003
vn -0.4006 0.7805 0.4799
vn 0.8916 -0.1297 0.4338
vn 0.7935 -0.5272 0.3042
vn 0.2720 0.9468 0.1720
vn -0.7027 -0.2612 0.6618
vn -0.0245 0.0549 0.9982
vn 0.2317 -0.6242 -0.7461
vn -0.6812 0.4924 0.5418
vn -0.6363 0.7461 -0.1963
vn 0.3283 0.3298 -0.8851
vn 0.8610 0.5082 0.0217
vn 0.7341 0.6471 0.2061
vn -0.1173 0.0631 -0.9911
vn 0.5197 -0.0070 -0.8543
vn -0.3734 0.9194 -0.1237
vn 0.5638 -0.7086 -0.4243
vn 0.6936 0.1474 0.7052
vn 0.3662 0.9274 -0.0765
vn 0.6745 0.3800 0.6330
vn 0.2968 -0.1791 0.9380
vn 0.8538 -0.0613 0.5170
vn 0.4535 -0.8673 -0.2054
vn 0.7957 -0.4366 -0.4198
vn 0.4456 -0.1427 0.8838
vn 0.7023 0.2434 0.6690
vn -0.1894 -0.8153 0.5472
vt 0.218750 1.222656
vt 0.058594 1.222656
s 1
usemtl mesh0136mat
f 3/1/1 4/1/2 1/1/3
f 5/1/4 4/1/2 6/1/5
f 4/1/2 3/1/1 6/1/5
f 9/1/6 10/1/7 3/1/1
f 3/1/1 10/1/7 6/1/5
f 6/1/5 11/1/8 7/1/9
f 12/1/10 13/1/11 7/1/9
f 14/1/12 15/1/13 16/1/14
f 15/1/13 17/1/15 16/1/14
f 16/1/14 17/1/15 18/1/16
f 17/1/15 19/1/17 18/1/16
f 18/1/16 19/1/17 20/1/18
f 20/1/18 8/1/19 2/1/20
f 9/1/6 8/1/19 17/1/15
f 16/1/14 18/1/16 21/1/21
f 21/1/21 18/1/16 22/1/22
f 18/1/16 20/1/18 22/1/22
f 23/1/23 7/1/9 24/1/24
f 16/1/14 21/1/21 23/1/23
f 17/2/15 26/2/25 9/2/6
f 26/2/25 27/2/26 9/2/6
f 9/2/6 27/2/26 10/2/7
f 10/2/7 27/2/26 11/2/8
f 27/2/26 28/2/27 11/2/8
f 11/2/8 28/2/27 12/2/10
f 12/2/10 28/2/27 13/2/11
f 25/2/28 17/2/15 15/2/13
f 6/1/5 7/1/9 5/1/4
f 8/1/19 9/1/6 3/1/1
f 10/1/7 11/1/8 6/1/5
f 11/1/8 12/1/10 7/1/9
f 7/1/9 13/1/11 14/1/12
f 13/1/11 15/1/13 14/1/12
f 19/1/17 8/1/19 20/1/18
f 8/1/19 3/1/1 2/1/20
f 2/1/20 3/1/1 1/1/3
f 17/1/15 8/1/19 19/1/17
f 5/1/4 7/1/9 23/1/23
f 7/1/9 14/1/12 24/1/24
f 14/1/12 16/1/14 24/1/24
f 24/1/24 16/1/14 23/1/23
f 25/2/28 26/2/25 17/2/15
f 28/2/27 25/2/28 13/2/11
f 13/2/11 25/2/28 15/2/13
f 32/2/29 31/2/30 33/2/31
f 33/2/31 31/2/30 34/2/32
f 31/2/30 35/2/33 34/2/32
f 36/2/34 38/2/35 37/2/36
f 37/2/36 38/2/35 39/2/37
f 40/2/38 41/2/39 39/2/37
f 39/2/37 35/2/33 42/2/40
f 29/2/41 31/2/30 45/2/42
f 32/2/29 33/2/31 47/2/43
f 47/2/43 33/2/31 48/2/44
f 39/2/37 42/2/40 37/2/36
f 42/2/40 45/2/42 37/2/36
f 37/2/36 45/2/42 36/2/34
f 38/2/35 49/2/45 40/2/38
f 46/2/46 50/2/47 45/2/42
f 45/2/42 50/2/47 48/2/44
f 49/2/45 36/2/34 40/2/38
f 36/2/34 45/2/42 40/2/38
f 45/2/42 51/2/48 40/2/38
f 51/2/48 52/2/49 40/2/38
f 40/2/38 52/2/49 53/2/50
f 53/2/50 54/2/51 55/2/52
f 54/2/51 41/2/39 55/2/52
f 57/2/53 54/2/51 52/2/49
f 33/2/31 34/2/32 48/2/44
f 60/2/54 54/2/51 61/2/55
f 63/2/56 52/2/49 64/2/57
f 52/2/49 51/2/48 64/2/57
f 64/2/57 51/2/48 60/2/54
f 51/2/48 27/2/26 60/2/54
f 27/2/26 26/2/25 60/2/54
f 63/2/56 64/2/57 62/2/58
f 62/2/58 64/2/57 61/2/55
f 64/2/57 60/2/54 61/2/55
f 59/2/59 65/2/60 58/2/61
f 58/2/61 66/2/62 48/2/44
f 48/2/44 66/2/62 45/2/42
f 45/2/42 65/2/60 51/2/48
f 51/2/48 65/2/60 27/2/26
f 27/2/26 65/2/60 28/2/27
f 68/2/63 69/2/64 70/2/65
f 40/2/38 53/2/50 70/2/65
f 70/2/65 53/2/50 68/2/63
f 53/2/50 71/2/66 68/2/63
f 68/2/63 71/2/66 67/2/67
f 71/2/66 72/2/68 67/2/67
f 69/2/64 72/2/68 40/2/38
f 40/2/38 72/2/68 41/2/39
f 41/2/39 72/2/68 55/2/52
f 72/2/68 71/2/66 55/2/52
f 55/2/52 71/2/66 53/2/50
f 29/2/41 30/2/69 31/2/30
f 38/2/35 40/2/38 39/2/37
f 41/2/39 35/2/33 39/2/37
f 35/2/33 31/2/30 42/2/40
f 42/2/40 31/2/30 43/2/70
f 31/2/30 30/2/69 43/2/70
f 43/2/70 30/2/69 44/2/71
f 30/2/69 29/2/41 44/2/71
f 44/2/71 29/2/41 45/2/42
f 45/2/42 31/2/30 46/2/46
f 31/2/30 32/2/29 46/2/46
f 46/2/46 32/2/29 47/2/43
f 44/2/71 45/2/42 43/2/70
f 43/2/70 45/2/42 42/2/40
f 48/2/44 50/2/47 47/2/43
f 50/2/47 46/2/46 47/2/43
f 38/2/35 36/2/34 49/2/45
f 52/2/49 54/2/51 53/2/50
f 56/2/72 54/2/51 57/2/53
f 48/2/44 34/2/32 58/2/61
f 34/2/32 35/2/33 58/2/61
f 58/2/61 35/2/33 59/2/59
f 35/2/33 41/2/39 59/2/59
f 59/2/59 41/2/39 60/2/54
f 41/2/39 54/2/51 60/2/54
f 54/2/51 56/2/72 61/2/55
f 61/2/55 56/2/72 62/2/58
f 56/2/72 57/2/53 62/2/58
f 62/2/58 57/2/53 63/2/56
f 57/2/53 52/2/49 63/2/56
f 26/2/25 25/2/28 60/2/54
f 60/2/54 25/2/28 59/2/59
f 25/2/28 65/2/60 59/2/59
f 65/2/60 66/2/62 58/2/61
f 66/2/62 65/2/60 45/2/42
f 65/2/60 25/2/28 28/2/27
f 67/2/67 69/2/64 68/2/63
f 69/2/64 40/2/38 70/2/65
f 67/2/67 72/2/68 69/2/64
f 1/1/3 4/1/2 5/1/4 23/1/23 21/1/21 22/1/22 20/1/18 2/1/20
