# Blender 4.3.2
# www.blender.org
mtllib BrazoDer_Sam.mtl
o BrazoDer_Sam
v -2.882518 -2.572548 0.529914
v -2.812391 -2.714985 -0.387201
v -2.700241 -2.808522 0.108269
v -2.812391 -2.714985 -0.387201
v -3.134345 -2.362049 -0.582679
v -3.423140 -2.015166 -0.332756
v -3.462006 -1.935962 0.176315
v -3.221394 -2.183852 0.560390
v -1.848384 -1.218390 -0.310483
v -2.333986 -1.591537 -0.319135
v -2.426905 -1.484406 -0.239727
v -1.823683 -1.192533 0.255472
v -1.910300 -1.056649 0.160149
v -2.441790 -1.492340 0.150609
v -2.477480 -1.434693 -0.051385
v -1.927010 -0.979714 -0.045800
v -1.900062 -1.051437 -0.317451
v -1.690727 -0.781735 -0.012088
v -1.540353 -0.759387 0.196043
v -1.482701 -0.714183 0.191347
v -1.397134 -0.864850 0.292722
v -1.298588 -0.792420 0.284670
v -1.274040 -1.004784 0.197385
v -1.188267 -0.943314 0.190675
v -1.150307 -1.012120 -0.044307
v -0.424409 -0.494036 -0.069827
v -0.478115 -0.418974 -0.333673
v -1.383298 -1.172156 -0.015443
v -1.332917 -1.047505 0.202093
v -1.408324 -0.657191 0.184637
v 0.020694 -0.146839 -0.266539
v -0.001178 -0.276415 0.000002
v -0.476007 -0.419210 0.195373
v -1.786415 -1.167466 -0.340031
v -1.581284 -1.232074 -0.216853
v -1.690235 -1.314176 -0.310795
v -1.628288 -1.351749 -0.046742
v -1.700687 -1.319956 0.164629
v -0.021169 0.059789 0.410214
v -0.697277 -0.098339 0.194702
v -0.585379 -0.259874 0.294736
v -1.464934 -0.604022 -0.042964
v -1.797670 -0.966450 -0.219537
v -2.240273 -1.708505 -0.242178
v -2.209994 -1.758608 -0.044294
v -2.254947 -1.717450 0.145261
v -2.359252 -1.598241 0.229737
v 0.008727 -0.180959 0.304141
v 0.022601 0.067034 -0.398803
v -0.033385 0.334587 -0.271236
v -0.156074 0.339304 0.010078
v -0.087211 0.273623 0.294736
v -0.581217 -0.266546 -0.437072
v -0.703127 -0.093407 -0.328304
v -0.746167 -0.029798 -0.065118
v -1.431891 -0.669060 -0.289365
v -1.323301 -0.818264 -0.377321
v -1.208219 -0.959228 -0.289365
v -2.674806 -2.390495 0.517536
v -2.493021 -2.627233 0.095651
v -3.013546 -2.001684 0.547365
v -2.605322 -2.533047 -0.399735
v -2.605322 -2.533047 -0.399735
v -2.926635 -2.179984 -0.595056
v -3.215428 -1.833100 -0.345143
v -3.254294 -1.753908 0.163936
v -2.812391 -2.714985 -0.387201
v -2.605322 -2.533047 -0.399735
v -2.700241 -2.808522 0.108269
v -2.493021 -2.627233 0.095651
v -2.882518 -2.572548 0.529914
v -2.674806 -2.390495 0.517536
v -3.221394 -2.183852 0.560390
v -3.013546 -2.001684 0.547365
v -3.462006 -1.935962 0.176315
v -3.254294 -1.753908 0.163936
v -3.423140 -2.015166 -0.332756
v -3.215428 -1.833100 -0.345143
v -3.134345 -2.362049 -0.582679
v -2.926635 -2.179984 -0.595056
v -2.812391 -2.714985 -0.387201
v -2.605322 -2.533047 -0.399735
v -3.842847 -2.907884 -0.452110
v -3.840189 -2.898147 -0.238108
v -4.234654 -3.112094 -0.213634
v -4.626091 -3.247433 -0.360900
v -4.514036 -3.313649 -0.347023
v -4.635646 -3.223504 -0.267970
v -4.512929 -3.302521 -0.269563
v -3.824054 -2.877698 0.201689
v -3.875619 -2.883158 -0.021207
v -3.829589 -2.885465 -0.027789
v -3.168457 -2.500227 -0.159787
v -3.227500 -2.612068 -0.395077
v -3.303277 -2.394145 -0.362536
v -3.213211 -2.392051 -0.202954
v -3.246550 -2.272234 -0.105874
v -3.089900 -2.288884 -0.178390
v -3.159360 -2.216644 -0.123219
v -3.235728 -2.249842 0.075628
v -3.192919 -2.184528 0.015877
v -3.213861 -2.263628 0.237411
v -3.171609 -2.211579 0.157184
v -3.173481 -2.369220 0.243550
v -3.107086 -2.282092 0.217996
v -3.135561 -2.493163 0.170016
v -3.036988 -2.354206 0.162993
v -3.153908 -2.491668 0.004912
v -3.002789 -2.386184 0.024045
v -3.024740 -2.359272 -0.117410
v -3.530793 -2.475754 0.508131
v -3.252765 -2.392243 0.533187
v -3.189295 -2.586740 0.437130
v -3.505351 -2.783444 0.181806
v -3.609757 -2.769922 0.157799
v -3.559779 -2.696584 0.400215
v -3.496223 -2.673812 0.508461
v -3.818277 -2.884095 0.237503
v -3.917261 -2.730269 0.582127
v -3.889576 -2.704348 0.584763
v -3.907200 -2.628797 0.502335
v -3.958982 -2.586361 0.335611
v -3.940947 -2.570174 0.211566
v -3.965836 -2.586332 0.078593
v -3.988133 -2.631846 0.053247
v -3.961627 -2.554479 -0.071442
v -3.976103 -2.590859 -0.150298
v -3.970958 -2.615084 -0.299025
v -3.981133 -2.663315 -0.360848
v -3.993718 -2.700741 -0.396345
v -4.275795 -2.945492 -0.388599
v -3.999427 -2.622771 -0.191200
v -3.963455 -2.633149 0.354148
v -3.964268 -2.632987 0.311928
v -4.584471 -3.476043 -0.127091
v -4.584968 -3.499836 -0.195603
v -4.726386 -3.433751 -0.212897
v -4.735907 -3.410849 -0.122877
v -4.222850 -3.093039 -0.056758
v -4.652649 -3.572269 0.413442
v -4.743881 -3.539016 0.462545
v -4.663777 -3.554391 0.365863
v -4.753903 -3.519848 0.406158
v -4.316907 -3.072129 0.561809
v -4.354490 -3.003313 0.392127
v -4.854433 -3.520585 0.122812
v -4.748222 -3.584620 0.077707
v -4.845626 -3.541363 0.215998
v -4.740132 -3.599489 0.154249
v -4.232519 -3.145244 0.209448
v -3.645183 -2.889425 0.968235
v -3.692720 -2.824759 0.837212
v -3.635904 -2.982792 0.866950
v -3.653746 -2.915848 0.743085
v -3.308381 -2.690158 0.647013
v -3.302905 -2.501496 0.734393
v -3.501016 -2.516894 0.648606
v -4.288659 -2.913893 0.301784
v -4.308794 -2.907694 0.096279
v -4.340537 -2.958278 0.303716
v -4.370431 -2.960234 0.101947
v -4.331609 -2.932649 -0.232637
v -4.319956 -2.982023 -0.382150
v -4.233333 -3.126827 -0.360452
v -4.260632 -3.026183 0.562343
v -3.772588 -2.925739 0.461912
v -4.228746 -3.237147 0.454161
v -4.255963 -3.172666 0.295727
v -4.308912 -2.953224 0.390854
v -4.323658 -2.968881 -0.225626
v -4.260211 -3.138563 0.024998
v -4.346020 -2.939301 -0.060719
v -4.271260 -2.912934 -0.225011
v -4.288913 -2.876398 -0.053803
v -4.292496 -2.895848 -0.231457
vn -0.1081 -0.0998 -0.9891
vn -0.0896 -0.0357 -0.9953
vn -0.5412 0.5337 -0.6498
vn -0.0977 -0.0399 0.9944
vn -0.5387 0.5771 0.6139
vn -0.5295 0.5798 0.6192
vn -0.6803 0.7325 -0.0267
vn -0.6417 0.7669 -0.0100
vn -0.4610 0.5854 -0.6670
vn -0.6283 0.7780 0.0011
vn -0.4407 0.6397 0.6297
vn -0.4381 0.6391 0.6322
vn 0.0416 0.0706 0.9966
vn 0.0053 0.0373 0.9993
vn 0.4764 -0.5915 0.6505
vn 0.4618 -0.6053 0.6484
vn 0.5759 -0.8175 -0.0000
vn 0.5248 -0.8508 -0.0245
vn 0.4149 -0.6331 -0.6535
vn 0.5810 -0.8139 0.0041
vn 0.4963 -0.5869 0.6398
vn -0.4589 0.6263 0.6302
vn 0.4286 -0.6446 -0.6330
vn 0.4473 -0.8942 -0.0202
vn 0.3425 -0.6848 0.6432
vn -0.1199 -0.0758 -0.9899
vn 0.3642 -0.6724 -0.6444
vn 0.4641 -0.5973 -0.6541
vn 0.5818 -0.8133 -0.0076
vn 0.4097 -0.6625 0.6270
vn -0.2166 0.0487 0.9751
vn -0.4822 0.6087 0.6300
vn -0.1034 -0.0390 0.9939
vn -0.6255 0.7801 0.0096
vn -0.5585 0.5197 -0.6465
vn 0.4246 -0.6342 -0.6462
vn 0.5972 -0.8021 0.0035
vn 0.4642 -0.6130 0.6393
vn -0.0443 0.0114 0.9990
vn 0.1854 -0.6591 0.7288
vn -0.4754 0.6081 0.6357
vn 0.0211 0.0828 -0.9963
vn -0.0017 0.0040 -1.0000
vn -0.3881 0.6403 -0.6629
vn -0.4297 0.6374 -0.6396
vn -0.5525 0.8335 -0.0023
vn -0.5775 0.8164 0.0026
vn -0.5216 0.5519 -0.6506
vn -0.0886 -0.0682 -0.9937
vn 0.3890 -0.6496 -0.6532
vn 0.2942 -0.4885 -0.8215
vn 0.5636 -0.8250 0.0419
vn 0.5210 -0.8522 0.0479
vn -0.7804 -0.2075 -0.5899
vn 0.0227 -0.8733 -0.4866
vn -0.8786 0.0009 0.4776
vn -0.0118 -0.8077 0.5895
vn 0.2644 -0.9401 0.2154
vn 0.3532 -0.9352 0.0273
vn 0.2360 -0.9713 0.0286
vn 0.7445 -0.6034 -0.2856
vn 0.6827 -0.4486 -0.5767
vn 0.2172 0.6568 -0.7221
vn 0.6206 0.3160 -0.7177
vn -0.4054 0.8262 -0.3913
vn -0.0473 -0.0178 -0.9987
vn -0.6172 0.4854 -0.6192
vn -0.5398 0.8408 0.0404
vn -0.7223 0.6832 -0.1075
vn 0.1249 0.8611 0.4928
vn -0.2632 0.7705 0.5805
vn 0.7732 0.1586 0.6140
vn 0.1134 0.1202 0.9863
vn 0.7699 -0.6146 0.1716
vn 0.5836 -0.5379 0.6084
vn 0.5415 -0.8397 -0.0408
vn 0.6840 -0.7228 0.0984
vn 0.6172 -0.5218 -0.5889
vn -0.4453 0.6864 0.5750
vn 0.4511 0.7373 0.5029
vn 0.9015 -0.4145 0.1242
vn 0.1464 -0.9575 -0.2484
vn 0.3613 -0.9319 -0.0325
vn 0.0617 -0.8741 0.4818
vn -0.4787 -0.8734 -0.0899
vn 0.1025 -0.8749 -0.4733
vn -0.2074 0.1334 0.9691
vn -0.1245 0.1989 0.9721
vn -0.4704 0.7407 0.4797
vn -0.6927 0.6914 0.2050
vn -0.5470 0.8356 0.0505
vn -0.6752 0.7377 0.0033
vn -0.7779 0.6273 0.0366
vn -0.5674 0.8150 -0.1174
vn -0.5896 0.8038 -0.0793
vn -0.4686 0.8052 -0.3634
vn -0.2428 0.6381 -0.7306
vn -0.2928 0.4662 -0.8348
vn -0.4103 0.3584 -0.8386
vn -0.7467 0.6533 -0.1251
vn -0.9231 0.3840 -0.0234
vn -0.8960 0.2134 0.3894
vn 0.1530 -0.7385 0.6566
vn 0.1695 -0.8942 -0.4142
vn -0.7517 -0.3069 -0.5837
vn -0.8582 -0.1114 0.5010
vn 0.3335 -0.5556 0.7616
vn 0.2090 -0.9603 0.1846
vn -0.6659 -0.4006 0.6294
vn -0.0868 -0.5813 -0.8091
vn -0.9277 -0.0564 -0.3691
vn -0.2853 0.1752 0.9423
vn -0.7268 0.6034 -0.3282
vn -0.9084 -0.0241 -0.4174
vn -0.0504 -0.6698 -0.7409
vn -0.6905 -0.3028 0.6569
vn 0.1609 -0.9448 0.2853
vn 0.5174 -0.6821 0.5167
vn -0.2335 -0.1707 0.9573
vn -0.9477 0.2992 0.1112
vn -0.1344 -0.9680 0.2119
vn -0.5096 -0.5987 -0.6180
vn 0.7318 -0.6656 0.1467
vn 0.4571 0.5184 0.7227
vn -0.6544 0.6284 0.4205
vn -0.3493 0.3815 0.8558
vn -0.5948 0.6082 -0.5256
vn -0.3781 0.3512 0.8566
vn -0.6266 0.5933 -0.5052
vn -0.6054 0.6145 0.5058
vn -0.4152 0.3803 -0.8264
vn 0.3238 -0.6959 -0.6411
vn -0.2211 0.1878 0.9570
vn 0.6637 -0.6328 0.3989
vn 0.5368 -0.7712 0.3422
vn 0.0862 -0.3193 -0.9437
vn -0.6890 0.6561 -0.3079
vn -0.6745 0.5197 0.5243
vn 0.2517 -0.4391 -0.8625
vn -0.6343 0.4791 0.6067
vn -0.6227 0.5755 0.5302
vn -0.6290 0.4880 0.6052
vn -0.6021 0.6229 0.4993
vn -0.7507 -0.6591 0.0453
vn -0.7499 -0.6600 0.0452
vn -0.7503 -0.6595 0.0451
vn -0.7510 -0.6587 0.0453
vn -0.7509 -0.6588 0.0453
vn -0.7513 -0.6585 0.0454
vn -0.7511 -0.6586 0.0452
vn -0.7512 -0.6585 0.0456
vn 0.7515 0.6582 -0.0455
vn 0.7516 0.6581 -0.0453
vn 0.7512 0.6585 -0.0455
vn 0.7512 0.6584 -0.0456
vn 0.7513 0.6584 -0.0456
vn 0.7513 0.6584 -0.0454
vn 0.7506 0.6593 -0.0452
vn 0.4679 -0.5785 -0.6681
vn 0.4674 -0.5786 -0.6684
vn 0.6554 -0.7371 0.1646
vn 0.6552 -0.7375 0.1640
vn 0.3498 -0.3398 0.8730
vn 0.3500 -0.3394 0.8731
vn -0.2184 0.3147 0.9237
vn -0.2185 0.3150 0.9236
vn -0.6233 0.7305 0.2789
vn -0.6234 0.7303 0.2794
vn -0.5577 0.5971 -0.5765
vn -0.5578 0.5972 -0.5763
vn -0.0724 0.0147 -0.9973
vn -0.0723 0.0147 -0.9973
vt 0.109400 1.796900
vt 0.105500 1.761700
vt 0.109400 1.765600
vt 0.144500 1.796900
vt 0.136700 1.800800
vt 0.132800 1.765600
vt 0.121100 1.765600
vt 0.125000 1.804700
vt 0.109400 1.804700
vt 0.128900 1.820300
vt 0.140600 1.824200
vt 0.144500 1.828100
vt 0.148400 1.820300
vt 0.152300 1.824200
vt 0.148400 1.816400
vt 0.136700 1.820300
vt 0.152300 1.867200
vt 0.136700 1.871100
vt 0.132800 1.808600
vt 0.144500 1.812500
vt 0.144500 1.832000
vt 0.156300 1.906300
vt 0.171900 1.898400
vt 0.164100 1.867200
vt 0.109400 1.800800
vt 0.117200 1.800800
vt 0.113300 1.793000
vt 0.128900 1.793000
vt 0.140600 1.793000
vt 0.191400 1.906300
vt 0.164100 1.878900
vt 0.168000 1.871100
vt 0.128900 1.835900
vt 0.113300 1.812500
vt 0.113300 1.757800
vt 0.125000 1.753900
vt 0.136700 1.757800
vt 0.140600 1.761700
vt 0.187500 1.898400
vt 0.183600 1.914100
vt 0.148400 1.918000
vt 0.128900 1.878900
vt 0.152300 1.921900
vt 0.132800 1.882800
vt 0.168000 1.921900
vt 0.148400 1.882800
vt 0.117200 1.835900
vt 0.113300 1.832000
vt 0.121100 1.824200
vt 0.097700 1.644500
vt 0.109400 1.648400
vt 0.109400 1.625000
vt 0.101600 1.601600
vt 0.105500 1.601600
vt 0.132800 1.652300
vt 0.121100 1.648400
vt 0.117200 1.691400
vt 0.105500 1.679700
vt 0.101600 1.687500
vt 0.109400 1.695300
vt 0.113300 1.699200
vt 0.113300 1.703100
vt 0.113300 1.707000
vt 0.125000 1.703100
vt 0.121100 1.707000
vt 0.132800 1.703100
vt 0.128900 1.707000
vt 0.136700 1.699200
vt 0.136700 1.703100
vt 0.132800 1.695300
vt 0.125000 1.691400
vt 0.117200 1.703100
vt 0.148400 1.683600
vt 0.152300 1.699200
vt 0.148400 1.691400
vt 0.136700 1.668000
vt 0.132800 1.664100
vt 0.148400 1.675800
vt 0.152300 1.675800
vt 0.136700 1.652300
vt 0.148400 1.660200
vt 0.148400 1.664100
vt 0.144500 1.664100
vt 0.125000 1.664100
vt 0.121100 1.660200
vt 0.117200 1.656300
vt 0.113300 1.660200
vt 0.105500 1.660200
vt 0.101600 1.656300
vt 0.097700 1.652300
vt 0.093800 1.652300
vt 0.097700 1.628900
vt 0.105500 1.656300
vt 0.136700 1.660200
vt 0.132800 1.660200
vt 0.117200 1.593800
vt 0.113300 1.593800
vt 0.109400 1.589800
vt 0.117200 1.589800
vt 0.117200 1.625000
vt 0.156300 1.593800
vt 0.156300 1.589800
vt 0.152300 1.593800
vt 0.152300 1.589800
vt 0.152300 1.628900
vt 0.144500 1.628900
vt 0.125000 1.582000
vt 0.128900 1.585900
vt 0.132800 1.582000
vt 0.132800 1.585900
vt 0.132800 1.625000
vt 0.183600 1.664100
vt 0.171900 1.664100
vt 0.179700 1.660200
vt 0.171900 1.660200
vt 0.164100 1.687500
vt 0.164100 1.691400
vt 0.156300 1.683600
vt 0.132800 1.632800
vt 0.121100 1.632800
vt 0.132800 1.628900
vt 0.121100 1.628900
vt 0.105500 1.628900
vt 0.097700 1.625000
vt 0.101600 1.621100
vt 0.152300 1.632800
vt 0.148400 1.656300
vt 0.152300 1.625000
vt 0.140600 1.625000
vt 0.140600 1.632800
vt 0.121100 1.625000
vt 0.109400 1.628900
vt 0.117200 1.632800
vt 0.914100 1.664100
vt 0.953100 1.664100
vt 0.941400 1.664100
vt 0.855500 1.664100
vt 0.867200 1.664100
vt 0.882800 1.664100
vt 0.898400 1.664100
vt 0.910200 1.664100
vt 0.925800 1.695300
vt 0.941400 1.695300
vt 0.914100 1.695300
vt 0.953100 1.695300
vt 0.855500 1.695300
vt 0.867200 1.695300
vt 0.882800 1.695300
vt 0.898400 1.695300
vt 0.925800 1.664100
vt 0.910200 1.695300
s 1
usemtl Mesh_0233_rip
f 9/1/1 10/2/2 11/3/3
f 12/4/4 13/5/5 14/6/6
f 14/6/6 13/5/5 15/7/7
f 13/5/5 16/8/8 15/7/7
f 15/7/7 16/8/8 11/3/3
f 16/8/8 17/9/9 11/3/3
f 11/3/3 17/9/9 9/1/1
f 17/9/9 16/8/8 18/10/10
f 16/8/8 19/11/11 18/10/10
f 18/10/10 19/11/11 20/12/12
f 19/11/11 21/13/13 20/12/12
f 20/12/12 21/13/13 22/14/14
f 21/13/13 23/15/15 22/14/14
f 22/14/14 23/15/15 24/13/16
f 23/15/15 25/16/17 24/13/16
f 24/13/16 25/16/17 26/17/18
f 25/16/17 27/18/19 26/17/18
f 25/16/17 23/15/15 28/19/20
f 28/19/20 23/15/15 29/20/21
f 23/15/15 21/13/13 29/20/21
f 29/20/21 21/13/13 12/4/4
f 12/4/4 21/13/13 13/5/5
f 21/13/13 19/11/11 13/5/5
f 13/5/5 19/11/11 16/8/8
f 18/10/10 20/12/12 30/21/22
f 31/22/23 32/23/24 26/17/18
f 32/23/24 33/24/25 26/17/18
f 26/17/18 33/24/25 24/13/16
f 33/24/25 22/14/14 24/13/16
f 34/25/26 35/26/27 36/27/28
f 36/27/28 35/26/27 37/28/29
f 35/26/27 28/19/20 37/28/29
f 37/28/29 28/19/20 38/29/30
f 28/19/20 29/20/21 38/29/30
f 38/29/30 29/20/21 12/4/4
f 39/30/31 40/31/32 41/32/33
f 41/32/33 40/31/32 30/21/22
f 40/31/32 42/33/34 30/21/22
f 30/21/22 42/33/34 18/10/10
f 42/33/34 43/34/35 18/10/10
f 18/10/10 43/34/35 17/9/9
f 43/34/35 34/25/26 17/9/9
f 17/9/9 34/25/26 9/1/1
f 34/25/26 36/27/28 9/1/1
f 9/1/1 36/27/28 10/2/2
f 10/2/2 36/27/28 44/35/36
f 44/35/36 36/27/28 45/36/37
f 36/27/28 37/28/29 45/36/37
f 45/36/37 37/28/29 46/37/38
f 37/28/29 38/29/30 46/37/38
f 46/37/38 38/29/30 47/38/39
f 38/29/30 12/4/4 47/38/39
f 47/38/39 12/4/4 14/6/6
f 48/39/40 39/30/31 41/32/33
f 20/12/12 22/14/14 30/21/22
f 30/21/22 22/14/14 41/32/33
f 22/14/14 33/24/25 41/32/33
f 41/32/33 33/24/25 48/39/40
f 33/24/25 32/23/24 48/39/40
f 52/40/41 40/31/32 39/30/31
f 26/17/18 27/18/19 31/22/23
f 31/22/23 27/18/19 49/41/42
f 27/18/19 53/42/43 49/41/42
f 49/41/42 53/42/43 50/43/44
f 53/42/43 54/44/45 50/43/44
f 50/43/44 54/44/45 51/45/46
f 54/44/45 55/46/47 51/45/46
f 51/45/46 55/46/47 52/40/41
f 52/40/41 55/46/47 40/31/32
f 40/31/32 55/46/47 42/33/34
f 55/46/47 56/47/48 42/33/34
f 42/33/34 56/47/48 43/34/35
f 43/34/35 56/47/48 34/25/26
f 56/47/48 57/48/49 34/25/26
f 34/25/26 57/48/49 35/26/27
f 57/48/49 58/49/50 35/26/27
f 35/26/27 58/49/50 28/19/20
f 58/49/50 25/16/17 28/19/20
f 25/16/17 58/49/50 27/18/19
f 27/18/19 58/49/50 53/42/43
f 58/49/50 57/48/49 53/42/43
f 53/42/43 57/48/49 54/44/45
f 57/48/49 56/47/48 54/44/45
f 54/44/45 56/47/48 55/46/47
f 83/50/51 84/51/52 85/52/53
f 86/53/54 87/53/55 88/54/56
f 87/53/55 89/54/57 88/54/56
f 88/54/56 89/54/57 85/52/53
f 90/55/58 91/56/59 92/56/60
f 91/56/59 84/51/52 92/56/60
f 92/56/60 84/51/52 93/57/61
f 84/51/52 83/50/51 93/57/61
f 93/57/61 83/50/51 94/58/62
f 83/50/51 95/59/63 94/58/62
f 94/58/62 95/59/63 96/60/64
f 95/59/63 97/61/65 96/60/64
f 96/60/64 97/61/65 98/62/66
f 98/62/66 97/61/65 99/63/67
f 97/61/65 100/64/68 99/63/67
f 99/63/67 100/64/68 101/65/69
f 100/64/68 102/66/70 101/65/69
f 101/65/69 102/66/70 103/67/71
f 102/66/70 104/68/72 103/67/71
f 103/67/71 104/68/72 105/69/73
f 104/68/72 106/70/74 105/69/73
f 105/69/73 106/70/74 107/66/75
f 96/60/64 93/57/61 94/58/62
f 93/57/61 108/71/76 92/56/60
f 106/70/74 108/71/76 107/66/75
f 107/66/75 108/71/76 109/64/77
f 108/71/76 93/57/61 109/64/77
f 109/64/77 93/57/61 110/72/78
f 93/57/61 96/60/64 110/72/78
f 110/72/78 96/60/64 98/62/66
f 111/73/79 112/74/80 102/66/70
f 102/66/70 112/74/80 104/68/72
f 112/74/80 113/75/81 104/68/72
f 104/68/72 113/75/81 106/70/74
f 113/75/81 114/76/82 106/70/74
f 106/70/74 114/76/82 108/71/76
f 114/76/82 115/77/83 108/71/76
f 115/77/83 114/76/82 116/78/84
f 116/78/84 114/76/82 117/79/85
f 114/76/82 113/75/81 117/79/85
f 108/71/76 115/77/83 92/56/60
f 115/77/83 90/55/58 92/56/60
f 116/78/84 118/80/86 115/77/83
f 115/77/83 118/80/86 90/55/58
f 119/81/87 120/82/88 121/83/89
f 120/82/88 111/73/79 121/83/89
f 111/73/79 102/66/70 121/83/89
f 121/83/89 102/66/70 122/77/90
f 102/66/70 100/64/68 122/77/90
f 122/77/90 100/64/68 123/84/91
f 100/64/68 124/85/92 123/84/91
f 123/84/91 124/85/92 125/86/93
f 125/86/93 124/85/92 126/87/94
f 124/85/92 100/64/68 126/87/94
f 126/87/94 100/64/68 127/88/95
f 100/64/68 97/61/65 127/88/95
f 97/61/65 95/59/63 127/88/95
f 127/88/95 95/59/63 128/89/96
f 95/59/63 129/90/97 128/89/96
f 128/89/96 129/90/97 130/91/98
f 130/91/98 129/90/97 83/50/51
f 129/90/97 95/59/63 83/50/51
f 131/92/99 128/89/96 130/91/98
f 128/89/96 132/93/100 127/88/95
f 132/93/100 126/87/94 127/88/95
f 133/94/101 121/83/89 122/77/90
f 123/84/91 134/95/102 122/77/90
f 122/77/90 134/95/102 133/94/101
f 134/95/102 90/55/58 133/94/101
f 133/94/101 90/55/58 118/80/86
f 85/52/53 135/96/103 136/97/104
f 136/97/104 135/96/103 137/98/105
f 137/98/105 135/96/103 138/99/106
f 138/99/106 135/96/103 139/100/107
f 135/96/103 85/52/53 139/100/107
f 85/52/53 84/51/52 139/100/107
f 139/100/107 84/51/52 91/56/59
f 140/101/108 141/102/109 142/103/110
f 142/103/110 141/102/109 143/104/111
f 141/102/109 144/105/112 143/104/111
f 144/105/112 145/106/113 143/104/111
f 143/104/111 145/106/113 142/103/110
f 146/107/114 147/108/115 148/109/116
f 148/109/116 147/108/115 149/110/117
f 147/108/115 150/111/118 149/110/117
f 149/110/117 150/111/118 148/109/116
f 91/56/59 90/55/58 150/111/118
f 151/112/119 152/113/120 153/114/121
f 153/114/121 152/113/120 154/115/122
f 117/79/85 113/75/81 155/116/123
f 155/116/123 113/75/81 156/117/124
f 113/75/81 112/74/80 156/117/124
f 156/117/124 112/74/80 157/118/125
f 112/74/80 111/73/79 157/118/125
f 158/119/126 159/120/127 160/121/128
f 159/120/127 161/122/129 160/121/128
f 161/122/129 146/107/114 160/121/128
f 146/107/114 148/109/116 160/121/128
f 148/109/116 150/111/118 160/121/128
f 160/121/128 150/111/118 158/119/126
f 150/111/118 90/55/58 158/119/126
f 90/55/58 134/95/102 158/119/126
f 134/95/102 123/84/91 158/119/126
f 158/119/126 123/84/91 159/120/127
f 123/84/91 125/86/93 159/120/127
f 88/54/56 162/123/130 86/53/54
f 162/123/130 163/124/131 86/53/54
f 86/53/54 163/124/131 87/53/55
f 163/124/131 164/125/132 87/53/55
f 87/53/55 164/125/132 89/54/57
f 89/54/57 164/125/132 85/52/53
f 85/52/53 164/125/132 83/50/51
f 83/50/51 164/125/132 130/91/98
f 130/91/98 164/125/132 131/92/99
f 164/125/132 163/124/131 131/92/99
f 131/92/99 163/124/131 162/123/130
f 119/81/87 165/126/133 166/127/134
f 165/126/133 167/128/135 166/127/134
f 166/127/134 167/128/135 118/80/86
f 167/128/135 168/129/136 118/80/86
f 118/80/86 168/129/136 133/94/101
f 133/94/101 168/129/136 169/130/137
f 168/129/136 145/106/113 169/130/137
f 145/106/113 144/105/112 169/130/137
f 169/130/137 144/105/112 165/126/133
f 165/126/133 144/105/112 167/128/135
f 144/105/112 141/102/109 167/128/135
f 141/102/109 140/101/108 167/128/135
f 167/128/135 140/101/108 168/129/136
f 140/101/108 142/103/110 168/129/136
f 168/129/136 142/103/110 145/106/113
f 85/52/53 170/52/138 88/54/56
f 161/122/129 171/131/139 146/107/114
f 146/107/114 171/131/139 147/108/115
f 147/108/115 171/131/139 150/111/118
f 150/111/118 171/131/139 91/56/59
f 171/131/139 125/86/93 91/56/59
f 166/127/134 118/80/86 116/78/84
f 119/81/87 166/127/134 120/82/88
f 120/82/88 166/127/134 111/73/79
f 166/127/134 116/78/84 111/73/79
f 111/73/79 116/78/84 157/118/125
f 116/78/84 117/79/85 157/118/125
f 157/118/125 117/79/85 154/115/122
f 117/79/85 155/116/123 154/115/122
f 154/115/122 155/116/123 153/114/121
f 153/114/121 155/116/123 151/112/119
f 155/116/123 156/117/124 151/112/119
f 151/112/119 156/117/124 152/113/120
f 156/117/124 157/118/125 152/113/120
f 152/113/120 157/118/125 154/115/122
f 139/100/107 172/100/140 138/99/106
f 172/100/140 170/52/138 138/99/106
f 138/99/106 170/52/138 137/98/105
f 137/98/105 170/52/138 136/97/104
f 170/52/138 85/52/53 136/97/104
f 125/86/93 171/131/139 159/120/127
f 159/120/127 171/131/139 161/122/129
f 132/93/100 173/132/141 126/87/94
f 173/132/141 174/133/142 126/87/94
f 126/87/94 174/133/142 125/86/93
f 125/86/93 174/133/142 91/56/59
f 91/56/59 174/133/142 139/100/107
f 139/100/107 174/133/142 172/100/140
f 174/133/142 173/132/141 172/100/140
f 172/100/140 173/132/141 170/52/138
f 88/54/56 170/52/138 162/123/130
f 170/52/138 173/132/141 162/123/130
f 162/123/130 173/132/141 175/123/143
f 173/132/141 132/93/100 175/123/143
f 132/93/100 128/89/96 175/123/143
f 128/89/96 131/92/99 175/123/143
f 175/123/143 131/92/99 162/123/130
f 133/94/101 169/130/137 121/83/89
f 169/130/137 165/126/133 121/83/89
f 121/83/89 165/126/133 119/81/87
f 47/38/39 14/6/6 103/67/71
f 103/67/71 14/6/6 101/65/69
f 14/6/6 15/7/7 101/65/69
f 101/65/69 15/7/7 99/63/67
f 15/7/7 11/3/3 99/63/67
f 99/63/67 11/3/3 98/62/66
f 11/3/3 10/2/2 98/62/66
f 98/62/66 10/2/2 110/72/78
f 10/2/2 44/35/36 110/72/78
f 110/72/78 44/35/36 109/64/77
f 44/35/36 45/36/37 109/64/77
f 109/64/77 45/36/37 107/66/75
f 45/36/37 46/37/38 107/66/75
f 107/66/75 46/37/38 105/69/73
f 46/37/38 47/38/39 105/69/73
f 105/69/73 47/38/39 103/67/71
usemtl New_.001
f 1/134/144 2/135/145 3/136/145
f 4/137/146 1/134/147 5/138/148
f 5/138/148 1/134/147 6/139/149
f 6/139/149 1/134/147 7/140/150
f 7/140/150 1/134/147 8/141/151
f 59/142/152 60/143/153 61/144/154
f 61/144/154 60/143/153 62/145/153
f 63/146/155 64/147/156 61/144/157
f 64/147/156 65/148/154 61/144/157
f 65/148/154 66/149/158 61/144/157
f 67/135/159 68/145/160 69/136/161
f 68/145/160 70/143/162 69/136/161
f 69/136/161 70/143/162 71/150/163
f 70/143/162 72/142/164 71/150/163
f 71/150/163 72/142/164 73/141/165
f 72/142/164 74/151/166 73/141/165
f 73/141/165 74/151/166 75/140/167
f 74/151/166 76/149/168 75/140/167
f 75/140/167 76/149/168 77/139/169
f 76/149/168 78/148/170 77/139/169
f 77/139/169 78/148/170 79/138/171
f 78/148/170 80/147/172 79/138/171
f 79/138/171 80/147/172 81/137/159
f 80/147/172 82/146/160 81/137/159
