# Blender 4.3.2
# www.blender.org
mtllib BrazoIzq_A.mtl
o BrazoIzqA
v 0.554070 0.407598 -0.490767
v -0.419744 -0.179191 -0.581968
v -0.915013 -0.510676 0.405540
v -0.375427 -0.367469 1.352228
v 1.051674 0.480074 0.417740
v 3.045551 -5.656340 -0.206071
v 2.412039 -5.872614 -0.243998
v 2.270238 -6.399626 0.337297
v 2.482877 -6.180616 1.020497
v 3.111733 -5.705503 1.004350
v 3.400729 -5.625568 0.344330
v 4.758193 -10.981097 -0.145299
v 4.546155 -11.010236 0.320479
v 4.561654 -10.662256 0.897546
v 5.270101 -10.508453 0.963299
v 5.412995 -10.327148 0.412114
v 6.002207 -13.686942 -0.369046
v 6.252943 -13.888598 0.031849
v 5.973246 -14.681293 0.060174
v 5.772042 -14.365575 -0.235545
v 6.219369 -13.951797 0.808837
v 6.160955 -13.512198 1.112985
v 6.079057 -12.322843 0.329373
v 5.392509 -11.145304 -0.198815
v 0.568644 0.424038 1.297565
v 4.931739 -11.871753 1.582120
v 4.981174 -13.530871 1.750012
v 5.229656 -13.277618 1.587366
v 5.352993 -12.306571 1.461579
v 4.860117 -13.255442 1.522816
v 5.115409 -12.460105 1.167989
v 5.069944 -13.300903 1.394689
v 5.760601 -13.707481 -0.301799
v 5.447208 -12.556867 -0.285563
v 5.694654 -12.972147 0.733980
v 5.330869 -12.332214 1.000895
v 4.646039 -11.489224 0.981500
v 5.563715 -12.138196 1.310349
v 5.959754 -12.379868 1.105146
v 6.097933 -12.934018 0.781060
v 5.911640 -13.635684 1.057265
v 5.980527 -14.356943 0.780067
v 5.872906 -13.807071 0.118414
v 5.866361 -13.968852 0.617828
v 5.789114 -14.889748 0.496195
v 6.124239 -14.085367 0.613569
v 6.052612 -14.650876 0.870812
vn 0.4819 0.1999 -0.8531
vn -0.5466 -0.2948 -0.7838
vn -0.3997 -0.2217 -0.8895
vn 0.4835 0.1839 -0.8558
vn -0.8889 -0.4238 -0.1741
vn -0.8920 -0.4461 -0.0730
vn -0.6877 -0.0712 0.7225
vn -0.4741 -0.2614 0.8408
vn 0.5503 0.3313 0.7665
vn 0.5207 0.1939 0.8314
vn 0.9276 0.3670 -0.0701
vn 0.9218 0.3813 -0.0698
vn 0.4213 -0.0273 -0.9065
vn 0.9654 -0.1160 -0.2337
vn 0.4678 -0.7711 -0.4319
vn -0.5096 -0.3793 -0.7723
vn 0.9540 0.2472 -0.1693
vn -0.2995 0.1855 0.9359
vn -0.1571 -0.8313 0.5332
vn 0.9196 -0.3397 0.1972
vn 0.7550 -0.2427 0.6092
vn -0.9533 -0.3018 0.0086
vn -0.9327 -0.2958 -0.2062
vn 0.1355 -0.5222 -0.8420
vn 0.1238 -0.5549 -0.8226
vn -0.6890 -0.2132 -0.6927
vn -0.9170 -0.3955 -0.0510
vn -0.6256 -0.7801 -0.0121
vn 0.4762 -0.0850 0.8752
vn 0.7184 -0.0518 0.6937
vn 0.9654 0.1132 0.2351
vn 0.6236 0.0059 0.7817
vn -0.6269 -0.2075 0.7510
vn -0.6928 -0.1082 0.7130
vn -0.9927 -0.0715 0.0968
vn -0.2448 -0.8614 0.4451
vn -0.8181 -0.1546 -0.5540
vn 0.6541 -0.2263 0.7218
vn -0.5926 -0.3129 -0.7422
vn 0.0185 -0.9996 0.0219
vn 0.8725 -0.1160 -0.4747
vn 0.5210 0.1721 -0.8360
vn 0.9344 0.3563 0.0039
vn 0.5353 0.1750 0.8263
vn -0.3793 -0.2469 0.8917
vn -0.8781 -0.4766 -0.0408
vn -0.3535 -0.2318 -0.9063
vt 0.135223 0.736729
vt 0.153300 0.738150
vt 0.153324 0.839066
vt 0.132073 0.838985
vt 0.019600 0.738150
vt 0.036929 0.737222
vt 0.041287 0.831396
vt 0.019581 0.839219
vt 0.060538 0.736811
vt 0.064779 0.834519
vt 0.088095 0.736504
vt 0.089064 0.838441
vt 0.110493 0.737323
vt 0.111487 0.837157
vt 0.325074 0.158926
vt 0.314264 0.159581
vt 0.310300 0.141700
vt 0.320384 0.142413
vt 0.330341 0.221741
vt 0.319306 0.240628
vt 0.308893 0.193293
vt 0.277516 0.226122
vt 0.244331 0.213717
vt 0.252008 0.211324
vt 0.275500 0.212000
vt 0.755078 0.231438
vt 0.774564 0.193075
vt 0.779561 0.186551
vt 0.770936 0.223771
vt 0.760000 0.206800
vt 0.770730 0.190348
vt 0.270600 0.203800
vt 0.250971 0.206745
vt 0.333876 0.191990
vt 0.343863 0.226677
vt 0.727180 0.240214
vt 0.723822 0.202228
vt 0.746637 0.190163
vt 0.739677 0.242025
vt 0.753408 0.206478
vt 0.284860 0.207316
vt 0.276145 0.201904
vt 0.306156 0.241775
vt 0.291787 0.195982
vt 0.295945 0.178134
vt 0.277159 0.176046
vt 0.752200 0.249800
vt 0.293100 0.252300
vt 0.271086 0.178297
vt 0.753282 0.173726
vt 0.742024 0.166910
vt 0.731479 0.171644
vt 0.721785 0.159815
vt 0.737100 0.146500
vt 0.721551 0.175141
vt 0.301249 0.158172
vt 0.299511 0.137961
vt 0.329650 0.155616
vt 0.747161 0.157349
vt 0.749226 0.151741
vt 0.258923 0.160319
vt 0.272780 0.165439
vt 0.295761 0.160071
vt 0.266084 0.156051
vt 0.293895 0.169107
vt 0.133187 0.960817
vt 0.111413 0.961084
vt 0.090087 0.965111
vt 0.065422 0.956823
vt 0.042810 0.956108
vt 0.019600 0.957248
vt 0.153300 0.957243
s 1
usemtl joy_body_mat
f 24/1/1 12/2/2 7/3/3
f 7/3/3 6/4/4 24/1/1
f 12/5/2 13/6/5 8/7/6
f 8/7/6 7/8/3 12/5/2
f 13/6/5 14/9/7 9/10/8
f 9/10/8 8/7/6 13/6/5
f 14/9/7 15/11/9 10/12/10
f 10/12/10 9/10/8 14/9/7
f 15/11/9 16/13/11 11/14/12
f 11/14/12 10/12/10 15/11/9
f 16/13/11 24/1/1 6/4/4
f 6/4/4 11/14/12 16/13/11
f 17/15/13 18/16/14 19/17/15
f 19/17/15 20/18/16 17/15/13
f 24/19/1 16/20/11 23/21/17
f 26/22/18 27/23/19 28/24/20
f 28/24/20 29/25/21 26/22/18
f 37/26/22 30/27/23 27/28/19
f 27/28/19 26/29/18 37/26/22
f 31/30/24 32/31/25 30/27/23
f 30/27/23 37/26/22 31/30/24
f 31/32/24 29/25/21 28/24/20
f 28/24/20 32/33/25 31/32/24
f 32/31/25 27/28/19 30/27/23
f 28/24/20 27/23/19 32/33/25
f 24/19/1 34/34/26 12/35/2
f 12/36/2 34/37/26 35/38/27
f 35/38/27 13/39/5 12/36/2
f 13/39/5 35/38/27 36/40/28
f 36/40/28 37/26/22 13/39/5
f 36/40/28 31/30/24 37/26/22
f 26/22/18 29/25/21 38/41/29
f 36/42/28 38/41/29 29/25/21
f 29/25/21 31/32/24 36/42/28
f 23/21/17 16/20/11 15/43/9
f 15/43/9 39/44/30 23/21/17
f 40/45/31 39/44/30 38/41/29
f 38/41/29 22/46/32 40/45/31
f 40/45/31 23/21/17 39/44/30
f 15/43/9 38/41/29 39/44/30
f 38/41/29 15/43/9 26/22/18
f 14/47/7 37/26/22 26/29/18
f 26/22/18 15/43/9 14/48/7
f 37/26/22 14/47/7 13/39/5
f 36/42/28 41/49/33 22/46/32
f 22/46/32 38/41/29 36/42/28
f 41/50/33 36/40/28 35/38/27
f 44/51/34 43/52/35 20/53/16
f 20/53/16 45/54/36 44/51/34
f 43/52/35 33/55/37 20/53/16
f 19/17/15 18/16/14 46/56/38
f 46/56/38 45/57/36 19/17/15
f 20/18/16 33/58/37 17/15/13
f 45/57/36 20/18/16 19/17/15
f 42/59/39 47/60/40 41/50/33
f 22/46/32 41/49/33 47/61/40
f 21/62/41 22/46/32 47/61/40
f 45/57/36 46/56/38 44/63/34
f 21/62/41 47/61/40 42/64/39
f 44/63/34 46/56/38 40/45/31
f 40/45/31 35/65/27 44/63/34
f 43/52/35 44/51/34 35/38/27
f 34/37/26 33/55/37 43/52/35
f 43/52/35 35/38/27 34/37/26
f 17/15/13 33/58/37 34/34/26
f 34/34/26 24/19/1 17/15/13
f 23/21/17 18/16/14 17/15/13
f 17/15/13 24/19/1 23/21/17
f 40/45/31 46/56/38 18/16/14
f 18/16/14 23/21/17 40/45/31
f 41/50/33 35/38/27 42/59/39
f 40/45/31 21/62/41 42/64/39
f 42/64/39 35/65/27 40/45/31
f 21/62/41 40/45/31 22/46/32
f 6/4/4 1/66/42 5/67/43
f 5/67/43 11/14/12 6/4/4
f 11/14/12 5/67/43 25/68/44
f 25/68/44 10/12/10 11/14/12
f 25/68/44 4/69/45 9/10/8
f 9/10/8 10/12/10 25/68/44
f 4/69/45 3/70/46 8/7/6
f 8/7/6 9/10/8 4/69/45
f 3/70/46 2/71/47 7/8/3
f 7/8/3 8/7/6 3/70/46
f 7/3/3 2/72/47 1/66/42
f 1/66/42 6/4/4 7/3/3
