# Blender 4.3.2
# www.blender.org
mtllib BrazoIzq_H.mtl
o BrazoIzq_H
v -0.235666 -0.048882 0.175384
v -0.221571 -0.033909 -0.267474
v -0.309159 -0.137960 -0.030965
v -0.220660 -0.474253 -0.030099
v -0.099851 -0.466527 -0.248994
v 0.051953 -0.776679 -0.189222
v -0.019178 -0.735365 -0.030965
v -0.023628 -0.964673 -0.030965
v 0.048049 -0.937682 -0.202787
v 0.116321 -1.118571 -0.190273
v 0.277915 -1.067994 -0.251193
v 0.430933 -0.992186 -0.187325
v -0.004675 -0.015766 -0.366750
v 0.011397 -0.141224 -0.327412
v 0.201088 -0.181013 -0.248853
v 0.089134 -0.412340 -0.328276
v 0.312865 -0.701466 -0.190736
v 0.281913 -0.190400 -0.033647
v 0.352158 -0.628891 -0.030965
v 0.244647 -0.367749 0.160437
v 0.303206 -0.644780 0.104241
v 0.103182 -0.461335 0.244551
v 0.159938 -0.672479 0.163318
v 0.026197 -0.697841 0.102273
v 0.221086 -0.872536 0.224759
v 0.048049 -0.937682 0.148338
v 0.279773 -1.079946 0.198095
v 0.116321 -1.118571 0.138947
v 0.230334 -1.293544 0.081189
v 0.195319 -0.008719 -0.261254
v 0.278771 -0.004764 -0.030965
v 0.197005 -0.168034 0.155254
v 0.047980 -0.268812 0.269322
v -0.127752 -0.470395 0.178456
v 0.204710 -0.799875 -0.260722
v 0.394122 -0.807389 -0.202787
v 0.492202 -0.963933 -0.030425
v 0.431610 -1.000901 0.132257
v 0.413643 -2.041769 0.157538
v 0.348203 -1.866672 0.149779
v 0.421064 -1.950638 0.117387
v 0.347637 -1.795722 0.198161
v 0.469614 -2.027902 0.181021
v 0.476523 -2.009939 0.141632
v 0.435463 -1.791610 0.141105
v 0.399054 -1.769788 0.203722
v 0.515700 -1.660431 0.111670
v 0.588885 -1.900821 0.110255
v 0.540861 -1.676691 -0.001476
v 0.595506 -1.895128 0.063335
v 0.598298 -1.898966 0.025428
v 0.593311 -1.896963 -0.061495
v 0.592104 -1.890570 -0.107188
v 0.654815 -2.223239 -0.103836
v 0.654696 -2.218694 -0.064945
v 0.610869 -2.227681 -0.053978
v 0.609628 -2.224110 -0.114818
v 0.599680 -1.897327 -0.023537
v 0.664187 -2.246724 -0.020801
v 0.667246 -2.253550 0.021838
v 0.618370 -2.253359 0.033462
v 0.619820 -2.257293 -0.031729
v 0.582853 -1.889228 -0.141666
v 0.578308 -1.894873 -0.180363
v 0.607235 -2.081049 -0.176297
v 0.627549 -2.149709 -0.144387
v 0.590088 -2.156592 -0.134812
v 0.584023 -2.158250 -0.166620
v 0.651519 -2.221997 0.067274
v 0.654060 -2.218517 0.104907
v 0.610363 -2.227060 0.115455
v 0.613464 -2.230798 0.065523
v 0.011397 -0.141224 0.238855
v -0.004675 -0.015766 0.290896
v 0.195319 -0.008718 0.185400
v 0.409405 -1.618318 0.157042
v 0.457135 -1.520305 0.041541
v 0.478125 -1.518092 -0.031221
v 0.452222 -1.522692 -0.110491
v 0.524200 -1.942453 -0.196999
v 0.626847 -2.157781 -0.174150
v 0.493031 -1.904437 -0.160279
v 0.522560 -1.924354 -0.125666
v 0.483937 -1.899603 -0.084329
v 0.565335 -2.153874 -0.084088
v 0.526378 -1.937563 -0.043080
v 0.484288 -1.908199 0.000719
v 0.570329 -2.176289 0.000747
v 0.526378 -1.937563 0.044572
v 0.580759 -2.135871 0.049494
v 0.564242 -2.148948 0.085163
v 0.652596 -2.229190 0.067538
v 0.395229 -1.737075 -0.021658
v 0.380958 -1.696195 -0.186691
v 0.514274 -1.706111 -0.178994
v 0.326277 -1.642631 0.157042
v 0.387203 -1.541438 0.065018
v 0.465802 -0.780408 -0.030965
v 0.394122 -0.807389 0.148338
v 0.380815 -1.810273 0.105463
v 0.305324 -1.692405 0.080104
v 0.312330 -1.582620 -0.025823
v 0.497262 -1.866765 0.132166
v 0.474636 -1.881631 0.086289
v 0.340723 -1.555283 -0.122428
v 0.333558 -1.566074 0.039803
v 0.187673 -1.305776 -0.030965
v 0.237167 -1.291397 -0.150330
v 0.391888 -1.538140 -0.125678
v 0.614987 -2.105713 -0.175886
v 0.050782 -1.143241 -0.030965
vn -0.9670 -0.2545 -0.0076
vn -0.6196 -0.2344 -0.7491
vn -0.9109 -0.4120 -0.0217
vn -0.6034 -0.3085 -0.7353
vn -0.6906 -0.1882 -0.6983
vn -0.9383 -0.3439 0.0375
vn -0.9810 -0.1934 -0.0159
vn -0.6850 -0.1140 -0.7196
vn -0.5792 -0.4018 -0.7093
vn 0.0694 -0.1520 -0.9859
vn -0.0063 -0.2619 -0.9651
vn -0.0067 -0.1630 -0.9866
vn 0.7326 0.0432 -0.6792
vn 0.0874 -0.0883 -0.9923
vn 0.6684 0.2885 -0.6856
vn 0.9941 0.1074 0.0167
vn 0.9304 0.3665 -0.0071
vn 0.7592 0.1025 0.6428
vn 0.6831 0.2709 0.6782
vn 0.1305 -0.2071 0.9696
vn -0.0225 -0.0405 0.9989
vn -0.6494 -0.2794 0.7072
vn -0.0235 0.0731 0.9970
vn -0.6961 -0.1207 0.7077
vn 0.0732 -0.2027 0.9765
vn -0.5785 -0.4074 0.7067
vn -0.6202 -0.4536 0.6399
vn 0.7467 -0.0228 -0.6647
vn 0.9997 -0.0021 0.0257
vn 0.7442 0.0609 0.6651
vn 0.0949 0.0621 0.9935
vn -0.6083 -0.3669 0.7039
vn 0.0179 -0.0202 -0.9996
vn 0.6355 0.2699 -0.7234
vn 0.7115 0.0182 -0.7025
vn 0.9971 0.0759 -0.0064
vn -0.0830 -0.1562 -0.9842
vn -0.4783 -0.8780 -0.0184
vn -0.9249 -0.3309 -0.1872
vn -0.6589 -0.0498 0.7505
vn 0.5492 -0.5975 0.5843
vn 0.7853 -0.3286 -0.5248
vn 0.6688 -0.1335 0.7314
vn 0.2806 0.1023 0.9544
vn 0.7507 0.3249 0.5752
vn 0.7287 0.1655 0.6646
vn 0.9383 0.3458 -0.0055
vn 0.9977 0.0050 -0.0681
vn 0.9603 -0.0070 0.2788
vn 0.9415 0.0376 -0.3348
vn 0.9885 -0.0279 0.1484
vn 0.7000 -0.5238 -0.4854
vn 0.7463 -0.4148 0.5205
vn -0.2783 -0.7020 0.6555
vn -0.9419 -0.3359 0.0067
vn -0.3142 -0.6547 -0.6874
vn 0.9640 0.0187 -0.2651
vn 0.7367 -0.3858 -0.5553
vn 0.7121 -0.5289 0.4616
vn -0.3231 -0.6494 0.6884
vn -0.9421 -0.3353 -0.0033
vn -0.2788 -0.7008 -0.6566
vn 0.7332 0.1771 -0.6565
vn 0.9999 -0.0121 0.0090
vn 0.7517 0.1557 -0.6409
vn 0.7762 -0.3526 0.5227
vn 0.6264 -0.3174 -0.7119
vn 0.7628 -0.4222 0.4898
vn -0.2858 -0.6894 0.6656
vn -0.9328 -0.3603 0.0061
vn -0.2866 -0.7689 -0.5716
vn -0.6423 -0.1993 0.7401
vn 0.0635 -0.0495 0.9968
vn 0.0104 -0.3527 0.9357
vn 0.7268 -0.1203 0.6762
vn 0.1457 0.5224 0.8401
vn 0.7415 0.2678 0.6152
vn 0.9845 0.1710 -0.0377
vn 0.6680 0.1513 -0.7286
vn 0.6112 -0.5683 -0.5509
vn -0.5473 -0.7223 -0.4228
vn -0.3699 -0.1784 -0.9118
vn -0.2933 -0.6409 0.7094
vn -0.8597 -0.5061 -0.0696
vn -0.7671 -0.6409 -0.0281
vn -0.8499 -0.5232 -0.0624
vn -0.7992 -0.6010 -0.0123
vn -0.8461 -0.5328 0.0161
vn -0.8205 -0.5710 -0.0255
vn -0.3337 -0.1698 -0.9272
vn -0.7945 -0.5837 0.1673
vn 0.1238 -0.0957 -0.9877
vn -0.8332 -0.5106 -0.2122
vn -0.6167 -0.0955 -0.7814
vn 0.5858 0.3219 -0.7438
vn -0.6585 0.3569 0.6626
vn -0.1498 0.3469 0.9259
vn 0.9244 0.3811 -0.0164
vn 0.6482 0.2843 0.7064
vn 0.7321 0.0022 0.6812
vn -0.4710 -0.5578 -0.6834
vn -0.9756 -0.1917 -0.1070
vn -0.9557 -0.2850 -0.0738
vn -0.1818 -0.2171 0.9591
vn -0.5940 -0.1098 -0.7969
vn -0.8426 0.1087 0.5274
vn -0.8436 -0.5367 -0.0178
vn -0.5842 -0.4305 -0.6880
vn 0.2304 -0.6129 -0.7559
vn 0.2909 0.0381 -0.9560
vn -0.8584 -0.5128 -0.0127
vt 0.007568 1.334229
vt 0.073506 1.279987
vt 0.007568 1.480189
vt 0.075684 1.448975
vt 0.080511 1.585519
vt 0.007568 1.611328
vt 0.007568 1.707764
vt 0.092773 1.698242
vt 0.093994 1.772461
vt 0.164075 1.757702
vt 0.163818 1.276367
vt 0.159912 1.330078
vt 0.225570 1.360434
vt 0.148193 1.432129
vt 0.221982 1.559286
vt 0.313721 1.376292
vt 0.313721 1.563232
vt 0.396240 1.444824
vt 0.389626 1.565374
vt 0.458008 1.471924
vt 0.465950 1.569603
vt 0.536170 1.576633
vt 0.455322 1.660645
vt 0.522949 1.678467
vt 0.441509 1.752885
vt 0.516846 1.758789
vt 0.507080 1.843262
vt 0.231201 1.285889
vt 0.313721 1.297119
vt 0.396240 1.358643
vt 0.461426 1.385498
vt 0.538308 1.463817
vt 0.597412 1.602051
vt 0.597412 1.697998
vt 0.152776 1.609108
vt 0.236084 1.659668
vt 0.238006 1.738425
vt 0.313721 1.720699
vt 0.730662 1.019497
vt 0.659794 1.035071
vt 0.784788 1.062218
vt 0.641569 1.043377
vt 0.806017 1.111432
vt 0.640378 1.078160
vt 0.637024 1.104270
vt 0.780095 1.183279
vt 0.804199 1.146484
vt 0.871094 1.263916
vt 0.730640 1.263916
vt 0.861785 1.332662
vt 0.727783 1.292969
vt 0.727783 1.314941
vt 0.966152 1.957275
vt 0.955740 1.911377
vt 0.660624 1.957275
vt 0.664190 1.911377
vt 0.661039 1.856445
vt 0.722656 1.807129
vt 0.655518 1.807129
vt 0.966131 1.957275
vt 0.961880 1.911377
vt 0.665698 1.957275
vt 0.659943 1.911377
vt 0.664012 1.856445
vt 0.724558 1.807129
vt 0.940534 1.957275
vt 0.957142 1.911377
vt 0.729686 1.957275
vt 0.663279 1.911377
vt 0.966501 1.957275
vt 0.937392 1.911377
vt 0.661308 1.957275
vt 0.663898 1.911377
vt 0.660328 1.856445
vt 0.727212 1.807129
vt 0.597412 1.471709
vt 0.542945 1.281187
vt 0.462402 1.324707
vt 0.461182 1.260254
vt 0.397461 1.285889
vt 0.884521 1.196533
vt 0.990260 1.263916
vt 0.988479 1.345949
vt 0.984833 1.434082
vt 0.655518 1.911377
vt 0.663283 1.847884
vt 0.880260 1.856445
vt 0.661033 1.856445
vt 0.861443 1.807129
vt 0.940534 1.911377
vt 0.743966 1.911377
vt 0.966152 1.911377
vt 0.660624 1.911377
vt 0.907959 1.856445
vt 0.663910 1.856445
vt 0.895020 1.807129
vt 0.966131 1.911377
vt 0.665698 1.911377
vt 0.661039 1.856445
vt 0.966501 1.911377
vt 0.703123 1.911377
vt 0.734805 1.856445
vt 0.655518 1.856445
vt 0.727783 1.599121
vt 0.757955 1.625220
vt 0.751845 1.566092
vt 0.860840 1.598877
vt 0.751570 1.519565
vt 0.884521 1.503906
vt 0.729770 1.482328
vt 0.848958 1.434082
vt 0.881104 1.134521
vt 0.989291 1.224838
vt 0.313721 1.642334
vt 0.386475 1.646240
vt 0.381052 1.731633
vt 0.830078 1.036865
vt 0.890625 1.081543
vt 0.912109 1.003418
vt 0.962666 1.086202
vt 0.727783 1.434082
vt 0.727783 1.414063
vt 0.727783 1.394531
vt 0.832764 1.720215
vt 0.853760 1.673828
vt 0.777107 1.714492
vt 0.775498 1.680973
vt 0.727783 1.657471
vt 0.507080 1.882324
vt 0.438477 1.996338
vt 0.442383 1.882324
vt 0.376953 1.882324
vt 0.362305 1.996338
vt 0.313721 1.882324
vt 0.313721 1.996338
vt 0.242432 1.996338
vt 0.967818 1.596418
vt 0.976107 1.530675
vt 0.662252 1.151106
vt 0.759766 1.207031
vt 0.971310 1.154503
vt 0.004395 1.996338
vt 0.004395 1.882324
vt 0.091797 1.996338
vt 0.090576 1.882324
vt 0.162842 1.996338
vt 0.164307 1.882324
vt 0.229980 1.882324
vt 0.696777 1.911377
vt 0.597412 1.323486
vt 0.615967 1.117188
vt 0.752635 1.208283
vt 0.508789 1.996338
vt 0.597412 1.882324
vt 0.597412 1.996338
vt 0.727783 1.344482
vt 0.727783 1.366455
vt 0.727783 1.539063
vt 0.995361 1.478516
vt 0.655518 1.957275
vt 0.629395 1.911377
vt 0.629395 1.957275
vt 0.090576 1.843262
vt 0.007568 1.843262
vt 0.007568 1.782471
vt 0.597412 1.843262
vt 0.597412 1.780273
vt 0.995605 1.873779
vt 0.617432 1.074219
s 1
usemtl arms
f 3/1/1 2/2/2 4/3/3
f 2/2/2 5/4/4 4/3/3
f 5/4/4 6/5/5 4/3/3
f 4/3/3 6/5/5 7/6/6
f 7/6/6 6/5/5 8/7/7
f 6/5/5 9/8/8 8/7/7
f 8/7/7 9/8/8 10/9/9
f 9/8/8 11/10/10 10/9/9
f 2/2/2 13/11/11 14/12/12
f 13/11/11 15/13/13 14/12/12
f 14/12/12 15/13/13 16/14/14
f 16/14/14 15/13/13 17/15/15
f 15/13/13 18/16/16 17/15/15
f 17/15/15 18/16/16 19/17/17
f 18/16/16 20/18/18 19/17/17
f 19/17/17 20/18/18 21/19/19
f 20/18/18 22/20/20 21/19/19
f 21/19/19 22/20/20 23/21/21
f 22/20/20 24/22/22 23/21/21
f 23/21/21 24/22/22 25/23/23
f 24/22/22 26/24/24 25/23/23
f 25/23/23 26/24/24 27/25/25
f 26/24/24 28/26/26 27/25/25
f 28/26/26 29/27/27 27/25/25
f 13/11/11 30/28/28 15/13/13
f 30/28/28 31/29/29 15/13/13
f 15/13/13 31/29/29 18/16/16
f 31/29/29 32/30/30 18/16/16
f 18/16/16 32/30/30 20/18/18
f 32/30/30 33/31/31 20/18/18
f 20/18/18 33/31/31 22/20/20
f 33/31/31 34/32/32 22/20/20
f 22/20/20 34/32/32 24/22/22
f 34/32/32 7/33/6 24/22/22
f 7/33/6 8/34/7 24/22/22
f 24/22/22 8/34/7 26/24/24
f 8/34/7 28/26/26 26/24/24
f 2/2/2 14/12/12 5/4/4
f 14/12/12 16/14/14 5/4/4
f 5/4/4 16/14/14 6/5/5
f 16/14/14 35/35/33 6/5/5
f 35/35/33 36/36/34 12/37/35
f 36/36/34 37/38/36 12/37/35
f 41/39/37 39/40/38 40/41/39
f 40/41/39 39/42/38 42/43/40
f 39/42/38 43/44/41 42/43/40
f 44/45/42 45/46/43 43/44/41
f 43/44/41 45/46/43 46/47/44
f 46/47/44 45/46/43 47/48/45
f 45/46/43 48/49/46 47/48/45
f 47/48/45 48/49/46 49/50/47
f 48/49/46 50/51/48 49/50/47
f 49/50/47 50/51/48 51/52/49
f 53/53/50 52/54/51 54/55/52
f 52/54/51 55/56/53 54/55/52
f 56/57/54 85/58/55 57/59/56
f 58/60/57 51/61/49 59/62/58
f 51/61/49 60/63/59 59/62/58
f 61/64/60 88/65/61 62/59/62
f 64/66/63 63/67/64 65/68/65
f 63/67/64 66/69/66 65/68/65
f 50/70/48 48/71/46 69/72/67
f 48/71/46 70/73/68 69/72/67
f 71/74/69 91/75/70 72/59/71
f 7/33/6 34/32/32 4/76/3
f 4/76/3 34/32/32 1/77/72
f 34/32/32 33/31/31 1/77/72
f 1/77/72 33/31/31 73/78/73
f 33/31/31 32/30/30 73/78/73
f 73/78/73 32/30/30 74/79/74
f 32/30/30 75/80/75 74/79/74
f 43/44/41 46/47/44 42/43/40
f 42/43/40 46/47/44 76/81/76
f 46/47/44 47/48/45 76/81/76
f 76/81/76 47/48/45 77/82/77
f 47/48/45 49/50/47 77/82/77
f 77/82/77 49/50/47 78/83/78
f 49/50/47 79/84/79 78/83/78
f 81/85/80 68/86/81 80/87/82
f 68/86/81 67/88/83 82/89/84
f 80/87/82 64/90/63 65/91/65
f 53/92/50 54/93/52 83/94/85
f 54/93/52 57/95/56 83/94/85
f 83/94/85 57/95/56 84/96/86
f 57/95/56 85/58/55 84/96/86
f 84/96/86 85/58/55 56/57/54
f 58/97/57 59/98/58 86/94/87
f 59/98/58 62/99/62 86/94/87
f 86/94/87 62/99/62 87/96/88
f 62/99/62 88/65/61 87/96/88
f 87/96/88 88/65/61 61/64/60
f 50/100/48 69/101/67 89/94/89
f 69/101/67 90/102/90 89/94/89
f 89/94/89 90/102/90 104/96/91
f 90/102/90 91/75/70 104/96/91
f 104/96/91 91/75/70 71/74/69
f 91/75/70 90/102/90 72/103/71
f 90/102/90 92/85/92 72/103/71
f 86/104/87 87/105/88 84/106/86
f 87/105/88 93/107/93 84/106/86
f 84/106/86 93/107/93 82/108/84
f 93/107/93 94/109/94 82/108/84
f 82/108/84 94/109/94 80/110/82
f 94/109/94 95/111/95 80/110/82
f 40/41/39 42/43/40 96/112/96
f 42/43/40 76/81/76 96/112/96
f 96/112/96 76/81/76 97/113/97
f 76/81/76 77/82/77 97/113/97
f 35/35/33 17/15/15 36/36/34
f 17/15/15 98/114/98 36/36/34
f 36/36/34 98/114/98 37/38/36
f 98/114/98 99/115/99 37/38/36
f 37/38/36 99/115/99 38/116/100
f 99/115/99 25/23/23 38/116/100
f 38/116/100 25/23/23 27/25/25
f 25/23/23 99/115/99 23/21/21
f 23/21/21 99/115/99 21/19/19
f 99/115/99 98/114/98 21/19/19
f 21/19/19 98/114/98 19/17/17
f 98/114/98 17/15/15 19/17/17
f 17/15/15 35/35/33 16/14/14
f 41/39/37 40/41/39 100/117/101
f 40/41/39 101/118/102 100/117/101
f 100/117/101 101/118/102 93/119/93
f 101/118/102 102/120/103 93/119/93
f 80/110/82 95/111/95 64/121/63
f 64/121/63 95/111/95 63/122/64
f 95/111/95 53/123/50 63/122/64
f 73/78/73 74/79/74 1/77/72
f 45/124/43 100/125/101 103/126/104
f 100/125/101 104/127/91 103/126/104
f 104/127/91 87/105/88 89/128/89
f 29/129/27 97/130/97 27/131/25
f 27/131/25 97/130/97 38/132/100
f 97/130/97 77/133/77 38/132/100
f 38/132/100 77/133/77 37/134/36
f 77/133/77 78/135/78 37/134/36
f 37/134/36 78/135/78 79/136/79
f 102/137/103 105/138/105 94/109/94
f 105/138/105 79/84/79 94/109/94
f 94/109/94 79/84/79 95/111/95
f 79/84/79 49/50/47 95/111/95
f 48/71/46 103/94/104 70/73/68
f 103/94/104 71/74/69 70/73/68
f 44/45/42 41/139/37 45/46/43
f 41/139/37 100/140/101 45/46/43
f 40/41/39 96/112/96 101/118/102
f 101/118/102 96/112/96 106/141/106
f 96/112/96 97/113/97 106/141/106
f 102/142/103 107/143/107 105/144/105
f 107/143/107 108/145/108 105/144/105
f 105/144/105 108/145/108 109/146/109
f 108/145/108 11/147/10 109/146/109
f 109/146/109 11/147/10 12/148/35
f 52/54/51 86/94/87 55/56/53
f 86/94/87 56/57/54 55/56/53
f 51/61/49 89/94/89 60/63/59
f 89/94/89 61/64/60 60/63/59
f 63/67/64 83/94/85 66/69/66
f 83/94/85 67/88/83 66/69/66
f 81/85/80 80/87/82 110/149/110
f 110/149/110 80/87/82 65/91/65
f 92/85/92 90/102/90 69/101/67
f 12/37/35 11/10/10 35/35/33
f 11/10/10 9/8/8 35/35/33
f 35/35/33 9/8/8 6/5/5
f 32/30/30 31/29/29 75/80/75
f 3/150/1 4/76/3 1/77/72
f 39/151/38 41/139/37 44/45/42
f 45/46/43 103/152/104 48/49/46
f 101/118/102 106/141/106 102/120/103
f 97/130/97 29/129/27 106/153/106
f 29/129/27 107/154/107 106/153/106
f 106/153/106 107/154/107 102/155/103
f 58/156/57 52/157/51 49/50/47
f 52/157/51 53/123/50 49/50/47
f 49/50/47 53/123/50 95/111/95
f 82/108/84 83/158/85 84/106/86
f 79/84/79 105/138/105 109/159/109
f 68/86/81 82/89/84 80/87/82
f 65/68/65 66/69/66 81/160/80
f 66/69/66 67/161/83 81/160/80
f 81/160/80 67/161/83 68/162/81
f 55/56/53 56/161/54 54/55/52
f 54/55/52 56/161/54 57/162/56
f 70/73/68 71/161/69 69/72/67
f 69/72/67 71/161/69 72/162/71
f 61/161/60 62/162/62 60/63/59
f 62/162/62 59/62/58 60/63/59
f 11/10/10 108/163/108 10/9/9
f 108/163/108 107/164/107 10/9/9
f 10/9/9 107/164/107 111/165/111
f 107/166/107 29/27/27 111/167/111
f 29/27/27 28/26/26 111/167/111
f 111/167/111 28/26/26 8/34/7
f 100/125/101 93/107/93 104/127/91
f 104/127/91 93/107/93 87/105/88
f 52/168/51 58/97/57 86/94/87
f 63/168/64 53/92/50 83/94/85
f 51/168/49 50/100/48 89/94/89
f 37/134/36 79/136/79 12/148/35
f 12/148/35 79/136/79 109/146/109
f 43/44/41 39/42/38 44/169/42
f 93/107/93 102/137/103 94/109/94
f 49/50/47 51/52/49 58/156/57
f 83/94/85 82/89/84 67/88/83
f 86/94/87 84/96/86 56/57/54
f 103/94/104 104/96/91 71/74/69
f 89/94/89 87/96/88 61/64/60
f 10/9/9 111/165/111 8/7/7
