# Blender 4.3.2
# www.blender.org
mtllib BrazoDer_T.mtl
o BrazoDer_T
v 0.646295 2.299036 1.714213
v -0.061983 -0.411067 2.342869
v -0.032283 -2.069118 1.399389
v -0.045481 -2.460212 0.237789
v 0.237920 -2.037125 -1.046673
v 0.448854 0.921641 -2.134753
v 0.862519 2.427361 -1.420089
v 0.473015 2.890317 -0.040901
v 0.471926 -0.924945 -2.045265
v -3.025263 -2.926840 0.150151
v -3.653768 -1.729825 1.593052
v -3.109475 -2.797639 -0.800796
v -3.322544 -2.325001 -1.436642
v -3.747446 -1.486186 -1.463822
v -4.174193 -0.755331 -0.833569
v -4.351452 -0.498997 0.004646
v -4.185211 -0.796931 1.045023
v -3.163197 -2.609072 1.038647
v -4.826528 -2.465912 1.610964
v -4.229902 -3.542219 0.676481
v -5.289562 -1.784999 1.018991
v -5.598752 -1.264653 -0.278627
v -5.062328 -2.159868 -1.447236
v -4.553397 -3.102934 -1.367290
v -4.831923 -2.480441 1.336138
v -4.465407 -3.159888 0.900244
v -5.403282 -1.600293 -0.292339
v -5.010040 -2.270111 -1.206276
v -4.597054 -3.058844 -1.053934
v -4.411453 -3.361393 -0.116306
v -6.825490 -3.028561 0.689315
v -6.882589 -3.283208 -0.253568
v -6.254835 -3.231516 -1.049892
v -6.591622 -4.438391 -0.736146
v -7.275233 -4.789354 0.415297
v -6.808479 -3.681249 1.209126
v -6.306579 -2.858717 1.191354
v -6.345251 -3.892700 1.107426
v -5.946520 -3.746206 1.053492
v -6.078477 -3.771253 -0.865963
v -5.913833 -4.686683 1.394545
v -5.753898 -4.219976 1.634726
v -5.817129 -3.311867 1.526844
v -6.143502 -4.410936 1.494219
v -6.460004 -3.803599 0.625746
v -7.030569 -4.841316 0.405696
v -5.538629 -3.795367 0.746064
v -6.039414 -4.547498 1.194070
v -7.043922 -4.630219 1.008606
vn 0.1565 -0.9478 -0.2777
vn 0.3222 -0.9442 0.0687
vn 0.1313 -0.8143 -0.5654
vn -0.0655 -0.0730 -0.9952
vn -0.1300 -0.0482 -0.9903
vn -0.1296 -0.0555 -0.9900
vn -0.4476 0.6641 -0.5989
vn -0.4885 0.6672 -0.5623
vn -0.3951 0.4781 -0.7844
vn -0.3400 0.4918 -0.8016
vn -0.5500 0.8352 0.0010
vn -0.5718 0.8181 -0.0617
vn -0.4789 0.5963 0.6443
vn -0.5029 0.6596 0.5586
vn -0.3132 0.3691 0.8751
vn -0.3126 0.2985 0.9018
vn 0.1349 -0.4684 0.8731
vn 0.1247 -0.5162 0.8473
vn -0.0014 -0.5018 0.8650
vn -0.0006 -0.4942 0.8694
vn 0.3186 -0.8780 0.3573
vn 0.1274 -0.9381 0.3221
vn 0.1263 -0.9404 0.3157
vn 0.2440 -0.4961 0.8333
vn 0.2243 -0.5655 0.7936
vn -0.3123 0.4285 0.8478
vn -0.3011 0.5008 0.8115
vn -0.9782 0.1749 0.1123
vn -0.7322 0.5533 0.3972
vn -0.3967 0.5674 -0.7216
vn -0.4678 0.5846 -0.6629
vn 0.2057 -0.5624 -0.8009
vn 0.0262 -0.0705 -0.9972
vn 0.1052 -0.4199 -0.9014
vn 0.2771 -0.8735 -0.4003
vn 0.4227 -0.9061 -0.0159
vn -0.8163 -0.5734 0.0695
vn -0.8495 -0.5257 0.0444
vn -0.6527 -0.3615 0.6658
vn -0.0421 -0.7993 0.5994
vn -0.5734 0.5691 0.5893
vn -0.9911 -0.0233 -0.1311
vn -0.8775 -0.4786 -0.0291
vn -0.8435 -0.2578 -0.4713
vn -0.8565 -0.5138 -0.0488
vn -0.5443 -0.7293 -0.4146
vn 0.0169 -0.9909 -0.1338
vn -0.7038 0.4097 -0.5804
vn -0.8345 0.0192 -0.5507
vn -0.8723 0.3471 -0.3443
vn -0.9411 0.1012 -0.3225
vn -0.8542 0.4722 0.2176
vn -0.5184 0.0755 0.8518
vn -0.5175 0.5540 0.6521
vn 0.4609 -0.6439 0.6107
vn -0.7756 -0.6264 0.0783
vn 0.1726 -0.0864 0.9812
vn 0.3362 -0.6762 -0.6555
vn 0.7451 -0.6601 -0.0952
vn 0.0493 -0.2769 -0.9596
vn 0.2844 -0.5130 0.8099
vn 0.2177 -0.2624 0.9401
vn -0.0659 0.2477 0.9666
vn -0.9778 -0.1085 -0.1794
vn -0.8973 -0.1747 0.4054
vn -0.7393 -0.3838 0.5533
vn -0.8491 -0.4433 0.2872
vn -0.1657 -0.7500 0.6404
vn 0.2162 -0.8825 0.4177
vn 0.5236 -0.8510 -0.0396
vn 0.1857 -0.9156 -0.3567
vn -0.1582 -0.8536 -0.4963
vn -0.4859 -0.5958 -0.6395
vn -0.2231 -0.2423 0.9442
vn -0.4284 -0.9013 0.0639
vn 0.1147 -0.6934 -0.7114
vt 0.083696 -0.561482
vt 0.037747 -0.590404
vt 0.111534 -0.572440
vt 0.055836 -0.648036
vt 0.161217 -0.628326
vt 0.139074 -0.593568
vt 0.057535 -0.673293
vt 0.181724 -0.661905
vt 0.057871 -0.693110
vt 0.178096 -0.691828
vt 0.057526 -0.720783
vt 0.174429 -0.722840
vt 0.054376 -0.748722
vt 0.136900 -0.777600
vt 0.047019 -0.776799
vt 0.108600 -0.812600
vt 0.039011 -0.794532
vt 0.082595 -0.826218
vt 0.023300 -0.743300
vt 0.014185 -0.774851
vt 0.024100 -0.718500
vt 0.024161 -0.687717
vt 0.022300 -0.654300
vt 0.017976 -0.632447
vt 0.051450 -0.627202
vt 0.045249 -0.610326
vt 0.007600 -0.598600
vt 0.017301 -0.950800
vt 0.005900 -0.974000
vt 0.011601 -0.971764
vt 0.014991 -0.958294
vt 0.020176 -0.984243
vt 0.043409 -0.987623
vt 0.041865 -0.982175
vt 0.059300 -0.966300
vt 0.053114 -0.966753
vt 0.052296 -0.950032
vt 0.047231 -0.952860
vt 0.030700 -0.950000
vt 0.882048 -0.770097
vt 0.919677 -0.764612
vt 0.898722 -0.798638
vt 0.946410 -0.797942
vt 0.898228 -0.830332
vt 0.911602 -0.851192
vt 0.882500 -0.848400
vt 0.909805 -0.865965
vt 0.900420 -0.870223
vt 0.890181 -0.753304
vt 0.829531 -0.845768
vt 0.825598 -0.801285
vt 0.830915 -0.739072
vt 0.826944 -0.767882
vt 0.912885 -0.903119
vt 0.833670 -0.901401
vt 0.898779 -0.894010
vt 0.881100 -0.872900
vt 0.831524 -0.878499
vt 0.911256 -0.890630
vt 0.932296 -0.828819
vt 0.951980 -0.798012
vt 0.883638 -0.977899
vt 0.910040 -0.939494
vt 0.940764 -0.958102
vt 0.909300 -0.983900
vt 0.826918 -0.978906
vt 0.829713 -0.939790
vt 0.899602 -0.924571
vt 0.883000 -0.924300
vt 0.913037 -0.924839
vt 0.910881 -0.910075
vt 0.917400 -0.886700
vt 0.912054 -0.899708
vt 0.940345 -0.858259
vt 0.940244 -0.934789
s 1
usemtl Material__16
f 4/1/1 10/2/2 5/3/3
f 14/4/4 6/5/5 9/6/6
f 15/7/7 7/8/8 6/5/9
f 6/5/9 14/4/10 15/7/7
f 15/7/7 16/9/11 8/10/12
f 8/10/12 7/8/8 15/7/7
f 16/9/11 17/11/13 1/12/14
f 1/12/14 8/10/12 16/9/11
f 17/11/13 11/13/15 2/14/16
f 2/14/16 1/12/14 17/11/13
f 11/13/17 18/15/18 3/16/19
f 3/16/19 2/14/20 11/13/17
f 18/15/21 10/17/2 4/18/22
f 4/18/22 3/16/23 18/15/21
f 19/19/24 20/20/25 18/15/18
f 18/15/18 11/13/17 19/19/24
f 21/21/26 19/19/27 11/13/15
f 11/13/15 17/11/13 21/21/26
f 22/22/28 21/21/29 17/11/13
f 17/11/13 16/9/11 22/22/28
f 16/9/11 15/7/7 22/22/28
f 23/23/30 22/22/31 15/7/7
f 15/7/7 14/4/10 23/23/30
f 24/24/32 23/23/33 14/4/4
f 14/4/4 13/25/34 24/24/32
f 13/25/34 12/26/35 24/24/32
f 20/27/36 24/24/32 12/26/35
f 12/26/35 10/2/2 20/27/36
f 10/17/2 18/15/21 20/20/36
f 20/28/37 19/29/38 25/30/39
f 25/30/39 26/31/40 20/28/37
f 25/30/39 19/29/38 21/32/41
f 22/33/28 27/34/42 21/32/29
f 22/33/28 23/35/43 28/36/44
f 28/36/44 27/34/42 22/33/28
f 28/36/44 23/35/43 24/37/45
f 24/37/45 29/38/46 28/36/44
f 24/37/45 30/39/47 29/38/46
f 24/37/45 20/28/37 30/39/47
f 26/31/40 30/39/47 20/28/37
f 33/40/48 34/41/49 32/42/50
f 35/43/51 31/44/52 32/42/50
f 36/45/53 37/46/54 31/44/52
f 38/47/55 39/48/56 37/46/57
f 37/46/57 36/45/53 38/47/55
f 40/49/58 34/41/59 33/40/60
f 31/44/52 37/46/54 21/50/41
f 27/51/42 33/40/48 32/42/50
f 29/52/46 40/49/58 33/40/60
f 33/40/60 28/53/44 29/52/46
f 41/54/61 26/55/40 42/56/62
f 37/46/54 43/57/63 25/58/39
f 25/58/39 21/50/41 37/46/54
f 44/59/64 43/57/65 39/48/56
f 43/57/65 37/46/66 39/48/56
f 45/60/67 31/44/52 35/43/68
f 46/61/69 45/60/67 35/43/68
f 34/41/49 35/43/51 32/42/50
f 46/61/69 35/43/68 34/41/59
f 40/62/58 45/63/70 46/64/69
f 40/62/58 46/64/69 34/65/59
f 40/62/58 29/66/46 30/67/47
f 45/63/70 40/62/58 39/68/56
f 47/69/71 30/67/47 26/55/40
f 40/62/58 30/67/47 47/69/71
f 39/68/56 40/62/58 47/69/71
f 38/70/55 45/63/70 39/68/56
f 26/55/40 41/54/72 48/71/73
f 48/71/73 47/69/71 26/55/40
f 39/68/56 47/69/71 48/71/73
f 42/56/62 43/57/63 44/59/74
f 25/58/39 42/56/62 26/55/40
f 21/50/41 27/51/42 31/44/52
f 48/72/73 41/73/72 44/59/64
f 44/59/74 41/73/61 42/56/62
f 36/45/53 31/44/52 49/74/75
f 49/74/75 38/47/55 36/45/53
f 31/44/52 45/60/67 49/74/75
f 49/75/75 45/63/70 38/70/55
f 44/59/64 39/48/56 48/72/73
f 27/51/42 28/53/44 33/40/48
f 31/44/52 27/51/42 32/42/50
f 25/58/39 43/57/63 42/56/62
f 10/2/2 12/26/35 5/3/3
f 9/6/76 5/3/3 12/26/35
f 12/26/35 13/25/34 9/6/76
f 14/4/4 9/6/6 13/25/34
