# Blender 4.3.2
# www.blender.org
mtllib BrazoDer_H.mtl
o BrazoDer_H
v 0.285934 -0.063033 0.175384
v 0.273928 -0.046338 -0.267474
v 0.347098 -0.160987 -0.030965
v 0.215216 -0.482752 -0.030100
v 0.096468 -0.459233 -0.248994
v -0.094739 -0.746772 -0.189221
v -0.018800 -0.715153 -0.030965
v -0.044492 -0.943061 -0.030965
v -0.112005 -0.906894 -0.202786
v -0.203434 -1.077255 -0.190273
v -0.356991 -1.005911 -0.251191
v -0.498739 -0.910658 -0.187323
v 0.061291 0.000122 -0.366750
v 0.028888 -0.122140 -0.327411
v -0.164384 -0.136680 -0.248853
v -0.083768 -0.380704 -0.328276
v -0.343520 -0.637957 -0.190736
v -0.245740 -0.135368 -0.033647
v -0.372945 -0.560852 -0.030965
v -0.232082 -0.316084 0.160437
v -0.326502 -0.583028 0.104241
v -0.104127 -0.427431 0.244551
v -0.188107 -0.629290 0.163316
v -0.058856 -0.671997 0.102273
v -0.274992 -0.819595 0.224759
v -0.112005 -0.906894 0.148338
v -0.360400 -1.017506 0.198095
v -0.203434 -1.077255 0.138947
v -0.339430 -1.235746 0.081189
v -0.136047 0.033364 -0.261254
v -0.218267 0.048244 -0.030965
v -0.158634 -0.124352 0.155254
v -0.024129 -0.243822 0.269322
v 0.123619 -0.466730 0.178456
v -0.249219 -0.749712 -0.260722
v -0.437979 -0.732296 -0.202787
v -0.555762 -0.874615 -0.030427
v -0.500546 -0.919212 0.132257
v -0.792368 -2.066216 0.000747
v -0.850110 -2.136313 0.033463
v -0.852064 -2.140022 -0.031729
v -0.898589 -2.130087 0.021838
v -0.894661 -2.123721 -0.020801
v -0.783689 -1.787622 0.025428
v -0.784844 -1.785817 -0.023537
v -0.784474 -2.044652 -0.084088
v -0.839303 -2.111842 -0.053977
v -0.837605 -2.108463 -0.114818
v -0.881572 -2.097179 -0.064945
v -0.882286 -2.101667 -0.103837
v -0.778481 -1.786291 -0.061495
v -0.776446 -1.780112 -0.107188
v -0.803576 -2.046538 -0.154069
v -0.809384 -2.044117 -0.185824
v -0.847081 -2.035959 -0.144500
v -0.846330 -2.038558 -0.174323
v -0.761187 -1.809217 -0.180186
v -0.767099 -1.779996 -0.141666
v -0.589479 -1.433781 -0.110491
v -0.614555 -1.425822 -0.031221
v -0.697569 -1.574812 -0.001476
v -0.594037 -1.430770 0.041542
v -0.670491 -1.561995 0.111670
v -0.559588 -1.534200 0.157042
v -0.569210 -1.685718 0.203722
v -0.521645 -1.718181 0.198160
v -0.673044 -1.932335 0.181024
v -0.619379 -1.953430 0.157537
v 0.028888 -0.122140 0.238855
v 0.061291 0.000122 0.290896
v -0.136047 0.033364 0.185400
v -0.717468 -1.835322 -0.043080
v -0.671878 -1.811741 0.000719
v -0.670402 -1.803266 -0.084330
v -0.561124 -1.653791 -0.021658
v -0.680063 -1.806878 -0.160280
v -0.541610 -1.615138 -0.186691
v -0.704865 -1.815512 -0.195342
v -0.675074 -1.607468 -0.178994
v -0.774600 -1.790695 0.110255
v -0.608170 -1.702571 0.141107
v -0.679298 -1.768961 0.132167
v -0.780417 -1.784184 0.063336
v -0.878856 -2.100870 0.067273
v -0.880919 -2.097088 0.104907
v -0.838722 -2.111293 0.115454
v -0.842286 -2.114592 0.065524
v -0.717468 -1.835322 0.044572
v -0.797395 -2.024766 0.049493
v -0.658823 -1.786674 0.086290
v -0.782745 -2.039911 0.085164
v -0.880869 -2.107860 0.067538
v -0.710423 -1.830538 -0.122993
v -0.527485 -1.460901 0.065018
v -0.480371 -1.569217 0.157042
v -0.531516 -1.788434 0.149778
v -0.505496 -0.696138 -0.030965
v -0.437979 -0.732296 0.148338
v -0.466134 -1.621310 0.080104
v -0.458666 -1.511556 -0.025823
v -0.556445 -1.728248 0.105463
v -0.614772 -1.862113 0.117386
v -0.483225 -1.480728 -0.122428
v -0.677537 -1.913623 0.141633
v -0.298744 -1.253473 -0.030965
v -0.345931 -1.232717 -0.150330
v -0.531696 -1.457016 -0.125678
v -0.477538 -1.492366 0.039804
v -0.141700 -1.110315 -0.030965
v -0.496671 -1.603598 0.234918
v -0.542582 -1.583594 0.234918
v -0.502155 -1.553497 0.318058
v -0.556558 -1.678360 0.188345
v -0.539315 -1.773627 0.153245
v -0.580759 -1.733907 0.129182
v -0.577400 -1.726197 -0.018993
v -0.638069 -1.730600 0.153245
v -0.684479 -1.781488 -0.018993
v -0.675833 -1.785255 0.156927
v -0.690147 -1.850128 0.153245
v -0.718829 -1.766521 0.317794
v -0.726703 -1.921486 0.351596
v -0.694199 -1.838272 0.475071
v -0.550151 -1.663655 0.432052
v -0.535264 -1.785482 0.475071
v -0.502769 -1.702265 0.351596
v -0.580178 -1.826932 0.649061
v -0.564774 -1.697218 2.446702
v -0.580178 -1.826932 2.446702
v -0.588365 -1.751361 2.630442
v -0.614731 -1.811877 2.760342
v -0.649293 -1.796818 2.446702
v -0.641098 -1.872393 2.630442
v -0.664688 -1.926537 2.446702
v -0.672904 -1.945394 0.188345
v -0.732792 -2.020157 0.234918
v -0.648707 -1.889857 0.129182
v -0.652062 -1.897558 -0.018993
v -0.591393 -1.893155 0.153245
v -0.544993 -1.842262 -0.018993
v -0.553638 -1.838495 0.156927
v -0.510633 -1.857233 0.317794
v -0.637775 -1.663906 -0.347224
v -0.738795 -1.895765 -0.347224
v -0.738795 -1.895765 -0.282551
v -0.591691 -1.959857 -0.347224
v -0.490671 -1.727999 -0.347223
v -0.591691 -1.959857 -0.282551
v -0.490671 -1.727999 -0.282551
v -0.637775 -1.663906 -0.282551
v -0.686880 -2.040160 0.234918
v -0.618772 -1.968511 0.351596
v -0.579952 -1.888049 0.475071
v -0.649293 -1.796819 0.649061
v -0.679311 -1.960100 0.432052
v -0.522566 -1.600344 0.329172
v -0.610699 -1.655239 0.351596
v -0.649510 -1.735705 0.475071
v -0.706896 -2.023411 0.329172
v -0.727307 -2.070258 0.318058
v -0.675833 -1.785255 -0.282551
v -0.580759 -1.733907 -0.282551
v -0.648707 -1.889857 -0.282551
v -0.553638 -1.838495 -0.282551
vn 0.9253 -0.3793 -0.0076
vn 0.8489 -0.5280 -0.0217
vn 0.5834 -0.3137 -0.7491
vn 0.5577 -0.3851 -0.7353
vn 0.6599 -0.2772 -0.6983
vn 0.8850 -0.4641 0.0375
vn 0.9471 -0.3205 -0.0159
vn 0.6641 -0.2029 -0.7196
vn 0.5214 -0.4744 -0.7093
vn -0.0887 -0.1416 -0.9859
vn -0.0148 -0.1625 -0.9866
vn -0.0282 -0.2605 -0.9651
vn -0.7206 0.1390 -0.6792
vn -0.0982 -0.0760 -0.9923
vn -0.6247 0.3738 -0.6856
vn -0.9714 0.2369 0.0167
vn -0.8742 0.4854 -0.0071
vn -0.7391 0.2013 0.6428
vn -0.6416 0.3583 0.6782
vn -0.1566 -0.1882 0.9696
vn 0.0169 -0.0431 0.9989
vn 0.6071 -0.3622 0.7072
vn 0.0329 0.0694 0.9970
vn 0.6742 -0.2110 0.7077
vn -0.0991 -0.1914 0.9765
vn 0.5200 -0.4798 0.7067
vn 0.5553 -0.5311 0.6399
vn -0.7433 0.0754 -0.6647
vn -0.9913 0.1291 0.0257
vn -0.7298 0.1581 0.6651
vn -0.0860 0.0740 0.9935
vn 0.5548 -0.4435 0.7039
vn -0.0204 -0.0177 -0.9996
vn -0.7030 0.1115 -0.7024
vn -0.5945 0.3510 -0.7234
vn -0.9785 0.2062 -0.0064
vn 0.1844 -0.7314 -0.6566
vn 0.8899 -0.4561 -0.0033
vn 0.2351 -0.6862 0.6884
vn -0.7754 -0.4309 0.4616
vn -0.9529 0.1191 0.2788
vn -0.7810 -0.2857 -0.5553
vn -0.9533 0.1451 -0.2651
vn 0.2248 -0.6870 -0.6910
vn 0.8896 -0.4566 0.0067
vn 0.1837 -0.7325 0.6555
vn -0.7943 -0.3133 0.5205
vn -0.9836 0.1021 0.1484
vn -0.7618 -0.4257 -0.4884
vn -0.9313 0.1570 -0.3286
vn 0.4200 -0.8084 0.4125
vn 0.7338 -0.6728 -0.0937
vn -0.6995 -0.4085 0.5864
vn -0.7604 -0.4625 -0.4559
vn -0.6350 0.2259 -0.7388
vn -0.9843 0.1215 -0.1280
vn -0.6424 0.2377 -0.7286
vn -0.8848 0.4660 -0.0055
vn -0.9536 0.2988 -0.0377
vn -0.6999 0.3628 0.6152
vn -0.7016 0.4207 0.5752
vn -0.0759 0.5371 0.8401
vn -0.2647 0.1383 0.9544
vn 0.6467 -0.1359 0.7505
vn -0.6229 -0.5202 0.5843
vn 0.3589 -0.9332 -0.0184
vn 0.6106 -0.2819 0.7401
vn -0.0695 -0.0407 0.9968
vn -0.0566 -0.3482 0.9357
vn -0.7363 -0.0238 0.6762
vn 0.7133 -0.7008 -0.0123
vn 0.7822 -0.6212 -0.0478
vn 0.7688 -0.6393 0.0161
vn 0.7590 -0.6156 -0.2122
vn 0.7933 -0.5852 -0.1681
vn 0.5983 -0.1765 -0.7816
vn 0.3165 -0.2061 -0.9259
vn -0.5401 0.3929 -0.7443
vn -0.7006 0.2598 0.6646
vn -0.6805 -0.0445 0.7314
vn 0.1518 -0.2391 0.9591
vn -0.9884 0.1359 -0.0681
vn -0.6627 -0.2324 -0.7119
vn -0.8116 -0.3184 0.4898
vn 0.1928 -0.7210 0.6656
vn 0.1832 -0.7998 -0.5716
vn 0.8774 -0.4796 0.0062
vn 0.7384 -0.6739 -0.0256
vn 0.3086 -0.2122 -0.9272
vn 0.7110 -0.6829 0.1673
vn -0.1352 -0.0786 -0.9877
vn 0.1942 -0.6762 -0.7107
vn 0.1940 0.3242 0.9259
vn 0.6997 0.2673 0.6626
vn 0.8735 -0.4495 -0.1872
vn -0.8664 0.4992 -0.0164
vn -0.6053 0.3669 0.7064
vn -0.7255 0.0983 0.6812
vn 0.9100 -0.4080 -0.0739
vn 0.9420 -0.3181 -0.1070
vn 0.3937 -0.6148 -0.6834
vn 0.0617 -0.1658 -0.9842
vn 0.5744 -0.1868 -0.7969
vn -0.8216 -0.2227 -0.5248
vn 0.7658 -0.6428 -0.0178
vn 0.5227 -0.5034 -0.6880
vn -0.3089 -0.5773 -0.7559
vn 0.8496 -0.0028 0.5274
vn 0.7837 -0.6211 -0.0127
vn 0.3691 0.8471 0.3824
vn 0.7766 0.3556 -0.5201
vn -0.2683 0.8109 -0.5201
vn 0.1947 0.4469 -0.8731
vn 0.9636 0.1040 -0.2462
vn 0.3826 0.8781 -0.2875
vn 0.3978 0.9130 -0.0905
vn -0.5799 0.7766 -0.2462
vn -0.9143 0.3984 -0.0728
vn -0.9098 0.3964 -0.1232
vn -0.9636 -0.1041 -0.2462
vn -0.9164 0.3993 -0.0284
vn -0.9825 -0.0510 0.1791
vn -0.9642 -0.0304 0.2635
vn 0.9825 0.0510 0.1791
vn 0.3428 0.7868 0.5133
vn 0.9642 0.0304 0.2635
vn 0.9147 -0.3985 0.0667
vn 0.3954 0.9074 0.1426
vn 0.9156 -0.3989 0.0504
vn 0.3632 0.8336 0.4162
vn -0.0000 -0.0000 1.0000
vn -0.9156 0.3989 0.0505
vn -0.3632 -0.8336 0.4162
vn -0.3953 -0.9074 0.1426
vn -0.7766 -0.3556 -0.5201
vn -0.1947 -0.4469 -0.8731
vn -0.3826 -0.8780 -0.2875
vn -0.3978 -0.9130 -0.0905
vn 0.5800 -0.7766 -0.2462
vn 0.9143 -0.3984 -0.0728
vn 0.9098 -0.3964 -0.1233
vn 0.9164 -0.3993 -0.0284
vn -0.7599 -0.2987 0.5774
vn -0.2987 0.7599 -0.5774
vn -0.7599 -0.2987 -0.5774
vn 0.2987 -0.7599 -0.5774
vn 0.7599 0.2987 -0.5774
vn 0.2987 -0.7599 0.5774
vn 0.7599 0.2987 0.5774
vn -0.2987 0.7599 0.5774
vn 0.2684 -0.8109 -0.5201
vn 0.6316 -0.7543 0.1791
vn 0.6343 -0.7268 0.2635
vn -0.9147 0.3985 0.0667
vn -0.3428 -0.7868 0.5133
vn 0.1406 0.3227 0.9360
vn -0.6316 0.7543 0.1791
vn -0.6343 0.7268 0.2635
vn -0.1406 -0.3227 0.9360
vn -0.3691 -0.8471 0.3824
vn 0.3991 0.9159 -0.0418
vn -0.9162 0.3992 -0.0358
vn -0.3990 -0.9160 -0.0418
vn 0.9162 -0.3991 -0.0358
vt 0.007568 1.334229
vt 0.007568 1.480189
vt 0.073506 1.279987
vt 0.075684 1.448975
vt 0.080511 1.585519
vt 0.007568 1.611328
vt 0.007568 1.707764
vt 0.092773 1.698242
vt 0.093994 1.772461
vt 0.164075 1.757706
vt 0.159912 1.330078
vt 0.163818 1.276367
vt 0.225570 1.360433
vt 0.148193 1.432129
vt 0.221982 1.559286
vt 0.313721 1.376287
vt 0.313721 1.563232
vt 0.396240 1.444824
vt 0.389626 1.565373
vt 0.458008 1.471924
vt 0.465950 1.569602
vt 0.536170 1.576633
vt 0.455322 1.660645
vt 0.522949 1.678467
vt 0.441509 1.752885
vt 0.516846 1.758789
vt 0.507080 1.843262
vt 0.231201 1.285889
vt 0.313721 1.297119
vt 0.396240 1.358643
vt 0.461426 1.385498
vt 0.538308 1.463817
vt 0.597412 1.602051
vt 0.597412 1.697998
vt 0.152776 1.609107
vt 0.238006 1.738426
vt 0.236084 1.659668
vt 0.313721 1.720701
vt 0.655518 1.807129
vt 0.724558 1.807129
vt 0.664012 1.856445
vt 0.659943 1.911377
vt 0.961880 1.911377
vt 0.665698 1.957275
vt 0.966131 1.957275
vt 0.722657 1.807129
vt 0.661039 1.856445
vt 0.664190 1.911377
vt 0.955739 1.911377
vt 0.660626 1.957275
vt 0.966152 1.957275
vt 0.663281 1.847885
vt 0.900903 1.856445
vt 0.659380 1.911377
vt 0.657086 1.957275
vt 0.916415 1.957275
vt 0.957142 1.911377
vt 0.984833 1.434082
vt 0.861784 1.332662
vt 0.988478 1.345949
vt 0.990260 1.263916
vt 0.871094 1.263916
vt 0.884521 1.196533
vt 0.804199 1.146484
vt 0.806009 1.111429
vt 0.640379 1.078160
vt 0.659794 1.035071
vt 0.597412 1.471709
vt 0.542945 1.281187
vt 0.462402 1.324707
vt 0.461182 1.260254
vt 0.397461 1.285889
vt 0.727783 1.599121
vt 0.751845 1.566092
vt 0.757955 1.625220
vt 0.860840 1.598877
vt 0.751556 1.519564
vt 0.884521 1.503906
vt 0.729771 1.482328
vt 0.848957 1.434082
vt 0.730640 1.263916
vt 0.780094 1.183278
vt 0.752636 1.208283
vt 0.966501 1.957275
vt 0.661309 1.957275
vt 0.937386 1.911377
vt 0.663897 1.911377
vt 0.660328 1.856445
vt 0.727212 1.807129
vt 0.895020 1.807129
vt 0.661040 1.856445
vt 0.907959 1.856445
vt 0.665698 1.911377
vt 0.966131 1.911377
vt 0.966501 1.911377
vt 0.703123 1.911377
vt 0.734819 1.856445
vt 0.655518 1.856445
vt 0.655518 1.911377
vt 0.663912 1.856445
vt 0.660626 1.911377
vt 0.966152 1.911377
vt 0.916415 1.911377
vt 0.660999 1.856445
vt 0.861550 1.807129
vt 0.989291 1.224838
vt 0.881104 1.134521
vt 0.784792 1.062219
vt 0.313721 1.642334
vt 0.386475 1.646240
vt 0.381052 1.731632
vt 0.727783 1.434082
vt 0.727783 1.414063
vt 0.727783 1.394531
vt 0.962667 1.086202
vt 0.890625 1.081543
vt 0.912109 1.003418
vt 0.830078 1.036865
vt 0.730662 1.019497
vt 0.507080 1.882324
vt 0.442383 1.882324
vt 0.438477 1.996338
vt 0.376953 1.882324
vt 0.362305 1.996338
vt 0.313721 1.882324
vt 0.313721 1.996338
vt 0.242432 1.996338
vt 0.727783 1.657471
vt 0.775496 1.680973
vt 0.853760 1.673828
vt 0.777108 1.714492
vt 0.832764 1.720215
vt 0.727783 1.292969
vt 0.727783 1.314941
vt 0.727783 1.344482
vt 0.967819 1.596418
vt 0.976107 1.530674
vt 0.637023 1.104269
vt 0.004395 1.996338
vt 0.091797 1.996338
vt 0.004395 1.882324
vt 0.090576 1.882324
vt 0.162842 1.996338
vt 0.164307 1.882324
vt 0.229980 1.882324
vt 0.657086 1.911377
vt 0.971310 1.154503
vt 0.759766 1.207031
vt 0.662252 1.151106
vt 0.597412 1.996338
vt 0.597412 1.882324
vt 0.508789 1.996338
vt 0.727783 1.539063
vt 0.995361 1.478516
vt 0.727783 1.366455
vt 0.615967 1.117188
vt 0.597412 1.323486
vt 0.090576 1.843262
vt 0.007568 1.843262
vt 0.007568 1.782471
vt 0.597412 1.780273
vt 0.597412 1.843262
vt 0.629395 1.957275
vt 0.629395 1.911377
vt 0.995605 1.873779
vt 0.617432 1.074219
vt 0.641569 1.043377
vt 0.005615 1.143799
vt 0.026367 1.123535
vt 0.009521 1.104492
vt 0.055908 1.087402
vt 0.103271 1.085449
vt 0.078857 1.066406
vt 0.078857 1.004150
vt 0.138916 1.004150
vt 0.138916 1.085449
vt 0.173584 1.085449
vt 0.138916 1.148926
vt 0.212158 1.169678
vt 0.168945 1.214844
vt 0.060059 1.185059
vt 0.067383 1.221436
vt 0.101074 1.236572
vt 0.138916 1.339844
vt 0.067383 1.855713
vt 0.138916 1.854492
vt 0.101074 1.939453
vt 0.138916 1.996582
vt 0.178467 1.939453
vt 0.215332 1.854492
vt 0.250977 1.123535
vt 0.221436 1.088623
vt 0.195068 1.066406
vt 0.195068 1.004150
vt 0.066406 1.166992
vt 0.109131 1.214844
vt 0.646240 1.997803
vt 0.548828 1.972900
vt 0.646240 1.972900
vt 0.646240 1.911133
vt 0.548828 1.911133
vt 0.646240 1.885986
vt 0.548828 1.885986
vt 0.646240 1.829834
vt 0.548828 1.829834
vt 0.267578 1.104492
vt 0.138916 1.297607
vt 0.215332 1.221436
vt 0.180176 1.237305
vt 0.011963 1.167725
vt 0.017578 1.185059
vt 0.219971 1.189453
vt 0.260254 1.187012
vt 0.267578 1.166992
vt 0.613281 1.002686
vt 0.673340 1.002686
vt 0.673340 1.122559
vt 0.729492 1.002686
vt 0.729492 1.122559
vt 0.613281 1.122559
vt 0.273926 1.145264
vt 0.523926 1.972900
vt 0.523926 1.911133
vt 0.671387 1.911133
vt 0.671387 1.972900
vt 0.548828 1.997803
s 1
usemtl accessories
f 112/168/110 110/169/111 111/170/112
f 111/170/112 110/169/111 113/171/113
f 110/169/111 114/172/114 113/171/113
f 113/171/113 114/172/114 115/173/115
f 114/172/114 116/174/116 115/173/115
f 115/173/115 116/174/116 117/172/117
f 116/174/116 118/175/118 117/172/117
f 117/172/117 118/175/118 119/176/119
f 118/175/118 120/177/120 119/176/119
f 119/176/119 120/177/120 121/178/121
f 120/177/120 122/179/122 121/178/121
f 121/178/121 122/179/122 123/180/123
f 126/181/124 124/182/125 125/183/126
f 125/183/126 124/182/125 127/184/127
f 124/182/125 128/185/128 127/184/127
f 127/184/127 128/185/128 129/186/129
f 128/185/128 130/187/130 129/186/129
f 129/186/129 130/187/130 131/188/131
f 130/187/130 132/186/132 131/188/131
f 131/188/131 132/186/132 133/189/133
f 132/186/132 134/190/134 133/189/133
f 133/189/133 134/190/134 129/186/129
f 134/190/134 127/184/127 129/186/129
f 136/191/135 120/177/120 135/192/136
f 135/192/136 120/177/120 137/193/137
f 120/177/120 138/194/138 137/193/137
f 137/193/137 138/194/138 139/177/139
f 138/194/138 140/175/140 139/177/139
f 139/177/139 140/175/140 141/176/141
f 140/175/140 114/172/114 141/176/141
f 141/176/141 114/172/114 142/178/142
f 114/172/114 126/195/124 142/178/142
f 142/178/142 126/195/124 125/196/126
f 145/197/143 143/198/144 144/199/145
f 144/199/145 143/198/144 146/200/146
f 143/198/144 147/201/147 146/200/146
f 146/200/146 147/201/147 148/202/148
f 147/201/147 149/203/149 148/202/148
f 148/202/148 149/203/149 145/204/143
f 149/203/149 150/205/150 145/204/143
f 136/206/135 135/192/136 151/191/151
f 135/192/136 139/177/139 151/191/151
f 151/191/151 139/177/139 152/179/152
f 139/177/139 142/178/142 152/179/152
f 152/179/152 142/178/142 153/180/153
f 142/178/142 127/207/127 153/180/153
f 130/187/130 128/185/128 132/186/132
f 128/185/128 154/184/154 132/186/132
f 132/186/132 154/184/154 134/190/134
f 154/184/154 155/208/155 134/190/134
f 134/190/134 155/208/155 127/184/127
f 155/208/155 153/209/153 127/184/127
f 126/181/124 112/210/110 156/211/156
f 112/210/110 157/181/157 156/211/156
f 156/211/156 157/181/157 124/182/125
f 157/181/157 158/183/158 124/182/125
f 124/182/125 158/183/158 154/184/154
f 113/171/113 117/172/117 111/169/112
f 111/169/112 117/172/117 157/195/157
f 117/172/117 121/178/121 157/195/157
f 157/195/157 121/178/121 158/196/158
f 121/178/121 154/207/154 158/196/158
f 154/184/154 123/209/123 155/208/155
f 123/209/123 122/212/122 155/208/155
f 155/208/155 122/212/122 159/213/159
f 122/212/122 160/214/160 159/213/159
f 159/213/159 160/214/160 152/212/152
f 162/215/161 161/216/162 118/217/118
f 161/216/162 163/218/163 118/217/118
f 118/217/118 163/218/163 138/219/138
f 163/218/163 140/217/140 138/219/138
f 163/218/163 164/216/164 140/217/140
f 164/216/164 162/215/161 140/217/140
f 140/217/140 162/215/161 116/220/116
f 162/215/161 118/217/118 116/220/116
f 112/168/110 126/195/124 110/169/111
f 126/195/124 114/172/114 110/169/111
f 152/179/152 160/221/160 151/191/151
f 151/191/151 160/221/160 136/206/135
f 153/209/153 155/208/155 152/212/152
f 152/212/152 155/208/155 159/213/159
f 160/221/160 122/179/122 136/191/135
f 136/191/135 122/179/122 120/177/120
f 143/198/144 150/222/150 147/201/147
f 147/201/147 150/222/150 149/223/149
f 148/224/148 145/225/143 146/200/146
f 146/200/146 145/225/143 144/199/145
f 156/211/156 124/182/125 126/181/124
f 111/169/112 157/195/157 112/168/110
f 115/173/115 117/172/117 113/171/113
f 116/174/116 114/172/114 140/175/140
f 138/194/138 120/177/120 118/175/118
f 137/193/137 139/177/139 135/192/136
f 141/176/141 142/178/142 139/177/139
f 121/178/121 117/172/117 119/176/119
f 131/188/131 133/189/133 129/186/129
f 127/207/127 142/178/142 125/196/126
f 154/207/154 121/178/121 123/180/123
f 128/185/128 124/182/125 154/184/154
f 145/197/143 150/226/150 143/198/144
usemtl arms
f 3/1/1 4/2/2 2/3/3
f 2/3/3 4/2/2 5/4/4
f 5/4/4 4/2/2 6/5/5
f 4/2/2 7/6/6 6/5/5
f 7/6/6 8/7/7 6/5/5
f 6/5/5 8/7/7 9/8/8
f 8/7/7 10/9/9 9/8/8
f 9/8/8 10/9/9 11/10/10
f 2/3/3 14/11/11 13/12/12
f 13/12/12 14/11/11 15/13/13
f 14/11/11 16/14/14 15/13/13
f 16/14/14 17/15/15 15/13/13
f 15/13/13 17/15/15 18/16/16
f 17/15/15 19/17/17 18/16/16
f 18/16/16 19/17/17 20/18/18
f 19/17/17 21/19/19 20/18/18
f 20/18/18 21/19/19 22/20/20
f 21/19/19 23/21/21 22/20/20
f 22/20/20 23/21/21 24/22/22
f 23/21/21 25/23/23 24/22/22
f 24/22/22 25/23/23 26/24/24
f 25/23/23 27/25/25 26/24/24
f 26/24/24 27/25/25 28/26/26
f 28/26/26 27/25/25 29/27/27
f 13/12/12 15/13/13 30/28/28
f 30/28/28 15/13/13 31/29/29
f 15/13/13 18/16/16 31/29/29
f 31/29/29 18/16/16 32/30/30
f 18/16/16 20/18/18 32/30/30
f 32/30/30 20/18/18 33/31/31
f 20/18/18 22/20/20 33/31/31
f 33/31/31 22/20/20 34/32/32
f 22/20/20 24/22/22 34/32/32
f 34/32/32 24/22/22 7/33/6
f 7/33/6 24/22/22 8/34/7
f 24/22/22 26/24/24 8/34/7
f 8/34/7 26/24/24 28/26/26
f 2/3/3 5/4/4 14/11/11
f 14/11/11 5/4/4 16/14/14
f 5/4/4 6/5/5 16/14/14
f 16/14/14 6/5/5 35/35/33
f 35/35/33 12/36/34 36/37/35
f 36/37/35 12/36/34 37/38/36
f 41/39/37 39/40/38 40/41/39
f 42/42/40 44/43/41 43/44/42
f 43/44/42 44/43/41 45/45/43
f 48/39/44 46/46/45 47/47/46
f 49/48/47 51/49/48 50/50/49
f 50/50/49 51/49/48 52/51/50
f 53/52/51 93/53/52 55/54/53
f 56/55/54 55/54/53 57/56/55
f 55/54/53 58/57/56 57/56/55
f 59/58/57 61/59/58 60/60/59
f 60/60/59 61/59/58 62/61/60
f 61/59/58 63/62/61 62/61/60
f 62/61/60 63/62/61 64/63/62
f 63/62/61 65/64/63 64/63/62
f 64/63/62 65/64/63 66/65/64
f 65/64/63 67/66/65 66/65/64
f 66/65/64 67/66/65 68/67/66
f 7/33/6 4/68/2 34/32/32
f 4/68/2 1/69/67 34/32/32
f 34/32/32 1/69/67 33/31/31
f 1/69/67 69/70/68 33/31/31
f 33/31/31 69/70/68 32/30/30
f 69/70/68 70/71/69 32/30/30
f 32/30/30 70/71/69 71/72/70
f 72/73/71 74/74/72 73/75/73
f 73/75/73 74/74/72 75/76/74
f 74/74/72 76/77/75 75/76/74
f 75/76/74 76/77/75 77/78/76
f 76/77/75 78/79/77 77/78/76
f 77/78/76 78/79/77 79/80/78
f 61/59/58 80/81/79 63/62/61
f 63/62/61 80/81/79 81/82/80
f 80/81/79 82/83/81 81/82/80
f 83/84/82 84/85/83 80/86/79
f 80/86/79 84/85/83 85/87/84
f 86/88/85 87/39/86 91/89/87
f 40/41/39 39/40/38 73/90/73
f 39/40/38 41/91/37 73/90/73
f 73/90/73 41/91/37 72/92/71
f 41/91/37 43/93/42 72/92/71
f 72/92/71 43/93/42 45/94/43
f 83/95/82 88/92/88 84/96/83
f 84/96/83 88/92/88 89/97/89
f 88/92/88 90/90/90 89/97/89
f 89/97/89 90/90/90 91/89/87
f 90/90/90 86/88/85 91/89/87
f 91/89/87 87/98/86 89/97/89
f 89/97/89 87/98/86 92/99/91
f 47/47/46 46/46/45 74/90/72
f 46/46/45 48/100/44 74/90/72
f 74/90/72 48/100/44 93/53/52
f 48/100/44 50/101/49 93/53/52
f 93/53/52 50/101/49 52/102/50
f 57/103/55 78/92/77 54/104/92
f 78/92/77 76/105/75 54/104/92
f 76/105/75 93/53/52 53/52/51
f 62/61/60 64/63/62 94/106/93
f 94/106/93 64/63/62 95/107/94
f 64/63/62 66/65/64 95/107/94
f 95/107/94 66/65/64 96/108/95
f 96/108/95 66/65/64 68/67/66
f 35/35/33 36/37/35 17/15/15
f 17/15/15 36/37/35 97/109/96
f 36/37/35 37/38/36 97/109/96
f 97/109/96 37/38/36 98/110/97
f 37/38/36 38/111/98 98/110/97
f 98/110/97 38/111/98 25/23/23
f 38/111/98 27/25/25 25/23/23
f 16/14/14 35/35/33 17/15/15
f 17/15/15 97/109/96 19/17/17
f 19/17/17 97/109/96 21/19/19
f 97/109/96 98/110/97 21/19/19
f 21/19/19 98/110/97 23/21/21
f 98/110/97 25/23/23 23/21/21
f 78/79/77 57/112/55 79/80/78
f 57/112/55 58/113/56 79/80/78
f 79/80/78 58/113/56 52/114/50
f 100/115/99 99/116/100 75/117/74
f 75/117/74 99/116/100 101/118/101
f 99/116/100 96/108/95 101/118/101
f 101/118/101 96/108/95 102/119/102
f 29/120/27 27/121/25 94/122/93
f 27/121/25 38/123/98 94/122/93
f 94/122/93 38/123/98 62/124/60
f 38/123/98 37/125/36 62/124/60
f 62/124/60 37/125/36 60/126/59
f 37/125/36 59/127/57 60/126/59
f 88/128/88 73/75/73 90/129/90
f 90/129/90 101/130/101 82/131/81
f 82/131/81 101/130/101 81/132/80
f 86/88/85 82/92/81 85/87/84
f 85/87/84 82/92/81 80/86/79
f 80/81/79 61/59/58 83/133/82
f 83/133/82 61/59/58 44/134/41
f 61/59/58 45/135/43 44/134/41
f 100/136/99 77/78/76 103/137/103
f 103/137/103 77/78/76 59/58/57
f 77/78/76 79/80/78 59/58/57
f 59/58/57 79/80/78 61/59/58
f 63/62/61 81/82/80 65/64/63
f 65/64/63 81/82/80 67/66/65
f 81/82/80 104/138/104 67/66/65
f 69/70/68 1/69/67 70/71/69
f 100/139/99 103/140/103 105/141/105
f 105/141/105 103/140/103 106/142/106
f 103/140/103 107/143/107 106/142/106
f 106/142/106 107/143/107 11/144/10
f 107/143/107 12/145/34 11/144/10
f 40/41/39 88/92/88 42/42/40
f 42/42/40 88/92/88 44/43/41
f 89/97/89 92/99/91 84/96/83
f 51/49/48 49/48/47 72/92/71
f 72/92/71 49/48/47 47/47/46
f 58/57/56 55/54/53 93/53/52
f 57/103/55 54/104/92 56/146/54
f 94/106/93 95/107/94 108/147/108
f 108/147/108 95/107/94 99/116/100
f 95/107/94 96/108/95 99/116/100
f 101/148/101 102/149/102 81/82/80
f 81/82/80 102/149/102 104/138/104
f 6/5/5 9/8/8 35/35/33
f 9/8/8 11/10/10 35/35/33
f 35/35/33 11/10/10 12/36/34
f 31/29/29 32/30/30 71/72/70
f 100/150/99 105/151/105 108/152/108
f 105/151/105 29/120/27 108/152/108
f 108/152/108 29/120/27 94/122/93
f 74/74/72 93/153/52 76/77/75
f 76/105/75 53/52/51 54/104/92
f 59/58/57 107/154/107 103/137/103
f 45/135/43 61/59/58 51/155/48
f 51/155/48 61/59/58 52/114/50
f 61/59/58 79/80/78 52/114/50
f 108/147/108 99/116/100 100/115/99
f 104/138/104 102/149/102 68/156/66
f 4/68/2 3/157/1 1/69/67
f 106/158/106 10/9/9 105/159/105
f 105/159/105 10/9/9 109/160/109
f 10/9/9 8/7/7 109/160/109
f 8/34/7 28/26/26 109/161/109
f 28/26/26 29/27/27 109/161/109
f 109/161/109 29/27/27 105/162/105
f 87/163/86 86/164/85 84/85/83
f 86/164/85 85/87/84 84/85/83
f 48/163/44 47/164/46 50/50/49
f 47/164/46 49/48/47 50/50/49
f 40/164/39 42/42/40 41/163/37
f 41/163/37 42/42/40 43/44/42
f 56/55/54 54/163/92 55/54/53
f 55/54/53 54/163/92 53/164/51
f 107/143/107 59/127/57 12/145/34
f 12/145/34 59/127/57 37/125/36
f 88/92/88 83/95/82 44/165/41
f 72/92/71 45/94/43 51/165/48
f 93/53/52 52/102/50 58/165/56
f 73/75/73 75/76/74 90/129/90
f 90/129/90 75/76/74 101/130/101
f 102/119/102 96/108/95 68/67/66
f 88/92/88 40/41/39 73/90/73
f 82/92/81 86/88/85 90/90/90
f 72/92/71 47/47/46 74/90/72
f 75/76/74 77/78/76 100/136/99
f 67/66/65 104/166/104 68/167/66
f 10/9/9 106/158/106 11/10/10
