# Blender 4.3.2
# www.blender.org
mtllib BrazoDer_Ember.mtl
o BrazoDer_E
v 0.005520 0.007615 0.061906
v -0.013251 0.050836 0.001319
v -0.035785 0.003530 -0.000263
v 0.008295 -0.044920 0.017963
v 0.001978 0.025998 -0.021600
v 0.005968 -0.022405 -0.015475
v -0.007576 0.038614 0.049094
v 0.005857 -0.027281 0.050795
v -0.007824 -0.080269 0.032113
v -0.037163 -0.067982 -0.010297
v -0.063957 -0.052990 -0.001775
v -0.101574 -0.240800 0.043467
v -0.205424 -0.356419 0.023775
v -0.092036 -0.224488 0.023251
v -0.019078 -0.075900 -0.002060
v -0.069805 -0.048617 0.033798
v -0.196652 -0.358308 0.056772
v -0.055445 -0.055558 0.056699
v -0.027050 -0.069357 0.058472
v -0.212770 -0.494409 0.112577
v -0.198067 -0.416035 0.102529
v -0.218348 -0.411022 0.086474
v -0.210469 -0.356940 0.043681
v -0.254113 -0.455416 0.068074
v -0.256942 -0.465608 0.032195
v -0.255048 -0.459527 -0.006398
v -0.273099 -0.549509 0.002984
v -0.254036 -0.468969 0.008167
v -0.184434 -0.371693 0.051429
v -0.184514 -0.369241 0.022005
v -0.225030 -0.392549 -0.008868
v -0.192522 -0.410498 -0.000938
v -0.242680 -0.474722 -0.009771
v -0.241866 -0.475060 0.009835
v -0.279278 -0.566520 0.026387
v -0.235757 -0.474092 0.023274
v -0.244234 -0.476018 0.032525
v -0.282547 -0.572259 0.049701
v -0.235543 -0.472567 0.059447
v -0.280562 -0.562694 0.077700
v -0.215631 -0.440871 0.089415
v -0.222601 -0.450278 0.071929
v -0.197580 -0.416349 0.037660
v -0.190424 -0.441055 0.086213
v -0.187157 -0.425956 0.097551
v -0.216856 -0.500430 0.124700
v -0.278805 -0.566019 0.020224
v -0.254936 -0.470016 0.059692
v -0.260212 -0.473048 0.051496
v -0.235935 -0.436525 0.080133
v -0.278239 -0.565497 0.072486
vn 0.6427 -0.3113 0.7000
vn 0.4583 -0.8863 -0.0659
vn 0.8705 -0.4719 -0.1399
vn 0.3649 0.1094 0.9246
vn -0.1916 0.1414 0.9712
vn -0.8474 0.1089 0.5196
vn -0.7183 0.4556 0.5259
vn -0.9052 0.4214 0.0550
vn -0.7382 0.3278 -0.5896
vn -0.3275 -0.0676 -0.9424
vn -0.8383 0.4730 -0.2711
vn 0.5270 -0.0801 -0.8461
vn -0.5084 0.1641 -0.8453
vn 0.7949 -0.5672 -0.2155
vn -0.0380 -0.2406 -0.9699
vn 0.8111 -0.5018 -0.3005
vn 0.7830 -0.4727 0.4043
vn -0.5585 0.4628 -0.6883
vn 0.7315 -0.1492 -0.6653
vn -0.8454 0.4729 0.2484
vn 0.9190 -0.1290 0.3724
vn -0.1808 0.3590 0.9157
vn -0.2023 -0.8135 0.5452
vn -0.7594 -0.6421 0.1050
vn 0.1378 -0.8350 -0.5328
vn -0.6484 0.4048 0.6447
vn 0.1239 0.4411 0.8889
vn 0.8939 0.0492 0.4456
vn -0.5652 0.0808 0.8210
vn -0.9061 0.2843 0.3134
vn -0.4135 0.4706 -0.7795
vn 0.4344 -0.3475 -0.8310
vn -0.7935 0.1689 -0.5846
vn -0.9872 0.1596 0.0002
vn -0.6528 0.7570 0.0268
vn -0.9992 -0.0206 -0.0332
vn -0.2968 -0.9548 0.0156
vn 0.6086 -0.7815 -0.1375
vn 0.8806 -0.4602 -0.1128
vn 0.7823 -0.5777 -0.2330
vn 0.7855 -0.1609 -0.5975
vn 0.8059 -0.5920 0.0078
vn 0.8157 -0.5757 -0.0562
vn 0.5573 -0.7403 0.3760
vn -0.2794 -0.8555 0.4359
vn -0.2375 -0.8122 -0.5328
vn 0.6566 -0.7317 0.1827
vn -0.3088 -0.9507 0.0282
vn -0.0717 -0.9558 -0.2852
vn -0.5209 -0.6381 0.5670
vn -0.8825 0.4338 0.1816
vt 0.179545 0.028372
vt 0.181423 0.004638
vt 0.188217 0.020689
vt 0.170249 0.006685
vt 0.170838 0.042062
vt 0.157837 0.008026
vt 0.159817 0.051396
vt 0.150150 0.008874
vt 0.136470 0.034951
vt 0.135332 0.009660
vt 0.141419 0.055987
vt 0.123352 0.009293
vt 0.129238 0.050450
vt 0.115051 0.008598
vt 0.113428 0.036165
vt 0.105105 0.005597
vt 0.099780 0.022815
vt 0.610860 0.501860
vt 0.622022 0.431627
vt 0.616399 0.504149
vt 0.607904 0.430316
vt 0.567398 0.431756
vt 0.584268 0.430370
vt 0.593611 0.573300
vt 0.598145 0.430460
vt 0.602936 0.573065
vt 0.580362 0.566291
vt 0.555154 0.433461
vt 0.558366 0.567224
vt 0.551175 0.513280
vt 0.563536 0.575687
vt 0.573375 0.575099
vt 0.543389 0.435304
vt 0.530525 0.438177
vt 0.163805 0.430967
vt 0.150481 0.451852
vt 0.158421 0.435551
vt 0.151081 0.464424
vt 0.160245 0.462399
vt 0.164847 0.462370
vt 0.159650 0.481936
vt 0.143681 0.452794
vt 0.154775 0.487935
vt 0.146186 0.488385
vt 0.132928 0.447596
vt 0.125712 0.493062
vt 0.135662 0.497506
vt 0.087845 0.480304
vt 0.101583 0.476007
vt 0.124386 0.440562
vt 0.107134 0.452683
vt 0.097473 0.465594
vt 0.066438 0.478601
vt 0.092378 0.464859
vt 0.705603 0.857240
vt 0.685262 0.862999
vt 0.698629 0.836146
vt 0.694906 0.873445
vt 0.708725 0.871510
vt 0.701428 0.876551
vt 0.709954 0.878535
vt 0.739592 0.872784
vt 0.739418 0.851436
vt 0.744440 0.861150
vt 0.731212 0.831902
vt 0.714426 0.833117
vt 0.770452 0.877620
vt 0.782714 0.849092
vt 0.781802 0.850473
vt 0.744031 0.844068
vt 0.771084 0.817404
vt 0.734781 0.827671
vt 0.748013 0.793623
vt 0.746226 0.793572
vt 0.711032 0.827890
vt 0.705129 0.828289
vt 0.689224 0.837928
vt 0.696224 0.812098
vt 0.693349 0.806585
vt 0.066523 0.435400
vt 0.068102 0.433725
vt 0.103369 0.445744
vt 0.118979 0.443495
vt 0.096477 0.404721
vt 0.141907 0.404458
vt 0.140832 0.404497
s 1
usemtl Ember_Costume_01_Mat
f 8/1/1 9/2/2 4/3/3
f 19/4/4 9/2/2 8/1/1
f 19/4/4 8/1/1 1/5/5
f 18/6/6 19/4/4 1/5/5
f 7/7/7 18/6/6 1/5/5
f 16/8/8 18/6/6 7/7/7
f 3/9/9 11/10/10 16/8/8
f 7/7/7 2/11/11 16/8/8
f 2/11/11 3/9/9 16/8/8
f 10/12/12 11/10/10 3/9/9
f 5/13/13 10/12/12 3/9/9
f 15/14/14 10/12/12 5/13/13
f 3/9/9 2/11/11 5/13/13
f 6/15/15 15/14/14 5/13/13
f 9/16/2 15/14/14 6/15/15
f 4/17/3 9/16/2 6/15/15
f 14/18/16 9/19/2 12/20/17
f 15/21/14 9/19/2 14/18/16
f 16/22/8 11/23/10 13/24/18
f 13/24/18 11/23/10 10/25/12
f 14/18/16 12/20/17 30/26/19
f 15/21/14 14/18/16 30/26/19
f 30/26/19 10/25/12 15/21/14
f 13/24/18 10/25/12 30/26/19
f 23/27/20 16/22/8 13/24/18
f 23/27/20 18/28/6 16/22/8
f 30/29/19 12/30/17 29/31/21
f 17/32/22 18/28/6 23/27/20
f 12/30/17 19/33/4 29/31/21
f 29/31/21 19/33/4 17/32/22
f 17/32/22 19/33/4 18/28/6
f 12/30/17 9/34/2 19/33/4
f 46/35/23 41/36/24 20/37/25
f 46/35/23 22/38/26 41/36/24
f 21/39/27 22/38/26 46/35/23
f 45/40/28 21/39/27 46/35/23
f 45/40/28 29/41/21 21/39/27
f 50/42/29 41/36/24 22/38/26
f 17/43/22 21/39/27 29/41/21
f 21/39/27 17/43/22 22/38/26
f 22/38/26 23/44/20 24/45/30
f 22/38/26 17/43/22 23/44/20
f 24/45/30 50/42/29 22/38/26
f 31/46/31 23/44/20 13/47/18
f 23/44/20 31/46/31 24/45/30
f 33/48/32 26/49/33 31/46/31
f 26/49/33 24/45/30 31/46/31
f 48/50/34 24/45/30 26/49/33
f 25/51/35 48/50/34 26/49/33
f 25/51/35 26/49/33 28/52/36
f 26/49/33 27/53/37 28/52/36
f 27/53/37 26/49/33 33/48/32
f 28/52/36 27/53/37 34/54/38
f 43/55/39 29/56/21 44/57/40
f 43/55/39 30/58/19 29/56/21
f 43/55/39 32/59/41 30/58/19
f 13/60/18 30/58/19 32/59/41
f 32/59/41 31/61/31 13/60/18
f 32/59/41 33/62/32 31/61/31
f 33/62/32 32/59/41 43/55/39
f 33/62/32 43/55/39 36/63/42
f 33/62/32 36/63/42 34/64/38
f 36/63/42 43/55/39 39/65/43
f 43/55/39 42/66/44 39/65/43
f 33/62/32 34/64/38 27/67/37
f 36/63/42 35/68/45 34/64/38
f 35/68/45 47/69/46 34/64/38
f 37/70/47 35/68/45 36/63/42
f 36/63/42 39/65/43 37/70/47
f 39/65/43 38/71/48 37/70/47
f 48/72/34 38/71/48 39/65/43
f 48/72/34 39/65/43 51/73/49
f 51/73/49 39/65/43 40/74/50
f 50/75/29 40/74/50 42/66/44
f 42/66/44 40/74/50 39/65/43
f 41/76/24 50/75/29 42/66/44
f 42/66/44 44/57/40 41/76/24
f 43/55/39 44/57/40 42/66/44
f 45/77/28 44/57/40 29/56/21
f 20/78/25 44/57/40 45/77/28
f 41/76/24 44/57/40 20/78/25
f 20/78/25 45/77/28 46/79/23
f 34/54/38 47/80/46 28/52/36
f 28/52/36 47/80/46 25/51/35
f 35/81/45 25/51/35 47/80/46
f 25/51/35 35/81/45 37/82/47
f 49/83/51 48/50/34 25/51/35
f 38/84/48 25/51/35 37/82/47
f 49/83/51 25/51/35 38/84/48
f 48/50/34 49/83/51 38/84/48
f 50/42/29 24/45/30 40/85/50
f 40/85/50 24/45/30 48/50/34
f 40/85/50 48/50/34 51/86/49
