# Blender 4.3.2
# www.blender.org
mtllib BrazoIzq_T.mtl
o BrazoIzq_T
v -0.289459 2.347831 1.714212
v 0.418816 -0.362270 2.342869
v 0.389117 -2.020320 1.399389
v 0.402314 -2.411414 0.237785
v 0.118914 -1.988331 -1.046671
v -0.092012 0.970437 -2.134748
v -0.505686 2.476153 -1.420089
v -0.116180 2.939109 -0.040902
v -0.115093 -0.876150 -2.045264
v 3.382102 -2.878042 0.150149
v 4.104281 -1.437390 -1.463822
v 4.531031 -0.706530 -0.833567
v 4.708286 -0.450196 0.004644
v 4.542044 -0.748133 1.045024
v 4.010601 -1.681025 1.593052
v 3.520036 -2.560272 1.038648
v 3.466312 -2.748841 -0.800793
v 3.679378 -2.276203 -1.436643
v 5.183372 -2.417115 1.610964
v 4.586746 -3.493422 0.676480
v 5.646396 -1.736199 1.018993
v 5.955585 -1.215850 -0.278626
v 5.419166 -2.111065 -1.447236
v 4.910233 -3.054134 -1.367290
v 4.822252 -3.111089 0.900246
v 5.188760 -2.431643 1.336139
v 5.760118 -1.551489 -0.292334
v 5.366876 -2.221309 -1.206276
v 4.953891 -3.010040 -1.053935
v 4.768291 -3.312594 -0.116306
v 7.182325 -2.979753 0.689315
v 7.239429 -3.234416 -0.253570
v 6.611670 -3.182709 -1.049893
v 7.632075 -4.740543 0.415299
v 7.165333 -3.632483 1.209126
v 6.663421 -2.809915 1.191354
v 6.702092 -3.843897 1.107427
v 6.303363 -3.697404 1.053492
v 6.435315 -3.722450 -0.865963
v 6.270675 -4.637880 1.394545
v 6.110741 -4.171175 1.634725
v 6.173971 -3.263065 1.526844
v 6.500345 -4.362134 1.494219
v 6.816842 -3.754797 0.625746
v 7.387413 -4.792508 0.405697
v 6.948464 -4.389587 -0.736145
v 5.895472 -3.746565 0.746064
v 6.396257 -4.498695 1.194070
v 7.400760 -4.581409 1.008606
vn -0.1328 -0.8142 -0.5651
vn -0.3223 -0.9442 0.0676
vn -0.1566 -0.9477 -0.2782
vn 0.1289 -0.0547 -0.9902
vn 0.1292 -0.0483 -0.9904
vn 0.0681 -0.0714 -0.9951
vn 0.4504 0.6624 -0.5986
vn 0.3379 0.4940 -0.8011
vn 0.3949 0.4787 -0.7841
vn 0.4878 0.6668 -0.5634
vn 0.5711 0.8185 -0.0618
vn 0.5494 0.8356 0.0010
vn 0.5018 0.6597 0.5595
vn 0.4806 0.5963 0.6430
vn 0.3128 0.2991 0.9015
vn 0.3142 0.3711 0.8738
vn -0.1327 -0.4674 0.8740
vn -0.0009 -0.4966 0.8680
vn 0.0014 -0.5018 0.8650
vn -0.1236 -0.5171 0.8469
vn -0.3203 -0.8775 0.3569
vn -0.1250 -0.9408 0.3151
vn -0.1269 -0.9382 0.3220
vn -0.2454 -0.4974 0.8321
vn -0.2257 -0.5649 0.7937
vn 0.3111 0.4300 0.8475
vn 0.3010 0.5009 0.8115
vn 0.9778 0.1770 0.1120
vn 0.7308 0.5545 0.3980
vn 0.3979 0.5671 -0.7211
vn 0.4678 0.5845 -0.6629
vn -0.2068 -0.5641 -0.7994
vn -0.1026 -0.4216 -0.9010
vn -0.0247 -0.0704 -0.9972
vn -0.2778 -0.8736 -0.3996
vn -0.4231 -0.9060 -0.0147
vn 0.8168 -0.5728 0.0682
vn 0.0418 -0.7993 0.5995
vn 0.6529 -0.3615 0.6656
vn 0.8498 -0.5253 0.0444
vn 0.5724 0.5700 0.5895
vn 0.9910 -0.0234 -0.1314
vn 0.8435 -0.2582 -0.4710
vn 0.8775 -0.4786 -0.0291
vn 0.5446 -0.7292 -0.4144
vn 0.8557 -0.5151 -0.0499
vn -0.0161 -0.9907 -0.1352
vn 0.8716 0.3482 -0.3452
vn 0.8342 0.0192 -0.5511
vn 0.7026 0.4114 -0.5806
vn 0.8548 0.4719 0.2159
vn 0.9404 0.1016 -0.3245
vn 0.5175 0.5540 0.6521
vn 0.5173 0.0761 0.8524
vn -0.4583 -0.6446 0.6119
vn -0.1726 -0.0879 0.9811
vn 0.7749 -0.6272 0.0792
vn -0.0515 -0.2771 -0.9595
vn -0.7426 -0.6629 -0.0954
vn -0.3372 -0.6751 -0.6562
vn -0.2196 -0.2618 0.9398
vn -0.2843 -0.5148 0.8088
vn 0.0672 0.2463 0.9669
vn 0.8975 -0.1752 0.4048
vn 0.9777 -0.1095 -0.1791
vn 0.7369 -0.3841 0.5562
vn 0.1635 -0.7489 0.6421
vn 0.8492 -0.4433 0.2871
vn -0.2217 -0.8809 0.4181
vn -0.5236 -0.8511 -0.0395
vn -0.1876 -0.9152 -0.3568
vn 0.4866 -0.5948 -0.6398
vn 0.1556 -0.8538 -0.4967
vn 0.2216 -0.2416 0.9447
vn 0.4285 -0.9012 0.0642
vn -0.1155 -0.6931 -0.7116
vt 0.111533 -0.572440
vt 0.037747 -0.590404
vt 0.083696 -0.561482
vt 0.139074 -0.593568
vt 0.161217 -0.628326
vt 0.055836 -0.648036
vt 0.057535 -0.673293
vt 0.181724 -0.661905
vt 0.178096 -0.691828
vt 0.057871 -0.693110
vt 0.174429 -0.722840
vt 0.057526 -0.720783
vt 0.136900 -0.777600
vt 0.054376 -0.748722
vt 0.108600 -0.812600
vt 0.047019 -0.776798
vt 0.082595 -0.826218
vt 0.039011 -0.794532
vt 0.023300 -0.743300
vt 0.014185 -0.774851
vt 0.024100 -0.718500
vt 0.024161 -0.687717
vt 0.022300 -0.654300
vt 0.017976 -0.632447
vt 0.051450 -0.627202
vt 0.045249 -0.610326
vt 0.007600 -0.598600
vt 0.017301 -0.950800
vt 0.014992 -0.958294
vt 0.011601 -0.971764
vt 0.005900 -0.974000
vt 0.020176 -0.984243
vt 0.041865 -0.982175
vt 0.043409 -0.987623
vt 0.053114 -0.966753
vt 0.059300 -0.966300
vt 0.047231 -0.952860
vt 0.052296 -0.950032
vt 0.030700 -0.950000
vt 0.898722 -0.798638
vt 0.919677 -0.764612
vt 0.882048 -0.770097
vt 0.898227 -0.830332
vt 0.946410 -0.797942
vt 0.882500 -0.848400
vt 0.911604 -0.851192
vt 0.909805 -0.865965
vt 0.900420 -0.870223
vt 0.890180 -0.753304
vt 0.829531 -0.845768
vt 0.825598 -0.801286
vt 0.830915 -0.739072
vt 0.826944 -0.767882
vt 0.898779 -0.894010
vt 0.833670 -0.901402
vt 0.912885 -0.903119
vt 0.831524 -0.878499
vt 0.881100 -0.872900
vt 0.911256 -0.890630
vt 0.932296 -0.828819
vt 0.951980 -0.798012
vt 0.940764 -0.958102
vt 0.910040 -0.939494
vt 0.883638 -0.977899
vt 0.909300 -0.983900
vt 0.829712 -0.939790
vt 0.826918 -0.978906
vt 0.899602 -0.924571
vt 0.883000 -0.924300
vt 0.913037 -0.924839
vt 0.910881 -0.910075
vt 0.917400 -0.886700
vt 0.912054 -0.899708
vt 0.940345 -0.858259
vt 0.940244 -0.934789
s 1
usemtl Material__16
f 5/1/1 10/2/2 4/3/3
f 9/4/4 6/5/5 11/6/6
f 12/7/7 11/6/8 6/5/9
f 6/5/9 7/8/10 12/7/7
f 12/7/7 7/8/10 8/9/11
f 8/9/11 13/10/12 12/7/7
f 13/10/12 8/9/11 1/11/13
f 1/11/13 14/12/14 13/10/12
f 14/12/14 1/11/13 2/13/15
f 2/13/15 15/14/16 14/12/14
f 15/14/17 2/13/18 3/15/19
f 3/15/19 16/16/20 15/14/17
f 16/16/21 3/15/22 4/17/23
f 4/17/23 10/18/2 16/16/21
f 19/19/24 15/14/17 16/16/20
f 16/16/20 20/20/25 19/19/24
f 21/21/26 14/12/14 15/14/16
f 15/14/16 19/19/27 21/21/26
f 22/22/28 13/10/12 14/12/14
f 14/12/14 21/21/29 22/22/28
f 22/22/28 12/7/7 13/10/12
f 23/23/30 11/6/8 12/7/7
f 12/7/7 22/22/31 23/23/30
f 24/24/32 18/25/33 11/6/6
f 11/6/6 23/23/34 24/24/32
f 24/24/32 17/26/35 18/25/33
f 20/27/36 10/2/2 17/26/35
f 17/26/35 24/24/32 20/27/36
f 20/20/36 16/16/21 10/18/2
f 20/28/37 25/29/38 26/30/39
f 26/30/39 19/31/40 20/28/37
f 21/32/41 19/31/40 26/30/39
f 21/32/29 27/33/42 22/34/28
f 22/34/28 27/33/42 28/35/43
f 28/35/43 23/36/44 22/34/28
f 28/35/43 29/37/45 24/38/46
f 24/38/46 23/36/44 28/35/43
f 24/38/46 29/37/45 30/39/47
f 24/38/46 30/39/47 20/28/37
f 20/28/37 30/39/47 25/29/38
f 32/40/48 46/41/49 33/42/50
f 32/40/48 31/43/51 34/44/52
f 31/43/51 36/45/53 35/46/54
f 37/47/55 35/46/54 36/45/56
f 36/45/56 38/48/57 37/47/55
f 33/42/58 46/41/59 39/49/60
f 31/43/51 21/50/41 36/45/53
f 27/51/42 32/40/48 33/42/50
f 29/52/45 28/53/43 33/42/58
f 33/42/58 39/49/60 29/52/45
f 41/54/61 25/55/38 40/56/62
f 36/45/53 21/50/41 26/57/39
f 26/57/39 42/58/63 36/45/53
f 38/48/57 42/58/64 43/59/65
f 38/48/57 36/45/66 42/58/64
f 34/44/67 31/43/51 44/60/68
f 34/44/67 44/60/68 45/61/69
f 32/40/48 34/44/52 46/41/49
f 46/41/59 34/44/67 45/61/69
f 45/62/69 44/63/70 39/64/60
f 46/65/59 45/62/69 39/64/60
f 30/66/47 29/67/45 39/64/60
f 38/68/57 39/64/60 44/63/70
f 25/55/38 30/66/47 47/69/71
f 39/64/60 47/69/71 30/66/47
f 38/68/57 47/69/71 39/64/60
f 38/68/57 44/63/70 37/70/55
f 25/55/38 47/69/71 48/71/72
f 48/71/72 40/56/73 25/55/38
f 48/71/72 47/69/71 38/68/57
f 43/59/74 42/58/63 41/54/61
f 25/55/38 41/54/61 26/57/39
f 21/50/41 31/43/51 27/51/42
f 48/72/72 43/59/65 40/73/73
f 43/59/74 41/54/61 40/73/62
f 49/74/75 31/43/51 35/46/54
f 35/46/54 37/47/55 49/74/75
f 49/74/75 44/60/68 31/43/51
f 37/70/55 44/63/70 49/75/75
f 48/72/72 38/48/57 43/59/65
f 27/51/42 33/42/50 28/53/43
f 31/43/51 32/40/48 27/51/42
f 26/57/39 41/54/61 42/58/63
f 5/1/1 17/26/35 10/2/2
f 9/4/76 18/25/33 17/26/35
f 17/26/35 5/1/1 9/4/76
f 18/25/33 9/4/4 11/6/6
