# Blender 4.3.2
# www.blender.org
mtllib BrazoIzq_Sam.mtl
o BrazoIzq_Sam
v 1.151112 -1.008970 -0.044307
v 1.274855 -1.001637 0.197385
v 1.189083 -0.940166 0.190675
v 1.299404 -0.789272 0.284670
v 1.333722 -1.044356 0.202093
v 1.397940 -0.861701 0.292722
v 1.483506 -0.711033 0.191347
v 1.409140 -0.654044 0.184637
v 1.541170 -0.756239 0.196043
v 0.582023 -0.263395 -0.437072
v 0.703942 -0.090261 -0.328304
v 1.324106 -0.815113 -0.377321
v 1.432696 -0.665910 -0.289365
v 0.746972 -0.026649 -0.065118
v 1.465739 -0.600872 -0.042964
v 0.698082 -0.095189 0.194702
v 0.586185 -0.256723 0.294736
v 0.476812 -0.416060 0.195373
v 0.425224 -0.490891 -0.069827
v 0.478932 -0.415826 -0.333673
v 1.209035 -0.956079 -0.289365
v 1.582089 -1.228925 -0.216853
v 1.787190 -1.164287 -0.340426
v 1.798476 -0.963301 -0.219537
v 2.885721 -2.628204 0.475009
v 2.755231 -2.830331 0.018053
v 2.892419 -2.673563 -0.454616
v 2.892419 -2.673563 -0.454616
v 3.193751 -2.275722 -0.586341
v 3.431884 -1.935924 -0.279710
v 3.428094 -1.910613 0.236315
v 3.184990 -2.218559 0.572363
v 3.610661 -2.765241 0.157012
v 3.830493 -2.880783 -0.028575
v 3.824970 -2.873014 0.200902
v 3.876534 -2.878476 -0.021994
v 3.851728 -2.896500 -0.220203
v 3.819180 -2.879414 0.236716
v 3.560684 -2.691901 0.399429
v 2.671052 -2.509128 -0.464344
v 2.962865 -2.053905 0.562111
v 2.971728 -2.111231 -0.595949
v 3.209859 -1.771430 -0.289329
v 3.206069 -1.746134 0.226704
v 2.671052 -2.509128 -0.464344
v 2.533782 -2.666542 0.008163
v 2.663696 -2.463724 0.465398
v 1.900701 -1.048162 -0.319025
v 1.691543 -0.778587 -0.012088
v 1.927660 -0.976441 -0.047376
v 1.849107 -1.215177 -0.311270
v 1.910940 -1.053374 0.158575
v 1.824322 -1.189259 0.253898
v 1.701326 -1.316682 0.163055
v 1.384103 -1.169006 -0.015443
v 1.628938 -1.348476 -0.048318
v 1.690874 -1.310902 -0.312369
v 2.427545 -1.481131 -0.241301
v 2.478120 -1.431419 -0.052959
v 2.442429 -1.489066 0.149035
v 2.359892 -1.594966 0.228163
v 2.255587 -1.714176 0.143687
v 2.210644 -1.755336 -0.045871
v 2.240912 -1.705231 -0.243752
v 2.334637 -1.588264 -0.320712
v 0.021974 0.062939 0.410214
v -0.007922 -0.177809 0.304141
v 0.001994 -0.273268 0.000002
v -0.019888 -0.143687 -0.266539
v -0.021785 0.070183 -0.398803
v 0.054090 0.291542 -0.271236
v 0.156890 0.342452 0.010078
v 0.088016 0.276772 0.294736
v 2.671052 -2.509128 -0.464344
v 2.971728 -2.111231 -0.595949
v 2.892419 -2.673563 -0.454616
v 3.193751 -2.275722 -0.586341
v 3.209859 -1.771430 -0.289329
v 3.431884 -1.935924 -0.279710
v 3.206069 -1.746134 0.226704
v 3.428094 -1.910613 0.236315
v 2.962865 -2.053905 0.562111
v 3.184990 -2.218559 0.572363
v 2.663696 -2.463724 0.465398
v 2.885721 -2.628204 0.475009
v 2.533782 -2.666542 0.008163
v 2.755231 -2.830331 0.018053
v 2.671052 -2.509128 -0.464344
v 2.892419 -2.673563 -0.454616
v 3.843763 -2.903203 -0.452897
v 4.235278 -3.106705 -0.215525
v 3.154824 -2.486985 0.004124
v 3.169361 -2.495544 -0.160573
v 3.228415 -2.607388 -0.395865
v 4.276430 -2.940102 -0.390493
v 3.994480 -2.695696 -0.397686
v 3.971721 -2.610038 -0.300365
v 3.982048 -2.658633 -0.361636
v 3.304191 -2.389462 -0.363324
v 3.214114 -2.387369 -0.203740
v 3.025379 -2.355998 -0.118984
v 3.003439 -2.382910 0.022469
v 3.037628 -2.350933 0.161419
v 3.136476 -2.488481 0.169229
v 3.107726 -2.278817 0.216422
v 3.174384 -2.364540 0.242764
v 3.172259 -2.208306 0.155608
v 3.214766 -2.258947 0.236625
v 3.193559 -2.181253 0.014303
v 3.236643 -2.245159 0.074840
v 3.962377 -2.549436 -0.072780
v 4.000178 -2.617728 -0.192539
v 3.977007 -2.586178 -0.151084
v 3.160011 -2.213371 -0.124795
v 3.247454 -2.267552 -0.106661
v 3.090551 -2.285611 -0.179967
v 3.531697 -2.471072 0.507345
v 3.253680 -2.387560 0.532399
v 3.190210 -2.582057 0.436343
v 3.506254 -2.778763 0.181020
v 3.496679 -2.666859 0.507675
v 3.773493 -2.921058 0.461125
v 4.309653 -2.947469 0.389704
v 3.908025 -2.623577 0.501367
v 4.261373 -3.020429 0.561194
v 3.918512 -2.725475 0.580992
v 3.893438 -2.696967 0.582484
v 3.959886 -2.581678 0.334825
v 3.941772 -2.564759 0.211056
v 3.966739 -2.581651 0.077807
v 3.989581 -2.586728 0.017771
v 3.964279 -2.627929 0.353180
v 3.965105 -2.627571 0.311417
v 4.664529 -3.548635 0.364711
v 4.355241 -2.997557 0.390975
v 4.754645 -3.514092 0.405009
v 4.317659 -3.066373 0.560658
v 4.744622 -3.533261 0.461395
v 4.229497 -3.231390 0.453009
v 4.653389 -3.566515 0.412292
v 4.256705 -3.166910 0.294578
v 4.855184 -3.514431 0.122578
v 4.846377 -3.535208 0.215764
v 4.748983 -3.578463 0.077473
v 4.740883 -3.593334 0.154015
v 4.233280 -3.139088 0.209213
v 4.513554 -3.297131 -0.271454
v 4.636270 -3.218114 -0.269861
v 4.514660 -3.308259 -0.348914
v 4.626726 -3.242043 -0.362793
v 3.645638 -2.882473 0.967449
v 3.636371 -2.975837 0.866163
v 3.693187 -2.817804 0.836424
v 3.654213 -2.908893 0.742298
v 4.223475 -3.087651 -0.058648
v 4.585105 -3.470652 -0.128985
v 4.585592 -3.494448 -0.197493
v 4.727010 -3.428362 -0.214787
v 4.736542 -3.405461 -0.124771
v 4.324282 -2.963493 -0.227517
v 4.346645 -2.933911 -0.062610
v 4.332233 -2.927261 -0.234528
v 4.320580 -2.976634 -0.384041
v 4.233957 -3.121436 -0.362343
v 3.501472 -2.509942 0.647819
v 3.303371 -2.494539 0.733605
v 3.308847 -2.683202 0.646225
v 4.289409 -2.907738 0.301550
v 4.341299 -2.952121 0.303481
v 4.309545 -2.901538 0.096045
v 4.371182 -2.954080 0.101713
v 4.260972 -3.132405 0.024764
v 4.271883 -2.907545 -0.226901
v 4.289547 -2.871008 -0.055696
v 4.293119 -2.890460 -0.233347
vn -0.5759 -0.8175 -0.0000
vn -0.4765 -0.5915 0.6505
vn -0.4618 -0.6053 0.6484
vn -0.0053 0.0373 0.9993
vn -0.4963 -0.5868 0.6397
vn -0.0416 0.0706 0.9966
vn 0.4381 0.6391 0.6322
vn 0.4589 0.6263 0.6302
vn 0.4407 0.6398 0.6297
vn 0.0017 0.0040 -1.0000
vn 0.4297 0.6374 -0.6396
vn 0.0887 -0.0682 -0.9937
vn 0.5216 0.5520 -0.6506
vn 0.5775 0.8164 0.0026
vn 0.6255 0.7801 0.0096
vn 0.4822 0.6087 0.6300
vn 0.1034 -0.0390 0.9939
vn -0.3425 -0.6848 0.6432
vn -0.5248 -0.8508 -0.0245
vn -0.4149 -0.6331 -0.6535
vn -0.3890 -0.6496 -0.6532
vn -0.3641 -0.6725 -0.6444
vn 0.1199 -0.0758 -0.9899
vn 0.5585 0.5198 -0.6465
vn -0.3613 -0.9319 -0.0325
vn -0.2361 -0.9713 0.0286
vn -0.2644 -0.9401 0.2154
vn -0.3532 -0.9351 0.0273
vn -0.4469 -0.8591 0.2493
vn -0.1026 -0.8749 -0.4732
vn -0.0617 -0.8741 0.4818
vn 0.4610 0.5854 -0.6670
vn 0.6283 0.7780 0.0011
vn 0.6417 0.7669 -0.0100
vn 0.1081 -0.0999 -0.9891
vn 0.5387 0.5771 0.6139
vn 0.0977 -0.0399 0.9944
vn -0.4098 -0.6625 0.6270
vn -0.5810 -0.8139 0.0041
vn -0.5818 -0.8133 -0.0076
vn -0.4641 -0.5973 -0.6541
vn 0.5412 0.5337 -0.6498
vn 0.6803 0.7325 -0.0267
vn 0.5295 0.5798 0.6192
vn 0.0443 0.0114 0.9990
vn -0.4642 -0.6131 0.6393
vn -0.5972 -0.8021 0.0035
vn -0.4246 -0.6342 -0.6461
vn 0.0896 -0.0357 -0.9953
vn 0.4754 0.6081 0.6357
vn 0.2166 0.0487 0.9751
vn -0.1846 -0.6579 0.7301
vn -0.4471 -0.8942 -0.0213
vn -0.4292 -0.6455 -0.6318
vn -0.0318 0.0897 -0.9955
vn 0.3507 0.6878 -0.6355
vn 0.5256 0.8507 0.0084
vn -0.2942 -0.4885 -0.8215
vn -0.5210 -0.8522 0.0479
vn -0.5415 -0.8397 -0.0408
vn -0.7445 -0.6034 -0.2856
vn -0.6827 -0.4486 -0.5767
vn 0.4104 0.3584 -0.8385
vn 0.2928 0.4662 -0.8348
vn 0.4686 0.8052 -0.3634
vn 0.2428 0.6382 -0.7306
vn -0.2176 0.6569 -0.7219
vn -0.6205 0.3160 -0.7177
vn -0.6172 -0.5218 -0.5889
vn -0.6840 -0.7228 0.0984
vn -0.5836 -0.5379 0.6083
vn -0.7699 -0.6147 0.1716
vn -0.1134 0.1201 0.9863
vn -0.7732 0.1586 0.6141
vn 0.2632 0.7705 0.5805
vn -0.1249 0.8611 0.4928
vn 0.7222 0.6833 -0.1075
vn 0.5398 0.8408 0.0405
vn 0.5674 0.8150 -0.1174
vn 0.7467 0.6533 -0.1251
vn 0.5896 0.8038 -0.0793
vn 0.6172 0.4854 -0.6192
vn 0.4054 0.8261 -0.3913
vn 0.0473 -0.0178 -0.9987
vn 0.4453 0.6864 0.5750
vn -0.4511 0.7373 0.5029
vn -0.9015 -0.4145 0.1242
vn -0.1464 -0.9575 -0.2484
vn 0.4786 -0.8734 -0.0899
vn -0.6637 -0.6328 0.3989
vn 0.6890 0.6561 -0.3079
vn 0.4704 0.7407 0.4797
vn 0.2211 0.1877 0.9570
vn 0.1883 0.1347 0.9728
vn 0.1129 0.2094 0.9713
vn 0.6927 0.6915 0.2050
vn 0.5470 0.8356 0.0504
vn 0.6751 0.7377 0.0033
vn 0.7274 0.6798 -0.0940
vn 0.9231 0.3839 -0.0233
vn 0.8959 0.2134 0.3895
vn 0.0869 -0.5813 -0.8091
vn 0.7267 0.6035 -0.3282
vn 0.9277 -0.0564 -0.3690
vn 0.2853 0.1752 0.9423
vn 0.6659 -0.4006 0.6294
vn -0.5368 -0.7712 0.3423
vn -0.2091 -0.9603 0.1846
vn -0.0862 -0.3193 -0.9437
vn 0.9084 -0.0241 -0.4174
vn 0.6905 -0.3028 0.6569
vn 0.0505 -0.6697 -0.7409
vn -0.1610 -0.9448 0.2853
vn -0.5174 -0.6821 0.5168
vn 0.0118 -0.8077 0.5895
vn 0.8786 0.0009 0.4776
vn -0.0227 -0.8733 -0.4866
vn 0.7804 -0.2075 -0.5899
vn 0.2334 -0.1707 0.9573
vn 0.1344 -0.9680 0.2119
vn 0.9477 0.2992 0.1112
vn 0.5096 -0.5987 -0.6180
vn -0.3335 -0.5557 0.7616
vn -0.1529 -0.7385 0.6567
vn -0.1695 -0.8943 -0.4142
vn 0.7517 -0.3069 -0.5838
vn 0.8583 -0.1114 0.5010
vn 0.6745 0.5197 0.5243
vn 0.6343 0.4791 0.6067
vn 0.6054 0.6145 0.5058
vn 0.4152 0.3803 -0.8264
vn -0.3238 -0.6959 -0.6410
vn 0.6545 0.6284 0.4204
vn -0.4571 0.5184 0.7227
vn -0.7318 -0.6656 0.1467
vn 0.3492 0.3815 0.8559
vn 0.3781 0.3513 0.8565
vn 0.5948 0.6082 -0.5256
vn 0.6266 0.5933 -0.5053
vn -0.2516 -0.4391 -0.8625
vn 0.6227 0.5755 0.5302
vn 0.6290 0.4879 0.6052
vn 0.6021 0.6230 0.4994
vn 0.8025 -0.5956 0.0352
vn 0.8018 -0.5965 0.0349
vn 0.8022 -0.5961 0.0349
vn 0.8027 -0.5953 0.0353
vn 0.8028 -0.5953 0.0353
vn 0.8030 -0.5950 0.0353
vn 0.8029 -0.5951 0.0352
vn 0.8029 -0.5950 0.0356
vn -0.8032 0.5946 -0.0354
vn -0.8028 0.5952 -0.0354
vn -0.8030 0.5949 -0.0356
vn -0.8029 0.5951 -0.0355
vn -0.8024 0.5958 -0.0351
vn -0.8030 0.5949 -0.0355
vn -0.8033 0.5946 -0.0354
vn -0.8029 0.5950 -0.0354
vn -0.8032 0.5947 -0.0356
vn -0.3655 -0.5378 -0.7597
vn 0.1395 0.1309 -0.9815
vn -0.3661 -0.5378 -0.7594
vn 0.1395 0.1310 -0.9815
vn 0.5398 0.7015 -0.4653
vn 0.5398 0.7014 -0.4656
vn 0.5337 0.7439 0.4021
vn 0.5336 0.7442 0.4017
vn 0.1246 0.2278 0.9657
vn 0.1246 0.2275 0.9658
vn -0.3773 -0.4618 0.8027
vn -0.3771 -0.4622 0.8026
vn -0.5953 -0.8028 0.0342
vn -0.5956 -0.8025 0.0348
vn -0.3656 -0.5377 -0.7597
vt 0.136700 1.820300
vt 0.148400 1.816400
vt 0.148400 1.820300
vt 0.152300 1.824200
vt 0.144500 1.812500
vt 0.144500 1.828100
vt 0.144500 1.832000
vt 0.140600 1.824200
vt 0.128900 1.878900
vt 0.132800 1.882800
vt 0.113300 1.832000
vt 0.117200 1.835900
vt 0.148400 1.882800
vt 0.128900 1.835900
vt 0.164100 1.878900
vt 0.168000 1.871100
vt 0.164100 1.867200
vt 0.152300 1.867200
vt 0.136700 1.871100
vt 0.121100 1.824200
vt 0.117200 1.800800
vt 0.109400 1.800800
vt 0.113300 1.812500
vt 0.132800 1.664100
vt 0.121100 1.648400
vt 0.132800 1.652300
vt 0.109400 1.648400
vt 0.136700 1.652300
vt 0.148400 1.675800
vt 0.109400 1.804700
vt 0.128900 1.820300
vt 0.125000 1.804700
vt 0.109400 1.796900
vt 0.136700 1.800800
vt 0.144500 1.796900
vt 0.140600 1.793000
vt 0.132800 1.808600
vt 0.128900 1.793000
vt 0.113300 1.793000
vt 0.109400 1.765600
vt 0.121100 1.765600
vt 0.132800 1.765600
vt 0.140600 1.761700
vt 0.136700 1.757800
vt 0.125000 1.753900
vt 0.113300 1.757800
vt 0.105500 1.761700
vt 0.183600 1.914100
vt 0.191400 1.906300
vt 0.187500 1.898400
vt 0.171900 1.898400
vt 0.156300 1.906300
vt 0.148400 1.918000
vt 0.152300 1.921900
vt 0.168000 1.921900
vt 0.097700 1.644500
vt 0.109400 1.625000
vt 0.125000 1.691400
vt 0.117200 1.691400
vt 0.105500 1.679700
vt 0.097700 1.628900
vt 0.093800 1.652300
vt 0.101600 1.656300
vt 0.097700 1.652300
vt 0.101600 1.687500
vt 0.109400 1.695300
vt 0.117200 1.703100
vt 0.125000 1.703100
vt 0.132800 1.703100
vt 0.132800 1.695300
vt 0.136700 1.703100
vt 0.136700 1.699200
vt 0.128900 1.707000
vt 0.121100 1.707000
vt 0.113300 1.660200
vt 0.105500 1.656300
vt 0.105500 1.660200
vt 0.113300 1.707000
vt 0.113300 1.699200
vt 0.113300 1.703100
vt 0.148400 1.683600
vt 0.152300 1.699200
vt 0.148400 1.691400
vt 0.136700 1.668000
vt 0.152300 1.675800
vt 0.148400 1.656300
vt 0.140600 1.632800
vt 0.144500 1.664100
vt 0.152300 1.632800
vt 0.148400 1.660200
vt 0.148400 1.664100
vt 0.125000 1.664100
vt 0.121100 1.660200
vt 0.117200 1.656300
vt 0.136700 1.660200
vt 0.132800 1.660200
vt 0.152300 1.593800
vt 0.144500 1.628900
vt 0.152300 1.589800
vt 0.152300 1.628900
vt 0.156300 1.589800
vt 0.152300 1.625000
vt 0.156300 1.593800
vt 0.140600 1.625000
vt 0.125000 1.582000
vt 0.132800 1.582000
vt 0.128900 1.585900
vt 0.132800 1.585900
vt 0.132800 1.625000
vt 0.105500 1.601600
vt 0.101600 1.601600
vt 0.183600 1.664100
vt 0.179700 1.660200
vt 0.171900 1.664100
vt 0.171900 1.660200
vt 0.117200 1.625000
vt 0.117200 1.593800
vt 0.113300 1.593800
vt 0.109400 1.589800
vt 0.117200 1.589800
vt 0.105500 1.628900
vt 0.097700 1.625000
vt 0.101600 1.621100
vt 0.156300 1.683600
vt 0.164100 1.691400
vt 0.164100 1.687500
vt 0.132800 1.632800
vt 0.132800 1.628900
vt 0.121100 1.632800
vt 0.121100 1.628900
vt 0.121100 1.625000
vt 0.109400 1.628900
vt 0.117200 1.632800
vt 0.914100 1.664100
vt 0.941400 1.664100
vt 0.953100 1.664100
vt 0.855500 1.664100
vt 0.867200 1.664100
vt 0.882800 1.664100
vt 0.898400 1.664100
vt 0.910200 1.664100
vt 0.855500 1.695300
vt 0.914100 1.695300
vt 0.867200 1.695300
vt 0.882800 1.695300
vt 0.898400 1.695300
vt 0.953100 1.695300
vt 0.941400 1.695300
vt 0.925800 1.695300
vt 0.910200 1.695300
vt 0.925800 1.664100
s 1
usemtl Mesh_0233_rip
f 1/1/1 2/2/2 3/3/3
f 2/2/2 4/4/4 3/3/3
f 5/5/5 6/3/6 2/2/2
f 2/2/2 6/3/6 4/4/4
f 6/3/6 7/6/7 4/4/4
f 4/4/4 7/6/7 8/7/8
f 7/6/7 6/3/6 9/8/9
f 10/9/10 11/10/11 12/11/12
f 12/11/12 11/10/11 13/12/13
f 11/10/11 14/13/14 13/12/13
f 13/12/13 14/13/14 15/14/15
f 14/13/14 16/15/16 15/14/15
f 15/14/15 16/15/16 8/7/8
f 16/15/16 17/16/17 8/7/8
f 8/7/8 17/16/17 4/4/4
f 17/16/17 18/17/18 4/4/4
f 4/4/4 18/17/18 3/3/3
f 18/17/18 19/18/19 3/3/3
f 3/3/3 19/18/19 1/1/1
f 19/18/19 20/19/20 1/1/1
f 1/1/1 20/19/20 21/20/21
f 20/19/20 10/9/10 21/20/21
f 10/9/10 12/11/12 21/20/21
f 21/20/21 12/11/12 22/21/22
f 22/21/22 12/11/12 23/22/23
f 12/11/12 13/12/13 23/22/23
f 23/22/23 13/12/13 24/23/24
f 13/12/13 15/14/15 24/23/24
f 33/24/25 34/25/26 35/26/27
f 35/26/27 34/25/26 36/25/28
f 36/25/28 34/25/26 37/27/29
f 35/26/27 38/28/30 33/24/25
f 38/28/30 39/29/31 33/24/25
f 48/30/32 49/31/33 50/32/34
f 51/33/35 23/22/23 48/30/32
f 23/22/23 24/23/24 48/30/32
f 48/30/32 24/23/24 49/31/33
f 24/23/24 15/14/15 49/31/33
f 15/14/15 8/7/8 49/31/33
f 8/7/8 7/6/7 49/31/33
f 7/6/7 9/8/9 49/31/33
f 49/31/33 9/8/9 50/32/34
f 50/32/34 9/8/9 52/34/36
f 9/8/9 6/3/6 52/34/36
f 52/34/36 6/3/6 53/35/37
f 6/3/6 5/5/5 53/35/37
f 53/35/37 5/5/5 54/36/38
f 5/5/5 55/37/39 54/36/38
f 54/36/38 55/37/39 56/38/40
f 55/37/39 22/21/22 56/38/40
f 56/38/40 22/21/22 57/39/41
f 22/21/22 23/22/23 57/39/41
f 57/39/41 23/22/23 51/33/35
f 5/5/5 2/2/2 55/37/39
f 2/2/2 1/1/1 55/37/39
f 1/1/1 21/20/21 55/37/39
f 55/37/39 21/20/21 22/21/22
f 48/30/32 50/32/34 58/40/42
f 58/40/42 50/32/34 59/41/43
f 50/32/34 52/34/36 59/41/43
f 59/41/43 52/34/36 60/42/44
f 52/34/36 53/35/37 60/42/44
f 60/42/44 53/35/37 61/43/45
f 53/35/37 54/36/38 61/43/45
f 61/43/45 54/36/38 62/44/46
f 54/36/38 56/38/40 62/44/46
f 62/44/46 56/38/40 63/45/47
f 56/38/40 57/39/41 63/45/47
f 63/45/47 57/39/41 64/46/48
f 64/46/48 57/39/41 65/47/49
f 57/39/41 51/33/35 65/47/49
f 65/47/49 51/33/35 58/40/42
f 58/40/42 51/33/35 48/30/32
f 73/48/50 66/49/51 16/15/16
f 16/15/16 66/49/51 17/16/17
f 66/49/51 67/50/52 17/16/17
f 17/16/17 67/50/52 18/17/18
f 67/50/52 68/51/53 18/17/18
f 18/17/18 68/51/53 19/18/19
f 68/51/53 69/52/54 19/18/19
f 19/18/19 69/52/54 20/19/20
f 69/52/54 70/53/55 20/19/20
f 20/19/20 70/53/55 10/9/10
f 70/53/55 71/54/56 10/9/10
f 10/9/10 71/54/56 11/10/11
f 71/54/56 72/55/57 11/10/11
f 11/10/11 72/55/57 14/13/14
f 72/55/57 73/48/50 14/13/14
f 14/13/14 73/48/50 16/15/16
f 90/56/58 91/57/59 37/27/29
f 33/24/25 92/58/60 34/25/26
f 92/58/60 93/59/61 34/25/26
f 34/25/26 93/59/61 37/27/29
f 37/27/29 93/59/61 90/56/58
f 90/56/58 93/59/61 94/60/62
f 95/61/63 96/62/64 97/63/65
f 97/63/65 96/62/64 98/64/66
f 96/62/64 90/56/58 98/64/66
f 98/64/66 90/56/58 99/65/67
f 90/56/58 94/60/62 99/65/67
f 99/65/67 94/60/62 100/66/68
f 94/60/62 93/59/61 100/66/68
f 100/66/68 93/59/61 101/67/69
f 101/67/69 93/59/61 102/68/70
f 93/59/61 92/58/60 102/68/70
f 102/68/70 92/58/60 103/69/71
f 92/58/60 104/70/72 103/69/71
f 103/69/71 104/70/72 105/71/73
f 104/70/72 106/72/74 105/71/73
f 105/71/73 106/72/74 107/73/75
f 106/72/74 108/69/76 107/73/75
f 107/73/75 108/69/76 109/74/77
f 108/69/76 110/68/78 109/74/77
f 111/75/79 112/76/80 113/77/81
f 112/76/80 97/63/65 113/77/81
f 113/77/81 97/63/65 99/65/67
f 97/63/65 98/64/66 99/65/67
f 109/74/77 110/68/78 114/78/82
f 110/68/78 115/79/83 114/78/82
f 114/78/82 115/79/83 116/80/84
f 115/79/83 100/66/68 116/80/84
f 116/80/84 100/66/68 101/67/69
f 117/81/85 108/69/76 118/82/86
f 108/69/76 106/72/74 118/82/86
f 118/82/86 106/72/74 119/83/87
f 106/72/74 104/70/72 119/83/87
f 119/83/87 104/70/72 120/84/88
f 104/70/72 92/58/60 120/84/88
f 120/84/88 92/58/60 33/24/25
f 119/83/87 120/84/88 121/85/89
f 121/85/89 120/84/88 39/29/31
f 120/84/88 33/24/25 39/29/31
f 117/81/85 39/29/31 122/86/90
f 122/86/90 39/29/31 38/28/30
f 123/87/91 124/88/92 125/89/93
f 124/88/92 126/90/94 125/89/93
f 125/89/93 126/90/94 122/86/90
f 126/90/94 127/91/95 122/86/90
f 122/86/90 127/91/95 117/81/85
f 127/91/95 124/88/92 117/81/85
f 117/81/85 124/88/92 108/69/76
f 124/88/92 128/24/96 108/69/76
f 108/69/76 128/24/96 110/68/78
f 128/24/96 129/92/97 110/68/78
f 110/68/78 129/92/97 130/93/98
f 129/92/97 131/94/99 130/93/98
f 131/94/99 111/75/79 130/93/98
f 130/93/98 111/75/79 110/68/78
f 111/75/79 113/77/81 110/68/78
f 110/68/78 113/77/81 115/79/83
f 113/77/81 99/65/67 115/79/83
f 115/79/83 99/65/67 100/66/68
f 124/88/92 127/91/95 126/90/94
f 124/88/92 132/95/100 128/24/96
f 132/95/100 133/96/101 128/24/96
f 128/24/96 133/96/101 129/92/97
f 38/28/30 35/26/27 132/95/100
f 132/95/100 35/26/27 133/96/101
f 134/97/102 135/98/103 136/99/104
f 135/98/103 137/100/105 136/99/104
f 136/99/104 137/100/105 138/101/106
f 137/100/105 139/102/107 138/101/106
f 138/101/106 139/102/107 140/103/108
f 139/102/107 141/104/109 140/103/108
f 140/103/108 141/104/109 134/97/102
f 134/97/102 141/104/109 135/98/103
f 141/104/109 123/87/91 135/98/103
f 135/98/103 123/87/91 137/100/105
f 123/87/91 125/89/93 137/100/105
f 137/100/105 125/89/93 139/102/107
f 125/89/93 122/86/90 139/102/107
f 122/86/90 38/28/30 139/102/107
f 139/102/107 38/28/30 141/104/109
f 38/28/30 132/95/100 141/104/109
f 141/104/109 132/95/100 123/87/91
f 132/95/100 124/88/92 123/87/91
f 140/103/108 134/97/102 138/101/106
f 138/101/106 134/97/102 136/99/104
f 142/105/110 143/106/111 144/107/112
f 144/107/112 143/106/111 145/108/113
f 143/106/111 146/109/114 145/108/113
f 145/108/113 146/109/114 144/107/112
f 36/25/28 146/109/114 35/26/27
f 91/57/59 147/110/115 148/110/116
f 147/110/115 149/111/117 148/110/116
f 148/110/116 149/111/117 150/111/118
f 151/112/119 152/113/120 153/114/121
f 153/114/121 152/113/120 154/115/122
f 36/25/28 37/27/29 155/116/123
f 37/27/29 91/57/59 155/116/123
f 155/116/123 91/57/59 156/117/124
f 91/57/59 157/118/125 156/117/124
f 157/118/125 158/119/126 156/117/124
f 158/119/126 159/120/127 156/117/124
f 156/117/124 159/120/127 155/116/123
f 91/57/59 160/57/128 157/118/125
f 157/118/125 160/57/128 158/119/126
f 158/119/126 160/57/128 159/120/127
f 160/57/128 161/116/129 159/120/127
f 159/120/127 161/116/129 155/116/123
f 162/121/130 163/122/131 95/61/63
f 163/122/131 164/123/132 95/61/63
f 95/61/63 164/123/132 96/62/64
f 96/62/64 164/123/132 90/56/58
f 90/56/58 164/123/132 91/57/59
f 91/57/59 164/123/132 147/110/115
f 147/110/115 164/123/132 149/111/117
f 164/123/132 163/122/131 149/111/117
f 149/111/117 163/122/131 150/111/118
f 163/122/131 162/121/130 150/111/118
f 150/111/118 162/121/130 148/110/116
f 162/121/130 160/57/128 148/110/116
f 148/110/116 160/57/128 91/57/59
f 154/115/122 121/85/89 165/124/133
f 121/85/89 39/29/31 165/124/133
f 39/29/31 117/81/85 165/124/133
f 117/81/85 118/82/86 165/124/133
f 165/124/133 118/82/86 166/125/134
f 118/82/86 119/83/87 166/125/134
f 166/125/134 119/83/87 167/126/135
f 119/83/87 121/85/89 167/126/135
f 121/85/89 154/115/122 167/126/135
f 154/115/122 152/113/120 167/126/135
f 152/113/120 151/112/119 167/126/135
f 167/126/135 151/112/119 166/125/134
f 151/112/119 153/114/121 166/125/134
f 166/125/134 153/114/121 165/124/133
f 153/114/121 154/115/122 165/124/133
f 168/127/136 169/128/137 170/129/138
f 169/128/137 171/130/139 170/129/138
f 170/129/138 171/130/139 172/131/140
f 171/130/139 142/105/110 172/131/140
f 142/105/110 144/107/112 172/131/140
f 144/107/112 146/109/114 172/131/140
f 146/109/114 36/25/28 172/131/140
f 36/25/28 131/94/99 172/131/140
f 172/131/140 131/94/99 170/129/138
f 131/94/99 129/92/97 170/129/138
f 170/129/138 129/92/97 168/127/136
f 129/92/97 133/96/101 168/127/136
f 133/96/101 35/26/27 168/127/136
f 35/26/27 146/109/114 168/127/136
f 168/127/136 146/109/114 169/128/137
f 146/109/114 143/106/111 169/128/137
f 143/106/111 142/105/110 169/128/137
f 169/128/137 142/105/110 171/130/139
f 160/57/128 173/132/141 161/116/129
f 173/132/141 174/133/142 161/116/129
f 161/116/129 174/133/142 155/116/123
f 155/116/123 174/133/142 36/25/28
f 36/25/28 174/133/142 131/94/99
f 131/94/99 174/133/142 111/75/79
f 174/133/142 173/132/141 111/75/79
f 111/75/79 173/132/141 112/76/80
f 162/121/130 95/61/63 175/121/143
f 95/61/63 97/63/65 175/121/143
f 97/63/65 112/76/80 175/121/143
f 112/76/80 173/132/141 175/121/143
f 175/121/143 173/132/141 162/121/130
f 173/132/141 160/57/128 162/121/130
f 60/42/44 109/74/77 59/41/43
f 109/74/77 114/78/82 59/41/43
f 59/41/43 114/78/82 58/40/42
f 114/78/82 116/80/84 58/40/42
f 58/40/42 116/80/84 65/47/49
f 116/80/84 101/67/69 65/47/49
f 65/47/49 101/67/69 64/46/48
f 101/67/69 102/68/70 64/46/48
f 64/46/48 102/68/70 63/45/47
f 102/68/70 103/69/71 63/45/47
f 63/45/47 103/69/71 62/44/46
f 103/69/71 105/71/73 62/44/46
f 62/44/46 105/71/73 61/43/45
f 105/71/73 107/73/75 61/43/45
f 61/43/45 107/73/75 60/42/44
f 107/73/75 109/74/77 60/42/44
usemtl New_.001
f 25/134/144 26/135/145 27/136/145
f 28/137/146 29/138/147 25/134/148
f 29/138/147 30/139/149 25/134/148
f 30/139/149 31/140/150 25/134/148
f 25/134/148 31/140/150 32/141/151
f 40/142/152 41/143/153 42/144/154
f 42/144/154 41/143/153 43/145/155
f 43/145/155 41/143/153 44/146/156
f 45/147/157 46/148/158 41/143/159
f 41/143/159 46/148/158 47/149/160
f 74/142/161 75/144/162 76/137/163
f 76/137/163 75/144/162 77/138/164
f 75/144/162 78/145/165 77/138/164
f 77/138/164 78/145/165 79/139/166
f 78/145/165 80/146/167 79/139/166
f 79/139/166 80/146/167 81/140/168
f 80/146/167 82/150/169 81/140/168
f 81/140/168 82/150/169 83/141/170
f 82/150/169 84/149/171 83/141/170
f 83/141/170 84/149/171 85/151/172
f 84/149/171 86/148/173 85/151/172
f 85/151/172 86/148/173 87/135/174
f 86/148/173 88/147/175 87/135/174
f 87/135/174 88/147/175 89/136/163
