# Blender 4.3.2
# www.blender.org
mtllib BrazoDer_A.mtl
o BrazoDerA
v -0.623831 0.420601 -0.490767
v 0.401010 -0.071687 -0.581969
v 0.925342 -0.354979 0.405535
v 0.374649 -0.263313 1.352228
v -1.126058 0.445808 0.417742
v -2.544998 -5.886672 -0.203208
v -1.905481 -6.076854 -0.240402
v -1.690122 -6.518131 0.337286
v -1.922391 -6.319910 1.020503
v -2.588573 -5.888431 1.004611
v -2.881016 -5.828447 0.345308
v -4.350773 -11.537280 -0.198818
v -3.734766 -11.313930 -0.145302
v -3.520924 -11.322927 0.320478
v -3.569180 -10.977969 0.897546
v -4.288983 -10.891698 0.963299
v -4.448355 -10.724704 0.412111
v -4.717957 -14.125061 -0.369047
v -4.948545 -14.349483 0.031848
v -4.424790 -14.778964 -0.235544
v -4.595313 -15.112261 0.060174
v -4.909143 -14.409284 0.808835
v -4.892450 -13.966023 1.112992
v -4.923159 -12.774307 0.329373
v -0.639893 0.435594 1.297565
v -3.823512 -12.216980 1.582119
v -4.201864 -12.689609 1.461579
v -3.987497 -13.644653 1.587358
v -3.716216 -13.873385 1.750015
v -3.950855 -12.820043 1.167989
v -3.621681 -13.587784 1.522822
v -3.826283 -13.652811 1.394690
v -4.475486 -14.122724 -0.301799
v -4.272039 -12.947647 -0.285560
v -4.479210 -13.384448 0.733988
v -3.575176 -11.809203 0.981497
v -4.177423 -12.713050 1.000895
v -4.427541 -12.541860 1.310348
v -4.799012 -12.819834 1.105142
v -4.884285 -13.384542 0.781059
v -4.632602 -14.065480 1.057266
v -4.577896 -14.232432 0.118425
v -4.556119 -14.392896 0.617828
v -4.392328 -15.302416 0.496196
v -4.801847 -14.533229 0.613566
v -4.677189 -15.089465 0.870814
v -4.633164 -14.790097 0.780066
vn -0.4970 0.1531 -0.8542
vn -0.5001 0.1377 -0.8550
vn 0.4203 -0.1820 -0.8890
vn 0.5712 -0.2418 -0.7844
vn 0.9299 -0.3603 -0.0740
vn 0.9249 -0.3379 -0.1741
vn 0.4986 -0.2182 0.8389
vn 0.6954 -0.0091 0.7186
vn -0.5365 0.1428 0.8317
vn -0.5805 0.2779 0.7654
vn -0.9539 0.2922 -0.0685
vn -0.9583 0.2773 -0.0683
vn -0.4216 -0.0665 -0.9043
vn 0.5448 -0.3281 -0.7717
vn -0.3931 -0.8118 -0.4319
vn -0.9501 -0.2066 -0.2337
vn -0.9731 0.1560 -0.1694
vn 0.2811 0.2122 0.9359
vn -0.7289 -0.3133 0.6087
vn -0.8840 -0.4235 0.1980
vn 0.2226 -0.8149 0.5352
vn 0.9778 -0.2096 0.0071
vn 0.9567 -0.2070 -0.2047
vn -0.0861 -0.5336 -0.8413
vn -0.0753 -0.5632 -0.8229
vn 0.7076 -0.1445 -0.6917
vn 0.9502 -0.3076 -0.0501
vn 0.6952 -0.7187 -0.0137
vn -0.4666 -0.1305 0.8748
vn -0.7107 -0.1201 0.6931
vn -0.9720 0.0249 0.2335
vn -0.6245 -0.0504 0.7794
vn 0.6452 -0.1484 0.7494
vn 0.7013 -0.0417 0.7117
vn 0.3261 -0.8333 0.4465
vn 0.9949 0.0224 0.0981
vn 0.8269 -0.0819 -0.5563
vn -0.6296 -0.2861 0.7224
vn 0.0754 -0.9968 0.0250
vn 0.6180 -0.2541 -0.7440
vn -0.8578 -0.1970 -0.4748
vn -0.9648 0.2630 0.0036
vn -0.5343 0.1224 -0.8363
vn -0.5522 0.1243 0.8244
vn 0.4016 -0.2103 0.8913
vn 0.9192 -0.3916 -0.0405
vn 0.3746 -0.2018 -0.9050
vt 0.135224 0.736729
vt 0.132088 0.838204
vt 0.153326 0.837445
vt 0.153300 0.738150
vt 0.019600 0.738150
vt 0.019580 0.837614
vt 0.041287 0.831397
vt 0.036930 0.737222
vt 0.064779 0.834526
vt 0.060538 0.736811
vt 0.089065 0.838823
vt 0.088095 0.736504
vt 0.111474 0.837711
vt 0.110493 0.737322
vt 0.325074 0.158927
vt 0.320384 0.142413
vt 0.310300 0.141700
vt 0.314264 0.159581
vt 0.308893 0.193293
vt 0.319306 0.240627
vt 0.330341 0.221740
vt 0.277516 0.226122
vt 0.275500 0.212000
vt 0.252009 0.211324
vt 0.244331 0.213717
vt 0.755078 0.231438
vt 0.770936 0.223771
vt 0.779561 0.186551
vt 0.774564 0.193075
vt 0.760000 0.206800
vt 0.770730 0.190348
vt 0.270600 0.203800
vt 0.250971 0.206745
vt 0.343863 0.226677
vt 0.333876 0.191991
vt 0.727180 0.240214
vt 0.739677 0.242025
vt 0.746637 0.190163
vt 0.723822 0.202228
vt 0.753408 0.206478
vt 0.284860 0.207316
vt 0.276145 0.201904
vt 0.291787 0.195981
vt 0.306156 0.241775
vt 0.295945 0.178134
vt 0.277160 0.176047
vt 0.752200 0.249800
vt 0.293100 0.252300
vt 0.271087 0.178297
vt 0.753282 0.173727
vt 0.742024 0.166910
vt 0.737100 0.146500
vt 0.721785 0.159815
vt 0.731479 0.171645
vt 0.721552 0.175142
vt 0.299511 0.137961
vt 0.301249 0.158172
vt 0.329650 0.155616
vt 0.749226 0.151741
vt 0.747161 0.157348
vt 0.258923 0.160319
vt 0.272779 0.165438
vt 0.295761 0.160071
vt 0.266083 0.156051
vt 0.293895 0.169107
vt 0.111413 0.961084
vt 0.133187 0.960818
vt 0.090087 0.965111
vt 0.065422 0.956823
vt 0.042810 0.956108
vt 0.019600 0.957248
vt 0.153300 0.957243
s 1
usemtl joy_body_mat
f 12/1/1 6/2/2 7/3/3
f 7/3/3 13/4/4 12/1/1
f 13/5/4 7/6/3 8/7/5
f 8/7/5 14/8/6 13/5/4
f 14/8/6 8/7/5 9/9/7
f 9/9/7 15/10/8 14/8/6
f 15/10/8 9/9/7 10/11/9
f 10/11/9 16/12/10 15/10/8
f 16/12/10 10/11/9 11/13/11
f 11/13/11 17/14/12 16/12/10
f 17/14/12 11/13/11 6/2/2
f 6/2/2 12/1/1 17/14/12
f 18/15/13 20/16/14 21/17/15
f 21/17/15 19/18/16 18/15/13
f 24/19/17 17/20/12 12/21/1
f 26/22/18 27/23/19 28/24/20
f 28/24/20 29/25/21 26/22/18
f 36/26/22 26/27/18 29/28/21
f 29/28/21 31/29/23 36/26/22
f 30/30/24 36/26/22 31/29/23
f 31/29/23 32/31/25 30/30/24
f 30/32/24 32/33/25 28/24/20
f 28/24/20 27/23/19 30/32/24
f 32/31/25 31/29/23 29/28/21
f 28/24/20 32/33/25 29/25/21
f 13/34/4 34/35/26 12/21/1
f 13/36/4 14/37/6 35/38/27
f 35/38/27 34/39/26 13/36/4
f 14/37/6 36/26/22 37/40/28
f 37/40/28 35/38/27 14/37/6
f 36/26/22 30/30/24 37/40/28
f 38/41/29 27/23/19 26/22/18
f 37/42/28 30/32/24 27/23/19
f 27/23/19 38/41/29 37/42/28
f 24/19/17 39/43/30 16/44/10
f 16/44/10 17/20/12 24/19/17
f 40/45/31 23/46/32 38/41/29
f 38/41/29 39/43/30 40/45/31
f 39/43/30 24/19/17 40/45/31
f 16/44/10 39/43/30 38/41/29
f 38/41/29 26/22/18 16/44/10
f 15/47/8 26/27/18 36/26/22
f 26/22/18 15/48/8 16/44/10
f 14/37/6 15/47/8 36/26/22
f 37/42/28 38/41/29 23/46/32
f 23/46/32 41/49/33 37/42/28
f 41/50/33 35/38/27 37/40/28
f 43/51/34 44/52/35 20/53/14
f 20/53/14 42/54/36 43/51/34
f 20/53/14 33/55/37 42/54/36
f 21/17/15 44/56/35 45/57/38
f 45/57/38 19/18/16 21/17/15
f 18/15/13 33/58/37 20/16/14
f 21/17/15 20/16/14 44/56/35
f 41/50/33 46/59/39 47/60/40
f 46/61/39 41/49/33 23/46/32
f 46/61/39 23/46/32 22/62/41
f 43/63/34 45/57/38 44/56/35
f 47/64/40 46/61/39 22/62/41
f 43/63/34 35/65/27 40/45/31
f 40/45/31 45/57/38 43/63/34
f 35/38/27 43/51/34 42/54/36
f 34/39/26 35/38/27 42/54/36
f 42/54/36 33/55/37 34/39/26
f 18/15/13 12/21/1 34/35/26
f 34/35/26 33/58/37 18/15/13
f 24/19/17 12/21/1 18/15/13
f 18/15/13 19/18/16 24/19/17
f 40/45/31 24/19/17 19/18/16
f 19/18/16 45/57/38 40/45/31
f 47/60/40 35/38/27 41/50/33
f 40/45/31 35/65/27 47/64/40
f 47/64/40 22/62/41 40/45/31
f 23/46/32 40/45/31 22/62/41
f 5/66/42 1/67/43 6/2/2
f 6/2/2 11/13/11 5/66/42
f 25/68/44 5/66/42 11/13/11
f 11/13/11 10/11/9 25/68/44
f 9/9/7 4/69/45 25/68/44
f 25/68/44 10/11/9 9/9/7
f 8/7/5 3/70/46 4/69/45
f 4/69/45 9/9/7 8/7/5
f 7/6/3 2/71/47 3/70/46
f 3/70/46 8/7/5 7/6/3
f 1/67/43 2/72/47 7/3/3
f 7/3/3 6/2/2 1/67/43
