# Blender 4.3.2
# www.blender.org
mtllib Cuerpo_F.mtl
o Cuerpo_F
v 0.054704 -0.111584 0.232144
v -0.000024 -0.065208 0.237776
v 0.020168 0.005952 0.223664
v -0.000024 0.008024 0.231288
v 0.008528 0.041280 0.228216
v -0.009720 0.041648 0.226816
v 0.029544 0.037352 0.215128
v 0.019960 0.047288 0.212448
v -0.000024 0.036864 0.212752
v 0.078568 0.044472 0.203280
v 0.076376 0.054816 0.202992
v 0.028840 0.034288 0.210904
v 0.052448 -0.113336 0.223920
v 0.079600 0.041920 0.198376
v -0.000024 -0.151608 0.231952
v -0.054744 -0.111584 0.232144
v -0.020208 0.005952 0.223664
v -0.029584 0.037352 0.215128
v -0.020008 0.047288 0.212448
v -0.076416 0.054816 0.202992
v -0.078616 0.044472 0.203280
v -0.028888 0.034288 0.210904
v -0.052496 -0.113336 0.223920
v -0.079648 0.041920 0.198376
v 0.092344 0.291872 0.166168
v -0.001128 0.304104 0.187352
v -0.000832 0.219120 0.183744
v 0.080064 0.219112 0.169136
v 0.146112 0.221528 0.123336
v 0.158080 0.297952 0.127152
v -0.095248 0.287648 0.164704
v -0.076920 0.218040 0.174248
v 0.234168 0.315768 -0.022240
v 0.216816 0.309824 0.062024
v 0.187352 0.226088 0.041536
v 0.196696 0.227816 -0.039984
v -0.145648 0.221528 0.123272
v -0.163592 0.286736 0.127312
v -0.188760 0.226088 0.050392
v -0.217304 0.314768 0.062064
v -0.233600 0.323696 -0.030200
v -0.200224 0.227816 -0.040384
v -0.003912 0.221760 0.164784
v 0.069536 0.223296 0.147768
v 0.073208 0.220704 0.151272
v 0.124392 0.221528 0.110160
v -0.070032 0.216832 0.156384
v 0.138376 0.228568 -0.042312
v -0.124048 0.221528 0.110128
v -0.133064 0.226088 0.044384
v -0.141304 0.227816 -0.042576
v 0.084064 0.114384 0.162504
v 0.073368 0.200816 0.181408
v -0.000128 0.201232 0.196400
v 0.004728 0.114384 0.171912
v 0.160248 0.114384 0.121904
v 0.136896 0.201656 0.134576
v -0.076920 0.197232 0.174248
v -0.091344 0.114384 0.156560
v 0.225576 0.114384 -0.025040
v 0.193952 0.205664 -0.023416
v 0.182728 0.202584 0.057408
v 0.209760 0.114384 0.055248
v -0.140272 0.203288 0.130712
v -0.157664 0.114384 0.122336
v -0.179376 0.204760 0.058984
v -0.210400 0.114384 0.055728
v -0.225584 0.114384 -0.021832
v -0.192280 0.206536 -0.019480
v 0.062264 0.204440 0.160144
v 0.003232 0.202352 0.175704
v 0.107264 0.201984 0.106000
v -0.070032 0.198440 0.156384
v 0.126960 0.201024 0.033488
v 0.136872 0.206880 -0.039432
v -0.113144 0.203792 0.088112
v -0.125952 0.205048 0.027368
v -0.137920 0.205408 -0.040000
v 0.042456 -0.099816 0.168688
v 0.044288 -0.036000 0.175624
v -0.042560 -0.036176 0.191648
v -0.043760 -0.100288 0.183232
v 0.083744 -0.097088 0.178056
v 0.086424 -0.049976 0.184688
v 0.054704 -0.048496 0.190024
v 0.052736 -0.096312 0.182304
v 0.080960 -0.094048 0.158168
v 0.083368 -0.046928 0.164840
v 0.051656 -0.045240 0.170208
v 0.049952 -0.093064 0.162448
v 0.137408 -0.124488 0.162256
v 0.126000 -0.094584 0.162216
v 0.021752 -0.143432 0.160704
v 0.000000 -0.109352 0.165184
v 0.008088 -0.174944 0.124872
v -0.004776 -0.174512 0.124024
v 0.001408 -0.197312 0.029624
v 0.000000 -0.203144 -0.154776
v -0.041040 -0.189800 -0.196808
v 0.041176 -0.189360 -0.196960
v 0.000000 -0.162656 -0.229312
v 0.000000 -0.132912 -0.237712
v 0.122560 -0.138904 -0.224232
v 0.225320 -0.127440 0.122304
v 0.262048 -0.121384 0.085584
v 0.189568 -0.128712 -0.200928
v 0.270864 -0.125952 -0.090288
v 0.252776 -0.147568 -0.148160
v 0.273952 -0.123768 0.001920
v 0.216600 -0.092512 0.119184
v -0.019944 -0.093280 -0.234048
v 0.089360 -0.091984 -0.226384
v 0.187776 -0.093824 -0.205000
v 0.252488 -0.091896 -0.148552
v 0.264256 -0.091336 -0.086160
v 0.267272 -0.092552 -0.004944
v 0.260448 -0.095344 0.081272
v -0.030872 -0.093672 0.177712
v 0.100696 -0.094072 0.173360
v 0.149888 -0.050376 0.164712
v 0.056144 -0.050408 0.185024
v 0.118664 -0.049936 0.161912
v 0.026344 -0.051504 0.177624
v 0.217648 -0.089088 0.128456
v 0.261624 -0.050496 0.098280
v 0.270800 -0.050456 -0.063544
v 0.259808 -0.050408 -0.150216
v 0.195168 -0.050408 -0.209064
v 0.094672 -0.092200 -0.234832
v -0.010768 -0.093288 -0.246504
v 0.105840 -0.050408 -0.237528
v 0.000000 -0.050408 -0.253880
v -0.055904 -0.050416 0.185064
v 0.205560 -0.050472 0.121336
v 0.246144 -0.048864 0.065736
v 0.255192 -0.049752 -0.019304
v 0.255400 -0.048832 -0.092320
v 0.243536 -0.049936 -0.146416
v 0.189600 -0.050728 -0.192680
v 0.138584 -0.049344 -0.213496
v 0.065392 -0.049680 -0.231504
v -0.012240 -0.050480 -0.237816
v 0.109968 0.013584 0.187448
v 0.172176 0.014904 0.159608
v 0.227760 -0.003720 0.120456
v 0.277224 0.015416 0.058584
v 0.040360 0.012424 0.199904
v -0.011192 0.013560 0.204296
v 0.278328 -0.021272 -0.024584
v 0.258360 -0.000512 -0.148032
v 0.207088 0.032768 -0.198952
v 0.146736 0.036936 -0.226064
v 0.071384 0.037608 -0.247272
v 0.000000 0.043824 -0.254048
v 0.254896 0.080144 -0.158528
v 0.252312 0.168176 -0.131760
v 0.217360 0.173192 -0.169592
v 0.263304 0.149216 -0.109536
v 0.275944 0.152576 -0.031680
v 0.275624 0.132840 0.050416
v 0.276576 0.135536 0.027960
v 0.231080 0.097000 0.107288
v 0.222464 0.071936 0.120696
v 0.271224 0.080240 0.072984
v 0.130080 0.061192 0.171904
v 0.053824 0.051648 0.195880
v 0.000000 0.040200 0.198128
v 0.036824 0.060536 0.207520
v 0.156680 0.177168 -0.202120
v 0.084216 0.179712 -0.223384
v 0.000000 0.179512 -0.232120
v 0.000000 0.188360 -0.239328
v 0.131688 0.187360 -0.222000
v 0.000000 0.212448 -0.227696
v 0.140064 0.211032 -0.207904
v 0.223864 0.206960 -0.167320
v 0.219392 0.181024 -0.178032
v 0.070304 0.004536 0.253648
v 0.134368 0.041488 0.219296
v 0.099072 0.077888 0.199096
v 0.239168 0.123536 0.115504
v 0.236728 0.096440 0.124864
v 0.268504 0.153048 0.066728
v 0.278120 0.173584 -0.003360
v 0.284136 0.159128 -0.024248
v 0.266984 0.197448 -0.115176
v 0.263216 0.174616 -0.129824
v 0.027872 0.208560 -0.214216
v 0.154048 0.206096 -0.186512
v 0.227264 0.203024 -0.148920
v 0.055968 0.069344 0.196080
v 0.115896 0.086368 0.177080
v 0.250912 0.135792 0.091344
v 0.254808 0.193512 -0.109472
v -0.023224 0.052112 0.193216
v 0.287992 0.027552 0.056088
v 0.289904 0.017512 -0.102528
v 0.266000 0.014200 -0.027344
v 0.273664 0.129816 -0.097664
v 0.275416 0.084520 -0.121752
v 0.285984 0.010432 -0.107008
v 0.097136 0.184616 0.207344
v 0.033672 0.179664 0.224976
v 0.082976 0.166528 0.214712
v 0.180240 0.208800 0.158976
v 0.143336 0.212328 0.173992
v 0.126992 0.214624 0.176432
v 0.124984 0.202456 0.181912
v 0.055496 0.195096 0.214040
v 0.017736 0.115248 0.216864
v 0.158152 0.153640 0.174160
v 0.264160 0.177192 0.090280
v 0.282648 0.181440 0.067920
v -0.016184 0.071816 0.204608
v 0.280232 0.197000 0.012512
v 0.259760 0.217344 -0.114280
v 0.228992 0.223272 -0.155472
v 0.154944 0.224368 -0.190392
v 0.000000 0.222400 -0.216960
v 0.070872 0.223648 -0.210512
v 0.119168 0.201784 0.171408
v 0.000000 0.194680 0.205784
v 0.112880 0.163312 0.089192
v 0.000000 0.141808 0.089720
v 0.124168 0.212200 0.089192
v 0.000000 0.214472 -0.005280
v 0.097304 0.242200 0.197592
v 0.089408 0.233184 0.197008
v 0.040448 0.254944 0.206600
v 0.000000 0.261128 0.217304
v 0.259864 0.314192 0.085784
v 0.253048 0.278448 0.099392
v 0.253352 0.386288 0.084776
v 0.233880 0.365024 0.116232
v 0.243640 0.414288 0.122928
v 0.255064 0.425112 0.105696
v 0.236880 0.454872 0.142608
v 0.088968 0.431464 0.220440
v 0.158888 0.440136 0.201624
v 0.101184 0.456328 0.221680
v 0.205848 0.434232 0.172448
v -0.014240 0.441928 0.232440
v 0.196568 0.484384 0.177704
v 0.240728 0.486632 0.127160
v 0.129712 0.485176 0.210216
v 0.012968 0.476648 0.229192
v 0.251024 0.469112 0.086584
v 0.253224 0.308776 -0.026000
v 0.237344 0.397240 -0.076296
v 0.070472 0.275984 0.195176
v 0.122904 0.264656 0.181088
v 0.173168 0.270672 0.161896
v 0.042016 0.302080 0.197168
v 0.030544 0.351432 0.200816
v -0.000016 0.329064 0.216064
v 0.207296 0.292200 0.139728
v 0.233000 0.311320 0.118240
v 0.054872 0.398528 0.197232
v 0.063152 0.405448 0.201096
v 0.062376 0.423416 0.201600
v 0.146864 0.434736 0.185408
v 0.198688 0.431680 0.160640
v 0.214480 0.387720 0.140664
v 0.229888 0.417952 0.126328
v 0.097392 0.418272 0.197672
v 0.165320 0.419056 0.180864
v 0.221248 0.359488 0.121952
v 0.221824 0.326248 0.120096
v 0.000000 0.409800 0.218624
v 0.216648 0.419608 -0.047328
v 0.127656 0.422872 -0.077664
v 0.102784 0.399592 -0.124656
v 0.000000 0.399056 -0.138672
v -0.099856 0.421560 -0.086712
v 0.118904 0.324824 -0.165264
v -0.027968 0.333624 -0.173640
v 0.219384 0.324840 -0.126704
v 0.126592 0.473688 0.166792
v 0.196704 0.462808 0.133976
v 0.236360 0.475688 0.097896
v 0.228112 0.448568 0.015856
v 0.168872 0.442576 0.014080
v 0.179944 0.458864 0.081064
v 0.039648 0.352616 0.173800
v 0.126488 0.341840 0.045432
v 0.059168 0.237832 0.187528
v 0.000000 0.289328 0.089192
v 0.064600 0.273264 0.089192
v -0.137408 -0.124488 0.162256
v -0.039808 -0.140272 0.161592
v -0.128304 -0.094496 0.162496
v -0.122560 -0.138904 -0.224232
v -0.225320 -0.127440 0.122304
v -0.262048 -0.121384 0.085584
v -0.189568 -0.128712 -0.200928
v -0.270864 -0.125952 -0.090288
v -0.252776 -0.147568 -0.148160
v -0.273952 -0.123768 0.001920
v -0.216600 -0.092512 0.119184
v -0.185832 -0.093808 -0.201624
v -0.252488 -0.091896 -0.148552
v -0.264256 -0.091336 -0.086160
v -0.267272 -0.092552 -0.004944
v -0.260448 -0.095344 0.081272
v -0.149896 -0.050376 0.164712
v -0.052032 -0.052016 0.174304
v -0.118664 -0.049936 0.161912
v -0.217648 -0.089088 0.128456
v -0.261624 -0.050496 0.098280
v -0.270800 -0.050456 -0.063544
v -0.185704 -0.092664 -0.211616
v -0.259808 -0.050408 -0.150216
v -0.195168 -0.050408 -0.209064
v -0.105840 -0.050408 -0.237528
v -0.205560 -0.050472 0.121336
v -0.246144 -0.048864 0.065736
v -0.255192 -0.049752 -0.019304
v -0.255400 -0.048832 -0.092320
v -0.243536 -0.049936 -0.146416
v -0.189600 -0.050728 -0.192680
v -0.138584 -0.049344 -0.213496
v -0.109968 0.013584 0.187448
v -0.172176 0.014904 0.159608
v -0.227760 -0.003720 0.120456
v -0.277224 0.015416 0.058584
v -0.278328 -0.021272 -0.024584
v -0.258360 -0.000512 -0.148032
v -0.207088 0.032776 -0.198952
v -0.065096 -0.019384 -0.240080
v -0.146736 0.036936 -0.226064
v -0.071384 0.037608 -0.247272
v -0.254896 0.080144 -0.158528
v -0.252312 0.168176 -0.131760
v -0.217360 0.173192 -0.169592
v -0.263304 0.149216 -0.109536
v -0.275944 0.152576 -0.031680
v -0.276576 0.135536 0.027960
v -0.275624 0.132840 0.050416
v -0.222464 0.071936 0.120696
v -0.231080 0.097000 0.107288
v -0.271224 0.080240 0.072984
v -0.130080 0.061192 0.171904
v -0.053824 0.051648 0.195880
v -0.036824 0.060536 0.207520
v -0.156680 0.177168 -0.202120
v -0.084216 0.179712 -0.223384
v -0.131688 0.187360 -0.222000
v -0.140064 0.211032 -0.207904
v -0.219392 0.181024 -0.178032
v -0.223864 0.206960 -0.167320
v -0.070304 0.004536 0.253648
v -0.099072 0.077888 0.199096
v -0.134368 0.041488 0.219296
v -0.239168 0.123536 0.115504
v -0.236728 0.096440 0.124864
v -0.268504 0.153048 0.066728
v -0.278120 0.173584 -0.003360
v -0.266984 0.197448 -0.115176
v -0.284136 0.159128 -0.024248
v -0.263216 0.174616 -0.129824
v -0.118464 0.206936 -0.199328
v -0.227264 0.203024 -0.148920
v -0.069368 0.074992 0.193648
v -0.115896 0.086368 0.177080
v -0.250912 0.135792 0.091344
v -0.254808 0.193512 -0.109472
v -0.304768 0.014880 -0.102528
v -0.280992 0.010656 -0.027344
v -0.273664 0.129816 -0.097664
v -0.275416 0.084520 -0.121752
v -0.285984 0.010432 -0.107008
v -0.094168 0.179952 0.210576
v -0.053392 0.178832 0.222848
v -0.180240 0.208800 0.158976
v -0.143336 0.212328 0.173992
v -0.126992 0.214624 0.176432
v -0.124984 0.202456 0.181912
v -0.063376 0.195592 0.211696
v -0.158152 0.153640 0.174160
v -0.282648 0.181440 0.067920
v -0.264160 0.177192 0.090280
v -0.280232 0.197000 0.012512
v -0.259760 0.217344 -0.114280
v -0.228992 0.223272 -0.155472
v -0.154944 0.224368 -0.190392
v -0.070872 0.223648 -0.210512
v -0.119168 0.201784 0.171408
v -0.112880 0.163312 0.089192
v -0.124168 0.212200 0.089192
v -0.097304 0.242200 0.197592
v -0.089408 0.233184 0.197008
v -0.025544 0.241592 0.206704
v -0.259864 0.314192 0.085784
v -0.253048 0.278448 0.099392
v -0.233880 0.365024 0.116232
v -0.253352 0.386288 0.084776
v -0.243640 0.414288 0.122928
v -0.236880 0.454872 0.142608
v -0.255064 0.425112 0.105696
v -0.129688 0.436512 0.211448
v -0.135016 0.459904 0.212216
v -0.205848 0.434232 0.172448
v 0.000208 0.412568 0.230064
v -0.196568 0.484384 0.177704
v -0.240584 0.484664 0.126800
v -0.129712 0.485176 0.210216
v -0.055760 0.480712 0.226024
v -0.253128 0.468944 0.088664
v -0.243864 0.449536 0.037488
v -0.253224 0.308776 -0.026000
v -0.237344 0.397240 -0.076296
v -0.070472 0.275984 0.195176
v -0.046256 0.264832 0.204016
v -0.122904 0.264656 0.181088
v -0.173168 0.270672 0.161896
v -0.024976 0.293752 0.208872
v -0.030544 0.351432 0.200816
v -0.207296 0.292200 0.139728
v -0.233000 0.311320 0.118240
v -0.054872 0.398528 0.197232
v -0.062376 0.423416 0.201600
v -0.063152 0.405448 0.201096
v -0.146864 0.434736 0.185408
v -0.198688 0.431680 0.160640
v -0.214480 0.387720 0.140664
v -0.229888 0.417952 0.126328
v -0.044280 0.303768 0.192640
v -0.097392 0.418272 0.197672
v -0.165320 0.419056 0.180864
v -0.221248 0.359488 0.121952
v -0.221824 0.326248 0.120096
v -0.210936 0.418960 -0.051544
v -0.102784 0.399592 -0.124656
v -0.219384 0.324840 -0.126704
v -0.148136 0.327784 -0.154896
v -0.126592 0.473688 0.166792
v -0.196704 0.462808 0.133976
v -0.179080 0.459104 0.081192
v -0.163896 0.441912 0.010384
v -0.039648 0.352616 0.173800
v -0.126488 0.341840 0.045432
v -0.069600 0.235288 0.184736
v -0.064600 0.273264 0.089192
v 0.203864 0.395640 0.038544
v 0.197240 0.411240 0.125624
v 0.217192 0.377032 0.124744
v 0.159160 0.440688 0.040368
v 0.092136 0.451352 0.043128
v 0.125416 0.450688 0.129448
v 0.087608 0.451072 0.130424
v 0.045376 0.431752 0.044976
v 0.047720 0.436328 0.130040
v -0.001272 0.387528 0.046912
v 0.017032 0.411904 0.130904
v -0.002992 0.380248 0.133744
v -0.011336 0.317328 0.047280
v -0.010584 0.340824 0.134600
v -0.003944 0.302240 0.134424
v 0.030168 0.251904 0.045608
v 0.015984 0.268120 0.133592
v 0.046832 0.242600 0.132248
v 0.106056 0.227400 0.042544
v 0.084880 0.228768 0.130592
v 0.125544 0.228296 0.128816
v 0.180416 0.255776 0.039544
v 0.163944 0.241240 0.127128
v 0.195440 0.266064 0.125736
v 0.218224 0.323104 0.038016
v 0.216224 0.299776 0.124808
v 0.223784 0.338320 0.124456
v 0.164144 0.435672 0.131416
v 0.166184 0.403648 0.171352
v 0.195296 0.352840 0.170184
v 0.109800 0.424584 0.173616
v 0.053048 0.405840 0.175824
v 0.021208 0.354848 0.178672
v 0.030760 0.298688 0.176728
v 0.076496 0.260440 0.174968
v 0.136928 0.259384 0.172520
v 0.183792 0.295960 0.170640
v 0.127520 0.380824 0.198768
v 0.155432 0.347528 0.196272
v 0.071320 0.364136 0.201240
v 0.078296 0.306680 0.200808
v 0.137216 0.303952 0.198384
v 0.109560 0.339672 0.207200
v -0.203864 0.395640 0.038544
v -0.217192 0.377032 0.124744
v -0.197240 0.411240 0.125624
v -0.159160 0.440688 0.040368
v -0.125416 0.450688 0.129448
v -0.092136 0.451352 0.043128
v -0.087608 0.451072 0.130424
v -0.047720 0.436328 0.130048
v -0.045376 0.431752 0.044976
v -0.017032 0.411904 0.130904
v 0.001272 0.387528 0.046912
v 0.002992 0.380248 0.133744
v 0.010584 0.340824 0.134600
v 0.011336 0.317328 0.047280
v 0.003944 0.302240 0.134424
v -0.015984 0.268120 0.133592
v -0.030168 0.251904 0.045608
v -0.046832 0.242600 0.132248
v -0.084880 0.228768 0.130592
v -0.106056 0.227400 0.042544
v -0.125544 0.228296 0.128816
v -0.163944 0.241240 0.127128
v -0.180416 0.255776 0.039544
v -0.195440 0.266064 0.125736
v -0.216224 0.299776 0.124808
v -0.218224 0.323104 0.038016
v -0.223784 0.338320 0.124456
v -0.164144 0.435672 0.131416
v -0.195296 0.352840 0.170184
v -0.166184 0.403648 0.171352
v -0.109800 0.424584 0.173616
v -0.053048 0.405840 0.175824
v -0.021208 0.354848 0.178672
v -0.030760 0.298688 0.176728
v -0.076496 0.260440 0.174968
v -0.136936 0.259384 0.172520
v -0.183792 0.295960 0.170640
v -0.155432 0.347528 0.196272
v -0.127520 0.380824 0.198768
v -0.071320 0.364136 0.201240
v -0.078296 0.306680 0.200808
v -0.137216 0.303952 0.198384
v -0.109560 0.339672 0.207200
v -0.080176 0.181176 0.092256
v -0.067584 0.207648 0.087272
v -0.106128 0.208880 -0.000000
v -0.058280 0.233328 0.002728
v -0.118584 0.181144 -0.131824
v -0.118584 0.181144 -0.000000
v 0.106128 0.208880 -0.000000
v 0.118584 0.181144 -0.000000
v 0.118584 0.181144 -0.131824
v 0.089424 0.181144 0.077160
v 0.068696 0.209072 0.083648
v 0.000000 0.208008 0.118280
v 0.000000 0.181144 0.131824
v 0.050456 0.181144 0.112632
v 0.059288 0.233192 -0.000000
v 0.106128 0.208880 -0.131824
v 0.059288 0.233192 -0.131824
v -0.059288 0.233192 -0.131824
v -0.106128 0.208880 -0.131824
vn 0.2169 -0.9722 -0.0881
vn 0.7723 0.6352 0.0075
vn 0.0001 -0.8295 0.5585
vn 0.8904 0.1485 -0.4304
vn 0.0139 0.1430 0.9896
vn 0.4933 -0.0078 0.8698
vn -0.4073 -0.8140 0.4141
vn 0.7496 0.6080 0.2616
vn -0.0004 -0.1370 -0.9906
vn 0.2262 0.8521 0.4720
vn -0.0105 -0.5879 -0.8089
vn 0.1248 -0.3659 0.9223
vn 0.6368 -0.2698 -0.7223
vn 0.2252 0.4943 0.8396
vn -0.9033 -0.0524 -0.4257
vn -0.1113 -0.9617 -0.2504
vn -0.1425 -0.9837 -0.1096
vn 0.0325 -0.9882 0.1495
vn -0.1134 0.0779 -0.9905
vn 0.0525 -0.6380 -0.7682
vn -0.5650 0.8196 0.0955
vn -0.8908 -0.1178 -0.4388
vn 0.3220 0.0438 -0.9457
vn -0.8798 -0.4621 0.1117
vn -0.2271 0.8520 0.4718
vn -0.9316 0.3366 0.1375
vn -0.1248 -0.3659 0.9222
vn -0.5768 -0.3369 -0.7442
vn -0.2255 0.4942 0.8396
vn -0.0326 -0.9882 0.1495
vn 0.2002 -0.9544 -0.2215
vn -0.0522 -0.6380 -0.7683
vn 0.3818 0.9234 0.0404
vn 0.0210 0.9998 -0.0057
vn 0.7280 0.4004 0.5565
vn 0.2522 0.7469 0.6153
vn 0.5332 0.4593 0.7104
vn 0.7020 0.6784 0.2167
vn -0.4200 0.9070 0.0304
vn -0.2942 0.7043 0.6460
vn 0.9137 0.1319 0.3845
vn 0.8428 0.3736 0.3874
vn 0.5859 0.1776 0.7907
vn 0.5281 0.0521 0.8476
vn -0.4934 0.4558 0.7408
vn -0.6982 0.6684 0.2566
vn -0.5984 0.1931 0.7776
vn -0.8955 0.3023 0.3267
vn -0.9361 0.1233 0.3293
vn -0.5813 0.0580 0.8116
vn -0.3005 0.5410 -0.7855
vn -0.1884 -0.1391 0.9722
vn -0.4419 0.0901 0.8925
vn 0.0145 -0.0313 0.9994
vn -0.0600 0.0530 0.9968
vn -0.0406 -0.0270 0.9988
vn -0.0359 -0.0473 0.9982
vn -0.0066 -0.0399 0.9992
vn -0.0015 -0.0193 0.9998
vn 0.3621 0.9250 0.1155
vn 0.4281 0.7605 -0.4882
vn -0.9984 -0.0083 -0.0563
vn -0.0394 0.9725 0.2297
vn 0.6978 0.7069 -0.1159
vn 0.4964 0.5466 -0.6743
vn -0.2984 0.7635 -0.5727
vn -0.3644 0.9263 0.0958
vn 0.9388 0.1655 -0.3022
vn 0.5470 0.1232 -0.8280
vn 0.5985 0.2613 -0.7573
vn 0.8892 0.3737 -0.2639
vn -0.4925 0.5455 -0.6782
vn -0.6836 0.7211 -0.1129
vn -0.5942 0.2617 -0.7606
vn -0.8789 0.3799 -0.2885
vn -0.9308 0.1727 -0.3220
vn -0.5333 0.1066 -0.8392
vn -0.2110 -0.1743 0.9618
vn -0.1603 0.9543 -0.2523
vn -0.0048 0.0082 -1.0000
vn -0.0160 0.0604 -0.9980
vn -0.0228 0.0204 -0.9995
vn -0.0014 0.0799 -0.9968
vn 0.0244 0.0298 -0.9993
vn 0.0015 0.0105 -0.9999
vn 0.0153 0.0130 -0.9998
vn 0.1210 0.6205 0.7748
vn -0.2606 -0.6553 0.7090
vn 0.5827 -0.7056 0.4032
vn 0.7903 0.3424 0.5082
vn 0.6193 0.3997 0.6758
vn 0.6934 0.5539 -0.4608
vn -0.4514 0.7406 -0.4978
vn -0.5181 0.5540 0.6517
vn 0.6609 -0.2060 0.7217
vn 0.7424 -0.0092 -0.6699
vn -0.6561 0.2173 -0.7227
vn -0.7292 -0.0062 0.6843
vn 0.8511 0.4939 -0.1778
vn 0.2199 0.9336 0.2830
vn -0.9204 0.2900 0.2623
vn 0.5883 -0.7104 0.3863
vn 0.9842 0.1076 0.1408
vn 0.1856 0.5387 0.8218
vn -0.0518 -0.7009 0.7114
vn -0.0313 -0.0199 -0.9993
vn 0.8585 0.2669 -0.4379
vn -0.8207 0.3098 -0.4801
vn -0.0741 -0.7509 0.6562
vn 0.9408 0.2934 0.1697
vn 0.1412 0.9191 -0.3680
vn -0.2844 0.9567 -0.0623
vn -0.4663 0.7128 0.5239
vn -0.6127 -0.6309 0.4760
vn 0.1322 -0.6660 0.7341
vn -0.9046 -0.3407 0.2560
vn 0.9720 0.0143 0.2346
vn -0.0898 -0.9376 -0.3359
vn 0.3059 0.5835 -0.7523
vn 0.8746 -0.2195 0.4324
vn 0.8854 0.3181 -0.3391
vn 0.7867 -0.2102 0.5804
vn 0.9162 0.3706 0.1524
vn 0.9552 0.2306 0.1854
vn 0.4151 0.5631 0.7146
vn 0.2942 0.4912 0.8199
vn -0.3265 0.0329 0.9446
vn 0.7259 -0.3139 -0.6120
vn 0.9803 -0.1524 -0.1257
vn 0.0980 0.9801 0.1728
vn -0.8269 0.2383 0.5094
vn -0.6694 0.4397 0.5988
vn -0.0352 -0.0879 -0.9955
vn -0.1351 0.6060 0.7839
vn 0.7858 0.0768 -0.6137
vn 0.7886 -0.1149 -0.6040
vn 0.6780 -0.4260 -0.5990
vn 0.3651 -0.7050 -0.6080
vn 0.1550 -0.6225 0.7671
vn -0.8890 0.3114 -0.3357
vn 0.2555 -0.7089 -0.6574
vn 0.1985 -0.7317 -0.6520
vn -0.1306 0.2866 0.9491
vn 0.0814 -0.1338 -0.9877
vn 0.6491 0.5690 -0.5049
vn 0.6546 0.7541 -0.0530
vn 0.7373 -0.5369 0.4100
vn 0.5476 0.5965 0.5868
vn 0.0301 -0.0553 0.9980
vn 0.5568 0.8209 -0.1267
vn 0.0554 0.9335 0.3543
vn 0.0296 0.4671 -0.8837
vn -0.0354 0.5865 -0.8091
vn 0.0887 0.9886 0.1217
vn 0.9380 -0.1858 -0.2926
vn 0.8294 0.5585 -0.0103
vn 0.6213 -0.4658 -0.6301
vn 0.8713 0.4865 -0.0645
vn -0.3811 0.9245 -0.0121
vn 0.2493 0.2258 0.9417
vn 0.8578 0.0683 0.5095
vn 0.1204 -0.5549 -0.8232
vn 0.2349 -0.9677 -0.0917
vn 0.3762 -0.9239 0.0694
vn 0.1525 -0.9861 0.0664
vn -0.0600 -0.9971 0.0467
vn 0.9882 -0.1236 0.0905
vn 0.4012 -0.9148 0.0467
vn 0.8493 0.4950 -0.1836
vn 0.6278 0.4364 -0.6445
vn 0.3756 0.0929 -0.9221
vn 0.5032 -0.0543 0.8625
vn 0.7380 0.0822 0.6698
vn -0.1417 0.9897 -0.0209
vn -0.1449 -0.8666 0.4774
vn 0.5803 0.7935 -0.1832
vn -0.4412 0.7510 0.4912
vn -0.1113 0.0487 0.9926
vn -0.4564 0.1566 0.8759
vn 0.0002 0.9976 -0.0692
vn -0.4846 -0.8707 0.0840
vn -0.6756 -0.6547 -0.3391
vn 0.9953 -0.0936 0.0232
vn 0.9761 -0.0810 -0.2016
vn -0.0014 -0.9936 0.1127
vn -0.0216 -0.9956 0.0913
vn 0.0853 -0.4060 -0.9099
vn 0.1122 0.4806 0.8697
vn 0.3469 -0.3868 -0.8544
vn 0.5479 -0.7876 0.2820
vn 0.6114 0.7182 -0.3323
vn 0.1762 0.7787 -0.6021
vn 0.0057 0.5613 -0.8276
vn 0.6856 0.3068 -0.6602
vn 0.6695 0.7269 -0.1532
vn 0.5653 0.2232 0.7941
vn 0.6735 0.7259 -0.1397
vn 0.8695 0.3049 0.3887
vn 0.5926 -0.1101 -0.7979
vn 0.4717 0.4117 -0.7798
vn 0.9724 0.1710 0.1584
vn 0.2775 -0.1582 0.9476
vn 0.7704 0.2166 0.5997
vn 0.0672 -0.4953 0.8661
vn 0.0030 0.3478 -0.9376
vn -0.0830 0.2633 -0.9611
vn -0.0639 0.2226 -0.9728
vn -0.7957 -0.3597 0.4873
vn 0.8422 0.5290 -0.1045
vn -0.0239 0.1496 0.9885
vn -0.7814 -0.2644 0.5653
vn 0.0094 0.8668 -0.4986
vn 0.7495 0.0610 0.6592
vn 0.3005 -0.0464 -0.9526
vn -0.3635 -0.8460 -0.3901
vn -0.0534 -0.9954 0.0796
vn 0.5087 -0.5393 0.6710
vn -0.7782 -0.2358 0.5821
vn -0.0137 0.7704 -0.6374
vn -0.1858 0.1552 -0.9702
vn -0.3633 -0.8461 -0.3902
vn 0.3003 -0.0466 -0.9527
vn 0.6838 -0.7156 0.1425
vn -0.2261 0.9370 -0.2665
vn -0.2682 0.9466 0.1792
vn 0.3520 0.9332 0.0721
vn 0.9880 0.0121 -0.1540
vn -0.1629 -0.0106 0.9866
vn -0.4980 0.7588 0.4197
vn 0.1118 0.8594 -0.4990
vn -0.4452 -0.7688 0.4590
vn 0.9168 -0.0066 -0.3993
vn 0.8864 0.2892 0.3614
vn 0.9159 -0.2305 0.3287
vn 0.9659 0.1742 -0.1916
vn 0.9877 -0.0947 -0.1243
vn -0.8848 -0.3764 -0.2746
vn 0.7832 -0.5899 -0.1965
vn 0.6001 -0.7423 0.2980
vn 0.4674 -0.8811 -0.0722
vn 0.3279 -0.9172 0.2264
vn -0.7264 0.6365 -0.2592
vn 0.0902 -0.9950 0.0425
vn -0.8775 -0.4466 -0.1748
vn 0.1322 -0.9817 0.1372
vn -0.1098 0.3748 -0.9206
vn -0.9506 0.1547 0.2690
vn 0.0553 -0.1072 0.9927
vn -0.5033 0.3873 -0.7725
vn 0.3051 0.0426 -0.9514
vn -0.8804 0.4043 0.2478
vn -0.0001 0.9999 0.0123
vn -0.5814 0.7983 0.1572
vn -0.4520 -0.8449 -0.2861
vn 0.3771 -0.1347 0.9163
vn 0.8824 -0.4179 -0.2163
vn 0.5670 -0.8221 -0.0525
vn 0.9112 0.3654 -0.1901
vn 0.9150 0.3925 0.0936
vn 0.9877 0.1404 0.0685
vn 0.3896 0.7814 0.4875
vn 0.4310 0.7652 0.4783
vn 0.9694 0.2425 0.0388
vn 0.6438 0.7579 0.1055
vn 0.2669 -0.7449 -0.6115
vn -0.3073 0.9504 0.0484
vn -0.6419 -0.7189 -0.2667
vn -0.7514 -0.0589 0.6572
vn -0.1316 0.9912 -0.0175
vn 0.4055 0.7076 0.5787
vn -0.1082 0.5860 -0.8031
vn 0.5311 0.0191 -0.8471
vn -0.9424 0.3075 -0.1317
vn -0.5095 0.6037 0.6131
vn 0.5613 0.0497 -0.8261
vn 0.9951 -0.0640 -0.0757
vn 0.8199 -0.5147 -0.2507
vn 0.0465 0.8768 -0.4786
vn -0.2774 0.7731 -0.5704
vn 0.6691 0.6532 -0.3545
vn -0.4878 0.8717 -0.0473
vn 0.4341 0.5411 0.7203
vn -0.4325 -0.3240 0.8414
vn 0.8433 0.5082 -0.1749
vn -0.5987 -0.7703 0.2194
vn 0.6879 0.6662 0.2880
vn 0.5736 -0.0693 -0.8162
vn 0.6109 0.6449 0.4592
vn 0.1575 0.2818 0.9465
vn 0.1157 -0.6352 0.7637
vn -0.9989 0.0415 0.0207
vn -0.0963 -0.1845 0.9781
vn 0.3478 -0.4901 0.7993
vn -0.7771 0.5612 0.2849
vn -0.1319 0.0397 0.9905
vn -0.0142 -0.9038 0.4277
vn 0.5793 -0.4549 0.6764
vn 0.6609 -0.4048 -0.6319
vn -0.4515 -0.2969 -0.8414
vn -0.5990 -0.4770 -0.6431
vn -0.2054 -0.6533 -0.7287
vn 0.0501 -0.3592 -0.9319
vn -0.6909 -0.5656 -0.4503
vn -0.6258 -0.7250 -0.2876
vn 0.2106 -0.7585 -0.6167
vn -0.3820 -0.2949 -0.8759
vn -0.2436 -0.2518 -0.9366
vn 0.0986 -0.2458 -0.9643
vn 0.1985 -0.4546 -0.8683
vn 0.2546 0.8883 -0.3823
vn -0.2615 0.8412 -0.4733
vn 0.6107 0.7895 -0.0616
vn 0.9080 0.3884 0.1572
vn 0.0472 0.9985 0.0272
vn -0.9965 0.0060 0.0836
vn 0.9411 0.0768 0.3293
vn -0.2397 0.1635 0.9570
vn 0.5230 0.8429 0.1267
vn -0.6267 0.7511 0.2079
vn -0.8059 0.5480 0.2240
vn -0.5041 0.8562 0.1129
vn 0.3348 -0.9382 0.0881
vn 0.2833 0.8904 0.3563
vn -0.2449 -0.6096 0.7539
vn -0.6308 0.7655 0.1269
vn -0.1805 0.3764 -0.9087
vn -0.8467 -0.2948 0.4430
vn -0.9048 0.4062 -0.1277
vn -0.7849 -0.0727 0.6153
vn -0.9146 0.3940 0.0909
vn -0.9675 0.0830 0.2389
vn -0.4873 0.6888 0.5368
vn -0.2389 -0.3037 0.9223
vn -0.5092 0.6185 -0.5985
vn 0.8357 0.3068 0.4556
vn 0.1015 -0.5693 0.8159
vn -0.5027 0.7300 0.4630
vn -0.7872 0.0748 -0.6122
vn -0.7886 -0.1150 -0.6041
vn 0.4475 -0.7868 0.4250
vn -0.6508 -0.4159 -0.6352
vn -0.1468 -0.6306 -0.7621
vn -0.2051 -0.6831 -0.7009
vn -0.7549 -0.4121 0.5102
vn -0.7827 0.2296 0.5785
vn -0.2798 0.5943 -0.7540
vn -0.6575 0.4207 0.6251
vn -0.0298 -0.0551 0.9980
vn -0.4952 0.2191 -0.8407
vn 0.4958 0.8623 0.1031
vn -0.3392 0.9398 0.0415
vn 0.7627 0.1455 0.6302
vn -0.8142 0.5806 0.0094
vn -0.7939 0.2046 -0.5725
vn 0.0391 -0.9536 0.2986
vn -0.8578 0.0683 0.5094
vn -0.4082 0.4513 -0.7935
vn -0.4808 -0.8750 0.0570
vn 0.5231 -0.8485 0.0799
vn -0.3131 -0.9490 0.0374
vn -0.1213 -0.9921 0.0326
vn -0.6835 -0.6473 -0.3374
vn -0.6025 0.5440 -0.5840
vn -0.2182 0.6181 -0.7552
vn -0.6193 0.5304 -0.5790
vn -0.3408 0.1786 -0.9230
vn -0.2220 -0.9633 0.1510
vn -0.7381 0.0822 0.6697
vn -0.5055 -0.0616 0.8606
vn 0.4647 0.6357 0.6164
vn -0.6485 -0.4951 -0.5782
vn -0.7424 -0.6650 -0.0817
vn -0.0034 0.1186 0.9929
vn 0.5665 0.1634 0.8077
vn 0.4028 0.5994 -0.6917
vn 0.8027 -0.0764 -0.5915
vn 0.1311 -0.9906 0.0400
vn -0.9762 -0.1160 0.1833
vn -0.0021 -0.4170 -0.9089
vn -0.5556 -0.7810 0.2851
vn -0.3481 -0.3865 -0.8541
vn -0.6699 0.5430 -0.5064
vn 0.0044 0.5851 -0.8110
vn -0.1764 0.7787 -0.6021
vn -0.4565 0.5327 -0.7126
vn -0.6693 0.7270 -0.1531
vn -0.4311 -0.4912 0.7569
vn -0.6728 0.7263 -0.1406
vn -0.5558 -0.1483 0.8180
vn -0.8286 -0.1448 0.5409
vn -0.8569 0.2000 0.4751
vn -0.7218 -0.6291 0.2884
vn -0.2775 -0.1581 0.9476
vn -0.7710 0.2169 0.5988
vn -0.0673 -0.4953 0.8661
vn 0.0987 0.3605 -0.9275
vn 0.0929 0.2214 -0.9707
vn -0.8599 -0.2903 0.4198
vn -0.9665 -0.0304 0.2547
vn 0.1798 0.9043 0.3872
vn 0.4165 0.2230 -0.8814
vn 0.5571 -0.7317 0.3927
vn 0.1988 -0.9249 0.3241
vn -0.1656 -0.9196 0.3563
vn -0.0371 0.2792 -0.9595
vn -0.3454 0.1677 -0.9234
vn 0.0887 -0.3056 -0.9480
vn 0.4919 0.8209 0.2901
vn -0.5244 0.8505 -0.0395
vn 0.8814 -0.1496 0.4480
vn 0.4430 0.8378 0.3191
vn 0.8396 -0.5069 0.1953
vn -0.1938 0.8181 -0.5415
vn -0.3848 -0.9226 -0.0274
vn -0.6739 0.7387 0.0143
vn -0.9027 0.2574 -0.3448
vn -0.9323 0.3096 0.1870
vn -0.9894 0.0504 0.1359
vn -0.9159 -0.2306 0.3286
vn -0.5264 -0.3049 -0.7937
vn 0.5143 0.0175 -0.8575
vn -0.5932 -0.7433 0.3092
vn 0.9061 -0.1479 -0.3963
vn -0.2739 -0.9544 0.1185
vn -0.1220 -0.9906 0.0621
vn -0.0711 -0.1063 0.9918
vn 0.3719 0.1901 -0.9086
vn 0.5033 0.3873 -0.7725
vn 0.8804 0.4042 0.2479
vn 0.7306 -0.6534 0.1982
vn 0.8181 -0.2377 0.5236
vn -0.1391 -0.6211 0.7712
vn -0.9522 0.3052 0.0115
vn -0.2613 0.7474 0.6108
vn -0.9885 0.1288 0.0792
vn -0.7517 0.6574 -0.0525
vn -0.9912 0.1229 -0.0483
vn -0.2783 -0.9520 -0.1275
vn 0.7848 -0.1409 0.6035
vn -0.5151 0.8514 -0.0994
vn -0.5987 -0.5833 -0.5489
vn 0.7311 0.6304 -0.2611
vn 0.0013 0.0464 -0.9989
vn 0.9859 0.1352 0.0982
vn 0.7449 0.4376 -0.5036
vn -0.8625 -0.2454 -0.4427
vn -0.9972 0.0228 0.0710
vn 0.4993 0.2035 -0.8422
vn 0.0455 0.9860 0.1606
vn 0.3055 0.9128 -0.2711
vn 0.0100 0.0772 0.9970
vn 0.3713 0.7638 -0.5280
vn 0.3314 0.9267 0.1771
vn -0.2414 0.6176 0.7485
vn 0.0754 -0.7884 0.6105
vn -0.7929 0.5972 -0.1207
vn -0.1958 -0.3032 -0.9326
vn -0.3663 0.8516 0.3749
vn 0.0875 -0.9818 -0.1684
vn -0.6888 -0.7128 0.1321
vn -0.3259 0.7060 0.6287
vn -0.1604 -0.7809 0.6037
vn 0.5001 -0.4180 -0.7584
vn -0.7511 0.5931 -0.2899
vn -0.2789 0.0490 0.9591
vn -0.3128 -0.2172 0.9246
vn 0.9956 -0.0295 0.0893
vn 0.2823 0.1640 0.9452
vn 0.4147 -0.7639 0.4945
vn -0.5989 -0.4031 -0.6920
vn 0.8074 -0.2918 -0.5127
vn -0.5709 -0.7463 -0.3423
vn -0.2021 -0.8791 -0.4317
vn 0.3623 -0.2828 -0.8881
vn 0.2561 -0.2168 -0.9420
vn -0.5549 -0.1225 -0.8228
vn -0.9680 0.2511 0.0032
vn 0.2973 0.9511 0.0841
vn 0.4574 -0.0957 0.8841
vn 0.4335 0.2436 0.8676
vn 0.9507 -0.3101 0.0070
vn 0.9198 0.2017 -0.3367
vn 0.8868 -0.0953 -0.4523
vn -0.7145 0.5771 -0.3956
vn -0.0388 -0.0605 -0.9974
vn -0.1261 0.2750 -0.9531
vn 0.6434 0.3085 -0.7006
vn -0.5488 -0.0695 -0.8330
vn -0.6564 0.0901 -0.7490
vn -0.8215 -0.1303 -0.5550
vn -0.8743 -0.0014 -0.4853
vn -0.7316 0.6420 -0.2295
vn -0.9434 -0.2138 0.2536
vn -0.9824 0.1687 0.0804
vn -0.6122 -0.0686 0.7877
vn -0.6069 -0.0145 0.7946
vn -0.7120 0.3390 0.6149
vn 0.3447 -0.0871 0.9346
vn -0.0042 -0.0106 0.9999
vn -0.2584 0.3621 0.8956
vn 0.8452 0.2807 0.4548
vn 0.5985 -0.0409 0.8001
vn 0.2912 0.2437 0.9251
vn 0.9585 0.2815 0.0445
vn 0.9478 -0.2032 0.2458
vn 0.8261 0.1462 0.5442
vn 0.9541 0.2150 0.2083
vn 0.9091 -0.0770 -0.4094
vn 0.6043 0.5539 -0.5727
vn 0.2940 0.9357 0.1952
vn 0.2612 0.6508 -0.7129
vn -0.1911 0.8069 -0.5590
vn 0.2652 -0.5391 0.7994
vn -0.3794 0.8081 0.4506
vn 0.0480 0.7468 0.6633
vn 0.4464 0.7047 0.5515
vn 0.7559 0.6331 0.1667
vn 0.6713 0.6368 -0.3793
vn 0.6603 0.7235 -0.2014
vn -0.3629 -0.9221 0.1347
vn 0.3840 0.8628 0.3288
vn 0.7676 0.6392 0.0469
vn 0.0412 0.9989 0.0206
vn -0.8868 -0.0953 -0.4521
vn -0.9510 0.0862 -0.2970
vn -0.5591 -0.1683 0.8118
vn 0.2340 0.3888 0.8911
vn 0.7731 0.2881 -0.5651
vn 0.0389 -0.0605 -0.9974
vn 0.7294 0.0524 -0.6821
vn 0.6566 0.0900 -0.7489
vn 0.5488 -0.0695 -0.8330
vn 0.8744 -0.0015 -0.4852
vn 0.8216 -0.1303 -0.5549
vn 0.9918 -0.0885 -0.0918
vn 0.9824 0.1686 0.0803
vn 0.9434 -0.2138 0.2536
vn 0.9456 0.2636 0.1904
vn 0.7120 0.3392 0.6148
vn 0.6072 -0.0144 0.7945
vn 0.7734 0.3860 0.5028
vn 0.2586 0.3621 0.8956
vn 0.0039 -0.0107 0.9999
vn 0.3854 0.1966 0.9015
vn -0.2912 0.2436 0.9251
vn -0.5985 -0.0409 0.8001
vn -0.3636 -0.0567 0.9298
vn -0.8262 0.1462 0.5441
vn -0.9478 -0.2031 0.2459
vn -0.8934 0.0419 0.4473
vn 0.1956 0.6550 -0.7299
vn -0.8381 -0.5331 -0.1159
vn -0.6048 0.5536 -0.5725
vn -0.2610 0.6510 -0.7128
vn 0.1912 0.8068 -0.5591
vn -0.2652 -0.5391 0.7994
vn 0.3794 0.8081 0.4506
vn -0.0478 0.7468 0.6633
vn -0.4463 0.7047 0.5516
vn -0.7558 0.6333 0.1668
vn -0.2691 0.9623 -0.0397
vn -0.6710 0.6370 -0.3795
vn 0.3629 -0.9221 0.1347
vn -0.3839 0.8629 0.3288
vn -0.7675 0.6393 0.0471
vn 0.2546 0.9665 0.0324
vn -0.6496 -0.0000 0.7603
vn -0.2306 -0.1367 -0.9634
vn -0.0000 -0.0000 1.0000
vn 0.4116 0.4966 -0.7642
vn 0.9004 0.1571 -0.4057
vn 0.7911 0.2704 -0.5487
vn -0.9587 -0.2541 -0.1281
vn -0.7760 0.3041 -0.5526
vn 0.6707 0.7415 0.0162
vn 0.7159 0.0176 0.6980
vn 0.7266 0.5123 -0.4578
vn -0.7878 0.5453 0.2864
vn 0.4741 0.7097 0.5211
vn 0.0047 0.6753 -0.7375
vn 0.1647 0.9818 0.0944
vn 0.4421 0.7818 -0.4397
vn 0.2046 0.1011 -0.9736
vn -0.0003 -0.0002 1.0000
vn -0.0001 -0.0001 1.0000
vn 0.0003 -0.0000 1.0000
vn 0.7270 -0.0000 -0.6866
vn 0.2386 0.0044 -0.9711
vn -0.1018 -0.0723 -0.9922
vn -0.7270 -0.0000 -0.6866
vn -0.7760 0.3040 -0.5526
vt 0.672499 -0.106371
vt 0.714900 -0.057600
vt 0.641638 -0.057400
vt 0.779591 -0.076271
vt 0.779738 -0.057600
vt 0.820840 -0.077888
vt 0.811164 -0.065931
vt 0.809429 -0.084989
vt 0.825300 -0.057600
vt 0.844582 -0.065035
vt 0.835200 -0.067700
vt 0.841700 -0.098000
vt 0.851457 -0.095341
vt 0.805583 -0.090094
vt 0.669941 -0.112422
vt 0.831800 -0.068500
vt 0.837400 -0.100400
vt 0.811723 -0.049149
vt 0.874359 -0.010215
vt 0.850900 -0.005100
vt 0.848900 -0.011600
vt 0.869342 -0.016704
vt 0.881600 -0.015133
vt 0.881600 -0.103636
vt 0.873000 -0.029600
vt 0.859046 -0.086856
vt 0.672599 -0.008628
vt 0.779676 -0.039029
vt 0.844523 -0.052106
vt 0.851257 -0.021859
vt 0.841500 -0.019200
vt 0.835100 -0.049500
vt 0.809425 -0.030307
vt 0.805583 -0.025201
vt 0.670139 -0.002575
vt 0.831700 -0.048700
vt 0.837200 -0.016800
vt 0.820831 -0.037364
vt 0.585300 -0.834700
vt 0.612700 -0.834700
vt 0.613208 -0.815600
vt 0.588464 -0.815600
vt 0.566500 -0.815600
vt 0.565000 -0.834700
vt 0.639900 -0.834700
vt 0.634500 -0.815600
vt 0.519100 -0.834700
vt 0.542300 -0.834700
vt 0.540800 -0.815600
vt 0.517000 -0.815600
vt 0.657900 -0.815600
vt 0.660700 -0.834700
vt 0.681800 -0.815600
vt 0.682400 -0.834700
vt 0.708100 -0.834700
vt 0.708300 -0.815600
vt 0.613060 -0.805800
vt 0.589600 -0.805800
vt 0.588100 -0.805800
vt 0.567500 -0.805800
vt 0.634700 -0.805800
vt 0.519698 -0.805800
vt 0.656800 -0.805800
vt 0.677800 -0.805800
vt 0.705400 -0.805800
vt 0.532100 -0.956200
vt 0.535704 -0.977900
vt 0.554858 -0.977900
vt 0.553900 -0.956200
vt 0.509600 -0.956200
vt 0.515100 -0.977900
vt 0.576000 -0.977900
vt 0.580300 -0.956200
vt 0.467100 -0.956200
vt 0.468600 -0.977900
vt 0.491200 -0.977900
vt 0.488500 -0.956200
vt 0.596200 -0.977900
vt 0.599500 -0.956200
vt 0.617800 -0.977900
vt 0.621200 -0.956200
vt 0.641900 -0.956200
vt 0.639800 -0.977900
vt 0.536522 -0.993000
vt 0.554391 -0.993000
vt 0.513800 -0.993000
vt 0.576600 -0.993000
vt 0.490400 -0.993000
vt 0.467300 -0.993000
vt 0.601000 -0.993000
vt 0.621300 -0.993000
vt 0.642600 -0.993000
vt 0.474499 -0.319330
vt 0.475100 -0.249935
vt 0.391869 -0.257000
vt 0.398999 -0.319864
vt 0.646900 -0.684800
vt 0.609300 -0.683900
vt 0.608200 -0.711700
vt 0.646600 -0.711800
vt 0.647300 -0.667200
vt 0.609600 -0.666300
vt 0.591700 -0.683100
vt 0.590700 -0.710900
vt 0.608200 -0.729200
vt 0.646600 -0.729400
vt 0.664100 -0.712200
vt 0.664500 -0.685100
vt 0.737702 -0.612012
vt 0.810610 -0.709362
vt 0.770603 -0.602481
vt 0.771034 -0.717033
vt 0.874630 -0.727700
vt 0.876660 -0.725496
vt 0.912795 -0.772500
vt 0.896186 -0.113857
vt 0.857101 -0.152992
vt 0.857100 -0.153100
vt 0.814930 -0.146479
vt 0.787640 -0.221158
vt 0.779500 -0.142904
vt 0.779515 -0.530201
vt 0.739629 -0.532451
vt 0.737800 -0.137459
vt 0.737800 -0.196815
vt 0.775601 -0.273357
vt 0.732849 -0.276640
vt 0.797816 -0.329793
vt 0.732277 -0.334449
vt 0.776407 -0.372211
vt 0.731665 -0.374925
vt 0.771898 -0.435533
vt 0.733526 -0.435778
vt 0.769334 -0.493461
vt 0.734206 -0.493053
vt 0.734361 -0.694398
vt 0.726800 -0.627413
vt 0.691500 -0.585776
vt 0.691500 -0.660700
vt 0.679200 -0.603200
vt 0.679200 -0.687051
vt 0.726800 -0.535688
vt 0.691500 -0.500810
vt 0.691500 -0.393913
vt 0.691500 -0.337400
vt 0.691500 -0.283000
vt 0.726800 -0.201827
vt 0.726800 -0.129469
vt 0.691500 -0.218751
vt 0.691500 -0.119900
vt 0.691500 -0.660992
vt 0.679200 -0.538326
vt 0.680600 -0.486000
vt 0.679200 -0.427900
vt 0.679200 -0.377900
vt 0.679200 -0.337900
vt 0.679200 -0.285500
vt 0.679200 -0.239900
vt 0.679200 -0.185100
vt 0.679200 -0.146821
vt 0.106757 -0.923589
vt 0.126335 -0.983897
vt 0.217811 -0.988940
vt 0.166730 -0.924165
vt 0.233032 -0.940127
vt 0.290600 -0.986538
vt 0.283200 -0.925700
vt 0.049531 -0.923649
vt 0.019500 -0.921328
vt 0.038305 -0.984373
vt 0.367300 -0.946500
vt 0.369093 -0.989065
vt 0.650700 -0.945300
vt 0.650700 -0.987766
vt 0.712813 -0.984763
vt 0.749811 -0.928409
vt 0.761899 -0.986493
vt 0.826549 -0.986972
vt 0.817262 -0.906770
vt 0.874793 -0.908004
vt 0.881314 -0.986449
vt 0.945437 -0.985212
vt 0.936968 -0.910015
vt 0.978258 -0.984214
vt 0.993300 -0.905579
vt 0.768024 -0.872766
vt 0.804723 -0.784362
vt 0.763431 -0.783524
vt 0.719700 -0.798400
vt 0.657722 -0.791423
vt 0.365206 -0.793793
vt 0.300600 -0.793900
vt 0.311000 -0.803400
vt 0.231800 -0.842400
vt 0.227222 -0.868667
vt 0.272600 -0.853200
vt 0.128102 -0.881946
vt 0.058199 -0.887776
vt 0.006400 -0.892000
vt 0.032700 -0.883400
vt 0.862342 -0.783366
vt 0.921463 -0.785359
vt 0.993300 -0.783091
vt 0.623000 -0.883000
vt 0.710000 -0.883000
vt 0.710000 -0.873100
vt 0.584236 -0.873100
vt 0.710000 -0.854000
vt 0.578530 -0.854000
vt 0.554500 -0.883000
vt 0.475200 -0.854000
vt 0.475200 -0.873100
vt 0.473800 -0.883000
vt 0.381300 -0.971600
vt 0.446500 -0.955647
vt 0.432600 -0.909300
vt 0.362484 -0.909300
vt 0.583379 -0.909300
vt 0.568583 -0.930160
vt 0.640358 -0.895208
vt 0.639900 -0.925800
vt 0.338692 -0.873100
vt 0.426876 -0.854000
vt 0.326900 -0.855200
vt 0.432100 -0.873100
vt 0.819817 -0.756922
vt 0.756103 -0.744200
vt 0.763100 -0.766400
vt 0.879100 -0.766400
vt 0.879100 -0.744200
vt 0.332740 -0.883000
vt 0.432100 -0.883000
vt 0.661150 -0.766400
vt 0.644016 -0.744200
vt 0.597300 -0.766400
vt 0.584000 -0.744200
vt 0.682907 -0.839800
vt 0.554500 -0.839800
vt 0.464100 -0.839800
vt 0.394092 -0.892300
vt 0.473761 -0.892300
vt 0.589151 -0.892300
vt 0.426035 -0.839800
vt 0.326900 -0.839800
vt 0.323400 -0.910300
vt 0.352692 -0.892300
vt 0.707900 -0.925500
vt 0.707900 -0.908100
vt 0.504408 -0.541221
vt 0.509150 -0.603948
vt 0.546667 -0.605530
vt 0.546281 -0.542237
vt 0.546803 -0.471913
vt 0.508688 -0.471415
vt 0.507145 -0.423560
vt 0.498320 -0.322342
vt 0.512393 -0.268812
vt 0.496000 -0.271700
vt 0.512719 -0.220800
vt 0.496000 -0.220800
vt 0.512719 -0.663300
vt 0.496000 -0.606000
vt 0.496000 -0.663300
vt 0.572800 -0.766400
vt 0.104524 -0.748795
vt 0.044296 -0.757755
vt 0.089881 -0.768582
vt 0.186163 -0.710704
vt 0.149806 -0.719974
vt 0.136946 -0.718816
vt 0.133862 -0.728545
vt 0.064378 -0.742037
vt 0.171391 -0.764145
vt 0.147895 -0.821636
vt 0.282357 -0.750522
vt 0.290995 -0.715621
vt 0.314652 -0.701491
vt 0.416192 -0.204172
vt 0.427439 -0.187222
vt 0.314333 -0.105892
vt 0.388258 -0.203330
vt 0.072090 -0.855944
vt 0.029664 -0.813674
vt 0.022382 -0.847912
vt 0.299148 -0.118074
vt 0.263300 -0.075000
vt 0.257053 -0.091300
vt 0.185900 -0.038400
vt 0.183236 -0.054835
vt 0.012603 -0.021995
vt 0.092520 -0.029730
vt 0.044384 -0.011772
vt 0.366219 -0.062230
vt 0.367793 -0.097324
vt 0.373140 -0.088547
vt 0.369383 -0.056639
vt 0.370562 -0.061529
vt 0.340000 -0.067800
vt 0.319400 -0.094000
vt 0.342600 -0.054800
vt 0.293700 -0.052800
vt 0.035981 -0.869486
vt 0.318452 -0.735869
vt 0.102226 -0.696796
vt 0.038459 -0.693091
vt 0.046711 -0.683552
vt 0.012700 -0.680762
vt 0.099054 -0.705745
vt 0.266142 -0.624327
vt 0.276592 -0.588736
vt 0.260581 -0.513050
vt 0.230904 -0.535767
vt 0.224890 -0.502846
vt 0.237400 -0.476300
vt 0.203597 -0.478770
vt 0.129011 -0.495608
vt 0.083372 -0.494010
vt 0.078597 -0.510212
vt 0.176843 -0.495485
vt 0.034072 -0.500482
vt 0.012548 -0.525522
vt 0.159422 -0.453372
vt 0.208452 -0.442306
vt 0.102563 -0.461197
vt 0.020872 -0.469640
vt 0.238700 -0.448500
vt 0.334625 -0.674027
vt 0.244401 -0.404243
vt 0.283500 -0.355800
vt 0.302469 -0.241584
vt 0.325377 -0.301168
vt 0.216218 -0.244249
vt 0.080082 -0.669265
vt 0.134393 -0.677213
vt 0.051738 -0.644888
vt 0.021174 -0.619730
vt 0.180417 -0.665579
vt 0.230616 -0.600311
vt 0.041670 -0.600204
vt 0.061209 -0.563422
vt 0.068997 -0.544986
vt 0.063283 -0.530926
vt 0.218200 -0.508800
vt 0.199950 -0.524593
vt 0.129403 -0.507234
vt 0.176533 -0.503453
vt 0.093334 -0.529513
vt 0.146439 -0.513692
vt 0.223448 -0.547549
vt 0.230993 -0.585078
vt 0.211262 -0.636428
vt 0.018059 -0.540984
vt 0.205232 -0.272619
vt 0.127441 -0.240917
vt 0.105872 -0.197468
vt 0.012700 -0.179400
vt 0.101724 -0.235690
vt 0.127101 -0.135045
vt 0.040790 -0.119309
vt 0.220600 -0.170400
vt 0.110500 -0.437300
vt 0.174000 -0.430500
vt 0.215166 -0.414883
vt 0.214500 -0.333200
vt 0.163263 -0.328441
vt 0.174149 -0.379751
vt 0.158807 -0.327768
vt 0.060913 -0.598729
vt 0.158900 -0.596400
vt 0.372952 -0.041139
vt 0.370961 -0.013682
vt 0.368092 -0.029251
vt 0.323800 -0.014900
vt 0.334400 -0.032900
vt 0.804294 -0.691356
vt 0.730414 -0.604244
vt 0.737800 -0.273281
vt 0.734206 -0.493054
vt 0.691500 -0.585775
vt 0.679200 -0.670100
vt 0.726800 -0.271031
vt 0.055041 -0.988369
vt 0.817262 -0.906769
vt 0.938900 -0.966300
vt 0.592257 -0.839800
vt 0.410000 -0.892300
vt 0.589152 -0.892300
vt 0.105141 -0.752741
vt 0.072029 -0.741816
vt 0.058687 -0.759296
vt 0.086292 -0.848561
vt 0.145602 -0.028150
vt 0.373544 -0.085697
vt 0.099055 -0.705746
vt 0.266142 -0.624328
vt 0.111519 -0.488599
vt 0.111967 -0.501687
vt 0.208518 -0.441312
vt 0.047952 -0.468813
vt 0.334625 -0.674026
vt 0.244800 -0.406300
vt 0.237162 -0.340722
vt 0.080081 -0.669265
vt 0.052489 -0.676008
vt 0.134392 -0.677213
vt 0.035861 -0.648202
vt 0.180416 -0.665579
vt 0.055352 -0.643151
vt 0.199788 -0.269683
vt 0.155000 -0.142300
vt 0.172845 -0.380161
vt 0.368419 -0.033246
vt 0.519321 -0.700600
vt 0.529814 -0.727669
vt 0.528421 -0.712482
vt 0.502802 -0.675396
vt 0.453356 -0.657258
vt 0.475087 -0.664934
vt 0.446728 -0.660480
vt 0.417000 -0.662100
vt 0.418632 -0.665874
vt 0.379320 -0.692891
vt 0.394112 -0.680611
vt 0.377592 -0.701771
vt 0.363541 -0.745544
vt 0.368031 -0.728657
vt 0.367330 -0.757334
vt 0.384310 -0.799712
vt 0.376946 -0.784820
vt 0.395395 -0.806666
vt 0.435876 -0.827707
vt 0.420255 -0.820808
vt 0.448537 -0.825724
vt 0.493544 -0.815774
vt 0.476906 -0.820612
vt 0.501969 -0.806159
vt 0.530458 -0.769553
vt 0.520493 -0.783901
vt 0.530651 -0.756700
vt 0.500200 -0.679000
vt 0.508531 -0.692358
vt 0.527455 -0.743196
vt 0.461335 -0.665408
vt 0.408576 -0.674914
vt 0.373900 -0.717445
vt 0.374025 -0.769771
vt 0.408345 -0.811256
vt 0.461665 -0.820863
vt 0.508800 -0.793847
vt 0.483279 -0.683657
vt 0.519800 -0.739600
vt 0.397237 -0.695521
vt 0.394664 -0.784067
vt 0.479713 -0.801164
vt 0.449100 -0.742400
vt 0.369879 -0.712482
vt 0.368486 -0.727669
vt 0.378979 -0.700600
vt 0.395498 -0.675396
vt 0.423213 -0.664934
vt 0.444944 -0.657258
vt 0.451563 -0.660480
vt 0.479668 -0.665874
vt 0.481300 -0.662100
vt 0.504188 -0.680611
vt 0.518980 -0.692892
vt 0.520708 -0.701771
vt 0.530269 -0.728657
vt 0.534759 -0.745544
vt 0.530970 -0.757334
vt 0.521354 -0.784820
vt 0.513933 -0.799712
vt 0.502905 -0.806666
vt 0.478045 -0.820808
vt 0.462424 -0.827707
vt 0.449763 -0.825724
vt 0.421394 -0.820612
vt 0.404756 -0.815774
vt 0.396331 -0.806159
vt 0.377807 -0.783901
vt 0.367842 -0.769553
vt 0.367649 -0.756700
vt 0.398100 -0.679000
vt 0.370845 -0.743196
vt 0.389769 -0.692358
vt 0.436965 -0.665408
vt 0.489725 -0.674914
vt 0.524349 -0.717445
vt 0.524275 -0.769771
vt 0.489956 -0.811256
vt 0.436635 -0.820863
vt 0.389500 -0.793847
vt 0.378500 -0.739600
vt 0.415021 -0.683656
vt 0.501063 -0.695521
vt 0.503636 -0.784067
vt 0.418587 -0.801164
vt 0.486400 -0.640000
vt 0.453400 -0.621700
vt 0.453400 -0.640000
vt 0.437700 -0.559100
vt 0.432500 -0.557800
vt 0.430600 -0.581400
vt 0.475400 -0.559500
vt 0.481900 -0.582000
vt 0.480500 -0.558300
vt 0.467575 -0.545443
vt 0.466330 -0.560400
vt 0.439200 -0.544100
vt 0.445365 -0.545582
vt 0.459242 -0.609419
vt 0.471716 -0.542370
vt 0.456700 -0.539900
vt 0.456800 -0.534900
vt 0.446900 -0.537700
vt 0.446500 -0.560100
vt 0.476900 -0.606100
vt 0.469900 -0.603400
vt 0.486400 -0.621700
vt 0.482300 -0.611000
vt 0.435900 -0.582000
vt 0.445400 -0.582700
vt 0.467000 -0.582900
vt 0.476600 -0.582400
s 1
usemtl anger_mat.002
f 1/1/1 2/2/2 15/3/3
f 1/1/1 3/4/4 4/5/5
f 4/5/5 2/2/2 1/1/1
f 8/6/6 5/7/7 7/8/8
f 8/6/6 9/9/9 5/7/7
f 8/10/6 7/11/8 10/12/10
f 10/12/10 11/13/11 8/10/6
f 3/4/4 12/14/12 7/8/8
f 3/4/4 1/1/1 13/15/13
f 12/16/12 14/17/14 10/12/10
f 10/12/10 7/11/8 12/16/12
f 9/9/9 6/18/15 5/7/7
f 8/19/6 11/20/11 14/21/16
f 14/21/17 12/22/18 8/19/19
f 9/23/20 8/19/19 12/22/18
f 4/5/5 3/4/4 7/8/8
f 7/8/8 5/7/7 4/5/5
f 13/15/13 1/1/1 15/3/3
f 15/24/3 9/23/20 3/25/4
f 3/25/4 13/26/13 15/24/3
f 3/25/4 9/23/20 12/22/18
f 16/27/21 15/3/3 2/2/2
f 16/27/21 2/2/2 4/5/5
f 4/5/5 17/28/22 16/27/21
f 19/29/23 20/30/24 21/31/25
f 21/31/25 18/32/26 19/29/23
f 18/33/26 22/34/27 17/28/22
f 23/35/28 16/27/21 17/28/22
f 22/36/27 18/32/26 21/31/25
f 21/31/25 24/37/29 22/36/27
f 19/19/23 22/22/30 24/21/31
f 24/21/31 20/20/24 19/19/23
f 9/23/32 22/22/30 19/19/23
f 4/5/5 6/18/15 18/33/26
f 18/33/26 17/28/22 4/5/5
f 5/7/7 6/18/15 4/5/5
f 15/3/3 16/27/21 23/35/28
f 15/24/3 23/26/28 17/25/22
f 17/25/22 9/23/32 15/24/3
f 9/23/32 17/25/22 22/22/30
f 19/38/23 6/18/15 9/9/9
f 19/38/23 18/33/26 6/18/15
f 25/39/33 26/40/34 27/41/35
f 27/41/35 28/42/36 25/39/33
f 25/39/33 28/42/36 29/43/37
f 29/43/37 30/44/38 25/39/33
f 26/40/34 31/45/39 32/46/40
f 32/46/40 27/41/35 26/40/34
f 33/47/41 34/48/42 35/49/43
f 35/49/43 36/50/44 33/47/41
f 35/49/43 34/48/42 30/44/38
f 30/44/38 29/43/37 35/49/43
f 37/51/45 32/46/40 31/45/39
f 31/45/39 38/52/46 37/51/45
f 39/53/47 37/51/45 38/52/46
f 38/52/46 40/54/48 39/53/47
f 41/55/49 42/56/50 39/53/47
f 39/53/47 40/54/48 41/55/49
f 28/42/36 27/41/35 43/57/51
f 43/57/51 44/58/52 28/42/36
f 44/58/52 45/59/53 28/42/36
f 29/43/37 28/42/36 45/59/53
f 45/59/53 46/60/54 29/43/37
f 27/41/35 32/46/40 47/61/55
f 47/61/55 43/57/51 27/41/35
f 35/49/43 29/43/37 46/60/54
f 46/60/54 48/62/56 35/49/43
f 36/50/44 35/49/43 48/62/56
f 32/46/40 37/51/45 49/63/57
f 49/63/57 47/61/55 32/46/40
f 37/51/45 39/53/47 50/64/58
f 50/64/58 49/63/57 37/51/45
f 39/53/47 42/56/50 51/65/59
f 51/65/59 50/64/58 39/53/47
f 52/66/60 53/67/61 54/68/62
f 54/68/62 55/69/63 52/66/60
f 52/66/60 56/70/64 57/71/65
f 57/71/65 53/67/61 52/66/60
f 55/69/63 54/68/62 58/72/66
f 58/72/66 59/73/67 55/69/63
f 60/74/68 61/75/69 62/76/70
f 62/76/70 63/77/71 60/74/68
f 62/76/70 57/71/65 56/70/64
f 56/70/64 63/77/71 62/76/70
f 64/78/72 65/79/73 59/73/67
f 59/73/67 58/72/66 64/78/72
f 66/80/74 67/81/75 65/79/73
f 65/79/73 64/78/72 66/80/74
f 68/82/76 67/81/75 66/80/74
f 66/80/74 69/83/77 68/82/76
f 53/67/61 70/84/78 71/85/79
f 71/85/79 54/68/62 53/67/61
f 57/71/65 72/86/80 70/84/78
f 70/84/78 53/67/61 57/71/65
f 54/68/62 71/85/79 73/87/81
f 73/87/81 58/72/66 54/68/62
f 62/76/70 74/88/82 72/86/80
f 72/86/80 57/71/65 62/76/70
f 61/75/69 75/89/83 74/88/82
f 74/88/82 62/76/70 61/75/69
f 58/72/66 73/87/81 76/90/84
f 76/90/84 64/78/72 58/72/66
f 64/78/72 76/90/84 77/91/85
f 77/91/85 66/80/74 64/78/72
f 66/80/74 77/91/85 78/92/86
f 78/92/86 69/83/77 66/80/74
f 79/93/87 80/94/88 81/95/89
f 81/95/89 82/96/90 79/93/87
f 83/97/91 84/98/92 85/99/93
f 85/99/93 86/100/94 83/97/91
f 84/98/92 83/97/91 87/101/95
f 87/101/95 88/102/96 84/98/92
f 85/99/93 84/98/92 88/103/96
f 88/103/96 89/104/97 85/99/93
f 86/100/94 85/99/93 89/105/97
f 89/105/97 90/106/98 86/100/94
f 83/97/91 86/100/94 90/107/98
f 90/107/98 87/108/95 83/97/91
f 92/109/99 93/110/100 91/111/101
f 92/109/99 94/112/102 93/110/100
f 93/110/100 96/113/103 95/114/104
f 97/115/105 95/114/104 96/113/103
f 98/116/106 99/117/107 100/118/108
f 101/119/109 100/118/108 99/117/107
f 103/120/110 101/119/111 102/121/112
f 104/122/113 110/123/114 91/111/101
f 111/124/115 112/125/116 102/121/112
f 103/120/110 102/121/112 112/125/116
f 106/126/117 103/120/110 112/125/116
f 112/125/116 113/127/118 106/126/117
f 108/128/119 106/126/117 113/127/118
f 113/127/118 114/129/120 108/128/119
f 107/130/121 108/128/119 114/129/120
f 114/129/120 115/131/122 107/130/121
f 109/132/123 107/130/121 115/131/122
f 115/131/122 116/133/124 109/132/123
f 105/134/125 109/132/123 116/133/124
f 116/133/124 117/135/126 105/134/125
f 104/122/113 105/134/125 117/135/126
f 117/135/126 110/123/114 104/122/113
f 91/111/101 110/123/114 92/109/99
f 92/109/99 118/136/127 94/112/102
f 119/137/128 120/138/129 121/139/130
f 120/138/129 122/140/131 123/141/132
f 123/141/132 121/139/133 120/138/129
f 117/135/126 124/142/134 110/123/114
f 92/109/99 110/123/114 124/142/134
f 124/142/134 119/137/128 92/109/99
f 119/137/128 124/142/134 120/138/129
f 125/143/135 120/138/129 124/142/134
f 124/142/134 117/135/126 125/143/135
f 117/135/126 116/133/124 126/144/136
f 126/144/136 125/143/135 117/135/126
f 116/133/124 115/131/122 126/144/136
f 127/145/137 126/144/136 115/131/122
f 115/131/122 114/129/120 127/145/137
f 128/146/138 127/145/137 114/129/120
f 114/129/120 113/127/118 128/146/138
f 113/127/118 112/125/116 129/147/139
f 130/148/140 129/147/139 112/125/116
f 112/125/116 111/124/115 130/148/140
f 113/127/118 129/147/139 131/149/141
f 131/149/141 128/146/138 113/127/118
f 129/147/139 130/148/140 132/150/142
f 132/150/142 131/149/141 129/147/139
f 92/109/99 119/137/128 118/136/127
f 118/136/127 119/137/128 121/139/130
f 121/139/130 133/151/143 118/136/127
f 133/151/144 121/139/133 123/141/132
f 134/152/145 122/140/131 120/138/129
f 120/138/129 125/143/135 134/152/145
f 135/153/146 134/152/145 125/143/135
f 125/143/135 126/144/136 136/154/147
f 136/154/147 135/153/146 125/143/135
f 137/155/148 136/154/147 126/144/136
f 126/144/136 127/145/137 138/156/149
f 138/156/149 137/155/148 126/144/136
f 127/145/137 128/146/138 139/157/150
f 139/157/150 138/156/149 127/145/137
f 128/146/138 131/149/141 140/158/151
f 140/158/151 139/157/150 128/146/138
f 141/159/152 140/158/151 131/149/141
f 131/149/141 132/150/142 142/160/153
f 142/160/153 141/159/152 131/149/141
f 143/161/154 122/162/131 134/163/145
f 134/163/145 144/164/155 143/161/154
f 144/164/155 134/163/145 145/165/156
f 145/165/156 134/163/145 135/166/146
f 135/166/146 146/167/157 145/165/156
f 147/168/158 148/169/159 123/170/132
f 147/168/158 123/170/132 122/162/131
f 122/162/131 143/161/154 147/168/158
f 149/171/160 146/167/157 135/166/146
f 135/166/146 136/172/147 149/171/160
f 149/173/161 136/174/147 137/175/148
f 137/175/148 150/176/162 149/173/161
f 137/175/148 138/177/149 150/176/162
f 150/176/162 138/177/149 139/178/150
f 139/178/150 151/179/163 150/176/162
f 152/180/164 140/181/151 141/182/152
f 141/182/152 153/183/165 152/180/164
f 153/183/165 141/182/152 142/184/153
f 142/184/153 154/185/166 153/183/165
f 155/186/167 150/176/162 151/179/163
f 155/186/167 151/179/163 157/187/168
f 157/187/168 156/188/169 155/186/167
f 155/186/167 156/188/169 158/189/170
f 156/188/169 159/190/171 158/189/170
f 159/191/172 160/192/173 161/193/174
f 160/192/173 162/194/175 163/195/176
f 163/195/176 161/193/174 160/192/173
f 164/196/177 161/193/174 163/195/176
f 164/196/177 163/195/176 145/165/156
f 145/165/156 146/167/157 164/196/177
f 165/197/178 163/195/176 162/194/175
f 163/195/176 165/197/178 144/164/155
f 144/164/155 145/165/156 163/195/176
f 143/161/154 144/164/155 165/197/178
f 143/161/154 165/197/178 166/198/179
f 166/198/179 147/168/158 143/161/154
f 166/198/179 167/199/180 148/169/159
f 148/169/159 147/168/158 166/198/179
f 166/198/179 168/200/181 167/199/180
f 169/201/182 152/180/164 153/183/165
f 153/183/165 170/202/183 169/201/182
f 170/202/183 153/183/165 154/185/166
f 154/185/166 171/203/184 170/202/183
f 170/204/183 171/205/184 172/206/185
f 172/206/185 173/207/186 170/204/183
f 173/207/186 172/206/185 174/208/187
f 174/208/187 175/209/188 173/207/186
f 173/207/186 169/210/182 170/204/183
f 173/207/186 175/209/188 176/211/189
f 176/211/189 177/212/190 173/207/186
f 169/210/182 173/207/186 177/212/190
f 177/212/190 157/213/168 169/210/182
f 151/179/163 139/178/150 140/181/151
f 140/181/151 152/180/164 151/179/163
f 157/187/168 151/179/163 152/180/164
f 152/180/164 169/201/182 157/187/168
f 178/214/191 179/215/192 180/216/193
f 180/216/193 168/217/181 178/214/191
f 181/218/194 180/216/193 179/215/192
f 179/215/192 182/219/195 181/218/194
f 183/220/196 181/218/194 182/219/195
f 182/219/195 160/221/197 183/220/196
f 185/222/198 186/223/199 184/224/200
f 186/223/199 185/222/198 187/225/201
f 176/211/189 186/223/199 187/225/201
f 187/225/201 177/212/190 176/211/189
f 160/226/173 182/227/202 162/228/175
f 160/226/197 159/229/203 185/230/198
f 187/225/201 185/222/198 159/231/203
f 159/231/203 156/232/169 187/225/201
f 156/232/169 157/213/168 177/212/190
f 177/212/190 187/225/201 156/232/169
f 165/233/178 162/228/175 182/227/202
f 182/227/202 179/234/204 165/233/178
f 166/235/179 165/233/178 179/234/204
f 179/234/204 178/236/191 166/235/179
f 175/209/188 174/208/187 188/237/205
f 188/237/205 189/238/206 175/209/188
f 176/211/189 175/209/188 189/238/206
f 189/238/206 190/239/207 176/211/189
f 168/217/181 180/216/193 191/240/208
f 180/216/193 181/218/194 192/241/209
f 193/242/210 192/241/209 181/218/194
f 183/220/196 193/242/210 181/218/194
f 184/224/200 186/223/199 194/243/211
f 194/243/211 183/244/196 184/224/200
f 186/223/199 176/211/189 190/239/207
f 190/239/207 194/243/211 186/223/199
f 167/245/212 168/217/181 191/240/208
f 191/240/208 195/246/213 167/245/212
f 183/220/196 185/247/198 184/248/200
f 183/220/196 160/221/197 185/247/198
f 149/249/214 201/250/215 197/251/216
f 198/252/217 196/253/218 146/254/157
f 146/254/157 149/249/160 198/252/217
f 164/255/177 146/254/157 196/253/218
f 159/256/171 199/257/219 158/258/170
f 199/257/219 200/259/220 155/260/167
f 155/260/167 158/258/170 199/257/219
f 200/261/220 201/250/221 150/262/162
f 150/262/162 155/263/167 200/261/220
f 149/249/222 150/262/162 201/250/221
f 178/236/191 168/264/181 166/235/179
f 191/240/208 180/216/193 192/241/209
f 202/265/223 203/266/224 204/267/225
f 202/265/223 205/268/226 206/269/227
f 206/269/227 207/270/228 208/271/229
f 202/265/223 206/269/227 208/271/229
f 208/271/229 209/272/230 202/265/223
f 203/266/224 202/265/223 209/272/230
f 205/268/226 202/265/223 211/273/231
f 204/267/225 211/273/231 202/265/223
f 211/273/231 192/274/209 193/275/210
f 193/275/210 212/276/232 211/273/231
f 212/276/232 193/275/210 213/277/233
f 213/278/233 183/279/196 194/280/234
f 194/280/234 215/281/235 213/278/233
f 191/282/208 210/283/236 214/284/237
f 211/273/231 204/267/225 192/274/209
f 191/282/208 192/274/209 204/267/225
f 204/267/225 203/266/224 210/283/236
f 210/283/236 191/282/208 204/267/225
f 205/268/226 211/273/231 212/276/232
f 216/285/238 215/281/235 194/280/234
f 194/280/234 190/286/239 217/287/240
f 217/287/240 216/285/238 194/280/234
f 190/286/239 189/288/241 218/289/242
f 218/289/242 217/287/240 190/286/239
f 219/290/243 220/291/244 188/292/245
f 189/288/241 188/292/245 220/291/244
f 220/291/244 218/289/242 189/288/241
f 221/293/246 222/294/247 209/295/248
f 207/296/228 221/293/246 208/297/229
f 209/295/248 208/297/229 221/293/246
f 222/294/247 221/293/246 223/298/249
f 223/298/249 224/299/250 222/294/247
f 221/293/246 207/296/228 225/300/251
f 225/300/251 223/298/249 221/293/246
f 223/298/249 225/300/251 226/301/252
f 226/301/252 224/299/250 223/298/249
f 191/282/208 214/284/237 195/302/213
f 213/277/233 193/275/210 183/303/196
f 206/269/227 205/268/226 227/304/253
f 392/305/254 229/306/255 230/307/256
f 227/304/253 229/306/255 228/308/257
f 232/309/258 212/276/232 213/277/233
f 213/277/233 231/310/259 232/309/258
f 232/309/258 231/310/259 233/311/260
f 233/311/260 234/312/261 232/309/258
f 235/313/262 236/314/263 237/315/264
f 235/313/262 234/312/261 233/311/260
f 233/311/260 236/314/263 235/313/262
f 239/316/265 240/317/266 238/318/267
f 237/315/264 241/319/268 235/313/262
f 242/320/269 403/321/270 238/318/267
f 238/318/267 240/317/266 242/320/269
f 241/319/268 243/322/271 239/316/265
f 241/319/268 237/315/264 243/322/271
f 236/314/263 244/323/272 237/315/264
f 243/322/271 245/324/273 239/316/265
f 245/324/273 246/325/274 240/317/266
f 246/325/274 242/320/269 240/317/266
f 240/317/266 239/316/265 245/324/273
f 243/322/271 237/315/264 244/323/272
f 233/311/260 247/326/275 236/314/263
f 215/327/235 231/310/259 213/277/233
f 247/328/275 233/329/260 248/330/276
f 231/331/259 248/330/276 233/329/260
f 231/331/259 215/281/235 248/330/276
f 247/328/275 248/330/276 249/332/277
f 229/306/255 227/304/253 250/333/278
f 250/333/278 227/304/253 251/334/279
f 253/335/280 229/306/255 250/333/278
f 230/307/256 229/306/255 255/336/281
f 229/306/255 392/305/254 228/308/257
f 229/306/255 253/335/280 255/336/281
f 227/304/253 205/268/226 252/337/282
f 234/312/261 257/338/283 232/309/258
f 253/335/280 254/339/284 255/336/281
f 258/340/285 259/341/286 260/342/287
f 234/312/261 264/343/288 263/344/289
f 239/316/265 238/318/267 260/342/287
f 260/342/287 261/345/290 239/316/265
f 241/319/268 239/316/265 261/345/290
f 261/345/290 262/346/291 241/319/268
f 264/343/288 262/346/291 263/344/289
f 262/346/291 264/343/288 235/313/262
f 235/313/262 241/319/268 262/346/291
f 235/313/262 264/343/288 234/312/261
f 259/341/286 265/347/292 260/342/287
f 265/347/292 266/348/293 261/345/290
f 261/345/290 260/342/287 265/347/292
f 262/346/291 261/345/290 266/348/293
f 263/344/289 262/346/291 266/348/293
f 263/344/289 267/349/294 234/312/261
f 267/349/294 268/350/295 257/338/283
f 257/338/283 234/312/261 267/349/294
f 268/350/295 256/351/296 257/338/283
f 238/318/267 403/321/270 269/352/297
f 269/352/297 260/342/287 238/318/267
f 258/340/285 260/342/287 269/352/297
f 269/352/297 255/336/281 254/339/284
f 254/339/284 258/340/285 269/352/297
f 205/268/226 256/351/296 252/337/282
f 257/338/283 256/351/296 205/268/226
f 212/276/232 257/338/283 205/268/226
f 232/309/258 257/338/283 212/276/232
f 249/332/277 270/353/298 247/328/275
f 216/285/238 249/332/277 248/330/276
f 248/330/276 215/281/235 216/285/238
f 271/354/299 272/355/300 273/356/301
f 273/356/301 274/357/302 271/354/299
f 272/355/300 275/358/303 276/359/304
f 276/359/304 273/356/301 272/355/300
f 275/358/303 220/291/244 219/290/243
f 219/290/243 276/359/304 275/358/303
f 217/287/240 277/360/305 216/285/238
f 249/332/277 216/285/238 277/360/305
f 275/358/303 218/289/242 220/291/244
f 277/360/305 217/287/240 218/289/242
f 218/289/242 275/358/303 277/360/305
f 249/332/277 277/360/305 275/358/303
f 275/358/303 272/355/300 249/332/277
f 270/353/298 249/332/277 272/355/300
f 272/355/300 271/354/299 270/353/298
f 246/325/274 245/324/273 278/361/306
f 278/361/306 245/324/273 243/322/271
f 243/322/271 279/362/307 278/361/306
f 279/362/307 243/322/271 244/323/272
f 280/363/308 279/362/307 244/323/272
f 280/363/308 244/323/272 247/326/275
f 281/364/309 280/363/308 247/328/275
f 270/353/298 281/364/309 247/328/275
f 281/364/309 282/365/310 283/366/311
f 283/366/311 280/363/308 281/364/309
f 439/367/312 282/365/310 271/354/299
f 271/354/299 274/357/302 439/367/312
f 270/353/298 271/354/299 282/365/310
f 282/365/310 281/364/309 270/353/298
f 283/366/311 246/325/274 278/361/306
f 283/366/311 278/361/306 279/362/307
f 283/366/311 279/362/307 280/363/308
f 253/335/280 284/368/313 254/339/284
f 265/347/292 259/341/286 258/340/285
f 258/340/285 254/339/284 284/368/313
f 250/333/278 251/334/279 285/369/314
f 251/334/279 252/337/282 285/369/314
f 253/335/280 250/333/278 285/369/314
f 284/368/313 253/335/280 285/369/314
f 252/337/282 256/351/296 285/369/314
f 256/351/296 268/350/295 285/369/314
f 268/350/295 267/349/294 285/369/314
f 265/347/292 258/340/285 285/369/314
f 266/348/293 265/347/292 285/369/314
f 263/344/289 266/348/293 285/369/314
f 267/349/294 263/344/289 285/369/314
f 258/340/285 284/368/313 285/369/314
f 207/270/228 206/269/227 228/308/257
f 227/304/253 228/308/257 206/269/227
f 252/337/282 251/334/279 227/304/253
f 228/370/257 392/371/254 286/372/315
f 207/296/228 228/370/257 286/372/315
f 287/373/316 288/374/317 286/372/315
f 207/296/228 286/372/315 288/374/317
f 288/374/317 225/300/251 207/296/228
f 288/374/317 287/373/316 226/301/252
f 225/300/251 288/374/317 226/301/252
f 283/366/311 282/365/310 439/367/312
f 247/326/275 244/323/272 236/314/263
f 289/111/318 290/375/319 291/376/320
f 290/375/319 94/112/102 291/376/320
f 93/110/100 290/375/319 96/113/103
f 290/375/319 93/110/100 94/112/102
f 102/121/112 101/119/111 292/120/321
f 289/111/318 299/123/322 293/122/323
f 111/124/115 102/121/112 292/120/321
f 292/120/321 300/377/324 111/124/115
f 300/377/324 292/120/321 295/126/325
f 297/128/326 301/129/327 300/377/324
f 300/377/324 295/126/325 297/128/326
f 296/130/328 302/131/329 301/129/327
f 301/129/327 297/128/326 296/130/328
f 298/132/330 303/133/331 302/131/329
f 302/131/329 296/130/328 298/132/330
f 294/134/332 304/378/333 303/133/331
f 303/133/331 298/132/330 294/134/332
f 293/122/323 299/123/322 304/378/333
f 304/378/333 294/134/332 293/122/323
f 291/376/320 299/123/322 289/111/318
f 94/112/102 118/136/127 291/376/320
f 291/376/320 118/136/127 133/151/143
f 133/151/143 305/379/334 291/376/320
f 305/379/334 133/151/144 306/380/335
f 306/380/335 307/140/336 305/379/334
f 299/123/322 308/142/337 304/378/333
f 308/142/337 299/123/322 291/376/320
f 305/379/334 308/142/337 291/376/320
f 308/142/337 305/379/334 309/143/338
f 309/143/338 304/378/333 308/142/337
f 304/378/333 309/143/338 310/144/339
f 310/144/339 303/133/331 304/378/333
f 310/144/339 302/131/329 303/133/331
f 311/381/340 300/377/324 301/129/327
f 312/145/341 301/129/327 302/131/329
f 302/131/329 310/144/339 312/145/341
f 313/146/342 311/381/340 301/129/327
f 301/129/327 312/145/341 313/146/342
f 300/377/324 311/381/340 130/148/140
f 130/148/140 111/124/115 300/377/324
f 311/381/340 313/146/342 314/149/343
f 314/149/343 130/148/140 311/381/340
f 130/148/140 314/149/343 132/150/142
f 133/151/144 123/141/132 306/380/335
f 305/379/334 307/140/336 315/152/344
f 315/152/344 309/143/338 305/379/334
f 309/143/338 315/152/344 316/153/345
f 309/143/338 316/153/345 317/154/346
f 317/154/346 310/144/339 309/143/338
f 310/144/339 317/154/346 318/155/347
f 310/144/339 318/155/347 319/156/348
f 319/156/348 312/145/341 310/144/339
f 312/145/341 319/156/348 320/157/349
f 320/157/349 313/146/342 312/145/341
f 313/146/342 320/157/349 321/158/350
f 321/158/350 314/149/343 313/146/342
f 314/149/343 321/158/350 142/160/153
f 142/160/153 132/150/142 314/149/343
f 322/161/351 323/164/352 315/163/344
f 315/163/344 307/162/336 322/161/351
f 324/165/353 315/163/344 323/164/352
f 316/166/345 315/163/344 324/165/353
f 324/165/353 325/167/354 316/166/345
f 148/169/159 306/382/335 123/170/132
f 148/169/159 322/161/351 307/162/336
f 307/162/336 306/382/335 148/169/159
f 326/171/355 317/172/346 316/166/345
f 316/166/345 325/167/354 326/171/355
f 326/173/356 327/176/357 318/175/347
f 318/175/347 317/174/346 326/173/356
f 327/176/357 319/177/348 318/175/347
f 327/176/357 328/383/358 320/178/349
f 320/178/349 319/177/348 327/176/357
f 321/181/350 329/384/359 142/184/153
f 330/180/360 331/183/361 329/384/359
f 329/384/359 321/181/350 330/180/360
f 331/183/361 154/185/166 142/184/153
f 142/184/153 329/384/359 331/183/361
f 328/383/358 327/176/357 332/186/362
f 332/186/362 333/188/363 334/187/364
f 334/187/364 328/383/358 332/186/362
f 335/189/365 333/188/363 332/186/362
f 335/189/365 336/190/366 333/188/363
f 337/193/367 338/192/368 336/191/369
f 338/192/368 337/193/367 339/195/370
f 339/195/370 340/194/371 338/192/368
f 339/195/370 337/193/367 341/196/372
f 341/196/372 325/167/354 324/165/353
f 324/165/353 339/195/370 341/196/372
f 340/194/371 339/195/370 342/197/373
f 323/164/352 342/197/373 339/195/370
f 339/195/370 324/165/353 323/164/352
f 342/197/373 323/164/352 322/161/351
f 322/161/351 148/169/159 343/198/374
f 343/198/374 342/197/373 322/161/351
f 148/169/159 167/199/180 343/198/374
f 343/198/374 167/199/180 344/200/375
f 345/201/376 346/202/377 331/183/361
f 331/183/361 330/180/360 345/201/376
f 346/202/377 171/203/184 154/185/166
f 154/185/166 331/183/361 346/202/377
f 346/204/377 347/207/378 172/206/185
f 172/206/185 171/205/184 346/204/377
f 347/207/378 348/209/379 174/208/187
f 174/208/187 172/206/185 347/207/378
f 346/204/377 345/210/376 347/207/378
f 347/207/378 349/212/380 350/211/381
f 350/211/381 348/209/379 347/207/378
f 345/210/376 334/213/364 349/212/380
f 349/212/380 347/207/378 345/210/376
f 328/383/358 330/180/360 321/181/350
f 321/181/350 320/178/349 328/383/358
f 334/187/364 345/201/376 330/180/360
f 330/180/360 328/383/358 334/187/364
f 351/214/382 344/217/375 352/216/383
f 352/216/383 353/215/384 351/214/382
f 353/215/384 352/216/383 354/218/385
f 354/218/385 355/219/386 353/215/384
f 356/220/387 338/221/388 355/219/386
f 355/219/386 354/218/385 356/220/387
f 357/224/389 358/223/390 359/222/391
f 360/225/392 359/222/391 358/223/390
f 350/211/381 349/212/380 360/225/392
f 360/225/392 358/223/390 350/211/381
f 340/228/371 355/227/393 338/226/368
f 359/230/391 336/229/394 338/226/388
f 360/225/392 333/232/363 336/231/394
f 336/231/394 359/222/391 360/225/392
f 333/232/363 360/225/392 349/212/380
f 349/212/380 334/213/364 333/232/363
f 342/233/373 353/234/395 355/227/393
f 355/227/393 340/228/371 342/233/373
f 343/235/374 351/236/382 353/234/395
f 353/234/395 342/233/373 343/235/374
f 348/209/379 361/385/396 188/237/205
f 188/237/205 174/208/187 348/209/379
f 350/211/381 362/239/397 361/385/396
f 361/385/396 348/209/379 350/211/381
f 344/217/375 363/386/398 352/216/383
f 364/241/399 354/218/385 352/216/383
f 354/218/385 364/241/399 365/387/400
f 354/218/385 365/387/400 356/220/387
f 357/224/389 356/244/387 366/243/401
f 366/243/401 358/223/390 357/224/389
f 358/223/390 366/243/401 362/239/397
f 362/239/397 350/211/381 358/223/390
f 344/217/375 195/246/213 363/386/398
f 195/246/213 344/217/375 167/245/212
f 356/220/387 357/248/389 359/247/391
f 356/220/387 359/247/391 338/221/388
f 367/251/402 371/250/403 326/249/355
f 326/249/355 368/252/404 367/251/402
f 368/252/404 326/249/355 325/254/354
f 335/258/365 369/257/405 336/256/406
f 369/257/405 335/258/365 332/260/362
f 332/260/362 370/259/407 369/257/405
f 370/261/407 332/263/362 327/262/357
f 327/262/357 371/250/403 370/261/407
f 371/250/403 327/262/357 326/249/355
f 351/236/382 343/235/374 344/264/375
f 363/386/398 364/241/399 352/216/383
f 375/269/408 374/268/409 372/388/410
f 377/271/411 376/270/412 375/269/408
f 377/271/411 375/269/408 372/388/410
f 372/388/410 378/389/413 377/271/411
f 378/389/413 372/388/410 373/390/414
f 379/273/415 372/388/410 374/268/409
f 195/302/213 214/284/237 363/391/398
f 365/275/400 364/274/399 379/273/415
f 379/273/415 381/276/416 365/275/400
f 380/277/417 365/275/400 381/276/416
f 380/278/417 382/281/418 366/280/419
f 366/280/419 356/279/387 380/278/417
f 373/390/414 210/283/236 203/266/224
f 364/274/399 372/388/410 379/273/415
f 372/388/410 364/274/399 363/391/398
f 363/391/398 373/390/414 372/388/410
f 373/390/414 363/391/398 214/284/237
f 373/390/414 214/284/237 210/283/236
f 381/276/416 379/273/415 374/268/409
f 366/280/419 382/281/418 383/285/420
f 366/280/419 383/285/420 384/287/421
f 384/287/421 362/286/422 366/280/419
f 362/286/422 384/287/421 385/289/423
f 385/289/423 361/392/424 362/286/422
f 361/392/424 386/291/425 219/290/243
f 219/290/243 188/292/245 361/392/424
f 361/392/424 385/289/423 386/291/425
f 378/393/426 222/294/247 387/293/427
f 377/297/411 387/293/427 376/296/412
f 378/393/426 387/293/427 377/297/411
f 222/294/247 224/299/250 388/298/428
f 388/298/428 387/293/427 222/294/247
f 387/293/427 388/298/428 389/300/429
f 389/300/429 376/296/412 387/293/427
f 388/298/428 226/301/252 389/300/429
f 209/272/230 378/389/413 373/390/414
f 373/390/414 203/266/224 209/272/230
f 378/393/426 209/295/248 222/294/247
f 226/301/252 388/298/428 224/299/250
f 380/277/417 356/303/387 365/275/400
f 390/304/430 374/268/409 375/269/408
f 391/394/431 392/305/254 390/304/430
f 394/395/432 393/310/433 380/277/417
f 380/277/417 381/276/416 394/395/432
f 394/395/432 395/312/434 396/311/435
f 396/311/435 393/310/433 394/395/432
f 398/315/436 399/314/437 397/313/438
f 397/313/438 399/314/437 396/311/435
f 396/311/435 395/312/434 397/313/438
f 397/313/438 402/319/439 398/315/436
f 242/320/269 401/396/440 400/397/441
f 400/397/441 403/321/270 242/320/269
f 401/396/440 404/322/442 402/319/439
f 402/319/439 400/397/441 401/396/440
f 404/322/442 398/315/436 402/319/439
f 399/314/437 398/315/436 405/398/443
f 401/396/440 406/324/444 404/322/442
f 242/320/269 407/399/445 406/324/444
f 406/324/444 401/396/440 242/320/269
f 405/398/443 398/315/436 404/322/442
f 399/314/437 408/326/446 396/311/435
f 380/277/417 393/310/433 382/400/418
f 410/330/447 396/329/435 408/401/446
f 408/401/446 409/402/448 410/330/447
f 396/329/435 410/330/447 393/331/433
f 410/330/447 382/281/418 393/331/433
f 411/332/449 410/330/447 409/402/448
f 412/403/450 390/304/430 413/404/451
f 414/405/452 390/304/430 412/403/450
f 412/403/450 413/404/451 416/406/453
f 416/406/453 413/404/451 230/307/256
f 230/307/256 413/404/451 392/305/254
f 392/305/254 413/404/451 390/304/430
f 415/407/454 374/268/409 390/304/430
f 394/395/432 419/338/455 395/312/434
f 255/336/281 417/339/456 416/406/453
f 416/406/453 230/307/256 255/336/281
f 421/342/457 422/341/458 420/340/459
f 425/344/460 426/343/461 395/312/434
f 400/397/441 423/345/462 421/342/457
f 402/319/439 424/346/463 423/345/462
f 423/345/462 400/397/441 402/319/439
f 425/344/460 424/346/463 426/343/461
f 424/346/463 402/319/439 397/313/438
f 397/313/438 426/343/461 424/346/463
f 395/312/434 426/343/461 397/313/438
f 416/406/453 427/408/464 412/403/450
f 427/408/464 416/406/453 417/339/456
f 421/342/457 428/347/465 422/341/458
f 428/347/465 421/342/457 423/345/462
f 423/345/462 429/348/466 428/347/465
f 429/348/466 423/345/462 424/346/463
f 429/348/466 424/346/463 425/344/460
f 395/312/434 430/349/467 425/344/460
f 430/349/467 395/312/434 419/338/455
f 419/338/455 431/350/468 430/349/467
f 419/338/455 418/351/469 431/350/468
f 421/342/457 403/321/270 400/397/441
f 403/321/270 421/342/457 269/352/297
f 269/352/297 421/342/457 420/340/459
f 242/320/269 246/325/274 407/399/445
f 269/352/297 420/340/459 417/339/456
f 417/339/456 255/336/281 269/352/297
f 415/407/454 418/351/469 374/268/409
f 374/268/409 418/351/469 419/338/455
f 374/268/409 419/338/455 381/276/416
f 381/276/416 419/338/455 394/395/432
f 409/402/448 432/409/470 411/332/449
f 410/330/447 411/332/449 383/285/420
f 383/285/420 382/281/418 410/330/447
f 273/356/301 433/355/471 274/357/302
f 433/355/471 273/356/301 276/359/304
f 219/290/243 386/291/425 276/359/304
f 383/285/420 434/360/472 384/287/421
f 411/332/449 434/360/472 383/285/420
f 435/410/473 276/359/304 386/291/425
f 386/291/425 385/289/423 435/410/473
f 276/359/304 435/410/473 433/355/471
f 434/360/472 435/410/473 385/289/423
f 385/289/423 384/287/421 434/360/472
f 411/332/449 433/355/471 435/410/473
f 435/410/473 434/360/472 411/332/449
f 432/409/470 274/357/302 433/355/471
f 433/355/471 411/332/449 432/409/470
f 436/361/474 406/324/444 407/399/445
f 436/361/474 437/362/475 404/322/442
f 404/322/442 406/324/444 436/361/474
f 437/362/475 405/398/443 404/322/442
f 408/401/446 405/398/443 409/402/448
f 409/402/448 405/398/443 438/411/476
f 438/411/476 439/367/312 409/402/448
f 439/367/312 274/357/302 432/409/470
f 432/409/470 409/402/448 439/367/312
f 436/361/474 407/399/445 438/411/476
f 437/362/475 436/361/474 438/411/476
f 405/398/443 437/362/475 438/411/476
f 417/339/456 440/368/477 427/408/464
f 420/340/459 422/341/458 428/347/465
f 440/368/477 417/339/456 420/340/459
f 412/403/450 441/369/478 414/405/452
f 414/405/452 441/369/478 415/407/454
f 427/408/464 441/369/478 412/403/450
f 440/368/477 441/369/478 427/408/464
f 415/407/454 441/369/478 418/351/469
f 418/351/469 441/369/478 431/350/468
f 431/350/468 441/369/478 430/349/467
f 428/347/465 441/369/478 420/340/459
f 429/348/466 441/369/478 428/347/465
f 425/344/460 441/369/478 429/348/466
f 430/349/467 441/369/478 425/344/460
f 420/340/459 441/369/478 440/368/477
f 391/394/431 375/269/408 376/270/412
f 375/269/408 391/394/431 390/304/430
f 390/304/430 414/405/452 415/407/454
f 392/371/254 442/412/479 286/372/315
f 391/370/431 442/412/479 392/371/254
f 442/412/479 391/370/431 376/296/412
f 442/412/479 443/374/480 287/373/316
f 287/373/316 286/372/315 442/412/479
f 376/296/412 389/300/429 443/374/480
f 443/374/480 442/412/479 376/296/412
f 443/374/480 226/301/252 287/373/316
f 389/300/429 226/301/252 443/374/480
f 438/411/476 283/366/311 439/367/312
f 408/326/446 399/314/437 405/398/443
f 246/325/274 283/366/311 438/411/476
f 438/411/476 407/399/445 246/325/274
f 445/413/481 446/414/482 444/415/483
f 447/416/484 445/413/481 444/415/483
f 447/416/484 448/417/485 449/418/486
f 450/419/487 449/418/486 448/417/485
f 448/417/485 451/420/488 452/421/489
f 452/421/489 450/419/487 448/417/485
f 451/420/488 453/422/490 454/423/491
f 454/423/491 452/421/489 451/420/488
f 455/424/492 454/423/491 453/422/490
f 453/422/490 456/425/493 457/426/494
f 457/426/494 455/424/492 453/422/490
f 458/427/495 457/426/494 456/425/493
f 456/425/493 459/428/496 460/429/497
f 460/429/497 458/427/495 456/425/493
f 461/430/498 460/429/497 459/428/496
f 459/428/496 462/431/499 463/432/500
f 463/432/500 461/430/498 459/428/496
f 464/433/501 463/432/500 462/431/499
f 462/431/499 465/434/502 466/435/503
f 466/435/503 464/433/501 462/431/499
f 467/436/504 466/435/503 465/434/502
f 465/434/502 468/437/505 469/438/506
f 469/438/506 467/436/504 465/434/502
f 470/439/507 469/438/506 468/437/505
f 468/437/505 444/415/483 446/414/482
f 446/414/482 470/439/507 468/437/505
f 445/413/481 447/416/484 471/440/508
f 449/418/486 471/440/508 447/416/484
f 446/414/482 445/413/481 472/441/509
f 472/441/509 473/442/510 446/414/482
f 445/413/481 471/440/508 472/441/509
f 471/440/508 449/418/486 474/443/511
f 474/443/511 472/441/509 471/440/508
f 449/418/486 450/419/487 474/443/511
f 450/419/487 452/421/489 475/444/512
f 475/444/512 474/443/511 450/419/487
f 452/421/489 454/423/491 475/444/512
f 454/423/491 455/424/492 476/445/513
f 476/445/513 475/444/512 454/423/491
f 455/424/492 457/426/494 476/445/513
f 457/426/494 458/427/495 477/446/514
f 477/446/514 476/445/513 457/426/494
f 458/427/495 460/429/497 477/446/514
f 460/429/497 461/430/498 478/447/515
f 478/447/515 477/446/514 460/429/497
f 461/430/498 463/432/500 478/447/515
f 463/432/500 464/433/501 479/448/516
f 479/448/516 478/447/515 463/432/500
f 464/433/501 466/435/503 479/448/516
f 466/435/503 467/436/504 480/449/517
f 480/449/517 479/448/516 466/435/503
f 467/436/504 469/438/506 480/449/517
f 469/438/506 470/439/507 473/442/510
f 473/442/510 480/449/517 469/438/506
f 470/439/507 446/414/482 473/442/510
f 473/442/510 472/441/509 481/450/518
f 481/450/518 482/451/519 473/442/510
f 472/441/509 474/443/511 481/450/518
f 474/443/511 475/444/512 483/452/520
f 483/452/520 481/450/518 474/443/511
f 475/444/512 476/445/513 483/452/520
f 476/445/513 477/446/514 484/453/521
f 484/453/521 483/452/520 476/445/513
f 477/446/514 478/447/515 484/453/521
f 478/447/515 479/448/516 485/454/522
f 485/454/522 484/453/521 478/447/515
f 479/448/516 480/449/517 485/454/522
f 480/449/517 473/442/510 482/451/519
f 482/451/519 485/454/522 480/449/517
f 482/451/519 481/450/518 486/455/523
f 481/450/518 483/452/520 486/455/523
f 483/452/520 484/453/521 486/455/523
f 484/453/521 485/454/522 486/455/523
f 485/454/522 482/451/519 486/455/523
f 487/456/524 488/457/525 489/458/526
f 487/456/524 489/458/526 490/459/527
f 491/460/528 492/461/529 490/459/527
f 492/461/529 491/460/528 493/462/530
f 492/461/529 493/462/530 494/463/531
f 494/463/531 495/464/532 492/461/529
f 495/464/532 494/463/531 496/465/533
f 496/465/533 497/466/534 495/464/532
f 497/466/534 496/465/533 498/467/535
f 497/466/534 498/467/535 499/468/536
f 499/468/536 500/469/537 497/466/534
f 500/469/537 499/468/536 501/470/538
f 500/469/537 501/470/538 502/471/539
f 502/471/539 503/472/540 500/469/537
f 503/472/540 502/471/539 504/473/541
f 503/472/540 504/473/541 505/474/542
f 505/474/542 506/475/543 503/472/540
f 506/475/543 505/474/542 507/476/544
f 506/475/543 507/476/544 508/477/545
f 508/477/545 509/478/546 506/475/543
f 509/478/546 508/477/545 510/479/547
f 509/478/546 510/479/547 511/480/548
f 511/480/548 512/481/549 509/478/546
f 512/481/549 511/480/548 513/482/550
f 512/481/549 513/482/550 488/457/525
f 488/457/525 487/456/524 512/481/549
f 514/483/551 490/459/527 489/458/526
f 490/459/527 514/483/551 491/460/528
f 488/457/525 515/484/552 516/485/553
f 516/485/553 489/458/526 488/457/525
f 516/485/553 514/483/551 489/458/526
f 514/483/551 516/485/553 517/486/554
f 517/486/554 491/460/528 514/483/551
f 517/486/554 493/462/530 491/460/528
f 493/462/530 517/486/554 518/487/555
f 518/487/555 494/463/531 493/462/530
f 518/487/555 496/465/533 494/463/531
f 496/465/533 518/487/555 519/488/556
f 519/488/556 498/467/535 496/465/533
f 519/488/556 499/468/536 498/467/535
f 499/468/536 519/488/556 520/489/557
f 520/489/557 501/470/538 499/468/536
f 520/489/557 502/471/539 501/470/538
f 502/471/539 520/489/557 521/490/558
f 521/490/558 504/473/541 502/471/539
f 521/490/558 505/474/542 504/473/541
f 505/474/542 521/490/558 522/491/559
f 522/491/559 507/476/544 505/474/542
f 522/491/559 508/477/545 507/476/544
f 508/477/545 522/491/559 523/492/560
f 523/492/560 510/479/547 508/477/545
f 523/492/560 511/480/548 510/479/547
f 511/480/548 523/492/560 515/484/552
f 515/484/552 513/482/550 511/480/548
f 515/484/552 488/457/525 513/482/550
f 515/484/552 524/493/561 525/494/562
f 525/494/562 516/485/553 515/484/552
f 525/494/562 517/486/554 516/485/553
f 517/486/554 525/494/562 526/495/563
f 526/495/563 518/487/555 517/486/554
f 526/495/563 519/488/556 518/487/555
f 519/488/556 526/495/563 527/496/564
f 527/496/564 520/489/557 519/488/556
f 527/496/564 521/490/558 520/489/557
f 521/490/558 527/496/564 528/497/565
f 528/497/565 522/491/559 521/490/558
f 528/497/565 523/492/560 522/491/559
f 523/492/560 528/497/565 524/493/561
f 524/493/561 515/484/552 523/492/560
f 524/493/561 529/455/566 525/494/562
f 525/494/562 529/455/566 526/495/563
f 526/495/563 529/455/566 527/496/564
f 527/496/564 529/455/566 528/497/565
f 528/497/565 529/455/566 524/493/561
f 538/498/567 535/499/568 534/500/569
f 536/501/570 537/502/571 538/503/572
f 532/504/573 534/505/574 535/506/568
f 531/507/575 533/508/576 532/504/573
f 539/509/577 537/502/571 536/501/570
f 536/501/570 540/510/578 539/509/577
f 535/499/568 538/498/567 530/511/579
f 532/504/573 535/506/568 530/512/579
f 530/512/579 531/507/575 532/504/573
f 541/513/580 542/514/581 543/515/582
f 543/515/582 540/510/578 541/513/580
f 533/508/576 541/513/580 540/510/578
f 540/510/578 544/516/583 533/508/576
f 530/511/579 543/517/584 542/518/581
f 531/507/575 530/512/579 542/514/581
f 542/514/581 541/513/580 531/507/575
f 533/508/576 531/507/575 541/513/580
f 543/517/584 530/511/579 537/519/585
f 537/519/585 539/520/586 543/517/584
f 540/510/578 543/515/582 539/509/577
f 538/498/567 537/519/585 530/511/579
f 544/516/583 540/510/578 536/501/570
f 538/503/572 545/521/587 536/501/570
f 546/522/588 544/516/583 536/501/570
f 536/501/570 545/521/587 546/522/588
f 547/523/589 533/508/576 544/516/583
f 544/516/583 546/522/588 547/523/589
f 532/504/573 533/508/576 547/523/589
f 547/523/589 548/524/590 532/504/573
f 532/504/573 548/524/590 534/505/591
