# Blender 4.3.2
# www.blender.org
mtllib cuerpo_Tristeza.mtl
o cuerpo_T
v -0.027240 17.096155 7.371848
v 0.216360 16.285995 7.572909
v 0.233749 16.858007 7.338390
v 0.771482 15.198658 7.813435
v 2.393218 14.736479 7.935721
v 2.681299 14.295869 7.824749
v 4.305324 14.483872 7.582456
v 4.123205 14.840813 7.682899
v 5.632410 15.341111 7.118149
v 5.297761 15.560215 7.063922
v 6.025822 16.844532 6.494759
v 5.816360 16.944761 6.808848
v 5.405664 19.187376 6.422471
v 5.000431 19.152174 6.502476
v 3.318770 20.262110 6.586848
v 3.317115 19.952513 6.631197
v 1.593700 20.062962 6.779498
v 1.701155 19.735205 6.608478
v 0.507083 19.223307 6.958358
v 0.593977 18.735785 6.911306
v 0.066092 16.975241 6.993889
v -0.072515 16.447809 7.186948
v 0.868584 15.435658 7.405031
v 1.015735 14.932173 7.509458
v -0.698593 16.550547 7.162913
v 3.420567 14.556010 7.549637
v 5.481710 15.309212 6.806748
v 5.647760 16.886911 6.508247
v 5.221765 19.279383 6.086805
v 5.074606 18.918501 6.160949
v 3.080791 20.092392 6.289082
v 1.547625 20.051411 6.434698
v 0.474610 18.817448 6.584747
v 0.230064 19.013441 6.690963
v -0.662261 16.682068 7.490326
v -0.829005 17.138754 7.358037
v -1.105391 16.877844 7.336605
v -1.549905 15.834211 7.679898
v -1.693379 15.235124 7.810143
v -3.328207 14.821278 7.928048
v -3.629005 14.389372 7.816293
v -5.053800 14.976762 7.670599
v -5.246179 14.625382 7.569659
v -6.204861 15.730619 7.048496
v -6.546041 15.521562 7.101798
v -6.681540 17.129911 6.792098
v -6.893022 17.035913 6.477456
v -5.799833 19.312094 6.487999
v -6.203564 19.359333 6.406906
v -4.093835 20.062262 6.621248
v -4.086195 20.371811 6.576948
v -2.368305 20.121662 6.774198
v -2.484984 19.797235 6.602850
v -1.408704 18.765501 6.908628
v -1.307531 19.250214 6.955926
v -0.926876 17.016846 6.991099
v -1.782301 15.474910 7.401479
v -1.944520 14.976006 7.505505
v -4.359580 14.671284 7.539201
v -6.395490 15.485161 6.790848
v -6.513890 17.067106 6.491948
v -6.016122 19.445875 6.071716
v -5.879949 19.080748 6.146288
v -3.852545 20.195124 6.279772
v -2.321670 20.108763 6.429498
v -1.286085 18.843540 6.582406
v -1.036130 19.032230 6.689230
v 0.123862 13.147245 8.475397
v 1.099285 12.434395 8.029226
v 0.676708 12.594510 8.067689
v -0.388261 12.657773 8.316370
v -0.676237 13.833504 8.418401
v 0.681973 14.938780 7.594697
v 0.297235 14.306990 8.132315
v -0.217833 15.396809 8.192884
v -0.466618 14.889543 8.463625
v -0.034910 15.733506 7.314461
v 2.414210 13.256910 7.771648
v 2.244182 11.644551 7.629462
v 2.370015 18.955915 5.373493
v 0.552498 20.180796 5.231769
v 1.691574 17.985640 5.696022
v -0.416365 18.098715 6.454319
v 2.973972 17.219839 5.651536
v 4.285625 18.380568 4.451098
v 0.479281 16.874090 6.542464
v -0.655598 15.816856 7.339084
v 0.979000 15.796452 6.632508
v -0.248311 10.308010 7.642360
v -0.454320 19.630310 5.614098
v 2.909435 20.033604 4.240844
v 4.292634 14.872074 6.421387
v 2.457813 15.607007 6.262545
v 4.613018 16.563410 5.018523
v 3.005173 16.177061 5.830334
v 1.295422 9.510307 6.787416
v 3.718722 10.657233 6.448217
v -0.548958 9.190903 6.900489
v 4.484584 12.837727 6.711070
v 6.329104 14.961474 4.115552
v 6.531315 12.895160 4.295443
v 5.873513 10.443505 3.788508
v 4.896297 19.235945 2.984761
v -0.106819 12.956986 8.060740
v 0.403605 21.213718 3.759533
v -1.377396 13.045594 8.387213
v -1.770672 12.581975 8.091038
v -2.370490 12.545180 7.976649
v -1.610910 14.972825 7.591597
v -1.246581 14.329802 8.130281
v -0.879635 15.366410 8.081299
v -3.845456 13.038898 7.639028
v -3.382210 18.949406 5.355334
v -2.039709 17.949934 5.846576
v -1.278698 20.212498 5.243459
v -3.225127 17.815689 5.611476
v -4.749982 18.656904 4.596451
v -1.348197 16.901169 6.540026
v -1.879860 15.838810 6.628658
v -2.699127 11.099527 7.594096
v -3.916055 20.113529 4.101678
v -3.361534 15.693301 6.254233
v -5.200775 15.001759 6.423022
v -5.316054 16.653395 5.151496
v -4.770111 10.783007 6.436844
v -2.382786 9.564766 6.782429
v -5.831535 12.970106 6.344799
v -7.078213 15.304993 4.310071
v -7.509385 13.103156 4.276633
v -6.923077 10.633022 3.771359
v -5.608858 19.574890 2.941223
v -6.458192 18.715940 2.337133
v -1.322307 12.829652 7.988826
v -2.227676 21.149811 3.578411
v 3.435661 8.729516 4.598498
v 4.735797 8.404090 2.107556
v 1.860961 8.307394 5.029253
v -0.530870 8.038077 5.459628
v -5.777902 8.530463 2.144260
v -4.596771 8.958583 4.673841
v -2.917419 8.331191 5.010176
v 0.888265 17.588461 6.104248
v 2.568902 17.123831 5.175822
v 1.075324 17.634949 5.393758
v 0.509505 16.702810 5.975198
v 0.874083 15.766663 6.151248
v 2.003305 15.480512 5.873599
v 2.791432 15.966086 5.439216
v -4.004279 16.665785 5.683662
v -3.425849 17.212646 5.167789
v -1.918383 17.679276 5.389738
v -1.381975 16.730860 5.972648
v -1.774603 15.805905 6.147682
v -2.911045 15.553360 5.866998
v -3.683271 16.061951 5.430554
v 7.512870 13.383179 2.053891
v 6.862794 10.473758 1.409798
v 7.225580 14.874857 2.322169
v 5.547037 19.041632 1.839529
v 6.833261 16.828043 1.370368
v 2.384723 20.696829 3.691619
v 4.068706 20.481079 2.343548
v 4.886181 19.588663 1.859910
v 7.563303 12.572093 -0.524859
v 6.850005 10.531791 -0.624790
v 5.782039 10.703195 -2.174651
v 3.625102 12.518255 -4.820320
v 6.221703 12.291820 -2.799390
v -0.521388 10.345717 -4.518522
v 1.647830 12.556510 -5.526452
v -1.192915 12.515811 -5.705402
v -8.543987 13.745044 1.864790
v -7.904608 10.692323 1.389925
v -8.523536 12.751255 -0.478177
v -7.880441 10.741509 -0.630287
v -8.196127 15.575137 1.749048
v -7.522501 17.418982 1.256526
v -7.684536 12.720305 -2.093977
v -6.839685 10.950453 -2.214378
v -6.009585 12.644011 -3.940862
v -3.917276 10.557516 -3.873680
v -3.412960 12.639464 -5.364298
v 5.146045 8.574809 0.351434
v 5.366087 9.182331 -0.740894
v 3.522688 9.210204 -2.783720
v 1.344590 9.080737 -3.733065
v -0.513013 8.753512 -4.166430
v -6.142653 8.651007 0.356104
v -6.447645 9.367466 -0.749058
v -4.714165 9.183760 -2.468206
v -2.441194 9.146282 -3.735516
v -1.134925 22.476561 4.652483
v -4.174475 21.910145 5.073224
v -2.897650 20.913910 6.230498
v -0.349785 21.546112 5.469403
v -5.581540 20.386255 5.815848
v -4.677820 19.761362 6.513298
v -6.553640 18.451956 6.148798
v -5.820167 17.860182 6.517357
v -6.635740 16.888706 6.240248
v -6.544796 13.575562 7.027845
v -5.929813 14.037663 6.809630
v -7.013092 12.455876 7.159360
v -7.977540 18.826157 4.660848
v -8.476317 16.326935 5.008516
v -7.401853 14.010921 6.611880
v -8.300056 12.052189 6.279448
v -8.714685 13.376706 5.360468
v -8.836256 14.735816 3.714882
v -9.501904 15.566968 1.653213
v -8.758636 13.131006 4.803408
v -6.792040 20.721861 4.117793
v -1.964670 23.242613 2.939373
v -8.815989 18.755056 2.723953
v -7.955690 21.076063 1.640423
v -5.892190 22.671406 0.831738
v -2.872460 23.566010 -0.006257
v -8.675658 11.417850 5.750507
v -8.509274 11.727899 4.768964
v -8.547817 11.864396 5.218911
v -9.084682 9.539816 4.161106
v -9.500465 9.778965 2.862621
v -8.969085 12.138856 1.156153
v -9.853685 8.042706 4.389974
v -10.476238 8.130443 1.697301
v -9.474385 9.778060 1.486269
v -9.168690 18.694204 -0.747527
v -9.821190 15.752856 -1.626482
v -9.705285 12.762055 -1.371692
v -10.098285 10.857204 -1.182492
v -9.286036 10.345756 0.981874
v -10.529351 8.589694 0.824505
v -11.134585 9.326460 -2.160076
v -9.007842 9.141666 -4.558814
v -8.656035 11.131155 -4.224827
v -5.923135 9.146411 -5.939201
v -5.400990 10.866885 -6.302533
v -8.179786 13.137454 -4.532752
v -4.531055 13.043560 -6.537302
v -5.648835 9.407959 -6.550251
v -8.203341 15.846054 -4.959902
v -4.705555 15.983608 -7.165553
v -7.384490 19.660711 -4.400332
v -2.748020 9.384802 -7.606509
v -1.758910 11.256360 -7.250952
v 0.454094 11.931650 -7.687979
v 0.801583 16.127293 -8.315592
v -4.096280 19.069162 -7.083552
v -0.360715 18.905005 -8.246852
v 0.150813 20.914793 -6.971727
v -5.160350 21.310713 -5.455852
v -8.005240 20.593555 -1.249327
v 0.886930 23.373911 2.374293
v 0.700890 23.678467 -0.053327
v 2.255493 21.511292 4.530210
v 3.258202 20.879709 3.070793
v 3.312640 21.694616 1.238493
v 3.312267 21.954161 -1.665201
v 4.679294 20.908157 3.332809
v 5.105360 21.899860 -0.524517
v 3.981530 21.316813 -3.820238
v -0.308345 22.665060 -3.719058
v 2.552244 21.353809 -6.091229
v 6.700460 19.396067 3.860708
v 7.063160 19.556868 1.978378
v 7.074160 19.460417 -1.395687
v 4.982210 21.794016 -2.537562
v 6.455860 19.081564 -4.636852
v 8.137011 15.901166 -1.262002
v 7.940415 12.583012 -1.166847
v 6.480011 14.355664 -5.072002
v 8.181260 16.335815 2.193868
v 8.122368 13.261828 2.853364
v 7.824260 16.501011 4.232693
v 6.574281 10.060540 -4.624358
v 6.138215 11.596910 -4.947502
v 7.370644 10.190954 -0.214561
v 6.662624 10.417434 4.486054
v 6.958787 10.564975 3.574732
v 7.773080 12.933105 4.377393
v 7.051265 10.453515 3.093364
v 7.225365 10.410966 1.889224
v 1.607742 19.609068 -7.483582
v -0.117075 9.719759 -7.788902
v 3.712185 18.462662 -6.822302
v 3.344360 9.932905 -6.982531
v 3.127905 11.571859 -6.711002
v 3.295045 14.290160 -6.919552
v 8.061860 12.427061 1.675514
v -3.814935 22.756262 -3.023782
v -6.330940 21.889755 -2.004317
v 7.333115 10.512515 1.302069
v -5.773540 13.613474 6.113108
v -5.176879 17.293116 5.564147
v -5.835314 16.535440 5.074542
v -6.160440 14.980359 5.707648
v -6.987026 12.266479 6.893546
v -6.520398 12.968275 6.495120
v -6.741462 14.415378 5.697998
v -7.170028 12.533001 5.994835
v -7.972341 14.773679 3.534781
v -8.279935 13.178103 4.665928
v -7.873485 12.938807 5.252668
v -8.698030 9.148991 4.004872
v -8.064035 12.144755 1.080273
v -8.852336 9.411505 1.543369
v -9.623550 7.895247 4.095400
v -9.869085 8.038260 1.790209
v -8.536284 10.183760 0.763979
v -10.016436 8.632060 -0.515971
v -9.916986 8.042260 0.711384
v -10.341935 8.804960 -1.967576
v -8.923004 8.935369 -3.548179
v -5.519735 9.147861 -5.125452
v -5.057405 10.869760 -5.460152
v -3.369475 9.069860 -6.458401
v -5.348970 9.220160 -5.713751
v -1.634333 9.352015 -6.801065
v -0.731713 20.769770 5.351195
v 3.246119 20.314625 3.110980
v 5.912555 18.881006 3.965224
v 6.835557 16.422140 4.240620
v 7.152267 13.492398 4.314809
v 5.775865 10.047816 -3.458672
v 5.086115 10.148466 -4.631702
v 5.934865 10.356215 -1.316982
v 6.904176 10.281753 1.060835
v 7.043065 12.820514 2.869789
v 6.420166 10.905910 2.944444
v 6.398415 10.772910 2.074704
v 7.187260 12.660510 1.603914
v 2.718138 9.846516 -6.275485
v -3.810305 19.543684 5.675367
v -8.365325 11.330911 5.407183
v -8.178035 12.281055 5.557828
v 6.927128 16.012476 3.215905
v -8.783185 10.373660 -0.504351
v -8.492335 10.400260 -1.961076
v -7.900535 12.013305 2.298353
v -7.834140 14.247205 2.256088
v -7.046090 16.723404 4.281518
v -6.849240 18.260160 3.769823
v -6.043490 19.153305 3.507603
v -7.620690 16.956106 2.929388
v -8.108367 15.835895 1.684927
v -7.709735 10.901805 -3.514772
v 3.716260 7.236761 2.604579
v -4.651230 7.236761 2.604579
v 3.443870 8.132516 -2.642311
v 1.430300 8.142060 -3.909222
v -4.378840 8.132510 -2.642311
v -2.365270 8.142060 -3.909222
v -0.467485 10.592860 -4.702652
v 3.177870 10.451361 -3.594006
v -0.467485 6.550359 -5.278301
v 3.433050 6.719660 -4.091291
v -0.467485 6.860966 0.687974
v -0.467485 8.428317 -5.834818
v 3.614685 7.909310 -4.433002
v 3.590585 9.164809 -4.443701
v -0.467485 10.663911 -5.283002
v 3.486755 10.450416 -4.114707
v 2.660485 5.627899 5.324487
v 5.207132 8.604491 3.888530
v 2.392755 8.125311 5.572839
v 4.602361 6.796391 4.097417
v 5.888526 7.800324 2.205650
v 6.491708 7.572375 2.136765
v 5.676069 5.835260 3.252881
v 6.852715 6.939115 1.568154
v 6.439065 7.118565 -1.619006
v -0.467485 7.841711 6.175499
v 2.812850 4.658911 4.736119
v 6.956815 7.264065 -0.017956
v -0.467485 5.131296 6.100013
v -0.467485 4.139561 5.465679
v 5.813865 10.031811 -1.198621
v 6.109348 9.649879 1.017898
v 6.337865 9.788865 -1.434301
v 6.606963 9.196794 0.973323
v 4.771846 8.997148 3.529253
v 6.775065 8.098466 0.031144
v 6.287665 8.281666 0.047084
v 6.397610 8.178310 -1.677971
v 6.028315 8.588565 -1.540991
v -4.112840 10.451361 -3.594006
v -4.368020 6.719660 -4.091291
v -4.549655 7.909310 -4.433002
v -4.525555 9.164809 -4.443701
v -4.421725 10.450410 -4.114707
v -3.595453 5.627901 5.324488
v -3.327725 8.125311 5.572839
v -6.142105 8.604488 3.888527
v -5.537330 6.796390 4.097417
v -6.823493 7.800315 2.205658
v -7.426675 7.572364 2.136771
v -7.787685 6.939111 1.568154
v -6.611044 5.835258 3.252877
v -7.374035 7.118560 -1.619006
v -3.747820 4.658906 4.736119
v -7.891785 7.264060 -0.017956
v -6.748835 10.031811 -1.198621
v -7.044318 9.649878 1.017897
v -7.272835 9.788856 -1.434301
v -7.541934 9.196788 0.973325
v -5.706812 8.997146 3.529255
v -7.710035 8.098460 0.031144
v -7.222635 8.281660 0.047084
v -7.332585 8.178305 -1.677971
v -6.963285 8.588560 -1.540991
v 1.666110 16.894110 6.320548
v 1.957162 18.177738 5.490369
v 0.158207 17.257923 6.232845
v 1.213411 15.417702 6.528287
v 3.017600 16.333033 5.787987
v -0.179090 18.789261 4.491183
v 1.155485 19.117212 4.024583
v -1.145995 17.817810 5.008933
v -1.436980 16.481510 5.494708
v -0.999070 15.131660 5.798998
v 0.075485 14.136459 5.858698
v 1.430200 13.744962 5.607499
v 2.770640 14.079612 5.162989
v 3.712545 15.044360 4.625898
v 4.003530 16.380661 4.140118
v 3.565625 17.730459 3.835818
v 2.529450 18.725361 3.769533
v -2.533325 16.956360 6.314898
v -1.015051 17.275297 6.231260
v -2.783998 18.247976 5.484030
v -2.125035 15.467195 6.523842
v -3.899414 16.435530 5.778689
v -0.627895 18.795904 4.490578
v -1.950920 19.163212 4.020418
v 0.308415 17.796263 5.010883
v 0.558380 16.451960 5.497383
v 0.079865 15.115710 5.800448
v -1.023855 14.152759 5.857198
v -2.388895 13.801511 5.602348
v -3.717640 14.175705 5.154298
v -4.629110 15.167911 4.614718
v -4.879080 16.512259 4.128218
v -4.400570 17.848463 3.825148
v -3.335200 18.812210 3.761678
v -1.440037 -5.824735 1.819108
v -2.308969 -5.036385 3.546556
v -1.289005 -6.098945 0.160105
v -0.467480 -5.932779 -0.657777
v -1.584382 -5.981979 -1.475912
v -2.045057 -5.134245 -3.291588
v -0.467480 -4.172180 -4.621850
v -3.622493 -3.144860 -4.624732
v -5.698409 -3.041624 -3.176497
v -6.840380 -2.998140 -0.246995
v 0.050023 -3.142029 -5.080122
v -4.508905 -3.051040 4.233549
v -6.134735 -3.003990 2.717675
v -4.392342 1.011290 4.649151
v -2.624183 6.464140 3.927612
v -5.491024 5.393232 2.959162
v -6.372607 7.303063 1.714213
v -6.038335 6.628660 2.329509
v -7.080885 4.592960 2.342869
v -6.069185 3.977710 2.814709
v -6.720235 0.454811 2.043440
v -7.051185 2.934910 1.399389
v -7.064383 2.543816 0.237789
v -6.780982 2.966903 -1.046673
v -6.874151 -1.798071 -2.127192
v -6.570048 5.925669 -2.134753
v -6.156383 7.431388 -1.420089
v -6.545887 7.894344 -0.040901
v -5.775235 4.060160 -2.886956
v -6.546976 4.079082 -2.045265
v -0.467485 0.246210 6.040999
v -7.264080 -2.976829 -0.071679
v -6.895986 -2.989958 1.846002
v -6.782580 -2.990490 -2.151070
v -3.415839 5.560007 -4.374720
v -4.241190 7.891061 -3.028521
v -0.467485 6.243782 4.396815
v -4.583800 7.186056 2.902504
v -5.660385 8.027810 1.737064
v -5.734785 8.359210 -0.780981
v -2.410270 7.374410 -4.184801
v -3.289212 -1.636582 -5.347022
v -4.121096 -3.044362 -5.020239
v -5.833984 -3.120114 3.845713
v -3.194710 -2.225690 5.687049
v -0.467480 -3.176580 6.015749
v -3.118590 -3.239789 5.386730
v -0.467485 7.271968 -4.702322
v -0.467485 0.408660 -5.887251
v -0.369777 -3.086364 -5.969670
v -1.559780 -3.116441 5.305925
v -0.467480 -4.004600 4.856345
v 0.651005 -5.917878 1.733077
v 0.354045 -6.098945 0.160105
v 0.649422 -5.981979 -1.475912
v 2.696285 -3.190764 -4.606364
v 1.336115 -5.223495 -3.207575
v 4.763449 -3.041624 -3.176496
v 5.905420 -2.998140 -0.246995
v 2.978262 -3.063442 4.622126
v 1.434405 -5.103350 3.463055
v 5.199770 -3.003990 2.717675
v 3.457369 1.011298 4.649151
v 4.556053 5.393237 2.959163
v 1.689215 6.464146 3.927611
v 5.437639 7.303066 1.714212
v 5.103365 6.628664 2.329509
v 6.145915 4.592965 2.342869
v 5.134215 3.977710 2.814709
v 5.785270 0.454815 2.043440
v 6.116215 2.934915 1.399389
v 6.129413 2.543821 0.237785
v 5.846012 2.966904 -1.046671
v 5.939188 -1.798078 -2.127193
v 5.635087 5.925672 -2.134748
v 5.221413 7.431388 -1.420089
v 5.610919 7.894344 -0.040902
v 4.840265 4.060165 -2.886956
v 5.612005 4.079085 -2.045264
v 6.329116 -2.976829 -0.071677
v 5.961025 -2.989957 1.845997
v 5.847620 -2.990490 -2.151070
v 2.480863 5.560002 -4.374723
v 3.306220 7.891061 -3.028521
v 3.648830 7.186060 2.902504
v 4.725415 8.027815 1.737064
v 4.799815 8.359210 -0.780981
v 1.475300 7.374410 -4.184801
v 2.354248 -1.636584 -5.347023
v 3.545325 -3.044390 -4.714301
v 2.259750 -2.225690 5.687049
v 4.899021 -3.120112 3.845716
v 2.183630 -3.239789 5.386730
vn 0.1710 0.2159 0.9613
vn 0.5101 0.3675 0.7777
vn 0.8602 0.2921 0.4180
vn -0.0674 -0.2430 0.9677
vn -0.7455 -0.2439 0.6202
vn -0.5841 -0.4048 0.7035
vn -0.0218 -0.9650 0.2615
vn 0.3301 -0.9063 0.2640
vn -0.0503 0.5057 0.8613
vn 0.4661 -0.2259 0.8554
vn 0.0471 0.3802 0.9237
vn 0.8649 0.1270 0.4857
vn 0.7891 0.1465 0.5966
vn 0.7602 0.5214 0.3875
vn 0.1724 0.1966 0.9652
vn 0.1181 0.1343 0.9839
vn 0.1792 -0.1632 0.9702
vn 0.2458 -0.3153 0.9166
vn 0.2905 -0.4425 0.8484
vn 0.2757 -0.0286 0.9608
vn 0.5602 -0.0030 0.8284
vn -0.0034 -0.2094 -0.9778
vn -0.4244 -0.7828 -0.4550
vn -0.0733 -0.3208 -0.9443
vn -0.0528 -0.3360 -0.9404
vn 0.0336 -0.3243 -0.9454
vn 0.0378 -0.3307 -0.9430
vn -0.0549 -0.6245 -0.7791
vn -0.0650 -0.1165 -0.9911
vn -0.7053 0.2542 -0.6617
vn -0.4839 -0.0172 -0.8750
vn 0.0146 -0.2065 -0.9783
vn 0.4398 0.4699 -0.7653
vn -0.0874 -0.1678 -0.9820
vn -0.0161 0.8182 -0.5747
vn 0.1450 -0.4648 -0.8734
vn -0.2691 0.5877 -0.7630
vn 0.1151 -0.2993 -0.9472
vn -0.8653 0.3772 -0.3302
vn -0.9474 0.0340 -0.3182
vn 0.5860 0.6038 -0.5404
vn 0.8902 -0.0740 -0.4495
vn -0.8501 -0.4081 0.3327
vn 0.2987 -0.9257 0.2322
vn 0.4358 -0.8569 0.2755
vn -0.3586 -0.9332 0.0238
vn -0.4034 -0.9115 -0.0802
vn 0.2912 0.9417 0.1687
vn -0.1376 0.8503 -0.5079
vn 0.4975 -0.8538 -0.1536
vn -0.8344 0.3850 0.3945
vn 0.8481 -0.3774 -0.3718
vn -0.8240 -0.5243 0.2149
vn -0.8493 -0.1517 0.5057
vn -0.8713 -0.1779 0.4574
vn -0.6547 -0.6956 0.2958
vn -0.4429 -0.8962 0.0243
vn -0.4309 -0.8997 -0.0701
vn 0.1135 0.8448 -0.5230
vn -0.3430 0.9392 -0.0149
vn 0.1264 -0.8851 -0.4480
vn 0.7650 -0.4956 -0.4114
vn -0.7046 0.6795 0.2046
vn -0.9833 0.0698 -0.1680
vn -0.0813 0.2784 0.9570
vn -0.1683 0.1894 0.9674
vn 0.6483 0.6849 -0.3324
vn 0.0545 0.9558 -0.2890
vn 0.0497 0.9525 -0.3004
vn 0.6873 0.5835 -0.4326
vn -0.2100 0.2453 0.9464
vn -0.0083 0.2282 0.9736
vn 0.0260 0.1736 0.9845
vn 0.0568 -0.2534 0.9657
vn -0.0074 -0.9651 0.2618
vn 0.0638 0.5041 0.8613
vn -0.3580 -0.8962 0.2620
vn -0.0396 0.3803 0.9240
vn -0.4747 -0.2125 0.8541
vn -0.7871 0.1614 0.5953
vn -0.8631 0.1537 0.4811
vn -0.1685 0.2094 0.9632
vn -0.7458 0.5461 0.3816
vn -0.1843 -0.1502 0.9713
vn -0.1169 0.1465 0.9823
vn -0.2574 -0.3104 0.9151
vn -0.3017 -0.4289 0.8515
vn -0.5617 0.0181 0.8272
vn -0.2818 -0.0287 0.9590
vn -0.0031 -0.2079 -0.9782
vn 0.3988 -0.7977 -0.4525
vn 0.0385 -0.6267 -0.7783
vn 0.0632 -0.1193 -0.9908
vn 0.7146 0.2332 -0.6595
vn 0.4862 -0.0267 -0.8735
vn -0.0193 -0.2106 -0.9774
vn -0.4217 0.4854 -0.7659
vn 0.0792 -0.1707 -0.9821
vn 0.0367 0.8178 -0.5744
vn 0.2823 0.5815 -0.7630
vn -0.1563 -0.4587 -0.8747
vn -0.1254 -0.3026 -0.9448
vn 0.8755 0.3533 -0.3296
vn -0.6179 0.7174 -0.3218
vn -0.8358 0.5488 -0.0122
vn -0.9123 0.2128 -0.3500
vn -0.8808 -0.0652 -0.4689
vn 0.7005 -0.7119 0.0498
vn -0.2554 0.9476 0.1919
vn 0.1639 0.8462 -0.5071
vn -0.5222 -0.8387 -0.1544
vn 0.8475 0.3527 0.3966
vn -0.8583 -0.3502 -0.3751
vn 0.8048 -0.5537 0.2139
vn 0.6343 -0.7124 0.3004
vn 0.8643 -0.2050 0.4592
vn 0.8432 -0.1757 0.5081
vn 0.4158 -0.9091 0.0248
vn 0.4075 -0.9108 -0.0664
vn -0.0879 0.8470 -0.5242
vn 0.3672 0.9300 -0.0142
vn -0.1510 -0.8807 -0.4490
vn -0.7762 -0.4750 -0.4146
vn 0.7244 0.6581 0.2051
vn -0.0116 0.2254 0.9742
vn 0.1970 -0.1417 0.9701
vn 0.0010 -0.1864 0.9825
vn 0.2829 0.6416 0.7130
vn 0.0010 0.2035 0.9791
vn 0.3788 0.2064 0.9022
vn 0.4152 0.5555 0.7205
vn -0.0822 0.0997 0.9916
vn 0.3403 0.6645 0.6653
vn 0.3240 -0.2843 0.9023
vn 0.3450 0.0962 0.9337
vn 0.1341 -0.2928 0.9467
vn 0.3182 0.3935 0.8625
vn 0.1689 0.6425 0.7474
vn 0.1731 -0.1563 0.9724
vn -0.0034 0.3781 0.9258
vn 0.6005 0.4307 0.6737
vn -0.0083 0.0475 0.9988
vn -0.1889 0.6769 0.7115
vn 0.7062 0.2512 0.6619
vn 0.5352 0.7355 0.4154
vn 0.0306 -0.4267 0.9039
vn 0.0055 0.5001 0.8659
vn 0.4515 0.6495 0.6118
vn 0.5027 0.3880 0.7725
vn 0.0081 0.8925 0.4511
vn 0.5505 0.3737 0.7465
vn -0.2300 0.4268 0.8746
vn 0.2683 -0.6275 0.7309
vn 0.5345 -0.4679 0.7038
vn -0.0211 -0.6795 0.7334
vn 0.8045 0.2524 0.5376
vn 0.6373 -0.0676 0.7677
vn 0.8470 -0.1044 0.5213
vn 0.7531 -0.4825 0.4473
vn 0.7144 0.5330 0.4534
vn -0.1114 -0.8732 0.4744
vn 0.1138 0.5806 0.8062
vn -0.1408 -0.3209 0.9366
vn -0.2386 -0.1102 0.9649
vn -0.0758 -0.3252 0.9426
vn -0.4086 0.2306 0.8831
vn -0.4416 0.6231 0.6455
vn -0.4005 0.5740 0.7142
vn -0.4024 0.0158 0.9153
vn -0.3355 0.4063 0.8499
vn -0.4550 -0.1396 0.8795
vn -0.1480 0.6530 0.7428
vn -0.0209 -0.1679 0.9856
vn 0.1169 0.2349 0.9650
vn -0.7115 0.2610 0.6524
vn -0.5035 0.7549 0.4204
vn -0.2733 -0.3509 0.8957
vn 0.0443 -0.6326 0.7732
vn -0.5818 0.4469 0.6795
vn 0.0294 0.8851 0.4645
vn -0.4878 0.3942 0.7789
vn -0.5071 0.3992 0.7638
vn -0.5472 -0.4434 0.7099
vn -0.2755 -0.6269 0.7288
vn -0.6863 -0.0582 0.7250
vn -0.7812 0.2865 0.5546
vn -0.8568 -0.0765 0.5099
vn -0.7697 -0.4616 0.4410
vn -0.1495 -0.6876 0.7106
vn 0.0668 -0.4099 0.9097
vn 0.1268 -0.2267 0.9657
vn 0.2455 -0.4880 0.8376
vn -0.2937 -0.4885 0.8217
vn 0.4992 -0.6671 0.5530
vn -0.4140 -0.0448 0.9092
vn 0.2377 0.2253 0.9448
vn 0.0007 0.2908 0.9568
vn 0.3742 0.0267 0.9270
vn -0.5259 -0.6491 0.5497
vn -0.2603 0.2263 0.9386
vn 0.6923 -0.1248 0.7107
vn -0.3083 -0.2163 0.9264
vn 0.2815 -0.8590 0.4276
vn 0.9985 -0.0283 0.0459
vn 0.8897 -0.4060 0.2090
vn 0.0869 0.9050 0.4165
vn 0.6693 0.7182 -0.1904
vn -0.4602 0.5325 0.7104
vn 0.2980 0.3325 0.8948
vn 0.3147 0.3262 0.8914
vn 0.3057 0.2942 0.9055
vn -0.5199 -0.7602 0.3896
vn 0.3602 -0.2358 0.9026
vn -0.9987 -0.0410 0.0299
vn -0.0612 0.9073 0.4159
vn -0.6472 0.7377 -0.1923
vn 0.4940 0.5611 0.6641
vn -0.2917 0.3366 0.8953
vn -0.3073 0.3354 0.8905
vn -0.2992 0.3032 0.9047
vn 0.8636 -0.4776 0.1615
vn 0.5820 0.8011 -0.1395
vn -0.3909 0.3391 0.8557
vn 0.8295 0.3811 0.4083
vn 0.1286 -0.5191 0.8450
vn 0.3684 0.7431 0.5587
vn 0.6071 0.6811 0.4093
vn -0.0596 0.0746 -0.9954
vn 0.4922 0.8348 -0.2467
vn 0.8195 -0.4867 -0.3027
vn 0.6346 -0.5080 -0.5825
vn -0.1806 -0.9774 0.1094
vn -0.5847 -0.7362 -0.3409
vn -0.0119 -0.3871 -0.9220
vn 0.0173 -0.9771 0.2121
vn -0.0536 -0.9849 0.1648
vn -0.8767 -0.4532 0.1610
vn -0.6936 -0.0291 -0.7198
vn -0.6924 -0.4318 -0.5780
vn -0.8293 -0.4820 -0.2826
vn -0.8656 0.3004 0.4006
vn -0.9428 0.0507 0.3295
vn 0.1174 0.1120 0.9868
vn -0.7820 -0.2904 -0.5515
vn -0.6375 -0.4804 -0.6024
vn -0.5311 -0.4384 -0.7251
vn -0.3662 -0.4813 -0.7964
vn 0.0347 -0.9809 0.1914
vn -0.5669 -0.7627 0.3113
vn -0.5800 -0.2407 -0.7783
vn 0.5574 -0.3351 -0.7596
vn 0.2792 -0.1078 -0.9542
vn 0.0034 -0.1141 -0.9935
vn 0.4544 -0.6327 0.6271
vn 0.5618 -0.2214 -0.7971
vn -0.5886 -0.3071 -0.7478
vn -0.3236 -0.1247 -0.9379
vn 0.1086 0.8504 0.5148
vn -0.2809 0.7975 0.5340
vn -0.1097 0.6676 0.7364
vn 0.1571 0.7255 0.6701
vn -0.4532 0.5356 0.7126
vn -0.3451 0.4321 0.8332
vn -0.4851 0.2568 0.8359
vn -0.3669 0.1773 0.9132
vn -0.5333 0.1547 0.8317
vn -0.6043 0.1343 0.7853
vn 0.2989 0.0513 0.9529
vn -0.7806 0.3767 0.4988
vn -0.8431 0.1795 0.5070
vn 0.1111 0.0232 0.9935
vn -0.4651 -0.4105 0.7843
vn -0.9407 -0.0644 0.3331
vn -0.9613 0.0390 0.2727
vn -0.9828 0.0586 0.1754
vn -0.9903 -0.0547 0.1279
vn -0.6128 0.6596 0.4352
vn -0.1031 0.9511 0.2910
vn -0.9141 0.2931 0.2803
vn -0.7406 0.6507 0.1677
vn -0.4397 0.8955 0.0684
vn -0.1716 0.9847 -0.0306
vn -0.0976 -0.8787 -0.4672
vn -0.2593 -0.7496 0.6090
vn -0.8900 0.3035 0.3403
vn -0.9490 0.2740 0.1559
vn -0.8669 0.4167 0.2736
vn -0.7759 -0.3726 -0.5090
vn -0.6382 0.1284 -0.7591
vn -0.9364 0.3297 -0.1201
vn -0.9745 0.1064 -0.1977
vn -0.9935 0.0401 -0.1069
vn -0.9181 0.3921 0.0578
vn -0.9999 -0.0151 -0.0019
vn -0.8476 0.5127 -0.1368
vn -0.4546 0.1954 0.8690
vn -0.6114 0.1972 -0.7664
vn -0.7176 0.2086 -0.6645
vn -0.4080 -0.0676 -0.9105
vn -0.6352 0.1283 -0.7616
vn -0.7251 -0.0185 -0.6884
vn -0.3772 -0.0750 -0.9231
vn -0.6232 0.6087 -0.4910
vn -0.4042 -0.0297 -0.9142
vn -0.3540 -0.0835 -0.9315
vn -0.7389 0.4039 -0.5393
vn 0.6696 -0.6581 -0.3444
vn 0.8853 0.0220 -0.4644
vn 0.7708 -0.6370 0.0007
vn 0.2272 0.1116 -0.9674
vn -0.2058 0.1400 -0.9685
vn 0.1696 -0.0247 -0.9852
vn -0.3784 0.2687 -0.8858
vn -0.0627 0.2391 -0.9690
vn 0.2149 0.7756 -0.5935
vn -0.4207 0.6653 -0.6168
vn -0.7670 0.6098 -0.1997
vn 0.2880 0.9079 0.3046
vn 0.2547 0.9641 -0.0747
vn 0.6072 0.1835 0.7731
vn 0.3738 0.9036 0.2092
vn 0.4202 0.4687 0.7770
vn 0.2337 0.9649 -0.1200
vn -0.1277 0.4814 0.8671
vn 0.0438 0.9955 0.0838
vn 0.0784 0.9329 -0.3514
vn 0.3447 0.7523 -0.5614
vn 0.7877 0.5870 0.1870
vn 0.8164 0.5627 0.1299
vn 0.5770 0.7823 0.2346
vn 0.7270 0.6860 0.0293
vn 0.8786 0.4635 -0.1152
vn 0.7700 0.6221 -0.1414
vn 0.9021 0.3174 -0.2923
vn 0.1356 0.9322 -0.3356
vn 0.5851 0.3937 -0.7090
vn 0.3672 0.8612 -0.3513
vn 0.9773 0.0868 -0.1931
vn 0.9597 -0.1852 -0.2113
vn 0.9154 -0.0514 -0.3992
vn 0.9834 0.1679 0.0688
vn 0.9845 -0.1750 -0.0109
vn 0.9664 0.2003 0.1609
vn 0.9620 -0.2612 -0.0798
vn 0.9043 -0.1927 -0.3808
vn -0.3567 -0.8089 0.4675
vn -0.0969 -0.8916 -0.4423
vn 0.9573 -0.2225 0.1848
vn 0.9288 -0.3406 0.1464
vn 0.9243 -0.3461 0.1610
vn 0.3243 0.3325 -0.8856
vn 0.3637 -0.0684 0.9290
vn 0.2296 -0.8471 0.4793
vn 0.5542 -0.6881 0.4684
vn -0.0124 0.0963 -0.9953
vn -0.2234 0.2745 -0.9353
vn 0.4671 0.1631 -0.8690
vn 0.5294 -0.0397 -0.8475
vn 0.4451 0.1603 -0.8810
vn 0.4438 0.0463 -0.8949
vn 0.8507 0.1681 -0.4980
vn 0.4472 -0.0708 -0.8916
vn 0.9757 -0.2153 0.0399
vn 0.6512 0.0004 -0.7589
vn -0.2156 0.9280 -0.3039
vn -0.5442 0.8065 -0.2309
vn -0.5471 -0.4654 0.6958
vn 0.9594 -0.2820 0.0006
vn 0.8830 -0.2572 0.3927
vn 0.7480 -0.2094 0.6299
vn 0.7291 -0.2565 0.6345
vn 0.9259 -0.1926 0.3249
vn -0.8704 -0.1076 -0.4805
vn -0.9808 0.1500 -0.1248
vn -0.8352 -0.1499 -0.5291
vn -0.4233 -0.9021 -0.0835
vn -0.5778 -0.1675 -0.7988
vn 0.9522 -0.3049 -0.0170
vn 0.7892 -0.1638 0.5918
vn 0.8008 -0.1614 0.5768
vn 0.8380 -0.5359 0.1028
vn 0.9358 -0.3285 -0.1278
vn -0.1821 -0.5441 -0.8191
vn -0.1708 -0.5500 -0.8175
vn 0.1246 -0.9470 0.2960
vn -0.2741 -0.0252 -0.9614
vn 0.5415 -0.2916 -0.7885
vn 0.0844 -0.0823 0.9930
vn 0.3958 -0.0190 0.9182
vn 0.7810 -0.3361 0.5264
vn -0.0672 -0.1283 -0.9895
vn 0.0127 -0.1613 -0.9868
vn -0.0824 -0.1221 -0.9891
vn 0.3512 -0.6982 0.6239
vn 0.3358 -0.8863 0.3188
vn -0.0143 -0.7528 -0.6581
vn 0.2181 -0.1617 0.9624
vn 0.0839 -0.1770 0.9806
vn 0.1221 -0.1679 0.9782
vn -0.3464 0.0791 0.9348
vn -0.2501 -0.9600 -0.1260
vn -0.6681 -0.6905 -0.2773
vn -0.5732 -0.7888 -0.2218
vn 0.1028 -0.1425 0.9844
vn -0.4567 -0.8474 -0.2708
vn -0.4605 -0.8535 -0.2436
vn -0.2079 -0.9557 -0.2082
vn -0.1029 -0.9798 -0.1717
vn -0.0037 -0.9994 -0.0351
vn 0.0014 -1.0000 0.0007
vn 0.8659 -0.3324 -0.3738
vn 0.8518 -0.3107 -0.4217
vn 0.8580 -0.3190 -0.4025
vn 0.8708 -0.3402 -0.3548
vn -0.0628 -0.9595 -0.2747
vn -0.1380 -0.9759 -0.1693
vn -0.1351 -0.9681 -0.2108
vn 0.0533 -0.9708 -0.2337
vn -0.9268 0.0997 0.3622
vn -0.9209 0.1063 0.3750
vn -0.9029 0.2147 -0.3724
vn 0.1165 -0.9750 -0.1891
vn 0.2451 -0.3007 0.9217
vn 0.5120 -0.5086 0.6923
vn 0.3012 -0.3178 0.8991
vn 0.5729 0.0432 0.8185
vn -0.1705 0.1128 0.9789
vn -0.0386 0.2504 0.9674
vn -0.0440 0.2081 0.9771
vn -0.0028 0.0776 0.9970
vn -0.7203 0.0342 0.6929
vn -0.0492 0.0505 0.9975
vn 0.0067 0.0771 0.9970
vn 0.1184 -0.9905 0.0703
vn -0.0418 -0.9968 0.0683
vn -0.0293 -0.9985 0.0460
vn -0.1192 -0.9912 0.0579
vn -0.0792 -0.9954 0.0534
vn 0.2302 -0.9611 0.1526
vn 0.1075 -0.2999 -0.9479
vn -0.4976 -0.8670 0.0275
vn -0.3675 -0.9179 0.1494
vn -0.4721 -0.8800 0.0531
vn -0.5733 -0.8176 -0.0540
vn -0.1661 -0.0703 -0.9836
vn 0.0137 -0.2472 -0.9689
vn -0.0519 -0.1861 -0.9812
vn -0.2228 -0.0092 -0.9748
vn -0.0437 0.0926 0.9947
vn -0.1664 0.0914 0.9818
vn -0.1253 0.0921 0.9878
vn -0.0224 0.0927 0.9954
vn 0.1221 -0.9798 -0.1587
vn 0.1025 -0.9936 -0.0470
vn 0.0879 -0.9961 -0.0092
vn 0.3739 -0.9054 0.2012
vn -0.1612 -0.1489 0.9756
vn -0.4200 -0.1542 0.8943
vn -0.3701 -0.1532 0.9163
vn -0.1192 -0.1463 0.9820
vn 0.5080 -0.4954 0.7047
vn 0.3873 -0.5604 0.7320
vn 0.5627 -0.4442 0.6972
vn -0.7786 -0.6002 0.1831
vn -0.0312 -0.7980 -0.6019
vn -0.6064 -0.4598 -0.6487
vn -0.9116 0.4104 -0.0236
vn 0.0270 0.0490 -0.9984
vn 0.3823 -0.2191 -0.8977
vn 0.6450 -0.3794 -0.6634
vn 0.7178 -0.3296 -0.6134
vn 0.3084 -0.1892 -0.9323
vn -0.1895 -0.3278 -0.9256
vn -0.1817 -0.3371 -0.9238
vn 0.0851 -0.3067 0.9480
vn -0.2844 -0.3079 0.9079
vn -0.6597 -0.2117 0.7211
vn -0.9356 0.0856 0.3426
vn -0.9790 0.1789 -0.0978
vn -0.9083 0.3835 -0.1670
vn -0.9437 0.3237 -0.0684
vn -0.9509 0.3085 -0.0234
vn -0.9261 0.3548 0.1281
vn -0.8863 0.3725 0.2753
vn -0.9657 -0.2556 -0.0465
vn -0.9622 -0.2697 0.0383
vn 0.6814 -0.3489 -0.6433
vn 0.7915 -0.5368 -0.2922
vn 0.7517 -0.6203 -0.2242
vn 0.9021 -0.4181 -0.1067
vn 0.9094 -0.3295 -0.2539
vn 0.7570 -0.6534 0.0004
vn 0.6366 -0.7360 -0.2305
vn 0.7906 -0.6011 -0.1166
vn 0.8881 -0.4456 -0.1124
vn 0.9785 -0.1908 0.0784
vn 0.9411 -0.2989 -0.1584
vn 0.9662 0.1528 -0.2076
vn 0.8363 -0.3113 0.4513
vn 0.8821 -0.1006 0.4601
vn 0.9257 -0.2317 0.2989
vn 0.8492 -0.4367 0.2968
vn 0.9915 -0.0410 0.1238
vn 0.7501 -0.3153 -0.5813
vn 0.8264 -0.4317 -0.3614
vn -0.8105 -0.5785 0.0915
vn -0.6486 -0.4336 -0.6255
vn -0.6457 -0.2030 -0.7361
vn 0.0871 -0.9314 -0.3535
vn 0.5024 -0.7266 -0.4687
vn 0.6484 -0.6840 -0.3341
vn -0.9064 -0.4016 -0.1310
vn 0.8948 -0.3812 -0.2322
vn 0.4990 -0.0300 -0.8661
vn 0.9090 0.2549 -0.3296
vn 0.1534 -0.3116 -0.9377
vn 0.5266 -0.2057 -0.8249
vn 0.2180 -0.2954 -0.9302
vn 0.2790 -0.2512 0.9269
vn 0.2738 -0.2788 0.9205
vn 0.3657 -0.2276 0.9025
vn 0.5787 -0.6710 0.4635
vn 0.6276 -0.5253 0.5746
vn 0.6920 -0.3596 0.6259
vn 0.5402 -0.0926 0.8364
vn 0.5486 -0.4173 0.7245
vn 0.5734 -0.1864 -0.7978
vn -0.6175 -0.2990 -0.7275
vn 0.5910 0.8036 0.0704
vn -0.6674 0.7435 -0.0434
vn 0.1205 0.9906 -0.0644
vn 0.3259 0.1493 -0.9335
vn 0.0646 0.9831 -0.1711
vn -0.3494 0.1149 -0.9299
vn -0.0001 0.1736 0.9848
vn 0.0020 0.2783 0.9605
vn -0.3166 0.1941 0.9285
vn -0.4940 0.2013 0.8459
vn -0.0000 -0.9987 0.0514
vn 0.0486 -0.9964 0.0691
vn -0.0000 -0.9735 -0.2286
vn 0.4558 -0.3054 -0.8360
vn 0.2914 -0.2706 -0.9175
vn 0.2963 -0.0262 -0.9547
vn 0.5222 -0.1327 -0.8424
vn 0.5347 0.1178 -0.8368
vn 0.2796 0.2369 -0.9304
vn 0.4981 0.2532 -0.8293
vn 0.0732 0.9962 0.0465
vn 0.0901 0.9954 0.0314
vn -0.0000 0.9939 0.1106
vn -0.0000 0.9926 0.1215
vn 0.4067 -0.2419 0.8810
vn 0.7811 -0.1512 0.6058
vn 0.3779 -0.0402 0.9250
vn 0.8714 0.1266 0.4739
vn 0.6774 0.0120 0.7355
vn 0.9189 0.2444 0.3098
vn 0.0612 -0.9953 0.0748
vn 0.6375 -0.0546 0.7685
vn -0.0003 0.9599 0.2804
vn -0.0144 0.9306 0.3659
vn 0.4226 -0.4237 0.8012
vn 0.0487 -0.9966 -0.0667
vn 0.0515 -0.9399 -0.3376
vn -0.0027 -0.3081 0.9514
vn -0.0000 -0.0282 0.9996
vn 0.0745 -0.8533 -0.5160
vn -0.0000 -0.5386 0.8426
vn 0.0558 -0.8574 -0.5116
vn -0.0000 -0.8687 -0.4954
vn -0.7583 0.4907 0.4291
vn -0.7702 0.6378 -0.0018
vn 0.3959 0.9178 -0.0296
vn 0.4397 0.8980 -0.0176
vn 0.6335 0.7224 0.2772
vn 0.6618 0.7003 0.2677
vn 0.3236 0.7943 0.5142
vn 0.2928 0.8193 0.4929
vn 0.9779 0.2065 -0.0315
vn 0.9773 0.2104 -0.0229
vn 0.3552 0.9265 0.1240
vn 0.3947 0.9113 0.1175
vn 0.7742 0.3669 0.5157
vn 0.3641 0.8423 0.3975
vn 0.9569 0.0853 -0.2777
vn 0.9505 0.0244 -0.3098
vn 0.9581 -0.2797 0.0621
vn 0.9665 -0.2360 -0.1008
vn 0.6800 0.7332 -0.0009
vn 0.7442 0.6679 0.0076
vn 0.6544 0.3105 -0.6894
vn 0.6936 -0.0672 -0.7172
vn 0.9624 -0.2115 -0.1703
vn 0.9586 -0.2326 -0.1643
vn 0.7432 -0.0549 -0.6669
vn 0.6955 0.2564 -0.6712
vn -0.6612 0.6260 -0.4136
vn 0.4940 0.2013 0.8459
vn 0.3184 0.1931 0.9281
vn -0.0488 -0.9964 0.0693
vn -0.4559 -0.3052 -0.8361
vn -0.5224 -0.1327 -0.8423
vn -0.2953 -0.0263 -0.9550
vn -0.2914 -0.2706 -0.9175
vn -0.5349 0.1179 -0.8366
vn -0.4982 0.2533 -0.8293
vn -0.2796 0.2370 -0.9304
vn -0.0734 0.9962 0.0467
vn -0.0901 0.9954 0.0313
vn -0.4072 -0.2420 0.8807
vn -0.3779 -0.0402 0.9250
vn -0.7811 -0.1511 0.6059
vn -0.9185 0.2448 0.3105
vn -0.6770 0.0100 0.7359
vn -0.8733 0.1276 0.4701
vn -0.0622 -0.9952 0.0752
vn -0.6391 -0.0559 0.7671
vn 0.0065 0.9259 0.3777
vn -0.4220 -0.4238 0.8014
vn -0.0474 -0.9966 -0.0670
vn -0.0499 -0.9402 -0.3368
vn -0.0726 -0.8534 -0.5162
vn -0.0562 -0.8575 -0.5114
vn 0.7589 0.4839 0.4358
vn 0.7690 0.6392 -0.0038
vn -0.4399 0.8979 -0.0173
vn -0.3959 0.9178 -0.0296
vn -0.6617 0.7003 0.2678
vn -0.6335 0.7224 0.2772
vn -0.3237 0.7942 0.5142
vn -0.2950 0.8182 0.4934
vn -0.9785 0.2038 -0.0315
vn -0.9762 0.2156 -0.0226
vn -0.3553 0.9265 0.1238
vn -0.3628 0.8429 0.3975
vn -0.7724 0.3661 0.5190
vn -0.3958 0.9108 0.1174
vn -0.9571 0.0823 -0.2778
vn -0.9508 0.0214 -0.3090
vn -0.9666 -0.2356 -0.1006
vn -0.9581 -0.2797 0.0621
vn -0.7442 0.6679 0.0076
vn -0.6807 0.7326 -0.0011
vn -0.6944 -0.0671 -0.7165
vn -0.6544 0.3081 -0.6906
vn -0.9624 -0.2115 -0.1703
vn -0.9586 -0.2326 -0.1643
vn -0.6955 0.2564 -0.6712
vn -0.7432 -0.0549 -0.6669
vn 0.6629 0.6227 -0.4158
vn 0.9554 0.2344 -0.1796
vn -0.8458 -0.0275 -0.5328
vn 0.2370 0.2864 0.9284
vn 0.3276 0.6836 0.6523
vn -0.2440 0.3935 0.8863
vn 0.0926 -0.1815 0.9790
vn 0.6569 0.1055 0.7466
vn -0.1520 0.7563 0.6363
vn 0.1278 0.8655 0.4844
vn -0.4261 0.5610 0.7097
vn -0.4895 0.1985 0.8491
vn -0.3459 -0.0689 0.9357
vn -0.1462 -0.3524 0.9243
vn 0.2365 -0.4440 0.8643
vn 0.5166 -0.3227 0.7930
vn 0.7646 -0.1530 0.6261
vn 0.8346 0.2190 0.5055
vn 0.7035 0.5198 0.4846
vn 0.4956 0.7656 0.4102
vn -0.2307 0.2927 0.9279
vn 0.2512 0.3875 0.8870
vn -0.3099 0.6930 0.6510
vn -0.1010 -0.1781 0.9788
vn -0.6554 0.1260 0.7447
vn 0.1719 0.7539 0.6341
vn -0.1037 0.8676 0.4863
vn 0.4403 0.5484 0.7110
vn 0.4932 0.1841 0.8502
vn 0.3413 -0.0796 0.9366
vn 0.1332 -0.3572 0.9245
vn -0.2520 -0.4368 0.8635
vn -0.5284 -0.3055 0.7921
vn -0.7705 -0.1289 0.6243
vn -0.8293 0.2431 0.5031
vn -0.6929 0.5335 0.4850
vn -0.4740 0.7797 0.4091
vn 0.0039 -0.9636 0.2674
vn 0.2981 -0.9486 0.1067
vn -0.0138 -0.9954 -0.0952
vn 0.3197 -0.8661 -0.3842
vn -0.0762 -0.8147 -0.5749
vn -0.0161 -0.6011 -0.7990
vn -0.1843 -0.5695 -0.8011
vn 0.0371 -0.8443 -0.5346
vn -0.5164 0.1495 0.8432
vn -0.2898 0.2115 0.9334
vn -0.4371 0.2100 0.8745
vn -0.5293 -0.0687 0.8456
vn -0.5197 0.3351 0.7859
vn -0.5918 0.5722 0.5677
vn -0.6147 -0.0042 0.7887
vn -0.9008 0.0319 0.4330
vn -0.9044 -0.1034 0.4139
vn -0.9995 -0.0041 -0.0308
vn -0.9310 0.0379 -0.3631
vn -0.8839 0.0198 -0.4673
vn -0.6837 0.0253 -0.7293
vn -0.7143 -0.2592 -0.6500
vn -0.6148 0.2474 -0.7489
vn -0.0000 0.1704 0.9854
vn -0.0013 0.2187 0.9758
vn -0.7718 -0.6358 0.0003
vn -0.7151 -0.6555 0.2426
vn -0.6680 -0.6567 -0.3499
vn -0.4076 0.1926 -0.8926
vn -0.5571 0.3733 -0.7418
vn -0.4237 0.2971 0.8557
vn -0.6345 0.6119 0.4721
vn -0.6425 0.6920 -0.3291
vn -0.3936 0.9090 0.1375
vn 0.5660 0.2761 -0.7768
vn -0.3237 0.2742 -0.9055
vn -0.4168 0.0513 -0.9075
vn -0.4611 -0.5542 -0.6930
vn -0.5519 -0.6909 0.4670
vn -0.3637 -0.0691 0.9289
vn -0.0131 -0.6950 0.7189
vn -0.2113 -0.8480 0.4861
vn -0.0000 0.1943 -0.9810
vn -0.0006 0.1032 -0.9947
vn 0.0097 -0.6391 -0.7690
vn -0.0503 -0.9987 -0.0024
vn 0.1116 -0.9867 -0.1183
vn -0.0594 -0.9827 -0.1754
vn -0.2002 -0.9656 -0.1657
vn 0.1293 -0.9477 -0.2919
vn 0.0479 -0.9838 -0.1728
vn -0.1314 -0.7550 0.6424
vn -0.1520 -0.5450 0.8246
vn -0.2885 -0.5832 0.7594
vn 0.0387 -0.5705 0.8204
vn -0.0521 -0.9617 0.2691
vn -0.2929 -0.9508 0.1010
vn -0.0994 -0.9625 -0.2525
vn 0.1219 -0.8291 -0.5457
vn 0.0766 -0.8007 -0.5941
vn 0.5162 0.1501 0.8432
vn 0.4371 0.2100 0.8745
vn 0.2894 0.2126 0.9333
vn 0.5288 -0.0693 0.8459
vn 0.5931 0.5721 0.5665
vn 0.5194 0.3364 0.7856
vn 0.6163 -0.0038 0.7875
vn 0.9009 0.0318 0.4328
vn 0.9044 -0.1045 0.4136
vn 0.9995 -0.0040 -0.0301
vn 0.9312 0.0391 -0.3625
vn 0.6144 0.2466 -0.7495
vn 0.7151 -0.2591 -0.6493
vn 0.6832 0.0238 -0.7298
vn 0.7158 -0.6553 0.2413
vn 0.4065 0.1924 -0.8932
vn 0.5571 0.3733 -0.7418
vn 0.4234 0.2943 0.8568
vn 0.6345 0.6119 0.4721
vn 0.6424 0.6921 -0.3291
vn 0.3943 0.9086 0.1375
vn -0.5658 0.2777 -0.7764
vn 0.3237 0.2742 -0.9055
vn 0.4211 0.0191 -0.9068
vn 0.5908 0.1003 -0.8006
vn -0.1105 -0.9869 -0.1179
vn 0.0503 -0.9987 -0.0026
vn 0.1388 -0.9773 -0.1603
vn 0.1601 -0.9796 -0.1214
vn -0.1518 -0.9225 -0.3549
vn 0.0927 -0.7694 0.6320
vn 0.2013 -0.5316 0.8227
vt 0.981300 -0.653700
vt 0.977800 -0.643400
vt 0.974210 -0.650827
vt 0.979871 -0.929315
vt 0.980182 -0.981938
vt 0.984992 -0.960312
vt 0.990257 -0.922650
vt 0.988630 -0.894650
vt 0.978900 -0.895300
vt 0.985500 -0.864900
vt 0.975702 -0.865600
vt 0.988150 -0.834898
vt 0.978300 -0.835300
vt 0.982881 -0.792895
vt 0.976770 -0.788602
vt 0.983000 -0.751200
vt 0.977200 -0.751900
vt 0.983900 -0.719900
vt 0.974157 -0.720350
vt 0.982883 -0.695456
vt 0.975976 -0.689395
vt 0.972604 -0.962079
vt 0.966970 -0.953616
vt 0.964000 -0.986500
vt 0.969600 -0.984100
vt 0.979978 -0.636586
vt 0.980367 -0.626616
vt 0.980200 -0.626600
vt 0.977500 -0.636900
vt 0.973054 -0.908949
vt 0.966300 -0.922600
vt 0.965800 -0.895200
vt 0.966100 -0.865400
vt 0.971900 -0.835400
vt 0.965500 -0.835500
vt 0.964300 -0.789528
vt 0.970348 -0.792934
vt 0.967409 -0.751391
vt 0.964200 -0.720200
vt 0.969639 -0.690898
vt 0.963571 -0.691270
vt 0.966702 -0.654214
vt 0.975600 -0.984800
vt 0.987300 -0.989900
vt 0.992056 -0.955488
vt 0.981593 -0.642844
vt 0.991900 -0.864800
vt 0.989260 -0.789468
vt 0.989400 -0.751500
vt 0.990300 -0.720000
vt 0.988578 -0.690131
vt 0.987300 -0.656000
vt 0.981501 -0.653584
vt 0.987427 -0.655937
vt 0.981000 -0.988800
vt 0.978700 -0.969500
vt 0.984992 -0.960310
vt 0.979871 -0.929317
vt 0.990257 -0.922650
vt 0.988630 -0.894650
vt 0.975702 -0.865600
vt 0.976770 -0.788603
vt 0.982881 -0.792895
vt 0.974157 -0.720350
vt 0.975976 -0.689396
vt 0.982883 -0.695457
vt 0.972604 -0.962078
vt 0.966970 -0.953616
vt 0.973054 -0.908949
vt 0.964300 -0.789528
vt 0.970348 -0.792935
vt 0.967409 -0.751391
vt 0.969639 -0.690897
vt 0.963571 -0.691270
vt 0.966478 -0.654424
vt 0.992056 -0.955488
vt 0.989260 -0.789468
vt 0.988578 -0.690131
vt 0.616653 -0.014390
vt 0.642994 -0.042736
vt 0.633481 -0.033455
vt 0.719782 -0.018652
vt 0.705424 -0.015041
vt 0.693866 -0.029441
vt 0.710169 -0.041115
vt 0.681678 -0.013186
vt 0.733498 -0.034262
vt 0.624167 -0.074159
vt 0.664100 -0.073500
vt 0.664314 -0.020542
vt 0.798274 -0.116070
vt 0.822742 -0.082533
vt 0.781131 -0.091022
vt 0.796815 -0.054236
vt 0.777000 -0.157200
vt 0.760423 -0.115130
vt 0.737671 -0.028701
vt 0.760078 -0.056563
vt 0.736538 -0.061329
vt 0.573908 -0.034771
vt 0.823700 -0.062600
vt 0.823580 -0.140562
vt 0.701470 -0.123356
vt 0.728943 -0.091126
vt 0.739231 -0.150027
vt 0.739116 -0.108806
vt 0.563892 -0.078429
vt 0.605222 -0.118829
vt 0.540982 -0.044690
vt 0.704896 -0.187387
vt 0.655695 -0.123906
vt 0.660400 -0.189600
vt 0.605380 -0.192251
vt 0.803486 -0.189563
vt 0.654821 -0.014915
vt 0.631409 -0.014594
vt 0.661246 -0.026803
vt 0.641061 -0.048652
vt 0.636743 -0.036702
vt 0.693866 -0.029442
vt 0.718200 -0.022700
vt 0.710170 -0.041114
vt 0.653271 -0.083947
vt 0.791270 -0.116906
vt 0.778837 -0.081963
vt 0.821054 -0.081700
vt 0.773948 -0.106946
vt 0.747738 -0.111417
vt 0.760078 -0.056563
vt 0.736538 -0.061329
vt 0.605848 -0.066398
vt 0.825356 -0.146953
vt 0.783631 -0.148604
vt 0.728956 -0.091111
vt 0.701534 -0.122769
vt 0.739695 -0.145761
vt 0.605222 -0.118829
vt 0.563891 -0.078430
vt 0.656600 -0.134300
vt 0.708012 -0.186779
vt 0.605378 -0.192251
vt 0.807916 -0.189537
vt 0.787910 -0.211599
vt 0.649586 -0.024434
vt 0.634700 -0.023198
vt 0.861894 -0.121728
vt 0.871260 -0.100639
vt 0.556038 -0.149974
vt 0.544411 -0.210996
vt 0.523051 -0.112138
vt 0.504487 -0.068160
vt 0.545204 -0.209949
vt 0.559195 -0.149107
vt 0.523979 -0.111691
vt 0.775700 -0.071700
vt 0.761979 -0.107838
vt 0.774562 -0.082686
vt 0.759100 -0.062200
vt 0.731300 -0.084300
vt 0.739256 -0.063462
vt 0.740221 -0.104406
vt 0.774563 -0.082686
vt 0.761979 -0.107838
vt 0.739256 -0.063462
vt 0.740220 -0.104405
vt 0.605938 -0.245101
vt 0.672239 -0.245257
vt 0.709700 -0.244600
vt 0.750159 -0.245650
vt 0.799703 -0.230363
vt 0.855300 -0.136100
vt 0.838164 -0.189536
vt 0.839800 -0.232100
vt 0.842572 -0.722723
vt 0.864968 -0.733361
vt 0.878499 -0.713021
vt 0.886780 -0.677101
vt 0.861549 -0.699029
vt 0.942473 -0.671999
vt 0.907800 -0.658400
vt 0.929600 -0.646700
vt 0.605933 -0.245101
vt 0.674768 -0.245217
vt 0.649500 -0.293800
vt 0.602381 -0.287782
vt 0.715074 -0.244741
vt 0.760000 -0.245900
vt 0.855000 -0.706800
vt 0.877769 -0.712614
vt 0.865061 -0.733395
vt 0.874400 -0.686000
vt 0.904679 -0.693450
vt 0.922300 -0.650600
vt 0.895200 -0.666900
vt 0.842200 -0.723200
vt 0.544782 -0.254638
vt 0.558135 -0.288084
vt 0.602569 -0.287793
vt 0.907959 -0.717729
vt 0.887467 -0.739974
vt 0.931145 -0.698066
vt 0.952564 -0.688778
vt 0.545306 -0.254626
vt 0.558550 -0.288147
vt 0.908100 -0.718800
vt 0.887268 -0.739880
vt 0.931022 -0.697947
vt 0.424600 -0.275000
vt 0.370848 -0.300802
vt 0.397900 -0.324300
vt 0.444200 -0.294000
vt 0.343900 -0.329900
vt 0.361400 -0.346300
vt 0.316500 -0.360800
vt 0.330386 -0.377187
vt 0.303500 -0.387300
vt 0.482800 -0.420300
vt 0.476200 -0.432900
vt 0.538799 -0.450797
vt 0.532793 -0.436093
vt 0.283200 -0.334900
vt 0.259700 -0.361500
vt 0.422364 -0.448330
vt 0.448288 -0.399496
vt 0.386331 -0.451663
vt 0.393900 -0.422700
vt 0.410600 -0.382500
vt 0.441800 -0.359800
vt 0.388900 -0.412200
vt 0.315300 -0.305400
vt 0.402700 -0.245000
vt 0.253100 -0.306400
vt 0.183471 -0.302938
vt 0.287000 -0.268400
vt 0.326000 -0.237000
vt 0.371700 -0.199300
vt 0.362072 -0.405029
vt 0.364470 -0.413944
vt 0.104307 -0.395394
vt 0.183121 -0.344314
vt 0.091780 -0.367965
vt 0.079300 -0.413400
vt 0.055668 -0.374468
vt 0.077700 -0.348200
vt 0.229700 -0.246900
vt 0.171400 -0.239600
vt 0.116300 -0.246700
vt 0.079200 -0.247500
vt 0.110000 -0.308100
vt 0.044500 -0.230200
vt 0.034708 -0.282580
vt 0.049636 -0.172341
vt 0.087700 -0.177600
vt 0.058700 -0.111500
vt 0.091814 -0.098856
vt 0.125400 -0.171400
vt 0.136500 -0.085700
vt 0.173700 -0.169500
vt 0.193300 -0.091200
vt 0.244000 -0.172200
vt 0.100300 -0.439100
vt 0.106551 -0.464322
vt 0.057168 -0.450909
vt 0.149300 -0.023400
vt 0.113800 -0.026100
vt 0.213400 -0.021800
vt 0.254200 -0.093800
vt 0.280100 -0.025700
vt 0.332984 -0.047008
vt 0.283800 -0.134500
vt 0.265900 -0.225100
vt 0.448900 -0.217400
vt 0.430900 -0.170900
vt 0.488749 -0.259076
vt 0.500600 -0.187800
vt 0.513088 -0.238530
vt 0.468367 -0.119505
vt 0.357363 -0.494773
vt 0.361113 -0.519889
vt 0.405900 -0.482100
vt 0.438400 -0.516700
vt 0.379400 -0.111400
vt 0.382300 -0.057600
vt 0.352300 -0.570700
vt 0.386900 -0.572700
vt 0.447600 -0.577600
vt 0.477100 -0.522100
vt 0.505600 -0.583600
vt 0.511400 -0.518700
vt 0.443900 -0.646400
vt 0.448051 -0.707272
vt 0.525300 -0.667000
vt 0.380600 -0.638200
vt 0.370302 -0.698949
vt 0.342600 -0.631300
vt 0.441353 -0.752945
vt 0.533400 -0.716400
vt 0.319392 -0.747640
vt 0.339753 -0.749516
vt 0.338493 -0.699662
vt 0.363500 -0.754000
vt 0.380900 -0.753900
vt 0.599504 -0.548976
vt 0.607200 -0.515900
vt 0.560897 -0.518875
vt 0.645400 -0.550100
vt 0.640736 -0.615400
vt 0.210300 -0.954100
vt 0.204500 -0.976000
vt 0.140879 -0.958403
vt 0.699000 -0.699500
vt 0.669500 -0.732200
vt 0.709100 -0.734900
vt 0.570200 -0.579600
vt 0.602540 -0.738148
vt 0.601400 -0.707200
vt 0.526949 -0.745191
vt 0.594000 -0.656100
vt 0.656025 -0.689969
vt 0.393500 -0.715900
vt 0.332900 -0.158200
vt 0.296800 -0.196700
vt 0.558602 -0.460321
vt 0.412400 -0.753900
vt 0.543248 -0.427522
vt 0.495700 -0.403600
vt 0.477600 -0.462000
vt 0.503000 -0.460400
vt 0.563774 -0.461928
vt 0.543136 -0.465440
vt 0.447700 -0.460700
vt 0.400515 -0.468980
vt 0.397900 -0.371200
vt 0.386500 -0.404400
vt 0.377500 -0.430500
vt 0.109300 -0.403500
vt 0.192580 -0.358178
vt 0.105700 -0.309500
vt 0.065900 -0.341000
vt 0.077151 -0.416506
vt 0.047200 -0.372600
vt 0.070300 -0.312200
vt 0.072400 -0.297200
vt 0.022300 -0.260900
vt 0.023300 -0.291200
vt 0.028500 -0.228300
vt 0.031669 -0.181212
vt 0.048600 -0.102100
vt 0.086500 -0.099700
vt 0.053300 -0.050100
vt 0.053800 -0.095100
vt 0.064300 -0.088500
vt 0.074755 -0.034768
vt 0.058300 -0.020000
vt 0.445540 -0.311884
vt 0.498400 -0.269900
vt 0.518100 -0.249000
vt 0.345062 -0.498464
vt 0.333122 -0.565342
vt 0.324164 -0.627393
vt 0.325429 -0.688786
vt 0.515300 -0.766900
vt 0.547600 -0.761900
vt 0.469600 -0.774700
vt 0.414600 -0.763973
vt 0.363100 -0.716900
vt 0.358200 -0.759100
vt 0.384900 -0.763800
vt 0.393900 -0.723400
vt 0.697134 -0.752977
vt 0.609682 -0.754284
vt 0.383357 -0.357378
vt 0.367736 -0.454366
vt 0.362517 -0.458343
vt 0.346450 -0.395654
vt 0.378000 -0.441500
vt 0.474329 -0.485923
vt 0.853400 -0.396000
vt 0.843245 -0.381339
vt 0.830963 -0.381561
vt 0.857526 -0.410250
vt 0.867339 -0.414310
vt 0.949654 -0.084841
vt 0.947518 -0.130693
vt 0.969600 -0.121800
vt 0.965600 -0.153000
vt 0.946000 -0.160400
vt 0.943700 -0.174100
vt 0.965244 -0.185262
vt 0.899956 -0.093415
vt 0.916100 -0.089400
vt 0.913800 -0.065800
vt 0.904700 -0.061100
vt 0.929400 -0.090000
vt 0.927100 -0.068100
vt 0.917900 -0.068400
vt 0.945951 -0.222706
vt 0.970100 -0.230200
vt 0.966861 -0.211922
vt 0.947600 -0.196000
vt 0.918889 -0.108963
vt 0.911490 -0.123110
vt 0.895052 -0.124302
vt 0.875163 -0.419471
vt 0.887800 -0.406800
vt 0.877430 -0.410691
vt 0.895905 -0.412913
vt 0.881900 -0.401200
vt 0.893200 -0.407600
vt 0.896900 -0.404800
vt 0.885200 -0.394400
vt 0.876400 -0.376000
vt 0.860182 -0.393435
vt 0.949100 -0.252500
vt 0.938600 -0.243200
vt 0.919000 -0.254000
vt 0.926500 -0.265600
vt 0.914000 -0.244200
vt 0.932200 -0.229600
vt 0.956000 -0.263100
vt 0.939100 -0.269500
vt 0.950247 -0.292804
vt 0.967025 -0.284706
vt 0.917000 -0.289600
vt 0.897856 -0.314820
vt 0.910200 -0.278700
vt 0.901400 -0.264400
vt 0.896100 -0.254600
vt 0.896200 -0.299900
vt 0.853400 -0.370600
vt 0.843700 -0.357000
vt 0.916870 -0.154366
vt 0.895312 -0.151820
vt 0.900622 -0.184344
vt 0.915296 -0.167753
vt 0.916200 -0.190300
vt 0.791088 -0.342415
vt 0.766336 -0.336581
vt 0.772513 -0.361777
vt 0.807030 -0.370644
vt 0.812825 -0.341906
vt 0.832800 -0.351100
vt 0.922900 -0.100900
vt 0.979400 -0.231300
vt 0.923051 -0.127688
vt 0.861300 -0.357100
vt 0.843387 -0.341310
vt 0.856727 -0.311433
vt 0.874400 -0.319300
vt 0.859600 -0.322400
vt 0.886000 -0.284200
vt 0.867807 -0.287538
vt 0.819400 -0.331200
vt 0.750386 -0.335263
vt 0.968500 -0.103100
vt 0.958100 -0.045000
vt 0.950800 -0.065900
vt 0.989561 -0.068350
vt 0.974600 -0.051400
vt 0.984400 -0.095600
vt 0.914279 -0.218205
vt 0.909300 -0.240500
vt 0.893300 -0.230100
vt 0.881700 -0.198200
vt 0.866400 -0.208600
vt 0.889400 -0.251600
vt 0.869900 -0.238000
vt 0.851400 -0.225900
vt 0.739192 -0.320317
vt 0.734800 -0.334700
vt 0.517000 -0.182200
vt 0.918800 -0.726900
vt 0.939300 -0.708400
vt 0.767000 -0.785200
vt 0.643000 -0.780800
vt 0.614300 -0.789100
vt 0.674200 -0.807900
vt 0.778800 -0.933800
vt 0.679400 -0.920300
vt 0.521700 -0.969200
vt 0.787742 -0.873963
vt 0.682200 -0.886600
vt 0.682800 -0.857100
vt 0.778000 -0.804000
vt 0.679200 -0.824100
vt 0.370957 -0.899357
vt 0.451225 -0.841735
vt 0.372800 -0.835500
vt 0.495236 -0.885792
vt 0.454037 -0.920110
vt 0.507800 -0.911300
vt 0.585200 -0.910600
vt 0.430744 -0.883608
vt 0.302100 -0.824600
vt 0.396881 -0.810014
vt 0.330060 -0.801184
vt 0.373600 -0.931500
vt 0.545700 -0.909400
vt 0.288066 -0.901362
vt 0.291300 -0.940100
vt 0.583900 -0.821300
vt 0.587700 -0.793700
vt 0.551400 -0.798900
vt 0.526851 -0.823926
vt 0.532000 -0.800000
vt 0.584300 -0.838500
vt 0.527306 -0.842562
vt 0.453672 -0.822649
vt 0.545400 -0.882600
vt 0.545300 -0.870500
vt 0.488972 -0.873357
vt 0.586300 -0.881200
vt 0.586300 -0.869000
vt 0.512400 -0.800300
vt 0.484200 -0.799400
vt 0.370957 -0.899357
vt 0.451225 -0.841735
vt 0.454037 -0.920110
vt 0.495236 -0.885792
vt 0.430744 -0.883608
vt 0.389480 -0.812058
vt 0.527306 -0.842562
vt 0.453672 -0.822649
vt 0.488972 -0.873357
vt 0.636300 -0.388200
vt 0.647167 -0.354813
vt 0.602803 -0.377519
vt 0.625342 -0.421563
vt 0.669748 -0.399023
vt 0.597900 -0.320000
vt 0.637200 -0.310000
vt 0.568900 -0.348300
vt 0.558000 -0.387300
vt 0.568000 -0.426600
vt 0.596400 -0.455500
vt 0.635400 -0.466500
vt 0.674700 -0.456400
vt 0.703700 -0.428100
vt 0.714600 -0.389100
vt 0.704500 -0.349900
vt 0.676200 -0.320900
vt 0.638100 -0.388200
vt 0.671597 -0.377520
vt 0.627193 -0.354813
vt 0.649019 -0.421562
vt 0.604652 -0.399022
vt 0.676500 -0.320000
vt 0.705500 -0.348300
vt 0.716400 -0.387300
vt 0.706300 -0.426600
vt 0.678000 -0.455500
vt 0.639000 -0.466500
vt 0.599700 -0.456400
vt 0.570700 -0.428100
vt 0.559800 -0.389100
vt 0.569800 -0.349900
vt 0.598200 -0.320900
vt 0.850475 -0.648938
vt 0.882200 -0.641200
vt 0.886900 -0.652400
vt 0.873277 -0.444555
vt 0.884300 -0.460600
vt 0.851069 -0.457535
vt 0.812666 -0.446473
vt 0.792500 -0.403200
vt 0.751176 -0.438025
vt 0.772917 -0.394276
vt 0.194766 -0.880237
vt 0.245996 -0.773020
vt 0.178223 -0.778642
vt 0.136900 -0.777600
vt 0.176600 -0.748100
vt 0.174429 -0.722840
vt 0.154400 -0.801300
vt 0.114100 -0.871800
vt 0.108600 -0.812600
vt 0.082595 -0.826218
vt 0.111534 -0.572440
vt 0.106551 -0.464323
vt 0.083696 -0.561482
vt 0.163700 -0.582100
vt 0.139074 -0.593568
vt 0.161217 -0.628326
vt 0.277000 -0.913000
vt 0.291101 -0.783896
vt 0.050183 -0.933597
vt 0.091533 -0.943802
vt 0.057168 -0.450909
vt 0.228139 -0.585052
vt 0.226100 -0.643100
vt 0.209100 -0.751900
vt 0.196900 -0.724700
vt 0.199000 -0.679800
vt 0.178096 -0.691828
vt 0.181724 -0.661905
vt 0.262600 -0.623800
vt 0.205752 -0.442370
vt 0.182642 -0.416513
vt 0.140879 -0.958403
vt 0.262900 -0.986805
vt 0.303190 -0.613839
vt 0.277500 -0.470200
vt 0.260088 -0.398033
vt 0.191300 -0.695900
vt 0.191300 -0.697400
vt 0.190700 -0.695300
vt 0.191200 -0.698900
vt 0.191600 -0.697400
vt 0.189179 -0.700925
vt 0.188805 -0.700884
vt 0.190401 -0.699698
vt 0.190400 -0.694400
vt 0.189600 -0.694200
vt 0.188500 -0.693200
vt 0.187365 -0.693282
vt 0.186500 -0.692800
vt 0.186565 -0.701689
vt 0.186910 -0.701398
vt 0.809856 -0.655156
vt 0.768554 -0.703669
vt 0.737600 -0.649500
vt 0.793300 -0.702700
vt 0.850694 -0.646173
vt 0.851069 -0.457535
vt 0.746811 -0.443585
vt 0.811300 -0.450200
vt 0.194766 -0.880237
vt 0.178223 -0.778642
vt 0.245996 -0.773020
vt 0.174429 -0.722840
vt 0.082595 -0.826218
vt 0.083696 -0.561482
vt 0.111533 -0.572440
vt 0.161217 -0.628326
vt 0.139074 -0.593568
vt 0.228139 -0.585052
vt 0.178096 -0.691828
vt 0.181724 -0.661905
vt 0.205752 -0.442370
vt 0.173200 -0.418900
vt 0.189500 -0.700800
vt 0.189100 -0.700800
vt 0.189144 -0.693934
vt 0.809400 -0.653900
vt 0.744483 -0.661898
s 1
usemtl Material__16
f 1/1/1 2/2/2 3/3/3
f 5/4/4 2/5/5 4/6/6
f 4/6/6 6/7/7 5/4/4
f 6/7/7 7/8/8 8/9/9
f 8/9/9 5/4/4 6/7/7
f 8/9/9 7/8/8 9/10/10
f 9/10/10 10/11/11 8/9/9
f 9/10/10 11/12/12 12/13/13
f 12/13/13 10/11/11 9/10/10
f 12/13/13 11/12/12 13/14/14
f 13/14/14 14/15/15 12/13/13
f 13/14/14 15/16/16 16/17/17
f 16/17/17 14/15/15 13/14/14
f 17/18/18 18/19/19 16/17/17
f 16/17/17 15/16/16 17/18/18
f 17/18/18 19/20/20 20/21/21
f 20/21/21 18/19/19 17/18/18
f 19/20/20 1/1/1 3/3/3
f 3/3/3 20/21/21 19/20/20
f 23/22/22 24/23/23 22/24/24
f 22/24/24 21/25/25 23/22/22
f 25/26/26 56/27/27 21/28/25
f 21/28/25 22/29/24 25/26/26
f 26/30/28 6/31/7 24/23/23
f 24/23/23 23/22/22 26/30/28
f 26/30/28 7/32/8 6/31/7
f 27/33/29 7/32/8 26/30/28
f 26/30/28 10/11/30 27/33/29
f 28/34/31 11/35/32 27/33/29
f 27/33/29 10/11/30 28/34/31
f 29/36/33 11/35/32 28/34/31
f 28/34/31 30/37/34 29/36/33
f 29/36/33 30/37/34 31/38/35
f 31/38/35 18/19/36 32/39/37
f 33/40/38 34/41/39 32/39/37
f 32/39/37 18/19/36 33/40/38
f 34/41/39 33/40/38 21/42/40
f 23/22/41 21/25/42 3/43/3
f 3/43/3 2/5/2 23/22/41
f 22/44/43 24/45/23 4/6/6
f 4/6/6 2/5/5 22/44/43
f 35/46/44 25/26/45 22/29/46
f 22/29/46 2/2/47 35/46/44
f 2/5/2 5/4/48 23/22/41
f 26/30/49 23/22/41 5/4/48
f 6/7/7 4/6/6 24/45/23
f 5/4/48 8/9/9 26/30/49
f 10/11/11 26/30/49 8/9/9
f 7/8/8 27/47/50 9/10/10
f 10/11/30 12/13/51 28/34/31
f 11/12/32 9/10/52 27/47/29
f 30/37/53 28/34/54 12/13/55
f 12/13/55 14/15/56 30/37/53
f 11/12/12 29/48/33 13/14/14
f 31/38/57 30/37/53 14/15/56
f 14/15/56 16/17/58 31/38/57
f 29/48/33 31/49/35 15/16/59
f 15/16/59 13/14/14 29/48/33
f 31/49/35 32/50/37 17/18/60
f 17/18/60 15/16/59 31/49/35
f 18/19/19 31/38/61 16/17/17
f 18/19/36 20/21/62 33/40/38
f 32/50/37 34/51/39 19/20/63
f 19/20/63 17/18/60 32/50/37
f 21/42/42 33/40/38 20/21/62
f 20/21/62 3/3/3 21/42/42
f 34/51/39 21/52/40 1/1/64
f 1/1/64 19/20/63 34/51/39
f 35/46/65 2/2/2 1/1/1
f 1/1/1 36/53/66 35/46/65
f 36/53/67 1/1/68 21/52/69
f 21/52/69 56/54/70 36/53/67
f 37/3/71 35/46/65 36/53/66
f 35/55/65 37/43/71 38/56/72
f 38/56/72 39/57/73 35/55/65
f 39/57/73 38/56/72 40/58/74
f 40/58/74 41/59/75 39/57/73
f 41/59/75 40/58/74 42/9/76
f 42/9/76 43/60/77 41/59/75
f 42/9/76 44/61/78 45/10/79
f 45/10/79 43/60/77 42/9/76
f 45/10/79 44/61/78 46/13/80
f 46/13/80 47/12/81 45/10/79
f 46/13/80 48/62/82 49/63/83
f 49/63/83 47/12/81 46/13/80
f 49/63/83 48/62/82 50/17/84
f 50/17/84 51/16/85 49/63/83
f 52/18/86 51/16/85 50/17/84
f 50/17/84 53/64/87 52/18/86
f 52/18/86 53/64/87 54/65/88
f 54/65/88 55/66/89 52/18/86
f 55/66/89 54/65/88 37/3/71
f 37/3/71 36/53/66 55/66/89
f 57/67/90 56/25/27 25/24/26
f 25/24/26 58/68/91 57/67/90
f 59/69/92 57/67/90 58/68/91
f 58/68/91 41/31/75 59/69/92
f 41/31/75 43/32/77 59/69/92
f 60/33/93 44/61/94 59/69/92
f 59/69/92 43/32/77 60/33/93
f 61/34/95 44/61/94 60/33/93
f 60/33/93 47/35/96 61/34/95
f 62/70/97 63/71/98 61/34/95
f 61/34/95 47/35/96 62/70/97
f 64/72/99 63/71/98 62/70/97
f 65/39/100 53/64/101 64/72/99
f 66/73/102 53/64/101 65/39/100
f 65/39/100 67/74/103 66/73/102
f 56/75/70 66/73/102 67/74/103
f 57/67/104 38/56/105 37/43/106
f 37/43/106 56/25/107 57/67/104
f 25/44/45 35/55/44 39/57/108
f 39/57/108 58/76/91 25/44/45
f 57/67/104 40/58/109 38/56/105
f 40/58/109 57/67/104 59/69/110
f 58/76/91 39/57/108 41/59/75
f 59/69/110 42/9/76 40/58/109
f 42/9/76 59/69/110 44/61/78
f 45/10/79 60/47/111 43/60/77
f 61/34/95 46/13/112 44/61/94
f 60/47/93 45/10/113 47/12/96
f 63/71/114 48/62/115 46/13/116
f 46/13/116 61/34/117 63/71/114
f 49/63/83 62/77/97 47/12/81
f 64/72/118 50/17/119 48/62/115
f 48/62/115 63/71/114 64/72/118
f 62/77/97 49/63/83 51/16/120
f 51/16/120 64/49/99 62/77/97
f 64/49/99 51/16/120 52/18/121
f 52/18/121 65/50/100 64/49/99
f 50/17/84 64/72/122 53/64/87
f 66/73/102 54/65/123 53/64/101
f 65/50/100 52/18/121 55/66/124
f 55/66/124 67/78/103 65/50/100
f 56/75/107 37/3/106 54/65/123
f 54/65/123 66/73/102 56/75/107
f 67/78/103 55/66/124 36/53/67
f 36/53/67 56/54/70 67/78/103
f 71/79/125 69/80/126 70/81/127
f 75/82/128 76/83/129 74/84/130
f 74/84/130 73/85/131 75/82/128
f 76/83/129 72/86/132 74/84/130
f 73/85/131 77/87/133 75/82/128
f 69/80/126 79/88/134 78/89/135
f 72/86/132 68/90/136 74/84/130
f 69/80/126 78/89/135 74/84/130
f 74/84/130 68/90/136 69/80/126
f 80/91/137 81/92/138 82/93/139
f 81/92/138 83/94/140 82/93/139
f 85/95/141 80/91/137 84/96/142
f 87/97/143 77/87/133 86/98/144
f 77/87/133 88/99/145 86/98/144
f 88/99/145 77/87/133 73/85/131
f 69/80/126 71/79/125 89/100/146
f 89/100/146 79/88/134 69/80/126
f 83/94/140 87/97/143 86/98/144
f 83/94/140 81/92/138 90/101/147
f 81/92/138 80/91/137 91/102/148
f 80/91/137 85/95/141 91/102/148
f 92/103/149 93/104/150 88/99/145
f 93/104/150 92/103/149 94/105/151
f 94/105/151 95/106/152 93/104/150
f 74/84/130 78/89/135 92/103/149
f 92/103/149 73/85/131 74/84/130
f 88/99/145 73/85/131 92/103/149
f 84/96/142 95/106/152 94/105/151
f 94/105/151 85/95/141 84/96/142
f 79/88/134 89/100/146 96/107/153
f 96/107/153 97/108/154 79/88/134
f 89/100/146 98/109/155 96/107/153
f 100/110/156 94/105/151 92/103/149
f 99/111/157 92/103/149 78/89/135
f 97/108/154 99/111/157 79/88/134
f 99/111/157 78/89/135 79/88/134
f 101/112/158 100/110/156 92/103/149
f 92/103/149 99/111/157 101/112/158
f 99/111/157 97/108/154 102/113/159
f 102/113/159 101/112/158 99/111/157
f 100/110/156 103/114/160 85/95/141
f 85/95/141 94/105/151 100/110/156
f 103/114/160 91/102/148 85/95/141
f 75/82/128 77/87/133 87/97/143
f 68/90/136 104/115/161 70/81/127
f 69/80/126 68/90/136 70/81/127
f 71/79/125 70/81/127 104/116/162
f 106/117/163 108/118/164 107/119/165
f 106/117/163 68/90/136 72/86/132
f 110/120/166 76/83/129 111/121/167
f 111/121/167 109/122/168 110/120/166
f 110/120/166 72/86/132 76/83/129
f 111/121/167 87/97/143 109/122/168
f 110/120/166 106/117/163 72/86/132
f 110/120/166 112/123/169 108/118/164
f 108/118/164 106/117/163 110/120/166
f 113/124/170 114/125/171 115/126/172
f 114/125/171 83/94/140 115/126/172
f 113/124/170 116/127/173 114/125/171
f 113/124/170 149/128/174 116/127/173
f 118/129/175 119/130/176 87/97/143
f 109/122/168 87/97/143 119/130/176
f 120/131/177 107/119/165 108/118/164
f 108/118/164 112/123/169 120/131/177
f 89/100/146 71/79/125 107/119/165
f 107/119/165 120/131/177 89/100/146
f 118/129/175 87/97/143 83/94/140
f 90/101/147 81/92/138 115/126/172
f 121/132/178 113/124/170 115/126/172
f 121/132/178 117/133/179 113/124/170
f 119/130/176 122/134/180 123/135/181
f 124/136/182 123/135/181 122/134/180
f 110/120/166 109/122/168 123/135/181
f 123/135/181 112/123/169 110/120/166
f 123/135/181 109/122/168 119/130/176
f 149/128/174 113/124/170 124/136/182
f 113/124/170 117/133/179 124/136/182
f 120/131/177 125/137/183 126/138/184
f 89/100/146 120/131/177 126/138/184
f 126/138/184 98/109/155 89/100/146
f 112/123/169 127/139/185 125/137/183
f 75/82/128 111/121/167 76/83/129
f 123/135/181 124/136/182 128/140/186
f 125/137/183 120/131/177 112/123/169
f 123/135/181 127/139/185 112/123/169
f 129/112/187 127/139/185 123/135/181
f 123/135/181 128/140/186 129/112/187
f 127/139/185 129/112/187 130/141/188
f 130/141/188 125/137/183 127/139/185
f 128/140/186 124/136/182 117/133/179
f 117/133/179 131/142/189 128/140/186
f 117/133/179 121/132/178 131/142/189
f 132/143/190 128/140/186 131/142/189
f 111/121/167 75/82/128 87/97/143
f 133/144/191 106/117/163 107/119/165
f 71/79/125 104/116/162 133/145/191
f 133/145/191 107/119/165 71/79/125
f 106/117/163 133/144/191 104/115/161
f 104/115/161 68/90/136 106/117/163
f 134/146/192 121/132/178 115/126/172
f 115/126/172 81/92/138 105/147/193
f 105/147/193 134/146/192 115/126/172
f 83/94/140 90/101/147 115/126/172
f 135/148/194 136/149/195 102/113/159
f 135/148/194 96/107/153 137/150/196
f 138/151/197 137/150/196 96/107/153
f 96/107/153 98/109/155 138/151/197
f 97/108/154 135/148/194 102/113/159
f 97/108/154 96/107/153 135/148/194
f 130/141/188 139/152/198 140/153/199
f 141/154/200 126/138/184 140/153/199
f 138/151/197 98/109/155 126/138/184
f 126/138/184 141/154/200 138/151/197
f 130/141/188 140/153/199 125/137/183
f 125/137/183 140/153/199 126/138/184
f 80/91/137 82/93/139 84/96/142
f 82/93/139 83/94/140 142/155/201
f 142/155/201 83/94/140 86/98/144
f 84/96/142 82/93/139 143/156/202
f 144/157/203 143/156/202 82/93/139
f 82/93/139 142/155/201 144/157/203
f 145/158/204 144/157/205 142/155/201
f 142/155/201 86/98/144 145/158/204
f 147/159/206 146/160/207 88/99/145
f 88/99/145 93/104/150 147/159/206
f 93/104/150 148/161/208 147/159/206
f 88/99/145 146/160/207 145/158/204
f 145/158/204 86/98/144 88/99/145
f 148/161/208 95/106/152 84/96/142
f 84/96/142 143/156/202 148/161/208
f 93/104/150 95/106/152 148/161/208
f 143/156/202 144/157/209 148/161/208
f 144/157/209 145/158/210 148/161/208
f 145/158/210 146/160/211 148/161/208
f 146/160/211 147/159/206 148/161/208
f 124/136/182 122/134/180 149/128/174
f 118/129/175 83/94/140 114/125/171
f 151/162/212 114/125/171 116/127/173
f 116/127/173 150/163/213 151/162/212
f 152/158/214 118/129/175 114/125/171
f 114/125/171 151/162/212 152/158/214
f 150/163/213 116/127/173 149/128/174
f 154/159/215 122/134/180 119/130/176
f 119/130/176 153/164/216 154/159/215
f 154/159/215 155/165/217 122/134/180
f 119/130/176 118/129/175 152/158/214
f 152/158/214 153/164/216 119/130/176
f 155/165/217 150/163/213 149/128/174
f 122/134/180 155/165/217 149/128/174
f 150/163/213 155/165/217 151/162/218
f 151/162/218 155/165/217 152/158/219
f 152/158/219 155/165/217 153/164/220
f 153/164/220 155/165/217 154/159/215
f 102/113/159 157/166/221 156/167/222
f 156/167/222 101/112/158 102/113/159
f 100/110/156 101/112/158 156/167/222
f 156/167/222 158/168/223 100/110/156
f 160/169/224 159/170/225 103/114/160
f 103/114/160 100/110/156 160/169/224
f 158/168/223 160/169/224 100/110/156
f 161/171/226 105/147/193 81/92/138
f 81/92/138 91/102/148 161/171/226
f 161/171/226 91/102/148 162/172/227
f 162/172/227 91/102/148 103/114/160
f 162/172/227 103/114/160 159/170/225
f 159/170/225 163/173/228 162/172/227
f 164/174/229 165/175/230 166/176/231
f 166/176/231 167/177/232 168/178/233
f 167/177/232 169/179/234 170/180/235
f 169/179/234 171/181/236 170/180/235
f 166/176/231 168/178/233 164/174/229
f 173/182/237 172/183/238 174/184/239
f 174/184/239 175/185/240 173/182/237
f 130/141/188 129/112/187 172/183/238
f 172/183/238 173/182/237 130/141/188
f 128/140/186 176/186/241 172/183/242
f 172/183/238 129/112/187 128/140/186
f 132/143/190 177/187/243 176/186/241
f 176/186/241 128/140/186 132/143/190
f 178/188/244 179/189/245 175/190/240
f 179/189/245 180/191/246 181/192/247
f 181/192/247 171/193/236 169/179/234
f 171/193/236 181/192/247 182/194/248
f 182/194/248 181/192/247 180/191/246
f 180/191/246 179/189/245 178/188/244
f 178/188/244 175/190/240 174/195/239
f 183/196/249 184/197/250 165/198/230
f 165/198/230 157/166/221 183/196/249
f 136/149/195 183/196/249 157/166/221
f 157/166/221 102/113/159 136/149/195
f 185/199/251 166/176/231 165/175/230
f 165/175/230 184/200/250 185/199/251
f 186/201/252 187/202/253 169/179/234
f 166/176/231 185/199/251 167/177/232
f 185/199/251 186/201/252 167/177/232
f 167/177/232 186/201/252 169/179/234
f 188/203/254 173/182/237 175/185/240
f 175/185/240 189/204/255 188/203/254
f 139/152/198 130/141/188 173/182/237
f 173/182/237 188/203/254 139/152/198
f 190/205/256 189/206/255 175/190/240
f 175/190/240 179/189/245 190/205/256
f 179/189/245 181/192/247 190/205/256
f 191/207/257 190/205/256 181/192/247
f 169/179/234 187/202/253 191/207/257
f 169/179/234 191/207/257 181/192/247
f 157/166/221 165/198/230 164/184/229
f 164/184/229 156/167/222 157/166/221
f 192/208/258 193/209/259 194/210/260
f 194/210/260 195/211/261 192/208/258
f 194/210/260 193/209/259 196/212/262
f 196/212/262 197/213/263 194/210/260
f 196/212/262 198/214/264 199/215/265
f 199/215/265 197/213/263 196/212/262
f 199/215/265 198/214/264 200/216/266
f 199/217/265 200/218/266 201/219/267
f 201/219/267 202/220/268 199/217/265
f 196/212/262 204/221/269 198/214/264
f 198/214/264 205/222/270 200/216/266
f 206/223/271 205/224/270 207/225/272
f 208/226/273 207/225/272 205/224/270
f 209/227/274 205/224/270 210/228/275
f 211/229/276 208/226/273 205/224/270
f 205/224/270 209/227/274 211/229/276
f 193/209/259 212/230/277 196/212/262
f 193/209/259 192/208/258 213/231/278
f 214/232/279 210/233/275 204/221/269
f 215/234/280 214/232/279 212/230/277
f 216/235/281 215/234/280 193/209/259
f 217/236/282 216/235/281 193/209/259
f 193/209/259 213/231/278 217/236/282
f 219/237/283 220/238/284 208/226/273
f 208/226/273 211/229/276 219/237/283
f 221/239/285 209/240/274 222/241/286
f 224/242/287 221/239/285 222/241/286
f 225/243/288 222/241/286 226/244/289
f 214/232/279 215/234/280 227/245/290
f 228/246/291 229/247/292 210/233/275
f 230/248/293 223/249/294 229/247/292
f 233/250/295 232/251/296 230/248/293
f 234/252/297 233/250/295 235/253/298
f 236/254/299 234/252/297 237/255/300
f 238/256/301 239/257/302 237/255/300
f 229/247/292 238/256/301 235/253/298
f 238/256/301 228/246/291 241/258/303
f 241/258/303 242/259/304 239/257/305
f 243/260/306 241/258/303 227/245/290
f 526/261/307 518/262/308 524/263/309
f 246/264/310 245/265/311 239/257/302
f 242/259/304 247/266/312 246/264/310
f 243/260/306 248/267/313 242/259/304
f 248/267/313 249/268/314 247/266/312
f 250/269/315 248/267/313 251/270/316
f 251/270/316 248/267/313 243/260/306
f 252/271/317 243/260/306 227/245/290
f 217/236/282 213/231/278 253/272/318
f 253/272/318 254/273/319 217/236/282
f 213/231/278 192/208/258 255/274/320
f 255/274/320 253/272/318 213/231/278
f 192/208/258 195/211/261 255/274/320
f 215/234/280 216/235/281 252/271/317
f 257/275/321 253/272/318 255/274/320
f 255/274/320 256/276/322 257/275/321
f 258/277/323 254/273/319 253/272/318
f 253/272/318 257/275/321 258/277/323
f 256/278/322 259/279/324 257/280/321
f 257/280/321 259/279/324 260/281/325
f 262/282/326 258/277/323 263/283/327
f 262/282/326 263/283/327 250/269/315
f 264/284/328 265/285/329 259/279/330
f 259/279/330 265/285/329 260/281/331
f 260/281/331 266/286/332 267/287/333
f 267/287/333 266/286/332 268/288/334
f 267/287/335 268/288/336 261/289/337
f 269/290/338 270/291/339 271/292/340
f 269/290/338 272/293/341 273/294/342
f 272/293/341 274/295/343 273/294/342
f 277/296/344 276/297/345 270/291/339
f 278/298/346 279/299/347 280/300/348
f 281/301/349 282/302/350 273/294/342
f 283/303/351 250/304/315 263/305/327
f 250/304/315 283/303/351 249/306/314
f 247/307/312 249/306/314 283/303/351
f 535/308/352 537/309/353 536/310/354
f 245/311/311 284/312/355 244/313/356
f 285/314/357 263/305/327 268/288/336
f 285/314/357 268/288/336 271/292/358
f 286/315/359 287/316/360 275/317/361
f 283/303/351 285/314/357 288/318/362
f 246/319/310 288/318/362 287/316/360
f 246/319/310 286/315/359 284/312/355
f 289/320/363 270/291/339 273/294/342
f 271/292/358 276/297/364 288/318/362
f 265/285/329 264/284/328 272/293/341
f 266/286/332 265/285/329 272/293/341
f 268/288/334 266/286/332 269/290/338
f 290/321/365 217/236/282 254/273/319
f 254/273/319 262/282/326 290/321/365
f 290/321/365 262/282/326 250/269/315
f 250/269/315 251/270/316 290/321/365
f 291/322/366 290/321/365 251/270/316
f 252/271/317 291/322/366 243/260/306
f 291/322/366 216/235/281 217/236/282
f 217/236/282 290/321/365 291/322/366
f 203/323/367 202/220/268 201/219/267
f 292/324/368 270/291/339 289/320/363
f 293/325/369 294/326/370 199/217/371
f 199/217/371 202/220/372 293/325/369
f 295/327/373 296/328/374 201/219/267
f 201/219/267 200/218/375 295/327/373
f 297/329/376 293/325/369 203/323/367
f 298/330/377 297/329/376 203/323/367
f 203/323/367 201/219/267 298/330/377
f 299/331/378 295/327/379 200/218/380
f 200/218/380 206/223/271 299/331/378
f 300/332/381 299/331/378 206/223/271
f 206/223/271 207/225/272 300/332/381
f 301/333/382 302/334/383 211/229/384
f 211/229/384 209/227/385 301/333/382
f 219/237/283 211/229/386 302/334/387
f 220/238/284 303/335/388 208/226/273
f 209/240/385 221/239/389 304/336/390
f 209/240/385 304/336/390 301/337/382
f 305/338/391 306/339/392 226/244/289
f 226/244/289 223/249/393 305/338/391
f 224/242/394 225/243/288 307/340/395
f 307/340/395 304/336/390 221/239/389
f 221/239/389 224/242/394 307/340/395
f 308/341/396 307/340/395 225/243/288
f 306/339/392 308/341/396 225/243/288
f 225/243/288 226/244/289 306/339/392
f 309/342/397 305/338/398 223/249/399
f 223/249/399 231/343/400 309/342/397
f 310/344/401 311/345/402 232/251/403
f 311/345/404 309/342/397 231/343/400
f 231/343/400 232/251/296 311/345/404
f 312/346/405 310/344/401 232/251/403
f 232/251/403 233/250/406 312/346/405
f 313/347/407 312/346/405 233/250/406
f 233/250/406 234/252/408 313/347/407
f 314/348/409 313/347/407 234/252/408
f 234/252/408 236/254/410 314/348/409
f 315/349/411 314/348/412 236/254/413
f 236/254/413 237/255/414 315/349/411
f 316/350/415 317/351/416 240/352/417
f 240/352/417 244/353/418 316/350/415
f 317/351/419 315/349/420 237/255/300
f 237/255/300 240/352/421 317/351/419
f 318/354/422 316/350/415 244/353/418
f 319/355/423 161/356/424 255/274/320
f 255/274/320 195/211/425 319/355/423
f 161/356/424 320/357/426 256/276/322
f 256/276/322 255/274/320 161/356/424
f 259/279/324 256/278/322 320/358/427
f 320/358/427 321/359/428 264/284/429
f 264/284/429 259/279/324 320/358/427
f 322/360/430 323/361/431 280/300/432
f 280/300/432 274/295/433 322/360/430
f 324/362/434 325/363/435 275/317/436
f 326/364/437 324/362/434 275/317/436
f 275/317/436 277/296/438 326/364/437
f 327/365/439 326/364/437 277/296/438
f 279/299/347 328/366/440 273/294/342
f 278/298/346 280/300/432 323/361/431
f 329/367/441 330/368/442 282/302/443
f 282/302/443 281/301/444 329/367/441
f 330/368/445 331/369/446 289/320/447
f 289/320/447 282/302/448 330/368/445
f 328/366/449 329/367/450 281/301/451
f 281/301/451 273/294/452 328/366/449
f 244/313/418 284/312/453 318/370/422
f 325/363/435 332/371/454 286/315/455
f 286/315/455 275/317/436 325/363/435
f 332/371/454 318/370/422 284/312/453
f 284/312/453 286/315/455 332/371/454
f 321/359/428 322/360/430 274/295/433
f 274/295/433 264/284/429 321/359/428
f 296/328/374 298/330/377 201/219/267
f 202/220/372 203/323/367 293/325/369
f 277/296/438 292/324/456 327/365/439
f 331/369/457 327/365/458 292/324/459
f 292/324/459 289/320/460 331/369/457
f 333/372/461 319/355/423 195/211/425
f 195/211/425 194/210/462 333/372/461
f 194/210/462 197/213/463 333/372/461
f 207/225/272 218/373/464 334/374/465
f 334/374/465 300/332/381 207/225/272
f 199/215/371 294/375/370 333/372/461
f 333/372/461 197/213/463 199/215/371
f 207/225/272 208/226/273 303/335/466
f 303/335/466 335/376/467 207/225/272
f 218/373/464 207/225/272 335/376/468
f 335/376/468 334/374/465 218/373/464
f 267/287/335 258/377/323 260/281/325
f 285/314/357 283/303/351 263/305/327
f 296/378/469 295/379/470 294/380/471
f 294/380/471 293/381/472 296/378/469
f 298/382/377 296/378/473 293/381/474
f 318/383/475 332/384/476 170/385/235
f 167/386/232 170/385/235 332/384/476
f 167/386/232 332/384/476 325/387/477
f 325/387/477 324/388/478 168/389/233
f 323/390/431 328/391/479 279/392/347
f 279/392/347 278/393/346 323/390/431
f 328/391/479 331/394/480 330/395/481
f 330/395/481 329/396/482 328/391/479
f 327/397/483 331/398/480 164/399/229
f 164/399/229 326/400/484 327/397/483
f 158/401/223 328/391/479 323/390/431
f 336/402/485 158/401/223 323/390/431
f 323/390/431 322/403/486 336/402/485
f 298/382/377 293/381/474 297/404/376
f 335/405/468 300/406/381 334/407/465
f 303/408/487 220/409/284 219/410/283
f 219/410/283 302/411/387 303/408/487
f 302/411/387 301/412/382 299/413/378
f 299/413/378 303/408/487 302/411/387
f 311/414/488 310/415/489 337/416/490
f 337/416/490 309/417/491 311/414/488
f 338/418/492 337/416/490 310/415/489
f 310/415/489 312/419/493 338/418/492
f 308/420/494 306/421/495 304/422/390
f 304/422/390 307/423/395 308/420/494
f 304/422/390 339/424/496 301/425/382
f 339/424/496 304/422/390 306/421/495
f 306/421/495 305/426/497 339/424/496
f 309/417/491 337/416/490 174/427/239
f 174/427/239 305/426/498 309/417/491
f 178/428/499 174/427/500 337/416/501
f 337/416/501 338/418/502 178/428/499
f 301/425/382 339/424/496 340/429/503
f 300/406/381 335/405/468 303/408/487
f 300/406/381 303/408/487 299/413/378
f 341/430/504 295/379/470 299/413/378
f 295/379/470 341/430/504 342/431/505
f 159/432/225 336/402/485 322/403/486
f 322/403/486 321/433/506 159/432/225
f 159/432/225 320/434/507 163/435/228
f 162/436/508 163/435/228 320/434/507
f 134/437/192 105/438/193 319/439/509
f 319/439/509 333/440/510 134/437/192
f 121/441/178 134/437/192 333/440/510
f 343/442/511 121/441/178 333/440/510
f 333/440/510 294/380/471 343/442/511
f 343/442/511 294/380/471 295/379/470
f 295/379/470 342/431/505 343/442/511
f 328/391/479 158/401/223 156/443/222
f 156/443/222 331/394/480 328/391/479
f 156/444/222 164/399/229 331/398/480
f 159/432/225 160/445/512 336/402/485
f 299/413/378 301/412/382 344/446/513
f 344/446/513 341/430/504 299/413/378
f 341/430/504 344/446/513 132/447/190
f 132/447/190 342/431/505 341/430/504
f 177/448/243 344/449/513 301/425/382
f 301/425/382 340/429/503 177/448/243
f 177/448/243 132/450/190 344/449/513
f 172/451/238 340/429/514 339/424/515
f 339/424/515 305/426/498 172/451/238
f 177/448/516 340/429/517 345/452/518
f 132/447/190 343/442/511 342/431/505
f 343/442/511 132/447/190 131/453/189
f 131/453/189 121/441/178 343/442/511
f 336/402/485 160/445/512 158/401/223
f 105/438/193 161/454/226 319/439/509
f 159/432/225 321/433/506 320/434/507
f 326/400/484 164/399/229 168/389/233
f 168/389/233 324/388/478 326/400/484
f 168/389/233 167/386/232 325/387/477
f 170/385/235 171/455/236 318/383/475
f 317/456/519 316/457/520 182/458/248
f 182/458/248 315/459/521 317/456/519
f 316/457/520 318/383/475 182/458/248
f 182/458/248 318/383/475 171/460/236
f 312/419/522 313/461/523 338/462/502
f 346/463/524 338/462/502 313/461/523
f 314/464/525 315/465/521 346/463/524
f 346/463/524 313/461/523 314/464/525
f 178/466/499 338/462/502 346/463/524
f 346/463/524 180/467/526 178/466/499
f 315/465/521 182/468/248 180/467/526
f 180/467/526 346/463/524 315/465/521
f 172/451/238 305/426/498 174/427/239
f 340/429/517 172/451/527 345/452/518
f 161/454/528 162/469/508 320/470/507
f 263/305/327 261/289/337 268/288/336
f 263/305/327 258/377/323 261/289/337
f 347/471/529 135/148/194 137/150/196
f 136/149/195 135/148/194 347/471/529
f 141/154/200 140/153/199 348/471/530
f 139/152/198 348/471/530 140/153/199
f 349/472/531 185/199/251 184/200/250
f 350/473/532 186/201/252 185/199/251
f 185/199/251 349/472/531 350/473/532
f 186/201/252 350/473/532 187/202/253
f 189/206/255 190/205/256 351/472/533
f 352/473/534 351/472/533 190/205/256
f 190/205/256 191/207/257 352/473/534
f 187/202/253 352/473/534 191/207/257
f 353/474/535 187/475/536 350/476/537
f 350/476/537 354/477/538 353/474/535
f 355/478/539 356/479/540 357/480/541
f 356/479/542 355/478/543 358/481/544
f 358/481/544 359/482/545 356/479/542
f 360/483/546 359/482/545 358/481/544
f 360/483/546 358/481/544 361/484/547
f 361/484/547 362/485/548 360/483/546
f 354/477/549 362/485/550 361/484/551
f 361/484/551 353/474/552 354/477/549
f 363/486/553 364/487/554 365/488/555
f 368/489/556 369/490/557 370/491/558
f 356/479/540 371/492/559 357/480/541
f 369/490/557 368/489/556 366/493/560
f 372/494/561 365/488/562 137/495/196
f 137/495/196 138/496/197 372/494/561
f 369/490/557 366/493/560 363/486/553
f 363/486/553 373/497/563 369/490/557
f 357/480/541 371/492/559 374/498/564
f 374/498/564 370/491/565 357/480/541
f 375/499/566 363/486/553 365/488/555
f 365/488/555 372/494/567 375/499/566
f 357/480/541 370/491/565 369/490/568
f 373/497/563 363/486/553 375/499/566
f 375/499/566 376/500/569 373/497/563
f 369/490/568 373/497/570 357/480/541
f 357/480/541 373/497/570 376/500/571
f 377/501/572 354/477/538 349/502/531
f 349/502/531 184/503/250 377/501/572
f 378/504/573 377/501/572 184/503/250
f 184/503/250 183/505/249 378/504/573
f 362/485/550 354/477/549 377/501/574
f 377/501/574 379/506/575 362/485/550
f 379/506/575 377/501/574 378/504/576
f 378/504/576 380/507/577 379/506/575
f 364/487/578 380/507/577 378/504/576
f 378/504/576 381/508/579 364/487/578
f 365/488/562 364/487/578 381/508/579
f 381/508/579 137/495/196 365/488/562
f 374/498/580 382/509/581 368/489/556
f 368/489/556 370/491/558 374/498/580
f 382/509/582 383/510/583 367/511/584
f 367/511/584 368/489/585 382/509/582
f 384/512/586 382/509/581 374/498/580
f 374/498/580 371/492/587 384/512/586
f 380/507/588 367/511/584 383/510/589
f 383/510/583 382/509/582 384/512/590
f 384/512/590 385/513/591 383/510/583
f 359/482/545 384/512/592 371/492/593
f 371/492/593 356/479/542 359/482/545
f 385/513/594 379/506/595 380/507/588
f 380/507/588 383/510/589 385/513/594
f 360/483/546 362/485/548 379/506/596
f 379/506/596 385/513/597 360/483/546
f 359/482/545 360/483/546 385/513/597
f 385/513/597 384/512/592 359/482/545
f 183/505/249 136/514/195 378/504/573
f 381/508/598 378/504/573 136/514/195
f 136/514/195 347/515/529 381/508/598
f 137/495/196 381/508/598 347/515/529
f 354/477/538 350/476/537 349/502/531
f 363/486/553 366/493/560 364/487/554
f 367/511/584 380/507/588 364/487/554
f 366/493/560 367/511/584 364/487/554
f 366/493/560 368/489/585 367/511/584
f 353/474/535 386/477/599 352/476/600
f 352/476/600 187/475/536 353/474/535
f 355/478/539 357/480/541 387/479/601
f 387/479/602 388/482/603 358/481/604
f 358/481/604 355/478/605 387/479/602
f 358/481/604 388/482/603 389/483/606
f 389/483/606 390/485/607 361/484/608
f 361/484/608 358/481/604 389/483/606
f 386/477/609 353/474/552 361/484/551
f 361/484/551 390/485/610 386/477/609
f 391/516/611 392/488/612 393/517/613
f 397/491/614 398/518/615 396/519/616
f 387/479/601 357/480/541 399/492/617
f 394/520/618 396/519/616 398/518/615
f 372/494/561 138/496/197 141/521/200
f 141/521/200 392/488/619 372/494/561
f 398/518/615 400/497/620 391/516/611
f 391/516/611 394/520/618 398/518/615
f 357/480/541 401/498/621 399/492/617
f 401/498/621 357/480/541 397/491/622
f 375/499/566 372/494/567 392/488/612
f 392/488/612 391/516/611 375/499/566
f 357/480/541 398/518/623 397/491/622
f 400/497/620 376/500/569 375/499/566
f 375/499/566 391/516/611 400/497/620
f 398/518/623 357/480/541 400/497/624
f 357/480/541 376/500/571 400/497/624
f 402/501/625 189/503/255 351/502/533
f 351/502/533 386/477/599 402/501/625
f 403/504/626 188/505/254 189/503/255
f 189/503/255 402/501/625 403/504/626
f 390/485/610 404/506/627 402/501/628
f 402/501/628 386/477/609 390/485/610
f 404/506/627 405/522/629 403/504/630
f 403/504/630 402/501/628 404/506/627
f 393/517/631 406/523/632 403/504/630
f 403/504/630 405/522/629 393/517/631
f 392/488/619 141/521/200 406/523/632
f 406/523/632 393/517/631 392/488/619
f 401/498/633 397/491/614 396/519/616
f 396/519/616 407/509/634 401/498/633
f 407/509/635 396/519/636 395/524/637
f 395/524/637 408/510/638 407/509/635
f 409/512/639 399/492/640 401/498/633
f 401/498/633 407/509/634 409/512/639
f 408/510/641 395/524/637 405/522/642
f 408/510/638 410/513/643 409/512/644
f 409/512/644 407/509/635 408/510/638
f 388/482/603 387/479/602 399/492/645
f 399/492/645 409/512/646 388/482/603
f 410/513/647 408/510/641 405/522/642
f 405/522/642 404/506/648 410/513/647
f 389/483/606 410/513/649 404/506/650
f 404/506/650 390/485/607 389/483/606
f 388/482/603 409/512/646 410/513/649
f 410/513/649 389/483/606 388/482/603
f 403/504/626 139/514/198 188/505/254
f 406/523/651 348/515/530 139/514/198
f 139/514/198 403/504/626 406/523/651
f 348/515/530 406/523/651 141/521/200
f 386/477/599 351/502/533 352/476/600
f 391/516/611 393/517/613 394/520/618
f 395/524/637 393/517/613 405/522/642
f 394/520/618 393/517/613 395/524/637
f 394/520/618 395/524/637 396/519/636
f 258/377/323 257/280/321 260/281/325
f 258/377/323 267/287/335 261/289/337
f 258/277/323 262/282/326 254/273/319
f 214/232/279 227/245/290 210/233/275
f 277/296/652 275/317/361 276/297/364
f 270/291/339 276/297/345 271/292/340
f 276/297/364 287/316/360 288/318/362
f 273/294/342 270/291/339 269/290/338
f 288/318/362 246/319/310 247/307/312
f 272/293/341 269/290/338 266/286/332
f 269/290/338 271/292/340 268/288/334
f 271/292/358 288/318/362 285/314/357
f 288/318/362 247/307/312 283/303/351
f 210/233/275 205/222/270 204/221/269
f 198/214/264 204/221/269 205/222/270
f 214/232/279 204/221/269 212/230/277
f 215/234/280 252/271/317 227/245/290
f 196/212/262 212/230/277 204/221/269
f 215/234/280 212/230/277 193/209/259
f 216/235/281 291/322/366 252/271/317
f 245/265/311 237/255/300 239/257/302
f 237/255/300 235/253/298 238/256/301
f 246/264/310 239/257/305 242/259/304
f 239/257/302 238/256/301 241/258/653
f 235/253/298 230/248/293 229/247/292
f 238/256/301 229/247/292 228/246/291
f 229/247/292 223/249/294 210/233/275
f 210/233/275 223/249/294 222/241/286
f 223/249/294 226/244/289 222/241/286
f 210/233/275 222/241/286 209/240/274
f 222/241/286 225/243/288 224/242/287
f 205/224/270 206/223/271 200/218/266
f 247/266/312 242/259/304 248/267/313
f 241/258/303 228/246/291 227/245/290
f 228/246/291 210/233/275 227/245/290
f 242/259/304 241/258/303 243/260/306
f 249/268/314 248/267/313 250/269/315
f 251/270/316 243/260/306 291/322/366
f 234/252/297 235/253/298 237/255/300
f 237/255/300 244/353/356 240/352/421
f 244/353/356 237/255/300 245/265/311
f 233/250/295 230/248/293 235/253/298
f 231/343/400 230/248/293 232/251/296
f 230/248/293 231/343/400 223/249/294
f 246/319/310 287/316/360 286/315/359
f 245/311/311 246/319/310 284/312/355
f 287/316/360 276/297/364 275/317/361
f 292/324/368 277/296/344 270/291/339
f 282/302/350 289/320/363 273/294/342
f 279/299/347 273/294/342 280/300/348
f 274/295/343 280/300/348 273/294/342
f 264/284/328 274/295/343 272/293/341
f 265/285/329 266/286/332 260/281/331
f 411/525/654 412/526/655 413/527/656
f 411/525/654 413/527/656 414/528/657
f 411/525/654 414/528/657 415/529/658
f 411/525/654 415/529/658 412/526/655
f 416/530/659 413/527/656 412/526/655
f 412/526/655 417/531/660 416/530/659
f 413/527/656 416/530/659 418/532/661
f 413/527/656 418/532/661 419/533/662
f 420/534/663 414/528/657 413/527/656
f 413/527/656 419/533/662 420/534/663
f 414/528/657 420/534/663 421/535/664
f 414/528/657 421/535/664 422/536/665
f 423/537/666 415/529/658 414/528/657
f 414/528/657 422/536/665 423/537/666
f 415/529/658 423/537/666 424/538/667
f 415/529/658 424/538/667 425/539/668
f 426/540/669 412/526/655 415/529/658
f 415/529/658 425/539/668 426/540/669
f 412/526/655 426/540/669 427/541/670
f 412/526/655 427/541/670 417/531/660
f 428/542/671 429/543/672 430/544/673
f 428/542/671 431/545/674 429/543/672
f 428/542/671 432/546/675 431/545/674
f 428/542/671 430/544/673 432/546/675
f 433/547/676 434/531/677 430/544/673
f 430/544/673 429/543/672 433/547/676
f 429/543/672 435/548/678 433/547/676
f 436/549/679 435/548/678 429/543/672
f 437/550/680 436/549/679 429/543/672
f 429/543/672 431/545/674 437/550/680
f 431/545/674 438/551/681 437/550/680
f 439/552/682 438/551/681 431/545/674
f 440/553/683 439/552/682 431/545/674
f 431/545/674 432/546/675 440/553/683
f 432/546/675 441/554/684 440/553/683
f 442/555/685 441/554/684 432/546/675
f 443/556/686 442/555/685 432/546/675
f 432/546/675 430/544/673 443/556/686
f 430/544/673 444/557/687 443/556/686
f 434/531/677 444/557/687 430/544/673
f 445/558/688 447/559/689 448/560/690
f 448/561/690 447/562/689 449/563/691
f 448/561/690 449/563/691 450/564/692
f 451/565/693 450/564/692 452/566/694
f 451/565/693 452/566/694 455/567/695
f 458/568/696 459/569/697 460/570/698
f 463/571/699 460/570/698 462/572/700
f 462/572/700 461/573/701 463/571/699
f 464/574/702 460/570/698 463/571/699
f 465/575/703 464/574/702 466/576/704
f 467/577/705 465/575/703 466/576/704
f 468/578/706 469/579/707 467/580/705
f 473/581/708 474/582/709 470/583/710
f 473/581/708 468/578/706 474/582/709
f 464/574/702 458/568/696 460/570/698
f 464/574/702 465/575/703 458/568/696
f 458/568/696 475/584/711 481/585/712
f 476/586/713 477/587/714 465/575/703
f 465/575/703 467/577/705 476/586/713
f 469/579/707 476/588/713 467/580/705
f 478/261/715 476/588/713 469/579/707
f 473/581/708 470/583/710 479/589/716
f 480/590/717 479/589/716 470/583/710
f 459/569/697 482/591/718 460/570/698
f 483/592/719 461/573/701 462/572/700
f 462/572/700 482/591/718 483/592/719
f 484/593/720 472/594/721 461/573/701
f 461/573/701 483/592/719 484/593/720
f 484/593/720 471/595/722 472/594/721
f 484/593/720 480/590/717 470/583/710
f 470/583/710 471/595/722 484/593/720
f 479/589/716 480/590/717 485/596/723
f 486/597/724 469/579/707 473/581/708
f 473/581/708 479/589/716 486/597/724
f 486/597/724 487/598/725 469/579/707
f 458/568/696 488/599/726 489/308/727
f 475/584/711 458/568/696 489/308/727
f 489/308/727 490/600/728 475/584/711
f 488/599/726 458/568/696 465/575/703
f 465/575/703 477/587/714 488/599/726
f 489/308/727 491/309/729 490/600/728
f 481/585/712 459/569/697 458/568/696
f 492/601/730 479/589/716 485/596/723
f 479/589/716 492/601/730 493/602/731
f 493/602/731 486/597/724 479/589/716
f 486/597/724 493/602/731 494/603/732
f 494/603/732 487/598/725 486/597/724
f 477/604/714 454/605/733 457/606/734
f 478/607/715 454/605/733 476/608/713
f 487/609/725 452/610/735 453/611/736
f 488/612/726 456/613/737 491/614/729
f 491/614/729 495/615/738 490/616/728
f 477/604/714 457/606/734 488/612/726
f 491/614/729 456/613/737 495/615/738
f 456/613/737 488/612/726 457/606/734
f 453/611/736 478/607/715 487/609/725
f 487/609/725 494/617/732 455/618/695
f 454/605/733 478/607/715 453/611/736
f 454/605/733 477/604/714 476/608/713
f 455/618/695 452/610/735 487/609/725
f 460/570/698 482/591/718 462/572/700
f 464/574/702 463/571/699 466/576/704
f 473/581/708 469/579/707 468/578/706
f 446/619/739 495/620/740 456/621/741
f 446/619/739 496/622/742 495/620/740
f 497/623/743 446/619/739 445/558/688
f 497/623/743 445/558/688 448/560/690
f 448/560/690 498/559/744 497/623/743
f 499/624/745 498/562/744 448/561/690
f 448/561/690 450/564/692 499/624/745
f 451/565/693 500/625/746 501/626/747
f 507/627/748 508/628/749 509/629/750
f 512/571/751 510/630/752 511/572/753
f 511/572/753 508/628/749 512/571/751
f 513/574/754 512/571/751 508/628/749
f 514/575/755 515/576/756 513/574/754
f 515/576/756 514/575/755 516/631/757
f 516/632/757 518/262/308 517/633/758
f 519/634/759 523/635/760 522/581/761
f 522/581/761 523/635/760 517/633/758
f 508/628/749 507/627/748 513/574/754
f 507/627/748 514/575/755 513/574/754
f 481/585/712 475/584/711 507/627/748
f 524/586/309 516/631/757 514/575/755
f 514/575/755 525/587/762 524/586/309
f 516/632/757 524/263/309 518/262/308
f 527/636/763 519/634/759 522/581/761
f 528/590/764 519/634/759 527/636/763
f 508/628/749 529/591/765 509/629/750
f 530/592/766 529/591/765 511/572/753
f 511/572/753 510/630/752 530/592/766
f 531/593/767 530/592/766 510/630/752
f 510/630/752 521/637/768 531/593/767
f 531/593/767 521/637/768 520/638/769
f 531/593/767 520/638/769 519/634/759
f 519/634/759 528/590/764 531/593/767
f 532/596/770 528/590/764 527/636/763
f 533/639/771 527/636/763 522/581/761
f 522/581/761 518/262/308 533/639/771
f 533/639/771 534/640/772 494/603/732
f 533/639/771 518/262/308 534/640/772
f 507/627/748 535/308/352 536/310/354
f 475/584/711 490/600/728 535/308/352
f 535/308/352 507/627/748 475/584/711
f 536/310/354 525/587/762 514/575/755
f 514/575/755 507/627/748 536/310/354
f 535/308/352 490/600/728 537/309/353
f 507/627/748 509/629/750 481/585/712
f 532/596/770 527/636/763 492/601/730
f 527/636/763 533/639/771 493/602/731
f 493/602/731 492/601/730 527/636/763
f 494/603/732 493/602/731 533/639/771
f 525/604/762 506/606/773 503/605/774
f 526/607/307 524/608/309 503/605/774
f 534/641/775 502/611/776 500/642/746
f 536/612/354 537/614/353 504/643/777
f 537/614/353 490/616/728 495/615/738
f 525/604/762 536/612/354 506/606/773
f 537/614/353 495/615/738 504/643/777
f 504/643/777 506/606/773 536/612/354
f 534/641/775 500/642/746 455/618/695
f 455/618/695 494/617/732 534/641/775
f 502/611/776 534/641/775 526/607/307
f 503/605/774 502/611/776 526/607/307
f 503/605/774 524/608/309 525/604/762
f 451/565/693 501/626/747 450/564/692
f 505/644/778 496/622/742 446/619/739
f 446/619/739 497/623/743 505/644/778
f 499/624/745 450/564/692 501/626/747
f 508/628/749 511/572/753 529/591/765
f 496/622/742 504/645/779 495/620/740
f 513/574/754 515/576/756 512/571/751
f 522/581/761 517/633/758 518/262/308
f 455/567/695 500/625/746 451/565/693
f 505/644/778 504/645/779 496/622/742
f 487/598/725 478/261/715 469/579/707
f 518/262/308 526/261/307 534/640/772
f 488/599/726 491/309/729 489/308/727
