# Blender 4.3.2
# www.blender.org
mtllib dannyphantom.mtl
o Cuerpo_DP
v -0.733975 0.397107 -0.112428
v -0.477540 0.629725 0.313842
v -0.840602 0.483768 -0.034422
v 0.000366 0.556849 0.481932
v -0.349368 -0.181799 0.320070
v 0.000366 -0.183263 0.456300
v -0.521118 -0.135659 0.054564
v -0.694509 0.370033 -0.242796
v -0.370974 -0.121007 -0.149046
v -0.261108 -0.701453 -0.060060
v 0.000366 -0.701453 -0.129270
v 0.000366 -0.121007 -0.217530
v 0.371706 -0.121007 -0.149046
v 0.261840 -0.701453 -0.060060
v 0.529176 -0.135659 0.054564
v 0.379392 -0.701453 0.096678
v 0.350100 -0.181799 0.320070
v 0.275388 -0.701453 0.291504
v 0.000366 -0.701453 0.398802
v -0.274290 -0.701453 0.291504
v -0.378660 -0.701453 0.096678
v -0.718943 0.419208 -0.413820
v -1.040542 0.573482 -0.104004
v -1.038524 0.564468 -0.413820
v -1.081221 0.596644 -0.268800
v -0.855608 0.505704 -0.456666
v -0.782958 0.876181 -0.410520
v -0.797976 0.922327 -0.261108
v -0.760986 0.876181 -0.088992
v 0.000366 0.649135 -0.436524
v -0.414918 0.731533 -0.424806
v 0.000366 0.909877 -0.365112
v -0.218994 0.984949 -0.280884
v -0.248658 0.931849 -0.020874
v 0.000366 0.902551 0.110232
v 0.000366 -0.975377 0.366576
v 0.266604 -0.975377 0.265134
v 0.364014 -0.975377 0.075438
v 0.253050 -0.975377 -0.061158
v 0.000366 -0.975377 -0.123414
v -0.252318 -0.975377 -0.061158
v -0.363282 -0.975377 0.075438
v -0.265872 -0.975377 0.265134
v -0.872682 1.870447 0.236940
v -0.892458 2.093467 0.402467
v -0.910764 2.134483 0.251951
v -1.084350 2.207725 0.165893
v -1.198608 2.133018 0.111330
v -1.215090 1.952479 0.119382
v -1.092774 1.808191 0.181638
v -0.949218 1.812582 0.242796
v 0.000000 1.808191 0.942258
v 0.090456 1.659511 0.945192
v 0.236940 1.662073 0.836790
v 0.309450 1.660975 0.880740
v 0.142824 2.186119 1.072631
v -0.117918 1.657309 1.021361
v -0.142824 2.186119 1.072631
v -0.309450 1.660975 0.880740
v -0.418212 2.192713 0.833494
v -0.382326 1.666831 0.655152
v -0.292968 1.666831 0.662478
v -0.236940 1.662073 0.836790
v -0.292968 1.814419 0.703860
v -0.090456 1.659511 0.945192
v 0.117918 1.657309 1.021361
v 0.418212 2.192713 0.833494
v 0.382326 1.666831 0.655152
v 0.292968 1.666831 0.662478
v 0.292968 1.814419 0.703860
v 0.970092 2.159023 -0.055662
v 0.944826 2.265589 0.115720
v 1.134888 2.969443 0.258544
v 0.893922 2.093467 0.402467
v 0.970824 2.739463 0.433594
v -0.536502 3.312582 -0.901616
v 0.000366 1.535365 -0.388548
v 0.178344 3.312582 -1.014038
v 0.344970 1.723963 -0.392946
v 0.825072 1.915855 -0.281250
v 0.865356 3.312582 -0.692876
v 1.208130 3.332725 0.007324
v 1.249878 3.379237 0.775996
v 1.057620 2.940517 0.884764
v 1.300782 3.180751 1.267822
v 1.213626 2.699917 1.334470
v 1.516848 2.694055 1.564450
v 1.600344 2.320519 1.677245
v 1.005984 3.409999 0.071044
v 1.008180 3.518029 0.081298
v 1.219482 3.564907 0.706420
v 1.397826 3.486901 1.012204
v 1.396363 3.327601 1.010374
v 1.652347 3.147793 1.297120
v 0.480834 3.676963 0.631348
v 1.080324 3.651331 0.951778
v 0.221556 3.613243 0.867916
v 0.636108 3.858606 0.884764
v 0.670164 3.366421 -0.604982
v -0.009156 3.534145 0.480100
v -0.233640 3.331627 1.319824
v 0.490356 3.452479 1.431148
v 0.562866 2.987755 1.741696
v 1.061281 3.096523 1.738768
v 1.190550 2.632165 1.798829
v 1.400389 2.712001 1.761838
v 0.951049 3.383629 1.358638
v -1.026858 3.312582 -0.544556
v -1.269288 3.312582 -0.133304
v -1.301514 3.312217 0.321166
v -1.133424 3.266809 0.856564
v -0.618894 3.072349 1.371826
v -0.031860 2.990683 1.616818
v -0.077268 2.746789 1.661866
v 0.171384 2.544277 1.700681
v 0.085692 2.855551 1.427854
v 0.505374 2.813071 1.633666
v 1.129392 2.587489 1.742428
v 0.971923 3.599329 1.247680
v 1.347288 3.432337 1.331908
v 1.304443 3.249229 1.426024
v -0.449340 2.293789 1.115844
v -0.560304 2.352745 1.007082
v -0.610476 2.276209 0.989135
v -0.417480 2.169643 1.148802
v -0.534300 2.201503 1.086912
v -0.633546 2.185753 0.979247
v -0.487062 2.405113 1.031614
v -0.622926 2.093467 0.979613
v -0.521484 2.105923 1.088009
v -0.577146 2.011435 0.991331
v -0.505374 1.951381 1.011840
v -0.450072 2.043667 1.108152
v -0.420774 1.921351 1.037112
v -0.331788 1.925377 1.064939
v -0.357786 2.047693 1.137084
v -0.250488 1.962367 1.091310
v -0.187500 2.028283 1.111817
v -0.292602 2.115805 1.158324
v -0.151248 2.113243 1.123536
v -0.147216 2.206261 1.126098
v -0.288576 2.212123 1.161623
v -0.175416 2.294887 1.119503
v -0.233274 2.367031 1.105224
v -0.347898 2.286829 1.145874
v -0.311646 2.412805 1.084349
v -0.400266 2.425987 1.058716
v 0.926148 2.177695 0.232542
v 0.937500 2.178427 0.158202
v 1.027224 2.229697 0.102172
v 0.917724 2.107021 0.100710
v 1.139646 2.150233 0.023802
v 1.139280 1.940761 0.029298
v 0.888426 1.979209 0.084228
v 1.013670 1.779625 0.113526
v 0.857298 1.821739 0.185670
v 0.997560 1.796839 0.223386
v 1.144776 1.834555 0.158934
v 1.216554 1.952479 0.119382
v 1.200072 2.133018 0.111330
v 1.085814 2.207725 0.165893
v 0.912234 2.134483 0.251951
v 0.934572 2.144005 -0.025632
v 0.874146 1.870447 0.236940
v 0.871584 2.754115 0.736816
v 0.598752 1.584799 0.706421
v 0.751830 2.109949 0.843749
v 0.703860 2.454187 0.945556
v 0.485964 2.738731 1.027588
v 0.282348 1.391443 0.757692
v 0.443850 1.635337 0.913332
v 0.617064 2.050255 0.997193
v 0.634278 2.192347 1.004148
v 0.600222 2.293423 1.025022
v 0.528078 2.385337 1.051390
v 0.417846 2.431849 1.085081
v 0.297732 2.409877 1.121705
v 0.546018 1.967125 1.012572
v 0.437988 1.921717 1.048097
v 0.318972 1.935631 1.096799
v 0.000000 2.639491 1.187620
v 0.095214 2.441370 1.164916
v 0.221556 2.342857 1.136718
v 0.162966 2.210293 1.150998
v 0.176880 2.072227 1.138914
v 0.109500 1.820275 1.094970
v 0.230712 1.986535 1.117308
v 0.235110 1.682215 1.008911
v 0.246462 1.665367 0.998292
v 0.229248 1.648891 0.996096
v 0.119016 1.646689 1.026492
v 0.000366 1.343101 0.775998
v 0.000366 1.647055 1.040040
v -0.118284 1.646689 1.026492
v -0.281250 1.391443 0.757692
v -0.094116 2.441370 1.164916
v 0.130374 1.682581 1.034544
v 0.000366 1.682581 1.056516
v -0.108396 1.820275 1.094970
v -0.129636 1.682581 1.034544
v -0.234378 1.682215 1.008911
v -0.228516 1.648891 0.996096
v -0.443118 1.635337 0.913332
v -0.245730 1.665367 0.998292
v -0.318240 1.935631 1.096799
v -0.227052 1.989463 1.118406
v -0.176148 2.072227 1.138914
v -0.162234 2.210293 1.150998
v -0.221556 2.342857 1.136718
v -0.297000 2.409877 1.121705
v -0.514524 2.696617 1.034908
v -0.417114 2.431849 1.085081
v -0.703128 2.454187 0.945556
v -0.527346 2.385337 1.051390
v -0.599490 2.293423 1.025022
v -0.437256 1.921717 1.048097
v -0.541992 1.965295 1.012572
v -0.616332 2.050255 0.997193
v -0.869748 2.728477 0.754390
v -0.750366 2.105551 0.843749
v -0.598020 1.584799 0.706421
v -0.683352 1.537561 0.475344
v -0.275388 1.337977 0.647826
v -0.969360 2.739463 0.433594
v -0.633546 2.192347 1.004148
v 0.000366 1.272055 0.685914
v 0.276126 1.337977 0.647826
v 0.684084 1.537561 0.475344
v 0.873414 1.865683 -0.154176
v 0.808962 1.900843 -0.242796
v 0.759888 1.778527 -0.198852
v 0.547854 1.499839 0.280884
v 0.166260 1.477867 0.023070
v 0.000366 1.352989 0.331788
v 0.000366 1.427329 0.106566
v -0.165528 1.477867 0.023070
v -0.547122 1.504603 0.280884
v -0.759156 1.778527 -0.198852
v -0.872316 1.865683 -0.154176
v -0.933108 2.144005 -0.025632
v -0.935670 2.178427 0.158202
v -0.942996 2.265589 0.115720
v -0.924684 2.177695 0.232542
v 0.227052 1.576381 -0.262572
v -0.805662 1.900843 -0.242796
v -0.327024 1.717369 -0.350100
v -0.226320 1.576381 -0.262572
v 0.000366 1.528771 -0.352296
v 0.335814 1.721035 -0.349734
v 0.000366 1.165855 -0.329592
v -0.166626 1.169887 -0.246828
v -0.217896 1.132165 -0.042114
v 0.000366 1.087855 0.104004
v 0.218628 1.132165 -0.042114
v 0.167358 1.169887 -0.246828
v 0.516360 2.246545 1.094238
v 0.611574 2.276209 0.989135
v 0.561036 2.352745 1.007082
v 0.418212 2.169643 1.148802
v 0.428466 2.298913 1.122804
v 0.487794 2.405113 1.031614
v 0.401370 2.425987 1.058716
v 0.312378 2.412805 1.084349
v 0.312378 2.255335 1.155761
v 0.234006 2.367031 1.105224
v 0.176148 2.294887 1.119503
v 0.282714 2.163415 1.162356
v 0.147948 2.206261 1.126098
v 0.151980 2.113243 1.123536
v 0.320070 2.075161 1.149534
v 0.188232 2.028283 1.111817
v 0.251220 1.962367 1.091310
v 0.404298 2.036707 1.122437
v 0.332520 1.925377 1.064939
v 0.421506 1.921351 1.037112
v 0.491820 2.067835 1.096068
v 0.506106 1.951381 1.011840
v 0.537234 2.152429 1.084715
v 0.577878 2.011435 0.991331
v 0.623658 2.093467 0.979613
v 0.634278 2.185753 0.979247
v 0.716310 2.596279 0.942622
v 0.716676 2.389003 0.941890
v 0.716676 2.588221 1.042600
v 0.717408 2.412439 1.042600
v 0.126708 2.549035 1.163086
v 0.127074 2.340661 1.153200
v 0.127806 2.540977 1.245119
v 0.128538 2.365561 1.244748
v -0.127074 2.540977 1.245119
v -0.718506 2.588221 1.042600
v -0.125976 2.549035 1.163086
v -0.717774 2.596279 0.942622
v 0.249390 0.931849 -0.020874
v 0.219726 0.984949 -0.280884
v -0.855834 1.821739 0.185670
v -1.012206 1.779625 0.113526
v -0.886962 1.979209 0.084228
v -1.137450 1.940761 0.029298
v -0.916260 2.107021 0.100710
v -1.138182 2.150233 0.023802
v -1.025754 2.229697 0.102172
v -1.138182 2.969443 0.258544
v -0.967530 2.159023 -0.055662
v -0.820680 1.915855 -0.281250
v -0.329958 1.718101 -0.392946
v -0.987672 2.849329 0.788086
v -0.566892 2.774989 1.177366
v -0.147948 2.699917 1.477660
v 0.291870 -1.384439 0.188598
v 0.192996 -1.431677 0.286746
v 0.000366 -1.550699 0.299562
v -0.075072 -1.736729 -0.039918
v -0.020142 -1.727573 0.164796
v 0.000366 -1.704503 -0.047610
v 0.000366 -1.690223 0.216432
v -0.088992 -1.618811 0.274656
v -0.192258 -1.431677 0.286746
v -0.291138 -1.384439 0.188598
v -0.351564 -1.437539 0.046506
v -0.237306 -1.453649 -0.077634
v -0.292968 -1.573403 -0.062622
v -0.150510 -1.594643 -0.093750
v -0.191160 -1.468667 0.287844
v -0.291138 -1.405679 0.185304
v 0.000366 -1.654697 -0.092652
v 0.000366 -1.517003 -0.098874
v -0.168822 -1.698281 -0.097410
v 0.151248 -1.594643 -0.093750
v 0.238038 -1.453649 -0.077634
v 0.000366 1.922083 1.303710
v 0.119016 1.659145 1.034178
v 0.000366 1.659145 1.047732
v 0.234378 1.576747 0.537966
v 0.000366 1.643395 0.502074
v -0.118284 1.659145 1.034178
v -0.233640 1.576747 0.537966
v 0.000366 1.753627 0.497316
v -0.392580 2.166343 0.810425
v -0.127440 2.365561 1.244748
v -0.126342 2.340661 1.153200
v -0.718872 2.412439 1.042967
v -0.718506 2.389003 0.941890
v -0.522948 2.462245 1.028686
v -0.385986 2.539147 1.077755
v -0.626220 2.417562 0.926878
v -0.096312 2.523403 0.992428
v -0.255252 2.573203 1.058716
v 0.228150 1.661341 1.000121
v 0.230346 1.667563 1.001585
v 0.130374 1.670497 1.029054
v -0.129636 1.670497 1.029054
v -0.229614 1.667563 1.001585
v -0.227418 1.661341 1.000121
v 0.000366 1.670497 1.050294
v 0.292602 2.573203 1.058716
v 0.133668 2.523403 0.992428
v 0.423342 2.539147 1.077755
v 0.663576 2.417562 0.926878
v 0.560304 2.462245 1.028686
v 0.079104 1.938559 1.138182
v 0.000000 1.966759 1.157225
v -0.070680 1.938559 1.138182
v 0.595824 2.541343 0.949216
v 0.518922 2.680140 0.859498
v 0.453000 2.587855 1.018433
v 0.397704 2.718955 0.881104
v 0.307986 2.659633 0.980344
v 0.680052 2.483851 0.839356
v 0.599856 2.660731 0.642700
v 0.331422 2.768761 0.663208
v 0.165528 2.701015 0.808960
v 0.393678 2.166343 0.810425
v -0.558474 2.541343 0.949216
v -0.642702 2.483851 0.839356
v -0.562500 2.660731 0.642700
v -0.481566 2.680140 0.859498
v -0.294066 2.768761 0.663208
v -0.360354 2.718955 0.881104
v -0.128172 2.701015 0.808960
v -0.270630 2.659633 0.980344
v -0.415650 2.587855 1.018433
v 0.415650 0.731533 -0.424806
v 0.089724 -1.618811 0.274656
v 0.191892 -1.468667 0.287844
v 0.020874 -1.727573 0.164796
v 0.075804 -1.736729 -0.039918
v 0.169554 -1.698281 -0.097410
v 0.293700 -1.573403 -0.062622
v 0.352296 -1.437539 0.046506
v 0.291870 -1.405679 0.185304
v 0.478272 0.629725 0.313842
v 0.761718 0.876181 -0.088992
v 0.750204 0.529815 -0.034422
v 0.954419 0.609321 -0.104004
v 0.798708 0.922327 -0.261108
v 0.639342 0.448643 -0.112428
v 0.598555 0.423602 -0.242796
v 0.996215 0.630400 -0.268800
v 0.783690 0.876181 -0.410520
v 0.951948 0.600419 -0.413820
v 0.766299 0.550966 -0.456666
v 0.625441 0.471480 -0.413820
vn -0.3856 -0.3823 0.8398
vn -0.4837 0.2039 0.8511
vn -0.5619 0.3991 0.7245
vn -0.0025 0.3269 0.9451
vn -0.7111 -0.6761 -0.1931
vn -0.7261 -0.4460 0.5233
vn -0.6835 -0.1877 -0.7054
vn -0.7555 -0.3968 -0.5213
vn -0.6678 0.2063 -0.7152
vn -0.2516 -0.1068 -0.9619
vn -0.0000 -0.3996 -0.9167
vn 0.2091 -0.6337 -0.7448
vn 0.2081 -0.1349 -0.9687
vn 0.6770 -0.7312 -0.0836
vn 0.7322 -0.1870 -0.6549
vn 0.6579 -0.3995 0.6383
vn 0.8904 -0.1240 0.4380
vn 0.4039 -0.1193 0.9070
vn -0.4726 0.2176 0.8540
vn -0.8666 0.4925 -0.0803
vn -0.5381 0.0800 -0.8391
vn -0.7057 0.6249 0.3338
vn -0.1591 0.3399 0.9269
vn -0.7371 0.6758 0.0024
vn 0.1331 -0.3330 -0.9335
vn -0.3020 0.1280 -0.9447
vn -0.1984 -0.1632 -0.9664
vn 0.2623 0.4741 -0.8405
vn -0.0000 0.0546 -0.9985
vn -0.6748 0.0550 -0.7360
vn 0.0815 0.9225 0.3773
vn -0.4580 0.8888 0.0178
vn -0.4006 0.6038 0.6891
vn 0.6350 0.2846 0.7182
vn 0.2194 0.0036 -0.9756
vn 0.1574 0.1611 -0.9743
vn -0.1137 -0.6497 0.7516
vn -0.7609 0.6208 -0.1886
vn 0.3135 -0.0853 0.9458
vn 0.8378 0.4683 0.2808
vn -0.5152 0.3452 -0.7845
vn -0.8052 0.5917 -0.0392
vn -0.6348 0.2850 0.7182
vn -0.8480 -0.4864 0.2106
vn -0.9010 -0.0908 0.4242
vn -0.9683 -0.0811 0.2361
vn -0.5302 -0.2729 0.8027
vn 0.6503 -0.1164 0.7507
vn -0.5362 -0.4739 0.6985
vn 0.4024 -0.5540 -0.7288
vn 0.1385 -0.9871 0.0803
vn -0.2795 -0.6801 0.6777
vn -0.3178 0.2592 0.9121
vn -0.2700 0.2367 0.9333
vn 0.2816 -0.5108 0.8122
vn -0.8319 0.1543 0.5330
vn 0.5560 -0.8071 -0.1985
vn -0.0837 -0.9909 -0.1056
vn -0.0866 -0.9742 -0.2082
vn 0.7582 -0.4346 -0.4860
vn -0.2876 -0.5496 -0.7844
vn 0.3703 -0.0947 -0.9241
vn -0.6195 0.2119 -0.7558
vn -0.0242 -0.9871 0.1583
vn 0.9797 0.0272 0.1988
vn 0.8641 -0.4921 0.1056
vn 0.9920 -0.1139 0.0551
vn 0.7494 -0.5989 0.2823
vn 0.0867 -0.0564 -0.9946
vn 0.1582 0.2539 -0.9542
vn -0.1947 -0.8665 -0.4596
vn 0.0157 -0.8093 -0.5872
vn 0.8982 0.4259 0.1093
vn 0.8187 -0.3393 -0.4633
vn 0.6509 -0.7222 -0.2340
vn 0.7366 -0.6589 -0.1523
vn 0.6569 -0.5122 -0.5534
vn 0.8164 0.1409 -0.5601
vn 0.9579 -0.1427 -0.2491
vn 0.4955 -0.6384 -0.5889
vn 0.2974 0.9262 -0.2316
vn 0.2795 0.4097 -0.8684
vn 0.1079 0.9743 0.1978
vn 0.8414 0.5119 0.1733
vn 0.2881 0.9398 0.1836
vn 0.0269 0.9880 -0.1518
vn 0.9265 0.3763 0.0056
vn 0.0056 0.9688 0.2478
vn 0.1588 0.9731 0.1670
vn 0.0225 0.5269 0.8496
vn 0.2205 0.1776 0.9591
vn -0.1567 0.8102 0.5648
vn 0.3477 -0.0984 0.9324
vn 0.1157 0.6914 0.7132
vn 0.6953 -0.4822 0.5329
vn 0.5049 0.5275 0.6832
vn -0.2827 0.6277 -0.7253
vn -0.7432 0.5209 -0.4199
vn -0.7388 0.6611 -0.1308
vn -0.8171 0.5572 0.1479
vn -0.4868 0.7286 0.4819
vn -0.1001 0.5342 0.8394
vn -0.3320 0.4171 0.8460
vn -0.2369 0.7574 0.6085
vn 0.1431 -0.5619 0.8148
vn 0.1624 0.9842 0.0704
vn -0.0977 0.9951 0.0129
vn 0.1067 0.9673 0.2300
vn 0.9248 -0.2953 -0.2400
vn -0.0677 -0.4245 0.9029
vn -0.5620 0.4022 0.7228
vn -0.6336 0.3435 0.6932
vn -0.7326 0.2507 0.6328
vn -0.3554 0.1983 0.9134
vn -0.4163 0.0396 0.9083
vn -0.8013 0.0083 0.5982
vn -0.4731 0.5128 0.7164
vn -0.7624 -0.2100 0.6121
vn -0.4212 -0.1073 0.9006
vn -0.6562 -0.4121 0.6321
vn -0.5035 -0.5338 0.6794
vn -0.3405 -0.1803 0.9228
vn -0.2293 -0.1687 0.9586
vn 0.1027 -0.5091 0.8546
vn 0.2374 -0.3442 0.9084
vn -0.0882 -0.3319 0.9392
vn 0.3297 -0.1359 0.9343
vn 0.3248 0.0672 0.9434
vn 0.0692 -0.1270 0.9895
vn 0.2652 0.2752 0.9241
vn -0.2163 0.1138 0.9697
vn 0.1272 0.4235 0.8969
vn -0.0548 0.5440 0.8373
vn -0.2701 0.5433 0.7949
vn 0.9164 0.3901 0.0900
vn -0.8272 0.5613 0.0262
vn 0.6201 0.7749 -0.1222
vn -0.6600 0.2148 -0.7199
vn -0.5476 0.3946 -0.7378
vn -0.4555 -0.2046 -0.8664
vn -0.5534 -0.0013 -0.8329
vn -0.5466 -0.3370 -0.7666
vn -0.8739 -0.4859 -0.0150
vn -0.5711 -0.5856 0.5752
vn 0.9967 0.0286 0.0765
vn 0.8480 -0.4864 0.2106
vn 0.9074 0.1958 0.3719
vn 0.8533 -0.1997 0.4817
vn 0.3474 -0.7036 0.6199
vn 0.6086 -0.7692 0.1945
vn 0.9017 -0.0072 0.4324
vn 0.7019 -0.1639 0.6932
vn 0.4592 -0.7622 0.4563
vn 0.5571 -0.6436 0.5248
vn 0.5164 -0.4938 0.6996
vn 0.3569 -0.7055 0.6123
vn 0.7469 0.0463 0.6634
vn 0.6974 -0.3995 0.5950
vn 0.1377 0.0582 0.9888
vn 0.1769 -0.2464 0.9529
vn 0.5136 0.3600 0.7789
vn 0.2009 0.5463 0.8131
vn 0.3299 -0.0316 0.9435
vn 0.0230 0.5247 0.8510
vn 0.2614 -0.3353 0.9051
vn -0.1514 -0.1813 0.9717
vn 0.0525 -0.5864 0.8083
vn -0.0000 -0.6887 0.7251
vn 0.0507 -0.6078 0.7925
vn -0.2035 -0.6564 0.7265
vn -0.1128 -0.8107 0.5746
vn -0.1766 -0.6841 0.7077
vn 0.0938 -0.0369 0.9949
vn 0.2464 -0.3903 0.8871
vn 0.1646 -0.3988 0.9021
vn 0.0050 -0.6505 0.7595
vn -0.1332 -0.3901 0.9111
vn -0.1473 -0.4153 0.8977
vn -0.2752 -0.6171 0.7372
vn -0.3583 -0.7034 0.6139
vn -0.3808 -0.3966 0.8353
vn -0.6128 -0.3880 0.6884
vn -0.7565 -0.1920 0.6252
vn -0.1645 -0.5399 0.8255
vn -0.3383 -0.5994 0.7254
vn 0.0100 -0.1923 0.9813
vn -0.0415 -0.7232 0.6894
vn -0.4726 0.0249 0.8810
vn -0.4807 0.2014 0.8534
vn -0.4008 -0.5611 0.7242
vn -0.0623 -0.6468 0.7601
vn -0.0824 -0.5225 0.8486
vn -0.5092 -0.6289 0.5875
vn -0.8771 -0.2148 0.4297
vn -0.8995 -0.0108 0.4367
vn -0.9566 -0.2789 0.0842
vn -0.7211 -0.2940 0.6273
vn -0.3835 -0.8037 0.4550
vn -0.0001 -0.7462 0.6657
vn 0.9830 0.0888 -0.1604
vn 0.5170 -0.8194 -0.2476
vn 0.4463 -0.8119 -0.3764
vn 0.4878 -0.8476 -0.2088
vn 0.0961 -0.8919 -0.4419
vn 0.8144 -0.5020 0.2913
vn 0.2378 -0.8999 0.3656
vn -0.4684 -0.8434 0.2631
vn -0.2627 -0.9058 -0.3324
vn -0.1986 -0.8742 -0.4431
vn -0.4990 -0.6769 -0.5411
vn -0.6232 0.7723 -0.1230
vn -0.6413 -0.6362 0.4289
vn -0.9143 -0.4017 -0.0509
vn -0.8121 0.5656 0.1437
vn 0.9116 -0.2359 -0.3367
vn -0.8056 -0.5762 0.1379
vn -0.6989 -0.6773 -0.2298
vn -0.9116 -0.2352 -0.3372
vn 0.7976 -0.5835 0.1527
vn -0.4570 0.0834 -0.8856
vn -0.6586 0.5631 -0.4992
vn -0.6839 0.5927 0.4255
vn -0.2295 0.5656 0.7921
vn 0.6839 0.5927 0.4255
vn 0.7209 0.2500 0.6464
vn 0.7569 0.2148 0.6172
vn 0.6290 0.3992 0.6671
vn 0.4646 0.1102 0.8786
vn 0.2973 0.1143 0.9479
vn 0.4805 0.4947 0.7241
vn 0.1823 0.0831 0.9797
vn -0.2575 0.2625 0.9299
vn -0.0278 0.1746 0.9843
vn 0.1809 -0.1328 0.9745
vn -0.2522 -0.3418 0.9053
vn -0.0877 -0.5050 0.8587
vn 0.2851 -0.1870 0.9401
vn 0.3882 -0.1535 0.9087
vn 0.4413 -0.0509 0.8959
vn 0.6580 -0.3995 0.6383
vn 0.7680 -0.2184 0.6020
vn 0.7904 0.0107 0.6125
vn -0.1965 0.4241 0.8840
vn 0.6386 -0.2971 0.7099
vn 0.4637 0.6143 -0.6384
vn 0.9608 -0.0145 0.2767
vn 0.6102 0.0491 -0.7907
vn 0.6388 -0.6468 -0.4167
vn 0.2816 0.6389 -0.7159
vn -0.8225 -0.3057 -0.4797
vn -0.6356 0.7487 -0.1883
vn -0.5392 -0.0700 0.8393
vn 0.6351 0.7493 -0.1875
vn -0.2995 0.7119 -0.6352
vn 0.0121 0.6061 0.7953
vn -0.4624 0.6150 -0.6387
vn 0.4580 0.8888 0.0178
vn 0.4096 0.9094 -0.0726
vn 0.9842 -0.0037 -0.1771
vn 0.9221 -0.3835 -0.0509
vn 0.5550 -0.3105 -0.7717
vn 0.5537 -0.0013 -0.8327
vn 0.4967 -0.2359 -0.8352
vn 0.6589 0.2143 -0.7211
vn 0.5474 0.3947 -0.7380
vn 0.8113 0.3607 -0.4602
vn -0.7673 -0.3846 0.5131
vn -0.8068 -0.5653 0.1717
vn -0.5993 -0.6839 0.4161
vn -0.0225 -0.8128 -0.5821
vn -0.8447 -0.4147 -0.3385
vn -0.4792 -0.3603 -0.8003
vn -0.8794 -0.1913 0.4359
vn -0.7655 -0.5444 0.3429
vn 0.2791 0.2803 0.9185
vn 0.2209 -0.1150 0.9685
vn -0.1956 -0.5922 -0.7817
vn -0.0675 -0.9804 0.1850
vn 0.5199 -0.7432 -0.4211
vn -0.1720 -0.9753 0.1385
vn -0.1276 -0.2703 0.9543
vn -0.2223 -0.2625 -0.9390
vn -0.2027 0.0499 -0.9780
vn -0.5715 0.4268 -0.7009
vn 0.2162 -0.7757 0.5930
vn 0.2072 -0.4206 0.8833
vn -0.6848 -0.1731 0.7079
vn -0.8992 -0.1270 0.4186
vn -0.9239 0.2458 0.2931
vn -0.0000 -0.6739 -0.7388
vn -0.0832 0.0040 -0.9965
vn 0.0694 -0.0434 -0.9966
vn -0.2999 0.1367 -0.9441
vn -0.4150 -0.1635 0.8950
vn 0.2382 0.6081 0.7573
vn -0.6784 0.3231 0.6598
vn 0.1895 0.5085 0.8399
vn -0.0000 0.3076 0.9515
vn -0.4640 -0.7701 -0.4378
vn 0.0708 -0.9936 0.0884
vn -0.7911 -0.5774 0.2017
vn 0.1672 -0.9859 0.0117
vn -0.9052 -0.4029 0.1352
vn -0.2728 -0.7776 0.5665
vn 0.3824 -0.2964 0.8752
vn -0.3994 -0.1476 0.9048
vn -0.6958 -0.4183 0.5839
vn -0.5165 -0.6251 0.5852
vn -0.8259 -0.0139 -0.5637
vn 0.2515 -0.6873 -0.6815
vn 0.5670 -0.7439 0.3538
vn -0.7731 -0.2485 0.5836
vn 0.7636 -0.0419 0.6443
vn -0.5492 -0.2912 0.7833
vn 0.0853 -0.4649 0.8813
vn -0.5316 0.2257 0.8163
vn 0.1458 -0.4081 0.9012
vn -0.1282 -0.7628 0.6338
vn 0.6809 -0.6822 0.2663
vn 0.5577 -0.8123 -0.1704
vn -0.0617 -0.2570 0.9644
vn 0.2931 -0.5273 0.7975
vn 0.0812 0.0849 0.9931
vn -0.2768 0.5458 0.7909
vn 0.6439 0.3932 0.6564
vn -0.0000 -0.6397 0.7686
vn -0.6896 -0.6700 0.2748
vn -0.7645 0.0554 0.6422
vn -0.7635 -0.0419 0.6444
vn -0.3659 0.0506 0.9293
vn 0.7731 -0.2485 0.5835
vn 0.0213 -0.5442 0.8387
vn -0.1358 0.8854 0.4446
vn -0.2438 0.3570 0.9017
vn 0.5602 0.7393 0.3736
vn 0.4201 0.6432 0.6402
vn 0.5525 0.5970 0.5817
vn 0.2509 0.7062 0.6621
vn -0.0294 0.9986 -0.0431
vn -0.4924 0.8172 0.2994
vn 0.0871 0.9303 0.3563
vn -0.0189 0.4069 0.9133
vn -0.4354 -0.6047 0.6669
vn 0.1809 0.2677 0.9464
vn 0.5282 -0.5373 0.6575
vn -0.2705 -0.5550 0.7866
vn -0.8358 0.2663 0.4801
vn -0.1846 0.9042 0.3853
vn -0.0359 0.9984 0.0429
vn 0.0294 0.9986 -0.0432
vn 0.4924 0.8173 0.2994
vn 0.4661 0.5765 0.6711
vn 0.7645 0.0554 0.6422
vn -0.2658 0.5092 0.8186
vn -0.9594 0.2097 0.1884
vn 0.4036 0.2428 0.8822
vn -0.5991 -0.4768 -0.6432
vn 0.7012 0.0896 -0.7073
vn 0.8564 0.0727 0.5112
vn 0.5215 0.3187 -0.7915
vn -0.3017 -0.6135 0.7298
vn -0.1071 -0.5929 0.7981
vn 0.0820 -0.5244 0.8475
vn 0.0608 -0.6563 0.7521
vn 0.3965 -0.5624 0.7256
vn 0.7035 -0.6702 -0.2365
vn 0.2536 0.5670 0.7837
vn 0.0653 0.4996 0.8638
vn -0.1327 0.4373 0.8895
vn -0.3324 0.0778 0.9399
vn -0.3174 -0.1434 0.9374
vn 0.0945 -0.5998 0.7946
vn 0.3113 -0.6029 0.7346
vn 0.4963 -0.5450 0.6758
vn 0.8553 0.0820 0.5116
vn -0.0054 -0.0065 -1.0000
vn 0.2177 -0.6305 0.7451
vn 0.8010 -0.3758 0.4660
vn 0.8763 0.4261 0.2249
vn 0.6238 0.7741 -0.1079
vn -0.8763 0.4261 0.2249
vn -0.6238 0.7741 -0.1079
vn -0.0894 -0.2607 -0.9613
vn 0.3312 0.0862 0.9396
vn -0.5613 -0.4328 0.7054
vn -0.3501 -0.3147 -0.8823
vn 0.1120 -0.1953 -0.9743
vn 0.5839 -0.4343 -0.6859
vn 0.9286 -0.1278 0.3483
vn 0.5427 0.2949 0.7864
vn 0.3003 0.8483 0.4362
vn -0.4856 -0.8723 0.0572
vn 0.4619 0.8109 0.3594
vn 0.8360 0.2095 0.5073
vn 0.7958 -0.1034 0.5967
vn 0.6840 -0.6473 0.3364
vn 0.9930 0.1032 0.0568
vn 0.9802 0.1956 -0.0295
vn 0.4380 -0.7082 -0.5537
vn 0.9593 0.2458 0.1390
vn 0.1286 -0.2358 -0.9633
vn 0.3791 0.0398 -0.9245
vn 0.7792 -0.1639 -0.6050
vt 0.671875 1.171875
vt 0.699219 1.023438
vt 0.785156 1.156250
vt 0.785156 1.023438
vt 0.218750 1.222656
vt 0.210938 1.371094
vt 0.281250 1.332031
vt 0.144531 1.371094
vt 0.281250 1.453125
vt 0.019531 1.441406
vt 0.207031 1.476563
vt 0.015625 1.457031
vt 0.027344 1.441406
vt 0.199219 1.460938
vt 0.121094 1.359375
vt 0.281250 1.449219
vt 0.281250 1.335938
vt 0.058594 1.222656
vt 0.589844 1.171875
vt 0.593750 1.160156
vt 0.132813 1.425781
vt 0.023438 1.515625
vt 0.023438 1.445313
vt 0.007813 1.519531
vt 0.316406 1.953125
vt 0.285156 1.855469
vt 0.460938 1.941406
vt 0.324219 1.753906
vt 0.402344 1.734375
vt 0.457031 1.777344
vt 0.812500 1.332031
vt 0.839844 1.332031
vt 0.851563 1.332031
vt 0.773438 1.332031
vt 0.769531 1.468750
vt 0.738281 1.332031
vt 0.718750 1.468750
vt 0.742188 1.332031
vt 0.753906 1.332031
vt 0.816406 1.332031
vt 0.867188 1.332031
vt 0.796875 1.367188
vt 0.851563 1.367188
vt 0.781250 1.332031
vt 0.164063 1.890625
vt 0.187500 1.917969
vt 0.164063 1.933594
vt 0.132813 1.859375
vt 0.148438 1.898438
vt 0.132813 1.941406
vt 0.171875 1.878906
vt 0.207031 1.894531
vt 0.132813 1.902344
vt 0.105469 1.937500
vt 0.117188 1.898438
vt 0.078125 1.921875
vt 0.105469 1.890625
vt 0.062500 1.894531
vt 0.093750 1.878906
vt 0.089844 1.863281
vt 0.089844 1.847656
vt 0.097656 1.832031
vt 0.070313 1.812500
vt 0.089844 1.789063
vt 0.109375 1.824219
vt 0.117188 1.781250
vt 0.125000 1.816406
vt 0.148438 1.781250
vt 0.140625 1.816406
vt 0.175781 1.789063
vt 0.156250 1.824219
vt 0.167969 1.832031
vt 0.199219 1.812500
vt 0.210938 1.835938
vt 0.175781 1.847656
vt 0.214844 1.867188
vt 0.175781 1.863281
vt 0.050781 1.054688
vt 0.175781 1.871094
vt 0.394531 1.984375
vt 0.460938 1.945313
vt 0.304688 1.773438
vt 0.375000 1.734375
vt 0.906250 1.601563
vt 0.906250 1.652344
vt 0.332031 1.695313
vt 0.242188 1.574219
vt 0.234375 1.695313
vt 0.218750 1.695313
vt 0.222656 1.570313
vt 0.332031 1.519531
vt 0.332031 1.539063
vt 0.121094 1.597656
vt 0.097656 1.683594
vt 0.156250 1.597656
vt 0.160156 1.707031
vt 0.160156 1.074219
vt 0.160156 1.066406
vt 0.894531 1.066406
vt 0.160156 1.046875
vt 0.160156 1.050781
vt 0.160156 1.054688
vt 0.160156 1.078125
vt 0.160156 1.085938
vt 0.160156 1.082031
vt 0.386719 1.824219
vt 0.324219 1.054688
vt 0.324219 1.042969
vt 0.320313 1.054688
vt 0.324219 1.046875
vt 0.320313 1.042969
vt 0.320313 1.046875
vt 0.316406 1.046875
vt 0.316406 1.054688
vt 0.078125 1.613281
vt 0.320313 1.078125
vt 0.316406 1.066406
vt 0.316406 1.078125
vt 0.320313 1.066406
vt 0.324219 1.078125
vt 0.460938 1.937500
vt 0.824219 1.468750
vt 0.726563 1.332031
vt 0.742188 1.367188
vt 0.871094 1.468750
vt 0.050781 1.867188
vt 0.054688 1.835938
vt 0.160156 1.718750
vt 0.160156 1.042969
vt 0.210938 1.476563
vt 0.125000 1.359375
vt 0.871094 1.023438
vt 0.898438 1.171875
vt 0.992188 1.160156
vt 0.976563 1.167969
vt 0.945313 1.027344
s 1
usemtl mesh0136mat
f 2/1/1 5/2/2 4/3/3
f 4/3/3 5/2/2 6/4/4
f 2/5/1 1/5/5 5/5/2
f 5/5/2 1/5/5 7/5/6
f 1/5/5 8/5/7 7/5/6
f 8/5/7 9/5/8 7/5/6
f 7/5/6 9/5/8 10/5/9
f 10/5/9 9/5/8 11/5/10
f 9/5/8 12/5/11 11/5/10
f 12/5/11 13/5/12 11/5/10
f 11/5/10 13/5/12 14/5/13
f 13/5/12 15/5/14 14/5/13
f 14/5/13 15/5/14 16/5/15
f 15/5/14 17/5/16 16/5/15
f 16/5/15 17/5/16 18/5/17
f 17/5/16 6/5/4 18/5/17
f 18/5/17 6/5/4 19/5/18
f 6/5/4 5/5/2 20/5/19
f 21/5/20 7/5/6 10/5/9
f 9/5/8 8/5/7 22/5/21
f 25/5/22 23/5/23 28/5/24
f 13/6/12 12/6/11 30/6/25
f 12/6/11 9/6/8 30/6/25
f 22/6/21 26/6/26 31/6/27
f 31/6/27 26/6/26 27/6/28
f 30/7/25 31/8/27 32/9/29
f 31/8/27 27/10/28 33/11/30
f 27/10/28 28/12/24 33/11/30
f 28/12/24 29/13/31 33/11/30
f 33/11/30 29/13/31 34/14/32
f 34/14/32 2/15/1 35/16/33
f 2/15/1 4/17/3 35/16/33
f 19/18/18 37/18/34 18/18/17
f 39/18/35 40/18/36 14/18/13
f 14/18/13 40/18/36 11/18/10
f 11/18/10 40/18/36 10/18/9
f 1/19/5 2/1/1 3/20/37
f 19/5/18 6/5/4 20/5/19
f 20/5/19 5/5/2 21/5/20
f 5/5/2 7/5/6 21/5/20
f 26/5/26 24/5/38 27/5/28
f 24/5/38 25/5/22 27/5/28
f 27/5/28 25/5/22 28/5/24
f 28/5/24 23/5/23 29/5/31
f 2/21/1 29/22/31 3/23/37
f 3/23/37 29/22/31 23/24/23
f 30/6/25 9/6/8 31/6/27
f 9/6/8 22/6/21 31/6/27
f 32/9/29 31/8/27 33/11/30
f 29/13/31 2/15/1 34/14/32
f 36/18/39 37/18/34 19/18/18
f 37/18/34 38/18/40 18/18/17
f 18/18/17 38/18/40 16/18/15
f 38/18/40 39/18/35 16/18/15
f 16/18/15 39/18/35 14/18/13
f 40/18/36 41/18/41 10/18/9
f 10/18/9 41/18/41 21/18/20
f 41/18/41 42/18/42 21/18/20
f 21/18/20 42/18/42 20/18/19
f 42/18/42 43/18/43 20/18/19
f 20/18/19 43/18/43 19/18/18
f 43/18/43 36/18/39 19/18/18
f 48/25/44 49/26/45 46/27/46
f 49/26/45 50/28/47 46/27/46
f 51/29/48 44/30/49 46/27/46
f 53/31/50 54/32/51 55/33/52
f 57/34/53 58/35/54 59/36/55
f 58/35/54 60/37/56 59/36/55
f 59/36/55 62/38/57 63/39/58
f 53/31/50 55/33/52 66/40/59
f 68/41/60 54/32/51 69/33/61
f 69/33/61 52/42/62 70/43/63
f 59/36/55 63/39/58 57/34/53
f 63/39/58 65/44/64 57/34/53
f 65/44/64 66/40/59 57/34/53
f 72/18/65 73/18/66 74/18/67
f 74/18/67 73/18/66 75/18/68
f 77/18/69 78/18/70 79/18/71
f 79/18/71 78/18/70 80/18/72
f 81/18/73 82/18/74 80/18/72
f 80/18/72 82/18/74 71/18/75
f 73/18/66 83/18/76 84/18/77
f 83/18/76 85/18/78 84/18/77
f 83/18/76 92/18/79 93/18/80
f 95/18/81 91/18/82 90/18/83
f 83/18/76 82/18/74 89/18/84
f 82/18/74 81/18/73 89/18/84
f 81/18/73 99/18/85 89/18/84
f 89/18/84 99/18/85 90/18/83
f 99/18/85 100/18/86 90/18/83
f 90/18/83 100/18/86 95/18/81
f 95/18/81 100/18/86 98/18/87
f 98/18/87 100/18/86 97/18/88
f 100/18/86 101/18/89 97/18/88
f 102/18/90 103/18/91 104/18/92
f 104/18/92 105/18/93 106/18/94
f 105/18/93 88/18/95 106/18/94
f 85/18/78 83/18/76 107/18/96
f 78/18/70 76/18/97 100/18/86
f 108/18/98 109/18/99 100/18/86
f 109/18/99 110/18/100 100/18/86
f 110/18/100 111/18/101 100/18/86
f 100/18/86 111/18/101 101/18/89
f 111/18/101 112/18/102 101/18/89
f 112/18/102 114/18/103 113/18/104
f 113/18/104 116/18/105 101/18/89
f 101/18/89 116/18/105 103/18/91
f 104/18/92 107/18/96 102/18/90
f 97/18/88 119/18/106 96/18/107
f 119/18/106 120/18/108 96/18/107
f 92/18/79 120/18/108 94/18/109
f 121/18/110 120/18/108 107/18/96
f 120/18/108 119/18/106 107/18/96
f 122/45/111 123/46/112 124/47/113
f 125/48/114 122/45/111 126/49/115
f 122/45/111 124/47/113 126/49/115
f 126/49/115 124/47/113 127/50/116
f 122/51/111 128/52/117 123/46/112
f 126/53/115 127/50/116 129/54/118
f 125/48/114 126/53/115 130/55/119
f 126/53/115 129/54/118 130/55/119
f 130/55/119 129/54/118 131/56/120
f 130/57/119 131/56/120 132/58/121
f 125/48/114 130/57/119 133/59/122
f 125/48/114 133/60/122 136/61/123
f 136/62/123 137/63/124 138/64/125
f 136/62/123 138/64/125 139/65/126
f 139/65/126 138/64/125 140/66/127
f 139/67/126 140/66/127 141/68/128
f 139/67/126 141/68/128 142/69/129
f 142/69/129 141/68/128 143/70/130
f 125/48/114 142/71/129 145/72/131
f 142/71/129 144/73/132 145/72/131
f 145/72/131 144/73/132 146/74/133
f 145/75/131 146/74/133 147/76/134
f 125/48/114 145/75/131 122/77/111
f 145/75/131 147/76/134 122/77/111
f 122/77/111 147/76/134 128/52/117
f 148/78/135 150/78/136 149/78/137
f 149/78/137 150/78/136 151/78/138
f 150/78/136 152/78/139 151/78/138
f 151/78/138 153/78/140 154/78/141
f 153/78/140 155/78/142 154/78/141
f 154/78/141 155/78/142 156/78/143
f 156/78/143 155/78/142 157/78/144
f 159/78/145 152/78/139 160/78/146
f 152/78/139 150/78/136 160/78/146
f 162/78/147 148/78/135 74/78/67
f 148/78/135 149/78/137 72/78/65
f 72/78/65 149/78/137 163/78/148
f 149/78/137 164/78/149 163/78/148
f 75/78/68 165/78/150 74/78/67
f 167/78/151 165/78/150 168/78/152
f 165/78/150 169/78/153 168/78/152
f 170/78/154 166/78/155 171/78/156
f 175/78/157 168/78/152 176/78/158
f 183/78/159 182/78/160 184/78/161
f 184/78/161 182/78/160 185/78/162
f 182/78/160 186/78/163 185/78/162
f 185/78/162 186/78/163 187/78/164
f 186/78/163 188/78/165 180/78/166
f 191/78/167 193/78/168 192/78/169
f 192/78/169 194/78/170 195/78/171
f 181/78/172 196/78/173 182/78/160
f 188/78/165 186/78/163 197/78/174
f 197/78/174 186/78/163 198/78/175
f 186/78/163 199/78/176 198/78/175
f 198/78/175 199/78/176 200/78/177
f 199/78/176 201/78/178 200/78/177
f 194/78/170 202/78/179 195/78/171
f 195/78/171 202/78/179 203/78/180
f 202/78/179 204/78/181 203/78/180
f 204/78/181 201/78/178 203/78/180
f 203/78/180 201/78/178 205/78/182
f 201/78/178 199/78/176 205/78/182
f 205/78/182 199/78/176 206/78/183
f 199/78/176 196/78/173 207/78/184
f 207/78/184 196/78/173 208/78/185
f 196/78/173 181/78/172 210/78/186
f 181/78/172 211/78/187 210/78/186
f 211/78/187 213/78/188 212/78/189
f 205/78/182 216/78/190 203/78/180
f 216/78/190 217/78/191 203/78/180
f 203/78/180 217/78/191 218/78/192
f 211/78/187 219/78/193 213/78/188
f 219/78/193 45/78/194 220/78/195
f 45/78/194 44/78/49 222/78/196
f 220/78/195 221/78/197 218/78/192
f 203/78/180 221/78/197 195/78/171
f 221/78/197 223/78/198 195/78/171
f 195/78/171 226/78/199 192/78/169
f 164/78/149 229/78/200 163/78/148
f 228/78/201 232/78/202 231/78/203
f 232/78/202 234/78/204 233/78/205
f 233/78/205 234/78/204 235/78/206
f 235/78/206 234/78/204 236/78/207
f 234/78/204 237/78/208 236/78/207
f 236/78/207 237/78/208 238/78/209
f 237/78/208 222/78/196 238/78/209
f 238/78/209 222/78/196 239/78/210
f 44/78/49 241/78/211 240/78/212
f 240/78/212 241/78/211 242/78/213
f 241/78/211 243/78/214 242/78/213
f 242/78/213 243/78/214 45/78/194
f 231/78/203 233/78/205 244/78/215
f 240/78/212 245/78/216 239/78/210
f 239/78/210 245/78/216 238/78/209
f 245/78/216 246/78/217 238/78/209
f 246/78/217 247/78/218 238/78/209
f 238/78/209 247/78/218 236/78/207
f 229/78/200 231/78/203 230/78/219
f 250/78/220 251/78/221 247/78/218
f 247/78/218 252/78/222 236/78/207
f 252/78/222 253/78/223 236/78/207
f 236/78/207 253/78/223 235/78/206
f 253/78/223 254/78/224 233/78/205
f 256/45/225 257/47/226 258/46/227
f 259/48/228 256/45/225 260/79/229
f 256/45/225 258/46/227 260/79/229
f 258/46/227 261/52/230 260/79/229
f 259/48/228 260/75/229 264/72/231
f 264/71/231 266/70/232 267/69/233
f 259/48/228 267/67/233 270/65/234
f 270/62/234 271/64/235 272/63/236
f 259/48/228 270/62/234 273/61/237
f 270/62/234 272/63/236 273/61/237
f 259/48/228 273/60/237 276/59/238
f 259/48/228 276/57/238 278/55/239
f 279/56/240 280/54/241 278/55/239
f 278/53/239 280/54/241 281/50/242
f 256/49/225 281/50/242 257/47/226
f 161/80/243 162/81/147 160/25/146
f 158/82/244 162/81/147 157/83/144
f 282/84/245 284/84/246 283/84/247
f 283/84/247 284/84/246 285/84/248
f 286/84/249 282/84/245 287/84/250
f 287/84/250 282/84/245 283/84/247
f 288/84/251 286/84/249 289/84/252
f 289/84/252 286/84/249 287/84/250
f 286/85/249 284/85/246 282/85/245
f 290/85/253 292/85/254 291/85/255
f 291/85/255 292/85/254 293/85/256
f 250/86/220 33/87/30 251/88/221
f 251/88/221 33/87/30 252/89/222
f 33/87/30 34/90/32 252/89/222
f 252/89/222 34/90/32 253/86/223
f 34/90/32 35/91/33 253/86/223
f 294/90/257 295/87/258 254/89/224
f 254/89/224 295/87/258 255/88/259
f 255/88/259 295/87/258 250/86/220
f 295/87/258 32/92/29 250/86/220
f 296/78/260 297/78/261 298/78/262
f 297/78/261 299/78/263 298/78/262
f 298/78/262 299/78/263 300/78/264
f 299/78/263 301/78/265 300/78/264
f 301/78/265 302/78/266 300/78/264
f 300/78/264 302/78/266 241/78/211
f 302/78/266 301/78/265 48/78/44
f 301/78/265 299/78/263 49/78/45
f 49/78/45 299/78/263 50/78/47
f 299/78/263 297/78/261 50/78/47
f 224/18/267 303/18/268 45/18/194
f 45/18/194 303/18/268 242/18/213
f 242/18/213 304/18/269 240/18/212
f 305/18/270 306/18/271 245/18/216
f 245/18/216 306/18/271 246/18/217
f 71/18/75 163/18/148 80/18/72
f 248/18/272 246/18/217 77/18/69
f 246/18/217 306/18/271 77/18/69
f 77/18/69 306/18/271 76/18/97
f 306/18/271 305/18/270 76/18/97
f 305/18/270 304/18/269 108/18/98
f 108/18/98 304/18/269 109/18/99
f 304/18/269 303/18/268 109/18/99
f 110/18/100 307/18/273 111/18/101
f 307/18/273 308/18/274 111/18/101
f 111/18/101 308/18/274 112/18/102
f 112/18/102 308/18/274 114/18/103
f 289/84/252 287/84/250 285/84/248
f 311/5/275 36/5/39 312/5/276
f 313/5/277 315/5/278 314/5/279
f 315/5/278 316/5/280 314/5/279
f 312/5/276 36/5/39 318/5/281
f 36/5/39 43/5/43 318/5/281
f 321/5/282 323/5/283 322/5/284
f 317/5/285 318/5/281 324/5/286
f 325/5/287 319/5/288 320/5/289
f 326/5/290 315/5/278 313/5/277
f 42/5/42 41/5/41 321/5/282
f 41/5/41 40/5/36 321/5/282
f 40/5/36 327/5/291 321/5/282
f 321/5/282 327/5/291 323/5/283
f 327/5/291 40/5/36 330/5/292
f 40/5/36 39/5/35 330/5/292
f 326/5/290 313/5/277 328/5/293
f 199/78/176 186/78/163 331/78/294
f 332/93/295 334/94/296 333/95/297
f 333/95/297 334/94/296 335/96/298
f 308/18/274 116/18/105 309/18/299
f 309/18/299 116/18/105 115/18/300
f 117/18/301 116/18/105 169/18/153
f 169/18/153 116/18/105 181/18/172
f 181/18/172 116/18/105 211/18/187
f 116/18/105 308/18/274 211/18/187
f 307/18/273 303/18/268 219/18/193
f 73/18/66 84/18/77 75/18/68
f 75/18/68 84/18/77 165/18/150
f 117/18/301 86/18/302 118/18/303
f 215/97/304 225/98/305 339/99/306
f 205/100/182 206/101/183 339/99/306
f 206/101/183 207/102/184 339/99/306
f 207/102/184 208/98/185 339/99/306
f 208/98/185 209/103/307 339/99/306
f 209/103/307 210/104/186 339/99/306
f 339/99/306 214/105/308 215/97/304
f 293/84/256 343/84/309 291/84/255
f 292/84/254 341/84/310 293/84/256
f 293/84/256 341/84/310 343/84/309
f 292/84/254 340/84/311 341/84/310
f 346/106/312 347/106/313 345/106/314
f 191/107/167 190/108/315 332/109/295
f 332/109/295 190/108/315 349/110/316
f 190/108/315 189/111/317 349/110/316
f 349/110/316 189/111/317 350/112/318
f 189/111/317 188/113/165 350/112/318
f 350/112/318 197/114/174 351/109/319
f 228/78/201 227/78/320 232/78/202
f 227/78/320 226/78/199 234/78/204
f 226/78/199 223/78/198 234/78/204
f 234/78/204 223/78/198 237/78/208
f 352/109/321 200/114/177 353/112/322
f 200/114/177 201/113/178 353/112/322
f 201/113/178 204/111/181 353/112/322
f 204/111/181 202/108/179 354/110/323
f 354/110/323 202/108/179 336/109/324
f 202/108/179 194/107/170 336/109/324
f 354/115/323 337/115/325 353/115/322
f 352/115/321 338/115/326 355/115/327
f 351/115/319 334/115/296 350/115/318
f 356/106/328 357/106/329 358/106/330
f 357/106/329 359/106/331 358/106/330
f 358/106/330 359/106/331 360/106/332
f 362/78/333 196/78/173 363/78/334
f 196/78/173 199/78/176 363/78/334
f 199/78/176 331/78/294 363/78/334
f 364/106/335 365/106/336 366/106/337
f 365/106/336 367/106/338 366/106/337
f 366/106/337 360/106/332 364/106/335
f 371/106/339 372/106/340 367/106/338
f 367/106/338 372/106/340 368/106/341
f 372/106/340 357/106/329 368/106/341
f 357/106/329 356/106/328 368/106/341
f 355/116/327 351/117/319 198/118/175
f 173/98/342 174/97/343 373/99/344
f 174/97/343 175/105/157 373/99/344
f 175/105/157 176/104/158 373/99/344
f 176/104/158 177/104/345 373/99/344
f 177/104/345 183/103/159 373/99/344
f 183/103/159 184/98/161 373/99/344
f 184/98/161 185/102/162 373/99/344
f 344/106/346 374/106/347 346/106/312
f 377/106/348 379/106/349 378/106/350
f 380/106/351 381/106/352 347/106/313
f 347/106/313 381/106/352 348/106/353
f 348/106/353 382/106/354 345/106/314
f 344/106/346 382/106/354 374/106/347
f 374/106/347 382/106/354 377/106/348
f 377/106/348 382/106/354 379/106/349
f 382/106/354 381/106/352 379/106/349
f 336/119/324 194/119/170 333/116/297
f 194/119/170 193/120/168 333/116/297
f 193/120/168 191/119/167 333/116/297
f 44/121/49 45/27/194 46/27/46
f 47/80/355 48/25/44 46/27/46
f 50/28/47 51/29/48 46/27/46
f 52/42/62 54/32/51 53/31/50
f 56/122/356 58/35/54 57/34/53
f 60/37/56 61/123/357 59/36/55
f 61/123/357 62/38/57 59/36/55
f 62/38/57 64/124/358 63/39/58
f 64/124/358 52/42/62 63/39/58
f 63/39/58 52/42/62 65/44/64
f 52/42/62 53/31/50 65/44/64
f 65/44/64 53/31/50 66/40/59
f 66/40/59 55/33/52 67/125/359
f 67/125/359 55/33/52 68/41/60
f 55/33/52 54/32/51 68/41/60
f 54/32/51 52/42/62 69/33/61
f 57/34/53 66/40/59 56/122/356
f 66/40/59 67/125/359 56/122/356
f 71/18/75 73/18/66 72/18/65
f 76/18/97 78/18/70 77/18/69
f 78/18/70 81/18/73 80/18/72
f 71/18/75 82/18/74 73/18/66
f 82/18/74 83/18/76 73/18/66
f 84/18/77 85/18/78 86/18/302
f 85/18/78 87/18/360 86/18/302
f 86/18/302 87/18/360 88/18/95
f 89/18/84 90/18/83 83/18/76
f 90/18/83 91/18/82 83/18/76
f 91/18/82 92/18/79 83/18/76
f 92/18/79 94/18/109 93/18/80
f 92/18/79 91/18/82 96/18/107
f 91/18/82 95/18/81 96/18/107
f 96/18/107 95/18/81 97/18/88
f 95/18/81 98/18/87 97/18/88
f 97/18/88 101/18/89 102/18/90
f 101/18/89 103/18/91 102/18/90
f 103/18/91 105/18/93 104/18/92
f 88/18/95 87/18/360 106/18/94
f 87/18/360 85/18/78 106/18/94
f 106/18/94 85/18/78 104/18/92
f 81/18/73 78/18/70 99/18/85
f 99/18/85 78/18/70 100/18/86
f 76/18/97 108/18/98 100/18/86
f 101/18/89 112/18/102 113/18/104
f 114/18/103 115/18/300 113/18/104
f 115/18/300 116/18/105 113/18/104
f 116/18/105 117/18/301 103/18/91
f 103/18/91 117/18/301 105/18/93
f 117/18/301 118/18/303 105/18/93
f 105/18/93 118/18/303 88/18/95
f 85/18/78 107/18/96 104/18/92
f 102/18/90 107/18/96 97/18/88
f 107/18/96 119/18/106 97/18/88
f 96/18/107 120/18/108 92/18/79
f 94/18/109 120/18/108 121/18/110
f 130/57/119 132/58/121 133/59/122
f 133/59/122 132/58/121 134/126/361
f 133/60/122 134/126/361 135/127/362
f 133/60/122 135/127/362 136/61/123
f 136/61/123 135/127/362 137/63/124
f 125/48/114 136/62/123 139/65/126
f 125/48/114 139/67/126 142/69/129
f 142/71/129 143/70/130 144/73/132
f 152/78/139 153/78/140 151/78/138
f 157/78/144 155/78/142 158/78/244
f 155/78/142 153/78/140 158/78/244
f 158/78/244 153/78/140 159/78/145
f 153/78/140 152/78/139 159/78/145
f 160/78/146 150/78/136 161/78/243
f 150/78/136 148/78/135 161/78/243
f 161/78/243 148/78/135 162/78/147
f 74/78/67 148/78/135 72/78/65
f 156/78/143 157/78/144 164/78/149
f 166/78/155 74/78/67 167/78/151
f 74/78/67 165/78/150 167/78/151
f 171/78/156 166/78/155 172/78/363
f 166/78/155 167/78/151 172/78/363
f 172/78/363 167/78/151 173/78/342
f 167/78/151 168/78/152 173/78/342
f 173/78/342 168/78/152 174/78/343
f 174/78/343 168/78/152 175/78/157
f 168/78/152 169/78/153 176/78/158
f 176/78/158 169/78/153 177/78/345
f 172/78/363 178/78/364 171/78/156
f 178/78/364 179/78/365 171/78/156
f 171/78/156 179/78/365 180/78/166
f 169/78/153 181/78/172 177/78/345
f 181/78/172 182/78/160 177/78/345
f 177/78/345 182/78/160 183/78/159
f 187/78/164 186/78/163 180/78/166
f 180/78/166 188/78/165 171/78/156
f 188/78/165 189/78/317 171/78/156
f 189/78/317 190/78/315 171/78/156
f 171/78/156 190/78/315 170/78/154
f 190/78/315 191/78/167 170/78/154
f 170/78/154 191/78/167 192/78/169
f 193/78/168 194/78/170 192/78/169
f 206/78/183 199/78/176 207/78/184
f 208/78/185 196/78/173 209/78/307
f 209/78/307 196/78/173 210/78/186
f 210/78/186 211/78/187 212/78/189
f 212/78/189 213/78/188 214/78/308
f 214/78/308 213/78/188 215/78/304
f 213/78/188 219/78/193 220/78/195
f 220/78/195 45/78/194 221/78/197
f 45/78/194 222/78/196 221/78/197
f 221/78/197 222/78/196 223/78/198
f 224/78/267 45/78/194 219/78/193
f 215/78/304 213/78/188 225/78/305
f 213/78/188 220/78/195 225/78/305
f 225/78/305 220/78/195 218/78/192
f 218/78/192 221/78/197 203/78/180
f 223/78/198 226/78/199 195/78/171
f 192/78/169 226/78/199 170/78/154
f 226/78/199 227/78/320 170/78/154
f 170/78/154 227/78/320 166/78/155
f 227/78/320 228/78/201 166/78/155
f 166/78/155 228/78/201 74/78/67
f 74/78/67 228/78/201 164/78/149
f 228/78/201 229/78/200 164/78/149
f 163/78/148 229/78/200 230/78/219
f 229/78/200 228/78/201 231/78/203
f 231/78/203 232/78/202 233/78/205
f 222/78/196 44/78/49 239/78/210
f 239/78/210 44/78/49 240/78/212
f 45/78/194 243/78/214 46/78/46
f 46/78/46 243/78/214 47/78/355
f 247/78/218 246/78/217 248/78/272
f 230/78/219 231/78/203 249/78/366
f 231/78/203 244/78/215 249/78/366
f 249/78/366 244/78/215 248/78/272
f 244/78/215 250/78/220 248/78/272
f 248/78/272 250/78/220 247/78/218
f 251/78/221 252/78/222 247/78/218
f 235/78/206 253/78/223 233/78/205
f 233/78/205 254/78/224 244/78/215
f 254/78/224 255/78/259 244/78/215
f 244/78/215 255/78/259 250/78/220
f 260/79/229 261/52/230 262/76/367
f 260/75/229 262/76/367 263/74/368
f 260/75/229 263/74/368 264/72/231
f 264/72/231 263/74/368 265/73/369
f 264/71/231 265/73/369 266/70/232
f 259/48/228 264/71/231 267/69/233
f 267/69/233 266/70/232 268/68/370
f 267/67/233 268/68/370 269/66/371
f 267/67/233 269/66/371 270/65/234
f 270/65/234 269/66/371 271/64/235
f 273/61/237 272/63/236 274/127/372
f 273/60/237 274/127/372 275/126/373
f 273/60/237 275/126/373 276/59/238
f 276/59/238 275/126/373 277/58/374
f 277/58/374 279/56/240 276/57/238
f 276/57/238 279/56/240 278/55/239
f 259/48/228 278/53/239 256/49/225
f 278/53/239 281/50/242 256/49/225
f 74/27/67 164/121/149 162/81/147
f 160/25/146 162/81/147 159/26/145
f 159/26/145 162/81/147 158/82/244
f 157/83/144 162/81/147 164/30/149
f 289/84/252 285/84/248 288/84/251
f 288/84/251 285/84/248 284/84/246
f 288/85/251 284/85/246 286/85/249
f 32/92/29 33/87/30 250/86/220
f 35/91/33 294/90/257 253/86/223
f 253/86/223 294/90/257 254/89/224
f 241/78/211 302/78/266 243/78/214
f 243/78/214 302/78/266 47/78/355
f 47/78/355 302/78/266 48/78/44
f 48/78/44 301/78/265 49/78/45
f 50/78/47 297/78/261 51/78/48
f 297/78/261 296/78/260 51/78/48
f 51/78/48 296/78/260 44/78/49
f 303/18/268 304/18/269 242/18/213
f 304/18/269 305/18/270 240/18/212
f 240/18/212 305/18/270 245/18/216
f 72/18/65 163/18/148 71/18/75
f 163/18/148 230/18/219 80/18/72
f 80/18/72 230/18/219 79/18/71
f 230/18/219 249/18/366 79/18/71
f 79/18/71 249/18/366 77/18/69
f 249/18/366 248/18/272 77/18/69
f 76/18/97 305/18/270 108/18/98
f 109/18/99 303/18/268 110/18/100
f 303/18/268 307/18/273 110/18/100
f 308/18/274 309/18/299 114/18/103
f 114/18/103 309/18/299 115/18/300
f 285/84/248 287/84/250 283/84/247
f 38/5/40 37/5/34 310/5/375
f 310/5/375 37/5/34 311/5/275
f 37/5/34 36/5/39 311/5/275
f 314/5/279 316/5/280 317/5/285
f 316/5/280 312/5/276 317/5/285
f 317/5/285 312/5/276 318/5/281
f 318/5/281 43/5/43 319/5/288
f 43/5/43 42/5/42 319/5/288
f 319/5/288 42/5/42 320/5/289
f 42/5/42 321/5/282 320/5/289
f 320/5/289 321/5/282 322/5/284
f 324/5/286 318/5/281 325/5/287
f 318/5/281 319/5/288 325/5/287
f 322/5/284 323/5/283 328/5/293
f 328/5/293 323/5/283 326/5/290
f 323/5/283 327/5/291 326/5/290
f 326/5/290 327/5/291 329/5/376
f 329/5/376 327/5/291 330/5/292
f 330/5/292 39/5/35 38/5/40
f 336/93/324 333/95/297 337/94/325
f 333/95/297 335/96/298 337/94/325
f 337/94/325 335/96/298 338/128/326
f 335/96/298 334/94/296 338/128/326
f 308/18/274 307/18/273 211/18/187
f 211/18/187 307/18/273 219/18/193
f 219/18/193 303/18/268 224/18/267
f 165/18/150 84/18/77 169/18/153
f 84/18/77 86/18/302 169/18/153
f 169/18/153 86/18/302 117/18/301
f 86/18/302 88/18/95 118/18/303
f 225/98/305 218/102/192 339/99/306
f 218/102/192 217/100/191 339/99/306
f 217/100/191 216/129/190 339/99/306
f 216/129/190 205/100/182 339/99/306
f 210/104/186 212/104/189 339/99/306
f 212/104/189 214/105/308 339/99/306
f 340/84/311 342/84/377 341/84/310
f 341/84/310 342/84/377 343/84/309
f 291/84/255 343/84/309 342/84/377
f 290/84/253 340/84/311 292/84/254
f 340/84/311 290/84/253 342/84/377
f 342/84/377 290/84/253 291/84/255
f 344/106/346 346/106/312 345/106/314
f 345/106/314 347/106/313 348/106/353
f 188/113/165 197/114/174 350/112/318
f 232/78/202 227/78/320 234/78/204
f 223/78/198 222/78/196 237/78/208
f 353/112/322 204/111/181 354/110/323
f 94/18/109 121/18/110 93/18/80
f 121/18/110 107/18/96 93/18/80
f 93/18/80 107/18/96 83/18/76
f 336/115/324 337/115/325 354/115/323
f 353/115/322 337/115/325 352/115/321
f 337/115/325 338/115/326 352/115/321
f 355/115/327 338/115/326 351/115/319
f 338/115/326 334/115/296 351/115/319
f 350/115/318 334/115/296 349/115/316
f 334/115/296 332/115/295 349/115/316
f 186/78/163 182/78/160 361/78/378
f 361/78/378 182/78/160 362/78/333
f 182/78/160 196/78/173 362/78/333
f 363/78/334 331/78/294 362/78/333
f 362/78/333 331/78/294 361/78/378
f 331/78/294 186/78/163 361/78/378
f 366/106/337 367/106/338 368/106/341
f 360/106/332 359/106/331 364/106/335
f 359/106/331 369/106/379 364/106/335
f 369/106/379 370/106/380 364/106/335
f 364/106/335 370/106/380 365/106/336
f 370/106/380 371/106/339 365/106/336
f 365/106/336 371/106/339 367/106/338
f 368/106/341 356/106/328 366/106/337
f 356/106/328 358/106/330 366/106/337
f 366/106/337 358/106/330 360/106/332
f 200/117/177 352/117/321 198/118/175
f 352/117/321 355/116/327 198/118/175
f 198/118/175 351/117/319 197/117/174
f 187/101/164 180/100/166 373/99/344
f 180/100/166 179/129/365 373/99/344
f 179/129/365 178/100/364 373/99/344
f 178/100/364 172/102/363 373/99/344
f 172/102/363 173/98/342 373/99/344
f 373/99/344 185/102/162 187/101/164
f 346/106/312 374/106/347 375/106/381
f 375/106/381 374/106/347 376/106/382
f 374/106/347 377/106/348 376/106/382
f 376/106/382 377/106/348 378/106/350
f 378/106/350 379/106/349 380/106/351
f 379/106/349 381/106/352 380/106/351
f 381/106/352 382/106/354 348/106/353
f 345/106/314 382/106/354 344/106/346
f 333/116/297 191/119/167 332/119/295
f 30/6/25 383/6/383 13/6/12
f 383/8/383 32/9/29 295/130/258
f 384/5/384 316/5/280 386/5/385
f 388/5/386 329/5/376 389/5/387
f 329/5/376 330/5/292 389/5/387
f 389/5/387 330/5/292 390/5/388
f 38/5/40 310/5/375 390/5/388
f 390/5/388 310/5/375 391/5/389
f 391/5/389 311/5/275 385/5/390
f 311/5/275 384/5/384 385/5/390
f 311/5/275 312/5/276 384/5/384
f 294/14/257 35/16/33 392/131/391
f 392/131/391 35/16/33 4/17/3
f 17/132/16 392/133/391 6/4/4
f 30/7/25 32/9/29 383/8/383
f 316/5/280 315/5/278 386/5/385
f 386/5/385 315/5/278 387/5/392
f 315/5/278 326/5/290 387/5/392
f 387/5/392 326/5/290 388/5/386
f 326/5/290 329/5/376 388/5/386
f 330/5/292 38/5/40 390/5/388
f 310/5/375 311/5/275 391/5/389
f 312/5/276 316/5/280 384/5/384
f 392/133/391 4/3/3 6/4/4
f 396/5/393 393/5/394 395/5/395
f 394/5/396 392/5/391 397/5/397
f 395/5/395 399/5/398 396/5/393
f 403/5/399 398/5/400 13/5/12
f 295/130/258 294/14/257 393/13/394
f 393/13/394 294/14/257 392/131/391
f 398/134/400 397/135/397 15/136/14
f 15/136/14 397/135/397 17/132/16
f 397/135/397 392/133/391 17/132/16
f 403/6/399 383/6/383 402/6/401
f 383/6/383 400/6/402 402/6/401
f 392/21/391 394/23/396 393/22/394
f 393/22/394 394/23/396 395/24/395
f 396/5/393 399/5/398 400/5/402
f 399/5/398 401/5/403 400/5/402
f 400/5/402 401/5/403 402/5/401
f 398/5/400 15/5/14 13/5/12
f 383/8/383 295/130/258 400/10/402
f 400/10/402 295/130/258 396/12/393
f 396/12/393 295/130/258 393/13/394
f 13/6/12 383/6/383 403/6/399
