# Blender 4.4.0
# www.blender.org
mtllib PanicoBDer.mtl
o Brazo_derecho
v -0.072378 -0.627077 -0.032608
v -0.090585 -0.627759 -0.102402
v -0.199549 -0.936534 -0.084820
v -0.184246 -0.935961 -0.026169
v -0.112278 -0.615193 0.039639
v -0.216737 -0.925997 0.036206
v -0.195076 -0.600877 0.038992
v -0.287359 -0.913941 0.034001
v -0.260735 -0.592113 0.002950
v -0.342536 -0.906575 0.003713
v -0.280696 -0.594795 -0.066395
v -0.357057 -0.908889 -0.050959
v -0.225594 -0.608003 -0.127811
v -0.313004 -0.919930 -0.106174
v -0.139105 -0.624317 -0.143369
v -0.240322 -0.933641 -0.119248
v -0.090585 -0.627759 -0.102402
v -0.199549 -0.936534 -0.084820
v 0.025890 -0.379378 -0.132712
v -0.044117 -0.374058 -0.186964
v 0.043438 -0.146003 -0.247468
v 0.142132 -0.163821 -0.167758
v -0.077693 -0.126240 -0.229962
v -0.137352 -0.358970 -0.172330
v -0.190032 -0.103029 -0.148747
v -0.198222 -0.346248 -0.129108
v -0.271412 -0.084106 -0.044358
v -0.259606 -0.330751 -0.052662
v -0.248572 -0.077820 0.076863
v -0.242263 -0.326022 0.034124
v -0.126294 -0.094093 0.138036
v -0.150906 -0.339381 0.069973
v -0.006951 -0.112145 0.119464
v -0.067410 -0.353240 0.064472
v 0.093203 -0.131332 0.056479
v -0.015760 -0.363471 0.037335
v 0.163816 -0.148056 -0.037329
v 0.045018 -0.377217 -0.038375
v 0.142132 -0.163821 -0.167758
v 0.025890 -0.379378 -0.132712
v 0.235338 -0.020867 -0.045471
v 0.218836 -0.042261 -0.194450
v 0.157163 -0.001027 0.054225
v 0.032654 0.028645 0.147022
v -0.121694 0.058019 0.185387
v -0.257346 0.073562 0.105672
v -0.286606 0.066959 -0.042277
v -0.186589 0.041368 -0.168134
v -0.047063 0.008883 -0.267843
v 0.101738 -0.016691 -0.290202
v 0.218836 -0.042261 -0.194450
v -0.217342 -1.121608 -0.020110
v -0.236951 -1.122161 -0.091608
v -0.249670 -1.312366 -0.114164
v -0.227392 -1.311530 -0.028773
v -0.259185 -1.109773 0.047114
v -0.301094 -1.293649 0.057677
v -0.338433 -1.095596 0.050247
v -0.394421 -1.276338 0.069632
v -0.404758 -1.086817 0.012140
v -0.474754 -1.265617 0.025535
v -0.410310 -1.091129 -0.058087
v -0.479643 -1.271059 -0.057979
v -0.372342 -1.102503 -0.120338
v -0.431760 -1.285060 -0.134450
v -0.286273 -1.118746 -0.134360
v -0.309033 -1.308153 -0.164286
v -0.236951 -1.122161 -0.091608
v -0.249670 -1.312366 -0.114164
v -0.232506 -1.377803 -0.135189
v -0.205869 -1.376805 -0.033085
v -0.259478 -1.435055 -0.128018
v -0.228480 -1.433893 -0.009202
v -0.304300 -1.353513 0.076867
v -0.307506 -1.413376 0.096057
v -0.415891 -1.332813 0.091162
v -0.444466 -1.387972 0.117229
v -0.511947 -1.319993 0.038433
v -0.556245 -1.373050 0.055872
v -0.530632 -1.325659 -0.075954
v -0.560723 -1.381069 -0.063947
v -0.478648 -1.342776 -0.181796
v -0.489317 -1.401424 -0.171275
v -0.321597 -1.372299 -0.224055
v -0.342077 -1.429196 -0.197761
v -0.232506 -1.377803 -0.135189
v -0.259478 -1.435055 -0.128018
v -0.413589 -1.658550 -0.177905
v -0.339440 -1.663584 -0.115377
v -0.503669 -2.119538 -0.087256
v -0.558114 -2.115442 -0.133310
v -0.545675 -1.633854 -0.154138
v -0.655239 -2.096785 -0.115855
v -0.605657 -1.616564 -0.059793
v -0.699307 -2.083595 -0.046364
v -0.599370 -1.609853 0.045456
v -0.694676 -2.078577 0.031152
v -0.499049 -1.622817 0.100487
v -0.620974 -2.088943 0.071643
v -0.382545 -1.644233 0.085579
v -0.535333 -2.105126 0.060644
v -0.311645 -1.662555 -0.008817
v -0.483220 -2.118795 -0.008835
v -0.339440 -1.663584 -0.115377
v -0.503669 -2.119538 -0.087256
v -0.667673 -2.562174 -0.057127
v -0.655279 -2.561710 -0.009618
v -0.686879 -2.553503 0.032473
v -0.738803 -2.543874 0.039123
v -0.783500 -2.537907 0.014589
v -0.789033 -2.540272 -0.026244
v -0.763717 -2.547960 -0.071779
v -0.700702 -2.559831 -0.085015
v -0.667673 -2.562174 -0.057127
v -0.700702 -2.559831 -0.085015
v -0.763717 -2.547960 -0.071779
v -0.790037 -2.593923 -0.082514
v -0.723594 -2.604836 -0.105266
v -0.803944 -2.588109 -0.028317
v -0.789033 -2.540272 -0.026244
v -0.783793 -2.587406 0.021002
v -0.783500 -2.537907 0.014589
v -0.733936 -2.659577 -0.126230
v -0.826079 -2.641139 -0.096005
v -0.828066 -2.639933 -0.031216
v -0.798156 -2.638893 0.032563
v -0.734495 -2.592039 0.052662
v -0.717583 -2.639554 0.076148
v -0.684199 -2.598838 0.055928
v -0.663832 -2.643746 0.075073
v -0.650866 -2.606557 0.013077
v -0.633540 -2.655009 0.017356
v -0.738803 -2.543874 0.039123
v -0.655279 -2.561710 -0.009618
v -0.686879 -2.553503 0.032473
v -0.886092 -2.718678 -0.127205
v -0.890649 -2.712144 -0.061738
v -0.957917 -2.804926 -0.091544
v -0.970947 -2.808454 -0.162767
v -0.852490 -2.844614 -0.245207
v -0.794876 -2.752354 -0.192043
v -1.008186 -2.888447 -0.106213
v -1.011896 -2.893300 -0.181466
v -0.888361 -2.916291 -0.261585
v -1.059082 -3.045164 -0.196824
v -0.967139 -3.069949 -0.257555
v -1.069948 -3.069658 -0.199571
v -0.978013 -3.095334 -0.260546
v -0.881270 -2.709295 -0.020587
v -0.937252 -2.802889 -0.026179
v -0.906425 -2.804300 0.026534
v -0.857320 -2.707879 0.017976
v -0.951529 -2.901422 0.031750
v -0.985874 -2.896363 -0.034990
v -1.035640 -3.040982 -0.048154
v -1.065974 -3.039832 -0.114630
v -1.046455 -3.068437 -0.069580
v -1.034204 -3.070121 -0.049376
v -0.922082 -3.093789 -0.121835
v -0.934333 -3.092103 -0.142038
v -1.076200 -3.065848 -0.126649
v -0.826760 -2.707687 0.052317
v -0.865280 -2.804981 0.071295
v -1.000692 -3.039175 0.029800
v -0.948133 -3.041475 0.090550
v -0.898236 -2.900063 0.082643
v -1.014914 -3.066600 0.026672
v -0.955309 -3.071237 0.068441
v -0.945791 -3.072596 0.087785
v -0.833925 -3.096204 0.015741
v -0.844189 -3.094697 -0.003372
v -0.903829 -3.038943 0.135932
v -0.908352 -3.070539 0.134136
v -0.829311 -3.042011 0.162012
v -0.847139 -2.902384 0.116766
v -0.775374 -2.899703 0.146215
v -0.842168 -3.073811 0.162122
v -0.722824 -3.064635 0.093217
v -0.732004 -3.097229 0.090963
v -0.674934 -2.914834 0.067788
v -0.617186 -2.933943 0.022245
v -0.564353 -2.967067 0.035243
v -0.616302 -2.946012 0.069140
v -0.741927 -2.804310 0.137119
v -0.811230 -2.804101 0.104354
v -0.699814 -2.701084 0.114750
v -0.769305 -2.704699 0.080574
v -0.618666 -2.696300 0.087571
v -0.601448 -2.764497 0.179985
v -0.540423 -2.766286 0.138582
v -0.657613 -2.837984 0.168230
v -0.647114 -2.851876 0.178690
v -0.590948 -2.776376 0.190874
v -0.650997 -2.924725 0.139373
v -0.662064 -2.910011 0.128806
v -0.531716 -2.774230 0.148492
v -0.567890 -2.733235 0.033679
v -0.503898 -2.803041 0.080002
v -0.504611 -2.959058 0.213299
v -0.549682 -2.966063 0.242533
v -0.481251 -2.986588 0.175103
v -0.593582 -2.988685 0.227998
v -0.608129 -3.004801 0.192629
v -0.610786 -2.958472 0.077381
v -0.582600 -3.017948 0.136539
v -0.519203 -3.022124 0.111120
v -0.520490 -3.123739 0.255815
v -0.486763 -3.128643 0.204365
v -0.572159 -3.115955 0.280219
v -0.613994 -3.125633 0.260422
v -0.626012 -3.137930 0.229020
v -0.584953 -3.147768 0.183555
v -0.536272 -3.155530 0.149286
v -0.592376 -2.857887 0.010692
v -0.509444 -2.884155 0.042260
v -0.503898 -2.803041 0.080002
v -0.567890 -2.733235 0.033679
v -0.652408 -2.860872 -0.048707
v -0.627690 -2.750838 -0.051133
v -0.695845 -2.859882 -0.106223
v -0.673151 -2.753015 -0.102812
v -0.717871 -2.928642 -0.100689
v -0.680351 -2.929507 -0.039318
v -0.809484 -3.064724 0.006130
v -0.847061 -3.070105 -0.062622
v -0.877887 -3.094872 -0.061695
v -0.844189 -3.094697 -0.003372
v -0.908659 -3.258836 0.003319
v -0.933511 -3.259360 -0.052676
v -0.833925 -3.096204 0.015741
v -0.652984 -2.665426 -0.051658
v -0.633540 -2.655009 0.017356
v -0.664477 -2.609200 -0.050609
v -0.723594 -2.604836 -0.105266
v -0.733936 -2.659577 -0.126230
v -0.650866 -2.606557 0.013077
v -0.667673 -2.562174 -0.057127
v -0.655279 -2.561710 -0.009618
v -0.700702 -2.559831 -0.085015
v -0.753499 -3.067026 0.041589
v -0.771850 -3.098778 0.046251
v -0.722824 -3.064635 0.093217
v -0.732004 -3.097229 0.090963
v -0.617186 -2.933943 0.022245
v -0.810264 -3.263509 0.130575
v -0.823669 -3.265756 0.072849
v -0.564353 -2.967067 0.035243
v -0.874626 -3.260910 0.040927
v -0.488674 -3.009294 0.141777
v -0.481251 -2.986588 0.175103
v -0.519203 -3.022124 0.111120
v -0.826553 -3.285227 0.074027
v -0.816214 -3.281764 0.132854
v -0.873506 -3.286509 0.042461
v -0.858315 -3.497838 0.096035
v -0.862990 -3.495522 0.060519
v -0.895132 -3.493540 0.041483
v -0.484914 -3.138839 0.176818
v -0.536272 -3.155530 0.149286
v -0.486763 -3.128643 0.204365
v -0.934333 -3.092103 -0.142038
v -0.951492 -3.094866 -0.207890
v -1.019700 -3.257173 -0.190841
v -0.995940 -3.256132 -0.129729
v -0.928866 -3.073030 -0.201675
v -0.902010 -3.073581 -0.130176
v -0.922082 -3.093789 -0.121835
v -0.813016 -2.924309 -0.226357
v -0.768597 -2.925977 -0.162731
v -0.793447 -2.850564 -0.205771
v -0.739281 -2.858894 -0.163739
v -0.794876 -2.752354 -0.192043
v -0.718613 -2.755192 -0.154490
v -0.976917 -3.256988 -0.104446
v -0.852490 -2.844614 -0.245207
v -0.888361 -2.916291 -0.261585
v -0.967139 -3.069949 -0.257555
v -0.978013 -3.095334 -0.260546
v -1.053309 -3.255862 -0.238303
v -1.022510 -3.268958 -0.191169
v -1.059038 -3.275668 -0.238219
v -0.999399 -3.274142 -0.130752
v -0.980295 -3.284445 -0.105325
v -0.937450 -3.284809 -0.054573
v -0.980917 -3.485932 -0.111950
v -0.950163 -3.488722 -0.082648
v -0.914186 -3.286530 0.000479
v -0.939009 -3.489544 -0.046210
v -1.029960 -3.463413 -0.192208
v -1.020644 -3.466778 -0.154505
v -1.056521 -3.462337 -0.216046
v -1.045206 -3.268023 0.013345
v -1.042826 -3.246555 0.015634
v -0.991585 -3.250841 0.055951
v -0.995002 -3.272093 0.053082
v -0.914186 -3.286530 0.000479
v -0.908659 -3.258836 0.003319
v -1.063106 -3.271440 -0.054842
v -1.061261 -3.248906 -0.053410
v -0.980295 -3.284445 -0.105325
v -0.976917 -3.256988 -0.104446
v -1.040436 -3.232110 0.016621
v -0.988545 -3.236480 0.056996
v -1.058959 -3.234483 -0.052923
v -1.020273 -3.503170 0.011448
v -1.052319 -3.500223 -0.021456
v -1.071132 -3.500924 -0.068660
v -0.980917 -3.485932 -0.111950
v -0.939009 -3.489544 -0.046210
v -0.618572 -3.273293 0.229367
v -0.630344 -3.269940 0.241529
v -0.624411 -3.268752 0.246805
v -0.608337 -3.270899 0.239839
v -0.627220 -3.275221 0.220896
v -0.635905 -3.271111 0.236354
v -0.607583 -3.277245 0.214759
v -0.601113 -3.276373 0.218837
v -0.613927 -3.278100 0.210761
v -0.519095 -3.128556 0.260557
v -0.577112 -3.120322 0.287638
v -0.623730 -3.131747 0.265384
v -0.637032 -3.145133 0.230692
v -0.590957 -3.155725 0.180379
v -0.481399 -3.134272 0.202789
v -0.537445 -3.164799 0.142092
v -0.873506 -3.286509 0.042461
v -0.874626 -3.260910 0.040927
v -0.966754 -3.251646 0.093308
v -0.967430 -3.273281 0.089991
v -0.947538 -3.250256 0.150414
v -0.951003 -3.269500 0.151930
v -0.893589 -3.255155 0.187455
v -0.897042 -3.271701 0.191390
v -0.816214 -3.281764 0.132854
v -0.810264 -3.263509 0.130575
v -0.964840 -3.237225 0.093001
v -0.944322 -3.236073 0.149299
v -0.889593 -3.241126 0.185717
v -0.967472 -3.509333 0.122757
v -0.932845 -3.511642 0.149534
v -0.858315 -3.497838 0.096035
v -0.979613 -3.510929 0.081990
v -0.895132 -3.493540 0.041483
v -1.059038 -3.275668 -0.238219
v -1.053309 -3.255862 -0.238303
v -1.130640 -3.249104 -0.192065
v -1.135579 -3.259423 -0.191344
v -1.127227 -3.244800 -0.125091
v -1.130814 -3.257010 -0.125152
v -1.086538 -3.246845 -0.074045
v -1.088532 -3.259936 -0.075547
v -0.999399 -3.274142 -0.130752
v -0.995940 -3.256132 -0.129729
v -1.125776 -3.235105 -0.192514
v -1.123095 -3.230664 -0.125057
v -1.083227 -3.232560 -0.073528
v -1.105325 -3.471604 -0.102693
v -1.133676 -3.469362 -0.140257
v -1.020644 -3.466778 -0.154505
v -1.141175 -3.469352 -0.186061
v -1.056521 -3.462337 -0.216046
v -0.907663 -3.636724 0.057302
v -0.903366 -3.636653 0.062110
v -0.894406 -3.633435 0.057046
v -0.895487 -3.632979 0.050476
v -0.909501 -3.636385 0.051063
v -0.900438 -3.633170 0.046163
v -0.858593 -3.504117 0.096282
v -0.936547 -3.518762 0.152268
v -0.972493 -3.516370 0.124379
v -0.896867 -3.499665 0.039656
v -0.985123 -3.518074 0.081979
v -0.976537 -3.619544 -0.091167
v -0.968264 -3.619456 -0.082088
v -0.959586 -3.615114 -0.087544
v -0.963237 -3.614644 -0.098539
v -0.982844 -3.619261 -0.102891
v -0.973391 -3.614941 -0.107112
v -0.981191 -3.491809 -0.115768
v -1.077829 -3.507926 -0.069619
v -1.023440 -3.510329 0.015952
v -0.936594 -3.495658 -0.045938
v -1.057555 -3.507148 -0.019276
v -1.052605 -3.585567 -0.176041
v -1.042918 -3.586070 -0.166149
v -1.033400 -3.577165 -0.169227
v -1.035436 -3.577034 -0.185217
v -1.057151 -3.584944 -0.187557
v -1.049763 -3.576113 -0.191972
v -1.055397 -3.468285 -0.218884
v -1.148598 -3.476046 -0.186394
v -1.108984 -3.478682 -0.095049
v -1.016138 -3.473417 -0.151892
v -1.140137 -3.476110 -0.136248
v -0.896867 -3.499665 0.039656
v -0.895132 -3.493540 0.041483
v -0.979613 -3.510929 0.081990
v -0.985123 -3.518074 0.081979
v -0.967472 -3.509333 0.122757
v -0.972493 -3.516370 0.124379
v -0.932845 -3.511642 0.149534
v -0.936547 -3.518762 0.152268
v -0.858315 -3.497838 0.096035
v -0.858593 -3.504117 0.096282
v -0.895132 -3.493540 0.041483
v -0.896867 -3.499665 0.039656
v -0.863380 -3.501497 0.059439
v -0.862990 -3.495522 0.060519
v -0.858593 -3.504117 0.096282
v -0.858315 -3.497838 0.096035
v -0.980917 -3.485932 -0.111950
v -0.981191 -3.491809 -0.115768
v -0.948329 -3.494725 -0.084718
v -0.950163 -3.488722 -0.082648
v -0.936594 -3.495658 -0.045938
v -0.939009 -3.489544 -0.046210
v -0.981191 -3.491809 -0.115768
v -0.980917 -3.485932 -0.111950
v -1.071132 -3.500924 -0.068660
v -1.077829 -3.507926 -0.069619
v -1.052319 -3.500223 -0.021456
v -1.057555 -3.507148 -0.019276
v -1.020273 -3.503170 0.011448
v -1.023440 -3.510329 0.015952
v -0.939009 -3.489544 -0.046210
v -0.936594 -3.495658 -0.045938
v -1.056521 -3.462337 -0.216046
v -1.055397 -3.468285 -0.218884
v -1.026038 -3.469640 -0.193145
v -1.029960 -3.463413 -0.192208
v -1.016138 -3.473417 -0.151892
v -1.020644 -3.466778 -0.154505
v -1.055397 -3.468285 -0.218884
v -1.056521 -3.462337 -0.216046
v -1.141175 -3.469352 -0.186061
v -1.148598 -3.476046 -0.186394
v -1.133676 -3.469362 -0.140257
v -1.140137 -3.476110 -0.136248
v -1.105325 -3.471604 -0.102693
v -1.108984 -3.478682 -0.095049
v -1.020644 -3.466778 -0.154505
v -1.016138 -3.473417 -0.151892
v -0.858593 -3.504117 0.096282
v -0.863380 -3.501497 0.059439
v -0.895487 -3.632979 0.050476
v -0.894406 -3.633435 0.057046
v -0.900438 -3.633170 0.046163
v -0.896867 -3.499665 0.039656
v -0.948329 -3.494725 -0.084718
v -0.981191 -3.491809 -0.115768
v -0.973391 -3.614941 -0.107112
v -0.963237 -3.614644 -0.098539
v -0.936594 -3.495658 -0.045938
v -0.959586 -3.615114 -0.087544
v -1.026038 -3.469640 -0.193145
v -1.055397 -3.468285 -0.218884
v -1.049763 -3.576113 -0.191972
v -1.035436 -3.577034 -0.185217
v -1.016138 -3.473417 -0.151892
v -1.033400 -3.577165 -0.169227
v -0.479513 -3.146239 0.172453
v -0.484914 -3.138839 0.176818
v -0.536272 -3.155530 0.149286
v -0.537445 -3.164799 0.142092
v -0.481399 -3.134272 0.202789
v -0.486763 -3.128643 0.204365
v -0.537445 -3.164799 0.142092
v -0.536272 -3.155530 0.149286
v -0.584953 -3.147768 0.183555
v -0.590957 -3.155725 0.180379
v -0.626012 -3.137930 0.229020
v -0.637032 -3.145133 0.230692
v -0.613994 -3.125633 0.260422
v -0.623730 -3.131747 0.265384
v -0.572159 -3.115955 0.280219
v -0.577112 -3.120322 0.287638
v -0.520490 -3.123739 0.255815
v -0.519095 -3.128556 0.260557
v -0.486763 -3.128643 0.204365
v -0.481399 -3.134272 0.202789
v -0.481399 -3.134272 0.202789
v -0.479513 -3.146239 0.172453
v -0.607583 -3.277245 0.214759
v -0.601113 -3.276373 0.218837
v -0.613927 -3.278100 0.210761
v -0.537445 -3.164799 0.142092
vn 0.8298 -0.2445 -0.5017
vn 0.7935 -0.3640 -0.4877
vn 0.9078 -0.3718 0.1940
vn 0.9492 -0.2665 0.1675
vn 0.4588 -0.2066 0.8642
vn 0.4707 -0.1194 0.8742
vn -0.2189 -0.0175 0.9756
vn -0.2294 0.0918 0.9690
vn -0.7604 0.0937 0.6426
vn -0.7550 0.2318 0.6133
vn -0.9452 0.1494 -0.2904
vn -0.9294 0.2518 -0.2700
vn -0.4849 0.0315 -0.8740
vn -0.4765 0.1275 -0.8699
vn 0.1689 -0.1812 -0.9688
vn 0.1787 -0.0730 -0.9812
vn 0.7898 -0.3719 -0.4878
vn 0.8208 -0.2536 -0.5118
vn 0.7661 -0.4492 -0.4597
vn 0.1845 -0.2883 -0.9396
vn 0.1772 -0.3483 -0.9205
vn 0.7491 -0.5050 -0.4288
vn -0.4004 -0.1418 -0.9053
vn -0.3556 -0.0967 -0.9296
vn -0.6992 -0.0554 -0.7128
vn -0.6989 0.0119 -0.7151
vn -0.9681 -0.0652 -0.2421
vn -0.9653 0.0127 -0.2609
vn -0.7810 -0.1506 0.6061
vn -0.7678 -0.0818 0.6354
vn -0.1945 -0.2454 0.9497
vn -0.2025 -0.1623 0.9657
vn 0.2853 -0.2781 0.9172
vn 0.2033 -0.2134 0.9556
vn 0.6010 -0.3259 0.7298
vn 0.6359 -0.3146 0.7047
vn 0.8466 -0.4575 0.2719
vn 0.8691 -0.4337 0.2378
vn 0.7404 -0.4964 -0.4533
vn 0.7624 -0.4455 -0.4693
vn 0.8082 -0.4949 0.3192
vn 0.9079 -0.2336 -0.3481
vn 0.6288 -0.3301 0.7040
vn 0.8484 0.1653 -0.5028
vn 0.8583 -0.0640 -0.5092
vn 0.9678 -0.1297 0.2159
vn 0.9656 0.0639 0.2519
vn 0.4924 -0.0366 0.8696
vn 0.5162 0.0724 0.8534
vn -0.1950 0.1451 0.9700
vn -0.1513 0.2374 0.9595
vn -0.7683 0.3139 0.5579
vn -0.7266 0.4450 0.5234
vn -0.9034 0.3260 -0.2787
vn -0.8364 0.4912 -0.2432
vn -0.4712 0.2158 -0.8552
vn -0.4031 0.4547 -0.7942
vn 0.1740 0.0977 -0.9799
vn 0.2169 0.3517 -0.9106
vn 0.8490 -0.0730 -0.5233
vn 0.8441 0.1426 -0.5169
vn 0.8487 -0.0747 -0.5235
vn 0.9800 0.0022 0.1988
vn 0.7979 -0.3485 -0.4918
vn 0.9189 -0.2819 0.2761
vn 0.5318 0.2282 0.8156
vn 0.4856 -0.0760 0.8709
vn -0.0788 0.4201 0.9041
vn -0.1639 0.1137 0.9799
vn -0.6372 0.6104 0.4704
vn -0.7943 0.2629 0.5478
vn -0.7987 0.5404 -0.2646
vn -0.9334 0.2446 -0.2627
vn -0.4494 0.3325 -0.8292
vn -0.5280 0.0290 -0.8488
vn 0.1831 0.1302 -0.9744
vn 0.1457 -0.2404 -0.9597
vn 0.8562 -0.0247 -0.5161
vn 0.7951 -0.3560 -0.4910
vn 0.1626 -0.1420 -0.9764
vn 0.8073 -0.3162 -0.4983
vn 0.8055 -0.3250 -0.4955
vn 0.1575 -0.1507 -0.9759
vn -0.5132 0.0601 -0.8561
vn -0.5163 0.0462 -0.8552
vn -0.9429 0.1794 -0.2805
vn -0.9458 0.1780 -0.2715
vn -0.8237 0.1438 0.5484
vn -0.8142 0.1443 0.5624
vn -0.1818 -0.0174 0.9832
vn -0.1844 -0.0167 0.9827
vn 0.4586 -0.1971 0.8665
vn 0.4589 -0.2040 0.8647
vn 0.9131 -0.3394 0.2259
vn 0.9099 -0.3468 0.2275
vn 0.8076 -0.3170 -0.4973
vn 0.8054 -0.3257 -0.4952
vn 0.8063 -0.3199 -0.4976
vn 0.9214 -0.3233 0.2154
vn 0.4452 -0.1714 0.8789
vn -0.2156 -0.0016 0.9765
vn -0.8226 0.1480 0.5490
vn -0.9469 0.1770 -0.2683
vn -0.5432 0.0819 -0.8356
vn 0.1181 -0.1308 -0.9844
vn 0.8133 -0.2984 -0.4996
vn 0.2051 -0.3911 -0.8972
vn 0.7993 -0.2128 -0.5620
vn -0.3987 -0.1676 -0.9016
vn -0.7047 -0.0902 -0.7037
vn -0.9800 -0.1200 -0.1586
vn -0.7558 -0.2113 0.6198
vn -0.1970 -0.2910 0.9362
vn 0.3513 -0.2812 0.8930
vn -0.5101 0.4911 -0.7061
vn -0.4810 0.1707 -0.8599
vn 0.1450 0.0085 -0.9894
vn 0.2642 0.2881 -0.9204
vn -0.9162 0.3988 0.0383
vn -0.9509 0.3049 -0.0526
vn -0.7156 0.2643 0.6466
vn -0.7949 0.1296 0.5927
vn 0.2452 0.4262 -0.8708
vn -0.4711 0.6358 -0.6114
vn -0.8143 0.5649 0.1333
vn -0.6152 0.4207 0.6667
vn -0.2727 0.3118 0.9102
vn -0.2076 0.4226 0.8822
vn 0.4536 0.4480 0.7704
vn 0.4791 0.5649 0.6718
vn 0.9474 0.2973 0.1184
vn 0.8611 0.4863 -0.1481
vn -0.1702 0.0725 0.9827
vn 0.9571 -0.1624 0.2400
vn 0.5142 -0.0016 0.8577
vn -0.4648 0.6771 -0.5706
vn -0.7939 0.6055 0.0552
vn -0.8364 0.5328 0.1283
vn -0.6055 0.5461 -0.5790
vn -0.1598 0.4365 -0.8854
vn -0.0338 0.5056 -0.8621
vn -0.9114 0.3778 0.1630
vn -0.7217 0.3470 -0.5990
vn -0.1373 0.1249 -0.9826
vn -0.7161 0.3170 -0.6219
vn -0.1512 0.0362 -0.9878
vn -0.7656 0.2568 -0.5898
vn -0.0516 -0.0449 -0.9977
vn -0.7845 0.5194 0.3388
vn -0.8229 0.4410 0.3583
vn -0.7361 0.3876 0.5549
vn -0.7290 0.4706 0.4971
vn -0.7758 0.3107 0.5491
vn -0.8608 0.3335 0.3845
vn -0.8858 0.2274 0.4045
vn -0.9410 0.2901 0.1740
vn -0.0184 -0.1846 0.9826
vn -0.9203 0.0279 -0.3903
vn 0.0246 -0.2937 -0.9556
vn 0.8541 -0.2953 0.4282
vn -0.9345 0.2847 0.2135
vn -0.5356 0.3989 0.7443
vn -0.5846 0.3409 0.7362
vn -0.7960 0.2640 0.5447
vn -0.6882 0.1865 0.7012
vn -0.6379 0.2858 0.7151
vn -0.8334 0.1380 0.5351
vn 0.0964 -0.2420 0.9655
vn -0.9144 -0.0120 -0.4047
vn -0.1415 -0.2574 -0.9559
vn 0.8826 -0.3166 0.3475
vn -0.4948 0.2241 0.8396
vn -0.6455 0.1662 0.7455
vn 0.1724 0.0494 0.9838
vn -0.4545 0.2702 0.8488
vn -0.0467 0.0282 0.9985
vn 0.2111 0.0171 0.9773
vn 0.8058 -0.3572 0.4723
vn 0.8225 -0.2531 0.5094
vn 0.5844 -0.1240 0.8019
vn 0.8645 -0.3186 -0.3888
vn 0.3638 -0.4881 -0.7934
vn -0.4836 -0.8621 -0.1514
vn -0.3367 0.2165 0.9164
vn -0.4390 0.3125 0.8424
vn -0.1810 0.4762 0.8605
vn -0.4291 0.3789 0.8199
vn 0.4966 0.7599 0.4194
vn -0.1424 0.5464 0.8253
vn 0.5197 0.8064 0.2821
vn -0.3034 0.0030 0.9529
vn -0.5271 0.0580 0.8478
vn 0.2179 0.3983 0.8910
vn -0.8910 -0.3894 0.2336
vn -0.3843 -0.6527 0.6529
vn 0.7297 0.3795 0.5687
vn 0.8034 0.4123 -0.4296
vn 0.9121 0.3200 -0.2564
vn 0.7542 0.2402 0.6111
vn 0.1028 0.2527 0.9621
vn 0.9822 0.0896 0.1649
vn -0.6461 0.1451 0.7493
vn -0.9873 -0.1566 -0.0264
vn -0.6468 -0.6829 -0.3394
vn -0.6851 -0.4448 -0.5769
vn 0.2410 -0.4691 -0.8496
vn 0.6760 0.1402 0.7235
vn 0.9471 0.0511 0.3169
vn 0.0419 0.2764 0.9601
vn -0.7443 0.3015 0.5959
vn -0.9649 0.0903 -0.2468
vn -0.6788 -0.1500 -0.7188
vn -0.0718 -0.1973 -0.9777
vn 0.9193 0.3547 -0.1707
vn 0.7834 -0.0080 -0.6215
vn 0.6133 -0.0935 -0.7843
vn 0.8145 0.3862 -0.4329
vn 0.7533 -0.2325 -0.6152
vn 0.8003 0.0372 -0.5985
vn 0.7665 -0.2162 -0.6048
vn 0.7474 0.0479 -0.6626
vn 0.6734 -0.5683 -0.4728
vn 0.6571 -0.5711 -0.4921
vn 0.5833 -0.6613 -0.4717
vn 0.6069 -0.6788 -0.4134
vn 0.7698 -0.4239 -0.4771
vn 0.8337 -0.3554 0.4225
vn 0.8292 -0.2790 0.4844
vn 0.8069 -0.2634 -0.5287
vn -0.1626 -0.2926 -0.9423
vn 0.7764 0.2688 -0.5701
vn 0.8690 0.4764 -0.1335
vn 0.8306 0.1049 -0.5469
vn 0.2551 0.2982 -0.9198
vn 0.2144 0.4613 -0.8610
vn 0.9457 0.2992 0.1269
vn 0.8367 -0.2225 -0.5005
vn 0.9567 -0.1784 0.2301
vn 0.1642 -0.0444 -0.9854
vn 0.5489 -0.5997 -0.5822
vn 0.6500 -0.3628 -0.6677
vn 0.7963 -0.3701 0.4784
vn 0.8058 -0.2349 0.5436
vn 0.8184 -0.4420 -0.3672
vn 0.8062 -0.1910 0.5600
vn 0.6812 -0.3000 -0.6678
vn 0.2894 -0.4847 -0.8254
vn -0.1689 -0.0870 -0.9818
vn 0.8935 -0.1452 -0.4249
vn 0.9787 0.0987 0.1799
vn 0.2469 -0.4524 -0.8570
vn 0.8445 -0.1294 -0.5197
vn 0.7814 -0.2293 0.5803
vn -0.1621 0.0076 -0.9867
vn 0.7757 -0.2010 0.5983
vn 0.8236 -0.1050 -0.5573
vn -0.1957 0.0122 -0.9806
vn 0.8287 -0.1219 -0.5462
vn -0.0745 -0.1961 -0.9777
vn 0.9477 0.0404 0.3165
vn 0.8515 -0.3549 -0.3860
vn 0.8155 -0.4425 -0.3731
vn 0.8058 -0.3428 0.4829
vn 0.7982 -0.2583 0.5442
vn 0.6186 -0.5803 -0.5297
vn 0.6299 -0.6600 -0.4094
vn -0.0228 -0.3534 -0.9352
vn 0.6618 -0.3875 -0.6418
vn 0.6707 -0.5302 -0.5187
vn 0.5844 0.0032 -0.8115
vn 0.6911 -0.1333 -0.7104
vn -0.0321 0.4968 -0.8673
vn 0.6523 0.1032 -0.7509
vn -0.0068 -0.0560 -0.9984
vn -0.1878 0.4349 -0.8807
vn -0.0909 0.0616 -0.9939
vn -0.0809 0.0078 -0.9967
vn -0.0239 -0.0665 -0.9975
vn -0.0226 -0.0774 -0.9967
vn 0.8638 -0.0816 -0.4972
vn -0.0546 -0.0587 -0.9968
vn 0.8079 -0.1597 0.5672
vn -0.0977 0.0502 -0.9939
vn 0.8465 -0.0174 -0.5321
vn -0.0945 0.0389 -0.9948
vn 0.8361 0.0191 -0.5483
vn 0.8105 -0.2110 0.5463
vn 0.8156 -0.1545 0.5576
vn 0.8675 -0.0324 -0.4964
vn 0.7848 -0.0903 0.6131
vn -0.0301 -0.0729 -0.9969
vn 0.0284 -0.0972 0.9949
vn -0.8429 0.0666 0.5339
vn -0.8468 -0.0217 0.5314
vn 0.0812 -0.1914 0.9782
vn 0.8086 -0.2054 0.5513
vn 0.8328 -0.2762 0.4798
vn -0.8720 0.0381 -0.4880
vn -0.8938 0.1229 -0.4313
vn -0.0899 0.0513 -0.9946
vn -0.0295 -0.0560 -0.9980
vn -0.8309 0.1011 0.5472
vn 0.1480 -0.0702 0.9865
vn -0.8368 0.1143 -0.5354
vn 0.0696 -0.2202 0.9730
vn -0.8539 -0.0197 0.5201
vn -0.8564 0.0332 -0.5153
vn -0.0920 0.0479 -0.9946
vn 0.8034 -0.2082 0.5579
vn -0.0101 -0.2526 0.9675
vn -0.7103 -0.0992 0.6968
vn -0.0235 -0.9693 0.2446
vn 0.5667 -0.4282 0.7039
vn -0.7015 -0.0521 -0.7107
vn -0.9287 -0.0163 -0.3704
vn 0.6601 -0.5719 -0.4871
vn 0.7860 -0.5356 0.3089
vn -0.0922 -0.3523 -0.9314
vn 0.6049 -0.4372 0.6655
vn 0.1298 -0.2398 0.9621
vn -0.6296 -0.0189 0.7767
vn -0.9646 0.0377 -0.2611
vn -0.6710 -0.0043 -0.7415
vn 0.7646 -0.5305 0.3660
vn 0.0903 -0.4601 -0.8833
vn -0.8707 0.0913 -0.4833
vn -0.1780 -0.0875 -0.9801
vn -0.1592 0.0093 -0.9872
vn -0.8114 0.0711 -0.5802
vn -0.7892 0.1894 0.5842
vn -0.8171 0.0277 0.5758
vn 0.0684 0.1364 0.9883
vn 0.1537 -0.1292 0.9796
vn 0.7888 -0.2235 0.5725
vn 0.8017 -0.1942 0.5653
vn -0.8203 0.1119 -0.5609
vn -0.6581 0.2132 0.7221
vn 0.2189 0.0726 0.9730
vn -0.8354 0.0065 0.5496
vn 0.0923 -0.2004 0.9754
vn 0.7682 -0.2450 0.5915
vn -0.8159 0.0390 -0.5769
vn -0.1936 0.0233 -0.9808
vn -0.7933 0.2774 -0.5419
vn -0.0607 -0.0701 -0.9957
vn -0.0521 -0.0495 -0.9974
vn -0.8189 0.0259 -0.5733
vn -0.9021 0.2592 0.3450
vn -0.9285 0.0446 0.3687
vn -0.0592 -0.0094 0.9982
vn 0.0105 -0.1287 0.9916
vn 0.8058 -0.1577 0.5708
vn 0.8059 -0.2559 0.5339
vn -0.7734 0.2475 -0.5836
vn -0.9330 0.2600 0.2489
vn 0.0848 -0.0069 0.9964
vn 0.0241 -0.1231 0.9921
vn -0.9260 0.0194 0.3771
vn 0.7791 -0.1371 0.6117
vn -0.8114 -0.0227 -0.5841
vn -0.0400 -0.0750 -0.9964
vn 0.6837 -0.3732 0.6271
vn 0.2159 -0.4728 0.8543
vn -0.7159 -0.5226 0.4630
vn 0.7956 -0.2751 -0.5398
vn -0.6707 -0.2492 -0.6986
vn -0.2532 -0.1513 -0.9555
vn 0.7905 -0.3542 0.4997
vn 0.2257 -0.5562 0.7998
vn -0.6963 -0.5345 0.4791
vn -0.1452 -0.0294 -0.9890
vn -0.7249 -0.3885 -0.5688
vn 0.7010 -0.3700 0.6096
vn 0.1916 -0.5239 0.8299
vn -0.6651 -0.6198 0.4165
vn 0.8114 -0.2232 -0.5402
vn -0.7005 -0.3869 -0.5997
vn -0.1677 -0.2048 -0.9643
vn -0.0807 -0.0385 -0.9960
vn -0.7267 -0.5114 -0.4586
vn 0.1500 -0.6085 0.7792
vn 0.8118 -0.2963 0.5032
vn -0.6610 -0.6221 0.4197
vn 0.6589 -0.2797 0.6983
vn 0.0193 -0.4692 0.8829
vn -0.7239 -0.5968 0.3461
vn 0.8105 -0.3252 -0.4872
vn -0.6780 -0.5069 -0.5324
vn -0.0727 -0.3093 -0.9482
vn -0.0337 -0.1985 -0.9795
vn -0.6670 -0.5265 -0.5272
vn -0.0245 -0.5164 0.8560
vn 0.8023 -0.1720 0.5716
vn -0.7408 -0.5824 0.3348
vn -0.8414 0.2012 -0.5015
vn -0.1893 0.1029 -0.9765
vn -0.1491 0.0610 -0.9869
vn -0.7689 -0.0755 -0.6349
vn -0.7989 0.1641 0.5787
vn -0.8085 -0.2450 0.5350
vn 0.1402 -0.0706 0.9876
vn 0.2007 -0.2871 0.9366
vn 0.7815 -0.1797 0.5975
vn 0.8086 -0.2705 0.5225
vn 0.8036 -0.0823 -0.5895
vn -0.1571 0.0382 -0.9868
vn -0.2080 0.0821 -0.9747
vn 0.8716 -0.0717 -0.4850
vn 0.8218 -0.2280 0.5222
vn 0.7874 -0.1525 0.5973
vn 0.8256 0.0987 -0.5556
vn -0.1121 0.0654 -0.9915
vn -0.1395 0.1449 -0.9796
vn 0.8549 0.1183 -0.5051
vn 0.8560 -0.0849 0.5099
vn 0.8323 -0.0302 0.5535
vn -0.8783 0.2187 -0.4252
vn -0.0590 0.1680 -0.9840
vn -0.0699 0.0926 -0.9932
vn -0.8351 -0.1699 -0.5232
vn -0.8247 0.1571 0.5433
vn -0.7957 -0.3376 0.5028
vn 0.0962 0.0059 0.9953
vn 0.1094 -0.3087 0.9448
vn 0.8357 -0.0483 0.5471
vn 0.8430 -0.1401 0.5194
vn 0.8258 0.0685 -0.5598
vn -0.0460 -0.0567 -0.9973
vn -0.0694 0.0448 -0.9966
vn 0.8842 0.1205 -0.4512
vn 0.8079 0.0696 0.5852
vn 0.7802 0.0832 0.6200
vn -0.8246 0.1701 -0.5395
vn -0.0132 0.0696 -0.9975
vn -0.0276 -0.0358 -0.9990
vn -0.7664 -0.1958 -0.6118
vn -0.8927 0.2090 0.3992
vn -0.8795 -0.2717 0.3908
vn 0.0565 0.1401 0.9885
vn -0.0680 -0.1560 0.9854
vn 0.8147 0.0816 0.5741
vn 0.8245 0.0404 0.5644
vn 0.7997 -0.1745 -0.5745
vn 0.8397 -0.1533 -0.5209
vn 0.7968 -0.3052 0.5215
vn 0.7507 -0.3362 0.5687
vn -0.2286 -0.0684 -0.9711
vn -0.1497 -0.0326 -0.9882
vn -0.1249 -0.0888 -0.9882
vn -0.0873 -0.0421 -0.9953
vn 0.8471 -0.0269 -0.5308
vn 0.8205 -0.0615 -0.5683
vn 0.8285 -0.2361 0.5077
vn 0.7983 -0.2885 0.5287
vn -0.0612 -0.2345 -0.9702
vn -0.0393 -0.1977 -0.9795
vn 0.8336 -0.0942 -0.5443
vn 0.8315 -0.1573 -0.5328
vn 0.8053 -0.1165 0.5813
vn 0.7148 -0.2052 0.6685
vn -0.1119 0.0029 -0.9937
vn 0.7389 0.0747 -0.6696
vn 0.8154 -0.3779 -0.4385
vn 0.0773 -0.2364 -0.9686
vn 0.9083 -0.2739 0.3162
vn 0.9410 0.1907 0.2796
vn -0.6631 0.0582 -0.7463
vn -0.0383 -0.0039 -0.9993
vn 0.1257 -0.2608 -0.9572
vn -0.6509 0.1574 -0.7427
vn -0.9144 0.2222 -0.3385
vn -0.9339 0.2158 -0.2851
vn -0.7545 0.4171 0.5067
vn -0.6565 0.1812 0.7322
vn 0.0467 0.3981 0.9162
vn 0.1156 0.0775 0.9903
vn 0.6754 0.2831 0.6809
vn 0.6812 -0.1380 0.7190
vn 0.9470 0.2112 0.2422
vn 0.8896 -0.2558 0.3783
vn 0.6044 -0.7090 -0.3634
vn 0.7152 -0.6317 -0.2991
vn 0.7509 -0.5350 0.3872
vn 0.7260 -0.5306 0.4375
vn -0.2070 -0.4258 -0.8808
vn 0.0962 -0.4989 -0.8613
vt 0.119685 0.188439
vt 0.115757 0.221994
vt 0.121398 0.222855
vt 0.124471 0.188312
vt 0.127923 0.223762
vt 0.130119 0.188431
vt 0.134675 0.224585
vt 0.135916 0.188698
vt 0.140825 0.225127
vt 0.141054 0.188917
vt 0.146698 0.224990
vt 0.145596 0.188921
vt 0.153372 0.224310
vt 0.151314 0.188813
vt 0.160406 0.223129
vt 0.157337 0.188563
vt 0.165357 0.222232
vt 0.161560 0.188607
vt 0.176075 0.248653
vt 0.169347 0.250814
vt 0.179792 0.276903
vt 0.188793 0.272363
vt 0.170381 0.278871
vt 0.161844 0.252450
vt 0.159821 0.280340
vt 0.155817 0.253470
vt 0.149839 0.281550
vt 0.147842 0.254753
vt 0.140411 0.281801
vt 0.140517 0.255122
vt 0.129863 0.280735
vt 0.132331 0.253991
vt 0.120676 0.279628
vt 0.125445 0.252891
vt 0.111726 0.278300
vt 0.120715 0.252046
vt 0.102765 0.276732
vt 0.112982 0.250617
vt 0.093435 0.272534
vt 0.105607 0.248528
vt 0.097462 0.292059
vt 0.086766 0.287202
vt 0.107068 0.293459
vt 0.108774 0.149018
vt 0.116139 0.169000
vt 0.121903 0.167899
vt 0.115629 0.147315
vt 0.128335 0.167610
vt 0.125170 0.146921
vt 0.134943 0.167700
vt 0.133315 0.146911
vt 0.141302 0.167837
vt 0.141254 0.147029
vt 0.147079 0.167970
vt 0.148427 0.147274
vt 0.153090 0.168031
vt 0.156267 0.147509
vt 0.160326 0.168295
vt 0.167155 0.148041
vt 0.165416 0.169213
vt 0.173319 0.149236
vt 0.105122 0.141513
vt 0.112840 0.140164
vt 0.103910 0.133968
vt 0.113241 0.133362
vt 0.123946 0.140089
vt 0.122887 0.133155
vt 0.132680 0.140283
vt 0.132611 0.133550
vt 0.141094 0.140389
vt 0.141240 0.133617
vt 0.149549 0.140264
vt 0.149261 0.133810
vt 0.157521 0.140085
vt 0.158357 0.133553
vt 0.168485 0.140021
vt 0.169754 0.133402
vt 0.177295 0.141516
vt 0.178001 0.133753
vt 0.168928 0.106657
vt 0.176552 0.105939
vt 0.167329 0.053579
vt 0.161759 0.054482
vt 0.158305 0.107727
vt 0.153919 0.055757
vt 0.149550 0.108195
vt 0.147402 0.056383
vt 0.141350 0.108310
vt 0.141271 0.056569
vt 0.132333 0.107904
vt 0.134536 0.056053
vt 0.123023 0.107259
vt 0.127613 0.055259
vt 0.113786 0.106616
vt 0.120780 0.054371
vt 0.105127 0.105997
vt 0.114439 0.053518
vt 0.124950 0.003528
vt 0.128779 0.004107
vt 0.132914 0.004689
vt 0.137103 0.005187
vt 0.141177 0.005483
vt 0.144764 0.005367
vt 0.148526 0.005000
vt 0.153632 0.004157
vt 0.156998 0.003576
vt 0.185311 0.292617
vt 0.195970 0.286673
vt 0.173954 0.294649
vt 0.161312 0.296374
vt 0.150208 0.297269
vt 0.140279 0.297165
vt 0.129789 0.296558
vt 0.118599 0.295196
vt 0.715594 0.660536
vt 0.712670 0.664745
vt 0.715851 0.668411
vt 0.718982 0.664751
vt 0.712191 0.658260
vt 0.709469 0.662797
vt 0.708872 0.656378
vt 0.707228 0.661662
vt 0.723180 0.662230
vt 0.719006 0.656223
vt 0.715272 0.653159
vt 0.710893 0.650629
vt 0.705165 0.654502
vt 0.704803 0.648696
vt 0.701798 0.653299
vt 0.701089 0.648162
vt 0.697885 0.653699
vt 0.696499 0.649515
vt 0.704290 0.659833
vt 0.697109 0.658591
vt 0.700990 0.658493
vt 0.725430 0.650165
vt 0.721819 0.647166
vt 0.729544 0.640002
vt 0.733144 0.643367
vt 0.739226 0.652465
vt 0.731139 0.656947
vt 0.736708 0.634321
vt 0.739839 0.638668
vt 0.744619 0.648913
vt 0.752392 0.632722
vt 0.754894 0.640905
vt 0.754569 0.632418
vt 0.756392 0.640883
vt 0.719386 0.645530
vt 0.725930 0.636956
vt 0.722474 0.634358
vt 0.716615 0.644086
vt 0.729878 0.625547
vt 0.733823 0.629489
vt 0.748214 0.620383
vt 0.750743 0.625975
vt 0.752981 0.620679
vt 0.751526 0.618223
vt 0.761500 0.616349
vt 0.761755 0.616672
vt 0.753661 0.626393
vt 0.713762 0.642736
vt 0.718638 0.632243
vt 0.742782 0.614539
vt 0.737033 0.610057
vt 0.724760 0.622945
vt 0.745784 0.612714
vt 0.740761 0.607238
vt 0.738449 0.605903
vt 0.743728 0.597733
vt 0.744018 0.597863
vt 0.731787 0.608521
vt 0.733152 0.605174
vt 0.725600 0.606959
vt 0.720228 0.620775
vt 0.713744 0.618740
vt 0.727261 0.603976
vt 0.717002 0.602437
vt 0.717488 0.600265
vt 0.706308 0.612522
vt 0.704468 0.607227
vt 0.702345 0.604173
vt 0.702088 0.609044
vt 0.708766 0.629149
vt 0.714240 0.630690
vt 0.704216 0.640996
vt 0.709466 0.641854
vt 0.698070 0.642809
vt 0.698290 0.632479
vt 0.693292 0.634917
vt 0.702092 0.624522
vt 0.700540 0.623184
vt 0.697542 0.631147
vt 0.700641 0.614937
vt 0.702995 0.616114
vt 0.692854 0.633897
vt 0.691775 0.643201
vt 0.687213 0.635961
vt 0.684377 0.617979
vt 0.687259 0.614908
vt 0.680017 0.618460
vt 0.689092 0.611248
vt 0.690819 0.608483
vt 0.700832 0.608437
vt 0.693726 0.604556
vt 0.696419 0.600043
vt 0.674631 0.606387
vt 0.670891 0.608855
vt 0.678332 0.604140
vt 0.680474 0.601339
vt 0.681753 0.598821
vt 0.684663 0.595333
vt 0.687301 0.591890
vt 0.314954 0.230493
vt 0.315699 0.239009
vt 0.322428 0.237352
vt 0.322045 0.224137
vt 0.328582 0.238389
vt 0.329424 0.226644
vt 0.333927 0.238653
vt 0.334427 0.227391
vt 0.333598 0.246064
vt 0.328266 0.246124
vt 0.329555 0.263759
vt 0.335378 0.263966
vt 0.336361 0.267284
vt 0.331356 0.267368
vt 0.332118 0.285127
vt 0.336662 0.285048
vt 0.329758 0.267575
vt 0.332298 0.217917
vt 0.327288 0.216024
vt 0.333910 0.212161
vt 0.339945 0.212493
vt 0.340513 0.218234
vt 0.329173 0.211157
vt 0.335474 0.207390
vt 0.331897 0.206876
vt 0.338668 0.207621
vt 0.324719 0.262859
vt 0.324735 0.266575
vt 0.320260 0.262586
vt 0.320381 0.265952
vt 0.321724 0.245785
vt 0.317954 0.284457
vt 0.322357 0.284636
vt 0.316638 0.248150
vt 0.326842 0.284930
vt 0.305755 0.250841
vt 0.303668 0.248216
vt 0.308590 0.252725
vt 0.322096 0.286735
vt 0.317687 0.286359
vt 0.326201 0.287442
vt 0.318356 0.307746
vt 0.321047 0.307564
vt 0.323823 0.307696
vt 0.300796 0.262999
vt 0.304433 0.265734
vt 0.298907 0.261711
vt 0.350050 0.284385
vt 0.348686 0.266546
vt 0.343679 0.267164
vt 0.345196 0.284823
vt 0.347523 0.263906
vt 0.341819 0.264652
vt 0.341917 0.267325
vt 0.345247 0.246276
vt 0.339545 0.246194
vt 0.344473 0.238623
vt 0.339268 0.238907
vt 0.345685 0.228452
vt 0.339426 0.228160
vt 0.341685 0.284923
vt 0.349822 0.238649
vt 0.351372 0.246609
vt 0.352587 0.263634
vt 0.353071 0.266273
vt 0.354350 0.284016
vt 0.350171 0.285646
vt 0.354574 0.286077
vt 0.345398 0.286668
vt 0.341656 0.287757
vt 0.336734 0.287741
vt 0.340519 0.307642
vt 0.337354 0.307948
vt 0.332282 0.287992
vt 0.334510 0.308037
vt 0.350458 0.304673
vt 0.347558 0.305241
vt 0.353099 0.304362
vt 0.757515 0.596866
vt 0.759914 0.600487
vt 0.761760 0.598903
vt 0.759225 0.595264
vt 0.756486 0.588697
vt 0.754602 0.590568
vt 0.765454 0.602080
vt 0.763537 0.603586
vt 0.771535 0.605811
vt 0.769475 0.607325
vt 0.758656 0.601569
vt 0.756314 0.597939
vt 0.762321 0.604600
vt 0.776822 0.581356
vt 0.778561 0.584307
vt 0.781443 0.586698
vt 0.786273 0.592017
vt 0.772426 0.575710
vt 0.668741 0.588994
vt 0.669003 0.588598
vt 0.668146 0.587897
vt 0.667619 0.589103
vt 0.669059 0.587176
vt 0.669252 0.588224
vt 0.667472 0.586852
vt 0.666291 0.587678
vt 0.668666 0.586124
vt 0.671951 0.603473
vt 0.675751 0.601143
vt 0.677598 0.598221
vt 0.678510 0.595851
vt 0.681506 0.592261
vt 0.667640 0.606079
vt 0.684303 0.588348
vt 0.735038 0.585210
vt 0.742317 0.583118
vt 0.742465 0.580433
vt 0.735113 0.582715
vt 0.730917 0.585450
vt 0.730668 0.583397
vt 0.726201 0.585127
vt 0.726001 0.583449
vt 0.718994 0.583323
vt 0.719236 0.585314
vt 0.735164 0.586888
vt 0.731098 0.586989
vt 0.726321 0.586540
vt 0.728671 0.561079
vt 0.725329 0.560941
vt 0.718531 0.561653
vt 0.731784 0.560265
vt 0.738778 0.560246
vt 0.771450 0.636333
vt 0.770404 0.642725
vt 0.772358 0.643341
vt 0.772491 0.636585
vt 0.772100 0.631702
vt 0.773364 0.632131
vt 0.773338 0.627557
vt 0.774777 0.627891
vt 0.778514 0.621174
vt 0.776637 0.620808
vt 0.770086 0.635894
vt 0.770631 0.631182
vt 0.771749 0.627141
vt 0.794401 0.634109
vt 0.792699 0.637298
vt 0.797229 0.627802
vt 0.792144 0.640819
vt 0.791333 0.647050
vt 0.725692 0.543211
vt 0.726246 0.543870
vt 0.726717 0.543819
vt 0.726686 0.542895
vt 0.727211 0.543779
vt 0.727673 0.543029
vt 0.717708 0.557132
vt 0.724730 0.556709
vt 0.727706 0.556829
vt 0.737673 0.555782
vt 0.730437 0.556050
vt 0.790368 0.572130
vt 0.790336 0.573087
vt 0.791017 0.573760
vt 0.791742 0.573028
vt 0.791612 0.574621
vt 0.792560 0.574725
vt 0.788963 0.589715
vt 0.783706 0.584359
vt 0.779533 0.579538
vt 0.775230 0.573457
vt 0.781103 0.582192
vt 0.808478 0.639556
vt 0.807819 0.640346
vt 0.807595 0.641349
vt 0.808705 0.641619
vt 0.807264 0.642201
vt 0.807311 0.643120
vt 0.794643 0.648320
vt 0.795155 0.641642
vt 0.797349 0.635682
vt 0.800721 0.629172
vt 0.795775 0.638475
vt 0.269538 0.289478
vt 0.269538 0.296376
vt 0.270389 0.296376
vt 0.270389 0.289044
vt 0.269538 0.286339
vt 0.270389 0.286339
vt 0.269538 0.283181
vt 0.270389 0.283181
vt 0.269538 0.276270
vt 0.270389 0.276270
vt 0.369309 0.305442
vt 0.372179 0.305617
vt 0.372096 0.304959
vt 0.369320 0.304827
vt 0.366528 0.305670
vt 0.366629 0.305009
vt 0.369050 0.308675
vt 0.372395 0.308364
vt 0.372199 0.307732
vt 0.369034 0.308038
vt 0.366046 0.308786
vt 0.366190 0.308127
vt 0.274848 0.289944
vt 0.274666 0.297061
vt 0.275559 0.297074
vt 0.275286 0.289478
vt 0.274309 0.286162
vt 0.274939 0.286184
vt 0.275097 0.282777
vt 0.275567 0.283217
vt 0.275709 0.275694
vt 0.276625 0.275794
vt 0.373407 0.306738
vt 0.376256 0.306368
vt 0.376127 0.305732
vt 0.373485 0.306044
vt 0.370298 0.307392
vt 0.370585 0.306612
vt 0.280648 0.291105
vt 0.280648 0.297560
vt 0.281627 0.297560
vt 0.281627 0.291105
vt 0.280648 0.287761
vt 0.281627 0.287761
vt 0.280648 0.284521
vt 0.281627 0.285020
vt 0.280648 0.278362
vt 0.281627 0.278362
vt 0.320262 0.324744
vt 0.320516 0.310881
vt 0.317735 0.311108
vt 0.319763 0.324788
vt 0.320743 0.324821
vt 0.323386 0.311056
vt 0.338842 0.322892
vt 0.340684 0.310048
vt 0.337339 0.310358
vt 0.337858 0.322842
vt 0.334335 0.310470
vt 0.336991 0.322910
vt 0.351436 0.319088
vt 0.353198 0.307553
vt 0.350348 0.307923
vt 0.350256 0.319182
vt 0.347239 0.308577
vt 0.349066 0.319346
vt 0.374552 0.302932
vt 0.370013 0.303248
vt 0.370480 0.303822
vt 0.375238 0.303918
vt 0.368051 0.304245
vt 0.367742 0.303512
vt 0.285585 0.280975
vt 0.284951 0.276860
vt 0.284161 0.276012
vt 0.284567 0.280984
vt 0.285366 0.285946
vt 0.284488 0.285964
vt 0.287083 0.287789
vt 0.286104 0.287698
vt 0.286893 0.291794
vt 0.286475 0.291345
vt 0.285682 0.295995
vt 0.285320 0.295607
vt 0.284594 0.300113
vt 0.283976 0.300689
vt 0.297584 0.282514
vt 0.299941 0.266066
vt 0.297829 0.264794
vt 0.297108 0.282169
vt 0.298032 0.282849
vt 0.303473 0.269256
s 1
usemtl hr_pain_panic_mat.004
f 3/1/1 2/2/2 1/3/3
f 4/4/4 3/1/1 1/3/3
f 4/4/4 1/3/3 5/5/5
f 6/6/6 4/4/4 5/5/5
f 6/6/6 5/5/5 7/7/7
f 8/8/8 6/6/6 7/7/7
f 8/8/8 7/7/7 9/9/9
f 10/10/10 8/8/8 9/9/9
f 10/10/10 9/9/9 11/11/11
f 12/12/12 10/10/10 11/11/11
f 12/12/12 11/11/11 13/13/13
f 14/14/14 12/12/12 13/13/13
f 14/14/14 13/13/13 15/15/15
f 16/16/16 14/14/14 15/15/15
f 16/16/16 15/15/15 17/17/17
f 18/18/18 16/16/16 17/17/17
f 17/17/17 15/15/15 19/19/19
f 15/15/15 20/20/20 19/19/19
f 15/15/15 13/13/13 20/20/20
f 20/20/20 21/21/21 19/19/19
f 21/21/21 22/22/22 19/19/19
f 23/23/23 21/21/21 20/20/20
f 24/24/24 23/23/23 20/20/20
f 13/13/13 24/24/24 20/20/20
f 25/25/25 23/23/23 24/24/24
f 26/26/26 25/25/25 24/24/24
f 26/26/26 24/24/24 13/13/13
f 25/25/25 26/26/26 27/27/27
f 26/26/26 28/28/28 27/27/27
f 28/28/28 26/26/26 13/13/13
f 29/29/29 27/27/27 28/28/28
f 30/30/30 29/29/29 28/28/28
f 31/31/31 29/29/29 30/30/30
f 32/32/32 31/31/31 30/30/30
f 33/33/33 31/31/31 32/32/32
f 34/34/34 33/33/33 32/32/32
f 33/33/33 34/34/34 35/35/35
f 34/34/34 36/36/36 35/35/35
f 35/35/35 36/36/36 37/37/37
f 36/36/36 38/38/38 37/37/37
f 39/39/39 37/37/37 38/38/38
f 40/40/40 39/39/39 38/38/38
f 2/2/2 40/40/40 38/38/38
f 1/3/3 2/2/2 38/38/38
f 9/9/9 30/30/30 28/28/28
f 11/11/11 9/9/9 28/28/28
f 7/7/7 32/32/32 30/30/30
f 9/9/9 7/7/7 30/30/30
f 5/5/5 34/34/34 32/32/32
f 7/7/7 5/5/5 32/32/32
f 38/38/38 36/36/36 5/5/5
f 1/3/3 38/38/38 5/5/5
f 36/36/36 34/34/34 5/5/5
f 37/37/37 39/39/39 41/41/41
f 39/39/39 42/42/42 41/41/41
f 37/37/37 41/41/41 43/43/43
f 54/44/44 53/45/45 52/46/46
f 55/47/47 54/44/44 52/46/46
f 55/47/47 52/46/46 56/48/48
f 57/49/49 55/47/47 56/48/48
f 57/49/49 56/48/48 58/50/50
f 59/51/51 57/49/49 58/50/50
f 59/51/51 58/50/50 60/52/52
f 61/53/53 59/51/51 60/52/52
f 61/53/53 60/52/52 62/54/54
f 63/55/55 61/53/53 62/54/54
f 63/55/55 62/54/54 64/56/56
f 65/57/57 63/55/55 64/56/56
f 65/57/57 64/56/56 66/58/58
f 67/59/59 65/57/57 66/58/58
f 67/59/59 66/58/58 68/60/60
f 69/61/61 67/59/59 68/60/60
f 70/62/62 54/44/44 55/47/47
f 71/63/63 70/62/62 55/47/47
f 72/64/64 70/62/62 71/63/63
f 73/65/65 72/64/64 71/63/63
f 73/65/65 71/63/63 74/66/66
f 75/67/67 73/65/65 74/66/66
f 75/67/67 74/66/66 76/68/68
f 77/69/69 75/67/67 76/68/68
f 77/69/69 76/68/68 78/70/70
f 79/71/71 77/69/69 78/70/70
f 79/71/71 78/70/70 80/72/72
f 81/73/73 79/71/71 80/72/72
f 81/73/73 80/72/72 82/74/74
f 83/75/75 81/73/73 82/74/74
f 83/75/75 82/74/74 84/76/76
f 85/77/77 83/75/75 84/76/76
f 85/77/77 84/76/76 86/78/78
f 87/79/79 85/77/77 86/78/78
f 86/78/78 84/76/76 69/61/61
f 84/76/76 67/59/59 69/61/61
f 84/76/76 82/74/74 67/59/59
f 82/74/74 65/57/57 67/59/59
f 82/74/74 80/72/72 65/57/57
f 80/72/72 63/55/55 65/57/57
f 80/72/72 78/70/70 63/55/55
f 78/70/70 61/53/53 63/55/55
f 78/70/70 76/68/68 61/53/53
f 76/68/68 59/51/51 61/53/53
f 76/68/68 74/66/66 59/51/51
f 74/66/66 57/49/49 59/51/51
f 74/66/66 71/63/63 57/49/49
f 71/63/63 55/47/47 57/49/49
f 88/80/80 85/77/77 87/79/79
f 89/81/81 88/80/80 87/79/79
f 88/80/80 89/81/81 90/82/82
f 91/83/83 88/80/80 90/82/82
f 92/84/84 88/80/80 91/83/83
f 93/85/85 92/84/84 91/83/83
f 94/86/86 92/84/84 93/85/85
f 95/87/87 94/86/86 93/85/85
f 96/88/88 94/86/86 95/87/87
f 97/89/89 96/88/88 95/87/87
f 98/90/90 96/88/88 97/89/89
f 99/91/91 98/90/90 97/89/89
f 98/90/90 99/91/91 100/92/92
f 99/91/91 101/93/93 100/92/92
f 100/92/92 101/93/93 102/94/94
f 101/93/93 103/95/95 102/94/94
f 104/96/96 102/94/94 103/95/95
f 105/97/97 104/96/96 103/95/95
f 102/94/94 104/96/96 73/65/65
f 104/96/96 72/64/64 73/65/65
f 102/94/94 73/65/65 75/67/67
f 100/92/92 102/94/94 75/67/67
f 94/86/86 96/88/88 81/73/73
f 96/88/88 79/71/71 81/73/73
f 96/88/88 98/90/90 79/71/71
f 98/90/90 77/69/69 79/71/71
f 100/92/92 75/67/67 77/69/69
f 98/90/90 100/92/92 77/69/69
f 106/98/98 105/97/97 103/95/95
f 107/99/99 106/98/98 103/95/95
f 107/99/99 103/95/95 101/93/93
f 108/100/100 107/99/99 101/93/93
f 108/100/100 101/93/93 99/91/91
f 109/101/101 108/100/100 99/91/91
f 94/86/86 81/73/73 83/75/75
f 92/84/84 94/86/86 83/75/75
f 92/84/84 83/75/75 85/77/77
f 88/80/80 92/84/84 85/77/77
f 109/101/101 99/91/91 97/89/89
f 110/102/102 109/101/101 97/89/89
f 110/102/102 97/89/89 95/87/87
f 111/103/103 110/102/102 95/87/87
f 111/103/103 95/87/87 93/85/85
f 112/104/104 111/103/103 93/85/85
f 112/104/104 93/85/85 91/83/83
f 113/105/105 112/104/104 91/83/83
f 113/105/105 91/83/83 90/82/82
f 114/106/106 113/105/105 90/82/82
f 11/11/11 28/28/28 13/13/13
f 21/21/21 50/107/107 51/108/108
f 22/22/22 21/21/21 51/108/108
f 21/21/21 23/23/23 50/107/107
f 23/23/23 49/109/109 50/107/107
f 23/23/23 25/25/25 49/109/109
f 25/25/25 48/110/110 49/109/109
f 25/25/25 27/27/27 48/110/110
f 27/27/27 47/111/111 48/110/110
f 27/27/27 29/29/29 47/111/111
f 29/29/29 46/112/112 47/111/111
f 29/29/29 31/31/31 46/112/112
f 31/31/31 45/113/113 46/112/112
f 31/31/31 33/33/33 45/113/113
f 33/33/33 44/114/114 45/113/113
f 33/33/33 35/35/35 44/114/114
f 35/35/35 43/43/43 44/114/114
f 35/35/35 37/37/37 43/43/43
f 53/45/45 3/1/1 4/4/4
f 52/46/46 53/45/45 4/4/4
f 52/46/46 4/4/4 6/6/6
f 56/48/48 52/46/46 6/6/6
f 56/48/48 6/6/6 8/8/8
f 58/50/50 56/48/48 8/8/8
f 58/50/50 8/8/8 10/10/10
f 60/52/52 58/50/50 10/10/10
f 60/52/52 10/10/10 12/12/12
f 62/54/54 60/52/52 12/12/12
f 62/54/54 12/12/12 14/14/14
f 64/56/56 62/54/54 14/14/14
f 64/56/56 14/14/14 16/16/16
f 66/58/58 64/56/56 16/16/16
f 66/58/58 16/16/16 18/18/18
f 68/60/60 66/58/58 18/18/18
f 117/115/115 116/116/116 115/117/117
f 118/118/118 117/115/115 115/117/117
f 117/115/115 119/119/119 116/116/116
f 119/119/119 120/120/120 116/116/116
f 119/119/119 121/121/121 120/120/120
f 121/121/121 122/122/122 120/120/120
f 118/118/118 123/123/123 117/115/115
f 123/123/123 124/124/124 117/115/115
f 119/119/119 117/115/115 124/124/124
f 125/125/125 119/119/119 124/124/124
f 119/119/119 125/125/125 121/121/121
f 125/125/125 126/126/126 121/121/121
f 127/127/127 121/121/121 126/126/126
f 128/128/128 127/127/127 126/126/126
f 129/129/129 127/127/127 128/128/128
f 130/130/130 129/129/129 128/128/128
f 131/131/131 129/129/129 130/130/130
f 132/132/132 131/131/131 130/130/130
f 121/121/121 127/127/127 133/133/133
f 122/122/122 121/121/121 133/133/133
f 129/129/129 131/131/131 134/134/134
f 135/135/135 129/129/129 134/134/134
f 127/127/127 129/129/129 135/135/135
f 133/133/133 127/127/127 135/135/135
f 124/124/124 136/136/136 125/125/125
f 136/136/136 137/137/137 125/125/125
f 138/138/138 137/137/137 136/136/136
f 139/139/139 138/138/138 136/136/136
f 140/140/140 139/139/139 136/136/136
f 141/141/141 140/140/140 136/136/136
f 142/142/142 138/138/138 139/139/139
f 143/143/143 142/142/142 139/139/139
f 144/144/144 143/143/143 139/139/139
f 140/140/140 144/144/144 139/139/139
f 145/145/145 143/143/143 144/144/144
f 146/146/146 145/145/145 144/144/144
f 147/147/147 145/145/145 146/146/146
f 148/148/148 147/147/147 146/146/146
f 141/141/141 136/136/136 124/124/124
f 123/123/123 141/141/141 124/124/124
f 149/149/149 137/137/137 138/138/138
f 150/150/150 149/149/149 138/138/138
f 150/150/150 138/138/138 142/142/142
f 150/150/150 151/151/151 149/149/149
f 151/151/151 152/152/152 149/149/149
f 153/153/153 151/151/151 150/150/150
f 154/154/154 153/153/153 150/150/150
f 154/154/154 150/150/150 142/142/142
f 155/155/155 154/154/154 142/142/142
f 154/154/154 155/155/155 153/153/153
f 156/156/156 155/155/155 142/142/142
f 145/145/145 156/156/156 143/143/143
f 157/157/157 155/155/155 156/156/156
f 158/158/158 155/155/155 157/157/157
f 159/159/159 158/158/158 157/157/157
f 160/160/160 159/159/159 157/157/157
f 161/161/161 157/157/157 156/156/156
f 149/149/149 152/152/152 126/126/126
f 125/125/125 149/149/149 126/126/126
f 162/162/162 152/152/152 151/151/151
f 152/152/152 162/162/162 126/126/126
f 163/163/163 162/162/162 151/151/151
f 163/163/163 151/151/151 153/153/153
f 164/164/164 155/155/155 158/158/158
f 155/155/155 164/164/164 153/153/153
f 153/153/153 164/164/164 165/165/165
f 166/166/166 153/153/153 165/165/165
f 166/166/166 163/163/163 153/153/153
f 165/165/165 164/164/164 167/167/167
f 167/167/167 164/164/164 158/158/158
f 168/168/168 165/165/165 167/167/167
f 169/169/169 165/165/165 168/168/168
f 170/170/170 169/169/169 168/168/168
f 171/171/171 170/170/170 168/168/168
f 172/172/172 165/165/165 169/169/169
f 173/173/173 172/172/172 169/169/169
f 174/174/174 172/172/172 173/173/173
f 175/175/175 172/172/172 174/174/174
f 165/165/165 172/172/172 175/175/175
f 166/166/166 165/165/165 175/175/175
f 166/166/166 175/175/175 163/163/163
f 176/176/176 175/175/175 174/174/174
f 177/177/177 174/174/174 173/173/173
f 174/174/174 177/177/177 178/178/178
f 177/177/177 179/179/179 178/178/178
f 174/174/174 178/178/178 180/180/180
f 180/180/180 176/176/176 174/174/174
f 178/178/178 181/181/181 180/180/180
f 181/181/181 182/182/182 180/180/180
f 182/182/182 183/183/183 180/180/180
f 180/180/180 183/183/183 176/176/176
f 176/176/176 184/184/184 175/175/175
f 184/184/184 185/185/185 175/175/175
f 184/184/184 186/186/186 185/185/185
f 186/186/186 187/187/187 185/185/185
f 186/186/186 128/128/128 187/187/187
f 130/130/130 128/128/128 186/186/186
f 188/188/188 130/130/130 186/186/186
f 188/188/188 186/186/186 189/189/189
f 189/189/189 186/186/186 184/184/184
f 190/190/190 188/188/188 189/189/189
f 191/191/191 189/189/189 184/184/184
f 191/191/191 192/192/192 189/189/189
f 192/192/192 193/193/193 189/189/189
f 189/189/189 193/193/193 190/190/190
f 194/194/194 192/192/192 191/191/191
f 195/195/195 194/194/194 191/191/191
f 195/195/195 183/183/183 194/194/194
f 191/191/191 184/184/184 176/176/176
f 195/195/195 191/191/191 176/176/176
f 183/183/183 195/195/195 176/176/176
f 193/193/193 196/196/196 190/190/190
f 130/130/130 188/188/188 197/197/197
f 132/132/132 130/130/130 197/197/197
f 188/188/188 190/190/190 198/198/198
f 197/197/197 188/188/188 198/198/198
f 190/190/190 196/196/196 198/198/198
f 196/196/196 193/193/193 199/199/199
f 193/193/193 200/200/200 199/199/199
f 193/193/193 192/192/192 200/200/200
f 196/196/196 199/199/199 201/201/201
f 198/198/198 196/196/196 201/201/201
f 192/192/192 194/194/194 202/202/202
f 192/192/192 202/202/202 200/200/200
f 194/194/194 203/203/203 202/202/202
f 194/194/194 204/204/204 203/203/203
f 183/183/183 204/204/204 194/194/194
f 182/182/182 204/204/204 183/183/183
f 204/204/204 182/182/182 205/205/205
f 204/204/204 205/205/205 203/203/203
f 182/182/182 206/206/206 205/205/205
f 201/201/201 199/199/199 207/207/207
f 207/207/207 199/199/199 200/200/200
f 208/208/208 201/201/201 207/207/207
f 209/209/209 207/207/207 200/200/200
f 209/209/209 200/200/200 202/202/202
f 210/210/210 209/209/209 202/202/202
f 210/210/210 202/202/202 203/203/203
f 211/211/211 210/210/210 203/203/203
f 203/203/203 205/205/205 211/211/211
f 205/205/205 212/212/212 211/211/211
f 205/205/205 206/206/206 212/212/212
f 206/206/206 213/213/213 212/212/212
f 216/214/214 215/215/215 214/216/216
f 217/217/217 216/214/214 214/216/216
f 214/216/216 218/218/218 217/217/217
f 218/218/218 219/219/219 217/217/217
f 218/218/218 220/220/220 219/219/219
f 220/220/220 221/221/221 219/219/219
f 222/222/222 220/220/220 218/218/218
f 223/223/223 222/222/222 218/218/218
f 218/218/218 214/216/216 223/223/223
f 223/223/223 224/224/224 222/222/222
f 224/224/224 225/225/225 222/222/222
f 226/226/226 225/225/225 224/224/224
f 227/227/227 226/226/226 224/224/224
f 227/227/227 228/228/228 226/226/226
f 228/228/228 229/229/229 226/226/226
f 230/230/230 227/227/227 224/224/224
f 221/221/221 231/231/231 219/219/219
f 219/219/219 231/231/231 232/232/232
f 217/217/217 219/219/219 232/232/232
f 231/231/231 233/233/233 232/232/232
f 233/233/233 231/231/231 234/234/234
f 231/231/231 235/235/235 234/234/234
f 235/235/235 231/231/231 221/221/221
f 233/233/233 236/236/236 232/232/232
f 236/236/236 233/233/233 237/237/237
f 238/238/238 236/236/236 237/237/237
f 233/233/233 234/234/234 239/239/239
f 237/237/237 233/233/233 239/239/239
f 224/224/224 240/240/240 230/230/230
f 240/240/240 241/241/241 230/230/230
f 240/240/240 242/242/242 241/241/241
f 242/242/242 243/243/243 241/241/241
f 242/242/242 240/240/240 223/223/223
f 240/240/240 224/224/224 223/223/223
f 244/244/244 242/242/242 223/223/223
f 243/243/243 245/245/245 241/241/241
f 245/245/245 246/246/246 241/241/241
f 214/216/216 244/244/244 223/223/223
f 214/216/216 215/215/215 244/244/244
f 215/215/215 247/247/247 244/244/244
f 241/241/241 246/246/246 230/230/230
f 246/246/246 248/248/248 230/230/230
f 215/215/215 249/249/249 247/247/247
f 250/250/250 249/249/249 215/215/215
f 216/214/214 250/250/250 215/215/215
f 249/249/249 251/251/251 247/247/247
f 252/252/252 246/246/246 245/245/245
f 253/253/253 252/252/252 245/245/245
f 254/254/254 248/248/248 246/246/246
f 252/252/252 254/254/254 246/246/246
f 252/252/252 253/253/253 255/255/255
f 256/256/256 252/252/252 255/255/255
f 257/257/257 254/254/254 252/252/252
f 256/256/256 257/257/257 252/252/252
f 249/249/249 258/258/258 251/251/251
f 258/258/258 249/249/249 250/250/250
f 258/258/258 259/259/259 251/251/251
f 260/260/260 258/258/258 250/250/250
f 263/261/261 262/262/262 261/263/263
f 264/264/264 263/261/261 261/263/263
f 261/263/263 262/262/262 265/265/265
f 266/266/266 261/263/263 265/265/265
f 267/267/267 261/263/263 266/266/266
f 266/266/266 265/265/265 268/268/268
f 269/269/269 266/266/266 268/268/268
f 268/268/268 270/270/270 269/269/269
f 270/270/270 271/271/271 269/269/269
f 270/270/270 272/272/272 271/271/271
f 272/272/272 273/273/273 271/271/271
f 272/272/272 235/235/235 273/273/273
f 271/271/271 273/273/273 220/220/220
f 273/273/273 221/221/221 220/220/220
f 273/273/273 235/235/235 221/221/221
f 225/225/225 266/266/266 269/269/269
f 222/222/222 225/225/225 269/269/269
f 271/271/271 220/220/220 222/222/222
f 269/269/269 271/271/271 222/222/222
f 266/266/266 225/225/225 226/226/226
f 267/267/267 266/266/266 226/226/226
f 226/226/226 229/229/229 267/267/267
f 229/229/229 274/274/274 267/267/267
f 275/275/275 272/272/272 270/270/270
f 275/275/275 270/270/270 268/268/268
f 276/276/276 275/275/275 268/268/268
f 268/268/268 265/265/265 276/276/276
f 265/265/265 277/277/277 276/276/276
f 265/265/265 262/262/262 277/277/277
f 262/262/262 278/278/278 277/277/277
f 278/278/278 262/262/262 279/279/279
f 262/262/262 263/261/261 279/279/279
f 279/279/279 263/261/261 280/280/280
f 281/281/281 279/279/279 280/280/280
f 280/280/280 263/261/261 264/264/264
f 282/282/282 280/280/280 264/264/264
f 283/283/283 274/274/274 229/229/229
f 284/284/284 283/283/283 229/229/229
f 285/285/285 283/283/283 284/284/284
f 286/286/286 285/285/285 284/284/284
f 286/286/286 284/284/284 287/287/287
f 287/287/287 284/284/284 228/228/228
f 284/284/284 229/229/229 228/228/228
f 288/288/288 286/286/286 287/287/287
f 289/289/289 280/280/280 282/282/282
f 290/290/290 289/289/289 282/282/282
f 291/291/291 281/281/281 280/280/280
f 289/289/289 291/291/291 280/280/280
f 294/292/292 293/293/293 292/294/294
f 295/295/295 294/292/292 292/294/294
f 294/292/292 295/295/295 296/296/296
f 297/297/297 294/292/292 296/296/296
f 292/294/294 293/293/293 298/298/298
f 293/293/293 299/299/299 298/298/298
f 298/298/298 299/299/299 300/300/300
f 299/299/299 301/301/301 300/300/300
f 302/302/302 293/293/293 294/292/292
f 303/303/303 302/302/302 294/292/292
f 303/303/303 294/292/292 297/297/297
f 167/167/167 302/302/302 303/303/303
f 168/168/168 167/167/167 303/303/303
f 168/168/168 303/303/303 297/297/297
f 171/171/171 168/168/168 297/297/297
f 167/167/167 158/158/158 302/302/302
f 158/158/158 304/304/304 302/302/302
f 304/304/304 301/301/301 299/299/299
f 304/304/304 299/299/299 293/293/293
f 302/302/302 304/304/304 293/293/293
f 159/159/159 301/301/301 304/304/304
f 158/158/158 159/159/159 304/304/304
f 296/296/296 295/295/295 305/305/305
f 305/305/305 295/295/295 292/294/294
f 306/306/306 305/305/305 292/294/294
f 306/306/306 292/294/294 298/298/298
f 307/307/307 298/298/298 300/300/300
f 308/308/308 307/307/307 300/300/300
f 307/307/307 306/306/306 298/298/298
f 309/309/309 296/296/296 305/305/305
f 312/310/310 311/311/311 310/312/312
f 313/313/313 312/310/310 310/312/312
f 310/312/312 311/311/311 314/314/314
f 311/311/311 315/315/315 314/314/314
f 313/313/313 310/312/312 316/316/316
f 317/317/317 313/313/313 316/316/316
f 310/312/312 314/314/314 318/318/318
f 316/316/316 310/312/312 318/318/318
f 313/313/313 319/319/319 312/310/310
f 319/319/319 320/320/320 312/310/310
f 312/310/310 320/320/320 321/321/321
f 311/311/311 312/310/310 321/321/321
f 311/311/311 321/321/321 322/322/322
f 315/315/315 311/311/311 322/322/322
f 315/315/315 322/322/322 323/323/323
f 314/314/314 315/315/315 323/323/323
f 324/324/324 319/319/319 313/313/313
f 317/317/317 324/324/324 313/313/313
f 314/314/314 323/323/323 325/325/325
f 318/318/318 314/314/314 325/325/325
f 328/326/326 327/327/327 326/328/328
f 329/329/329 328/326/326 326/328/328
f 330/330/330 328/326/326 329/329/329
f 331/331/331 330/330/330 329/329/329
f 332/332/332 330/330/330 331/331/331
f 333/333/333 332/332/332 331/331/331
f 332/332/332 333/333/333 334/334/334
f 335/335/335 332/332/332 334/334/334
f 336/336/336 327/327/327 328/326/326
f 336/336/336 328/326/326 330/330/330
f 170/170/170 327/327/327 336/336/336
f 169/169/169 170/170/170 336/336/336
f 169/169/169 336/336/336 337/337/337
f 337/337/337 330/330/330 332/332/332
f 337/337/337 336/336/336 330/330/330
f 173/173/173 169/169/169 337/337/337
f 173/173/173 337/337/337 338/338/338
f 338/338/338 337/337/337 332/332/332
f 338/338/338 332/332/332 335/335/335
f 177/177/177 173/173/173 338/338/338
f 177/177/177 338/338/338 335/335/335
f 179/179/179 177/177/177 335/335/335
f 333/333/333 331/331/331 339/339/339
f 340/340/340 333/333/333 339/339/339
f 341/341/341 334/334/334 333/333/333
f 340/340/340 341/341/341 333/333/333
f 339/339/339 331/331/331 342/342/342
f 331/331/331 329/329/329 342/342/342
f 342/342/342 329/329/329 326/328/328
f 343/343/343 342/342/342 326/328/328
f 346/344/344 345/345/345 344/346/346
f 347/347/347 346/344/344 344/346/346
f 348/348/348 346/344/344 347/347/347
f 349/349/349 348/348/348 347/347/347
f 350/350/350 348/348/348 349/349/349
f 351/351/351 350/350/350 349/349/349
f 350/350/350 351/351/351 352/352/352
f 353/353/353 350/350/350 352/352/352
f 354/354/354 345/345/345 346/344/344
f 354/354/354 346/344/344 348/348/348
f 148/148/148 345/345/345 354/354/354
f 147/147/147 148/148/148 354/354/354
f 147/147/147 354/354/354 355/355/355
f 355/355/355 348/348/348 350/350/350
f 355/355/355 354/354/354 348/348/348
f 161/161/161 147/147/147 355/355/355
f 147/147/147 161/161/161 145/145/145
f 161/161/161 156/156/156 145/145/145
f 161/161/161 355/355/355 356/356/356
f 356/356/356 355/355/355 350/350/350
f 356/356/356 350/350/350 353/353/353
f 157/157/157 161/161/161 356/356/356
f 157/157/157 356/356/356 353/353/353
f 160/160/160 157/157/157 353/353/353
f 357/357/357 351/351/351 349/349/349
f 352/352/352 351/351/351 357/357/357
f 358/358/358 357/357/357 349/349/349
f 359/359/359 352/352/352 357/357/357
f 156/156/156 142/142/142 143/143/143
f 358/358/358 349/349/349 347/347/347
f 360/360/360 358/358/358 347/347/347
f 360/360/360 347/347/347 344/346/346
f 361/361/361 360/360/360 344/346/346
f 364/362/362 363/363/363 362/364/364
f 365/365/365 364/362/362 362/364/364
f 365/365/365 362/364/364 366/366/366
f 367/367/367 365/365/365 366/366/366
f 364/362/362 368/368/368 363/363/363
f 368/368/368 369/369/369 363/363/363
f 363/363/363 369/369/369 370/370/370
f 362/364/364 363/363/363 370/370/370
f 367/367/367 366/366/366 371/371/371
f 366/366/366 372/372/372 371/371/371
f 362/364/364 370/370/370 372/372/372
f 366/366/366 362/364/364 372/372/372
f 375/373/373 374/374/374 373/375/375
f 376/376/376 375/373/373 373/375/375
f 376/376/376 373/375/375 377/377/377
f 378/378/378 376/376/376 377/377/377
f 378/378/378 377/377/377 379/379/379
f 377/377/377 380/380/380 379/379/379
f 377/377/377 373/375/375 380/380/380
f 374/374/374 375/373/373 381/381/381
f 375/373/373 382/382/382 381/381/381
f 374/374/374 381/381/381 383/383/383
f 373/375/375 374/374/374 383/383/383
f 373/375/375 383/383/383 380/380/380
f 386/384/384 385/385/385 384/386/386
f 387/387/387 386/384/384 384/386/386
f 387/387/387 384/386/386 388/388/388
f 389/389/389 387/387/387 388/388/388
f 389/389/389 388/388/388 390/390/390
f 388/388/388 391/391/391 390/390/390
f 388/388/388 384/386/386 391/391/391
f 385/385/385 386/384/384 392/392/392
f 386/384/384 393/393/393 392/392/392
f 385/385/385 392/392/392 394/394/394
f 384/386/386 385/385/385 394/394/394
f 384/386/386 394/394/394 391/391/391
f 137/137/137 149/149/149 125/125/125
f 175/175/175 185/185/185 163/163/163
f 163/163/163 185/185/185 162/162/162
f 185/185/185 187/187/187 162/162/162
f 187/187/187 128/128/128 162/162/162
f 128/128/128 126/126/126 162/162/162
f 397/395/395 396/396/396 395/397/397
f 398/398/398 397/395/395 395/397/397
f 397/395/395 398/398/398 399/399/399
f 398/398/398 400/400/400 399/399/399
f 399/399/399 400/400/400 401/401/401
f 400/400/400 402/402/402 401/401/401
f 401/401/401 402/402/402 403/403/403
f 402/402/402 404/404/404 403/403/403
f 407/405/405 406/406/406 405/407/407
f 408/408/408 407/405/405 405/407/407
f 409/409/409 407/405/405 408/408/408
f 410/410/410 409/409/409 408/408/408
f 413/411/411 412/412/412 411/413/413
f 414/414/414 413/411/411 411/413/413
f 415/415/415 413/411/411 414/414/414
f 416/416/416 415/415/415 414/414/414
f 419/417/417 418/418/418 417/419/419
f 420/420/420 419/417/417 417/419/419
f 421/421/421 419/417/417 420/420/420
f 422/422/422 421/421/421 420/420/420
f 421/421/421 422/422/422 423/423/423
f 422/422/422 424/424/424 423/423/423
f 423/423/423 424/424/424 425/425/425
f 424/424/424 426/426/426 425/425/425
f 429/427/427 428/428/428 427/429/429
f 430/430/430 429/427/427 427/429/429
f 431/431/431 429/427/427 430/430/430
f 432/432/432 431/431/431 430/430/430
f 435/433/433 434/434/434 433/435/435
f 436/436/436 435/433/433 433/435/435
f 437/437/437 435/433/433 436/436/436
f 438/438/438 437/437/437 436/436/436
f 437/437/437 438/438/438 439/439/439
f 438/438/438 440/440/440 439/439/439
f 439/439/439 440/440/440 441/441/441
f 440/440/440 442/442/442 441/441/441
f 445/443/443 444/444/444 443/445/445
f 446/446/446 445/443/443 443/445/445
f 445/443/443 447/447/447 444/444/444
f 447/447/447 448/448/448 444/444/444
f 451/449/449 450/450/450 449/451/451
f 452/452/452 451/449/449 449/451/451
f 452/452/452 449/451/451 453/453/453
f 454/454/454 452/452/452 453/453/453
f 457/455/455 456/456/456 455/457/457
f 458/458/458 457/455/455 455/457/457
f 458/458/458 455/457/457 459/459/459
f 460/460/460 458/458/458 459/459/459
f 463/461/461 462/462/462 461/463/463
f 464/464/464 463/461/461 461/463/463
f 465/465/465 461/463/463 462/462/462
f 466/466/466 465/465/465 462/462/462
f 469/467/467 468/468/468 467/469/469
f 470/470/470 469/467/467 467/469/469
f 469/467/467 470/470/470 471/471/471
f 470/470/470 472/472/472 471/471/471
f 471/471/471 472/472/472 473/473/473
f 472/472/472 474/474/474 473/473/473
f 473/473/473 474/474/474 475/475/475
f 474/474/474 476/476/476 475/475/475
f 475/475/475 476/476/476 477/477/477
f 476/476/476 478/478/478 477/477/477
f 477/477/477 478/478/478 479/479/479
f 478/478/478 480/480/480 479/479/479
f 483/481/481 482/482/482 481/483/483
f 484/484/484 483/481/481 481/483/483
f 483/481/481 485/485/485 482/482/482
f 485/485/485 486/486/486 482/482/482
