# Blender 4.4.0
# www.blender.org
mtllib PanicoBIzq.mtl
o Brazo_izquierdo
v 0.226339 -0.449065 0.214568
v 0.296468 -0.760957 0.212996
v 0.278340 -0.764313 0.154589
v 0.204764 -0.453058 0.145066
v 0.299058 -0.435336 0.253840
v 0.357580 -0.749353 0.247981
v 0.369605 -0.423281 0.207476
v 0.416866 -0.739289 0.207037
v 0.406573 -0.417745 0.140563
v 0.447934 -0.734638 0.150805
v 0.386533 -0.423769 0.070861
v 0.431093 -0.739552 0.096523
v 0.306626 -0.437973 0.049103
v 0.363941 -0.751636 0.073946
v 0.224250 -0.452582 0.083789
v 0.294715 -0.763912 0.103095
v 0.204764 -0.453058 0.145066
v 0.278340 -0.764313 0.154589
v 0.112813 -0.202551 0.138605
v 0.143523 -0.201315 0.054314
v 0.058160 0.026848 0.010093
v 0.015652 0.014910 0.133424
v 0.170998 0.044049 -0.041658
v 0.230976 -0.188151 0.015499
v 0.310362 0.067507 -0.034543
v 0.306089 -0.175328 0.018655
v 0.435542 0.088453 0.009466
v 0.399410 -0.158397 0.049673
v 0.480852 0.100253 0.124723
v 0.431034 -0.149693 0.132671
v 0.408871 0.089754 0.244209
v 0.371949 -0.159137 0.213661
v 0.297125 0.074172 0.293821
v 0.297614 -0.170965 0.255024
v 0.177980 0.055144 0.295334
v 0.238961 -0.180901 0.260461
v 0.067631 0.036539 0.254418
v 0.146694 -0.196061 0.229467
v 0.015652 0.014910 0.133424
v 0.112813 -0.202551 0.138605
v 0.014450 0.165435 0.263688
v -0.052171 0.137565 0.130388
v -0.100744 0.196364 0.128190
v -0.036000 0.229827 0.265362
v 0.134543 0.187192 0.305189
v 0.087014 0.256955 0.314834
v 0.290821 0.217257 0.314810
v 0.261086 0.295929 0.323159
v 0.443447 0.244017 0.261988
v 0.406856 0.326738 0.265842
v 0.516824 0.252677 0.119653
v 0.476542 0.335174 0.117012
v 0.462783 0.239304 -0.021922
v 0.422323 0.320975 -0.037188
v 0.310015 0.211329 -0.073523
v 0.286656 0.291082 -0.092520
v 0.137212 0.178578 -0.080750
v 0.098816 0.248255 -0.093448
v -0.001967 0.156118 -0.017695
v -0.050599 0.218992 -0.021268
v -0.052171 0.137565 0.130388
v -0.100744 0.196364 0.128190
v 0.311068 -0.947402 0.231840
v 0.298141 -1.138093 0.250810
v 0.271747 -1.142977 0.165775
v 0.289783 -0.951371 0.160114
v 0.382766 -0.933980 0.265779
v 0.407309 -1.118707 0.283581
v 0.452309 -0.921813 0.224552
v 0.493623 -1.103431 0.242041
v 0.488750 -0.916364 0.155510
v 0.538852 -1.096657 0.160174
v 0.455984 -0.923663 0.092877
v 0.498418 -1.105607 0.086642
v 0.390208 -0.936528 0.061109
v 0.416570 -1.121406 0.048272
v 0.309000 -0.951016 0.096886
v 0.295588 -1.142394 0.090805
v 0.289783 -0.951371 0.160114
v 0.271747 -1.142977 0.165775
v 0.268942 -1.209342 0.043481
v 0.240430 -1.208848 0.167602
v 0.295002 -1.265775 0.064867
v 0.261827 -1.266587 0.169185
v 0.435240 -1.240906 0.005817
v 0.425907 -1.182348 -0.007431
v 0.553710 -1.218142 0.057348
v 0.526976 -1.162356 0.053546
v 0.613873 -1.205160 0.161480
v 0.572119 -1.151564 0.160846
v 0.550938 -1.214586 0.275393
v 0.518038 -1.159663 0.258737
v 0.422356 -1.237149 0.333232
v 0.414833 -1.177928 0.308406
v 0.298554 -1.259788 0.287505
v 0.271993 -1.203006 0.269279
v 0.261827 -1.266587 0.169185
v 0.240430 -1.208848 0.167602
v 0.315511 -1.496949 0.176272
v 0.348454 -1.490865 0.282387
v 0.452343 -1.952108 0.268542
v 0.534029 -1.937036 0.298730
v 0.459496 -1.470643 0.323392
v 0.428095 -1.956571 0.190450
v 0.613276 -1.922722 0.260587
v 0.567219 -1.451766 0.271555
v 0.654801 -1.915978 0.185360
v 0.623685 -1.443735 0.169421
v 0.617352 -1.924253 0.117054
v 0.572847 -1.454867 0.076661
v 0.542465 -1.939062 0.082556
v 0.471102 -1.474351 0.029803
v 0.449937 -1.955807 0.121579
v 0.345313 -1.496444 0.082734
v 0.428095 -1.956571 0.190450
v 0.315511 -1.496949 0.176272
v 0.555992 -2.402452 0.162537
v 0.542727 -2.402776 0.204250
v 0.617013 -2.391745 0.138903
v 0.663005 -2.382901 0.163535
v 0.680105 -2.378737 0.201185
v 0.654940 -2.382507 0.246734
v 0.606918 -2.391005 0.269846
v 0.557413 -2.400058 0.251561
v 0.542727 -2.402776 0.204250
v 0.555992 -2.402452 0.162537
v 0.560573 -2.448930 0.140614
v 0.629413 -2.438891 0.123533
v 0.617013 -2.391745 0.138903
v 0.670215 -2.431263 0.161915
v 0.663005 -2.382901 0.163535
v 0.679356 -2.428023 0.214811
v 0.680105 -2.378737 0.201185
v 0.553365 -2.504839 0.126285
v 0.648422 -2.487665 0.100903
v 0.684384 -2.483897 0.155420
v 0.692976 -2.479473 0.225822
v 0.654199 -2.430045 0.268684
v 0.648165 -2.476190 0.305695
v 0.613027 -2.435353 0.299005
v 0.602031 -2.478972 0.333657
v 0.561708 -2.443904 0.280893
v 0.545110 -2.491753 0.301747
v 0.654940 -2.382507 0.246734
v 0.557413 -2.400058 0.251561
v 0.606918 -2.391005 0.269846
v 0.675562 -2.568150 0.055520
v 0.714514 -2.559094 0.108385
v 0.747139 -2.654971 0.062942
v 0.720204 -2.661730 -0.004600
v 0.573902 -2.698033 -0.007400
v 0.561674 -2.601994 0.053170
v 0.774277 -2.740512 0.037896
v 0.737262 -2.748506 -0.028006
v 0.589082 -2.771399 -0.028343
v 0.755399 -2.902386 -0.040624
v 0.643852 -2.927148 -0.040541
v 0.760918 -2.927305 -0.044598
v 0.649171 -2.952968 -0.044581
v 0.728590 -2.554327 0.148244
v 0.764431 -2.649735 0.129695
v 0.766198 -2.648183 0.191463
v 0.728925 -2.550705 0.193757
v 0.798282 -2.746393 0.188510
v 0.792395 -2.744957 0.112215
v 0.814497 -2.891567 0.098926
v 0.805032 -2.893920 0.025614
v 0.809857 -2.920200 0.079395
v 0.810068 -2.920738 0.103489
v 0.675465 -2.944308 0.103873
v 0.675256 -2.943768 0.079779
v 0.804986 -2.920718 0.014248
v 0.721364 -2.548299 0.239305
v 0.755157 -2.645945 0.251678
v 0.826401 -2.885665 0.184041
v 0.814057 -2.884089 0.264271
v 0.780442 -2.741535 0.260031
v 0.834283 -2.913622 0.178468
v 0.805791 -2.914961 0.246447
v 0.807876 -2.915283 0.268313
v 0.673712 -2.938782 0.268910
v 0.672392 -2.938325 0.246827
v 0.800972 -2.878523 0.326138
v 0.801033 -2.910338 0.327494
v 0.751802 -2.878523 0.388174
v 0.755277 -2.741097 0.316581
v 0.710708 -2.735280 0.379112
v 0.759858 -2.910690 0.386834
v 0.623965 -2.901051 0.388581
v 0.627609 -2.934011 0.387267
v 0.583534 -2.750862 0.366808
v 0.509256 -2.770259 0.361082
v 0.468760 -2.801452 0.405504
v 0.532189 -2.780422 0.403922
v 0.686226 -2.639272 0.372901
v 0.727229 -2.642267 0.308327
v 0.648147 -2.535729 0.358505
v 0.688226 -2.542609 0.293255
v 0.565997 -2.529839 0.376869
v 0.594244 -2.593892 0.476816
v 0.520928 -2.595697 0.473483
v 0.628765 -2.669432 0.449512
v 0.624226 -2.682628 0.466338
v 0.590109 -2.605055 0.493677
v 0.600301 -2.757223 0.442622
v 0.605333 -2.743224 0.425267
v 0.518132 -2.603013 0.487903
v 0.491598 -2.567598 0.363277
v 0.456056 -2.633855 0.448353
v 0.513180 -2.784632 0.588740
v 0.565881 -2.791684 0.591434
v 0.470948 -2.813091 0.572711
v 0.593125 -2.816100 0.559679
v 0.585268 -2.834052 0.524301
v 0.530795 -2.792408 0.415987
v 0.533046 -2.848778 0.491608
v 0.465958 -2.852264 0.503672
v 0.534390 -2.948153 0.644488
v 0.478451 -2.954223 0.618712
v 0.591403 -2.940780 0.637098
v 0.615278 -2.952397 0.599737
v 0.607726 -2.966298 0.568461
v 0.548342 -2.976864 0.552504
v 0.488642 -2.984697 0.549834
v 0.489030 -2.693938 0.351458
v 0.491598 -2.567598 0.363277
v 0.456056 -2.633855 0.448353
v 0.433627 -2.716705 0.426499
v 0.507903 -2.700949 0.269352
v 0.495574 -2.590259 0.261863
v 0.514168 -2.703457 0.196908
v 0.506343 -2.595755 0.193909
v 0.529523 -2.772644 0.201596
v 0.530280 -2.770016 0.274236
v 0.650875 -2.907005 0.268201
v 0.645720 -2.916181 0.190222
v 0.669937 -2.941768 0.178989
v 0.672392 -2.938325 0.246827
v 0.715608 -3.104069 0.246171
v 0.706913 -3.107525 0.185034
v 0.673712 -2.938782 0.268910
v 0.524125 -2.505489 0.233893
v 0.545110 -2.491753 0.301747
v 0.539317 -2.449489 0.219384
v 0.560573 -2.448930 0.140614
v 0.553365 -2.504839 0.126285
v 0.561708 -2.443904 0.280893
v 0.542727 -2.402776 0.204250
v 0.557413 -2.400058 0.251561
v 0.555992 -2.402452 0.162537
v 0.622306 -2.906359 0.328461
v 0.637387 -2.938445 0.328149
v 0.623965 -2.901051 0.388581
v 0.627609 -2.934011 0.387267
v 0.509256 -2.770259 0.361082
v 0.699602 -3.100943 0.408071
v 0.680217 -3.105884 0.351735
v 0.468760 -2.801452 0.405504
v 0.706650 -3.103704 0.296731
v 0.457597 -2.837361 0.543925
v 0.470948 -2.813091 0.572711
v 0.465958 -2.852264 0.503672
v 0.681540 -3.125398 0.354486
v 0.704191 -3.119280 0.409960
v 0.704252 -3.129228 0.302911
v 0.701046 -3.338145 0.392255
v 0.686443 -3.337389 0.358850
v 0.703601 -3.337045 0.325281
v 0.461462 -2.965489 0.597676
v 0.488642 -2.984697 0.549834
v 0.478451 -2.954223 0.618712
v 0.675256 -2.943768 0.079779
v 0.719038 -3.109097 0.085442
v 0.706681 -3.113249 0.020560
v 0.654695 -2.949655 0.014567
v 0.640882 -2.926939 0.028136
v 0.655975 -2.923878 0.103847
v 0.675465 -2.944308 0.103873
v 0.543605 -2.775959 0.042824
v 0.539678 -2.773857 0.121155
v 0.544538 -2.700794 0.058495
v 0.520432 -2.705967 0.124464
v 0.561674 -2.601994 0.053170
v 0.517110 -2.601252 0.125955
v 0.716306 -3.108417 0.117320
v 0.573902 -2.698033 -0.007400
v 0.589082 -2.771399 -0.028343
v 0.643852 -2.927148 -0.040541
v 0.649171 -2.952968 -0.044581
v 0.710014 -3.114763 -0.038132
v 0.707827 -3.125132 0.020771
v 0.713124 -3.134736 -0.037758
v 0.719813 -3.127257 0.085753
v 0.716254 -3.136022 0.119374
v 0.706972 -3.133176 0.185582
v 0.716305 -3.132048 0.245450
v 0.684806 -3.338724 0.188785
v 0.694581 -3.337773 0.226131
v 0.695452 -3.337948 0.146973
v 0.696337 -3.319981 0.048423
v 0.708099 -3.321573 0.086319
v 0.706189 -3.320584 0.013799
v 0.834900 -3.116558 0.184729
v 0.813292 -3.117668 0.245934
v 0.813812 -3.096191 0.246649
v 0.836005 -3.094917 0.184364
v 0.716305 -3.132048 0.245450
v 0.715608 -3.104069 0.246171
v 0.813671 -3.123216 0.117227
v 0.814870 -3.100556 0.115666
v 0.716254 -3.136022 0.119374
v 0.716306 -3.108417 0.117320
v 0.835794 -3.080357 0.184056
v 0.813079 -3.081696 0.246746
v 0.814468 -3.086041 0.114885
v 0.792824 -3.353650 0.139424
v 0.695452 -3.337948 0.146973
v 0.801973 -3.350534 0.189800
v 0.792127 -3.351287 0.235415
v 0.694581 -3.337773 0.226131
v 0.589676 -3.101549 0.595252
v 0.586807 -3.098452 0.609233
v 0.604189 -3.096459 0.606440
v 0.606287 -3.098021 0.598986
v 0.592307 -3.104055 0.583748
v 0.608130 -3.099553 0.591812
v 0.572379 -3.105795 0.589101
v 0.569167 -3.104583 0.595859
v 0.575528 -3.106985 0.582477
v 0.535295 -2.952746 0.650105
v 0.599095 -2.944986 0.641615
v 0.625541 -2.958580 0.599922
v 0.617237 -2.973738 0.565323
v 0.551013 -2.985120 0.547950
v 0.472613 -2.959775 0.621108
v 0.485013 -2.994294 0.544574
v 0.704252 -3.129228 0.302911
v 0.809476 -3.116619 0.292357
v 0.812574 -3.094815 0.291956
v 0.706650 -3.103704 0.296731
v 0.826669 -3.090599 0.350949
v 0.828678 -3.109892 0.353649
v 0.800415 -3.092544 0.411936
v 0.803931 -3.109037 0.416274
v 0.704191 -3.119280 0.409960
v 0.699602 -3.100943 0.408071
v 0.812078 -3.080345 0.290289
v 0.824630 -3.076365 0.349309
v 0.797379 -3.078468 0.410195
v 0.805912 -3.351530 0.359930
v 0.790720 -3.351824 0.401520
v 0.701046 -3.338145 0.392255
v 0.794471 -3.355103 0.318744
v 0.703601 -3.337045 0.325281
v 0.713124 -3.134736 -0.037758
v 0.803653 -3.118662 -0.040264
v 0.800032 -3.108230 -0.040016
v 0.710014 -3.114763 -0.038132
v 0.832880 -3.101128 0.018697
v 0.834784 -3.113447 0.018802
v 0.825418 -3.100011 0.084308
v 0.825145 -3.113228 0.084154
v 0.719813 -3.127257 0.085753
v 0.719038 -3.109097 0.085442
v 0.796944 -3.094108 -0.040188
v 0.830675 -3.086870 0.018534
v 0.824172 -3.085606 0.084105
v 0.806213 -3.326608 0.087311
v 0.810431 -3.326650 0.039741
v 0.708099 -3.321573 0.086319
v 0.792570 -3.328691 -0.003615
v 0.706189 -3.320584 0.013799
v 0.709813 -3.480040 0.356221
v 0.696306 -3.476239 0.356105
v 0.698823 -3.476400 0.362403
v 0.708745 -3.479659 0.362600
v 0.708099 -3.480003 0.349831
v 0.698177 -3.476737 0.349829
v 0.700855 -3.344429 0.393369
v 0.794646 -3.358939 0.403120
v 0.810367 -3.358644 0.359869
v 0.703554 -3.343295 0.323821
v 0.798465 -3.362402 0.317038
v 0.690912 -3.470706 0.189456
v 0.676273 -3.465737 0.189268
v 0.678962 -3.465665 0.200724
v 0.688755 -3.470025 0.201594
v 0.690055 -3.471067 0.176011
v 0.680261 -3.466656 0.176614
v 0.693148 -3.343990 0.144525
v 0.797330 -3.360879 0.136257
v 0.796533 -3.358355 0.238826
v 0.692152 -3.343815 0.228652
v 0.806913 -3.357518 0.190086
v 0.713099 -3.442189 0.070849
v 0.694577 -3.433555 0.070530
v 0.701290 -3.432985 0.085382
v 0.710129 -3.442032 0.084526
v 0.710901 -3.442154 0.058450
v 0.703140 -3.433295 0.057051
v 0.703220 -3.326622 0.012939
v 0.798043 -3.335604 -0.006678
v 0.812696 -3.333483 0.093152
v 0.705101 -3.327989 0.092038
v 0.817382 -3.333417 0.040929
v 0.703554 -3.343295 0.323821
v 0.798465 -3.362402 0.317038
v 0.794471 -3.355103 0.318744
v 0.703601 -3.337045 0.325281
v 0.805912 -3.351530 0.359930
v 0.810367 -3.358644 0.359869
v 0.790720 -3.351824 0.401520
v 0.794646 -3.358939 0.403120
v 0.701046 -3.338145 0.392255
v 0.700855 -3.344429 0.393369
v 0.703601 -3.337045 0.325281
v 0.686443 -3.337389 0.358850
v 0.685671 -3.343421 0.358713
v 0.703554 -3.343295 0.323821
v 0.700855 -3.344429 0.393369
v 0.701046 -3.338145 0.392255
v 0.695452 -3.337948 0.146973
v 0.684806 -3.338724 0.188785
v 0.681641 -3.344767 0.188967
v 0.693148 -3.343990 0.144525
v 0.692152 -3.343815 0.228652
v 0.694581 -3.337773 0.226131
v 0.693148 -3.343990 0.144525
v 0.797330 -3.360879 0.136257
v 0.792824 -3.353650 0.139424
v 0.695452 -3.337948 0.146973
v 0.801973 -3.350534 0.189800
v 0.806913 -3.357518 0.190086
v 0.792127 -3.351287 0.235415
v 0.796533 -3.358355 0.238826
v 0.694581 -3.337773 0.226131
v 0.692152 -3.343815 0.228652
v 0.706189 -3.320584 0.013799
v 0.696337 -3.319981 0.048423
v 0.691995 -3.326143 0.050712
v 0.703220 -3.326622 0.012939
v 0.705101 -3.327989 0.092038
v 0.708099 -3.321573 0.086319
v 0.703220 -3.326622 0.012939
v 0.798043 -3.335604 -0.006678
v 0.792570 -3.328691 -0.003615
v 0.706189 -3.320584 0.013799
v 0.810431 -3.326650 0.039741
v 0.817382 -3.333417 0.040929
v 0.806213 -3.326608 0.087311
v 0.812696 -3.333483 0.093152
v 0.708099 -3.321573 0.086319
v 0.705101 -3.327989 0.092038
v 0.700855 -3.344429 0.393369
v 0.698823 -3.476400 0.362403
v 0.696306 -3.476239 0.356105
v 0.685671 -3.343421 0.358713
v 0.698177 -3.476737 0.349829
v 0.703554 -3.343295 0.323821
v 0.681641 -3.344767 0.188967
v 0.676273 -3.465737 0.189268
v 0.680261 -3.466656 0.176614
v 0.693148 -3.343990 0.144525
v 0.692152 -3.343815 0.228652
v 0.678962 -3.465665 0.200724
v 0.691995 -3.326143 0.050712
v 0.694577 -3.433555 0.070530
v 0.703140 -3.433295 0.057051
v 0.703220 -3.326622 0.012939
v 0.705101 -3.327989 0.092038
v 0.701290 -3.432985 0.085382
v 0.453961 -2.972923 0.597985
v 0.485013 -2.994294 0.544574
v 0.488642 -2.984697 0.549834
v 0.461462 -2.965489 0.597676
v 0.472613 -2.959775 0.621108
v 0.478451 -2.954223 0.618712
v 0.485013 -2.994294 0.544574
v 0.551013 -2.985120 0.547950
v 0.548342 -2.976864 0.552504
v 0.488642 -2.984697 0.549834
v 0.607726 -2.966298 0.568461
v 0.617237 -2.973738 0.565323
v 0.615278 -2.952397 0.599737
v 0.625541 -2.958580 0.599922
v 0.591403 -2.940780 0.637098
v 0.599095 -2.944986 0.641615
v 0.534390 -2.948153 0.644488
v 0.535295 -2.952746 0.650105
v 0.478451 -2.954223 0.618712
v 0.472613 -2.959775 0.621108
v 0.472613 -2.959775 0.621108
v 0.569167 -3.104583 0.595859
v 0.572379 -3.105795 0.589101
v 0.453961 -2.972923 0.597985
v 0.575528 -3.106985 0.582477
v 0.485013 -2.994294 0.544574
vn -0.9868 -0.1600 0.0245
vn -0.7452 -0.0978 0.6597
vn -0.7059 -0.2098 0.6766
vn -0.9581 -0.2852 0.0273
vn 0.0537 -0.0499 0.9973
vn 0.0498 0.0409 0.9979
vn 0.7049 0.0390 0.7083
vn 0.7097 0.1418 0.6901
vn 0.9901 0.0262 0.1379
vn 0.9806 0.1639 0.1074
vn 0.6633 -0.0335 -0.7476
vn 0.6712 0.0776 -0.7372
vn -0.0403 -0.1305 -0.9906
vn -0.0445 -0.0353 -0.9984
vn -0.6531 -0.2488 -0.7152
vn -0.6723 -0.1241 -0.7298
vn -0.9575 -0.2876 0.0219
vn -0.9869 -0.1603 0.0161
vn -0.9276 -0.3716 0.0373
vn -0.6550 -0.3406 -0.6745
vn -0.6370 -0.4022 -0.6576
vn -0.9005 -0.4314 0.0547
vn -0.1293 -0.2872 -0.9491
vn -0.1826 -0.2392 -0.9537
vn 0.2248 -0.2325 -0.9463
vn 0.2253 -0.1678 -0.9597
vn 0.6864 -0.2383 -0.6871
vn 0.6813 -0.1695 -0.7121
vn 0.9691 -0.2202 0.1114
vn 0.9794 -0.1465 0.1391
vn 0.6696 -0.1856 0.7192
vn 0.6859 -0.1038 0.7203
vn 0.2413 -0.1463 0.9594
vn 0.3302 -0.0902 0.9396
vn -0.1410 -0.1633 0.9764
vn -0.1868 -0.1433 0.9719
vn -0.6148 -0.3063 0.7268
vn -0.6543 -0.2774 0.7036
vn -0.9028 -0.4277 0.0456
vn -0.9273 -0.3728 0.0332
vn -0.5711 -0.3610 0.7372
vn -0.8402 -0.5403 0.0470
vn -0.9343 -0.3193 0.1584
vn -0.5680 -0.4754 0.6718
vn -0.1382 -0.1631 0.9769
vn -0.1708 -0.2874 0.9425
vn 0.2010 -0.0847 0.9759
vn 0.1368 -0.0463 0.9895
vn 0.7098 0.0006 0.7044
vn 0.5949 0.2309 0.7699
vn 0.9971 0.0463 0.0603
vn 0.9026 0.4287 0.0399
vn 0.7340 -0.0469 -0.6776
vn 0.6142 0.1369 -0.7772
vn 0.2287 -0.2001 -0.9527
vn 0.2232 -0.1771 -0.9585
vn -0.1055 -0.2808 -0.9540
vn -0.1650 -0.2714 -0.9482
vn -0.5908 -0.4512 -0.6688
vn -0.6219 -0.5197 -0.5858
vn -0.8395 -0.5381 0.0756
vn -0.9372 -0.3460 -0.0442
vn -0.9719 0.2352 0.0029
vn -0.6817 0.2358 0.6925
vn -0.7193 0.0505 0.6929
vn -0.9996 0.0241 0.0168
vn 0.0320 0.1229 0.9919
vn 0.0027 0.2302 0.9731
vn 0.6793 0.2032 0.7052
vn 0.6353 0.3021 0.7108
vn 0.9701 0.2381 0.0479
vn 0.9269 0.3743 0.0287
vn 0.6515 0.1553 -0.7426
vn 0.6221 0.3535 -0.6986
vn -0.0404 0.0643 -0.9971
vn -0.0750 0.3356 -0.9390
vn -0.6632 0.0218 -0.7482
vn -0.6764 0.3104 -0.6679
vn -0.9997 0.0227 0.0126
vn -0.9718 0.2348 0.0200
vn -0.6644 0.0834 -0.7427
vn -0.9996 0.0243 0.0152
vn -0.6548 -0.2710 -0.7055
vn -0.9623 -0.2712 0.0191
vn 0.0132 -0.1403 -0.9900
vn -0.0513 0.2244 -0.9731
vn 0.6780 0.0770 -0.7310
vn 0.5742 0.4155 -0.7054
vn 0.9804 0.1969 0.0100
vn 0.8237 0.5667 0.0197
vn 0.6626 0.1745 0.7284
vn 0.5406 0.4839 0.6881
vn 0.0376 0.0773 0.9963
vn -0.0265 0.3737 0.9272
vn -0.6683 -0.1094 0.7358
vn -0.7303 0.1534 0.6657
vn -0.9624 -0.2707 0.0223
vn -0.9998 0.0198 0.0011
vn -0.9723 -0.2326 0.0213
vn -0.6893 -0.1713 0.7039
vn -0.6863 -0.1807 0.7045
vn 0.0562 -0.0485 0.9972
vn 0.0572 -0.0407 0.9975
vn -0.9701 -0.2418 0.0226
vn 0.6780 0.0445 0.7338
vn 0.6760 0.0440 0.7356
vn 0.9974 0.0607 0.0395
vn 0.9981 0.0571 0.0226
vn 0.6781 -0.0023 -0.7350
vn 0.6709 -0.0022 -0.7415
vn -0.0031 -0.1158 -0.9933
vn -0.0051 -0.1091 -0.9940
vn -0.6479 -0.2213 -0.7289
vn -0.6536 -0.2081 -0.7277
vn -0.9723 -0.2326 0.0211
vn -0.6512 -0.1981 -0.7326
vn -0.9735 -0.2279 0.0196
vn 0.0118 -0.0964 -0.9953
vn 0.6850 -0.0041 -0.7285
vn 0.9964 0.0618 0.0577
vn 0.6824 0.0529 0.7291
vn 0.0555 -0.0207 0.9982
vn -0.6956 -0.1562 0.7013
vn -0.9731 -0.2293 0.0201
vn 0.0735 0.3668 -0.9274
vn -0.7158 0.2422 -0.6550
vn -0.6644 -0.0597 -0.7450
vn -0.0105 0.0203 -0.9997
vn 0.8354 0.2592 -0.4846
vn 0.8050 0.1429 -0.5758
vn 0.9661 0.2019 0.1606
vn 0.9983 0.0345 0.0473
vn -0.6687 0.3930 -0.6312
vn 0.1064 0.5418 -0.8338
vn 0.8127 0.4574 -0.3610
vn 0.8960 0.3851 0.2210
vn 0.7129 0.3588 0.6025
vn 0.6433 0.4667 0.6069
vn 0.0251 0.5493 0.8352
vn -0.0525 0.6628 0.7470
vn -0.7292 0.4299 0.5324
vn -0.7883 0.5605 0.2540
vn 0.6890 0.1148 0.7156
vn -0.7101 -0.0084 0.7041
vn 0.0299 0.1438 0.9892
vn 0.1255 0.5741 -0.8091
vn 0.7520 0.5082 -0.4198
vn 0.8279 0.4212 -0.3703
vn 0.2287 0.4480 -0.8643
vn -0.3315 0.3344 -0.8822
vn -0.4328 0.4337 -0.7903
vn 0.8974 0.2498 -0.3637
vn 0.3161 0.2015 -0.9271
vn -0.4084 0.0085 -0.9128
vn 0.3119 0.1268 -0.9416
vn -0.4008 -0.0784 -0.9128
vn 0.3632 0.0802 -0.9282
vn -0.4937 -0.1508 -0.8565
vn 0.8876 0.4317 -0.1607
vn 0.9251 0.3472 -0.1541
vn 0.9443 0.3229 0.0638
vn 0.9133 0.4070 0.0134
vn 0.9715 0.2334 0.0420
vn 0.9620 0.2314 -0.1452
vn 0.9807 0.1176 -0.1565
vn 0.9168 0.1630 -0.3647
vn 0.6383 0.0712 0.7665
vn 0.5603 -0.1578 -0.8131
vn -0.5289 -0.3127 -0.7889
vn -0.4760 -0.2097 0.8541
vn 0.9323 0.1391 -0.3339
vn 0.8673 0.3743 0.3283
vn 0.9007 0.3152 0.2989
vn 0.9842 0.1755 0.0230
vn 0.9648 0.1367 0.2245
vn 0.9328 0.2550 0.2547
vn 0.9987 0.0512 0.0017
vn 0.4991 -0.1192 0.8583
vn 0.5418 -0.2058 -0.8149
vn -0.3847 -0.2936 -0.8751
vn -0.5394 -0.2325 0.8093
vn 0.8726 0.2059 0.4429
vn 0.9507 0.1306 0.2812
vn 0.3654 0.1475 0.9191
vn 0.8448 0.2740 0.4596
vn 0.5756 0.1135 0.8098
vn 0.3317 0.1415 0.9327
vn -0.4621 -0.1870 0.8669
vn -0.4471 -0.0677 0.8919
vn -0.0535 -0.0106 0.9985
vn -0.9389 -0.3157 0.1371
vn -0.7271 -0.5173 -0.4515
vn 0.3150 -0.9018 -0.2959
vn 0.7688 0.2497 0.5888
vn 0.8262 0.3194 0.4642
vn 0.6012 0.5198 0.6069
vn 0.8062 0.3857 0.4486
vn -0.1910 0.8237 0.5339
vn 0.5599 0.5752 0.5964
vn -0.2691 0.8575 0.4384
vn 0.7609 0.0623 0.6459
vn 0.9091 0.0841 0.4080
vn 0.3406 0.4377 0.8321
vn 0.8497 -0.4702 -0.2384
vn 0.6379 -0.6595 0.3977
vn -0.2900 0.5015 0.8151
vn -0.8932 0.4494 0.0134
vn -0.8866 0.4062 0.2212
vn -0.3130 0.4044 0.8593
vn 0.4230 0.3564 0.8331
vn -0.7410 0.2533 0.6219
vn 0.9530 0.1107 0.2822
vn 0.8043 -0.3212 -0.4999
vn 0.3321 -0.7659 -0.5505
vn 0.2698 -0.5668 -0.7784
vn -0.6579 -0.4880 -0.5736
vn -0.2078 0.3085 0.9282
vn -0.6392 0.2263 0.7350
vn 0.4396 0.3580 0.8238
vn 0.9633 0.2361 0.1280
vn 0.7057 -0.0844 -0.7035
vn 0.1972 -0.3127 -0.9292
vn -0.4516 -0.3084 -0.8372
vn -0.8361 0.4633 0.2938
vn -0.8964 0.4414 0.0413
vn -0.9425 -0.0716 -0.3264
vn -0.9929 0.0243 -0.1162
vn -0.9796 -0.1654 -0.1144
vn -0.9903 0.1092 -0.0858
vn -0.9840 -0.1491 -0.0978
vn -0.9810 0.1016 -0.1650
vn -0.8564 -0.5158 -0.0230
vn -0.8508 -0.5235 -0.0454
vn -0.7738 -0.6306 -0.0594
vn -0.7690 -0.6393 0.0024
vn -0.9328 -0.3599 0.0194
vn -0.5134 -0.2738 0.8133
vn -0.4838 -0.0960 0.8699
vn -0.9839 -0.1788 -0.0030
vn -0.3665 -0.3368 -0.8673
vn -0.9345 0.3456 -0.0848
vn -0.7602 0.5759 0.3007
vn -0.9803 0.1945 -0.0331
vn -0.6940 0.2551 -0.6733
vn -0.6238 0.4206 -0.6587
vn -0.6941 0.4489 0.5628
vn -0.9896 -0.1439 0.0053
vn -0.7022 -0.0150 0.7118
vn -0.6687 -0.0774 -0.7395
vn -0.8043 -0.5694 -0.1699
vn -0.9213 -0.3328 -0.2013
vn -0.5016 -0.2117 0.8388
vn -0.4312 -0.0614 0.9001
vn -0.9008 -0.4104 0.1418
vn -0.4210 -0.0097 0.9070
vn -0.9523 -0.2452 -0.1819
vn -0.7065 -0.5014 -0.4994
vn -0.3733 -0.2127 -0.9030
vn -0.9930 -0.0374 0.1121
vn -0.7213 0.2661 0.6395
vn -0.6923 -0.4690 -0.5484
vn -0.9991 -0.0401 0.0109
vn -0.3886 -0.0453 0.9203
vn -0.3872 -0.1095 -0.9155
vn -0.3650 -0.0352 0.9304
vn -0.9997 -0.0228 -0.0012
vn -0.3571 -0.0787 -0.9308
vn -0.9998 -0.0175 -0.0024
vn -0.4498 -0.2733 -0.8503
vn -0.6321 0.2180 0.7436
vn -0.9568 -0.2509 0.1468
vn -0.4271 -0.0747 0.9011
vn -0.4563 -0.2676 0.8486
vn -0.9236 -0.3591 0.1340
vn -0.8564 -0.5088 -0.0872
vn -0.7845 -0.6200 0.0085
vn -0.4933 -0.3759 -0.7844
vn -0.9204 -0.3519 -0.1705
vn -0.8763 -0.4793 -0.0493
vn -0.9246 0.0411 -0.3788
vn -0.9686 -0.0903 -0.2316
vn -0.4112 0.4388 -0.7990
vn -0.9464 0.1356 -0.2931
vn -0.5164 -0.1566 -0.8419
vn -0.2891 0.3407 -0.8946
vn -0.4235 -0.0226 -0.9056
vn -0.4277 -0.0866 -0.8997
vn -0.4858 -0.1527 -0.8606
vn -0.4956 -0.1741 -0.8509
vn -0.9991 0.0144 0.0396
vn -0.4817 -0.1629 -0.8611
vn -0.3974 0.0280 0.9172
vn -0.4466 -0.0612 -0.8926
vn -0.9975 0.0710 -0.0049
vn -0.4138 -0.0252 0.9100
vn -0.9947 0.1026 -0.0072
vn -0.4077 0.0063 0.9131
vn -0.4541 -0.0332 -0.8904
vn -0.9965 0.0611 0.0568
vn -0.3483 0.0738 0.9345
vn -0.5106 -0.1358 -0.8490
vn 0.4986 -0.0174 0.8666
vn 0.4416 -0.0863 0.8930
vn 0.9942 -0.1071 0.0061
vn 0.9998 -0.0205 0.0055
vn -0.4048 -0.0224 0.9141
vn -0.4707 -0.0953 0.8771
vn 0.4804 -0.1171 -0.8692
vn 0.5400 -0.0638 -0.8392
vn -0.4410 -0.0587 -0.8956
vn -0.5041 -0.1543 -0.8498
vn 0.9997 0.0157 0.0208
vn 0.3927 0.0121 0.9196
vn 0.4359 -0.0530 -0.8984
vn 0.4530 -0.1759 -0.8740
vn -0.4388 -0.0730 -0.8956
vn 0.9940 -0.1091 0.0065
vn 0.3973 -0.1393 0.9071
vn -0.3973 -0.0337 0.9170
vn 0.4984 -0.1991 0.8438
vn -0.1312 -0.3281 0.9355
vn 0.1490 -0.9585 0.2429
vn 0.9681 -0.1237 0.2179
vn 0.2311 -0.1780 -0.9565
vn 0.6211 -0.1155 -0.7751
vn -0.8198 -0.5721 -0.0266
vn -0.5313 -0.4446 0.7211
vn -0.3773 -0.4383 -0.8158
vn -0.1721 -0.2902 0.9414
vn 0.4302 -0.1345 0.8927
vn 0.9532 -0.0508 0.2982
vn 0.6764 -0.1457 -0.7220
vn 0.1920 -0.1786 -0.9650
vn -0.4890 -0.3933 0.7786
vn -0.5568 -0.5433 -0.6283
vn 0.4898 -0.0901 -0.8671
vn 0.3858 -0.1353 -0.9126
vn -0.3793 -0.1064 -0.9192
vn -0.3618 -0.2094 -0.9084
vn 0.9910 0.1147 0.0684
vn 0.9969 -0.0473 0.0635
vn 0.4708 0.2202 0.8543
vn 0.3756 -0.0234 0.9265
vn -0.3840 -0.0443 0.9223
vn -0.4012 -0.0112 0.9159
vn 0.4130 -0.1014 -0.9050
vn 0.9543 0.1571 0.2541
vn 0.3261 0.1767 0.9287
vn 0.9958 -0.0770 0.0488
vn 0.3844 -0.1133 0.9162
vn -0.3527 -0.0713 0.9330
vn 0.3865 -0.1700 -0.9065
vn -0.3475 -0.1092 -0.9313
vn 0.4187 0.0940 -0.9032
vn 0.3935 -0.1427 -0.9082
vn -0.4812 -0.1550 -0.8628
vn -0.4803 -0.1738 -0.8597
vn 0.9697 0.1440 -0.1974
vn 0.9838 -0.0675 -0.1660
vn 0.5732 0.0374 0.8186
vn 0.5100 -0.0318 0.8596
vn -0.3912 0.0279 0.9199
vn -0.4200 -0.0732 0.9046
vn 0.3782 0.0481 -0.9245
vn 0.9451 0.1388 -0.2958
vn 0.4514 0.0796 0.8888
vn 0.4450 -0.0493 0.8942
vn 0.9843 -0.0941 -0.1494
vn -0.3459 0.0382 0.9375
vn 0.3699 -0.2292 -0.9003
vn -0.4835 -0.1836 -0.8559
vn -0.2440 -0.2833 0.9275
vn -0.9643 -0.2635 -0.0261
vn 0.8291 -0.5559 0.0603
vn 0.1838 -0.3886 0.9029
vn 0.2476 -0.3637 -0.8980
vn -0.2169 -0.2694 -0.9383
vn -0.4216 -0.1937 0.8858
vn 0.2535 -0.5011 0.8274
vn 0.8202 -0.5698 0.0516
vn -0.3915 -0.1546 -0.9071
vn 0.2732 -0.5197 -0.8095
vn -0.2807 -0.2767 0.9190
vn -0.9781 -0.2074 -0.0183
vn 0.7651 -0.6427 0.0390
vn 0.1973 -0.4270 0.8824
vn 0.2988 -0.4941 -0.8164
vn -0.3067 -0.3135 -0.8987
vn -0.4473 -0.1564 -0.8806
vn 0.3358 -0.6087 -0.7188
vn 0.2976 -0.5685 0.7670
vn -0.4345 -0.1324 0.8909
vn 0.7586 -0.6508 0.0308
vn -0.2142 -0.1651 0.9627
vn -0.9554 -0.2938 0.0285
vn 0.7721 -0.6336 -0.0485
vn 0.3864 -0.3671 0.8461
vn 0.3327 -0.6178 -0.7125
vn -0.4145 -0.3956 -0.8195
vn -0.4788 -0.3012 -0.8246
vn 0.2587 -0.6290 -0.7331
vn 0.4840 -0.4887 0.7259
vn -0.3856 -0.0005 0.9227
vn 0.7747 -0.6274 -0.0785
vn 0.4600 0.0414 -0.8870
vn 0.3171 -0.2338 -0.9191
vn -0.3993 -0.0619 -0.9147
vn -0.3640 -0.0157 -0.9313
vn 0.9934 0.1069 0.0420
vn 0.9494 -0.3107 0.0460
vn 0.4397 0.0663 0.8957
vn 0.2961 -0.2366 0.9254
vn -0.3696 0.0004 0.9292
vn -0.4330 -0.0998 0.8959
vn -0.9991 -0.0056 -0.0425
vn -0.9996 0.0203 0.0187
vn -0.3526 -0.0097 -0.9357
vn -0.4024 -0.0372 -0.9147
vn -0.4416 -0.0609 0.8952
vn -0.3650 0.0180 0.9309
vn -0.9857 0.1660 -0.0289
vn -0.9819 0.1894 0.0009
vn -0.4277 0.0706 -0.9011
vn -0.4532 0.0093 -0.8914
vn -0.4475 0.0486 0.8930
vn -0.3940 0.1124 0.9122
vn 0.5323 0.0791 -0.8428
vn 0.4222 -0.3102 -0.8518
vn -0.4715 -0.0134 -0.8818
vn -0.4816 0.0769 -0.8730
vn 0.9952 0.0978 0.0069
vn 0.9179 -0.3960 0.0267
vn 0.4720 0.1171 0.8738
vn 0.3861 -0.2609 0.8848
vn -0.4413 0.1141 0.8901
vn -0.4606 0.0145 0.8875
vn -0.9902 0.1346 -0.0375
vn -0.9820 0.1779 0.0633
vn -0.5069 -0.0254 -0.8616
vn -0.5211 -0.1087 -0.8465
vn -0.3631 0.1788 0.9144
vn -0.3152 0.1974 0.9283
vn 0.4235 0.0311 -0.9054
vn 0.3208 -0.3323 -0.8869
vn -0.5123 -0.1454 -0.8464
vn -0.5297 -0.0259 -0.8478
vn 0.9786 0.1405 -0.1507
vn 0.9366 -0.3322 -0.1113
vn 0.4913 0.2220 0.8422
vn 0.5684 -0.1124 0.8151
vn -0.4110 0.2043 0.8884
vn -0.4188 0.1587 0.8941
vn -0.9957 -0.0859 -0.0351
vn -0.3744 -0.1813 0.9094
vn -0.4354 -0.1447 0.8885
vn -0.9977 -0.0636 -0.0230
vn -0.3287 -0.1592 -0.9309
vn -0.4017 -0.1183 -0.9081
vn -0.4316 -0.1633 -0.8872
vn -0.9995 0.0180 -0.0259
vn -0.9977 0.0640 -0.0213
vn -0.4637 -0.1134 -0.8787
vn -0.4552 -0.0785 0.8869
vn -0.4226 -0.1360 0.8961
vn -0.4692 -0.3028 -0.8296
vn -0.9970 -0.0705 0.0311
vn -0.9991 -0.0143 -0.0407
vn -0.4960 -0.2600 -0.8285
vn -0.3868 0.0465 0.9210
vn -0.2762 -0.0438 0.9601
vn -0.4860 -0.0756 -0.8707
vn -0.6100 -0.2882 -0.7381
vn -0.9293 -0.3545 0.1036
vn -0.9785 0.0931 -0.1840
vn -0.5891 -0.1803 0.7877
vn -0.6143 0.2856 0.7356
vn 0.1758 -0.0731 -0.9817
vn 0.1649 0.0254 -0.9860
vn -0.6351 -0.3295 -0.6986
vn -0.5263 -0.0814 -0.8464
vn 0.6011 0.1039 -0.7924
vn 0.6524 0.1064 -0.7503
vn 0.9254 0.3790 -0.0088
vn 0.9537 0.1424 0.2647
vn 0.4628 0.4787 0.7461
vn 0.4278 0.1154 0.8965
vn -0.2066 0.4005 0.8927
vn -0.2096 -0.0188 0.9776
vn -0.6670 0.3219 0.6719
vn -0.5657 -0.1311 0.8141
vn -0.7321 -0.6798 0.0436
vn -0.4308 -0.4405 0.7876
vn -0.4741 -0.4097 0.7793
vn -0.8184 -0.5545 0.1510
vn -0.2744 -0.4927 -0.8258
vn -0.5342 -0.5337 -0.6556
vt 0.119685 0.188439
vt 0.124471 0.188312
vt 0.121398 0.222855
vt 0.115757 0.221994
vt 0.127923 0.223762
vt 0.130119 0.188431
vt 0.134675 0.224585
vt 0.135916 0.188698
vt 0.140825 0.225127
vt 0.141054 0.188917
vt 0.146698 0.224990
vt 0.145596 0.188921
vt 0.153372 0.224310
vt 0.151314 0.188813
vt 0.160406 0.223129
vt 0.157337 0.188563
vt 0.165357 0.222232
vt 0.161560 0.188607
vt 0.176075 0.248653
vt 0.169347 0.250814
vt 0.179792 0.276903
vt 0.188793 0.272363
vt 0.170381 0.278871
vt 0.161844 0.252450
vt 0.159821 0.280340
vt 0.155817 0.253470
vt 0.149839 0.281550
vt 0.147842 0.254753
vt 0.140411 0.281801
vt 0.140517 0.255122
vt 0.129863 0.280735
vt 0.132331 0.253991
vt 0.120676 0.279628
vt 0.125445 0.252891
vt 0.111726 0.278300
vt 0.120715 0.252046
vt 0.102765 0.276732
vt 0.112982 0.250617
vt 0.093435 0.272534
vt 0.105607 0.248528
vt 0.097462 0.292059
vt 0.086766 0.287202
vt 0.082979 0.294505
vt 0.093703 0.300251
vt 0.107068 0.293459
vt 0.103864 0.302019
vt 0.118599 0.295196
vt 0.116924 0.304159
vt 0.129789 0.296558
vt 0.128328 0.305563
vt 0.140279 0.297165
vt 0.140019 0.306203
vt 0.150208 0.297269
vt 0.151738 0.306397
vt 0.161312 0.296374
vt 0.162444 0.305579
vt 0.173954 0.294649
vt 0.176519 0.303049
vt 0.185311 0.292617
vt 0.189070 0.300454
vt 0.195970 0.286673
vt 0.199767 0.293984
vt 0.108774 0.149018
vt 0.115629 0.147315
vt 0.121903 0.167899
vt 0.116139 0.169000
vt 0.128335 0.167610
vt 0.125170 0.146921
vt 0.134943 0.167700
vt 0.133315 0.146911
vt 0.141302 0.167837
vt 0.141254 0.147029
vt 0.147079 0.167970
vt 0.148427 0.147274
vt 0.153090 0.168031
vt 0.156267 0.147509
vt 0.160326 0.168295
vt 0.167155 0.148041
vt 0.165416 0.169213
vt 0.173319 0.149236
vt 0.168485 0.140021
vt 0.177295 0.141516
vt 0.169754 0.133402
vt 0.178001 0.133753
vt 0.158357 0.133553
vt 0.157521 0.140085
vt 0.149261 0.133810
vt 0.149549 0.140264
vt 0.141240 0.133617
vt 0.141094 0.140389
vt 0.132611 0.133550
vt 0.132680 0.140283
vt 0.122887 0.133155
vt 0.123946 0.140089
vt 0.113241 0.133362
vt 0.112840 0.140164
vt 0.103910 0.133968
vt 0.105122 0.141513
vt 0.105127 0.105997
vt 0.113786 0.106616
vt 0.120780 0.054371
vt 0.127613 0.055259
vt 0.123023 0.107259
vt 0.114439 0.053518
vt 0.134536 0.056053
vt 0.132333 0.107904
vt 0.141271 0.056569
vt 0.141350 0.108310
vt 0.147402 0.056383
vt 0.149550 0.108195
vt 0.153919 0.055757
vt 0.158305 0.107727
vt 0.161759 0.054482
vt 0.168928 0.106657
vt 0.167329 0.053579
vt 0.176552 0.105939
vt 0.153632 0.004157
vt 0.156998 0.003576
vt 0.148526 0.005000
vt 0.144764 0.005367
vt 0.141177 0.005483
vt 0.137103 0.005187
vt 0.132914 0.004689
vt 0.128779 0.004107
vt 0.124950 0.003528
vt 0.715594 0.660536
vt 0.718982 0.664751
vt 0.715851 0.668411
vt 0.712670 0.664745
vt 0.712191 0.658260
vt 0.709469 0.662797
vt 0.708872 0.656378
vt 0.707228 0.661662
vt 0.723180 0.662230
vt 0.719006 0.656223
vt 0.715272 0.653159
vt 0.710893 0.650629
vt 0.705165 0.654502
vt 0.704803 0.648696
vt 0.701798 0.653299
vt 0.701089 0.648162
vt 0.697885 0.653699
vt 0.696499 0.649515
vt 0.704290 0.659833
vt 0.697109 0.658591
vt 0.700990 0.658493
vt 0.725430 0.650165
vt 0.721819 0.647166
vt 0.729544 0.640002
vt 0.733144 0.643367
vt 0.739226 0.652465
vt 0.731139 0.656947
vt 0.736708 0.634321
vt 0.739839 0.638668
vt 0.744619 0.648913
vt 0.752392 0.632722
vt 0.754894 0.640905
vt 0.754569 0.632418
vt 0.756392 0.640883
vt 0.719386 0.645530
vt 0.725930 0.636956
vt 0.722474 0.634358
vt 0.716615 0.644086
vt 0.729878 0.625547
vt 0.733823 0.629489
vt 0.748214 0.620383
vt 0.750743 0.625975
vt 0.752981 0.620679
vt 0.751526 0.618223
vt 0.761500 0.616349
vt 0.761755 0.616672
vt 0.753661 0.626393
vt 0.713762 0.642736
vt 0.718638 0.632243
vt 0.742782 0.614539
vt 0.737033 0.610057
vt 0.724760 0.622945
vt 0.745784 0.612714
vt 0.740761 0.607238
vt 0.738449 0.605903
vt 0.743728 0.597733
vt 0.744018 0.597863
vt 0.731787 0.608521
vt 0.733152 0.605174
vt 0.725600 0.606959
vt 0.720228 0.620775
vt 0.713744 0.618740
vt 0.727261 0.603976
vt 0.717002 0.602437
vt 0.717488 0.600265
vt 0.706308 0.612522
vt 0.704468 0.607227
vt 0.702345 0.604173
vt 0.702088 0.609044
vt 0.708766 0.629149
vt 0.714240 0.630690
vt 0.704216 0.640996
vt 0.709466 0.641854
vt 0.698070 0.642809
vt 0.698290 0.632479
vt 0.693292 0.634917
vt 0.702092 0.624522
vt 0.700540 0.623184
vt 0.697542 0.631147
vt 0.700641 0.614937
vt 0.702995 0.616114
vt 0.692854 0.633897
vt 0.691775 0.643201
vt 0.687213 0.635961
vt 0.684377 0.617979
vt 0.687259 0.614908
vt 0.680017 0.618460
vt 0.689092 0.611248
vt 0.690819 0.608483
vt 0.700832 0.608437
vt 0.693726 0.604556
vt 0.696419 0.600043
vt 0.674631 0.606387
vt 0.670891 0.608855
vt 0.678332 0.604140
vt 0.680474 0.601339
vt 0.681753 0.598821
vt 0.684663 0.595333
vt 0.687301 0.591890
vt 0.314954 0.230493
vt 0.322045 0.224137
vt 0.322428 0.237352
vt 0.315699 0.239009
vt 0.328582 0.238389
vt 0.329424 0.226644
vt 0.333927 0.238653
vt 0.334427 0.227391
vt 0.333598 0.246064
vt 0.328266 0.246124
vt 0.329555 0.263759
vt 0.335378 0.263966
vt 0.336361 0.267284
vt 0.331356 0.267368
vt 0.332118 0.285127
vt 0.336662 0.285048
vt 0.329758 0.267575
vt 0.332298 0.217917
vt 0.327288 0.216024
vt 0.333910 0.212161
vt 0.339945 0.212493
vt 0.340513 0.218234
vt 0.329173 0.211157
vt 0.335474 0.207390
vt 0.331897 0.206876
vt 0.338668 0.207621
vt 0.324719 0.262859
vt 0.324735 0.266575
vt 0.320260 0.262586
vt 0.320381 0.265952
vt 0.321724 0.245785
vt 0.317954 0.284457
vt 0.322357 0.284636
vt 0.316638 0.248150
vt 0.326842 0.284930
vt 0.305755 0.250841
vt 0.303668 0.248216
vt 0.308590 0.252725
vt 0.322096 0.286735
vt 0.317687 0.286359
vt 0.326201 0.287442
vt 0.318356 0.307746
vt 0.321047 0.307564
vt 0.323823 0.307696
vt 0.300796 0.262999
vt 0.304433 0.265734
vt 0.298907 0.261711
vt 0.350050 0.284385
vt 0.345196 0.284823
vt 0.343679 0.267164
vt 0.348686 0.266546
vt 0.347523 0.263906
vt 0.341819 0.264652
vt 0.341917 0.267325
vt 0.345247 0.246276
vt 0.339545 0.246194
vt 0.344473 0.238623
vt 0.339268 0.238907
vt 0.345685 0.228452
vt 0.339426 0.228160
vt 0.341685 0.284923
vt 0.349822 0.238649
vt 0.351372 0.246609
vt 0.352587 0.263634
vt 0.353071 0.266273
vt 0.354350 0.284016
vt 0.350171 0.285646
vt 0.354574 0.286077
vt 0.345398 0.286668
vt 0.341656 0.287757
vt 0.336734 0.287741
vt 0.332282 0.287992
vt 0.337354 0.307948
vt 0.334510 0.308037
vt 0.340519 0.307642
vt 0.350458 0.304673
vt 0.347558 0.305241
vt 0.353099 0.304362
vt 0.757515 0.596866
vt 0.759225 0.595264
vt 0.761760 0.598903
vt 0.759914 0.600487
vt 0.756486 0.588697
vt 0.754602 0.590568
vt 0.765454 0.602080
vt 0.763537 0.603586
vt 0.771535 0.605811
vt 0.769475 0.607325
vt 0.758656 0.601569
vt 0.756314 0.597939
vt 0.762321 0.604600
vt 0.781443 0.586698
vt 0.786273 0.592017
vt 0.778561 0.584307
vt 0.776822 0.581356
vt 0.772426 0.575710
vt 0.668741 0.588994
vt 0.667619 0.589103
vt 0.668146 0.587897
vt 0.669003 0.588598
vt 0.669059 0.587176
vt 0.669252 0.588224
vt 0.667472 0.586852
vt 0.666291 0.587678
vt 0.668666 0.586124
vt 0.671951 0.603473
vt 0.675751 0.601143
vt 0.677598 0.598221
vt 0.678510 0.595851
vt 0.681506 0.592261
vt 0.667640 0.606079
vt 0.684303 0.588348
vt 0.735038 0.585210
vt 0.735113 0.582715
vt 0.742465 0.580433
vt 0.742317 0.583118
vt 0.730917 0.585450
vt 0.730668 0.583397
vt 0.726201 0.585127
vt 0.726001 0.583449
vt 0.718994 0.583323
vt 0.719236 0.585314
vt 0.735164 0.586888
vt 0.731098 0.586989
vt 0.726321 0.586540
vt 0.728671 0.561079
vt 0.725329 0.560941
vt 0.718531 0.561653
vt 0.731784 0.560265
vt 0.738778 0.560246
vt 0.771450 0.636333
vt 0.772491 0.636585
vt 0.772358 0.643341
vt 0.770404 0.642725
vt 0.772100 0.631702
vt 0.773364 0.632131
vt 0.773338 0.627557
vt 0.774777 0.627891
vt 0.778514 0.621174
vt 0.776637 0.620808
vt 0.770086 0.635894
vt 0.770631 0.631182
vt 0.771749 0.627141
vt 0.794401 0.634109
vt 0.792699 0.637298
vt 0.797229 0.627802
vt 0.792144 0.640819
vt 0.791333 0.647050
vt 0.725692 0.543211
vt 0.726686 0.542895
vt 0.726717 0.543819
vt 0.726246 0.543870
vt 0.727211 0.543779
vt 0.727673 0.543029
vt 0.717708 0.557132
vt 0.724730 0.556709
vt 0.727706 0.556829
vt 0.737673 0.555782
vt 0.730437 0.556050
vt 0.790368 0.572130
vt 0.791742 0.573028
vt 0.791017 0.573760
vt 0.790336 0.573087
vt 0.791612 0.574621
vt 0.792560 0.574725
vt 0.788963 0.589715
vt 0.783706 0.584359
vt 0.779533 0.579538
vt 0.775230 0.573457
vt 0.781103 0.582192
vt 0.808478 0.639556
vt 0.808705 0.641619
vt 0.807595 0.641349
vt 0.807819 0.640346
vt 0.807264 0.642201
vt 0.807311 0.643120
vt 0.794643 0.648320
vt 0.795155 0.641642
vt 0.797349 0.635682
vt 0.800721 0.629172
vt 0.795775 0.638475
vt 0.269538 0.289478
vt 0.270389 0.289044
vt 0.270389 0.296376
vt 0.269538 0.296376
vt 0.269538 0.286339
vt 0.270389 0.286339
vt 0.269538 0.283181
vt 0.270389 0.283181
vt 0.269538 0.276270
vt 0.270389 0.276270
vt 0.369309 0.305442
vt 0.369320 0.304827
vt 0.372096 0.304959
vt 0.372179 0.305617
vt 0.366528 0.305670
vt 0.366629 0.305009
vt 0.369050 0.308675
vt 0.369034 0.308038
vt 0.372199 0.307732
vt 0.372395 0.308364
vt 0.366046 0.308786
vt 0.366190 0.308127
vt 0.274848 0.289944
vt 0.275286 0.289478
vt 0.275559 0.297074
vt 0.274666 0.297061
vt 0.274309 0.286162
vt 0.274939 0.286184
vt 0.275097 0.282777
vt 0.275567 0.283217
vt 0.275709 0.275694
vt 0.276625 0.275794
vt 0.373407 0.306738
vt 0.373485 0.306044
vt 0.376127 0.305732
vt 0.376256 0.306368
vt 0.370298 0.307392
vt 0.370585 0.306612
vt 0.280648 0.291105
vt 0.281627 0.291105
vt 0.281627 0.297560
vt 0.280648 0.297560
vt 0.280648 0.287761
vt 0.281627 0.287761
vt 0.280648 0.284521
vt 0.281627 0.285020
vt 0.280648 0.278362
vt 0.281627 0.278362
vt 0.320262 0.324744
vt 0.319763 0.324788
vt 0.317735 0.311108
vt 0.320516 0.310881
vt 0.320743 0.324821
vt 0.323386 0.311056
vt 0.338842 0.322892
vt 0.337858 0.322842
vt 0.337339 0.310358
vt 0.340684 0.310048
vt 0.334335 0.310470
vt 0.336991 0.322910
vt 0.351436 0.319088
vt 0.350256 0.319182
vt 0.350348 0.307923
vt 0.353198 0.307553
vt 0.347239 0.308577
vt 0.349066 0.319346
vt 0.374552 0.302932
vt 0.375238 0.303918
vt 0.370480 0.303822
vt 0.370013 0.303248
vt 0.368051 0.304245
vt 0.367742 0.303512
vt 0.285585 0.280975
vt 0.284567 0.280984
vt 0.284161 0.276012
vt 0.284951 0.276860
vt 0.285366 0.285946
vt 0.284488 0.285964
vt 0.287083 0.287789
vt 0.286104 0.287698
vt 0.286893 0.291794
vt 0.286475 0.291345
vt 0.285682 0.295995
vt 0.285320 0.295607
vt 0.284594 0.300113
vt 0.283976 0.300689
vt 0.297584 0.282514
vt 0.297108 0.282169
vt 0.297829 0.264794
vt 0.299941 0.266066
vt 0.298032 0.282849
vt 0.303473 0.269256
s 1
usemtl hr_pain_panic_mat.003
f 3/1/1 2/2/2 1/3/3
f 4/4/4 3/1/1 1/3/3
f 1/3/3 2/2/2 5/5/5
f 2/2/2 6/6/6 5/5/5
f 5/5/5 6/6/6 7/7/7
f 6/6/6 8/8/8 7/7/7
f 7/7/7 8/8/8 9/9/9
f 8/8/8 10/10/10 9/9/9
f 9/9/9 10/10/10 11/11/11
f 10/10/10 12/12/12 11/11/11
f 11/11/11 12/12/12 13/13/13
f 12/12/12 14/14/14 13/13/13
f 13/13/13 14/14/14 15/15/15
f 14/14/14 16/16/16 15/15/15
f 15/15/15 16/16/16 17/17/17
f 16/16/16 18/18/18 17/17/17
f 15/15/15 17/17/17 19/19/19
f 20/20/20 15/15/15 19/19/19
f 13/13/13 15/15/15 20/20/20
f 21/21/21 20/20/20 19/19/19
f 22/22/22 21/21/21 19/19/19
f 21/21/21 23/23/23 20/20/20
f 23/23/23 24/24/24 20/20/20
f 24/24/24 13/13/13 20/20/20
f 23/23/23 25/25/25 24/24/24
f 25/25/25 26/26/26 24/24/24
f 24/24/24 26/26/26 13/13/13
f 26/26/26 25/25/25 27/27/27
f 28/28/28 26/26/26 27/27/27
f 26/26/26 28/28/28 13/13/13
f 27/27/27 29/29/29 28/28/28
f 29/29/29 30/30/30 28/28/28
f 29/29/29 31/31/31 30/30/30
f 31/31/31 32/32/32 30/30/30
f 31/31/31 33/33/33 32/32/32
f 33/33/33 34/34/34 32/32/32
f 34/34/34 33/33/33 35/35/35
f 36/36/36 34/34/34 35/35/35
f 36/36/36 35/35/35 37/37/37
f 38/38/38 36/36/36 37/37/37
f 37/37/37 39/39/39 38/38/38
f 39/39/39 40/40/40 38/38/38
f 40/40/40 4/4/4 38/38/38
f 4/4/4 1/3/3 38/38/38
f 30/30/30 9/9/9 28/28/28
f 9/9/9 11/11/11 28/28/28
f 7/7/7 9/9/9 30/30/30
f 32/32/32 7/7/7 30/30/30
f 5/5/5 7/7/7 32/32/32
f 34/34/34 5/5/5 32/32/32
f 38/38/38 1/3/3 5/5/5
f 36/36/36 38/38/38 5/5/5
f 34/34/34 36/36/36 5/5/5
f 39/39/39 37/37/37 41/41/41
f 42/42/42 39/39/39 41/41/41
f 43/43/43 42/42/42 41/41/41
f 44/44/44 43/43/43 41/41/41
f 41/41/41 45/45/45 44/44/44
f 41/41/41 37/37/37 45/45/45
f 45/45/45 46/46/46 44/44/44
f 45/45/45 47/47/47 46/46/46
f 47/47/47 48/48/48 46/46/46
f 48/48/48 47/47/47 49/49/49
f 50/50/50 48/48/48 49/49/49
f 50/50/50 49/49/49 51/51/51
f 52/52/52 50/50/50 51/51/51
f 52/52/52 51/51/51 53/53/53
f 54/54/54 52/52/52 53/53/53
f 53/53/53 55/55/55 54/54/54
f 55/55/55 56/56/56 54/54/54
f 55/55/55 57/57/57 56/56/56
f 57/57/57 58/58/58 56/56/56
f 58/58/58 57/57/57 59/59/59
f 60/60/60 58/58/58 59/59/59
f 60/60/60 59/59/59 61/61/61
f 62/62/62 60/60/60 61/61/61
f 65/63/63 64/64/64 63/65/65
f 66/66/66 65/63/63 63/65/65
f 63/65/65 64/64/64 67/67/67
f 64/64/64 68/68/68 67/67/67
f 67/67/67 68/68/68 69/69/69
f 68/68/68 70/70/70 69/69/69
f 69/69/69 70/70/70 71/71/71
f 70/70/70 72/72/72 71/71/71
f 71/71/71 72/72/72 73/73/73
f 72/72/72 74/74/74 73/73/73
f 73/73/73 74/74/74 75/75/75
f 74/74/74 76/76/76 75/75/75
f 75/75/75 76/76/76 77/77/77
f 76/76/76 78/78/78 77/77/77
f 77/77/77 78/78/78 79/79/79
f 78/78/78 80/80/80 79/79/79
f 78/78/78 81/81/81 80/80/80
f 81/81/81 82/82/82 80/80/80
f 81/81/81 83/83/83 82/82/82
f 83/83/83 84/84/84 82/82/82
f 85/85/85 83/83/83 81/81/81
f 86/86/86 85/85/85 81/81/81
f 86/86/86 81/81/81 78/78/78
f 76/76/76 86/86/86 78/78/78
f 87/87/87 85/85/85 86/86/86
f 88/88/88 87/87/87 86/86/86
f 88/88/88 86/86/86 76/76/76
f 74/74/74 88/88/88 76/76/76
f 89/89/89 87/87/87 88/88/88
f 90/90/90 89/89/89 88/88/88
f 91/91/91 89/89/89 90/90/90
f 92/92/92 91/91/91 90/90/90
f 93/93/93 91/91/91 92/92/92
f 94/94/94 93/93/93 92/92/92
f 95/95/95 93/93/93 94/94/94
f 96/96/96 95/95/95 94/94/94
f 97/97/97 95/95/95 96/96/96
f 98/98/98 97/97/97 96/96/96
f 98/98/98 96/96/96 64/64/64
f 65/63/63 98/98/98 64/64/64
f 90/90/90 88/88/88 74/74/74
f 72/72/72 90/90/90 74/74/74
f 92/92/92 90/90/90 72/72/72
f 70/70/70 92/92/92 72/72/72
f 94/94/94 92/92/92 70/70/70
f 68/68/68 94/94/94 70/70/70
f 96/96/96 94/94/94 68/68/68
f 64/64/64 96/96/96 68/68/68
f 97/97/97 99/99/99 95/95/95
f 99/99/99 100/100/100 95/95/95
f 95/95/95 100/100/100 93/93/93
f 100/100/100 99/99/99 101/101/101
f 101/101/101 102/102/102 100/100/100
f 102/102/102 103/103/103 100/100/100
f 99/99/99 104/104/104 101/101/101
f 102/102/102 105/105/105 103/103/103
f 105/105/105 106/106/106 103/103/103
f 106/106/106 105/105/105 107/107/107
f 108/108/108 106/106/106 107/107/107
f 108/108/108 107/107/107 109/109/109
f 110/110/110 108/108/108 109/109/109
f 110/110/110 109/109/109 111/111/111
f 112/112/112 110/110/110 111/111/111
f 112/112/112 111/111/111 113/113/113
f 114/114/114 112/112/112 113/113/113
f 114/114/114 113/113/113 115/115/104
f 116/116/115 114/114/114 115/115/104
f 114/114/114 116/116/115 84/84/84
f 83/83/83 114/114/114 84/84/84
f 112/112/112 114/114/114 83/83/83
f 85/85/85 112/112/112 83/83/83
f 110/110/110 112/112/112 85/85/85
f 108/108/108 110/110/110 87/87/87
f 87/87/87 110/110/110 85/85/85
f 89/89/89 108/108/108 87/87/87
f 106/106/106 108/108/108 89/89/89
f 91/91/91 106/106/106 89/89/89
f 113/113/113 117/117/116 115/115/104
f 117/117/116 118/118/117 115/115/104
f 119/119/118 117/117/116 113/113/113
f 111/111/111 119/119/118 113/113/113
f 120/120/119 119/119/118 111/111/111
f 109/109/109 120/120/119 111/111/111
f 121/121/120 120/120/119 109/109/109
f 107/107/107 121/121/120 109/109/109
f 122/122/121 121/121/120 107/107/107
f 105/105/105 122/122/121 107/107/107
f 123/123/122 122/122/121 105/105/105
f 102/102/102 123/123/122 105/105/105
f 124/124/123 123/123/122 102/102/102
f 101/101/101 124/124/123 102/102/102
f 125/125/124 124/124/123 101/101/101
f 104/104/104 125/125/124 101/101/101
f 103/103/103 106/106/106 91/91/91
f 100/100/100 103/103/103 93/93/93
f 93/93/93 103/103/103 91/91/91
f 28/28/28 11/11/11 13/13/13
f 21/21/21 22/22/22 61/61/61
f 59/59/59 21/21/21 61/61/61
f 23/23/23 21/21/21 59/59/59
f 57/57/57 23/23/23 59/59/59
f 25/25/25 23/23/23 57/57/57
f 55/55/55 25/25/25 57/57/57
f 27/27/27 25/25/25 55/55/55
f 53/53/53 27/27/27 55/55/55
f 29/29/29 27/27/27 53/53/53
f 51/51/51 29/29/29 53/53/53
f 31/31/31 29/29/29 51/51/51
f 49/49/49 31/31/31 51/51/51
f 33/33/33 31/31/31 49/49/49
f 47/47/47 33/33/33 49/49/49
f 35/35/35 33/33/33 47/47/47
f 45/45/45 35/35/35 47/47/47
f 37/37/37 35/35/35 45/45/45
f 66/66/66 63/65/65 2/2/2
f 3/1/1 66/66/66 2/2/2
f 2/2/2 63/65/65 6/6/6
f 63/65/65 67/67/67 6/6/6
f 6/6/6 67/67/67 8/8/8
f 67/67/67 69/69/69 8/8/8
f 8/8/8 69/69/69 10/10/10
f 69/69/69 71/71/71 10/10/10
f 10/10/10 71/71/71 12/12/12
f 71/71/71 73/73/73 12/12/12
f 12/12/12 73/73/73 14/14/14
f 73/73/73 75/75/75 14/14/14
f 14/14/14 75/75/75 16/16/16
f 75/75/75 77/77/77 16/16/16
f 16/16/16 77/77/77 18/18/18
f 77/77/77 79/79/79 18/18/18
f 128/126/125 127/127/126 126/128/127
f 129/129/128 128/126/125 126/128/127
f 130/130/129 128/126/125 129/129/128
f 131/131/130 130/130/129 129/129/128
f 132/132/131 130/130/129 131/131/130
f 133/133/132 132/132/131 131/131/130
f 134/134/133 127/127/126 128/126/125
f 135/135/134 134/134/133 128/126/125
f 128/126/125 130/130/129 135/135/134
f 130/130/129 136/136/135 135/135/134
f 136/136/135 130/130/129 132/132/131
f 137/137/136 136/136/135 132/132/131
f 132/132/131 138/138/137 137/137/136
f 138/138/137 139/139/138 137/137/136
f 138/138/137 140/140/139 139/139/138
f 140/140/139 141/141/140 139/139/138
f 140/140/139 142/142/141 141/141/140
f 142/142/141 143/143/142 141/141/140
f 132/132/131 133/133/132 144/144/143
f 138/138/137 132/132/131 144/144/143
f 142/142/141 140/140/139 145/145/144
f 140/140/139 146/146/145 145/145/144
f 138/138/137 144/144/143 146/146/145
f 140/140/139 138/138/137 146/146/145
f 147/147/146 135/135/134 136/136/135
f 148/148/147 147/147/146 136/136/135
f 148/148/147 149/149/148 147/147/146
f 149/149/148 150/150/149 147/147/146
f 150/150/149 151/151/150 147/147/146
f 151/151/150 152/152/151 147/147/146
f 149/149/148 153/153/152 150/150/149
f 153/153/152 154/154/153 150/150/149
f 155/155/154 151/151/150 150/150/149
f 154/154/153 155/155/154 150/150/149
f 154/154/153 156/156/155 155/155/154
f 156/156/155 157/157/156 155/155/154
f 156/156/155 158/158/157 157/157/156
f 158/158/157 159/159/158 157/157/156
f 147/147/146 152/152/151 135/135/134
f 152/152/151 134/134/133 135/135/134
f 148/148/147 160/160/159 149/149/148
f 160/160/159 161/161/160 149/149/148
f 149/149/148 161/161/160 153/153/152
f 162/162/161 161/161/160 160/160/159
f 163/163/162 162/162/161 160/160/159
f 162/162/161 164/164/163 161/161/160
f 164/164/163 165/165/164 161/161/160
f 161/161/160 165/165/164 153/153/152
f 165/165/164 166/166/165 153/153/152
f 166/166/165 165/165/164 164/164/163
f 166/166/165 167/167/166 153/153/152
f 167/167/166 156/156/155 154/154/153
f 166/166/165 168/168/167 167/167/166
f 166/166/165 169/169/168 168/168/167
f 169/169/168 170/170/169 168/168/167
f 170/170/169 171/171/170 168/168/167
f 168/168/167 172/172/171 167/167/166
f 163/163/162 160/160/159 137/137/136
f 160/160/159 136/136/135 137/137/136
f 163/163/162 173/173/172 162/162/161
f 173/173/172 163/163/162 137/137/136
f 173/173/172 174/174/173 162/162/161
f 162/162/161 174/174/173 164/164/163
f 166/166/165 175/175/174 169/169/168
f 175/175/174 166/166/165 164/164/163
f 175/175/174 164/164/163 176/176/175
f 164/164/163 177/177/176 176/176/175
f 174/174/173 177/177/176 164/164/163
f 175/175/174 176/176/175 178/178/177
f 175/175/174 178/178/177 169/169/168
f 176/176/175 179/179/178 178/178/177
f 176/176/175 180/180/179 179/179/178
f 180/180/179 181/181/180 179/179/178
f 181/181/180 182/182/181 179/179/178
f 176/176/175 183/183/182 180/180/179
f 183/183/182 184/184/183 180/180/179
f 183/183/182 185/185/184 184/184/183
f 183/183/182 186/186/185 185/185/184
f 176/176/175 177/177/176 186/186/185
f 183/183/182 176/176/175 186/186/185
f 186/186/185 177/177/176 174/174/173
f 186/186/185 187/187/186 185/185/184
f 185/185/184 188/188/187 184/184/183
f 188/188/187 185/185/184 189/189/188
f 190/190/189 188/188/187 189/189/188
f 189/189/188 185/185/184 191/191/190
f 187/187/186 191/191/190 185/185/184
f 192/192/191 189/189/188 191/191/190
f 193/193/192 192/192/191 191/191/190
f 194/194/193 193/193/192 191/191/190
f 194/194/193 191/191/190 187/187/186
f 195/195/194 187/187/186 186/186/185
f 196/196/195 195/195/194 186/186/185
f 197/197/196 195/195/194 196/196/195
f 198/198/197 197/197/196 196/196/195
f 139/139/138 197/197/196 198/198/197
f 139/139/138 141/141/140 197/197/196
f 141/141/140 199/199/198 197/197/196
f 197/197/196 199/199/198 200/200/199
f 197/197/196 200/200/199 195/195/194
f 199/199/198 201/201/200 200/200/199
f 200/200/199 202/202/201 195/195/194
f 203/203/202 202/202/201 200/200/199
f 204/204/203 203/203/202 200/200/199
f 204/204/203 200/200/199 201/201/200
f 203/203/202 205/205/204 202/202/201
f 205/205/204 206/206/205 202/202/201
f 194/194/193 206/206/205 205/205/204
f 202/202/201 206/206/205 187/187/186
f 195/195/194 202/202/201 187/187/186
f 206/206/205 194/194/193 187/187/186
f 207/207/206 204/204/203 201/201/200
f 199/199/198 141/141/140 208/208/207
f 141/141/140 143/143/142 208/208/207
f 199/199/198 208/208/207 209/209/208
f 201/201/200 199/199/198 209/209/208
f 207/207/206 201/201/200 209/209/208
f 204/204/203 207/207/206 210/210/209
f 211/211/210 204/204/203 210/210/209
f 203/203/202 204/204/203 211/211/210
f 207/207/206 209/209/208 212/212/211
f 210/210/209 207/207/206 212/212/211
f 205/205/204 203/203/202 213/213/212
f 213/213/212 203/203/202 211/211/210
f 214/214/213 205/205/204 213/213/212
f 215/215/214 205/205/204 214/214/213
f 215/215/214 194/194/193 205/205/204
f 215/215/214 193/193/192 194/194/193
f 193/193/192 215/215/214 216/216/215
f 216/216/215 215/215/214 214/214/213
f 217/217/216 193/193/192 216/216/215
f 210/210/209 212/212/211 218/218/217
f 210/210/209 218/218/217 211/211/210
f 212/212/211 219/219/218 218/218/217
f 218/218/217 220/220/219 211/211/210
f 211/211/210 220/220/219 213/213/212
f 220/220/219 221/221/220 213/213/212
f 213/213/212 221/221/220 214/214/213
f 221/221/220 222/222/221 214/214/213
f 216/216/215 214/214/213 222/222/221
f 223/223/222 216/216/215 222/222/221
f 217/217/216 216/216/215 223/223/222
f 224/224/223 217/217/216 223/223/222
f 227/225/224 226/226/225 225/227/226
f 228/228/227 227/225/224 225/227/226
f 229/229/228 225/227/226 226/226/225
f 230/230/229 229/229/228 226/226/225
f 231/231/230 229/229/228 230/230/229
f 232/232/231 231/231/230 230/230/229
f 231/231/230 233/233/232 229/229/228
f 233/233/232 234/234/233 229/229/228
f 225/227/226 229/229/228 234/234/233
f 235/235/234 234/234/233 233/233/232
f 236/236/235 235/235/234 233/233/232
f 236/236/235 237/237/236 235/235/234
f 237/237/236 238/238/237 235/235/234
f 239/239/238 238/238/237 237/237/236
f 240/240/239 239/239/238 237/237/236
f 238/238/237 241/241/240 235/235/234
f 242/242/241 232/232/231 230/230/229
f 242/242/241 230/230/229 243/243/242
f 244/244/243 242/242/241 243/243/242
f 242/242/241 244/244/243 245/245/244
f 246/246/245 242/242/241 245/245/244
f 242/242/241 246/246/245 232/232/231
f 247/247/246 244/244/243 243/243/242
f 244/244/243 247/247/246 248/248/247
f 247/247/246 249/249/248 248/248/247
f 244/244/243 248/248/247 250/250/249
f 245/245/244 244/244/243 250/250/249
f 251/251/250 235/235/234 241/241/240
f 252/252/251 251/251/250 241/241/240
f 253/253/252 251/251/250 252/252/251
f 254/254/253 253/253/252 252/252/251
f 251/251/250 253/253/252 234/234/233
f 253/253/252 255/255/254 234/234/233
f 256/256/255 254/254/253 252/252/251
f 257/257/256 256/256/255 252/252/251
f 255/255/254 225/227/226 234/234/233
f 228/228/227 225/227/226 255/255/254
f 258/258/257 228/228/227 255/255/254
f 257/257/256 252/252/251 241/241/240
f 259/259/258 257/257/256 241/241/240
f 235/235/234 251/251/250 234/234/233
f 260/260/259 228/228/227 258/258/257
f 260/260/259 261/261/260 228/228/227
f 261/261/260 227/225/224 228/228/227
f 262/262/261 260/260/259 258/258/257
f 257/257/256 263/263/262 256/256/255
f 263/263/262 264/264/263 256/256/255
f 265/265/264 263/263/262 257/257/256
f 259/259/258 265/265/264 257/257/256
f 264/264/263 263/263/262 266/266/265
f 263/263/262 267/267/266 266/266/265
f 268/268/267 267/267/266 263/263/262
f 265/265/264 268/268/267 263/263/262
f 269/269/268 260/260/259 262/262/261
f 260/260/259 269/269/268 261/261/260
f 270/270/269 269/269/268 262/262/261
f 269/269/268 271/271/270 261/261/260
f 274/272/271 273/273/272 272/274/273
f 275/275/274 274/272/271 272/274/273
f 275/275/274 272/274/273 276/276/275
f 272/274/273 277/277/276 276/276/275
f 272/274/273 278/278/277 277/277/276
f 276/276/275 277/277/276 279/279/278
f 277/277/276 280/280/279 279/279/278
f 281/281/280 279/279/278 280/280/279
f 282/282/281 281/281/280 280/280/279
f 283/283/282 281/281/280 282/282/281
f 284/284/283 283/283/282 282/282/281
f 246/246/245 283/283/282 284/284/283
f 284/284/283 282/282/281 231/231/230
f 232/232/231 284/284/283 231/231/230
f 246/246/245 284/284/283 232/232/231
f 277/277/276 236/236/235 280/280/279
f 236/236/235 233/233/232 280/280/279
f 282/282/281 280/280/279 233/233/232
f 231/231/230 282/282/281 233/233/232
f 277/277/276 278/278/277 237/237/236
f 236/236/235 277/277/276 237/237/236
f 240/240/239 237/237/236 278/278/277
f 285/285/284 240/240/239 278/278/277
f 283/283/282 286/286/285 281/281/280
f 281/281/280 286/286/285 279/279/278
f 286/286/285 287/287/286 279/279/278
f 276/276/275 279/279/278 287/287/286
f 288/288/287 276/276/275 287/287/286
f 275/275/274 276/276/275 288/288/287
f 289/289/288 275/275/274 288/288/287
f 275/275/274 289/289/288 290/290/289
f 274/272/271 275/275/274 290/290/289
f 274/272/271 290/290/289 291/291/290
f 290/290/289 292/292/291 291/291/290
f 274/272/271 291/291/290 273/273/272
f 291/291/290 293/293/292 273/273/272
f 285/285/284 294/294/293 240/240/239
f 294/294/293 295/295/294 240/240/239
f 240/240/239 295/295/294 239/239/238
f 295/295/294 296/296/295 239/239/238
f 295/295/294 297/297/296 296/296/295
f 297/297/296 298/298/297 296/296/295
f 299/299/298 297/297/296 295/295/294
f 294/294/293 299/299/298 295/295/294
f 291/291/290 300/300/299 293/293/292
f 300/300/299 301/301/300 293/293/292
f 302/302/301 300/300/299 291/291/290
f 292/292/291 302/302/301 291/291/290
f 305/303/302 304/304/303 303/305/304
f 306/306/305 305/303/302 303/305/304
f 304/304/303 305/303/302 307/307/306
f 305/303/302 308/308/307 307/307/306
f 306/306/305 303/305/304 309/309/308
f 310/310/309 306/306/305 309/309/308
f 310/310/309 309/309/308 311/311/310
f 312/312/311 310/310/309 311/311/310
f 306/306/305 313/313/312 305/303/302
f 313/313/312 314/314/313 305/303/302
f 305/303/302 314/314/313 308/308/307
f 313/313/312 178/178/177 314/314/313
f 178/178/177 179/179/178 314/314/313
f 314/314/313 179/179/178 308/308/307
f 179/179/178 182/182/181 308/308/307
f 169/169/168 178/178/177 313/313/312
f 315/315/314 169/169/168 313/313/312
f 312/312/311 315/315/314 310/310/309
f 315/315/314 313/313/312 306/306/305
f 310/310/309 315/315/314 306/306/305
f 170/170/169 169/169/168 315/315/314
f 312/312/311 170/170/169 315/315/314
f 309/309/308 316/316/315 311/311/310
f 316/316/315 317/317/316 311/311/310
f 318/318/317 316/316/315 309/309/308
f 303/305/304 318/318/317 309/309/308
f 319/319/318 318/318/317 303/305/304
f 304/304/303 319/319/318 303/305/304
f 304/304/303 307/307/306 319/319/318
f 307/307/306 320/320/319 319/319/318
f 323/321/320 322/322/321 321/323/322
f 324/324/323 323/321/320 321/323/322
f 324/324/323 321/323/322 325/325/324
f 326/326/325 324/324/323 325/325/324
f 321/323/322 322/322/321 327/327/326
f 322/322/321 328/328/327 327/327/326
f 321/323/322 327/327/326 329/329/328
f 325/325/324 321/323/322 329/329/328
f 330/330/329 322/322/321 323/321/320
f 331/331/330 330/330/329 323/321/320
f 323/321/320 324/324/323 332/332/331
f 331/331/330 323/321/320 332/332/331
f 324/324/323 326/326/325 333/333/332
f 332/332/331 324/324/323 333/333/332
f 326/326/325 325/325/324 334/334/333
f 333/333/332 326/326/325 334/334/333
f 335/335/334 328/328/327 322/322/321
f 330/330/329 335/335/334 322/322/321
f 325/325/324 329/329/328 336/336/335
f 334/334/333 325/325/324 336/336/335
f 339/337/336 338/338/337 337/339/338
f 340/340/339 339/337/336 337/339/338
f 339/337/336 341/341/340 338/338/337
f 341/341/340 342/342/341 338/338/337
f 341/341/340 343/343/342 342/342/341
f 343/343/342 344/344/343 342/342/341
f 344/344/343 343/343/342 345/345/344
f 343/343/342 346/346/345 345/345/344
f 340/340/339 347/347/346 339/337/336
f 339/337/336 347/347/346 341/341/340
f 340/340/339 181/181/180 347/347/346
f 181/181/180 180/180/179 347/347/346
f 347/347/346 180/180/179 348/348/347
f 341/341/340 348/348/347 343/343/342
f 347/347/346 348/348/347 341/341/340
f 180/180/179 184/184/183 348/348/347
f 348/348/347 184/184/183 349/349/348
f 348/348/347 349/349/348 343/343/342
f 343/343/342 349/349/348 346/346/345
f 184/184/183 188/188/187 349/349/348
f 349/349/348 188/188/187 346/346/345
f 188/188/187 190/190/189 346/346/345
f 342/342/341 344/344/343 350/350/349
f 344/344/343 351/351/350 350/350/349
f 352/352/351 351/351/350 344/344/343
f 345/345/344 352/352/351 344/344/343
f 342/342/341 350/350/349 353/353/352
f 338/338/337 342/342/341 353/353/352
f 338/338/337 353/353/352 337/339/338
f 353/353/352 354/354/353 337/339/338
f 357/355/354 356/356/355 355/357/356
f 358/358/357 357/355/354 355/357/356
f 357/355/354 359/359/358 356/356/355
f 359/359/358 360/360/359 356/356/355
f 359/359/358 361/361/360 360/360/359
f 361/361/360 362/362/361 360/360/359
f 362/362/361 361/361/360 363/363/362
f 361/361/360 364/364/363 363/363/362
f 358/358/357 365/365/364 357/355/354
f 357/355/354 365/365/364 359/359/358
f 358/358/357 159/159/158 365/365/364
f 159/159/158 158/158/157 365/365/364
f 365/365/364 158/158/157 366/366/365
f 359/359/358 366/366/365 361/361/360
f 365/365/364 366/366/365 359/359/358
f 158/158/157 172/172/171 366/366/365
f 172/172/171 158/158/157 156/156/155
f 167/167/166 172/172/171 156/156/155
f 366/366/365 172/172/171 367/367/366
f 366/366/365 367/367/366 361/361/360
f 361/361/360 367/367/366 364/364/363
f 172/172/171 168/168/167 367/367/366
f 367/367/366 168/168/167 364/364/363
f 168/168/167 171/171/170 364/364/363
f 362/362/361 368/368/367 360/360/359
f 362/362/361 363/363/362 368/368/367
f 368/368/367 369/369/368 360/360/359
f 363/363/362 370/370/369 368/368/367
f 153/153/152 167/167/166 154/154/153
f 369/369/368 371/371/370 356/356/355
f 356/356/355 371/371/370 355/357/356
f 371/371/370 372/372/371 355/357/356
f 360/360/359 369/369/368 356/356/355
f 375/373/372 374/374/373 373/375/374
f 376/376/375 375/373/372 373/375/374
f 373/375/374 374/374/373 377/377/376
f 374/374/373 378/378/377 377/377/376
f 379/379/378 375/373/372 376/376/375
f 380/380/379 379/379/378 376/376/375
f 376/376/375 373/375/374 381/381/380
f 380/380/379 376/376/375 381/381/380
f 377/377/376 378/378/377 382/382/381
f 383/383/382 377/377/376 382/382/381
f 373/375/374 377/377/376 383/383/382
f 381/381/380 373/375/374 383/383/382
f 386/384/383 385/385/384 384/386/385
f 387/387/386 386/384/383 384/386/385
f 384/386/385 385/385/384 388/388/387
f 385/385/384 389/389/388 388/388/387
f 388/388/387 389/389/388 390/390/389
f 391/391/390 388/388/387 390/390/389
f 384/386/385 388/388/387 391/391/390
f 386/384/383 387/387/386 392/392/391
f 393/393/392 386/384/383 392/392/391
f 387/387/386 384/386/385 394/394/393
f 392/392/391 387/387/386 394/394/393
f 394/394/393 384/386/385 391/391/390
f 397/395/394 396/396/395 395/397/396
f 398/398/397 397/395/394 395/397/396
f 395/397/396 396/396/395 399/399/398
f 396/396/395 400/400/399 399/399/398
f 399/399/398 400/400/399 401/401/400
f 402/402/401 399/399/398 401/401/400
f 395/397/396 399/399/398 402/402/401
f 397/395/394 398/398/397 403/403/402
f 404/404/403 397/395/394 403/403/402
f 398/398/397 395/397/396 405/405/404
f 403/403/402 398/398/397 405/405/404
f 405/405/404 395/397/396 402/402/401
f 230/230/229 226/226/225 243/243/242
f 160/160/159 148/148/147 136/136/135
f 196/196/195 186/186/185 174/174/173
f 196/196/195 174/174/173 173/173/172
f 198/198/197 196/196/195 173/173/172
f 139/139/138 198/198/197 173/173/172
f 137/137/136 139/139/138 173/173/172
f 408/406/405 407/407/406 406/408/407
f 409/409/408 408/406/405 406/408/407
f 407/407/406 408/406/405 410/410/409
f 411/411/410 407/407/406 410/410/409
f 411/411/410 410/410/409 412/412/411
f 413/413/412 411/411/410 412/412/411
f 413/413/412 412/412/411 414/414/413
f 415/415/414 413/413/412 414/414/413
f 418/416/415 417/417/416 416/418/417
f 419/419/418 418/416/415 416/418/417
f 418/416/415 420/420/419 417/417/416
f 420/420/419 421/421/420 417/417/416
f 424/422/421 423/423/422 422/424/423
f 425/425/424 424/422/421 422/424/423
f 424/422/421 426/426/425 423/423/422
f 426/426/425 427/427/426 423/423/422
f 430/428/427 429/429/428 428/430/429
f 431/431/430 430/428/427 428/430/429
f 430/428/427 432/432/431 429/429/428
f 432/432/431 433/433/432 429/429/428
f 433/433/432 432/432/431 434/434/433
f 435/435/434 433/433/432 434/434/433
f 435/435/434 434/434/433 436/436/435
f 437/437/436 435/435/434 436/436/435
f 440/438/437 439/439/438 438/440/439
f 441/441/440 440/438/437 438/440/439
f 440/438/437 442/442/441 439/439/438
f 442/442/441 443/443/442 439/439/438
f 446/444/443 445/445/444 444/446/445
f 447/447/446 446/444/443 444/446/445
f 446/444/443 448/448/447 445/445/444
f 448/448/447 449/449/448 445/445/444
f 449/449/448 448/448/447 450/450/449
f 451/451/450 449/449/448 450/450/449
f 451/451/450 450/450/449 452/452/451
f 453/453/452 451/451/450 452/452/451
f 456/454/453 455/455/454 454/456/455
f 457/457/456 456/454/453 454/456/455
f 458/458/457 456/454/453 457/457/456
f 459/459/458 458/458/457 457/457/456
f 462/460/459 461/461/460 460/462/461
f 463/463/462 462/460/459 460/462/461
f 460/462/461 461/461/460 464/464/463
f 461/461/460 465/465/464 464/464/463
f 468/466/465 467/467/466 466/468/467
f 469/469/468 468/466/465 466/468/467
f 466/468/467 467/467/466 470/470/469
f 467/467/466 471/471/470 470/470/469
f 474/472/471 473/473/472 472/474/473
f 475/475/474 474/472/471 472/474/473
f 472/474/473 476/476/475 475/475/474
f 476/476/475 477/477/476 475/475/474
f 480/478/477 479/479/478 478/480/479
f 481/481/480 480/478/477 478/480/479
f 479/479/478 480/478/477 482/482/481
f 483/483/482 479/479/478 482/482/481
f 483/483/482 482/482/481 484/484/483
f 485/485/484 483/483/482 484/484/483
f 485/485/484 484/484/483 486/486/485
f 487/487/486 485/485/484 486/486/485
f 487/487/486 486/486/485 488/488/487
f 489/489/488 487/487/486 488/488/487
f 489/489/488 488/488/487 490/490/489
f 491/491/490 489/489/488 490/490/489
f 494/492/491 493/493/492 492/494/493
f 495/495/494 494/492/491 492/494/493
f 496/496/495 494/492/491 495/495/494
f 497/497/496 496/496/495 495/495/494
