# Blender 4.4.0
# www.blender.org
mtllib PanicoPIzq.mtl
o pierna_izquierda
v 0.256598 -0.186067 0.045214
v 0.226975 -0.374139 0.061256
v 0.165505 -0.392070 0.221574
v 0.177806 -0.218292 0.220034
v 0.179772 -0.207449 -0.123041
v 0.165092 -0.385240 -0.091943
v 0.053433 -0.415821 0.298906
v 0.042265 -0.260842 0.300743
v -0.049609 -0.438676 0.215072
v -0.074750 -0.302261 0.216200
v -0.103974 -0.445693 0.066172
v -0.135911 -0.314325 0.058388
v 0.036258 -0.255204 -0.218530
v 0.048943 -0.411132 -0.176649
v -0.093453 -0.311216 -0.080756
v -0.061935 -0.442256 -0.064942
v -0.103974 -0.445693 0.066172
v -0.135911 -0.314325 0.058388
v 0.149050 -0.550163 -0.077976
v 0.049943 -0.562525 -0.155569
v 0.201044 -0.544840 0.069169
v 0.149826 -0.554033 0.221464
v -0.082366 -0.580209 0.069974
v 0.052891 -0.565779 0.295871
v -0.035756 -0.576876 0.213889
v -0.045950 -0.578303 -0.059226
v -0.082366 -0.580209 0.069974
v 0.131992 -0.715861 -0.074248
v 0.045996 -0.715861 -0.146170
v 0.132667 -0.715861 0.219631
v 0.175866 -0.715861 0.070918
v -0.066812 -0.715861 0.070172
v -0.029524 -0.715861 0.212229
v 0.047737 -0.715861 0.292518
v -0.037465 -0.715861 -0.059320
v -0.066812 -0.715861 0.070172
v 0.121891 -0.817887 -0.074670
v 0.044569 -0.817887 -0.142020
v 0.112245 -0.948816 -0.079914
v 0.042685 -0.948816 -0.134182
v 0.147949 -0.948816 0.034867
v 0.161165 -0.817887 0.069069
v 0.112523 -0.948816 0.155212
v 0.122763 -0.817887 0.217437
v 0.044044 -0.948816 0.214200
v 0.046110 -0.817887 0.290696
v -0.020187 -0.948816 0.149224
v -0.027017 -0.817887 0.210396
v -0.045423 -0.948816 0.040408
v -0.055624 -0.817887 0.068322
v -0.029659 -0.817887 -0.059761
v -0.022517 -0.948816 -0.067621
v -0.055624 -0.817887 0.068322
v -0.045423 -0.948816 0.040408
v 0.102598 -1.079744 -0.085157
v -0.015376 -1.079744 -0.075480
v 0.040801 -1.079744 -0.126344
v -0.035222 -1.079744 0.012493
v -0.035222 -1.079744 0.012493
v -0.013357 -1.079744 0.088052
v 0.041979 -1.079744 0.137704
v 0.102282 -1.079744 0.092987
v 0.134734 -1.079744 0.000664
v 0.091165 -1.277139 -0.113713
v 0.032833 -1.277518 -0.148579
v 0.025853 -1.497767 -0.181015
v 0.088425 -1.497593 -0.154142
v 0.121577 -1.277338 -0.040732
v 0.121830 -1.498430 -0.088625
v -0.032716 -1.496854 -0.147068
v -0.020230 -1.277354 -0.105379
v 0.090688 -1.278469 0.037509
v 0.098023 -1.498184 -0.017027
v 0.033812 -1.280785 0.074529
v 0.028482 -1.497040 0.013815
v -0.050682 -1.498280 -0.082408
v -0.038972 -1.277024 -0.031575
v -0.018340 -1.278040 0.033264
v -0.034727 -1.498813 -0.019985
v -0.038972 -1.277024 -0.031575
v -0.050682 -1.498280 -0.082408
v -0.068232 -1.699926 -0.130027
v -0.059496 -1.700335 -0.061577
v -0.071705 -1.783310 -0.069308
v -0.077051 -1.782350 -0.150314
v 0.025135 -1.782036 -0.031821
v 0.026665 -1.699930 -0.036469
v 0.133949 -1.783139 -0.071235
v 0.123223 -1.700539 -0.061030
v 0.142436 -1.782059 -0.155570
v 0.135726 -1.699880 -0.133699
v 0.099043 -1.782641 -0.221204
v 0.095223 -1.700113 -0.199213
v 0.019772 -1.782779 -0.237962
v 0.021187 -1.700226 -0.217927
v -0.057792 -1.782602 -0.215899
v -0.050946 -1.700060 -0.193636
v -0.077051 -1.782350 -0.150314
v -0.068232 -1.699926 -0.130027
v -0.112703 -0.204734 0.217124
v -0.201379 -0.115483 0.201014
v -0.085599 0.004878 0.314038
v 0.020691 -0.120956 0.302010
v 0.183585 0.123507 0.200148
v 0.187211 -0.044476 0.217958
v -0.164673 -0.236544 0.051929
v -0.244161 -0.181805 0.045462
v 0.298563 0.223730 0.006445
v 0.289501 0.019974 0.024791
v 0.191866 0.128359 -0.171901
v 0.193182 -0.025536 -0.162716
v -0.089045 -0.007903 -0.317412
v -0.001837 -0.124978 -0.265584
v -0.123358 -0.230325 -0.096762
v -0.204644 -0.137443 -0.119226
v -0.164673 -0.236544 0.051929
v -0.244161 -0.181805 0.045462
v 0.148180 -1.950563 0.189649
v 0.160781 -1.950238 0.317830
v 0.024993 -1.899766 0.322838
v 0.022638 -1.900090 0.197535
v -0.125999 -1.937459 0.322838
v -0.109804 -1.937784 0.197534
v 0.185284 -1.994983 0.315467
v 0.175622 -1.995788 0.184407
v -0.143921 -1.987719 0.193318
v -0.159481 -1.986877 0.318631
v 0.053139 -1.719930 0.545051
v 0.181938 -1.788332 0.527202
v -0.141157 -1.776382 0.531748
v -0.001768 -1.718580 0.545589
v 0.217501 -1.931455 0.467633
v -0.188972 -1.923221 0.470599
v 0.135580 -1.923978 0.061469
v 0.167916 -1.981701 0.053112
v 0.020283 -1.873506 0.072231
v -0.093608 -1.911199 0.072231
v -0.175000 -2.040154 0.314340
v -0.159968 -2.039954 0.189053
v -0.130341 -1.973528 0.068005
v -0.146787 -2.040519 0.063409
v -0.134932 -2.040691 -0.117996
v -0.117518 -1.959470 -0.101905
v -0.107914 -1.959039 -0.198952
v -0.123876 -2.040630 -0.221183
v -0.071758 -2.040218 -0.321670
v -0.068177 -1.959134 -0.286100
v 0.021264 -2.038977 -0.355913
v 0.020259 -1.958888 -0.314961
v -0.085225 -1.835537 -0.164649
v -0.061187 -1.832068 -0.233486
v 0.019543 -1.831047 -0.255782
v -0.086442 -1.851445 -0.053641
v 0.023381 -1.824209 0.000954
v 0.144531 -1.856229 -0.060947
v 0.171728 -1.960092 -0.108959
v 0.184917 -2.041436 -0.127457
v 0.182074 -2.040675 0.046155
v 0.187406 -2.040420 0.180250
v 0.194644 -2.040874 0.313684
v 0.221829 -2.041277 0.417908
v 0.164729 -1.959190 -0.228950
v 0.176237 -2.040900 -0.266936
v 0.114418 -1.958926 -0.292721
v 0.122684 -2.039470 -0.329163
v 0.020259 -1.958888 -0.314961
v 0.021264 -2.038977 -0.355913
v 0.019543 -1.831047 -0.255782
v 0.102632 -1.831738 -0.238840
v 0.148199 -1.833721 -0.174490
v 0.099043 -1.782641 -0.221204
v 0.019772 -1.782779 -0.237962
v 0.133949 -1.783139 -0.071235
v 0.142436 -1.782059 -0.155570
v 0.025135 -1.782036 -0.031821
v -0.071705 -1.783310 -0.069308
v -0.077051 -1.782350 -0.150314
v -0.057792 -1.782602 -0.215899
v 0.019772 -1.782779 -0.237962
v -0.022300 -1.741446 0.727053
v -0.009281 -1.693468 0.632360
v 0.027355 -1.821765 0.629895
v 0.024542 -1.886164 0.700290
v -0.159125 -1.750473 0.628975
v -0.153523 -1.788408 0.726307
v -0.213543 -1.904563 0.721589
v -0.231119 -1.892180 0.606515
v 0.006883 -1.880999 0.749189
v 0.024019 -1.960080 0.726025
v 0.060256 -1.744708 0.727262
v 0.036785 -1.881827 0.750563
v 0.054162 -1.696313 0.632091
v 0.203154 -1.764237 0.627040
v 0.196608 -1.800698 0.725999
v 0.245838 -1.912514 0.721156
v 0.263914 -1.901284 0.604913
v 0.244979 -1.918179 0.489053
v 0.196613 -1.763671 0.551381
v 0.055543 -1.688376 0.571195
v 0.028248 -1.801927 0.571611
v -0.004861 -1.685584 0.572047
v -0.153556 -1.750891 0.555770
v -0.213218 -1.909737 0.491796
v 0.188542 -1.890492 0.847550
v 0.213180 -1.962105 0.848614
v 0.084348 -1.868338 0.856090
v 0.116614 -2.007195 0.983414
v 0.066171 -1.941642 0.861660
v 0.163189 -2.009917 0.967461
v 0.163961 -2.040153 0.983124
v 0.115233 -2.040187 1.000726
v -0.242139 -2.042080 0.587685
v -0.222874 -2.042191 0.714440
v -0.220960 -2.041343 0.435120
v 0.062255 -2.042498 0.856189
v 0.213329 -2.042560 0.851552
v 0.240679 -2.043047 0.719188
v 0.259434 -2.043029 0.587525
v 0.239647 -2.042225 0.435328
v -0.187408 -2.041570 0.852553
v -0.177564 -1.959747 0.850299
v -0.146727 -1.888407 0.848002
v -0.041421 -1.868020 0.856210
v -0.125599 -2.011302 0.966928
v -0.022349 -1.941741 0.861358
v -0.070718 -2.007712 0.983182
v -0.128533 -2.039638 0.982316
v -0.074049 -2.040101 1.000482
v 0.012358 -2.043226 0.729889
v -0.016557 -2.042304 0.856229
v 0.020604 -2.043211 0.729396
v 0.033874 -2.043186 0.728602
v -0.141157 -1.776382 0.531748
v -0.153556 -1.750891 0.555770
v -0.213218 -1.909737 0.491796
v -0.188972 -1.923221 0.470599
v -0.004861 -1.685584 0.572047
v -0.001768 -1.718580 0.545589
v 0.028248 -1.801927 0.571611
v 0.025313 -1.834184 0.545314
v 0.055543 -1.688376 0.571195
v 0.053139 -1.719930 0.545051
v 0.181938 -1.788332 0.527202
v 0.196613 -1.763671 0.551381
v 0.244979 -1.918179 0.489053
v 0.217501 -1.931455 0.467633
v -0.203323 -2.040602 0.417669
v -0.220960 -2.041343 0.435120
v 0.221829 -2.041277 0.417908
v 0.239647 -2.042225 0.435328
v 0.025313 -1.834184 0.545314
v 0.111900 -2.069127 -0.318360
v 0.158765 -2.069127 -0.263655
v 0.176237 -2.040900 -0.266936
v 0.122684 -2.039470 -0.329163
v 0.022862 -2.069127 -0.341392
v 0.021264 -2.038977 -0.355913
v -0.055800 -2.069127 -0.311875
v -0.071758 -2.040218 -0.321670
v 0.184917 -2.041436 -0.127457
v 0.167428 -2.069127 -0.131115
v 0.182074 -2.040675 0.046155
v 0.165701 -2.069127 0.044132
v -0.107142 -2.069127 -0.220434
v -0.123876 -2.040630 -0.221183
v -0.118586 -2.069127 -0.116561
v -0.134932 -2.040691 -0.117996
v 0.187406 -2.040420 0.180250
v 0.171271 -2.069127 0.178851
v -0.130555 -2.069127 0.063955
v -0.146787 -2.040519 0.063409
v 0.194644 -2.040874 0.313684
v 0.178093 -2.069127 0.315884
v -0.144160 -2.069127 0.186753
v -0.159968 -2.039954 0.189053
v -0.159405 -2.069127 0.316695
v -0.175000 -2.040154 0.314340
v 0.221829 -2.041277 0.417908
v 0.203551 -2.069127 0.418907
v 0.239647 -2.042225 0.435328
v 0.220978 -2.069127 0.439821
v -0.184408 -2.069127 0.419824
v -0.203323 -2.040602 0.417669
v -0.202629 -2.069127 0.435535
v -0.220960 -2.041343 0.435120
v 0.259434 -2.043029 0.587525
v 0.240160 -2.069127 0.585152
v 0.240679 -2.043047 0.719188
v 0.221976 -2.069127 0.715850
v -0.224140 -2.069127 0.585120
v -0.242139 -2.042080 0.587685
v -0.205368 -2.069127 0.709722
v -0.222874 -2.042191 0.714440
v 0.213329 -2.042560 0.851552
v 0.195276 -2.069127 0.847339
v 0.163961 -2.040153 0.983124
v 0.148989 -2.069127 0.973208
v -0.170877 -2.069127 0.846855
v -0.187408 -2.041570 0.852553
v -0.115150 -2.069127 0.971927
v -0.128533 -2.039638 0.982316
v 0.115233 -2.040187 1.000726
v 0.126874 -2.069127 0.981182
v 0.062255 -2.042498 0.856189
v 0.079707 -2.069127 0.850221
v 0.033874 -2.043186 0.728602
v 0.049521 -2.069127 0.709692
v 0.020604 -2.043211 0.729396
v 0.020605 -2.069127 0.709952
v -0.085497 -2.069127 0.981877
v -0.074049 -2.040101 1.000482
v -0.033789 -2.069127 0.849864
v -0.016557 -2.042304 0.856229
v -0.001137 -2.069127 0.710147
v 0.012358 -2.043226 0.729889
v 0.007654 -2.069127 0.585281
v 0.008348 -2.069127 0.426811
v 0.008384 -2.069127 0.408604
v 0.008827 -2.069127 0.312765
v 0.013198 -2.069127 0.182811
v 0.017568 -2.069127 0.052856
v 0.024200 -2.069127 -0.125050
v 0.025597 -2.069127 -0.251604
v -0.203323 -2.040602 0.417669
vn 0.8101 -0.0670 0.5824
vn 0.9912 -0.1320 0.0030
vn 0.9909 -0.1343 0.0060
vn 0.7759 -0.0445 0.6293
vn 0.7794 -0.1779 -0.6007
vn 0.8073 -0.1565 -0.5690
vn 0.0230 -0.0508 0.9984
vn 0.0644 -0.0505 0.9966
vn -0.8106 -0.1140 0.5744
vn -0.7525 -0.1796 0.6336
vn -0.9815 -0.1835 0.0555
vn -0.9558 -0.2855 0.0700
vn 0.0973 -0.3045 -0.9475
vn -0.0161 -0.2223 -0.9748
vn -0.7652 -0.3162 -0.5608
vn -0.8178 -0.1929 -0.5423
vn -0.9815 -0.1835 0.0547
vn -0.9559 -0.2855 0.0691
vn 0.8331 -0.1216 -0.5396
vn -0.0436 -0.1153 -0.9924
vn 0.9916 -0.1297 -0.0012
vn 0.8402 -0.0908 0.5346
vn -0.9930 -0.1105 0.0415
vn 0.0009 -0.0516 0.9987
vn -0.8500 -0.0685 0.5223
vn -0.8538 -0.0949 -0.5118
vn -0.9930 -0.1105 0.0408
vn 0.8513 -0.1008 -0.5148
vn -0.0686 -0.0673 -0.9954
vn 0.8594 -0.0978 0.5018
vn 0.9921 -0.1256 -0.0019
vn -0.9962 -0.0824 0.0296
vn -0.8806 -0.0495 0.4712
vn -0.0286 -0.0489 0.9984
vn -0.8782 -0.0631 -0.4741
vn -0.9962 -0.0824 0.0289
vn 0.8645 -0.0640 -0.4985
vn -0.0927 -0.0459 -0.9946
vn 0.8476 -0.0387 -0.5292
vn -0.0918 -0.0326 -0.9952
vn 0.9928 -0.1196 -0.0033
vn 0.9919 -0.1254 0.0196
vn 0.8319 -0.2881 0.4743
vn 0.8411 -0.2070 0.4998
vn -0.0412 -0.4868 0.8725
vn -0.0395 -0.2760 0.9603
vn -0.8651 -0.2477 0.4361
vn -0.8728 -0.1641 0.4596
vn -0.9959 -0.0901 0.0093
vn -0.9957 -0.0885 0.0284
vn -0.8975 -0.0456 -0.4386
vn -0.8920 -0.0273 -0.4511
vn -0.9957 -0.0884 0.0275
vn -0.9959 -0.0899 0.0083
vn 0.8131 0.0066 -0.5821
vn -0.8770 0.0411 -0.4788
vn -0.0784 0.0607 -0.9951
vn -0.9991 -0.0378 0.0182
vn -0.9991 -0.0380 0.0189
vn -0.8418 -0.1890 0.5057
vn -0.0349 -0.3934 0.9187
vn 0.8084 -0.2457 0.5349
vn 0.9953 -0.0971 0.0045
vn 0.7605 0.0790 -0.6445
vn -0.0726 0.1520 -0.9857
vn -0.0563 0.1941 -0.9794
vn 0.6829 0.1478 -0.7154
vn 0.9993 -0.0352 -0.0123
vn 0.9949 0.0548 -0.0848
vn -0.7789 0.1679 -0.6042
vn -0.8407 0.1190 -0.5282
vn 0.7763 -0.1811 0.6038
vn 0.7234 -0.1323 0.6776
vn -0.0379 -0.2633 0.9640
vn -0.0231 -0.2208 0.9750
vn -0.9964 0.0811 -0.0237
vn -0.9994 0.0328 0.0073
vn -0.8124 -0.1194 0.5708
vn -0.7605 -0.0977 0.6420
vn -0.9994 0.0327 0.0081
vn -0.9965 0.0809 -0.0228
vn -0.9908 0.1185 -0.0658
vn -0.7538 -0.0269 0.6566
vn -0.7878 0.2184 0.5759
vn -0.9826 0.1637 -0.0882
vn 0.0176 0.2059 0.9784
vn -0.0066 -0.1400 0.9901
vn 0.7651 0.1621 0.6232
vn 0.7199 -0.0517 0.6921
vn 0.9664 0.1658 -0.1965
vn 0.9772 0.1193 -0.1754
vn 0.5402 0.2750 -0.7953
vn 0.6019 0.2004 -0.7730
vn -0.0348 0.2945 -0.9550
vn -0.0441 0.2269 -0.9729
vn -0.6563 0.2659 -0.7061
vn -0.7065 0.2090 -0.6761
vn -0.9825 0.1639 -0.0890
vn -0.9907 0.1186 -0.0665
vn 0.2707 -0.4341 0.8592
vn -0.2125 -0.7436 0.6340
vn -0.5921 -0.3734 0.7141
vn 0.1279 -0.0290 0.9914
vn 0.7168 -0.1306 0.6849
vn 0.6912 0.0415 0.7215
vn -0.7954 -0.6007 0.0814
vn -0.3784 -0.9235 0.0624
vn 0.9950 -0.0984 0.0161
vn 0.9978 -0.0623 0.0207
vn 0.7349 -0.2074 -0.6457
vn 0.7250 -0.1066 -0.6804
vn 0.2138 -0.5042 -0.8367
vn 0.1404 -0.3250 -0.9352
vn -0.6118 -0.5517 -0.5668
vn -0.2813 -0.8074 -0.5186
vn -0.7954 -0.6007 0.0806
vn -0.3785 -0.9235 0.0623
vn 0.0365 0.8776 -0.4780
vn 0.5443 0.7298 -0.4137
vn 0.5559 0.8304 0.0375
vn 0.0561 0.9953 0.0783
vn -0.4773 0.7652 -0.4320
vn -0.4858 0.8736 0.0291
vn 0.9165 0.3218 -0.2375
vn 0.9254 0.3770 -0.0385
vn -0.9035 0.4209 -0.0808
vn -0.8820 0.3929 -0.2602
vn -0.0371 0.7574 -0.6519
vn 0.3545 0.6798 -0.6420
vn -0.3080 0.7008 -0.6434
vn 0.0636 0.7547 -0.6530
vn 0.8046 0.3719 -0.4630
vn -0.7742 0.4323 -0.4623
vn 0.6755 0.6977 0.2387
vn 0.9532 0.2979 0.0515
vn 0.0559 0.9372 0.3444
vn -0.6416 0.7459 0.1788
vn -0.9774 0.0381 -0.2079
vn -0.9942 0.0082 -0.1077
vn -0.9390 0.3429 -0.0274
vn -0.9972 0.0100 -0.0747
vn -0.9968 0.0060 -0.0795
vn -0.9641 0.2632 -0.0361
vn -0.9439 0.2393 -0.2273
vn -0.9547 0.0319 -0.2960
vn -0.6450 0.1408 -0.7511
vn -0.6213 0.3539 -0.6991
vn -0.0346 0.2275 -0.9732
vn -0.0340 0.4231 -0.9054
vn -0.9619 0.2258 -0.1540
vn -0.6478 0.3341 -0.6847
vn -0.0342 0.3958 -0.9177
vn -0.8371 0.4930 0.2372
vn 0.0522 0.7594 0.6486
vn 0.8555 0.4160 0.3083
vn 0.9778 0.2078 0.0281
vn 0.9989 -0.0428 -0.0175
vn 0.9993 -0.0380 0.0028
vn 0.9972 -0.0569 -0.0476
vn 0.9838 -0.0474 -0.1730
vn 0.9253 0.0471 -0.3764
vn 0.9258 0.2577 -0.2765
vn 0.9398 0.0503 -0.3380
vn 0.4679 0.4036 -0.7862
vn 0.4792 0.2129 -0.8515
vn -0.0332 0.4231 -0.9055
vn -0.0340 0.2275 -0.9732
vn -0.0334 0.3958 -0.9177
vn 0.5025 0.3745 -0.7792
vn 0.9488 0.2345 -0.2114
vn -0.0344 0.2946 -0.9550
vn 0.7650 0.1622 0.6232
vn 0.0177 0.2068 0.9782
vn -0.7877 0.2192 0.5757
vn -0.9825 0.1639 -0.0886
vn -0.6564 0.2659 -0.7060
vn -0.0353 0.2946 -0.9550
vn 0.0160 0.7989 0.6013
vn 0.2804 0.9135 0.2949
vn 0.2531 0.7856 0.5646
vn 0.0105 0.6441 0.7649
vn -0.6854 0.7151 0.1376
vn -0.5694 0.6831 0.4573
vn -0.9346 0.2494 0.2538
vn -0.9657 0.2595 0.0106
vn 0.9321 0.1634 0.3232
vn 0.0026 0.0822 0.9966
vn -0.2318 0.8098 0.5389
vn -0.9443 0.1387 0.2983
vn -0.2218 0.9367 0.2708
vn 0.7167 0.6830 0.1409
vn 0.6000 0.6696 0.4377
vn 0.9595 0.1713 0.2236
vn 0.9832 0.1823 0.0071
vn 0.9389 0.1903 -0.2868
vn 0.7157 0.6454 -0.2668
vn -0.1130 0.9756 -0.1881
vn 0.0070 0.9866 -0.1630
vn 0.2012 0.9587 -0.2008
vn -0.6803 0.6794 -0.2749
vn -0.9220 0.2664 -0.2811
vn 0.5295 0.6184 0.5807
vn 0.9381 0.1403 0.3168
vn -0.2304 0.6805 0.6956
vn -0.4645 0.4879 0.7391
vn -0.9401 0.0961 0.3271
vn 0.5705 0.4883 0.6604
vn 0.8390 -0.1346 0.5273
vn -0.8262 -0.1130 0.5520
vn -0.9991 -0.0396 -0.0132
vn -0.9765 -0.0640 0.2058
vn -0.9591 -0.0013 -0.2831
vn -0.9502 -0.1318 0.2825
vn 0.9478 -0.1623 0.2744
vn 0.9717 -0.1580 0.1755
vn 0.9904 -0.1377 -0.0102
vn 0.9542 -0.0813 -0.2879
vn -0.9416 -0.0764 0.3279
vn -0.9043 0.2212 0.3651
vn -0.4959 0.6217 0.6063
vn 0.2525 0.6669 0.7010
vn -0.5242 0.5194 0.6749
vn 0.9381 0.1085 0.3290
vn 0.4569 0.4840 0.7463
vn -0.8074 -0.0649 0.5865
vn 0.7950 -0.1186 0.5949
vn 0.9382 -0.1542 0.3099
vn 0.9487 -0.1235 0.2911
vn 0.0338 -0.2155 0.9759
vn -0.9333 -0.1805 0.3106
vn -0.9220 0.2665 -0.2811
vn -0.6803 0.6794 -0.2750
vn -0.3078 0.7005 -0.6439
vn -0.7740 0.4324 -0.4626
vn 0.2011 0.9588 -0.2005
vn 0.0632 0.7546 -0.6531
vn 0.0071 0.9866 -0.1629
vn 0.0354 0.9405 -0.3380
vn -0.1125 0.9757 -0.1881
vn -0.0366 0.7573 -0.6521
vn 0.3542 0.6795 -0.6425
vn 0.7156 0.6455 -0.2668
vn 0.9389 0.1902 -0.2868
vn 0.8043 0.3720 -0.4633
vn -0.9149 0.1269 -0.3833
vn -0.9590 -0.0016 -0.2834
vn 0.9252 0.0469 -0.3766
vn 0.9541 -0.0815 -0.2882
vn 0.0355 0.9406 -0.3378
vn 0.9399 0.0499 -0.3379
vn 0.2199 -0.9728 -0.0731
vn 0.1577 -0.9434 -0.2918
vn 0.4791 0.2128 -0.8516
vn -0.0106 -0.9413 -0.3375
vn -0.0342 0.2277 -0.9731
vn -0.2154 -0.9433 -0.2525
vn 0.9989 -0.0432 -0.0175
vn 0.1796 -0.9837 -0.0042
vn 0.9993 -0.0384 0.0029
vn 0.1657 -0.9862 -0.0014
vn -0.2136 -0.9743 -0.0714
vn -0.9547 0.0314 -0.2960
vn -0.1722 -0.9850 -0.0140
vn -0.9968 0.0057 -0.0795
vn 0.9972 -0.0573 -0.0476
vn 0.1630 -0.9866 -0.0075
vn -0.1719 -0.9850 -0.0141
vn -0.9972 0.0096 -0.0747
vn 0.9838 -0.0478 -0.1730
vn 0.1418 -0.9897 -0.0198
vn -0.1616 -0.9867 -0.0181
vn -0.9942 0.0079 -0.1077
vn -0.1484 -0.9886 -0.0269
vn -0.9774 0.0377 -0.2079
vn 0.1532 -0.9869 -0.0514
vn 0.1079 -0.9938 -0.0256
vn -0.1554 -0.9864 -0.0537
vn -0.9149 0.1273 -0.3832
vn -0.1066 -0.9939 -0.0284
vn 0.9904 -0.1381 -0.0102
vn 0.1284 -0.9917 -0.0014
vn 0.9717 -0.1584 0.1755
vn 0.1383 -0.9901 0.0240
vn -0.1301 -0.9915 -0.0022
vn -0.9991 -0.0400 -0.0132
vn -0.1321 -0.9909 0.0270
vn -0.9765 -0.0643 0.2058
vn 0.9478 -0.1627 0.2743
vn 0.2067 -0.9765 0.0609
vn 0.8389 -0.1347 0.5274
vn 0.2546 -0.9538 0.1598
vn -0.1847 -0.9806 0.0653
vn -0.9416 -0.0768 0.3278
vn -0.2218 -0.9613 0.1631
vn -0.8262 -0.1124 0.5521
vn -0.3088 -0.9243 0.2244
vn -0.9502 -0.1322 0.2824
vn -0.2138 -0.9748 0.0633
vn -0.9333 -0.1802 0.3106
vn -0.0479 -0.9987 0.0183
vn 0.0338 -0.2164 0.9757
vn 0.0032 -0.9912 0.1326
vn 0.2612 -0.9403 0.2184
vn 0.7951 -0.1179 0.5949
vn 0.1837 -0.9812 0.0587
vn 0.9486 -0.1238 0.2911
vn 0.0459 -0.9988 0.0166
vn 0.9383 -0.1541 0.3095
vn -0.0000 -1.0000 -0.0000
vn -0.9150 0.1272 -0.3830
vt 0.822110 0.718780
vt 0.825054 0.705487
vt 0.839658 0.706244
vt 0.835070 0.720707
vt 0.838750 0.691588
vt 0.824497 0.692243
vt 0.818443 0.729013
vt 0.829799 0.732396
vt 0.814172 0.738731
vt 0.824169 0.742912
vt 0.809228 0.750042
vt 0.818195 0.754864
vt 0.835064 0.677900
vt 0.821985 0.680763
vt 0.825850 0.665244
vt 0.815878 0.669433
vt 0.811548 0.659499
vt 0.820448 0.655244
vt 0.811219 0.692590
vt 0.809379 0.682860
vt 0.811822 0.704808
vt 0.810104 0.717157
vt 0.799596 0.745957
vt 0.807580 0.726355
vt 0.804152 0.735192
vt 0.805471 0.672852
vt 0.802044 0.662836
vt 0.797697 0.693064
vt 0.796743 0.684691
vt 0.798184 0.715799
vt 0.798398 0.704367
vt 0.789513 0.741933
vt 0.794248 0.731761
vt 0.797034 0.723960
vt 0.794793 0.675704
vt 0.792203 0.665813
vt 0.789247 0.693592
vt 0.788403 0.686007
vt 0.778434 0.694406
vt 0.777775 0.687731
vt 0.779354 0.703445
vt 0.790165 0.704462
vt 0.780182 0.712834
vt 0.790666 0.715334
vt 0.780248 0.719724
vt 0.790352 0.722408
vt 0.776934 0.725720
vt 0.787172 0.728738
vt 0.772409 0.732684
vt 0.781962 0.737821
vt 0.786873 0.677773
vt 0.776760 0.680687
vt 0.784688 0.667931
vt 0.775429 0.672233
vt 0.767702 0.695255
vt 0.766633 0.683208
vt 0.767087 0.689282
vt 0.766241 0.676114
vt 0.763766 0.727799
vt 0.766672 0.722394
vt 0.769152 0.716856
vt 0.769292 0.710580
vt 0.768586 0.702603
vt 0.751584 0.695643
vt 0.751042 0.690309
vt 0.733563 0.689661
vt 0.733701 0.695036
vt 0.752431 0.701879
vt 0.734284 0.700839
vt 0.734232 0.684411
vt 0.751293 0.684957
vt 0.753098 0.708579
vt 0.735116 0.706759
vt 0.752978 0.714004
vt 0.735480 0.712743
vt 0.735359 0.679335
vt 0.751931 0.679081
vt 0.751559 0.719063
vt 0.734349 0.718263
vt 0.749800 0.724061
vt 0.733351 0.723194
vt 0.718072 0.725320
vt 0.718489 0.719926
vt 0.711920 0.720599
vt 0.711678 0.726820
vt 0.712631 0.713042
vt 0.718994 0.712893
vt 0.712089 0.704814
vt 0.718653 0.705200
vt 0.711341 0.698800
vt 0.717957 0.699579
vt 0.710724 0.693101
vt 0.717385 0.693702
vt 0.710952 0.687107
vt 0.717570 0.687847
vt 0.711749 0.681112
vt 0.718332 0.682061
vt 0.713531 0.676218
vt 0.719963 0.677262
vt 0.849278 0.744997
vt 0.837696 0.754781
vt 0.831326 0.747058
vt 0.840203 0.735955
vt 0.861172 0.723966
vt 0.848150 0.722552
vt 0.823301 0.758458
vt 0.828161 0.764143
vt 0.871578 0.708001
vt 0.855778 0.707119
vt 0.865414 0.691260
vt 0.853283 0.690935
vt 0.855862 0.666996
vt 0.845946 0.673961
vt 0.832126 0.662136
vt 0.839890 0.656112
vt 0.825610 0.652038
vt 0.830881 0.647009
vt 0.184773 0.526615
vt 0.199462 0.527935
vt 0.197216 0.538196
vt 0.184773 0.537674
vt 0.170915 0.527391
vt 0.173229 0.537411
vt 0.203854 0.528755
vt 0.201709 0.538404
vt 0.168022 0.537472
vt 0.165748 0.528323
vt 0.190984 0.506630
vt 0.199187 0.511932
vt 0.171128 0.510624
vt 0.178829 0.506877
vt 0.206117 0.518393
vt 0.163800 0.517248
vt 0.196006 0.548919
vt 0.201495 0.548217
vt 0.184773 0.548930
vt 0.174481 0.547938
vt 0.161247 0.529342
vt 0.163463 0.537634
vt 0.168576 0.546786
vt 0.163077 0.545840
vt 0.157908 0.557936
vt 0.164672 0.559383
vt 0.161100 0.566425
vt 0.154262 0.565062
vt 0.150920 0.573412
vt 0.158097 0.573572
vt 0.149911 0.581342
vt 0.157162 0.581047
vt 0.171203 0.568373
vt 0.169080 0.574036
vt 0.168344 0.580818
vt 0.174784 0.559461
vt 0.184773 0.556217
vt 0.195746 0.560549
vt 0.205400 0.560362
vt 0.212136 0.558891
vt 0.206442 0.547438
vt 0.205445 0.538577
vt 0.207659 0.529573
vt 0.211754 0.523903
vt 0.210092 0.568926
vt 0.217458 0.568423
vt 0.212334 0.575113
vt 0.219506 0.574625
vt 0.213059 0.582918
vt 0.220310 0.583040
vt 0.201878 0.582843
vt 0.201282 0.575972
vt 0.199159 0.569807
vt 0.197135 0.576504
vt 0.197783 0.582989
vt 0.191862 0.564967
vt 0.194908 0.570731
vt 0.184773 0.560786
vt 0.178207 0.563944
vt 0.175406 0.569608
vt 0.173240 0.574543
vt 0.172438 0.580999
vt 0.184773 0.495151
vt 0.178229 0.498324
vt 0.176694 0.491725
vt 0.184773 0.484806
vt 0.168642 0.500565
vt 0.166743 0.493644
vt 0.157702 0.494682
vt 0.158737 0.504004
vt 0.181312 0.482520
vt 0.184773 0.476258
vt 0.193318 0.491507
vt 0.189002 0.482451
vt 0.192039 0.498154
vt 0.202058 0.500422
vt 0.203890 0.493369
vt 0.212409 0.494347
vt 0.211383 0.503841
vt 0.208532 0.513151
vt 0.200565 0.505814
vt 0.192135 0.501759
vt 0.184773 0.502596
vt 0.178565 0.501954
vt 0.169855 0.505732
vt 0.161452 0.513184
vt 0.207725 0.484002
vt 0.213715 0.483334
vt 0.199209 0.480567
vt 0.209645 0.469710
vt 0.198304 0.475183
vt 0.212892 0.472385
vt 0.214663 0.470277
vt 0.211215 0.467070
vt 0.148247 0.507461
vt 0.146879 0.495180
vt 0.154594 0.520465
vt 0.197474 0.467344
vt 0.219823 0.481688
vt 0.222672 0.494288
vt 0.221236 0.507224
vt 0.214586 0.520432
vt 0.149809 0.482075
vt 0.156174 0.483462
vt 0.162379 0.484088
vt 0.170944 0.480573
vt 0.156755 0.472543
vt 0.171890 0.475165
vt 0.160650 0.469641
vt 0.155003 0.470586
vt 0.158893 0.467140
vt 0.184343 0.469177
vt 0.172666 0.467351
vt 0.184833 0.469250
vt 0.185635 0.469151
vt 0.171428 0.594438
vt 0.167742 0.597443
vt 0.167614 0.596391
vt 0.170926 0.593327
vt 0.163990 0.598888
vt 0.163703 0.598027
vt 0.161375 0.598507
vt 0.161437 0.597029
vt 0.158246 0.598732
vt 0.158557 0.597918
vt 0.155010 0.595813
vt 0.154751 0.596868
vt 0.151509 0.593624
vt 0.152159 0.592483
vt 0.173824 0.590743
vt 0.174457 0.591478
vt 0.149779 0.589733
vt 0.149076 0.590437
vt 0.184276 0.509009
vt 0.755443 0.037031
vt 0.754514 0.034622
vt 0.758394 0.030865
vt 0.760542 0.032320
vt 0.759744 0.024157
vt 0.762414 0.023864
vt 0.757377 0.018365
vt 0.759081 0.016295
vt 0.744234 0.038623
vt 0.744243 0.036072
vt 0.730524 0.039037
vt 0.730511 0.036479
vt 0.750324 0.014551
vt 0.750834 0.012050
vt 0.742279 0.013772
vt 0.742534 0.011229
vt 0.720085 0.039724
vt 0.719996 0.037171
vt 0.728201 0.013361
vt 0.728321 0.010802
vt 0.709824 0.040540
vt 0.709334 0.038034
vt 0.718621 0.012710
vt 0.718565 0.010136
vt 0.708524 0.011857
vt 0.708948 0.009336
vt 0.702022 0.042713
vt 0.701376 0.040145
vt 0.700498 0.043853
vt 0.699787 0.041396
vt 0.700528 0.010156
vt 0.701213 0.007488
vt 0.699283 0.008910
vt 0.699659 0.006373
vt 0.688952 0.045875
vt 0.688858 0.043350
vt 0.679073 0.045623
vt 0.679112 0.043088
vt 0.688079 0.007227
vt 0.688017 0.004698
vt 0.678655 0.008249
vt 0.678301 0.005724
vt 0.668702 0.045635
vt 0.668960 0.043080
vt 0.657716 0.043591
vt 0.659159 0.041409
vt 0.668282 0.009539
vt 0.667645 0.007030
vt 0.658500 0.012329
vt 0.656840 0.010290
vt 0.655507 0.039128
vt 0.658250 0.040005
vt 0.665632 0.032028
vt 0.667079 0.034161
vt 0.674940 0.027650
vt 0.677427 0.029130
vt 0.674841 0.026739
vt 0.677356 0.026602
vt 0.657415 0.014280
vt 0.654749 0.015260
vt 0.666547 0.020023
vt 0.665151 0.022201
vt 0.677303 0.024701
vt 0.674779 0.026172
vt 0.687341 0.025431
vt 0.700107 0.025106
vt 0.701539 0.025067
vt 0.709047 0.024888
vt 0.719207 0.024900
vt 0.729304 0.024900
vt 0.743057 0.024920
vt 0.752781 0.024631
vt 0.157216 0.523629
s 1
usemtl hr_pain_panic_mat
f 3/1/1 2/2/2 1/3/3
f 4/4/4 3/1/1 1/3/3
f 1/3/3 2/2/2 5/5/5
f 2/2/2 6/6/6 5/5/5
f 7/7/7 3/1/1 4/4/4
f 8/8/8 7/7/7 4/4/4
f 7/7/7 8/8/8 9/9/9
f 8/8/8 10/10/10 9/9/9
f 11/11/11 9/9/9 10/10/10
f 12/12/12 11/11/11 10/10/10
f 5/5/5 6/6/6 13/13/13
f 6/6/6 14/14/14 13/13/13
f 15/15/15 13/13/13 14/14/14
f 16/16/16 15/15/15 14/14/14
f 15/15/15 16/16/16 17/17/17
f 18/18/18 15/15/15 17/17/17
f 6/6/6 19/19/19 14/14/14
f 19/19/19 20/20/20 14/14/14
f 14/14/14 20/20/20 16/16/16
f 21/21/21 19/19/19 6/6/6
f 2/2/2 21/21/21 6/6/6
f 22/22/22 21/21/21 2/2/2
f 3/1/1 22/22/22 2/2/2
f 11/11/11 23/23/23 9/9/9
f 24/24/24 22/22/22 3/1/1
f 7/7/7 24/24/24 3/1/1
f 25/25/25 24/24/24 7/7/7
f 23/23/23 25/25/25 9/9/9
f 9/9/9 25/25/25 7/7/7
f 16/16/16 26/26/26 17/17/17
f 20/20/20 26/26/26 16/16/16
f 26/26/26 27/27/27 17/17/17
f 19/19/19 28/28/28 20/20/20
f 28/28/28 29/29/29 20/20/20
f 20/20/20 29/29/29 26/26/26
f 22/22/22 30/30/30 21/21/21
f 30/30/30 31/31/31 21/21/21
f 31/31/31 28/28/28 19/19/19
f 21/21/21 31/31/31 19/19/19
f 23/23/23 32/32/32 25/25/25
f 32/32/32 33/33/33 25/25/25
f 25/25/25 33/33/33 24/24/24
f 34/34/34 30/30/30 22/22/22
f 33/33/33 34/34/34 24/24/24
f 24/24/24 34/34/34 22/22/22
f 26/26/26 35/35/35 27/27/27
f 29/29/29 35/35/35 26/26/26
f 35/35/35 36/36/36 27/27/27
f 28/28/28 37/37/37 29/29/29
f 37/37/37 38/38/38 29/29/29
f 29/29/29 38/38/38 35/35/35
f 37/37/37 39/39/39 38/38/38
f 39/39/39 40/40/40 38/38/38
f 41/41/41 39/39/39 37/37/37
f 42/42/42 41/41/41 37/37/37
f 43/43/43 41/41/41 42/42/42
f 44/44/44 43/43/43 42/42/42
f 44/44/44 42/42/42 31/31/31
f 45/45/45 43/43/43 44/44/44
f 46/46/46 45/45/45 44/44/44
f 47/47/47 45/45/45 46/46/46
f 48/48/48 47/47/47 46/46/46
f 48/48/48 46/46/46 34/34/34
f 49/49/49 47/47/47 48/48/48
f 50/50/50 49/49/49 48/48/48
f 38/38/38 40/40/40 51/51/51
f 40/40/40 52/52/52 51/51/51
f 51/51/51 52/52/52 53/53/53
f 52/52/52 54/54/54 53/53/53
f 39/39/39 55/55/55 40/40/40
f 52/52/52 56/56/56 54/54/54
f 57/57/57 56/56/56 52/52/52
f 55/55/55 57/57/57 40/40/40
f 40/40/40 57/57/57 52/52/52
f 56/56/56 58/58/58 54/54/54
f 49/49/49 59/59/59 47/47/47
f 59/59/59 60/60/60 47/47/47
f 47/47/47 60/60/60 45/45/45
f 60/60/60 61/61/61 45/45/45
f 45/45/45 61/61/61 43/43/43
f 61/61/61 62/62/62 43/43/43
f 43/43/43 62/62/62 41/41/41
f 62/62/62 63/63/63 41/41/41
f 63/63/63 55/55/55 39/39/39
f 41/41/41 63/63/63 39/39/39
f 55/55/55 64/64/64 57/57/57
f 64/64/64 65/65/65 57/57/57
f 57/57/57 65/65/65 56/56/56
f 66/66/66 65/65/65 64/64/64
f 67/67/67 66/66/66 64/64/64
f 64/64/64 68/68/68 67/67/67
f 68/68/68 69/69/69 67/67/67
f 66/66/66 70/70/70 65/65/65
f 70/70/70 71/71/71 65/65/65
f 69/69/69 68/68/68 72/72/72
f 72/72/72 68/68/68 63/63/63
f 62/62/62 72/72/72 63/63/63
f 73/73/73 69/69/69 72/72/72
f 72/72/72 74/74/74 73/73/73
f 74/74/74 72/72/72 62/62/62
f 61/61/61 74/74/74 62/62/62
f 74/74/74 75/75/75 73/73/73
f 71/71/71 70/70/70 76/76/76
f 77/77/77 71/71/71 76/76/76
f 75/75/75 74/74/74 78/78/78
f 79/79/79 75/75/75 78/78/78
f 79/79/79 78/78/78 80/80/80
f 81/81/81 79/79/79 80/80/80
f 80/80/80 78/78/78 60/60/60
f 59/59/59 80/80/80 60/60/60
f 78/78/78 74/74/74 61/61/61
f 60/60/60 78/78/78 61/61/61
f 71/71/71 77/77/77 58/58/58
f 56/56/56 71/71/71 58/58/58
f 65/65/65 71/71/71 56/56/56
f 81/81/81 82/82/82 79/79/79
f 82/82/82 83/83/83 79/79/79
f 79/79/79 83/83/83 75/75/75
f 84/84/84 83/83/83 82/82/82
f 85/85/85 84/84/84 82/82/82
f 84/84/84 86/86/86 83/83/83
f 86/86/86 87/87/87 83/83/83
f 87/87/87 86/86/86 88/88/88
f 89/89/89 87/87/87 88/88/88
f 88/88/88 90/90/90 89/89/89
f 90/90/90 91/91/91 89/89/89
f 91/91/91 90/90/90 92/92/92
f 93/93/93 91/91/91 92/92/92
f 92/92/92 94/94/94 93/93/93
f 94/94/94 95/95/95 93/93/93
f 94/94/94 96/96/96 95/95/95
f 96/96/96 97/97/97 95/95/95
f 97/97/97 96/96/96 98/98/98
f 99/99/99 97/97/97 98/98/98
f 93/93/93 95/95/95 66/66/66
f 67/67/67 93/93/93 66/66/66
f 91/91/91 93/93/93 67/67/67
f 89/89/89 91/91/91 69/69/69
f 69/69/69 91/91/91 67/67/67
f 73/73/73 89/89/89 69/69/69
f 87/87/87 89/89/89 73/73/73
f 75/75/75 87/87/87 73/73/73
f 83/83/83 87/87/87 75/75/75
f 97/97/97 99/99/99 76/76/76
f 70/70/70 97/97/97 76/76/76
f 95/95/95 97/97/97 70/70/70
f 66/66/66 95/95/95 70/70/70
f 102/100/100 101/101/101 100/102/102
f 103/103/103 102/100/100 100/102/102
f 104/104/104 102/100/100 103/103/103
f 105/105/105 104/104/104 103/103/103
f 106/106/106 100/102/102 101/101/101
f 107/107/107 106/106/106 101/101/101
f 104/104/104 105/105/105 108/108/108
f 105/105/105 109/109/109 108/108/108
f 108/108/108 109/109/109 110/110/110
f 109/109/109 111/111/111 110/110/110
f 110/110/110 111/111/111 112/112/112
f 111/111/111 113/113/113 112/112/112
f 113/113/113 114/114/114 112/112/112
f 114/114/114 115/115/115 112/112/112
f 115/115/115 114/114/114 116/116/116
f 117/117/117 115/115/115 116/116/116
f 109/109/109 1/3/3 111/111/111
f 1/3/3 5/5/5 111/111/111
f 111/111/111 5/5/5 113/113/113
f 4/4/4 1/3/3 109/109/109
f 105/105/105 4/4/4 109/109/109
f 8/8/8 4/4/4 105/105/105
f 116/116/116 114/114/114 15/15/15
f 18/18/18 116/116/116 15/15/15
f 114/114/114 113/113/113 13/13/13
f 15/15/15 114/114/114 13/13/13
f 5/5/5 13/13/13 113/113/113
f 103/103/103 8/8/8 105/105/105
f 8/8/8 103/103/103 10/10/10
f 103/103/103 100/102/102 10/10/10
f 12/12/12 10/10/10 100/102/102
f 106/106/106 12/12/12 100/102/102
f 120/118/118 119/119/119 118/120/120
f 121/121/121 120/118/118 118/120/120
f 122/122/122 120/118/118 121/121/121
f 123/123/123 122/122/122 121/121/121
f 118/120/120 119/119/119 124/124/124
f 125/125/125 118/120/120 124/124/124
f 122/122/122 123/123/123 126/126/126
f 127/127/127 122/122/122 126/126/126
f 120/118/118 128/128/128 119/119/119
f 128/128/128 129/129/129 119/119/119
f 122/122/122 130/130/130 120/118/118
f 130/130/130 131/131/131 120/118/118
f 119/119/119 129/129/129 132/132/132
f 124/124/124 119/119/119 132/132/132
f 133/133/133 130/130/130 122/122/122
f 127/127/127 133/133/133 122/122/122
f 134/134/134 118/120/120 125/125/125
f 135/135/135 134/134/134 125/125/125
f 121/121/121 118/120/120 134/134/134
f 136/136/136 121/121/121 134/134/134
f 123/123/123 121/121/121 136/136/136
f 137/137/137 123/123/123 136/136/136
f 127/127/127 126/126/126 138/138/138
f 127/127/127 138/138/138 133/133/133
f 126/126/126 139/139/139 138/138/138
f 126/126/126 140/140/140 139/139/139
f 123/123/123 137/137/137 140/140/140
f 126/126/126 123/123/123 140/140/140
f 140/140/140 141/141/141 139/139/139
f 142/142/142 141/141/141 140/140/140
f 143/143/143 142/142/142 140/140/140
f 143/143/143 140/140/140 137/137/137
f 143/143/143 144/144/144 142/142/142
f 144/144/144 145/145/145 142/142/142
f 146/146/146 145/145/145 144/144/144
f 147/147/147 146/146/146 144/144/144
f 148/148/148 146/146/146 147/147/147
f 149/149/149 148/148/148 147/147/147
f 147/147/147 144/144/144 150/150/150
f 151/151/151 147/147/147 150/150/150
f 149/149/149 147/147/147 151/151/151
f 152/152/152 149/149/149 151/151/151
f 153/153/153 150/150/150 144/144/144
f 143/143/143 153/153/153 144/144/144
f 153/153/153 143/143/143 137/137/137
f 153/153/153 137/137/137 154/154/154
f 137/137/137 136/136/136 154/154/154
f 154/154/154 136/136/136 155/155/155
f 136/136/136 134/134/134 155/155/155
f 155/155/155 134/134/134 135/135/135
f 156/156/156 155/155/155 135/135/135
f 156/156/156 135/135/135 157/157/157
f 135/135/135 158/158/158 157/157/157
f 135/135/135 125/125/125 158/158/158
f 125/125/125 159/159/159 158/158/158
f 125/125/125 124/124/124 159/159/159
f 124/124/124 160/160/160 159/159/159
f 124/124/124 132/132/132 160/160/160
f 132/132/132 161/161/161 160/160/160
f 156/156/156 157/157/157 162/162/162
f 157/157/157 163/163/163 162/162/162
f 162/162/162 163/163/163 164/164/164
f 163/163/163 165/165/165 164/164/164
f 164/164/164 165/165/165 166/166/166
f 165/165/165 167/167/167 166/166/166
f 164/164/164 166/166/166 168/168/168
f 169/169/169 164/164/164 168/168/168
f 162/162/162 164/164/164 169/169/169
f 170/170/170 162/162/162 169/169/169
f 156/156/156 162/162/162 170/170/170
f 155/155/155 156/156/156 170/170/170
f 169/169/169 168/168/168 171/171/92
f 168/168/168 172/172/171 171/171/92
f 155/155/155 170/170/170 173/173/172
f 170/170/170 174/174/90 173/173/172
f 174/174/90 170/170/170 169/169/169
f 171/171/92 174/174/90 169/169/169
f 173/173/172 175/175/173 155/155/155
f 175/175/173 154/154/154 155/155/155
f 154/154/154 175/175/173 176/176/174
f 153/153/153 154/154/154 176/176/174
f 153/153/153 176/176/174 177/177/175
f 150/150/150 153/153/153 177/177/175
f 177/177/175 178/178/176 150/150/150
f 178/178/176 151/151/151 150/150/150
f 151/151/151 178/178/176 179/179/177
f 152/152/152 151/151/151 179/179/177
f 182/180/178 181/181/179 180/182/180
f 183/183/181 182/180/178 180/182/180
f 181/181/179 184/184/182 180/182/180
f 184/184/182 185/185/183 180/182/180
f 186/186/184 185/185/183 184/184/182
f 187/187/185 186/186/184 184/184/182
f 180/182/180 188/188/186 183/183/181
f 188/188/186 189/189/187 183/183/181
f 183/183/181 189/189/187 190/190/188
f 189/189/187 191/191/189 190/190/188
f 183/183/181 190/190/188 192/192/190
f 182/180/178 183/183/181 192/192/190
f 192/192/190 190/190/188 193/193/191
f 190/190/188 194/194/192 193/193/191
f 193/193/191 194/194/192 195/195/193
f 196/196/194 193/193/191 195/195/193
f 196/196/194 197/197/195 193/193/191
f 197/197/195 198/198/196 193/193/191
f 192/192/190 193/193/191 198/198/196
f 199/199/197 192/192/190 198/198/196
f 192/192/190 199/199/197 200/200/198
f 182/180/178 192/192/190 200/200/198
f 182/180/178 200/200/198 181/181/179
f 200/200/198 201/201/199 181/181/179
f 181/181/179 201/201/199 184/184/182
f 201/201/199 202/202/200 184/184/182
f 187/187/185 184/184/182 202/202/200
f 203/203/201 187/187/185 202/202/200
f 195/195/193 194/194/192 204/204/202
f 205/205/203 195/195/193 204/204/202
f 206/206/204 204/204/202 194/194/192
f 204/204/202 206/206/204 207/207/205
f 208/208/206 207/207/205 206/206/204
f 209/209/207 204/204/202 207/207/205
f 205/205/203 204/204/202 209/209/207
f 208/208/206 206/206/204 190/190/188
f 190/190/188 206/206/204 194/194/192
f 191/191/189 208/208/206 190/190/188
f 209/209/207 207/207/205 210/210/208
f 207/207/205 211/211/209 210/210/208
f 187/187/185 203/203/201 212/212/210
f 187/187/185 212/212/210 186/186/184
f 212/212/210 213/213/211 186/186/184
f 203/203/201 214/214/212 212/212/210
f 215/215/213 211/211/209 207/207/205
f 208/208/206 215/215/213 207/207/205
f 208/208/206 191/191/189 215/215/213
f 209/209/207 210/210/208 216/216/214
f 205/205/203 209/209/207 216/216/214
f 205/205/203 216/216/214 217/217/215
f 195/195/193 205/205/203 217/217/215
f 195/195/193 217/217/215 218/218/216
f 196/196/194 195/195/193 218/218/216
f 196/196/194 218/218/216 219/219/217
f 197/197/195 196/196/194 219/219/217
f 186/186/184 213/213/211 220/220/218
f 221/221/219 186/186/184 220/220/218
f 186/186/184 221/221/219 185/185/183
f 221/221/219 222/222/220 185/185/183
f 185/185/183 222/222/220 180/182/180
f 222/222/220 223/223/221 180/182/180
f 221/221/219 224/224/222 222/222/220
f 221/221/219 220/220/218 224/224/222
f 188/188/186 180/182/180 223/223/221
f 225/225/223 188/188/186 223/223/221
f 226/226/224 223/223/221 222/222/220
f 224/224/222 226/226/224 222/222/220
f 225/225/223 223/223/221 226/226/224
f 224/224/222 227/227/225 226/226/224
f 220/220/218 227/227/225 224/224/222
f 227/227/225 228/228/226 226/226/224
f 188/188/186 225/225/223 229/229/227
f 225/225/223 230/230/228 229/229/227
f 226/226/224 228/228/226 230/230/228
f 225/225/223 226/226/224 230/230/228
f 188/188/186 229/229/227 189/189/187
f 229/229/227 231/231/229 189/189/187
f 231/231/229 232/232/230 189/189/187
f 232/232/230 191/191/189 189/189/187
f 191/191/189 232/232/230 215/215/213
f 235/233/231 234/234/232 233/235/233
f 236/236/234 235/233/231 233/235/233
f 233/235/233 234/234/232 237/237/235
f 238/238/236 233/235/233 237/237/235
f 238/238/236 237/237/235 239/239/237
f 240/240/238 238/238/236 239/239/237
f 240/240/238 239/239/237 241/241/239
f 242/242/240 240/240/238 241/241/239
f 242/242/240 241/241/239 243/243/241
f 241/241/239 244/244/242 243/243/241
f 243/243/241 244/244/242 245/245/243
f 246/246/244 243/243/241 245/245/243
f 236/236/234 247/247/245 235/233/231
f 247/247/245 248/248/246 235/233/231
f 246/246/244 245/245/243 249/249/247
f 245/245/243 250/250/248 249/249/247
f 120/118/118 251/251/249 128/128/128
f 120/118/118 131/131/131 251/251/249
f 254/252/250 253/253/251 252/254/252
f 255/255/253 254/252/250 252/254/252
f 252/254/252 256/256/254 255/255/253
f 256/256/254 257/257/255 255/255/253
f 256/256/254 258/258/256 257/257/255
f 258/258/256 259/259/146 257/257/255
f 253/253/251 254/252/250 260/260/257
f 261/261/258 253/253/251 260/260/257
f 260/260/257 262/262/259 261/261/258
f 262/262/259 263/263/260 261/261/258
f 259/259/146 258/258/256 264/264/261
f 264/264/261 258/258/256 256/256/254
f 265/265/262 259/259/146 264/264/261
f 264/264/261 266/266/263 265/265/262
f 266/266/263 267/267/264 265/265/262
f 262/262/259 268/268/265 263/263/260
f 268/268/265 269/269/266 263/263/260
f 266/266/263 270/270/267 267/267/264
f 270/270/267 271/271/268 267/267/264
f 268/268/265 272/272/269 269/269/266
f 272/272/269 273/273/270 269/269/266
f 270/270/267 274/274/271 271/271/268
f 274/274/271 275/275/272 271/271/268
f 274/274/271 276/276/273 275/275/272
f 276/276/273 277/277/274 275/275/272
f 272/272/269 278/278/247 273/273/270
f 278/278/247 279/279/275 273/273/270
f 278/278/247 280/280/248 279/279/275
f 280/280/248 281/281/276 279/279/275
f 276/276/273 282/282/277 277/277/274
f 282/282/277 283/283/278 277/277/274
f 282/282/277 284/284/279 283/283/278
f 284/284/279 285/285/246 283/283/278
f 280/280/248 286/286/280 281/281/276
f 286/286/280 287/287/281 281/281/276
f 286/286/280 288/288/282 287/287/281
f 288/288/282 289/289/283 287/287/281
f 284/284/279 290/290/284 285/285/246
f 290/290/284 291/291/285 285/285/246
f 290/290/284 292/292/286 291/291/285
f 292/292/286 293/293/287 291/291/285
f 288/288/282 294/294/288 289/289/283
f 294/294/288 295/295/289 289/289/283
f 294/294/288 296/296/290 295/295/289
f 296/296/290 297/297/291 295/295/289
f 292/292/286 298/298/292 293/293/287
f 298/298/292 299/299/293 293/293/287
f 298/298/292 300/300/294 299/299/293
f 300/300/294 301/301/225 299/299/293
f 296/296/290 302/302/295 297/297/291
f 302/302/295 303/303/296 297/297/291
f 297/297/291 303/303/296 295/295/289
f 303/303/296 302/302/295 304/304/297
f 305/305/298 303/303/296 304/304/297
f 303/303/296 305/305/298 295/295/289
f 305/305/298 304/304/297 306/306/299
f 307/307/300 305/305/298 306/306/299
f 307/307/300 306/306/299 308/308/301
f 309/309/302 307/307/300 308/308/301
f 300/300/294 310/310/303 301/301/225
f 310/310/303 311/311/304 301/301/225
f 311/311/304 310/310/303 312/312/305
f 312/312/305 310/310/303 300/300/294
f 298/298/292 312/312/305 300/300/294
f 313/313/306 311/311/304 312/312/305
f 313/313/306 312/312/305 314/314/307
f 315/315/308 313/313/306 314/314/307
f 309/309/302 308/308/301 315/315/308
f 314/314/307 309/309/302 315/315/308
f 305/305/298 307/307/300 289/289/283
f 295/295/289 305/305/298 289/289/283
f 314/314/307 312/312/305 298/298/292
f 292/292/286 314/314/307 298/298/292
f 314/314/307 292/292/286 316/316/309
f 309/309/302 314/314/307 316/316/309
f 307/307/300 309/309/302 316/316/309
f 292/292/286 290/290/284 316/316/309
f 316/316/309 290/290/284 317/317/309
f 290/290/284 284/284/279 317/317/309
f 318/318/309 317/317/309 284/284/279
f 282/282/277 318/318/309 284/284/279
f 318/318/309 282/282/277 319/319/309
f 282/282/277 276/276/273 319/319/309
f 319/319/309 276/276/273 320/320/309
f 276/276/273 274/274/271 320/320/309
f 320/320/309 274/274/271 321/321/309
f 274/274/271 270/270/267 321/321/309
f 321/321/309 270/270/267 322/322/309
f 270/270/267 266/266/263 322/322/309
f 322/322/309 266/266/263 323/323/309
f 266/266/263 264/264/261 323/323/309
f 323/323/309 264/264/261 256/256/254
f 323/323/309 256/256/254 252/254/252
f 253/253/251 323/323/309 252/254/252
f 322/322/309 323/323/309 253/253/251
f 261/261/258 322/322/309 253/253/251
f 321/321/309 322/322/309 261/261/258
f 263/263/260 321/321/309 261/261/258
f 320/320/309 321/321/309 263/263/260
f 269/269/266 320/320/309 263/263/260
f 319/319/309 320/320/309 269/269/266
f 273/273/270 319/319/309 269/269/266
f 318/318/309 319/319/309 273/273/270
f 279/279/275 318/318/309 273/273/270
f 318/318/309 279/279/275 317/317/309
f 279/279/275 281/281/276 317/317/309
f 316/316/309 317/317/309 281/281/276
f 287/287/281 316/316/309 281/281/276
f 307/307/300 316/316/309 287/287/281
f 289/289/283 307/307/300 287/287/281
f 138/138/138 324/324/310 133/133/133
f 38/38/38 51/51/51 35/35/35
f 35/35/35 51/51/51 36/36/36
f 51/51/51 53/53/53 36/36/36
f 50/50/50 48/48/48 33/33/33
f 32/32/32 50/50/50 33/33/33
f 33/33/33 48/48/48 34/34/34
f 34/34/34 46/46/46 30/30/30
f 46/46/46 44/44/44 30/30/30
f 30/30/30 44/44/44 31/31/31
f 31/31/31 42/42/42 28/28/28
f 42/42/42 37/37/37 28/28/28
f 68/68/68 64/64/64 55/55/55
f 63/63/63 68/68/68 55/55/55
