# Blender 4.4.0
# www.blender.org
mtllib PanicoPDer.mtl
o pierna_derecha
v -0.234582 -0.186470 0.018786
v -0.155791 -0.218695 0.193606
v -0.143490 -0.392473 0.195146
v -0.204960 -0.374542 0.034828
v -0.157757 -0.207852 -0.149469
v -0.143077 -0.385643 -0.118371
v -0.031417 -0.416224 0.272478
v -0.020249 -0.261245 0.274315
v 0.071624 -0.439079 0.188644
v 0.096765 -0.302664 0.189772
v 0.125989 -0.446096 0.039744
v 0.157926 -0.314728 0.031960
v -0.014243 -0.255607 -0.244958
v -0.026928 -0.411535 -0.203077
v 0.115469 -0.311619 -0.107184
v 0.083950 -0.442659 -0.091370
v 0.125989 -0.446096 0.039744
v 0.157926 -0.314728 0.031960
v -0.127034 -0.550566 -0.104404
v -0.027928 -0.562928 -0.181997
v -0.179029 -0.545243 0.042741
v -0.127811 -0.554436 0.195036
v 0.104382 -0.580612 0.043546
v -0.030876 -0.566182 0.269443
v 0.057772 -0.577279 0.187461
v 0.067965 -0.578706 -0.085654
v 0.104382 -0.580612 0.043546
v -0.109977 -0.716264 -0.100676
v -0.023980 -0.716264 -0.172598
v -0.110651 -0.716264 0.193203
v -0.153850 -0.716264 0.044490
v 0.088826 -0.716264 0.043744
v 0.051539 -0.716264 0.185801
v -0.025721 -0.716264 0.266090
v 0.059480 -0.716264 -0.085748
v 0.088826 -0.716264 0.043744
v -0.099876 -0.818290 -0.101098
v -0.022554 -0.818290 -0.168448
v -0.090230 -0.949219 -0.106342
v -0.020671 -0.949219 -0.160610
v -0.125934 -0.949219 0.008439
v -0.139149 -0.818290 0.042641
v -0.090508 -0.949219 0.128784
v -0.100748 -0.818290 0.191009
v -0.022029 -0.949219 0.187772
v -0.024095 -0.818290 0.264268
v 0.042202 -0.949219 0.122796
v 0.049033 -0.818290 0.183968
v 0.067438 -0.949219 0.013980
v 0.077639 -0.818290 0.041894
v 0.051674 -0.818290 -0.086189
v 0.044532 -0.949219 -0.094049
v 0.077639 -0.818290 0.041894
v 0.067438 -0.949219 0.013980
v -0.080582 -1.080147 -0.111585
v -0.018786 -1.080147 -0.152772
v 0.037391 -1.080147 -0.101908
v 0.057238 -1.080147 -0.013935
v 0.057238 -1.080147 -0.013935
v 0.035372 -1.080147 0.061624
v -0.019964 -1.080147 0.111276
v -0.080267 -1.080147 0.066559
v -0.112719 -1.080147 -0.025764
v -0.069149 -1.277542 -0.140141
v -0.010818 -1.277921 -0.175007
v -0.003838 -1.498170 -0.207443
v -0.066410 -1.497996 -0.180570
v -0.099562 -1.277741 -0.067160
v -0.099815 -1.498833 -0.115053
v 0.054730 -1.497257 -0.173496
v 0.042246 -1.277757 -0.131807
v -0.068673 -1.278872 0.011081
v -0.076007 -1.498587 -0.043455
v -0.011797 -1.281188 0.048101
v -0.006467 -1.497443 -0.012613
v 0.072697 -1.498683 -0.108836
v 0.060987 -1.277427 -0.058003
v 0.040356 -1.278443 0.006836
v 0.056742 -1.499216 -0.046413
v 0.060987 -1.277427 -0.058003
v 0.072697 -1.498683 -0.108836
v 0.090247 -1.700329 -0.156455
v 0.081511 -1.700738 -0.088005
v 0.093720 -1.783713 -0.095736
v 0.099066 -1.782753 -0.176742
v -0.003120 -1.782439 -0.058249
v -0.004650 -1.700333 -0.062897
v -0.111934 -1.783542 -0.097663
v -0.101207 -1.700942 -0.087458
v -0.120421 -1.782462 -0.181998
v -0.113711 -1.700283 -0.160127
v -0.077027 -1.783044 -0.247632
v -0.073207 -1.700516 -0.225641
v 0.002243 -1.783182 -0.264390
v 0.000829 -1.700629 -0.244355
v 0.079807 -1.783005 -0.242327
v 0.072961 -1.700463 -0.220064
v 0.099066 -1.782753 -0.176742
v 0.090247 -1.700329 -0.156455
v 0.134718 -0.205137 0.190696
v 0.001324 -0.121359 0.275582
v 0.107614 0.004475 0.287610
v 0.223394 -0.115886 0.174586
v -0.161570 0.123104 0.173720
v -0.165196 -0.044879 0.191530
v 0.186688 -0.236947 0.025501
v 0.266176 -0.182208 0.019034
v -0.276547 0.223327 -0.019983
v -0.267485 0.019571 -0.001637
v -0.169851 0.127956 -0.198329
v -0.171167 -0.025939 -0.189144
v 0.111061 -0.008306 -0.343840
v 0.023852 -0.125381 -0.292012
v 0.145373 -0.230728 -0.123190
v 0.226659 -0.137846 -0.145654
v 0.186688 -0.236947 0.025501
v 0.266176 -0.182208 0.019034
v -0.126164 -1.950966 0.163221
v -0.000623 -1.900493 0.171107
v -0.002977 -1.900169 0.296411
v -0.138766 -1.950641 0.291402
v 0.148014 -1.937862 0.296411
v 0.131818 -1.938187 0.171106
v -0.163269 -1.995386 0.289039
v -0.153607 -1.996191 0.157979
v 0.165936 -1.988122 0.166890
v 0.181497 -1.987280 0.292203
v -0.031125 -1.720333 0.518623
v -0.159922 -1.788735 0.500775
v 0.163172 -1.776785 0.505320
v 0.023784 -1.718983 0.519161
v -0.195486 -1.931858 0.441206
v 0.210987 -1.923624 0.444171
v -0.113564 -1.924381 0.035041
v -0.145900 -1.982104 0.026684
v 0.001732 -1.873909 0.045803
v 0.115623 -1.911602 0.045803
v 0.152356 -1.973931 0.041577
v 0.181984 -2.040357 0.162625
v 0.168802 -2.040922 0.036981
v 0.156947 -2.041094 -0.144423
v 0.139533 -1.959873 -0.128333
v 0.129929 -1.959442 -0.225379
v 0.145891 -2.041033 -0.247611
v 0.093773 -2.040621 -0.348098
v 0.090192 -1.959537 -0.312528
v 0.000750 -2.039380 -0.382340
v 0.001756 -1.959291 -0.341388
v 0.197015 -2.040557 0.287912
v 0.225338 -2.041005 0.391241
v 0.107240 -1.835940 -0.191077
v 0.083201 -1.832471 -0.259914
v 0.002472 -1.831450 -0.282210
v 0.108457 -1.851848 -0.080069
v -0.001365 -1.824612 -0.025474
v -0.122515 -1.856632 -0.087375
v -0.149714 -1.960495 -0.135387
v -0.162902 -2.041839 -0.153885
v -0.160058 -2.041078 0.019727
v -0.165390 -2.040823 0.153822
v -0.172629 -2.041277 0.287256
v -0.199813 -2.041680 0.391481
v -0.142713 -1.959593 -0.255378
v -0.154222 -2.041303 -0.293364
v -0.092403 -1.959329 -0.319149
v -0.100668 -2.039873 -0.355590
v 0.001756 -1.959291 -0.341388
v 0.000750 -2.039380 -0.382340
v 0.002472 -1.831450 -0.282210
v -0.080617 -1.832141 -0.265268
v -0.126184 -1.834124 -0.200918
v -0.077027 -1.783044 -0.247632
v 0.002243 -1.783182 -0.264390
v -0.111934 -1.783542 -0.097663
v -0.120421 -1.782462 -0.181998
v -0.003120 -1.782439 -0.058249
v 0.093720 -1.783713 -0.095736
v 0.099066 -1.782753 -0.176742
v 0.079807 -1.783005 -0.242327
v 0.002243 -1.783182 -0.264390
v 0.044316 -1.741849 0.700626
v -0.002527 -1.886567 0.673862
v -0.005340 -1.822168 0.603467
v 0.031296 -1.693871 0.605932
v 0.181140 -1.750876 0.602547
v 0.175538 -1.788811 0.699880
v 0.235557 -1.904966 0.695161
v 0.253134 -1.892583 0.580087
v 0.015131 -1.881402 0.722762
v -0.002005 -1.960483 0.699597
v -0.038240 -1.745111 0.700835
v -0.014769 -1.882230 0.724136
v -0.032146 -1.696716 0.605664
v -0.181139 -1.764640 0.600612
v -0.174592 -1.801101 0.699571
v -0.223823 -1.912917 0.694728
v -0.241899 -1.901687 0.578485
v -0.222964 -1.918582 0.462626
v -0.174598 -1.764074 0.524953
v -0.033527 -1.688779 0.544767
v -0.006233 -1.802330 0.545183
v 0.026877 -1.685987 0.545619
v 0.175572 -1.751294 0.529342
v 0.235233 -1.910140 0.465369
v -0.166528 -1.890895 0.821123
v -0.191166 -1.962508 0.822186
v -0.062333 -1.868741 0.829662
v -0.094599 -2.007598 0.956987
v -0.044156 -1.942045 0.835232
v -0.141174 -2.010320 0.941033
v -0.141946 -2.040556 0.956697
v -0.093217 -2.040590 0.974298
v 0.264154 -2.042483 0.561257
v 0.244889 -2.042594 0.688012
v 0.242975 -2.041746 0.408693
v -0.040240 -2.042901 0.829762
v -0.191314 -2.042963 0.825125
v -0.218664 -2.043450 0.692760
v -0.237419 -2.043432 0.561098
v -0.217632 -2.042628 0.408900
v 0.209423 -2.041973 0.826126
v 0.199578 -1.960150 0.823871
v 0.168742 -1.888810 0.821574
v 0.063437 -1.868423 0.829782
v 0.147614 -2.011705 0.940500
v 0.044365 -1.942144 0.834931
v 0.092734 -2.008115 0.956754
v 0.150548 -2.040041 0.955889
v 0.096064 -2.040504 0.974054
v 0.009658 -2.043629 0.703462
v 0.038572 -2.042707 0.829801
v 0.001411 -2.043614 0.702968
v -0.011858 -2.043589 0.702175
v 0.163172 -1.776785 0.505320
v 0.210987 -1.923624 0.444171
v 0.235233 -1.910140 0.465369
v 0.175572 -1.751294 0.529342
v 0.026877 -1.685987 0.545619
v 0.023784 -1.718983 0.519161
v -0.006233 -1.802330 0.545183
v -0.003298 -1.834587 0.518886
v -0.033527 -1.688779 0.544767
v -0.031125 -1.720333 0.518623
v -0.159922 -1.788735 0.500775
v -0.174598 -1.764074 0.524953
v -0.222964 -1.918582 0.462626
v -0.195486 -1.931858 0.441206
v 0.225338 -2.041005 0.391241
v 0.242975 -2.041746 0.408693
v -0.199813 -2.041680 0.391481
v -0.217632 -2.042628 0.408900
v -0.003298 -1.834587 0.518886
v -0.089885 -2.069530 -0.344788
v -0.100668 -2.039873 -0.355590
v -0.154222 -2.041303 -0.293364
v -0.136750 -2.069530 -0.290083
v -0.000847 -2.069530 -0.367820
v 0.000750 -2.039380 -0.382340
v 0.077816 -2.069530 -0.338302
v 0.093773 -2.040621 -0.348098
v -0.162902 -2.041839 -0.153885
v -0.145413 -2.069530 -0.157542
v -0.160058 -2.041078 0.019727
v -0.143686 -2.069530 0.017704
v 0.129157 -2.069530 -0.246862
v 0.145891 -2.041033 -0.247611
v 0.140601 -2.069530 -0.142989
v 0.156947 -2.041094 -0.144423
v -0.165390 -2.040823 0.153822
v -0.149256 -2.069530 0.152424
v 0.152570 -2.069530 0.037527
v 0.168802 -2.040922 0.036981
v -0.172629 -2.041277 0.287256
v -0.156078 -2.069530 0.289456
v 0.166175 -2.069530 0.160325
v 0.181984 -2.040357 0.162625
v 0.181420 -2.069530 0.290267
v 0.197015 -2.040557 0.287912
v -0.199813 -2.041680 0.391481
v -0.181535 -2.069530 0.392480
v -0.217632 -2.042628 0.408900
v -0.198963 -2.069530 0.413393
v 0.206423 -2.069530 0.393396
v 0.225338 -2.041005 0.391241
v 0.224644 -2.069530 0.409108
v 0.242975 -2.041746 0.408693
v -0.237419 -2.043432 0.561098
v -0.218145 -2.069530 0.558725
v -0.218664 -2.043450 0.692760
v -0.199961 -2.069530 0.689422
v 0.246156 -2.069530 0.558692
v 0.264154 -2.042483 0.561257
v 0.227383 -2.069530 0.683295
v 0.244889 -2.042594 0.688012
v -0.191314 -2.042963 0.825125
v -0.173261 -2.069530 0.820912
v -0.141946 -2.040556 0.956697
v -0.126974 -2.069530 0.946780
v 0.192892 -2.069530 0.820428
v 0.209423 -2.041973 0.826126
v 0.137165 -2.069530 0.945500
v 0.150548 -2.040041 0.955889
v -0.093217 -2.040590 0.974298
v -0.104859 -2.069530 0.954754
v -0.040240 -2.042901 0.829762
v -0.057692 -2.069530 0.823794
v -0.011858 -2.043589 0.702175
v -0.027506 -2.069530 0.683264
v 0.001411 -2.043614 0.702968
v 0.001410 -2.069530 0.683524
v 0.107512 -2.069530 0.955449
v 0.096064 -2.040504 0.974054
v 0.055803 -2.069530 0.823436
v 0.038572 -2.042707 0.829801
v 0.023153 -2.069530 0.683720
v 0.009658 -2.043629 0.703462
v 0.014362 -2.069530 0.558854
v 0.013667 -2.069530 0.400384
v 0.013631 -2.069530 0.382176
v 0.013188 -2.069530 0.286337
v 0.008817 -2.069530 0.156383
v 0.004447 -2.069530 0.026428
v -0.002185 -2.069530 -0.151478
v -0.003582 -2.069530 -0.278031
vn -0.8101 -0.0670 0.5824
vn -0.7759 -0.0445 0.6293
vn -0.9909 -0.1343 0.0060
vn -0.9912 -0.1320 0.0030
vn -0.7794 -0.1779 -0.6007
vn -0.8073 -0.1565 -0.5690
vn -0.0230 -0.0508 0.9984
vn -0.0644 -0.0505 0.9966
vn 0.8106 -0.1140 0.5744
vn 0.7525 -0.1796 0.6336
vn 0.9815 -0.1835 0.0555
vn 0.9558 -0.2855 0.0700
vn -0.0973 -0.3045 -0.9475
vn 0.0161 -0.2223 -0.9748
vn 0.7652 -0.3162 -0.5608
vn 0.8178 -0.1929 -0.5423
vn 0.9815 -0.1835 0.0547
vn 0.9559 -0.2855 0.0691
vn -0.8331 -0.1216 -0.5396
vn 0.0436 -0.1153 -0.9924
vn -0.9916 -0.1297 -0.0012
vn -0.8402 -0.0908 0.5346
vn 0.9930 -0.1105 0.0415
vn -0.0009 -0.0516 0.9987
vn 0.8500 -0.0685 0.5223
vn 0.8538 -0.0949 -0.5118
vn 0.9930 -0.1105 0.0408
vn -0.8513 -0.1008 -0.5148
vn 0.0686 -0.0673 -0.9954
vn -0.8594 -0.0978 0.5018
vn -0.9921 -0.1256 -0.0019
vn 0.9962 -0.0824 0.0296
vn 0.8806 -0.0495 0.4712
vn 0.0286 -0.0489 0.9984
vn 0.8782 -0.0630 -0.4742
vn 0.9962 -0.0824 0.0289
vn -0.8645 -0.0640 -0.4985
vn 0.0927 -0.0459 -0.9946
vn -0.8476 -0.0387 -0.5292
vn 0.0918 -0.0326 -0.9952
vn -0.9928 -0.1196 -0.0033
vn -0.9919 -0.1255 0.0195
vn -0.8319 -0.2880 0.4743
vn -0.8411 -0.2070 0.4997
vn 0.0412 -0.4868 0.8725
vn 0.0395 -0.2761 0.9603
vn 0.8651 -0.2477 0.4361
vn 0.8728 -0.1641 0.4596
vn 0.9959 -0.0901 0.0093
vn 0.9957 -0.0885 0.0284
vn 0.8975 -0.0456 -0.4386
vn 0.8920 -0.0273 -0.4511
vn 0.9957 -0.0884 0.0275
vn 0.9959 -0.0899 0.0083
vn -0.8131 0.0066 -0.5821
vn 0.0784 0.0607 -0.9951
vn 0.8770 0.0411 -0.4788
vn 0.9991 -0.0378 0.0182
vn 0.9991 -0.0380 0.0189
vn 0.8418 -0.1889 0.5057
vn 0.0347 -0.3934 0.9187
vn -0.8084 -0.2457 0.5349
vn -0.9953 -0.0971 0.0045
vn -0.7605 0.0790 -0.6445
vn 0.0726 0.1520 -0.9857
vn 0.0563 0.1941 -0.9794
vn -0.6829 0.1478 -0.7154
vn -0.9993 -0.0353 -0.0122
vn -0.9949 0.0548 -0.0848
vn 0.7789 0.1679 -0.6042
vn 0.8407 0.1190 -0.5282
vn -0.7763 -0.1811 0.6038
vn -0.7234 -0.1323 0.6776
vn 0.0379 -0.2633 0.9640
vn 0.0231 -0.2208 0.9750
vn 0.9964 0.0811 -0.0236
vn 0.9994 0.0328 0.0073
vn 0.8124 -0.1194 0.5708
vn 0.7605 -0.0977 0.6420
vn 0.9994 0.0327 0.0081
vn 0.9965 0.0809 -0.0228
vn 0.9908 0.1185 -0.0658
vn 0.7538 -0.0269 0.6566
vn 0.7878 0.2184 0.5759
vn 0.9826 0.1637 -0.0882
vn -0.0176 0.2059 0.9784
vn 0.0066 -0.1400 0.9901
vn -0.7651 0.1621 0.6232
vn -0.7199 -0.0517 0.6921
vn -0.9664 0.1658 -0.1965
vn -0.9772 0.1193 -0.1754
vn -0.5402 0.2750 -0.7953
vn -0.6019 0.2004 -0.7730
vn 0.0348 0.2945 -0.9550
vn 0.0442 0.2268 -0.9729
vn 0.6563 0.2659 -0.7061
vn 0.7065 0.2090 -0.6761
vn 0.9825 0.1639 -0.0890
vn 0.9907 0.1186 -0.0665
vn -0.2709 -0.4339 0.8593
vn -0.1279 -0.0290 0.9914
vn 0.5921 -0.3734 0.7141
vn 0.2125 -0.7435 0.6340
vn -0.7169 -0.1306 0.6849
vn -0.6912 0.0415 0.7215
vn 0.7952 -0.6008 0.0813
vn 0.3784 -0.9235 0.0623
vn -0.9950 -0.0984 0.0160
vn -0.9978 -0.0623 0.0207
vn -0.7349 -0.2074 -0.6457
vn -0.7250 -0.1066 -0.6804
vn -0.2138 -0.5042 -0.8367
vn -0.1404 -0.3250 -0.9352
vn 0.6118 -0.5518 -0.5668
vn 0.2813 -0.8074 -0.5186
vn 0.7954 -0.6007 0.0806
vn 0.3784 -0.9236 0.0622
vn -0.0366 0.8776 -0.4780
vn -0.0561 0.9953 0.0783
vn -0.5559 0.8304 0.0375
vn -0.5444 0.7298 -0.4136
vn 0.4773 0.7653 -0.4320
vn 0.4858 0.8736 0.0291
vn -0.9165 0.3218 -0.2375
vn -0.9254 0.3771 -0.0385
vn 0.9035 0.4209 -0.0808
vn 0.8820 0.3929 -0.2602
vn 0.0371 0.7574 -0.6519
vn -0.3546 0.6798 -0.6420
vn 0.3078 0.7008 -0.6436
vn -0.0637 0.7546 -0.6531
vn -0.8046 0.3719 -0.4630
vn 0.7742 0.4323 -0.4623
vn -0.6755 0.6977 0.2387
vn -0.9532 0.2980 0.0515
vn -0.0559 0.9372 0.3444
vn 0.6416 0.7459 0.1788
vn 0.9390 0.3429 -0.0274
vn 0.9942 0.0082 -0.1077
vn 0.9972 0.0100 -0.0747
vn 0.9968 0.0060 -0.0795
vn 0.9641 0.2632 -0.0361
vn 0.9440 0.2393 -0.2273
vn 0.9547 0.0318 -0.2960
vn 0.6450 0.1408 -0.7511
vn 0.6213 0.3539 -0.6991
vn 0.0346 0.2275 -0.9732
vn 0.0340 0.4231 -0.9054
vn 0.9774 0.0381 -0.2079
vn 0.9150 0.1272 -0.3830
vn 0.9619 0.2258 -0.1540
vn 0.6478 0.3341 -0.6847
vn 0.0342 0.3958 -0.9177
vn 0.8372 0.4928 0.2373
vn -0.0522 0.7594 0.6486
vn -0.8555 0.4160 0.3083
vn -0.9778 0.2078 0.0281
vn -0.9989 -0.0428 -0.0175
vn -0.9993 -0.0380 0.0028
vn -0.9972 -0.0569 -0.0476
vn -0.9838 -0.0474 -0.1730
vn -0.9253 0.0471 -0.3764
vn -0.9258 0.2577 -0.2765
vn -0.9398 0.0503 -0.3380
vn -0.4679 0.4036 -0.7862
vn -0.4792 0.2129 -0.8515
vn 0.0332 0.4231 -0.9055
vn 0.0340 0.2275 -0.9732
vn 0.0334 0.3958 -0.9177
vn -0.5025 0.3746 -0.7792
vn -0.9488 0.2345 -0.2114
vn 0.0343 0.2946 -0.9550
vn -0.7650 0.1622 0.6232
vn -0.0177 0.2069 0.9782
vn 0.7877 0.2192 0.5757
vn 0.9825 0.1639 -0.0886
vn 0.6564 0.2659 -0.7060
vn 0.0353 0.2946 -0.9550
vn -0.0160 0.7989 0.6013
vn -0.0104 0.6441 0.7649
vn -0.2531 0.7856 0.5646
vn -0.2804 0.9135 0.2949
vn 0.6854 0.7150 0.1376
vn 0.5694 0.6831 0.4573
vn 0.9345 0.2494 0.2538
vn 0.9657 0.2595 0.0106
vn -0.9321 0.1634 0.3232
vn -0.0026 0.0822 0.9966
vn 0.2318 0.8098 0.5390
vn 0.9443 0.1387 0.2983
vn 0.2219 0.9367 0.2708
vn -0.7167 0.6830 0.1409
vn -0.6000 0.6696 0.4377
vn -0.9595 0.1713 0.2236
vn -0.9832 0.1823 0.0071
vn -0.9389 0.1903 -0.2868
vn -0.7156 0.6455 -0.2667
vn 0.1130 0.9756 -0.1881
vn -0.0067 0.9866 -0.1630
vn -0.2012 0.9587 -0.2008
vn 0.6802 0.6795 -0.2748
vn 0.9220 0.2664 -0.2811
vn -0.5295 0.6184 0.5807
vn -0.9381 0.1403 0.3168
vn 0.2304 0.6805 0.6956
vn 0.4645 0.4879 0.7391
vn 0.9401 0.0961 0.3271
vn -0.5705 0.4883 0.6604
vn -0.8389 -0.1347 0.5274
vn 0.8262 -0.1130 0.5519
vn 0.9991 -0.0396 -0.0132
vn 0.9765 -0.0640 0.2058
vn 0.9591 -0.0013 -0.2831
vn 0.9502 -0.1318 0.2825
vn -0.9478 -0.1624 0.2744
vn -0.9717 -0.1580 0.1755
vn -0.9904 -0.1377 -0.0102
vn -0.9542 -0.0813 -0.2879
vn 0.9416 -0.0764 0.3279
vn 0.9043 0.2212 0.3651
vn 0.4959 0.6217 0.6063
vn -0.2525 0.6669 0.7010
vn 0.5242 0.5194 0.6749
vn -0.9381 0.1085 0.3290
vn -0.4569 0.4840 0.7463
vn 0.8074 -0.0649 0.5864
vn -0.7950 -0.1186 0.5949
vn -0.9382 -0.1542 0.3099
vn -0.9487 -0.1235 0.2912
vn -0.0338 -0.2155 0.9759
vn 0.9333 -0.1805 0.3106
vn 0.7740 0.4324 -0.4626
vn 0.3078 0.7005 -0.6439
vn 0.6803 0.6794 -0.2749
vn -0.2011 0.9589 -0.2004
vn -0.0632 0.7546 -0.6531
vn -0.0068 0.9866 -0.1629
vn -0.0357 0.9405 -0.3380
vn 0.1125 0.9757 -0.1881
vn 0.0366 0.7573 -0.6520
vn -0.3542 0.6795 -0.6425
vn -0.7157 0.6454 -0.2668
vn -0.9389 0.1902 -0.2868
vn -0.8043 0.3720 -0.4633
vn 0.9149 0.1269 -0.3833
vn 0.9590 -0.0016 -0.2833
vn -0.9252 0.0469 -0.3766
vn -0.9541 -0.0815 -0.2882
vn -0.0355 0.9405 -0.3378
vn -0.9399 0.0499 -0.3379
vn -0.4791 0.2129 -0.8516
vn -0.1577 -0.9434 -0.2918
vn -0.2199 -0.9728 -0.0732
vn 0.0106 -0.9413 -0.3375
vn 0.0343 0.2276 -0.9731
vn 0.2154 -0.9433 -0.2525
vn 0.6450 0.1407 -0.7511
vn -0.9989 -0.0432 -0.0175
vn -0.1797 -0.9837 -0.0042
vn -0.9993 -0.0383 0.0029
vn -0.1657 -0.9862 -0.0014
vn 0.2136 -0.9743 -0.0714
vn 0.9547 0.0314 -0.2959
vn 0.1722 -0.9850 -0.0140
vn 0.9968 0.0057 -0.0795
vn -0.9972 -0.0573 -0.0476
vn -0.1630 -0.9866 -0.0076
vn 0.1719 -0.9850 -0.0141
vn 0.9972 0.0096 -0.0747
vn -0.9838 -0.0478 -0.1730
vn -0.1418 -0.9897 -0.0198
vn 0.1616 -0.9867 -0.0182
vn 0.9942 0.0079 -0.1077
vn 0.1484 -0.9886 -0.0269
vn 0.9774 0.0376 -0.2079
vn -0.1531 -0.9869 -0.0515
vn -0.1080 -0.9938 -0.0256
vn 0.1554 -0.9864 -0.0537
vn 0.9150 0.1272 -0.3828
vn 0.1066 -0.9939 -0.0284
vn 0.9590 -0.0016 -0.2834
vn -0.9904 -0.1381 -0.0102
vn -0.1284 -0.9917 -0.0015
vn -0.9717 -0.1584 0.1754
vn -0.1383 -0.9901 0.0240
vn 0.1301 -0.9915 -0.0022
vn 0.9991 -0.0400 -0.0132
vn 0.1321 -0.9909 0.0272
vn 0.9765 -0.0643 0.2058
vn -0.9478 -0.1627 0.2743
vn -0.2068 -0.9765 0.0609
vn -0.2546 -0.9537 0.1598
vn 0.1847 -0.9806 0.0653
vn 0.9416 -0.0769 0.3278
vn 0.2218 -0.9613 0.1631
vn 0.8074 -0.0649 0.5865
vn 0.8262 -0.1124 0.5520
vn 0.3088 -0.9243 0.2244
vn 0.9502 -0.1322 0.2824
vn 0.2137 -0.9748 0.0633
vn 0.9333 -0.1804 0.3104
vn 0.0479 -0.9987 0.0183
vn -0.0338 -0.2164 0.9757
vn -0.0033 -0.9912 0.1326
vn -0.2612 -0.9402 0.2184
vn -0.7950 -0.1179 0.5950
vn -0.1837 -0.9812 0.0587
vn -0.9486 -0.1238 0.2911
vn -0.0459 -0.9988 0.0165
vn -0.9383 -0.1542 0.3095
vn -0.0000 -1.0000 -0.0000
vt 0.822110 0.718780
vt 0.835070 0.720707
vt 0.839658 0.706244
vt 0.825054 0.705487
vt 0.838750 0.691588
vt 0.824497 0.692243
vt 0.818443 0.729013
vt 0.829799 0.732396
vt 0.814172 0.738731
vt 0.824169 0.742912
vt 0.809228 0.750042
vt 0.818195 0.754864
vt 0.835064 0.677900
vt 0.821985 0.680763
vt 0.825850 0.665244
vt 0.815878 0.669433
vt 0.811548 0.659499
vt 0.820448 0.655244
vt 0.811219 0.692590
vt 0.809379 0.682860
vt 0.811822 0.704808
vt 0.810104 0.717157
vt 0.799596 0.745957
vt 0.807580 0.726355
vt 0.804152 0.735192
vt 0.805471 0.672852
vt 0.802044 0.662836
vt 0.797697 0.693064
vt 0.796743 0.684691
vt 0.798184 0.715799
vt 0.798398 0.704367
vt 0.789513 0.741933
vt 0.794248 0.731761
vt 0.797034 0.723960
vt 0.794793 0.675704
vt 0.792203 0.665813
vt 0.789247 0.693592
vt 0.788403 0.686007
vt 0.778434 0.694406
vt 0.777775 0.687731
vt 0.779354 0.703445
vt 0.790165 0.704462
vt 0.780182 0.712834
vt 0.790666 0.715334
vt 0.780248 0.719724
vt 0.790352 0.722408
vt 0.776934 0.725720
vt 0.787172 0.728738
vt 0.772409 0.732684
vt 0.781962 0.737821
vt 0.786873 0.677773
vt 0.776760 0.680687
vt 0.784688 0.667931
vt 0.775429 0.672233
vt 0.767702 0.695255
vt 0.767087 0.689282
vt 0.766633 0.683208
vt 0.766241 0.676114
vt 0.763766 0.727799
vt 0.766672 0.722394
vt 0.769152 0.716856
vt 0.769292 0.710580
vt 0.768586 0.702603
vt 0.751584 0.695643
vt 0.751042 0.690309
vt 0.733563 0.689661
vt 0.733701 0.695036
vt 0.752431 0.701879
vt 0.734284 0.700839
vt 0.734232 0.684411
vt 0.751293 0.684957
vt 0.753098 0.708579
vt 0.735116 0.706759
vt 0.752978 0.714004
vt 0.735480 0.712743
vt 0.735359 0.679335
vt 0.751931 0.679081
vt 0.751559 0.719063
vt 0.734349 0.718263
vt 0.749800 0.724061
vt 0.733351 0.723194
vt 0.718072 0.725320
vt 0.718489 0.719926
vt 0.711920 0.720599
vt 0.711678 0.726820
vt 0.712631 0.713042
vt 0.718994 0.712893
vt 0.712089 0.704814
vt 0.718653 0.705200
vt 0.711341 0.698800
vt 0.717957 0.699579
vt 0.710724 0.693101
vt 0.717385 0.693702
vt 0.710952 0.687107
vt 0.717570 0.687847
vt 0.711749 0.681112
vt 0.718332 0.682061
vt 0.713531 0.676218
vt 0.719963 0.677262
vt 0.849278 0.744997
vt 0.840203 0.735955
vt 0.831326 0.747058
vt 0.837696 0.754781
vt 0.861172 0.723966
vt 0.848150 0.722552
vt 0.823301 0.758458
vt 0.828161 0.764143
vt 0.871578 0.708001
vt 0.855778 0.707119
vt 0.865414 0.691260
vt 0.853283 0.690935
vt 0.855862 0.666996
vt 0.845946 0.673961
vt 0.832126 0.662136
vt 0.839890 0.656112
vt 0.825610 0.652038
vt 0.830881 0.647009
vt 0.184773 0.526615
vt 0.184773 0.537674
vt 0.197216 0.538196
vt 0.199462 0.527935
vt 0.170915 0.527391
vt 0.173229 0.537411
vt 0.203854 0.528755
vt 0.201709 0.538404
vt 0.168022 0.537472
vt 0.165748 0.528323
vt 0.190984 0.506630
vt 0.199187 0.511932
vt 0.171128 0.510624
vt 0.178829 0.506877
vt 0.206117 0.518393
vt 0.163800 0.517248
vt 0.196006 0.548919
vt 0.201495 0.548217
vt 0.184773 0.548930
vt 0.174481 0.547938
vt 0.168576 0.546786
vt 0.163463 0.537634
vt 0.163077 0.545840
vt 0.157908 0.557936
vt 0.164672 0.559383
vt 0.161100 0.566425
vt 0.154262 0.565062
vt 0.150920 0.573412
vt 0.158097 0.573572
vt 0.149911 0.581342
vt 0.157162 0.581047
vt 0.161247 0.529342
vt 0.157216 0.523629
vt 0.171203 0.568373
vt 0.169080 0.574036
vt 0.168344 0.580818
vt 0.174784 0.559461
vt 0.184773 0.556217
vt 0.195746 0.560549
vt 0.205400 0.560362
vt 0.212136 0.558891
vt 0.206442 0.547438
vt 0.205445 0.538577
vt 0.207659 0.529573
vt 0.211754 0.523903
vt 0.210092 0.568926
vt 0.217458 0.568423
vt 0.212334 0.575113
vt 0.219506 0.574625
vt 0.213059 0.582918
vt 0.220310 0.583040
vt 0.201878 0.582843
vt 0.201282 0.575972
vt 0.199159 0.569807
vt 0.197135 0.576504
vt 0.197783 0.582989
vt 0.191862 0.564967
vt 0.194908 0.570731
vt 0.184773 0.560786
vt 0.178207 0.563944
vt 0.175406 0.569608
vt 0.173240 0.574543
vt 0.172438 0.580999
vt 0.184773 0.495151
vt 0.184773 0.484806
vt 0.176694 0.491725
vt 0.178229 0.498324
vt 0.168642 0.500565
vt 0.166743 0.493644
vt 0.157702 0.494682
vt 0.158737 0.504004
vt 0.181312 0.482520
vt 0.184773 0.476258
vt 0.193318 0.491507
vt 0.189002 0.482451
vt 0.192039 0.498154
vt 0.202058 0.500422
vt 0.203890 0.493369
vt 0.212409 0.494347
vt 0.211383 0.503841
vt 0.208532 0.513151
vt 0.200565 0.505814
vt 0.192135 0.501759
vt 0.184773 0.502596
vt 0.178565 0.501954
vt 0.169855 0.505732
vt 0.161452 0.513184
vt 0.207725 0.484002
vt 0.213715 0.483334
vt 0.199209 0.480567
vt 0.209645 0.469710
vt 0.198304 0.475183
vt 0.212892 0.472385
vt 0.214663 0.470277
vt 0.211215 0.467070
vt 0.148247 0.507461
vt 0.146879 0.495180
vt 0.154594 0.520465
vt 0.197474 0.467344
vt 0.219823 0.481688
vt 0.222672 0.494288
vt 0.221236 0.507224
vt 0.214586 0.520432
vt 0.149809 0.482075
vt 0.156174 0.483462
vt 0.162379 0.484088
vt 0.170944 0.480573
vt 0.156755 0.472543
vt 0.171890 0.475165
vt 0.160650 0.469641
vt 0.155003 0.470586
vt 0.158893 0.467140
vt 0.184343 0.469177
vt 0.172666 0.467351
vt 0.184833 0.469250
vt 0.185635 0.469151
vt 0.171428 0.594438
vt 0.170926 0.593327
vt 0.167614 0.596391
vt 0.167742 0.597443
vt 0.163990 0.598888
vt 0.163703 0.598027
vt 0.161375 0.598507
vt 0.161437 0.597029
vt 0.158246 0.598732
vt 0.158557 0.597918
vt 0.155010 0.595813
vt 0.154751 0.596868
vt 0.151509 0.593624
vt 0.152159 0.592483
vt 0.173824 0.590743
vt 0.174457 0.591478
vt 0.149779 0.589733
vt 0.149076 0.590437
vt 0.184276 0.509009
vt 0.755443 0.037031
vt 0.760542 0.032320
vt 0.758394 0.030865
vt 0.754514 0.034622
vt 0.759744 0.024157
vt 0.762414 0.023864
vt 0.757377 0.018365
vt 0.759081 0.016295
vt 0.744234 0.038623
vt 0.744243 0.036072
vt 0.730524 0.039037
vt 0.730511 0.036479
vt 0.750324 0.014551
vt 0.750834 0.012050
vt 0.742279 0.013772
vt 0.742534 0.011229
vt 0.720085 0.039724
vt 0.719996 0.037171
vt 0.728201 0.013361
vt 0.728321 0.010802
vt 0.709824 0.040540
vt 0.709334 0.038034
vt 0.718621 0.012710
vt 0.718565 0.010136
vt 0.708524 0.011857
vt 0.708948 0.009336
vt 0.702022 0.042713
vt 0.701376 0.040145
vt 0.700498 0.043853
vt 0.699787 0.041396
vt 0.700528 0.010156
vt 0.701213 0.007488
vt 0.699283 0.008910
vt 0.699659 0.006373
vt 0.688952 0.045875
vt 0.688858 0.043350
vt 0.679073 0.045623
vt 0.679112 0.043088
vt 0.688079 0.007227
vt 0.688017 0.004698
vt 0.678655 0.008249
vt 0.678301 0.005724
vt 0.668702 0.045635
vt 0.668960 0.043080
vt 0.657716 0.043591
vt 0.659159 0.041409
vt 0.668282 0.009539
vt 0.667645 0.007030
vt 0.658500 0.012329
vt 0.656840 0.010290
vt 0.655507 0.039128
vt 0.658250 0.040005
vt 0.665632 0.032028
vt 0.667079 0.034161
vt 0.674940 0.027650
vt 0.677427 0.029130
vt 0.674841 0.026739
vt 0.677356 0.026602
vt 0.657415 0.014280
vt 0.654749 0.015260
vt 0.666547 0.020023
vt 0.665151 0.022201
vt 0.677303 0.024701
vt 0.674779 0.026172
vt 0.687341 0.025431
vt 0.700107 0.025106
vt 0.701539 0.025067
vt 0.709047 0.024888
vt 0.719207 0.024900
vt 0.729304 0.024900
vt 0.743057 0.024920
vt 0.752781 0.024631
s 1
usemtl hr_pain_panic_mat
f 3/1/1 2/2/2 1/3/3
f 4/4/4 3/1/1 1/3/3
f 4/4/4 1/3/3 5/5/5
f 6/6/6 4/4/4 5/5/5
f 3/1/1 7/7/7 2/2/2
f 7/7/7 8/8/8 2/2/2
f 8/8/8 7/7/7 9/9/9
f 10/10/10 8/8/8 9/9/9
f 9/9/9 11/11/11 10/10/10
f 11/11/11 12/12/12 10/10/10
f 6/6/6 5/5/5 13/13/13
f 14/14/14 6/6/6 13/13/13
f 13/13/13 15/15/15 14/14/14
f 15/15/15 16/16/16 14/14/14
f 16/16/16 15/15/15 17/17/17
f 15/15/15 18/18/18 17/17/17
f 19/19/19 6/6/6 14/14/14
f 20/20/20 19/19/19 14/14/14
f 20/20/20 14/14/14 16/16/16
f 19/19/19 21/21/21 6/6/6
f 21/21/21 4/4/4 6/6/6
f 21/21/21 22/22/22 4/4/4
f 22/22/22 3/1/1 4/4/4
f 23/23/23 11/11/11 9/9/9
f 22/22/22 24/24/24 3/1/1
f 24/24/24 7/7/7 3/1/1
f 24/24/24 25/25/25 7/7/7
f 25/25/25 23/23/23 9/9/9
f 25/25/25 9/9/9 7/7/7
f 26/26/26 16/16/16 17/17/17
f 26/26/26 20/20/20 16/16/16
f 27/27/27 26/26/26 17/17/17
f 28/28/28 19/19/19 20/20/20
f 29/29/29 28/28/28 20/20/20
f 29/29/29 20/20/20 26/26/26
f 30/30/30 22/22/22 21/21/21
f 31/31/31 30/30/30 21/21/21
f 31/31/31 21/21/21 19/19/19
f 28/28/28 31/31/31 19/19/19
f 32/32/32 23/23/23 25/25/25
f 33/33/33 32/32/32 25/25/25
f 33/33/33 25/25/25 24/24/24
f 34/34/34 24/24/24 22/22/22
f 34/34/34 33/33/33 24/24/24
f 30/30/30 34/34/34 22/22/22
f 35/35/35 26/26/26 27/27/27
f 35/35/35 29/29/29 26/26/26
f 36/36/36 35/35/35 27/27/27
f 37/37/37 28/28/28 29/29/29
f 38/38/38 37/37/37 29/29/29
f 38/38/38 29/29/29 35/35/35
f 39/39/39 37/37/37 38/38/38
f 40/40/40 39/39/39 38/38/38
f 39/39/39 41/41/41 37/37/37
f 41/41/41 42/42/42 37/37/37
f 41/41/41 43/43/43 42/42/42
f 43/43/43 44/44/44 42/42/42
f 42/42/42 44/44/44 31/31/31
f 43/43/43 45/45/45 44/44/44
f 45/45/45 46/46/46 44/44/44
f 45/45/45 47/47/47 46/46/46
f 47/47/47 48/48/48 46/46/46
f 46/46/46 48/48/48 34/34/34
f 47/47/47 49/49/49 48/48/48
f 49/49/49 50/50/50 48/48/48
f 40/40/40 38/38/38 51/51/51
f 52/52/52 40/40/40 51/51/51
f 52/52/52 51/51/51 53/53/53
f 54/54/54 52/52/52 53/53/53
f 55/55/55 39/39/39 40/40/40
f 56/56/56 55/55/55 40/40/40
f 56/56/56 40/40/40 52/52/52
f 57/57/57 56/56/56 52/52/52
f 57/57/57 52/52/52 54/54/54
f 58/58/58 57/57/57 54/54/54
f 59/59/59 49/49/49 47/47/47
f 60/60/60 59/59/59 47/47/47
f 60/60/60 47/47/47 45/45/45
f 61/61/61 60/60/60 45/45/45
f 61/61/61 45/45/45 43/43/43
f 62/62/62 61/61/61 43/43/43
f 62/62/62 43/43/43 41/41/41
f 63/63/63 62/62/62 41/41/41
f 63/63/63 41/41/41 39/39/39
f 55/55/55 63/63/63 39/39/39
f 64/64/64 55/55/55 56/56/56
f 65/65/65 64/64/64 56/56/56
f 65/65/65 56/56/56 57/57/57
f 65/65/65 66/66/66 64/64/64
f 66/66/66 67/67/67 64/64/64
f 68/68/68 64/64/64 67/67/67
f 69/69/69 68/68/68 67/67/67
f 70/70/70 66/66/66 65/65/65
f 71/71/71 70/70/70 65/65/65
f 68/68/68 69/69/69 72/72/72
f 72/72/72 62/62/62 63/63/63
f 68/68/68 72/72/72 63/63/63
f 69/69/69 73/73/73 72/72/72
f 74/74/74 72/72/72 73/73/73
f 72/72/72 74/74/74 62/62/62
f 75/75/75 74/74/74 73/73/73
f 70/70/70 71/71/71 76/76/76
f 71/71/71 77/77/77 76/76/76
f 74/74/74 75/75/75 78/78/78
f 75/75/75 79/79/79 78/78/78
f 78/78/78 79/79/79 80/80/80
f 79/79/79 81/81/81 80/80/80
f 78/78/78 80/80/80 60/60/60
f 80/80/80 59/59/59 60/60/60
f 78/78/78 60/60/60 61/61/61
f 74/74/74 78/78/78 61/61/61
f 74/74/74 61/61/61 62/62/62
f 77/77/77 71/71/71 58/58/58
f 71/71/71 57/57/57 58/58/58
f 71/71/71 65/65/65 57/57/57
f 82/82/82 81/81/81 79/79/79
f 83/83/83 82/82/82 79/79/79
f 83/83/83 84/84/84 82/82/82
f 84/84/84 85/85/85 82/82/82
f 86/86/86 84/84/84 83/83/83
f 87/87/87 86/86/86 83/83/83
f 86/86/86 87/87/87 88/88/88
f 87/87/87 89/89/89 88/88/88
f 90/90/90 88/88/88 89/89/89
f 91/91/91 90/90/90 89/89/89
f 90/90/90 91/91/91 92/92/92
f 91/91/91 93/93/93 92/92/92
f 94/94/94 92/92/92 93/93/93
f 95/95/95 94/94/94 93/93/93
f 96/96/96 94/94/94 95/95/95
f 97/97/97 96/96/96 95/95/95
f 96/96/96 97/97/97 98/98/98
f 97/97/97 99/99/99 98/98/98
f 95/95/95 93/93/93 66/66/66
f 93/93/93 67/67/67 66/66/66
f 93/93/93 91/91/91 67/67/67
f 91/91/91 89/89/89 69/69/69
f 91/91/91 69/69/69 67/67/67
f 89/89/89 73/73/73 69/69/69
f 89/89/89 87/87/87 73/73/73
f 87/87/87 75/75/75 73/73/73
f 87/87/87 83/83/83 75/75/75
f 83/83/83 79/79/79 75/75/75
f 99/99/99 97/97/97 76/76/76
f 97/97/97 70/70/70 76/76/76
f 95/95/95 66/66/66 70/70/70
f 97/97/97 95/95/95 70/70/70
f 102/100/100 101/101/101 100/102/102
f 103/103/103 102/100/100 100/102/102
f 102/100/100 104/104/104 101/101/101
f 104/104/104 105/105/105 101/101/101
f 100/102/102 106/106/106 103/103/103
f 106/106/106 107/107/107 103/103/103
f 105/105/105 104/104/104 108/108/108
f 109/109/109 105/105/105 108/108/108
f 109/109/109 108/108/108 110/110/110
f 111/111/111 109/109/109 110/110/110
f 111/111/111 110/110/110 112/112/112
f 113/113/113 111/111/111 112/112/112
f 114/114/114 113/113/113 112/112/112
f 115/115/115 114/114/114 112/112/112
f 114/114/114 115/115/115 116/116/116
f 115/115/115 117/117/117 116/116/116
f 1/3/3 109/109/109 111/111/111
f 5/5/5 1/3/3 111/111/111
f 5/5/5 111/111/111 113/113/113
f 2/2/2 105/105/105 109/109/109
f 1/3/3 2/2/2 109/109/109
f 2/2/2 8/8/8 105/105/105
f 114/114/114 116/116/116 15/15/15
f 116/116/116 18/18/18 15/15/15
f 114/114/114 15/15/15 13/13/13
f 113/113/113 114/114/114 13/13/13
f 13/13/13 5/5/5 113/113/113
f 8/8/8 101/101/101 105/105/105
f 101/101/101 8/8/8 10/10/10
f 100/102/102 101/101/101 10/10/10
f 10/10/10 12/12/12 100/102/102
f 12/12/12 106/106/106 100/102/102
f 120/118/118 119/119/119 118/120/120
f 121/121/121 120/118/118 118/120/120
f 120/118/118 122/122/122 119/119/119
f 122/122/122 123/123/123 119/119/119
f 121/121/121 118/120/120 124/124/124
f 118/120/120 125/125/125 124/124/124
f 123/123/123 122/122/122 126/126/126
f 122/122/122 127/127/127 126/126/126
f 128/128/128 120/118/118 121/121/121
f 129/129/129 128/128/128 121/121/121
f 130/130/130 122/122/122 120/118/118
f 131/131/131 130/130/130 120/118/118
f 121/121/121 124/124/124 132/132/132
f 129/129/129 121/121/121 132/132/132
f 133/133/133 127/127/127 122/122/122
f 130/130/130 133/133/133 122/122/122
f 118/120/120 134/134/134 125/125/125
f 134/134/134 135/135/135 125/125/125
f 118/120/120 119/119/119 134/134/134
f 119/119/119 136/136/136 134/134/134
f 119/119/119 123/123/123 136/136/136
f 123/123/123 137/137/137 136/136/136
f 123/123/123 126/126/126 138/138/138
f 137/137/137 123/123/123 138/138/138
f 138/138/138 126/126/126 139/139/139
f 140/140/140 138/138/138 139/139/139
f 140/140/140 141/141/141 138/138/138
f 141/141/141 142/142/142 138/138/138
f 138/138/138 142/142/142 137/137/137
f 143/143/143 142/142/142 141/141/141
f 144/144/144 143/143/143 141/141/141
f 144/144/144 145/145/145 143/143/143
f 145/145/145 146/146/146 143/143/143
f 145/145/145 147/147/147 146/146/146
f 147/147/147 148/148/148 146/146/146
f 139/139/139 126/126/126 149/149/149
f 126/126/126 127/127/127 149/149/149
f 149/149/149 127/127/127 133/133/133
f 150/150/150 149/149/149 133/133/133
f 143/143/143 146/146/146 151/151/151
f 146/146/146 152/152/152 151/151/151
f 146/146/146 148/148/148 152/152/152
f 148/148/148 153/153/153 152/152/152
f 154/154/154 142/142/142 143/143/143
f 151/151/151 154/154/154 143/143/143
f 142/142/142 154/154/154 137/137/137
f 137/137/137 154/154/154 155/155/155
f 136/136/136 137/137/137 155/155/155
f 136/136/136 155/155/155 156/156/156
f 134/134/134 136/136/136 156/156/156
f 134/134/134 156/156/156 135/135/135
f 156/156/156 157/157/157 135/135/135
f 135/135/135 157/157/157 158/158/158
f 159/159/159 135/135/135 158/158/158
f 125/125/125 135/135/135 159/159/159
f 160/160/160 125/125/125 159/159/159
f 124/124/124 125/125/125 160/160/160
f 161/161/161 124/124/124 160/160/160
f 132/132/132 124/124/124 161/161/161
f 162/162/162 132/132/132 161/161/161
f 158/158/158 157/157/157 163/163/163
f 164/164/164 158/158/158 163/163/163
f 164/164/164 163/163/163 165/165/165
f 166/166/166 164/164/164 165/165/165
f 166/166/166 165/165/165 167/167/167
f 168/168/168 166/166/166 167/167/167
f 167/167/167 165/165/165 169/169/169
f 165/165/165 170/170/170 169/169/169
f 165/165/165 163/163/163 170/170/170
f 163/163/163 171/171/171 170/170/170
f 163/163/163 157/157/157 171/171/171
f 157/157/157 156/156/156 171/171/171
f 169/169/169 170/170/170 172/172/92
f 173/173/172 169/169/169 172/172/92
f 171/171/171 156/156/156 174/174/173
f 175/175/90 171/171/171 174/174/173
f 175/175/90 172/172/92 170/170/170
f 171/171/171 175/175/90 170/170/170
f 176/176/174 174/174/173 156/156/156
f 155/155/155 176/176/174 156/156/156
f 176/176/174 155/155/155 177/177/175
f 155/155/155 154/154/154 177/177/175
f 177/177/175 154/154/154 178/178/176
f 154/154/154 151/151/151 178/178/176
f 179/179/177 178/178/176 151/151/151
f 152/152/152 179/179/177 151/151/151
f 179/179/177 152/152/152 180/180/178
f 152/152/152 153/153/153 180/180/178
f 183/181/179 182/182/180 181/183/181
f 184/184/182 183/181/179 181/183/181
f 185/185/183 184/184/182 181/183/181
f 186/186/184 185/185/183 181/183/181
f 186/186/184 187/187/185 185/185/183
f 187/187/185 188/188/186 185/185/183
f 189/189/187 181/183/181 182/182/180
f 190/190/188 189/189/187 182/182/180
f 190/190/188 182/182/180 191/191/189
f 192/192/190 190/190/188 191/191/189
f 182/182/180 183/181/179 193/193/191
f 191/191/189 182/182/180 193/193/191
f 191/191/189 193/193/191 194/194/192
f 195/195/193 191/191/189 194/194/192
f 195/195/193 194/194/192 196/196/194
f 194/194/192 197/197/195 196/196/194
f 198/198/196 197/197/195 194/194/192
f 199/199/197 198/198/196 194/194/192
f 194/194/192 193/193/191 199/199/197
f 193/193/191 200/200/198 199/199/197
f 200/200/198 193/193/191 201/201/199
f 193/193/191 183/181/179 201/201/199
f 201/201/199 183/181/179 184/184/182
f 202/202/200 201/201/199 184/184/182
f 202/202/200 184/184/182 185/185/183
f 203/203/201 202/202/200 185/185/183
f 185/185/183 188/188/186 203/203/201
f 188/188/186 204/204/202 203/203/201
f 195/195/193 196/196/194 205/205/203
f 196/196/194 206/206/204 205/205/203
f 205/205/203 207/207/205 195/195/193
f 207/207/205 205/205/203 208/208/206
f 208/208/206 209/209/207 207/207/205
f 205/205/203 210/210/208 208/208/206
f 205/205/203 206/206/204 210/210/208
f 207/207/205 209/209/207 191/191/189
f 207/207/205 191/191/189 195/195/193
f 209/209/207 192/192/190 191/191/189
f 208/208/206 210/210/208 211/211/209
f 212/212/210 208/208/206 211/211/209
f 204/204/202 188/188/186 213/213/211
f 213/213/211 188/188/186 187/187/185
f 214/214/212 213/213/211 187/187/185
f 215/215/213 204/204/202 213/213/211
f 216/216/214 209/209/207 208/208/206
f 212/212/210 216/216/214 208/208/206
f 192/192/190 209/209/207 216/216/214
f 210/210/208 206/206/204 217/217/215
f 211/211/209 210/210/208 217/217/215
f 217/217/215 206/206/204 218/218/216
f 206/206/204 196/196/194 218/218/216
f 218/218/216 196/196/194 219/219/217
f 196/196/194 197/197/195 219/219/217
f 219/219/217 197/197/195 220/220/218
f 197/197/195 198/198/196 220/220/218
f 214/214/212 187/187/185 221/221/219
f 187/187/185 222/222/220 221/221/219
f 222/222/220 187/187/185 186/186/184
f 223/223/221 222/222/220 186/186/184
f 223/223/221 186/186/184 181/183/181
f 224/224/222 223/223/221 181/183/181
f 225/225/223 222/222/220 223/223/221
f 221/221/219 222/222/220 225/225/223
f 181/183/181 189/189/187 224/224/222
f 189/189/187 226/226/224 224/224/222
f 227/227/225 225/225/223 223/223/221
f 224/224/222 227/227/225 223/223/221
f 224/224/222 226/226/224 227/227/225
f 228/228/226 225/225/223 227/227/225
f 228/228/226 221/221/219 225/225/223
f 229/229/227 228/228/226 227/227/225
f 226/226/224 189/189/187 230/230/228
f 231/231/229 226/226/224 230/230/228
f 227/227/225 226/226/224 231/231/229
f 229/229/227 227/227/225 231/231/229
f 230/230/228 189/189/187 190/190/188
f 232/232/230 230/230/228 190/190/188
f 233/233/231 232/232/230 190/190/188
f 192/192/190 233/233/231 190/190/188
f 233/233/231 192/192/190 216/216/214
f 236/234/202 235/235/232 234/236/233
f 237/237/234 236/234/202 234/236/233
f 237/237/234 234/236/233 238/238/235
f 234/236/233 239/239/236 238/238/235
f 238/238/235 239/239/236 240/240/237
f 239/239/236 241/241/238 240/240/237
f 240/240/237 241/241/238 242/242/239
f 241/241/238 243/243/240 242/242/239
f 242/242/239 243/243/240 244/244/241
f 245/245/242 242/242/239 244/244/241
f 245/245/242 244/244/241 246/246/243
f 244/244/241 247/247/244 246/246/243
f 248/248/245 235/235/232 236/234/202
f 249/249/246 248/248/245 236/234/202
f 246/246/243 247/247/244 250/250/247
f 251/251/248 246/246/243 250/250/247
f 252/252/249 120/118/118 128/128/128
f 131/131/131 120/118/118 252/252/249
f 255/253/250 254/254/251 253/255/252
f 256/256/253 255/253/250 253/255/252
f 257/257/254 253/255/252 254/254/251
f 258/258/255 257/257/254 254/254/251
f 259/259/256 257/257/254 258/258/255
f 260/260/257 259/259/256 258/258/255
f 255/253/250 256/256/253 261/261/258
f 256/256/253 262/262/259 261/261/258
f 263/263/260 261/261/258 262/262/259
f 264/264/261 263/263/260 262/262/259
f 259/259/256 260/260/257 265/265/262
f 259/259/256 265/265/262 257/257/254
f 260/260/257 266/266/263 265/265/262
f 267/267/264 265/265/262 266/266/263
f 268/268/265 267/267/264 266/266/263
f 269/269/266 263/263/260 264/264/261
f 270/270/267 269/269/266 264/264/261
f 271/271/268 267/267/264 268/268/265
f 272/272/269 271/271/268 268/268/265
f 273/273/270 269/269/266 270/270/267
f 274/274/271 273/273/270 270/270/267
f 275/275/272 271/271/268 272/272/269
f 276/276/273 275/275/272 272/272/269
f 277/277/274 275/275/272 276/276/273
f 278/278/275 277/277/274 276/276/273
f 279/279/247 273/273/270 274/274/271
f 280/280/276 279/279/247 274/274/271
f 281/281/248 279/279/247 280/280/276
f 282/282/277 281/281/248 280/280/276
f 283/283/278 277/277/274 278/278/275
f 284/284/279 283/283/278 278/278/275
f 285/285/280 283/283/278 284/284/279
f 286/286/281 285/285/280 284/284/279
f 287/287/282 281/281/248 282/282/277
f 288/288/283 287/287/282 282/282/277
f 289/289/284 287/287/282 288/288/283
f 290/290/285 289/289/284 288/288/283
f 291/291/286 285/285/280 286/286/281
f 292/292/287 291/291/286 286/286/281
f 293/293/288 291/291/286 292/292/287
f 294/294/289 293/293/288 292/292/287
f 295/295/290 289/289/284 290/290/285
f 296/296/291 295/295/290 290/290/285
f 297/297/209 295/295/290 296/296/291
f 298/298/292 297/297/209 296/296/291
f 299/299/293 293/293/288 294/294/289
f 300/300/294 299/299/293 294/294/289
f 301/301/295 299/299/293 300/300/294
f 302/302/296 301/301/295 300/300/294
f 303/303/297 297/297/209 298/298/292
f 304/304/298 303/303/297 298/298/292
f 304/304/298 298/298/292 296/296/291
f 303/303/297 304/304/298 305/305/299
f 304/304/298 306/306/300 305/305/299
f 306/306/300 304/304/298 296/296/291
f 305/305/299 306/306/300 307/307/301
f 306/306/300 308/308/302 307/307/301
f 307/307/301 308/308/302 309/309/303
f 308/308/302 310/310/304 309/309/303
f 311/311/305 301/301/295 302/302/296
f 312/312/306 311/311/305 302/302/296
f 311/311/305 312/312/306 313/313/307
f 313/313/307 299/299/293 301/301/295
f 311/311/305 313/313/307 301/301/295
f 312/312/306 314/314/308 313/313/307
f 313/313/307 314/314/308 315/315/309
f 314/314/308 316/316/310 315/315/309
f 310/310/304 315/315/309 316/316/310
f 309/309/303 310/310/304 316/316/310
f 308/308/302 306/306/300 290/290/285
f 306/306/300 296/296/291 290/290/285
f 313/313/307 315/315/309 299/299/293
f 315/315/309 293/293/288 299/299/293
f 293/293/288 315/315/309 317/317/311
f 310/310/304 308/308/302 317/317/311
f 315/315/309 310/310/304 317/317/311
f 291/291/286 293/293/288 317/317/311
f 291/291/286 317/317/311 318/318/311
f 285/285/280 291/291/286 318/318/311
f 318/318/311 319/319/311 285/285/280
f 319/319/311 283/283/278 285/285/280
f 283/283/278 319/319/311 320/320/311
f 277/277/274 283/283/278 320/320/311
f 277/277/274 320/320/311 321/321/311
f 275/275/272 277/277/274 321/321/311
f 275/275/272 321/321/311 322/322/311
f 271/271/268 275/275/272 322/322/311
f 271/271/268 322/322/311 323/323/311
f 267/267/264 271/271/268 323/323/311
f 267/267/264 323/323/311 324/324/311
f 265/265/262 267/267/264 324/324/311
f 265/265/262 324/324/311 257/257/254
f 257/257/254 324/324/311 253/255/252
f 324/324/311 256/256/253 253/255/252
f 324/324/311 323/323/311 256/256/253
f 323/323/311 262/262/259 256/256/253
f 323/323/311 322/322/311 262/262/259
f 322/322/311 264/264/261 262/262/259
f 322/322/311 321/321/311 264/264/261
f 321/321/311 270/270/267 264/264/261
f 321/321/311 320/320/311 270/270/267
f 320/320/311 274/274/271 270/270/267
f 320/320/311 319/319/311 274/274/271
f 319/319/311 280/280/276 274/274/271
f 280/280/276 319/319/311 318/318/311
f 282/282/277 280/280/276 318/318/311
f 318/318/311 317/317/311 282/282/277
f 317/317/311 288/288/283 282/282/277
f 317/317/311 308/308/302 288/288/283
f 308/308/302 290/290/285 288/288/283
f 51/51/51 38/38/38 35/35/35
f 51/51/51 35/35/35 36/36/36
f 53/53/53 51/51/51 36/36/36
f 50/50/50 32/32/32 33/33/33
f 48/48/48 50/50/50 33/33/33
f 48/48/48 33/33/33 34/34/34
f 46/46/46 34/34/34 30/30/30
f 44/44/44 46/46/46 30/30/30
f 44/44/44 30/30/30 31/31/31
f 42/42/42 31/31/31 28/28/28
f 37/37/37 42/42/42 28/28/28
f 68/68/68 63/63/63 55/55/55
f 64/64/64 68/68/68 55/55/55
