# Blender 4.3.2
# www.blender.org
mtllib PiernaDer_T.mtl
o PiernaDer_T
v 1.670357 -1.552324 1.819108
v 0.801425 -0.763973 3.546556
v 1.821389 -1.826533 0.160105
v 1.526012 -1.709567 -1.475912
v 1.065337 -0.861833 -3.291588
v -0.512099 1.127552 -4.624732
v -0.593896 -3.180469 -1.623800
v -2.588015 1.230788 -3.176497
v -1.789673 -3.195933 -0.084822
v -3.729987 1.274271 -0.246995
v -0.875166 -3.188573 1.564966
v -1.398511 1.221372 4.233550
v -1.553456 -3.193888 0.953027
v -3.024341 1.268422 2.717675
v 0.891503 -3.191696 1.268279
v 1.179965 -3.198189 0.176741
v 0.168164 -2.199683 2.339220
v -1.415505 -3.194369 -1.081259
v 0.087440 -3.175535 -1.591507
v -0.097673 -3.201005 1.683398
v 0.941511 -3.194546 -1.008976
v -0.919581 -3.194504 -1.120445
v -1.459477 -3.167078 0.381864
v 0.038453 -3.490058 1.520461
v -0.587619 -3.955248 1.779826
v 0.130757 -4.184278 2.267667
v 0.837130 -4.309566 1.735184
v 0.758336 -3.544510 1.315605
v -0.781202 -4.317802 1.493394
v -0.848755 -4.298759 0.397256
v -0.140371 -4.329288 -0.932014
v 0.858989 -3.985269 0.618840
v 0.531151 -4.318706 -0.700990
v -0.784571 -3.644299 1.144005
vn -0.3672 -0.5227 -0.7694
vn -0.0209 -0.5743 -0.8184
vn -0.1632 -0.8389 -0.5192
vn -0.6966 -0.4490 -0.5596
vn -0.5877 -0.8083 -0.0354
vn -0.8608 -0.3874 -0.3302
vn -0.2666 -0.8209 0.5050
vn -0.1924 -0.5378 0.8208
vn -0.4810 -0.4955 0.7233
vn -0.5171 -0.8112 0.2732
vn -0.7673 -0.4397 0.4668
vn -0.8994 -0.3823 0.2121
vn 0.4430 -0.5816 0.6823
vn 0.4790 -0.5888 0.6511
vn 0.4838 -0.6784 0.5529
vn 0.0616 -0.4740 0.8784
vn 0.3967 -0.4934 0.7740
vn 0.8978 -0.4403 0.0031
vn 0.9192 -0.3936 0.0125
vn 0.8910 -0.4141 -0.1862
vn 0.0373 -0.7313 -0.6810
vn -0.0008 -0.9999 -0.0143
vn -0.4778 -0.8085 -0.3437
vn 0.0814 -0.9965 -0.0195
vn -0.1142 -0.7034 0.7016
vn 0.7351 -0.4525 -0.5048
vn 0.6263 -0.5731 -0.5285
vn 0.5342 -0.5136 -0.6715
vn 0.8997 -0.3768 0.2205
vn 0.8707 -0.4664 0.1559
vn 0.0402 -0.6419 0.7657
vn -0.6354 0.3148 0.7051
vn 0.0438 -0.2172 0.9751
vn 0.0373 0.2067 0.9777
vn 0.7278 -0.5022 0.4670
vn 0.7810 0.1225 0.6124
vn -0.7121 -0.6278 0.3145
vn -0.6069 -0.7945 -0.0218
vn -0.9128 -0.3929 0.1116
vn -0.6554 -0.4964 -0.5692
vn -0.6291 -0.5269 -0.5715
vn 0.4926 -0.7629 -0.4186
vn 0.3892 -0.4264 -0.8165
vn -0.3820 -0.4006 -0.8328
vn 0.9477 -0.3192 0.0065
vn -0.8288 0.1012 0.5503
vn -0.0007 -1.0000 0.0076
vn 0.2751 0.0256 0.9611
vn 0.6550 -0.6075 -0.4494
vt 0.751176 -0.438025
vt 0.812666 -0.446473
vt 0.836080 -0.507833
vt 0.726792 -0.485351
vt 0.826077 -0.549397
vt 0.716800 -0.547300
vt 0.834698 -0.589074
vt 0.809856 -0.655156
vt 0.737600 -0.649500
vt 0.828429 -0.571752
vt 0.722000 -0.607600
vt 0.829300 -0.620600
vt 0.850475 -0.648938
vt 0.844100 -0.603800
vt 0.859781 -0.613453
vt 0.884300 -0.460600
vt 0.884503 -0.487647
vt 0.851069 -0.457535
vt 0.869509 -0.531946
vt 0.854100 -0.539800
vt 0.859400 -0.530200
vt 0.840700 -0.555300
vt 0.847100 -0.538400
vt 0.847183 -0.563915
vt 0.844500 -0.571700
vt 0.865358 -0.579913
vt 0.855000 -0.581200
vt 0.859600 -0.488900
vt 0.843805 -0.497674
vt 0.882304 -0.614754
vt 0.882200 -0.641200
vt 0.921180 -0.481380
vt 0.906881 -0.460613
vt 0.939907 -0.460759
vt 0.909519 -0.433818
vt 0.934941 -0.431623
vt 0.915918 -0.493820
vt 0.918964 -0.521492
vt 0.950082 -0.515645
vt 0.932100 -0.571900
vt 0.891710 -0.558310
vt 0.939900 -0.353300
vt 0.947910 -0.400427
vt 0.906140 -0.368289
vt 0.897400 -0.353700
vt 0.932900 -0.335500
vt 0.906300 -0.592100
vt 0.925400 -0.407700
vt 0.938000 -0.496000
vt 0.653097 -0.524680
vt 0.647571 -0.491702
vt 0.661673 -0.526944
vt 0.669600 -0.515300
vt 0.668198 -0.495330
vt 0.656000 -0.483100
vt 0.946100 -0.426600
vt 0.949477 -0.470665
vt 0.829008 -0.525469
s 1
usemtl Material__16
f 6/1/1 5/2/2 7/3/3
f 8/4/4 9/5/5 10/6/6
f 11/7/7 2/8/8 12/9/9
f 13/10/10 11/7/7 14/11/11
f 9/5/5 13/10/10 10/6/12
f 17/12/13 1/13/14 2/8/15
f 17/12/13 20/14/16 15/15/17
f 3/16/18 16/17/19 4/18/20
f 19/19/21 22/20/22 7/21/3
f 9/22/5 18/23/23 23/24/24
f 23/24/24 13/25/10 9/22/5
f 13/25/10 23/24/24 20/26/25
f 20/26/25 11/27/7 13/25/10
f 21/28/26 4/18/20 16/17/19
f 4/18/27 21/28/26 19/29/28
f 15/15/29 16/30/19 3/31/18
f 3/31/18 1/13/30 15/15/29
f 11/7/7 20/14/25 17/12/31
f 23/24/24 18/23/23 22/20/22
f 7/21/3 22/20/22 18/23/23
f 25/32/32 26/33/33 24/34/34
f 26/33/33 27/35/35 28/36/36
f 28/36/36 24/34/34 26/33/33
f 26/33/33 25/32/32 29/37/37
f 30/38/38 23/39/39 22/40/40
f 22/40/40 31/41/41 30/38/38
f 21/42/26 16/43/19 33/44/42
f 21/42/26 33/44/42 31/45/43
f 31/45/43 19/46/28 21/42/26
f 22/40/40 19/47/44 31/41/41
f 16/43/19 32/48/45 33/44/42
f 34/49/46 25/32/32 24/34/34
f 25/32/32 34/49/46 29/37/37
f 30/38/38 34/49/46 23/39/39
f 28/36/36 27/35/35 32/48/45
f 29/37/37 34/49/46 30/38/38
f 33/50/42 27/51/35 31/52/47
f 31/52/47 27/51/35 30/53/38
f 30/53/38 27/51/35 29/54/37
f 29/54/37 27/51/35 26/55/33
f 15/56/48 24/34/34 28/36/36
f 20/57/16 24/34/34 15/56/17
f 16/43/19 28/36/36 32/48/45
f 34/49/46 20/57/16 23/39/39
f 20/57/16 34/49/46 24/34/34
f 28/36/36 16/43/19 15/56/29
f 32/48/45 27/35/35 33/44/42
f 6/1/1 7/3/3 18/58/23
f 18/58/23 8/4/4 6/1/1
f 8/4/4 18/58/23 9/5/5
f 13/10/10 14/11/11 10/6/12
f 11/7/7 12/9/9 14/11/11
f 11/7/7 17/12/31 2/8/8
f 5/2/2 19/29/21 7/3/3
f 19/29/28 5/2/49 4/18/27
f 17/12/13 15/15/17 1/13/14
