# Blender 4.3.2
# www.blender.org
mtllib PiernaDer_Ember.mtl
o PiernaDer_E
v -0.129230 -0.818899 -0.084659
v -0.103419 -0.749056 -0.067704
v -0.158383 -0.807036 -0.038159
v -0.087351 -0.814503 -0.092403
v -0.118460 -0.770052 0.070743
v -0.175779 -0.800739 0.145898
v -0.196771 -0.841452 0.198777
v -0.164693 -0.953333 -0.046807
v -0.168205 -1.043258 -0.052791
v -0.194264 -0.821575 0.105186
v -0.184591 -0.942135 0.011558
v -0.218023 -1.043232 0.189048
v -0.175232 -0.838624 0.198752
v -0.208955 -1.043246 0.235613
v -0.187115 -1.043210 0.237115
v -0.109542 -0.844752 0.105944
v -0.075422 -1.043244 0.053350
v -0.059159 -0.929893 0.003826
v -0.051689 -0.810700 -0.057453
v -0.128343 -1.043099 -0.090737
v -0.048303 -0.809651 -0.020996
v -0.053877 -1.043246 -0.013482
v -0.196839 -1.043248 0.015573
v -0.076626 -0.946882 0.048297
v -0.171298 -0.926894 -0.025721
v -0.100804 -0.580954 0.007491
v -0.023371 -0.481981 -0.010550
v -0.122855 -0.744872 -0.022587
v -0.095637 -0.743556 -0.012347
v -0.079536 -0.736651 -0.025377
v -0.077196 -0.473416 -0.100036
v -0.139682 -0.490822 -0.050147
v -0.125598 -0.748246 -0.054725
v -0.078511 -0.744872 -0.056239
v -0.121267 -0.482448 -0.086429
v -0.036869 -0.466289 -0.081874
v -0.020031 -0.476265 -0.047346
v -0.123463 -0.382113 -0.011250
v -0.105320 -0.380076 -0.038349
v -0.030518 -0.394322 0.016546
v -0.044721 -0.382814 -0.034710
v -0.074988 -0.381773 -0.045890
v -0.028061 -0.387991 -0.010019
v -0.018329 -0.028570 -0.049360
v -0.077181 -0.061213 -0.032214
v 0.039775 -0.064625 0.001580
v 0.023587 -0.054911 -0.031307
v 0.058978 -0.059810 0.003756
v -0.111788 -0.084369 0.011382
v -0.077612 -0.442753 0.044151
v -0.048924 -0.426718 0.033986
v -0.108732 -0.442347 0.035121
v -0.129335 -0.455905 0.002030
v -0.016119 -0.257395 0.074720
v -0.051401 -0.238467 0.097956
v -0.096573 -0.210938 0.088280
v -0.122205 -0.213554 0.045998
v 0.040090 -0.080916 0.057188
v -0.008610 -0.039815 0.116310
v -0.095852 -0.062069 0.066735
v 0.022840 -0.079109 0.095723
v 0.052233 -0.064486 0.096202
v -0.006622 0.009823 -0.050162
v -0.050571 0.035033 0.005790
v -0.031009 0.022452 0.103884
v 0.008875 -0.000178 0.118505
v 0.048011 -0.017852 -0.063174
v -0.054151 0.036182 0.057096
v -0.056208 -1.043263 -0.067493
vn -0.5426 0.1610 -0.8244
vn -0.0875 0.1838 -0.9791
vn 0.2827 0.1748 -0.9431
vn -0.8290 0.2442 -0.5031
vn -0.8981 0.2460 -0.3646
vn -0.9249 0.3744 -0.0663
vn -0.7749 0.5292 0.3458
vn -0.3293 0.8628 0.3836
vn 0.9078 0.1397 0.3956
vn -0.0946 0.7255 0.6817
vn 0.3895 0.7952 0.4648
vn -0.6440 0.4334 0.6305
vn 0.8221 0.1426 -0.5512
vn 0.8986 0.1770 -0.4015
vn 0.9602 0.2076 0.1870
vn 0.8399 0.1710 0.5151
vn 0.3661 0.4715 0.8023
vn 0.0499 -0.6804 -0.7311
vn -0.9387 -0.2923 0.1827
vn -0.7203 -0.2372 -0.6519
vn -0.5545 -0.7364 -0.3876
vn -0.8640 -0.5028 0.0248
vn -0.3612 -0.4233 -0.8309
vn -0.7655 -0.6425 0.0349
vn -0.5457 -0.5260 0.6523
vn 0.3398 -0.8812 0.3286
vn 0.8518 -0.2903 0.4360
vn 0.8922 -0.3893 0.2290
vn 0.7061 -0.6963 0.1289
vn 0.6041 -0.7179 -0.3461
vn 0.2302 -0.7786 0.5838
vn -0.9296 -0.0424 0.3661
vn -0.9868 0.0543 -0.1524
vn -0.2468 -0.1621 0.9554
vn -0.6129 -0.0987 0.7840
vn 0.1472 -0.2797 0.9487
vn 0.6534 -0.2999 0.6951
vn 0.9042 -0.1730 0.3906
vn 0.9757 -0.0282 -0.2172
vn 0.6632 0.1451 -0.7343
vn 0.0468 0.1741 -0.9836
vn -0.6327 0.1518 -0.7593
vn -0.9461 0.1343 -0.2946
vn -0.5859 0.2629 -0.7665
vn 0.9442 -0.1648 0.2851
vn 0.0415 0.2853 -0.9575
vn 0.9754 -0.0160 -0.2198
vn 0.6288 0.1582 -0.7613
vn -0.9530 0.2269 -0.2009
vn -0.6208 0.2218 -0.7519
vn 0.8864 -0.4396 0.1450
vn -0.1592 -0.0420 -0.9863
vn 0.6561 -0.6513 -0.3813
vn 0.4151 -0.3592 -0.8359
vn 0.2517 -0.9196 -0.3016
vn -0.2433 -0.3906 -0.8878
vn -0.5888 0.1004 -0.8020
vn -0.8480 0.3659 -0.3835
vn -0.9335 0.2195 0.2834
vn 0.7000 -0.2648 0.6632
vn 0.0731 -0.1942 0.9782
vn -0.5976 -0.0331 0.8011
vn -0.9710 0.0307 0.2373
vn 0.5235 -0.4044 0.7500
vn -0.0627 -0.0524 0.9967
vn -0.8439 0.2439 0.4779
vn -0.6565 0.0579 0.7521
vn 0.2458 -0.6219 0.7435
vn -0.4501 -0.4230 0.7864
vt 0.198001 0.864248
vt 0.205669 0.834940
vt 0.212312 0.870650
vt 0.193367 0.834236
vt 0.176381 0.859995
vt 0.114159 0.850724
vt 0.177993 0.826251
vt 0.103429 0.833780
vt 0.185743 0.804183
vt 0.176894 0.813836
vt 0.141612 0.818122
vt 0.076060 0.837303
vt 0.211367 0.797384
vt 0.197942 0.799259
vt 0.205825 0.766482
vt 0.187360 0.773534
vt 0.172016 0.778046
vt 0.117668 0.795015
vt 0.078282 0.829407
vt 0.604988 0.815952
vt 0.594870 0.728996
vt 0.617589 0.807786
vt 0.628765 0.760189
vt 0.641164 0.806558
vt 0.652584 0.759102
vt 0.701219 0.794846
vt 0.618043 0.723369
vt 0.640221 0.768301
vt 0.649591 0.716801
vt 0.722978 0.702303
vt 0.743260 0.786873
vt 0.743108 0.699316
vt 0.752377 0.787380
vt 0.752323 0.699944
vt 0.801352 0.789856
vt 0.843436 0.716732
vt 0.838746 0.756945
vt 0.861611 0.807004
vt 0.854460 0.765794
vt 0.896039 0.814841
vt 0.875872 0.808799
vt 0.895619 0.726538
vt 0.919424 0.730520
vt 0.872871 0.722240
vt 0.006455 0.829166
vt 0.055240 0.829858
vt 0.055388 0.871582
vt 0.004150 0.872070
vt 0.055775 0.807743
vt 0.006525 0.811288
vt 0.006517 0.795786
vt 0.054930 0.758306
vt 0.004150 0.758301
vt 0.436191 0.310462
vt 0.461988 0.315871
vt 0.513551 0.414392
vt 0.444727 0.363015
vt 0.417920 0.312627
vt 0.404761 0.321634
vt 0.503009 0.421944
vt 0.388812 0.326297
vt 0.479158 0.433368
vt 0.393234 0.357864
vt 0.492312 0.429891
vt 0.119796 0.195588
vt 0.128204 0.206418
vt 0.031219 0.259852
vt 0.024862 0.249562
vt 0.113112 0.184862
vt 0.101027 0.175977
vt 0.078700 0.154065
vt 0.089289 0.165771
vt 0.008147 0.232462
vt 0.016372 0.239843
vt 0.118100 0.126032
vt 0.125957 0.139058
vt 0.160214 0.185088
vt 0.134975 0.152547
vt 0.153400 0.174702
vt 0.145190 0.163659
vt 0.205451 0.044742
vt 0.227791 0.053209
vt 0.279527 0.127751
vt 0.257551 0.056503
vt 0.279259 0.098624
vt 0.271528 0.078982
vt 0.288549 0.098549
vt 0.285274 0.060459
vt 0.267773 0.042402
vt 0.250296 0.017940
vt 0.241848 0.004133
vt 0.371370 0.324349
vt 0.426979 0.279394
vt 0.336148 0.270506
vt 0.344303 0.253464
vt 0.267053 0.231977
vt 0.354200 0.234657
vt 0.372408 0.226054
vt 0.353329 0.173865
vt 0.278286 0.214109
vt 0.288083 0.187009
vt 0.329971 0.178320
vt 0.289801 0.158303
vt 0.302788 0.143273
vt 0.259433 0.210362
vt 0.273177 0.174255
vt 0.460571 0.247678
vt 0.511693 0.246899
vt 0.474524 0.321008
vt 0.491348 0.335925
vt 0.483845 0.338530
vt 0.372602 0.008154
vt 0.411608 0.028062
vt 0.360950 0.027275
vt 0.403052 0.008215
s 1
usemtl Ember_Costume_01_Mat
f 1/1/1 2/2/2 4/3/3
f 1/1/1 33/4/4 2/2/2
f 3/5/5 33/4/4 1/1/1
f 3/5/5 10/6/6 33/4/4
f 33/4/4 10/6/6 28/7/7
f 10/6/6 6/8/8 28/7/7
f 30/9/9 29/10/10 5/11/11
f 5/11/11 29/10/10 28/7/7
f 28/7/7 6/8/8 5/11/11
f 10/6/6 7/12/12 6/8/8
f 2/13/2 34/14/13 4/15/3
f 34/14/13 30/9/9 19/16/14
f 34/14/13 19/16/14 4/15/3
f 30/9/9 21/17/15 19/16/14
f 21/17/15 30/9/9 5/11/11
f 21/17/15 5/11/11 16/18/16
f 16/18/16 5/11/11 13/19/17
f 6/8/8 13/19/17 5/11/11
f 6/8/8 7/12/12 13/19/17
f 4/20/3 20/21/18 1/22/1
f 1/22/1 8/23/19 3/24/5
f 3/24/5 11/25/20 10/26/6
f 1/22/1 20/21/18 8/23/19
f 20/21/18 9/27/21 8/23/19
f 8/23/19 25/28/22 3/24/5
f 3/24/5 25/28/22 11/25/20
f 11/25/20 23/29/23 10/26/6
f 23/29/23 12/30/24 10/26/6
f 10/26/6 12/30/24 7/31/12
f 7/31/12 12/30/24 14/32/25
f 7/31/12 14/32/25 13/33/17
f 14/32/25 15/34/26 13/33/17
f 13/33/17 15/34/26 16/35/16
f 15/34/26 17/36/27 16/35/16
f 16/35/16 24/37/28 21/38/15
f 16/35/16 17/36/27 24/37/28
f 24/37/28 18/39/29 21/38/15
f 4/40/3 19/41/14 69/42/30
f 21/38/15 69/42/30 19/41/14
f 69/42/30 20/43/18 4/40/3
f 22/44/31 21/38/15 18/39/29
f 21/38/15 22/44/31 69/42/30
f 11/45/20 24/46/28 17/47/27
f 11/45/20 17/47/27 23/48/23
f 18/49/29 24/46/28 11/45/20
f 18/49/29 11/45/20 25/50/22
f 25/50/22 8/51/19 18/49/29
f 8/51/19 22/52/31 18/49/29
f 8/51/19 9/53/21 22/52/31
f 53/54/32 32/55/33 33/56/4
f 26/57/34 52/58/35 53/54/32
f 50/59/36 52/58/35 26/57/34
f 28/60/7 53/54/32 33/56/4
f 51/61/37 50/59/36 26/57/34
f 26/57/34 53/54/32 28/60/7
f 30/62/9 51/61/37 26/57/34
f 27/63/38 51/61/37 30/62/9
f 29/64/10 26/57/34 28/60/7
f 30/62/9 26/57/34 29/64/10
f 37/65/39 27/66/38 30/67/9
f 34/68/13 37/65/39 30/67/9
f 36/69/40 37/65/39 34/68/13
f 31/70/41 36/69/40 34/68/13
f 32/71/33 35/72/42 33/73/4
f 33/73/4 35/72/42 31/70/41
f 2/74/2 31/70/41 34/68/13
f 33/73/4 31/70/41 2/74/2
f 32/71/33 38/75/43 35/72/42
f 38/75/43 39/76/44 35/72/42
f 35/72/42 39/76/44 31/70/41
f 37/65/39 40/77/45 27/66/38
f 39/76/44 42/78/46 31/70/41
f 31/70/41 42/78/46 36/69/40
f 37/65/39 43/79/47 40/77/45
f 36/69/40 43/79/47 37/65/39
f 36/69/40 41/80/48 43/79/47
f 42/78/46 41/80/48 36/69/40
f 39/76/44 38/75/43 49/81/49
f 45/82/50 39/76/44 49/81/49
f 42/78/46 39/76/44 45/82/50
f 58/83/51 40/77/45 43/79/47
f 41/80/48 42/78/46 44/84/52
f 44/84/52 42/78/46 45/82/50
f 58/83/51 43/79/47 46/85/53
f 41/80/48 47/86/54 43/79/47
f 47/86/54 41/80/48 44/84/52
f 47/86/54 46/85/53 43/79/47
f 46/85/53 48/87/55 58/83/51
f 48/87/55 46/85/53 47/86/54
f 44/84/52 67/88/56 47/86/54
f 44/84/52 63/89/57 67/88/56
f 63/89/57 44/84/52 45/82/50
f 63/89/57 45/82/50 64/90/58
f 45/82/50 49/81/49 64/90/58
f 68/91/59 64/90/58 49/81/49
f 27/63/38 40/92/45 51/61/37
f 53/54/32 38/93/43 32/55/33
f 54/94/60 51/61/37 40/92/45
f 50/59/36 51/61/37 54/94/60
f 55/95/61 50/59/36 54/94/60
f 52/58/35 50/59/36 55/95/61
f 54/94/60 40/92/45 58/96/51
f 56/97/62 52/58/35 55/95/61
f 53/54/32 52/58/35 56/97/62
f 38/93/43 53/54/32 57/98/63
f 57/98/63 53/54/32 56/97/62
f 49/99/49 38/93/43 57/98/63
f 61/100/64 54/94/60 58/96/51
f 55/95/61 54/94/60 61/100/64
f 59/101/65 55/95/61 61/100/64
f 55/95/61 59/101/65 56/97/62
f 57/98/63 56/97/62 60/102/66
f 60/102/66 49/99/49 57/98/63
f 65/103/67 60/102/66 56/97/62
f 65/103/67 56/97/62 59/101/65
f 49/99/49 60/102/66 68/104/59
f 62/105/68 61/100/64 58/96/51
f 62/105/68 59/101/65 61/100/64
f 62/105/68 66/106/69 59/101/65
f 66/106/69 65/103/67 59/101/65
f 60/102/66 65/103/67 68/104/59
f 23/107/23 17/108/27 12/109/24
f 17/108/27 15/110/26 12/109/24
f 12/109/24 15/110/26 14/111/25
f 20/112/18 22/113/31 9/114/21
f 69/115/30 22/113/31 20/112/18
