# Blender 4.3.2
# www.blender.org
mtllib PiernaDer_A.mtl
o PiernaDerA
v -0.362796 -11.852704 -0.351522
v -0.400675 -10.988317 0.254582
v 0.099348 -11.005237 -0.708453
v 0.491799 -10.507721 -0.388260
v 0.513104 -10.987851 0.272503
v 0.041185 -10.826826 0.667591
v -0.917321 -3.817173 -0.410932
v -1.111560 -0.184080 1.314193
v 0.082487 -3.681460 -1.084392
v 1.132072 -3.670329 -0.012446
v 0.734053 -3.925929 1.136271
v 0.095475 -3.891830 1.461366
v -0.572710 -12.097117 2.650309
v -0.508205 -11.765990 1.465526
v -0.576036 -11.863783 0.681267
v 0.038236 -11.245640 0.991852
v 0.591349 -11.513614 0.772830
v 0.836709 -12.095250 2.668500
v 0.631656 -11.873926 -0.261708
v 0.135876 -12.364839 2.233509
v -0.414180 -12.199377 0.006067
v 0.138815 -12.326419 -0.246880
v 0.103246 -12.129589 -0.628767
v 0.530254 -12.204543 -0.222937
v -0.409681 -11.894377 2.822014
v 0.179377 -11.728510 2.841223
v 0.691176 -12.052890 3.262077
v 0.706903 -12.286204 3.051353
v -0.439247 -12.315401 2.643981
v 0.219899 -12.090929 3.561013
v -0.190168 -12.092188 3.429569
v -0.024377 -12.312328 3.368499
v -1.260800 -0.094405 -0.650150
v 0.124150 0.027945 -1.479260
v 1.464275 0.124045 0.036325
v 0.856055 0.212245 1.654130
v 0.186275 0.232995 1.933655
vn -0.8897 -0.0828 -0.4490
vn -0.8169 -0.1710 -0.5509
vn -0.9514 0.0801 0.2972
vn -0.7872 -0.1053 0.6077
vn 0.1077 -0.0859 -0.9905
vn 0.0705 -0.0569 -0.9959
vn 0.9720 -0.0872 -0.2181
vn 0.8927 -0.0098 -0.4505
vn 0.7554 -0.1168 0.6448
vn 0.9421 0.1712 0.2882
vn 0.0152 -0.1226 0.9923
vn -0.0493 0.2647 0.9631
vn -0.9762 -0.0321 0.2143
vn -0.7824 0.6148 0.0993
vn -0.9970 0.0744 0.0208
vn -0.1438 0.8498 0.5072
vn 0.9974 0.0384 0.0617
vn 0.8933 -0.0891 -0.4406
vn 0.8644 0.4767 0.1596
vn -0.7267 -0.6456 -0.2347
vn -0.0039 -0.9649 -0.2627
vn 0.0317 -0.9994 -0.0166
vn -0.0106 -0.4932 -0.8699
vn 0.6690 -0.6601 -0.3417
vn -0.6084 0.7299 0.3116
vn -0.6228 0.2124 0.7530
vn 0.0258 0.9541 0.2984
vn 0.1433 0.1311 0.9810
vn 0.7220 0.2656 0.6389
vn 0.6208 -0.7333 0.2773
vn -0.2238 -0.8359 0.5012
vn -0.5570 -0.8177 0.1458
vn -0.8694 -0.1030 -0.4832
vn 0.1822 -0.0953 -0.9786
vn 0.9850 -0.0774 -0.1539
vn 0.6964 -0.1029 0.7103
vn 0.0332 -0.1144 0.9929
vt 0.922953 0.228407
vt 0.947004 0.075791
vt 0.908046 0.085058
vt 0.884399 0.297422
vt 0.951938 0.229305
vt 0.964930 0.098025
vt 0.987833 0.227257
vt 0.988500 0.111018
vt 0.846211 0.223044
vt 0.844488 0.089668
vt 0.815300 0.105873
vt 0.815543 0.222914
vt 0.863339 0.226316
vt 0.875844 0.085772
vt 0.874527 0.027275
vt 0.888000 0.052000
vt 0.912024 0.067375
vt 0.874360 0.072386
vt 0.841573 0.036600
vt 0.817542 0.086352
vt 0.847288 0.074256
vt 0.956229 0.382896
vt 0.966563 0.389588
vt 0.972409 0.333591
vt 0.972392 0.078698
vt 0.988500 0.088700
vt 0.943429 0.066481
vt 0.988500 0.082500
vt 0.816498 0.082689
vt 0.964900 0.397000
vt 0.974735 0.389836
vt 0.868717 0.028042
vt 0.859903 0.018073
vt 0.857423 0.033383
vt 0.851990 0.018856
vt 0.845036 0.025223
vt 0.839621 0.026156
vt 0.856709 0.013668
vt 0.877039 0.022220
vt 0.958962 0.323051
vt 0.969449 0.308535
vt 0.983518 0.316078
vt 0.923300 0.298700
vt 0.953800 0.292500
vt 0.988500 0.275200
vt 0.815300 0.270300
vt 0.842700 0.291900
vt 0.855400 0.299500
s 1
usemtl joy_body_mat
f 7/1/1 1/2/2 2/3/3
f 2/3/3 8/4/4 7/1/1
f 9/5/5 3/6/6 1/2/2
f 1/2/2 7/1/1 9/5/5
f 10/7/7 4/8/8 3/6/6
f 3/6/6 9/5/5 10/7/7
f 11/9/9 5/10/10 4/11/8
f 4/11/8 10/12/7 11/9/9
f 12/13/11 6/14/12 5/10/10
f 5/10/10 11/9/9 12/13/11
f 8/4/4 2/3/3 6/14/12
f 6/14/12 12/13/11 8/4/4
f 13/15/13 14/16/14 15/17/15
f 16/18/16 15/17/15 14/16/14
f 18/19/17 19/20/18 17/21/19
f 21/22/20 22/23/21 20/24/22
f 6/14/12 16/18/16 17/21/19
f 17/21/19 5/10/10 6/14/12
f 2/3/3 15/17/15 16/18/16
f 16/18/16 6/14/12 2/3/3
f 19/20/18 5/10/10 17/21/19
f 1/2/2 15/17/15 2/3/3
f 3/6/6 23/25/23 1/2/2
f 23/25/23 3/6/6 4/8/8
f 4/8/8 19/26/18 23/25/23
f 19/20/18 4/11/8 5/10/10
f 21/27/20 13/15/13 15/17/15
f 21/27/20 15/17/15 1/2/2
f 23/25/23 21/27/20 1/2/2
f 23/25/23 19/26/18 24/28/24
f 24/29/24 19/20/18 18/19/17
f 23/30/23 22/23/21 21/22/20
f 24/31/24 20/24/22 22/23/21
f 23/30/23 24/31/24 22/23/21
f 25/32/25 13/15/13 31/33/26
f 26/34/27 30/35/28 27/36/29
f 25/32/25 31/33/26 30/35/28
f 30/35/28 26/34/27 25/32/25
f 28/37/30 18/19/17 27/36/29
f 28/37/30 27/36/29 30/35/28
f 30/35/28 32/38/31 28/37/30
f 32/38/31 30/35/28 31/33/26
f 32/38/31 31/33/26 13/15/13
f 13/15/13 29/39/32 32/38/31
f 29/40/32 20/24/22 32/41/31
f 32/41/31 20/24/22 28/42/30
f 14/16/14 25/32/25 26/34/27
f 26/34/27 16/18/16 14/16/14
f 16/18/16 26/34/27 27/36/29
f 27/36/29 17/21/19 16/18/16
f 17/21/19 27/36/29 18/19/17
f 28/37/30 24/29/24 18/19/17
f 24/31/24 28/42/30 20/24/22
f 29/40/32 21/22/20 20/24/22
f 21/27/20 29/39/32 13/15/13
f 25/32/25 14/16/14 13/15/13
f 8/4/4 33/43/33 7/1/1
f 33/43/33 34/44/34 9/5/5
f 9/5/5 7/1/1 33/43/33
f 34/44/34 35/45/35 10/7/7
f 10/7/7 9/5/5 34/44/34
f 35/46/35 36/47/36 11/9/9
f 11/9/9 10/12/7 35/46/35
f 36/47/36 37/48/37 12/13/11
f 12/13/11 11/9/9 36/47/36
f 12/13/11 37/48/37 8/4/4
