# Blender 4.3.2
# www.blender.org
mtllib PiernaIzq_Pena.mtl
o PiernaIzq_Pena
v 0.020331 -0.260615 -0.085971
v 0.000331 -0.260615 -0.085971
v -0.029668 -0.260615 -0.085971
v -0.049668 -0.260615 -0.085971
v -0.069669 -0.260615 -0.065972
v 0.030333 -0.260615 -0.065972
v -0.069669 -0.260615 -0.045972
v 0.040332 -0.260615 -0.045972
v -0.069669 -0.260615 0.024028
v 0.040332 -0.260615 0.024028
v -0.069669 -0.260615 0.064028
v 0.040332 -0.260615 0.064028
v -0.069669 -0.260615 0.104028
v 0.040332 -0.260615 0.104028
v -0.059667 -0.260615 0.124028
v 0.030333 -0.260615 0.124028
v -0.049668 -0.260615 0.134029
v 0.020331 -0.260615 0.134029
v -0.029668 -0.260615 0.144029
v -0.009668 -0.260615 0.144029
v -0.049668 -0.290615 0.134029
v -0.049668 -0.300615 0.134029
v -0.029668 -0.300615 0.144029
v -0.029668 -0.290615 0.144029
v -0.009668 -0.300615 0.144029
v -0.009668 -0.290615 0.144029
v 0.010333 -0.300615 0.134029
v 0.020331 -0.290615 0.134029
v -0.059667 -0.290615 0.124028
v -0.059667 -0.300615 0.124028
v -0.069669 -0.290615 0.104028
v -0.069669 -0.300615 0.104028
v -0.069669 -0.290615 0.064028
v -0.069669 -0.300615 0.064028
v 0.030333 -0.300615 0.124028
v 0.030333 -0.290615 0.124028
v 0.030333 -0.300615 0.104028
v 0.040332 -0.290615 0.104028
v 0.030333 -0.300615 0.064028
v 0.040332 -0.290615 0.064028
v -0.069669 -0.290615 0.024028
v -0.069669 -0.300615 0.024028
v -0.069669 -0.290615 -0.045972
v -0.069669 -0.300615 -0.045972
v -0.059667 -0.290615 -0.065972
v -0.059667 -0.300615 -0.065972
v -0.049668 -0.290615 -0.085971
v -0.049668 -0.300615 -0.075971
v -0.029668 -0.290615 -0.085971
v -0.029668 -0.300615 -0.085971
v 0.000331 -0.290615 -0.085971
v 0.000331 -0.300615 -0.085971
v 0.020331 -0.290615 -0.085971
v 0.010333 -0.300615 -0.075971
v 0.030333 -0.290615 -0.065972
v 0.030333 -0.300615 -0.065972
v 0.040332 -0.290615 -0.045972
v 0.030333 -0.300615 -0.045972
v 0.030333 -0.300615 0.024028
v 0.040332 -0.290615 0.024028
v -0.009668 -0.170615 -0.095972
v -0.029668 -0.170615 -0.085971
v -0.029668 -0.160615 -0.085971
v -0.009668 -0.150615 -0.095972
v 0.020331 -0.170615 -0.085971
v 0.020331 -0.150615 -0.085971
v 0.040332 -0.170615 -0.055972
v 0.050333 -0.150615 -0.055972
v 0.050333 -0.160615 -0.035971
v 0.060332 -0.150615 -0.025972
v -0.049668 -0.160615 -0.065972
v -0.049668 -0.180615 -0.065972
v -0.059667 -0.160615 -0.045972
v -0.059667 -0.180615 -0.045972
v 0.050333 -0.170615 -0.015972
v 0.060332 -0.150615 -0.005972
v 0.050333 -0.150615 0.004029
v 0.040332 -0.170615 0.004029
v 0.030333 -0.170615 0.014029
v 0.040332 -0.150615 0.024028
v 0.020331 -0.170615 0.024028
v 0.020331 -0.160615 0.034028
v -0.029668 -0.180615 0.024028
v -0.009668 -0.180615 0.024028
v -0.009668 -0.160615 0.044028
v -0.029668 -0.170615 0.034028
v -0.049668 -0.180615 0.004029
v -0.049668 -0.170615 0.014029
v -0.059667 -0.180615 -0.015972
v -0.059667 -0.160615 -0.015972
v -0.009668 -0.170615 -0.085971
v 0.000331 -0.150615 -0.095972
v -0.029668 -0.150615 -0.085971
v 0.010333 -0.170615 -0.075971
v 0.020331 -0.150615 -0.075971
v 0.030333 -0.170615 -0.055972
v 0.050333 -0.140615 -0.055972
v 0.040332 -0.170615 -0.035971
v 0.050333 -0.140615 -0.025972
v -0.049668 -0.160615 -0.035971
v -0.049668 -0.180615 -0.045972
v 0.040332 -0.170615 -0.015972
v 0.050333 -0.150615 -0.005972
v 0.040332 -0.170615 -0.005972
v 0.030333 -0.150615 0.024028
v 0.020331 -0.150615 0.034028
v 0.010333 -0.180615 0.014029
v -0.029668 -0.180615 0.014029
v -0.029668 -0.160615 0.024028
v 0.000331 -0.160615 0.034028
v -0.039667 -0.160615 0.014029
v -0.049668 -0.160615 -0.015972
v -0.049668 -0.180615 -0.025972
v -0.009668 -0.220615 0.014029
v -0.029668 -0.220615 0.014029
v -0.029668 -0.210615 0.034028
v -0.009668 -0.210615 0.034028
v -0.029668 -0.220615 -0.015972
v -0.009668 -0.220615 -0.015972
v 0.000331 -0.220615 0.034028
v 0.000331 -0.220615 0.014029
v 0.000331 -0.220615 -0.015972
v -0.029668 -0.220615 0.034028
v -0.069669 -0.250615 0.034028
v -0.069669 -0.260615 0.034028
v -0.069669 -0.260615 0.074028
v -0.069669 -0.240615 0.074028
v -0.069669 -0.230615 0.074028
v -0.069669 -0.230615 0.034028
v -0.069669 -0.210615 0.074028
v -0.059667 -0.220615 0.034028
v -0.049668 -0.210615 0.074028
v -0.049668 -0.220615 0.024028
v -0.039667 -0.200615 0.074028
v -0.039667 -0.210615 0.024028
v -0.019666 -0.200615 0.074028
v -0.019666 -0.210615 0.024028
v 0.000331 -0.200615 0.074028
v 0.000331 -0.210615 0.024028
v 0.020331 -0.200615 0.074028
v 0.020331 -0.220615 0.034028
v 0.030333 -0.220615 0.074028
v 0.030333 -0.220615 0.034028
v 0.040332 -0.230615 0.074028
v 0.030333 -0.240615 0.034028
v 0.040332 -0.240615 0.074028
v 0.040332 -0.250615 0.034028
v 0.040332 -0.250615 0.074028
v 0.040332 -0.260615 0.074028
v 0.040332 -0.260615 0.024028
v -0.069669 -0.240615 0.034028
v -0.059667 -0.220615 0.074028
v -0.059667 -0.230615 0.034028
v -0.049668 -0.220615 0.034028
v -0.039667 -0.210615 0.074028
v -0.039667 -0.220615 0.034028
v -0.019666 -0.210615 0.074028
v -0.019666 -0.220615 0.034028
v 0.000331 -0.210615 0.074028
v 0.010333 -0.210615 0.074028
v 0.020331 -0.230615 0.034028
v 0.030333 -0.250615 0.034028
v 0.030333 -0.260615 0.034028
v 0.030333 -0.260615 0.074028
v 0.030333 -0.230615 -0.075971
v 0.030333 -0.240615 -0.045972
v 0.030333 -0.220615 -0.065972
v 0.030333 -0.240615 -0.075971
v 0.040332 -0.250615 -0.075971
v 0.040332 -0.260615 -0.065972
v 0.040332 -0.270615 -0.045972
v 0.040332 -0.260615 -0.035971
v 0.040332 -0.250615 -0.025972
v 0.030333 -0.230615 -0.025972
v 0.030333 -0.220615 -0.035971
v 0.030333 -0.210615 -0.045972
v 0.020331 -0.230615 -0.015972
v 0.020331 -0.230615 -0.025972
v 0.000331 -0.230615 -0.015972
v -0.019666 -0.220615 -0.015972
v -0.039667 -0.220615 -0.015972
v -0.039667 -0.230615 -0.015972
v -0.059667 -0.230615 -0.025972
v -0.059667 -0.230615 -0.015972
v -0.069669 -0.230615 -0.025972
v -0.069669 -0.250615 -0.025972
v 0.040332 -0.240615 -0.045972
v 0.040332 -0.230615 -0.075971
v 0.040332 -0.220615 -0.065972
v 0.040332 -0.240615 -0.075971
v 0.040332 -0.240615 -0.025972
v 0.040332 -0.220615 -0.035971
v 0.040332 -0.230615 -0.025972
v 0.030333 -0.230615 -0.015972
v -0.019666 -0.220615 -0.005972
v -0.069669 -0.260615 -0.035971
v -0.069669 -0.270615 -0.045972
v -0.069669 -0.260615 -0.065972
v -0.069669 -0.250615 -0.075971
v -0.069669 -0.240615 -0.075971
v -0.069669 -0.230615 -0.075971
v -0.069669 -0.220615 -0.065972
v -0.069669 -0.210615 -0.045972
v -0.069669 -0.220615 -0.035971
v -0.069669 -0.240615 -0.025972
v -0.069669 -0.240615 -0.045972
v -0.009668 -0.240615 0.084028
v -0.019666 -0.240615 0.084028
v -0.019666 -0.260615 0.074028
v -0.009668 -0.260615 0.074028
v -0.019666 -0.230615 0.084028
v -0.009668 -0.230615 0.084028
v -0.009668 -0.210615 0.084028
v -0.019666 -0.210615 0.084028
v -0.009668 -0.210615 0.074028
v -0.029668 -0.210615 0.074028
v -0.029668 -0.200615 0.064028
v -0.009668 -0.210615 0.064028
v -0.019666 -0.220615 0.084028
v -0.009668 -0.220615 0.084028
v -0.029668 -0.210615 0.054029
v -0.019666 -0.210615 0.054029
v 0.000331 -0.210615 0.054029
v -0.009668 -0.210615 -0.005972
v -0.029668 -0.210615 -0.005972
v -0.009668 -0.200615 0.004029
v -0.029668 -0.200615 0.004029
v 0.000331 -0.130615 -0.095972
v -0.029668 -0.140615 -0.085971
v -0.029668 -0.120615 -0.095972
v 0.000331 -0.110615 -0.095972
v -0.049668 -0.130615 -0.065972
v -0.049668 -0.140615 -0.065972
v -0.059667 -0.130615 -0.035971
v -0.049668 -0.140615 -0.035971
v 0.030333 -0.120615 -0.085971
v 0.040332 -0.100615 -0.085971
v 0.060332 -0.120615 -0.055972
v 0.070334 -0.090615 -0.055972
v 0.070334 -0.090615 -0.025972
v 0.060332 -0.120615 -0.025972
v -0.009668 -0.200615 -0.085971
v -0.039667 -0.200615 -0.085971
v -0.049668 -0.200615 -0.065972
v -0.059667 -0.200615 -0.045972
v 0.010333 -0.200615 -0.075971
v 0.020331 -0.200615 -0.055972
v 0.030333 -0.200615 -0.045972
v -0.009668 -0.210615 -0.085971
v -0.039667 -0.210615 -0.085971
v -0.009668 -0.220615 -0.085971
v -0.039667 -0.220615 -0.085971
v -0.059667 -0.220615 -0.065972
v -0.059667 -0.210615 -0.065972
v 0.010333 -0.220615 -0.075971
v 0.010333 -0.210615 -0.075971
v -0.059667 -0.210615 -0.055972
v -0.069669 -0.220615 -0.055972
v 0.030333 -0.210615 -0.065972
v 0.030333 -0.220615 -0.045972
v -0.059667 -0.210615 -0.035971
v -0.059667 -0.220615 -0.035971
v -0.049668 -0.210615 -0.015972
v -0.049668 -0.200615 -0.015972
v -0.059667 -0.200615 -0.025972
v -0.049668 -0.220615 -0.025972
v -0.039667 -0.150615 0.024028
v -0.049668 -0.140615 -0.005972
v -0.049668 -0.130615 0.024028
v -0.059667 -0.130615 -0.005972
v -0.049668 -0.120615 0.034028
v -0.069669 -0.120615 -0.005972
v -0.059667 -0.100615 0.034028
v -0.069669 -0.110615 0.004029
v -0.069669 -0.090615 0.044028
v -0.079667 -0.100615 0.004029
v -0.079667 -0.080615 0.044028
v -0.089669 -0.090615 0.004029
v -0.079667 -0.070615 0.044028
v -0.099668 -0.080615 0.004029
v -0.089669 -0.060615 0.044028
v -0.109667 -0.070615 0.004029
v -0.039667 -0.090615 0.064028
v -0.029668 -0.110615 0.064028
v -0.009668 -0.070615 0.084028
v 0.000331 -0.090615 0.074028
v 0.030333 -0.050615 0.074028
v 0.030333 -0.080615 0.064028
v 0.000331 -0.120615 0.064028
v 0.020331 -0.110615 0.054029
v 0.000331 -0.140615 0.044028
v -0.029668 -0.150615 0.044028
v -0.029668 -0.130615 0.054029
v 0.020331 -0.140615 0.044028
v -0.009668 -0.160615 0.034028
v -0.039667 -0.200615 -0.005972
v 0.010333 -0.200615 -0.005972
v -0.039667 -0.210615 -0.015972
v 0.000331 -0.220615 -0.025972
v 0.010333 -0.210615 -0.015972
v 0.010333 -0.220615 -0.025972
v 0.020331 -0.210615 -0.025972
v 0.020331 -0.220615 -0.035971
v 0.020331 -0.200615 -0.015972
v 0.020331 -0.200615 -0.005972
v 0.030333 -0.170615 -0.005972
v 0.020331 -0.170615 0.014029
v 0.040332 -0.150615 0.004029
v 0.050333 -0.130615 0.014029
v 0.040332 -0.130615 0.034028
v 0.050333 -0.100615 0.044028
v 0.060332 -0.100615 0.024028
v 0.060332 -0.120615 -0.005972
v 0.070334 -0.090615 0.004029
v 0.030333 -0.200615 -0.025972
v 0.030333 -0.210615 -0.035971
v 0.080332 -0.060615 -0.025972
v 0.070334 -0.070615 0.004029
v 0.090331 -0.030615 -0.025972
v 0.080332 -0.030615 0.004029
v 0.090331 0.009385 -0.025972
v 0.090331 -0.000615 0.004029
v 0.100333 0.049385 -0.035971
v 0.090331 0.049385 0.004029
v 0.090331 0.069385 -0.035971
v 0.090331 0.069385 0.004029
v 0.080332 0.089385 -0.035971
v 0.080332 0.089385 0.004029
v 0.070334 -0.030615 0.034028
v 0.070334 -0.070615 0.034028
v 0.050333 -0.070615 0.054029
v 0.050333 -0.040615 0.064028
v 0.070334 -0.000615 0.034028
v 0.050333 -0.010615 0.064028
v 0.080332 0.039385 0.034028
v 0.060332 0.019385 0.064028
v 0.080332 0.059385 0.034028
v 0.060332 0.039385 0.064028
v 0.070334 0.069385 0.034028
v 0.050333 0.049385 0.064028
v 0.020331 0.009385 0.084028
v 0.020331 0.019385 0.084028
v -0.019666 -0.020615 0.094029
v -0.019666 -0.010615 0.084028
v -0.059667 -0.050615 0.074028
v -0.069669 -0.040615 0.074028
v -0.049668 -0.060615 0.074028
v -0.009668 -0.030615 0.094029
v -0.039667 -0.070615 0.074028
v -0.009668 -0.050615 0.084028
v 0.030333 -0.010615 0.084028
v 0.030333 -0.030615 0.084028
v -0.109667 -0.080615 -0.045972
v -0.099668 -0.090615 -0.045972
v -0.089669 -0.080615 -0.085971
v -0.099668 -0.070615 -0.085971
v -0.049668 -0.040615 -0.135972
v -0.059667 -0.040615 -0.135972
v -0.009668 -0.010615 -0.155972
v -0.029668 -0.000615 -0.165971
v 0.010333 0.009385 -0.155972
v 0.010333 0.029385 -0.155972
v 0.010333 -0.010615 -0.135972
v 0.000331 -0.020615 -0.145972
v -0.039667 -0.050615 -0.125971
v 0.000331 -0.040615 -0.125971
v -0.039667 -0.070615 -0.115972
v -0.079667 -0.080615 -0.085971
v -0.079667 -0.100615 -0.075971
v -0.089669 -0.100615 -0.045972
v 0.050333 0.019385 -0.125971
v 0.050333 -0.010615 -0.105972
v 0.080332 -0.000615 -0.075971
v 0.090331 0.039385 -0.075971
v 0.090331 0.059385 -0.085971
v 0.080332 0.079385 -0.085971
v 0.040332 0.059385 -0.135972
v 0.050333 0.039385 -0.125971
v -0.069669 -0.110615 -0.075971
v -0.029668 -0.080615 -0.105972
v -0.029668 -0.100615 -0.095972
v 0.010333 -0.080615 -0.105972
v 0.010333 -0.060615 -0.115972
v 0.040332 -0.070615 -0.095972
v 0.040332 -0.040615 -0.095972
v -0.059667 -0.120615 -0.065972
v -0.079667 -0.110615 -0.035971
v -0.069669 -0.120615 -0.035971
v 0.070334 -0.060615 -0.055972
v 0.080332 -0.030615 -0.065972
v -0.109667 -0.070615 -0.045972
v -0.099668 -0.060615 -0.095972
v -0.069669 -0.030615 -0.135972
v -0.019666 -0.250615 0.084028
v -0.009668 -0.250615 0.084028
v -0.009668 -0.250615 0.074028
v -0.019666 -0.250615 0.074028
v -0.029668 -0.250615 0.094029
v -0.029668 -0.260615 0.094029
v -0.029668 -0.260615 0.114028
v -0.029668 -0.250615 0.114028
v -0.029668 -0.230615 0.094029
v -0.029668 -0.240615 0.114028
v -0.049668 -0.220615 0.094029
v -0.039667 -0.230615 0.114028
v -0.059667 -0.230615 0.094029
v -0.059667 -0.240615 0.114028
v -0.069669 -0.250615 0.094029
v -0.059667 -0.250615 0.104028
v -0.069669 -0.260615 0.094029
v -0.059667 -0.260615 0.104028
v -0.049668 -0.210615 0.084028
v -0.059667 -0.220615 0.084028
v -0.069669 -0.250615 0.084028
v -0.059667 -0.240615 0.124028
v -0.039667 -0.230615 0.124028
v -0.049668 -0.240615 0.134029
v -0.039667 -0.240615 0.134029
v -0.049668 -0.250615 0.124028
v -0.039667 -0.250615 0.134029
v -0.039667 -0.250615 0.124028
v -0.029668 -0.250615 0.124028
v -0.029668 -0.240615 0.124028
v -0.029668 -0.260615 0.124028
v -0.059667 -0.250615 0.124028
v -0.059667 -0.260615 0.114028
v -0.039667 -0.220615 -0.005972
v 0.000331 -0.220615 -0.005972
v -0.039667 -0.220615 0.014029
v -0.059667 -0.230615 0.014029
v -0.059667 -0.250615 0.004029
v -0.059667 -0.250615 -0.015972
v -0.049668 -0.260615 0.004029
v -0.049668 -0.260615 -0.015972
v -0.019666 -0.220615 0.014029
v 0.020331 -0.230615 0.014029
v 0.030333 -0.250615 -0.015972
v 0.030333 -0.250615 0.004029
v 0.020331 -0.260615 -0.015972
v 0.010333 -0.260615 0.004029
v -0.019666 -0.220615 0.054029
v -0.039667 -0.220615 0.054029
v -0.059667 -0.220615 0.054029
v -0.059667 -0.250615 0.024028
v -0.069669 -0.250615 0.054029
v 0.010333 -0.210615 0.054029
v 0.010333 -0.220615 0.034028
v 0.030333 -0.220615 0.054029
v 0.030333 -0.230615 0.034028
v 0.040332 -0.250615 0.054029
v 0.030333 -0.250615 0.024028
v -0.059667 -0.260615 0.024028
v -0.069669 -0.260615 0.054029
v 0.030333 -0.260615 0.054029
v 0.020331 -0.260615 0.034028
v 0.010333 -0.200615 0.084028
v 0.000331 -0.230615 0.094029
v 0.010333 -0.220615 0.094029
v 0.010333 -0.230615 0.114028
v 0.030333 -0.240615 0.114028
v 0.030333 -0.230615 0.094029
v 0.030333 -0.250615 0.104028
v 0.040332 -0.250615 0.094029
v 0.000331 -0.240615 0.114028
v -0.009668 -0.250615 0.094029
v 0.000331 -0.250615 0.114028
v 0.030333 -0.260615 0.104028
v 0.040332 -0.260615 0.094029
v 0.000331 -0.260615 0.094029
v 0.000331 -0.260615 0.114028
v 0.030333 -0.220615 0.084028
v 0.000331 -0.250615 0.124028
v 0.000331 -0.240615 0.124028
v 0.000331 -0.250615 0.134029
v 0.010333 -0.250615 0.134029
v 0.010333 -0.240615 0.134029
v 0.020331 -0.250615 0.134029
v 0.020331 -0.250615 0.124028
v 0.020331 -0.240615 0.124028
v 0.010333 -0.230615 0.134029
v 0.000331 -0.240615 0.134029
v 0.030333 -0.240615 0.124028
v 0.010333 -0.230615 0.124028
v 0.030333 -0.260615 0.114028
v 0.030333 -0.250615 0.114028
v 0.000331 -0.260615 0.124028
v -0.039667 -0.230615 -0.085971
v -0.069669 -0.230615 -0.065972
v -0.069669 -0.230615 -0.055972
v -0.019666 -0.230615 -0.085971
v -0.009668 -0.240615 -0.095972
v -0.039667 -0.240615 -0.085971
v -0.039667 -0.250615 -0.085971
v -0.019666 -0.250615 -0.085971
v -0.059667 -0.260615 -0.065972
v -0.059667 -0.260615 -0.055972
v -0.069669 -0.250615 -0.055972
v -0.069669 -0.230615 -0.035971
v -0.069669 -0.250615 -0.035971
v -0.059667 -0.260615 -0.045972
v -0.059667 -0.260615 -0.025972
v 0.030333 -0.230615 -0.045972
v 0.030333 -0.230615 -0.055972
v 0.030333 -0.230615 -0.065972
v 0.010333 -0.230615 -0.075971
v 0.010333 -0.250615 -0.085971
v 0.030333 -0.250615 -0.065972
v 0.020331 -0.260615 -0.065972
v 0.030333 -0.250615 -0.055972
v 0.030333 -0.260615 -0.055972
v 0.030333 -0.250615 -0.045972
v 0.030333 -0.260615 -0.045972
v 0.020331 -0.260615 -0.035971
v 0.030333 -0.250615 -0.035971
v -0.019666 -0.260615 -0.055972
v -0.019666 -0.260615 -0.065972
v -0.019666 -0.260615 -0.045972
v -0.019666 -0.260615 -0.025972
v -0.019666 -0.260615 -0.015972
v -0.019666 -0.260615 0.004029
v -0.019666 -0.260615 0.024028
v -0.019666 -0.260615 0.054029
vn 0.2949 0.5108 0.8075
vn 0.1154 0.9503 0.2892
vn -0.1157 0.9513 0.2859
vn -0.2982 -0.5159 -0.8031
vn 0.2949 -0.5108 -0.8075
vn -0.1158 -0.9512 -0.2859
vn -0.2981 -0.5158 -0.8032
vn -0.3582 -0.2056 -0.9107
vn 0.2949 -0.5108 -0.8076
vn 0.3550 -0.2049 -0.9121
vn -0.3139 -0.0175 -0.9493
vn 0.3107 -0.0184 -0.9503
vn -0.2986 0.0012 -0.9544
vn 0.2977 -0.0000 -0.9547
vn -0.3013 0.0011 -0.9535
vn 0.2995 0.0001 -0.9541
vn -0.3219 0.0329 -0.9462
vn 0.3226 0.0323 -0.9460
vn -0.3601 0.2079 -0.9094
vn 0.3602 0.2079 -0.9094
vn -0.3012 0.5215 -0.7984
vn 0.3010 0.5215 -0.7984
vn -0.1307 0.9452 -0.2991
vn 0.1306 0.9453 -0.2991
vn -0.4970 0.8614 0.1045
vn -0.0574 0.0999 0.9933
vn -0.0436 0.3173 0.9473
vn -0.1359 0.9847 0.1091
vn 0.0435 0.3173 0.9473
vn 0.1359 0.9847 0.1091
vn 0.0575 0.0999 0.9933
vn 0.4971 0.8614 0.1045
vn -0.8614 0.4971 0.1043
vn -0.0627 0.0360 0.9974
vn -0.9885 0.1008 0.1130
vn -0.0509 0.0050 0.9987
vn -0.9923 0.0034 0.1240
vn -0.0430 0.0001 0.9991
vn 0.0627 0.0359 0.9974
vn 0.8614 0.4971 0.1044
vn 0.0509 0.0050 0.9987
vn 0.9889 0.0986 0.1108
vn 0.0430 -0.0000 0.9991
vn 0.9927 -0.0000 0.1203
vn -0.9903 0.0034 0.1391
vn -0.0442 -0.0001 0.9990
vn -0.9894 -0.0527 0.1351
vn -0.0492 -0.0028 0.9988
vn -0.8573 -0.4982 0.1297
vn -0.0625 -0.0358 0.9974
vn -0.4897 -0.8641 0.1166
vn -0.0566 -0.0986 0.9935
vn -0.1180 -0.9868 0.1106
vn -0.0396 -0.3273 0.9441
vn 0.1198 -0.9868 0.1088
vn 0.0396 -0.3274 0.9441
vn 0.4971 -0.8614 0.1042
vn 0.0565 -0.0986 0.9935
vn 0.8614 -0.4971 0.1043
vn 0.0623 -0.0359 0.9974
vn 0.9921 -0.0585 0.1110
vn 0.0492 -0.0028 0.9988
vn 0.0442 -0.0001 0.9990
vn 0.9931 -0.0000 0.1173
vn 0.1154 -0.9503 -0.2892
vn 0.1071 -0.9502 0.2925
vn -0.5308 -0.8207 0.2117
vn -0.5006 -0.8235 -0.2668
vn 0.1264 -0.9759 -0.1777
vn 0.5666 -0.7393 0.3638
vn 0.6109 -0.7903 -0.0459
vn 0.7336 -0.5122 0.4466
vn 0.8549 -0.5096 0.0978
vn 0.8149 -0.1399 0.5625
vn 0.9662 -0.1020 0.2368
vn -0.8378 -0.4143 -0.3555
vn -0.2900 -0.9567 -0.0256
vn -0.2475 -0.2063 -0.9467
vn -0.8378 -0.4144 -0.3555
vn -0.8726 -0.4661 0.1462
vn -0.9337 -0.0561 -0.3536
vn -0.9824 -0.1319 0.1319
vn 0.7884 0.1008 0.6069
vn 0.9373 0.1851 0.2954
vn 0.8377 0.4235 0.3449
vn 0.7128 0.2986 0.6346
vn 0.6164 0.5445 0.5689
vn 0.8377 0.4234 0.3450
vn 0.6195 0.5414 0.5684
vn 0.6164 0.5443 0.5690
vn 0.3336 0.7040 0.6269
vn 0.3547 0.6976 0.6225
vn -0.4285 0.6278 0.6498
vn 0.0513 0.6791 0.7322
vn 0.0529 0.8672 0.4951
vn -0.3904 0.8257 0.4071
vn 0.3547 0.6977 0.6224
vn 0.0513 0.6792 0.7322
vn -0.8840 0.4193 0.2066
vn -0.8148 0.4998 0.2939
vn -0.9830 0.1830 0.0152
vn -0.9709 0.2342 0.0501
vn -0.0818 0.9944 -0.0673
vn -0.1792 0.9806 -0.0799
vn 0.4794 0.8771 0.0277
vn -0.5804 0.7943 -0.1794
vn -0.6237 0.7555 -0.2006
vn -0.8188 0.4530 -0.3527
vn -0.7753 0.5515 -0.3078
vn -0.8822 0.1536 -0.4452
vn 0.9817 0.1276 0.1412
vn 0.8881 0.4403 0.1316
vn 0.9856 0.0986 0.1371
vn -0.7827 -0.3459 -0.5173
vn -0.7808 -0.3496 -0.5179
vn -0.8342 -0.2409 -0.4961
vn -0.8342 -0.2406 -0.4962
vn -0.6233 -0.5513 -0.5545
vn -0.6309 -0.5441 -0.5531
vn -0.6234 -0.5513 -0.5545
vn -0.3735 -0.7086 -0.5987
vn -0.3535 -0.7162 -0.6018
vn 0.1761 -0.7685 -0.6152
vn 0.1762 -0.7685 -0.6151
vn -0.0840 -0.7739 -0.6277
vn -0.0208 -0.7773 -0.6287
vn -0.3588 -0.3327 -0.8721
vn -0.0622 -0.4687 -0.8812
vn -0.3588 -0.3328 -0.8721
vn 0.2649 -0.4561 -0.8496
vn 0.4484 -0.3321 -0.8298
vn 0.5814 -0.0478 -0.8122
vn -0.4914 -0.1504 -0.8579
vn -0.5214 0.0092 -0.8533
vn 0.5756 0.2097 -0.7904
vn 0.5757 0.2097 -0.7903
vn 0.4882 0.4331 -0.7577
vn 0.3537 0.5659 -0.7447
vn 0.3521 0.5669 -0.7447
vn 0.4883 0.4331 -0.7577
vn 0.1096 0.6690 -0.7351
vn 0.0910 0.6739 -0.7332
vn 0.1097 0.6690 -0.7351
vn 0.3537 0.5660 -0.7447
vn -0.1504 0.6501 -0.7448
vn -0.3930 0.4978 -0.7731
vn -0.5150 0.2817 -0.8096
vn -0.5109 0.3014 -0.8051
vn -0.5304 0.1563 -0.8332
vn -0.5305 0.1558 -0.8332
vn 0.1474 -0.3521 0.9243
vn 0.3237 -0.3179 0.8912
vn 0.3789 -0.2283 0.8969
vn 0.4193 -0.0873 0.9036
vn -0.3102 -0.0578 0.9489
vn -0.9824 -0.1320 0.1319
vn -0.2081 -0.1708 0.9631
vn 0.4360 -0.0065 0.8999
vn 0.4163 0.0908 0.9047
vn 0.3631 0.2080 0.9082
vn 0.3666 0.2013 0.9083
vn 0.2525 0.3405 0.9057
vn 0.2402 0.3509 0.9051
vn -0.4286 0.6275 0.6500
vn -0.1363 0.2761 0.9514
vn 0.0790 0.3622 0.9287
vn -0.3315 0.1258 0.9350
vn -0.3130 0.1554 0.9369
vn -0.3557 0.0427 0.9336
vn -0.3499 0.0158 0.9366
vn 0.1269 -0.1262 -0.9839
vn -0.1225 -0.1183 -0.9854
vn -0.1982 -0.0649 -0.9780
vn 0.2060 -0.0725 -0.9759
vn -0.1170 -0.1580 -0.9805
vn 0.1049 -0.1719 -0.9795
vn 0.0359 0.1049 0.9938
vn 0.1219 0.1341 0.9834
vn 0.1520 0.1663 0.9743
vn -0.0361 0.1062 0.9937
vn -0.1203 0.1463 0.9819
vn -0.1601 0.1850 0.9696
vn -0.9999 0.0062 -0.0112
vn -0.9420 -0.0581 -0.3305
vn -0.9935 -0.1128 0.0163
vn -0.9336 -0.1803 -0.3097
vn -0.7194 -0.1489 -0.6784
vn -0.7192 -0.2561 -0.6459
vn -0.3316 -0.2030 -0.9213
vn -0.3357 -0.3174 -0.8869
vn -0.1083 -0.2012 -0.9736
vn -0.1072 -0.3314 -0.9374
vn -0.0045 -0.1789 -0.9839
vn -0.0044 -0.3100 -0.9507
vn 0.0891 -0.1791 -0.9798
vn 0.0879 -0.3095 -0.9468
vn 0.3799 -0.1815 -0.9071
vn 0.4095 -0.2896 -0.8651
vn 0.7485 -0.1481 -0.6464
vn 0.7485 -0.1478 -0.6464
vn 0.7356 -0.2653 -0.6233
vn 0.9135 -0.1296 -0.3857
vn 0.8921 -0.2580 -0.3710
vn 0.9754 -0.1013 -0.1956
vn 0.9590 -0.2232 -0.1744
vn 0.8920 -0.2583 -0.3709
vn 0.9758 -0.0115 0.2183
vn 0.9758 -0.0115 0.2184
vn 0.9217 0.0645 0.3824
vn 0.9643 -0.1284 0.2316
vn 0.9191 -0.0958 0.3821
vn 0.9996 -0.0168 -0.0242
vn 0.9882 0.1531 0.0034
vn 0.9726 0.0864 -0.2157
vn 0.9759 -0.0305 -0.2161
vn 0.9513 0.0453 0.3049
vn 0.9271 0.2071 0.3124
vn 0.6930 0.3110 0.6503
vn 0.7397 0.1343 0.6593
vn 0.3026 0.3571 0.8837
vn 0.3318 0.2001 0.9219
vn 0.0995 0.3395 0.9353
vn 0.1066 0.1986 0.9743
vn 0.0051 0.3157 0.9488
vn 0.0054 0.1729 0.9849
vn -0.0785 0.3113 0.9471
vn -0.0812 0.1705 0.9820
vn -0.3520 0.3458 0.8698
vn -0.4128 0.1757 0.8937
vn -0.7244 0.3166 0.6124
vn -0.7626 0.1512 0.6290
vn -0.7246 0.3161 0.6124
vn -0.4128 0.1758 0.8937
vn -0.8874 0.2748 0.3701
vn -0.9170 0.1249 0.3789
vn -0.9802 0.0885 0.1773
vn -0.9485 0.2546 0.1883
vn -0.9588 0.1700 -0.2277
vn -0.9689 0.0115 -0.2471
vn -0.9163 -0.0166 -0.4001
vn -0.9128 0.0848 -0.3994
vn -0.9128 0.0847 -0.3994
vn 0.0163 -0.1128 0.9935
vn -0.3097 -0.1802 0.9336
vn 0.3048 0.0453 -0.9513
vn -0.9802 0.0884 0.1772
vn -0.9673 -0.2505 -0.0397
vn -0.9937 -0.0108 0.1119
vn -0.9788 -0.1446 -0.1449
vn -0.9515 -0.2895 0.1041
vn -0.9358 -0.2505 0.2479
vn -0.9243 -0.1445 0.3532
vn -0.9201 0.0001 0.3917
vn -0.9150 0.1477 0.3753
vn -0.9329 0.0894 0.3489
vn -0.8627 -0.4922 -0.1161
vn -0.9788 0.1447 -0.1448
vn -0.9517 0.2816 -0.1226
vn -0.9830 -0.0000 -0.1835
vn -0.3966 -0.6056 0.6899
vn -0.2592 -0.9134 -0.3138
vn -0.9329 0.0893 0.3489
vn -0.6427 -0.6056 0.4692
vn -0.8628 -0.4921 -0.1160
vn -0.2997 -0.6444 0.7035
vn -0.2998 -0.6443 0.7035
vn -0.0772 -0.9740 -0.2129
vn -0.2847 -0.9134 -0.2909
vn -0.2999 -0.6444 0.7034
vn -0.0018 -0.5932 0.8051
vn 0.0795 -0.9724 -0.2195
vn 0.2915 -0.6681 0.6846
vn 0.2869 -0.9062 -0.3108
vn -0.1669 0.9838 0.0651
vn 0.6387 -0.6544 0.4048
vn 0.9306 0.3343 0.1493
vn 0.6386 -0.6544 0.4049
vn 0.9713 0.0442 0.2337
vn 0.8590 -0.4770 -0.1860
vn 0.9941 0.0003 -0.1089
vn 0.9358 -0.2506 -0.2480
vn 0.9244 -0.1446 -0.3530
vn 0.9515 -0.2895 -0.1041
vn 0.9672 -0.2507 0.0397
vn 0.9788 -0.1449 0.1449
vn 0.9830 -0.0000 0.1835
vn 0.9755 0.1587 0.1526
vn 0.9093 0.3676 0.1950
vn 0.8613 0.5081 -0.0052
vn 0.9201 -0.0001 -0.3917
vn 0.9242 0.1449 -0.3534
vn 0.9363 0.2396 -0.2569
vn 0.8816 0.4354 -0.1822
vn 0.2031 0.9652 0.1650
vn 0.4990 0.6723 -0.5468
vn 0.2030 0.9652 0.1650
vn 0.8815 0.4356 -0.1821
vn 0.1397 0.9886 0.0564
vn 0.0006 0.6158 -0.7879
vn 0.0010 0.9954 0.0956
vn 0.2181 0.6401 -0.7367
vn 0.1396 0.9886 0.0564
vn -0.2998 -0.6444 0.7035
vn 0.2916 -0.6681 0.6845
vn -0.1345 0.9889 0.0629
vn -0.2165 0.9630 0.1607
vn -0.8911 0.4439 -0.0940
vn -0.5023 0.6985 -0.5097
vn 0.2870 -0.9062 -0.3106
vn -0.2149 0.6621 -0.7179
vn -0.2847 -0.9134 -0.2908
vn -0.9515 0.2821 -0.1225
vn -0.9515 0.2821 -0.1226
vn 0.9998 -0.0156 0.0123
vn 0.9639 -0.2281 0.1375
vn 0.9646 -0.2635 0.0039
vn 0.9998 -0.0154 0.0123
vn 0.9618 -0.1256 0.2434
vn 0.9639 -0.2279 0.1375
vn 0.9582 -0.0012 0.2862
vn 0.9617 -0.1258 0.2435
vn 0.9998 -0.0153 0.0123
vn 0.9713 0.0444 0.2337
vn 0.9553 0.1191 0.2705
vn 0.9697 -0.0021 -0.2441
vn 0.9722 0.1235 -0.1989
vn -0.9570 -0.2372 -0.1671
vn -0.9999 0.0049 -0.0143
vn -0.9481 -0.1428 -0.2839
vn -0.9575 -0.2884 -0.0061
vn -0.9999 0.0048 -0.0143
vn -0.9519 0.1774 0.2498
vn -0.9594 0.0015 0.2822
vn -0.9481 -0.1428 -0.2840
vn -0.9511 0.0028 -0.3088
vn -0.9482 0.1534 -0.2782
vn -0.9549 0.2390 -0.1765
vn -0.8911 0.4440 -0.0940
vn -0.8495 0.5210 0.0830
vn -0.8914 0.3707 0.2607
vn -0.2148 0.6621 -0.7180
vn 0.1311 0.9812 0.1414
vn -0.1312 0.9812 0.1412
vn -0.1686 0.9519 0.2557
vn 0.1686 0.9519 0.2557
vn -0.1301 0.9897 -0.0602
vn -0.1312 0.9812 0.1416
vn 0.1312 0.9812 0.1416
vn 0.1302 0.9897 -0.0602
vn 0.1301 0.9897 -0.0602
vn 0.0892 0.8543 -0.5120
vn -0.0741 0.8566 -0.5107
vn 0.2269 0.5276 -0.8186
vn -0.1965 0.5304 -0.8247
vn -0.3355 0.2951 -0.8946
vn 0.3684 0.2915 -0.8828
vn 0.2865 -0.9175 -0.2758
vn -0.0000 -0.9575 -0.2885
vn -0.0000 -0.9860 -0.1669
vn 0.3890 -0.9096 -0.1457
vn 0.3872 -0.9206 0.0513
vn -0.0000 -0.9988 0.0487
vn -0.0064 -0.9041 0.4272
vn -0.0217 -0.3252 0.9454
vn -0.0064 -0.9043 0.4268
vn -0.2293 -0.1726 0.9579
vn 0.3128 -0.7948 0.5200
vn -0.0065 -0.9044 0.4267
vn -0.0216 -0.3252 0.9454
vn 0.3128 -0.7948 0.5201
vn 0.1775 -0.1730 0.9688
vn -0.0341 -0.1123 0.9931
vn -0.0247 -0.1133 0.9933
vn -0.0163 -0.1124 0.9935
vn 0.0892 0.8544 -0.5120
vn -0.2806 -0.8237 0.4927
vn -0.3073 -0.9501 0.0528
vn -0.0742 0.8566 -0.5107
vn 0.0443 0.7764 0.6286
vn -0.0914 0.7787 0.6208
vn -0.0958 0.8015 0.5902
vn 0.0779 0.8017 0.5926
vn 0.0089 0.7468 0.6649
vn -0.0913 0.7787 0.6208
vn -0.1472 0.7473 0.6480
vn -0.0000 0.7469 0.6650
vn -0.0533 0.7461 0.6637
vn -0.1472 0.7472 0.6480
vn -0.1408 0.7445 0.6526
vn -0.0457 -0.7806 -0.6233
vn 0.0886 -0.7795 -0.6202
vn 0.0562 -0.8067 -0.5883
vn -0.0365 -0.8069 -0.5896
vn -0.0458 -0.7806 -0.6233
vn 0.0037 -0.7490 -0.6626
vn 0.0887 -0.7795 -0.6201
vn 0.1289 -0.7483 -0.6507
vn 0.0036 -0.7490 -0.6626
vn 0.0038 -0.7448 -0.6673
vn 0.1289 -0.7482 -0.6508
vn 0.2183 -0.7381 -0.6384
vn 0.9040 -0.4108 -0.1186
vn 0.9839 -0.1699 0.0558
vn 0.9745 -0.2227 0.0275
vn 0.8310 -0.5101 -0.2220
vn 0.8252 -0.4589 -0.3294
vn 0.8308 -0.5104 -0.2219
vn 0.8373 -0.4627 -0.2912
vn 0.7294 -0.6016 -0.3257
vn 0.9839 -0.1697 0.0558
vn 0.1728 -0.9604 0.2184
vn -0.4791 -0.8593 0.1788
vn -0.3658 -0.8795 0.3044
vn 0.2048 -0.9425 0.2642
vn -0.7109 -0.5218 0.4715
vn -0.8577 -0.4742 0.1985
vn -0.7943 -0.0884 0.6010
vn -0.9553 -0.1073 0.2755
vn 0.6048 -0.7476 0.2744
vn 0.6229 -0.7371 0.2621
vn 0.8295 -0.4678 0.3050
vn 0.8506 -0.4542 0.2648
vn 0.9627 -0.0478 0.2663
vn 0.9437 -0.0745 0.3222
vn 0.1362 -0.9802 0.1435
vn -0.5309 -0.8474 0.0075
vn 0.1181 -0.9906 0.0693
vn -0.5309 -0.8474 0.0076
vn 0.1182 -0.9906 0.0693
vn -0.3885 -0.9097 0.1465
vn -0.8252 -0.1807 -0.5352
vn 0.1182 -0.9906 0.0692
vn 0.0938 -0.9944 0.0484
vn -0.4468 -0.8924 -0.0626
vn -0.8057 -0.5480 -0.2247
vn -0.9790 -0.1008 -0.1775
vn -0.9629 -0.0942 -0.2529
vn 0.6005 -0.7976 0.0571
vn 0.6052 -0.7838 0.1390
vn 0.6053 -0.7838 0.1390
vn 0.8535 -0.5136 0.0885
vn 0.8198 -0.5135 0.2533
vn 0.9129 -0.1347 0.3853
vn 0.9677 -0.1288 0.2166
vn 0.0640 -0.9979 -0.0039
vn -0.4098 -0.9054 -0.1107
vn 0.0674 -0.9942 -0.0838
vn -0.3699 -0.9092 -0.1909
vn -0.7322 -0.6145 -0.2937
vn -0.7692 -0.5928 -0.2386
vn 0.4932 -0.8619 -0.1175
vn 0.5648 -0.8250 -0.0181
vn -0.9627 -0.0702 -0.2613
vn -0.9597 -0.0427 -0.2779
vn 0.8118 -0.5390 -0.2246
vn 0.8629 -0.5019 -0.0599
vn 0.9984 -0.0549 0.0139
vn 0.9768 -0.0271 -0.2126
vn -0.9303 0.3396 -0.1388
vn -0.9099 0.3534 -0.2172
vn -0.7263 0.6790 0.1070
vn -0.8012 0.5607 0.2089
vn -0.9565 0.2788 -0.0863
vn -0.6606 0.7506 -0.0175
vn -0.8346 0.4897 0.2524
vn -0.9751 0.2207 -0.0233
vn -0.9750 0.2208 -0.0233
vn -0.8344 0.4900 0.2523
vn -0.8727 0.4476 0.1952
vn -0.9838 0.1794 -0.0037
vn -0.9837 0.1796 -0.0038
vn -0.8725 0.4480 0.1951
vn -0.8249 0.4402 0.3546
vn -0.9359 0.1811 0.3022
vn -0.7502 0.4738 0.4611
vn -0.8144 0.1989 0.5452
vn -0.7182 0.5285 0.4526
vn -0.7996 0.2485 0.5468
vn -0.6618 0.5661 0.4915
vn -0.7571 0.2778 0.5913
vn -0.6038 0.5918 0.5341
vn -0.6978 0.2863 0.6566
vn -0.5941 0.6133 0.5205
vn -0.6914 0.2908 0.6613
vn -0.5806 0.6353 0.5092
vn -0.6837 0.2957 0.6672
vn 0.8949 -0.4037 0.1902
vn -0.5363 0.3093 0.7853
vn -0.3888 0.8337 0.3920
vn -0.4204 0.8097 0.4095
vn 0.0550 0.9507 0.3052
vn 0.0710 0.9290 0.3631
vn 0.4345 0.8705 0.2313
vn 0.4100 0.8633 0.2944
vn 0.0813 0.8941 0.4404
vn 0.3892 0.8305 0.3986
vn 0.0783 0.8532 0.5157
vn -0.4493 0.7567 0.4749
vn -0.4312 0.7837 0.4470
vn 0.3929 0.7744 0.4959
vn 0.0507 0.8062 0.5894
vn 0.3741 0.7349 0.5656
vn 0.0221 0.7517 0.6591
vn 0.3313 0.7014 0.6311
vn 0.3741 0.7350 0.5655
vn 0.0222 0.7516 0.6592
vn -0.0014 0.7277 0.6859
vn -0.3659 0.7336 0.5727
vn 0.0066 0.7265 0.6871
vn 0.0222 0.7517 0.6591
vn -0.3869 0.7176 0.5790
vn -0.3870 0.7176 0.5791
vn 0.2775 0.6769 0.6817
vn -0.3018 0.8317 0.4660
vn 0.0349 0.7553 0.6545
vn 0.1211 0.8978 0.4233
vn -0.2487 0.9232 0.2931
vn 0.1211 0.8978 0.4234
vn 0.3445 0.8888 0.3022
vn 0.2428 0.6645 0.7068
vn -0.4530 0.7427 0.4931
vn 0.5376 0.8410 0.0607
vn 0.6915 0.5369 0.4833
vn 0.4421 0.6274 0.6410
vn 0.7681 0.6331 -0.0959
vn 0.7650 0.4036 0.5019
vn 0.5632 0.5613 0.6064
vn 0.7763 0.3617 0.5162
vn 0.6075 0.5505 0.5726
vn 0.8010 0.3631 0.4760
vn 0.6430 0.5594 0.5231
vn 0.8476 0.3665 0.3837
vn 0.6604 0.5940 0.4594
vn 0.6833 0.6420 0.3478
vn 0.8783 0.3790 0.2916
vn 0.9228 0.1880 0.3362
vn 0.9384 0.2137 0.2715
vn 0.8854 0.1493 0.4401
vn 0.9035 -0.1127 0.4134
vn 0.8854 0.1494 0.4402
vn 0.8427 0.0124 0.5382
vn 0.9377 -0.0209 0.3469
vn 0.8806 0.1345 0.4544
vn 0.9463 -0.0349 -0.3215
vn 0.9162 0.1698 0.3631
vn 0.9225 0.3054 0.2360
vn 0.9214 0.3524 -0.1639
vn 0.9748 -0.0437 0.2188
vn 0.9519 0.2338 0.1982
vn 0.9811 -0.0499 0.1871
vn 0.9567 0.2457 0.1562
vn 0.9878 -0.0428 0.1496
vn 0.9594 0.2567 0.1170
vn 0.9986 -0.0417 0.0311
vn 0.9674 0.2530 0.0077
vn 0.9588 -0.0527 -0.2792
vn 0.9176 0.2594 -0.3012
vn 0.8639 -0.1496 -0.4808
vn 0.9177 -0.2856 -0.2762
vn 0.8895 0.4365 0.1352
vn 0.8924 0.4123 0.1836
vn 0.7131 0.6659 0.2190
vn 0.7368 0.6584 0.1537
vn 0.8803 0.4633 0.1023
vn 0.7491 0.6534 0.1089
vn 0.8817 0.4705 0.0350
vn 0.7368 0.6746 0.0455
vn 0.8272 0.5154 -0.2238
vn 0.6518 0.7459 -0.1370
vn 0.7889 -0.5421 0.2893
vn 0.2651 -0.8348 0.4825
vn 0.2974 0.9483 -0.1105
vn 0.3679 -0.8171 -0.4439
vn -0.1516 0.9881 -0.0239
vn 0.2389 -0.4687 0.8504
vn -0.4325 0.8775 0.2072
vn 0.0593 -0.8472 0.5280
vn -0.4034 0.8605 0.3112
vn -0.0425 0.9880 0.1488
vn -0.3861 0.8445 0.3711
vn 0.0016 0.9677 0.2521
vn 0.4246 0.9031 0.0642
vn 0.4533 0.8750 0.1697
vn -0.6722 -0.1160 0.7312
vn -0.7001 -0.1112 0.7053
vn -0.4065 -0.5880 0.6993
vn 0.4216 -0.0344 -0.9061
vn -0.0636 -0.7660 0.6397
vn -0.1732 -0.7913 0.5863
vn 0.1923 -0.8608 0.4712
vn 0.9828 0.0782 0.1671
vn 0.5040 -0.8309 0.2358
vn -0.5181 -0.7112 -0.4751
vn 0.5608 -0.7118 0.4228
vn 0.2634 -0.7641 0.5888
vn -0.0057 -0.7696 0.6384
vn 0.3613 -0.8102 0.4616
vn -0.0695 -0.8195 0.5689
vn -0.3759 -0.6217 0.6872
vn -0.4243 -0.6363 0.6443
vn -0.7102 -0.1030 0.6964
vn 0.6964 -0.6505 0.3030
vn 0.6588 -0.6744 0.3335
vn 0.8715 -0.4290 0.2375
vn 0.8973 -0.4176 0.1432
vn 0.8824 -0.4510 -0.1341
vn 0.7929 -0.2644 0.5489
vn 0.7084 -0.4513 0.5426
vn 0.6980 -0.7128 0.0685
vn -0.5281 -0.6442 0.5533
vn -0.1796 -0.8773 0.4450
vn -0.2653 -0.8924 0.3651
vn 0.2509 -0.9162 0.3126
vn 0.3076 -0.8770 0.3691
vn 0.6268 -0.7313 0.2690
vn 0.6386 -0.7111 0.2941
vn -0.6212 -0.5959 0.5090
vn -0.7627 -0.0932 0.6400
vn -0.7812 -0.0845 0.6186
vn 0.8508 -0.4639 0.2468
vn 0.8556 -0.4549 0.2468
vn 0.1399 0.1353 0.9809
vn -0.1854 -0.0868 0.9788
vn 0.2495 -0.6946 0.6747
vn 0.8210 0.4898 -0.2935
vn 0.5984 0.7971 0.0809
vn -0.5956 0.7991 0.0826
vn -0.4157 0.4410 -0.7954
vn 0.2299 0.4570 -0.8592
vn -0.0739 0.1372 0.9878
vn 0.0812 0.1510 0.9852
vn 0.9627 0.2601 0.0749
vn 0.2645 -0.1630 0.9505
vn 0.3214 0.1318 0.9377
vn 0.9815 0.1696 0.0893
vn 0.6886 0.4895 -0.5350
vn 0.6843 0.3268 -0.6519
vn -0.0594 0.5225 -0.8506
vn -0.0480 0.4098 -0.9109
vn -0.6774 0.3967 -0.6195
vn -0.5819 0.4358 -0.6867
vn -0.9512 0.2949 -0.0910
vn -0.9088 0.4167 -0.0209
vn -0.3113 -0.1250 0.9420
vn -0.3220 0.1947 0.9265
vn -0.0950 0.1978 -0.9756
vn -0.7133 0.0527 -0.6989
vn -0.9882 -0.0451 -0.1464
vn -0.5701 0.3512 -0.7427
vn -0.0219 0.2801 -0.9597
vn -0.4292 0.6948 -0.5771
vn 0.0313 0.7935 -0.6078
vn -0.6490 0.7481 0.1387
vn -0.0027 0.9802 0.1978
vn -0.0327 0.8676 0.4963
vn 0.2156 0.6990 0.6819
vn 0.6411 0.7413 0.1988
vn 0.5076 0.6798 -0.5293
vn 0.6559 0.2557 -0.7102
vn 0.3510 0.3782 0.8566
vn -0.9017 0.4301 0.0441
vn -0.3758 0.4309 0.8204
vn -0.2793 0.6942 0.6634
vn 0.9673 0.2153 0.1345
vn -0.2941 -0.0412 -0.9549
vn 0.0072 -0.0889 -0.9960
vn -0.0922 0.5821 -0.8079
vn -0.2798 0.9568 0.0792
vn 0.0631 0.3308 -0.9416
vn 0.3431 0.3164 -0.8844
vn 0.3093 -0.0641 -0.9488
vn 0.0630 0.3307 -0.9416
vn -0.2885 -0.1283 -0.9489
vn -0.7308 -0.0936 -0.6762
vn -0.7166 0.0516 -0.6956
vn -0.9859 -0.0784 0.1476
vn -0.9610 0.1298 0.2442
vn -0.3109 -0.0907 0.9461
vn -0.2657 0.0395 0.9633
vn -0.0000 -0.1345 -0.9909
vn 0.3232 -0.1367 -0.9364
vn 0.7331 0.0187 -0.6799
vn 0.7024 -0.1232 -0.7010
vn 0.9744 0.1033 0.1995
vn 0.9661 -0.1116 0.2328
vn 0.3205 0.0528 0.9458
vn 0.2814 -0.0727 0.9568
vn -0.2056 -0.1711 -0.9635
vn -0.0072 -0.1466 -0.9892
vn -0.0739 -0.0873 -0.9934
vn -0.1290 -0.0841 -0.9881
vn -0.7010 -0.2246 -0.6768
vn -0.7103 -0.1605 -0.6853
vn -0.9787 -0.2043 -0.0222
vn -0.9795 -0.1703 -0.1077
vn 0.1805 -0.2152 -0.9597
vn 0.2680 -0.2274 -0.9362
vn 0.7326 -0.2617 -0.6283
vn 0.7219 -0.2601 -0.6413
vn 0.9562 -0.2657 -0.1226
vn 0.9575 -0.2794 0.0722
vn -0.2889 -0.0600 0.9555
vn -0.2537 0.0935 0.9628
vn 0.2505 0.0674 0.9658
vn 0.2643 -0.0728 0.9617
vn 0.0891 0.1544 -0.9840
vn -0.7458 0.4933 -0.4476
vn 0.0328 0.6063 -0.7946
vn 0.0472 0.4384 -0.8975
vn 0.5775 0.4312 -0.6932
vn 0.6727 0.4215 -0.6081
vn 0.9023 0.4260 -0.0660
vn 0.9497 0.2856 -0.1284
vn -0.7908 0.3077 -0.5291
vn -0.9579 0.2747 0.0835
vn -0.9783 0.1847 0.0941
vn 0.3131 0.2004 0.9283
vn 0.3002 -0.1230 0.9459
vn -0.2460 -0.1593 0.9561
vn -0.3049 0.1455 0.9412
vn 0.7475 0.0639 -0.6612
vn 0.2987 -0.0289 0.9539
vn 0.9762 -0.0986 -0.1931
vn -0.9673 0.2212 0.1244
vn -0.7558 0.2124 -0.6194
vn -0.8297 0.5407 0.1386
vn -0.2751 0.5323 0.8006
vn 0.0611 0.9979 -0.0226
vn 0.0632 0.9531 0.2959
vn 0.2654 0.6133 0.7439
vn 0.6939 0.7144 0.0905
vn 0.5318 0.6074 -0.5902
vn 0.0758 0.6995 -0.7106
vn -0.7546 0.4828 -0.4444
vn 0.5642 0.3430 -0.7510
vn 0.0568 0.2497 -0.9667
vn 0.3661 0.4491 0.8150
vn 0.8842 0.4655 0.0387
vn -0.3317 0.3641 0.8703
vn -0.3557 -0.9055 -0.2315
vn -0.7696 -0.6008 -0.2162
vn -0.9834 -0.0384 -0.1773
vn 0.0834 -0.9748 -0.2071
vn 0.0972 -0.9951 0.0174
vn -0.3601 -0.9279 0.0966
vn -0.1423 -0.5899 0.7948
vn 0.0488 -0.5853 0.8093
vn -0.2804 -0.3480 0.8946
vn -0.7447 -0.6345 0.2070
vn -0.3267 -0.0583 0.9433
vn -0.9562 -0.1218 0.2663
vn -0.9340 0.2905 -0.2080
vn -0.8245 0.3606 -0.4361
vn -0.9591 0.1989 0.2014
vn -0.9270 0.3216 0.1929
vn -0.3313 0.0936 0.9389
vn -0.2959 0.1471 0.9438
vn -0.4187 0.4436 -0.7924
vn -0.7165 0.0515 -0.6956
vn -0.4188 0.4436 -0.7923
vn 0.9362 0.2588 -0.2378
vn 0.9741 -0.0602 -0.2178
vn 0.7770 -0.5801 -0.2445
vn 0.4581 -0.8624 -0.2157
vn 0.4465 -0.8915 0.0771
vn 0.7685 -0.6166 0.1710
vn 0.2833 -0.3399 0.8968
vn 0.2009 -0.5913 0.7810
vn 0.9658 -0.1253 0.2271
vn 0.3111 -0.0568 0.9487
vn 0.8658 0.3493 -0.3583
vn 0.8658 0.3494 -0.3583
vn 0.5031 0.3515 -0.7895
vn 0.9641 0.1972 0.1781
vn 0.3134 0.0916 0.9452
vn 0.2898 0.1232 0.9491
vn 0.9503 0.2783 0.1393
vn -0.0020 -0.0092 1.0000
vn 0.0095 -0.1887 0.9820
vn -0.0047 0.0538 0.9985
vn -0.0003 0.0629 0.9980
vn 0.0016 0.0183 0.9998
vn 0.0016 -0.0631 0.9980
vn -0.0001 -0.0149 0.9999
vn 0.0033 0.1395 0.9902
vn -0.3054 -0.0042 0.9522
vn 0.5875 -0.7694 0.2506
vn 0.7364 -0.6394 0.2210
vn 0.6052 -0.7838 0.1392
vn 0.5862 -0.7772 0.2287
vn 0.7944 -0.4978 0.3480
vn 0.7944 -0.4978 0.3481
vn 0.7944 -0.4977 0.3481
vn -0.8558 -0.4897 -0.1666
vn -0.9884 -0.1088 -0.1058
vn -0.8948 -0.4355 -0.0986
vn -0.8559 -0.4896 -0.1666
vn -0.8948 -0.4355 -0.0985
vn -0.9837 0.1795 -0.0038
vt 0.910000 0.372600
vt 0.911100 0.376800
vt 0.911100 0.381800
vt 0.910000 0.386000
vt 0.907000 0.389100
vt 0.907000 0.369500
vt 0.902800 0.390200
vt 0.902800 0.368400
vt 0.888000 0.390200
vt 0.888000 0.368400
vt 0.880600 0.390200
vt 0.880600 0.368400
vt 0.873200 0.390200
vt 0.873200 0.368400
vt 0.868800 0.389000
vt 0.868800 0.369600
vt 0.865500 0.385800
vt 0.865500 0.372800
vt 0.864400 0.381400
vt 0.864400 0.377200
vt 0.394100 0.335000
vt 0.395800 0.335900
vt 0.394200 0.341800
vt 0.392300 0.341500
vt 0.394200 0.347400
vt 0.392300 0.347600
vt 0.395800 0.353200
vt 0.394200 0.354200
vt 0.399000 0.330200
vt 0.399900 0.331800
vt 0.405500 0.328300
vt 0.405800 0.330200
vt 0.416300 0.328300
vt 0.416400 0.330200
vt 0.400000 0.357300
vt 0.399000 0.359000
vt 0.405800 0.359000
vt 0.405500 0.360800
vt 0.416400 0.359000
vt 0.416300 0.360800
vt 0.427000 0.328300
vt 0.427000 0.330200
vt 0.448400 0.328300
vt 0.448200 0.330200
vt 0.454700 0.330100
vt 0.453700 0.331700
vt 0.459300 0.334700
vt 0.457600 0.335600
vt 0.461000 0.340900
vt 0.459100 0.341100
vt 0.461000 0.348300
vt 0.459100 0.348000
vt 0.459300 0.354500
vt 0.457600 0.353500
vt 0.454700 0.359100
vt 0.453700 0.357400
vt 0.448400 0.360800
vt 0.448200 0.358900
vt 0.427000 0.359000
vt 0.427000 0.360800
vt 0.994600 0.020600
vt 0.972900 0.020600
vt 0.972900 0.007100
vt 0.994600 0.007100
vt 0.972900 0.035000
vt 0.994600 0.035000
vt 0.972900 0.049200
vt 0.994600 0.049200
vt 0.972900 0.063700
vt 0.994600 0.063700
vt 0.994600 0.087300
vt 0.972900 0.087300
vt 0.994600 0.110800
vt 0.972900 0.110800
vt 0.972900 0.157800
vt 0.994600 0.157800
vt 0.972900 0.171600
vt 0.994600 0.171600
vt 0.972900 0.185300
vt 0.994600 0.185300
vt 0.972900 0.199500
vt 0.994600 0.199500
vt 0.972900 0.187000
vt 0.994600 0.187000
vt 0.994600 0.200800
vt 0.972900 0.200800
vt 0.972900 0.052900
vt 0.972900 0.067400
vt 0.994600 0.067400
vt 0.994600 0.052900
vt 0.972900 0.038100
vt 0.994600 0.038100
vt 0.972900 0.025800
vt 0.994600 0.025800
vt 0.994600 0.090700
vt 0.972900 0.090700
vt 0.972900 0.114100
vt 0.994600 0.114100
vt 0.972900 0.160700
vt 0.994600 0.160700
vt 0.994600 0.171900
vt 0.972900 0.171900
vt 0.994600 0.180200
vt 0.972900 0.180200
vt 0.994600 0.194600
vt 0.972900 0.194600
vt 0.789700 0.005700
vt 0.784800 0.005700
vt 0.784800 0.002700
vt 0.789700 0.002700
vt 0.794400 0.005700
vt 0.794400 0.002700
vt 0.800500 0.005700
vt 0.800500 0.002700
vt 0.804600 0.005700
vt 0.804600 0.002700
vt 0.779200 0.002700
vt 0.779200 0.005700
vt 0.773100 0.002700
vt 0.773100 0.005700
vt 0.806200 0.005700
vt 0.806200 0.002700
vt 0.807800 0.002700
vt 0.807800 0.005700
vt 0.810500 0.005700
vt 0.810900 0.002700
vt 0.814700 0.005700
vt 0.812700 0.004100
vt 0.822300 0.005700
vt 0.817200 0.005700
vt 0.817200 0.002700
vt 0.822300 0.002700
vt 0.814400 0.002700
vt 0.825400 0.005700
vt 0.825400 0.002700
vt 0.829800 0.005700
vt 0.827700 0.003900
vt 0.832300 0.005700
vt 0.829400 0.002700
vt 0.832300 0.002700
vt 0.946800 0.008400
vt 0.947200 0.010200
vt 0.944900 0.010200
vt 0.948900 0.008300
vt 0.949300 0.010200
vt 0.952000 0.010200
vt 0.951600 0.008100
vt 0.953300 0.008100
vt 0.940000 0.008700
vt 0.942300 0.008500
vt 0.939500 0.010200
vt 0.954900 0.008100
vt 0.955200 0.010200
vt 0.954500 0.010200
vt 0.954100 0.008100
vt 0.956000 0.008100
vt 0.956400 0.010300
vt 0.957200 0.009300
vt 0.957100 0.008000
vt 0.961800 0.008500
vt 0.961000 0.010300
vt 0.959000 0.010300
vt 0.959400 0.008200
vt 0.957900 0.010300
vt 0.958300 0.008100
vt 0.868200 0.002000
vt 0.866400 0.002000
vt 0.866400 0.001700
vt 0.868200 0.001700
vt 0.869900 0.002000
vt 0.869900 0.001700
vt 0.872000 0.002000
vt 0.872000 0.001700
vt 0.873500 0.002000
vt 0.873500 0.001700
vt 0.864300 0.001700
vt 0.864300 0.002000
vt 0.862000 0.002000
vt 0.862000 0.001700
vt 0.874000 0.002000
vt 0.874000 0.001700
vt 0.874600 0.001700
vt 0.875600 0.001700
vt 0.875600 0.002000
vt 0.876800 0.002000
vt 0.876800 0.001700
vt 0.877700 0.002000
vt 0.877700 0.001700
vt 0.879300 0.002000
vt 0.879300 0.001700
vt 0.880400 0.002000
vt 0.880400 0.001700
vt 0.881900 0.002000
vt 0.881900 0.001700
vt 0.882900 0.002000
vt 0.882900 0.001700
vt 0.866200 0.003100
vt 0.867900 0.003100
vt 0.867900 0.003500
vt 0.869600 0.003500
vt 0.869600 0.003100
vt 0.871700 0.003500
vt 0.871700 0.003100
vt 0.873200 0.003500
vt 0.873200 0.003100
vt 0.862400 0.003500
vt 0.862400 0.003100
vt 0.864300 0.003500
vt 0.873800 0.003100
vt 0.873800 0.003500
vt 0.874400 0.003500
vt 0.874400 0.003100
vt 0.875300 0.003500
vt 0.875400 0.003100
vt 0.876200 0.003500
vt 0.877000 0.003500
vt 0.877900 0.003100
vt 0.879900 0.003100
vt 0.879900 0.003500
vt 0.876900 0.003100
vt 0.877900 0.003500
vt 0.880900 0.003500
vt 0.881000 0.003100
vt 0.881800 0.003500
vt 0.882500 0.003500
vt 0.780200 0.007100
vt 0.780200 0.015300
vt 0.772500 0.015300
vt 0.772500 0.007100
vt 0.788900 0.015300
vt 0.788900 0.007100
vt 0.875900 0.010600
vt 0.875100 0.010100
vt 0.879000 0.010100
vt 0.879000 0.010600
vt 0.882400 0.010100
vt 0.882400 0.010600
vt 0.957600 0.005400
vt 0.957500 0.007400
vt 0.955500 0.007300
vt 0.955600 0.005400
vt 0.959300 0.007500
vt 0.959400 0.005500
vt 0.774400 0.243200
vt 0.770800 0.231500
vt 0.806300 0.235800
vt 0.802800 0.225100
vt 0.767600 0.220100
vt 0.799900 0.215100
vt 0.765400 0.207200
vt 0.798500 0.205400
vt 0.764200 0.194000
vt 0.797900 0.193700
vt 0.763600 0.179300
vt 0.797200 0.178500
vt 0.763600 0.164500
vt 0.796900 0.163600
vt 0.763700 0.153400
vt 0.796600 0.151500
vt 0.766000 0.136900
vt 0.798200 0.142000
vt 0.768600 0.125800
vt 0.800600 0.132100
vt 0.771100 0.115300
vt 0.803300 0.122100
vt 0.773300 0.108800
vt 0.775900 0.101300
vt 0.804800 0.117300
vt 0.806600 0.112600
vt 0.816800 0.143500
vt 0.810000 0.143600
vt 0.809900 0.141300
vt 0.816800 0.141300
vt 0.816800 0.145800
vt 0.810000 0.145900
vt 0.810000 0.148000
vt 0.816800 0.147900
vt 0.810000 0.150200
vt 0.816800 0.150100
vt 0.810000 0.152700
vt 0.816800 0.152700
vt 0.810000 0.155800
vt 0.816800 0.155800
vt 0.810000 0.159000
vt 0.816800 0.158900
vt 0.810000 0.161300
vt 0.816900 0.161200
vt 0.810100 0.163800
vt 0.816900 0.163800
vt 0.810100 0.165900
vt 0.816900 0.165800
vt 0.816900 0.167900
vt 0.810100 0.167900
vt 0.810100 0.169100
vt 0.816900 0.169000
vt 0.816900 0.170300
vt 0.810100 0.170300
vt 0.815000 0.189700
vt 0.815300 0.190000
vt 0.813300 0.189700
vt 0.816700 0.187400
vt 0.816400 0.185200
vt 0.816800 0.185200
vt 0.816300 0.187400
vt 0.816800 0.182700
vt 0.816400 0.182700
vt 0.816900 0.180200
vt 0.816500 0.180200
vt 0.817000 0.178300
vt 0.816600 0.178300
vt 0.815200 0.175100
vt 0.809300 0.175300
vt 0.809300 0.174900
vt 0.810500 0.175000
vt 0.811900 0.175700
vt 0.813600 0.175700
vt 0.813600 0.176100
vt 0.815200 0.177300
vt 0.815600 0.177100
vt 0.815200 0.178500
vt 0.815500 0.178500
vt 0.815100 0.180400
vt 0.815500 0.180400
vt 0.815100 0.182800
vt 0.815400 0.182800
vt 0.815000 0.185200
vt 0.815300 0.185200
vt 0.814900 0.187000
vt 0.815300 0.187000
vt 0.814100 0.189000
vt 0.813900 0.188700
vt 0.812600 0.188600
vt 0.812600 0.189000
vt 0.811000 0.188900
vt 0.811100 0.188600
vt 0.810300 0.188600
vt 0.810300 0.188900
vt 0.809500 0.188500
vt 0.809500 0.188900
vt 0.946200 0.007700
vt 0.947300 0.006600
vt 0.946900 0.008100
vt 0.945800 0.007000
vt 0.945800 0.006200
vt 0.946200 0.005500
vt 0.946800 0.005100
vt 0.947600 0.005000
vt 0.948400 0.005500
vt 0.948900 0.006700
vt 0.948400 0.007600
vt 0.948800 0.006900
vt 0.947700 0.008000
vt 0.945400 0.011800
vt 0.945400 0.012200
vt 0.944500 0.012200
vt 0.944500 0.010800
vt 0.946700 0.011800
vt 0.946700 0.012200
vt 0.947900 0.011800
vt 0.949000 0.012200
vt 0.949000 0.011800
vt 0.950300 0.012200
vt 0.950300 0.011800
vt 0.951200 0.012200
vt 0.951200 0.010700
vt 0.656300 0.324000
vt 0.697000 0.374700
vt 0.665800 0.389100
vt 0.717400 0.348300
vt 0.721400 0.314400
vt 0.707900 0.283100
vt 0.680600 0.262800
vt 0.645600 0.258400
vt 0.615400 0.272300
vt 0.598500 0.291900
vt 0.632000 0.384800
vt 0.604500 0.364700
vt 0.590700 0.333600
vt 0.593100 0.310200
vt 0.553200 0.301100
vt 0.606000 0.276700
vt 0.588000 0.297900
vt 0.553800 0.320500
vt 0.583800 0.314600
vt 0.498300 0.309000
vt 0.442900 0.314500
vt 0.445400 0.302600
vt 0.492000 0.320500
vt 0.894300 0.026000
vt 0.891900 0.027700
vt 0.891600 0.027100
vt 0.893800 0.025600
vt 0.895500 0.023300
vt 0.894800 0.023200
vt 0.895200 0.020300
vt 0.889000 0.027400
vt 0.877200 0.022600
vt 0.877100 0.022000
vt 0.881400 0.021600
vt 0.868900 0.022000
vt 0.868800 0.022600
vt 0.864600 0.021600
vt 0.862100 0.023400
vt 0.861400 0.022200
vt 0.864500 0.023000
vt 0.864500 0.023800
vt 0.869200 0.023500
vt 0.881500 0.023000
vt 0.881500 0.023800
vt 0.876800 0.023500
vt 0.883900 0.023400
vt 0.884600 0.022300
vt 0.884900 0.024100
vt 0.884400 0.024400
vt 0.886200 0.026800
vt 0.886600 0.026300
vt 0.888900 0.028000
vt 0.961000 0.007000
vt 0.962000 0.006800
vt 0.962000 0.007300
vt 0.961700 0.006300
vt 0.961300 0.006100
vt 0.960500 0.006400
vt 0.960800 0.006100
vt 0.960200 0.007100
vt 0.960800 0.007900
vt 0.960300 0.007600
vt 0.591300 0.332900
vt 0.655700 0.323800
vt 0.604200 0.364700
vt 0.594500 0.299600
vt 0.708400 0.283300
vt 0.679900 0.262500
vt 0.631800 0.384800
vt 0.665600 0.388900
vt 0.697000 0.375600
vt 0.711100 0.357000
vt 0.719700 0.340200
vt 0.720900 0.314100
vt 0.587900 0.298400
vt 0.821000 0.008600
vt 0.821000 0.011200
vt 0.816500 0.011100
vt 0.816500 0.008700
vt 0.824800 0.011200
vt 0.824800 0.008600
vt 0.827600 0.008600
vt 0.827600 0.011200
vt 0.829800 0.007300
vt 0.829900 0.012600
vt 0.831300 0.012600
vt 0.831200 0.007300
vt 0.960200 0.012200
vt 0.960200 0.011800
vt 0.961400 0.011800
vt 0.961400 0.012200
vt 0.962500 0.012200
vt 0.962500 0.011800
vt 0.963300 0.011800
vt 0.963900 0.011700
vt 0.963900 0.010900
vt 0.963300 0.012200
vt 0.963900 0.012600
vt 0.965000 0.010900
vt 0.965000 0.011700
vt 0.965000 0.012600
vt 0.868800 0.011200
vt 0.872300 0.011100
vt 0.869400 0.011700
vt 0.867200 0.013100
vt 0.866600 0.013100
vt 0.866100 0.017800
vt 0.865800 0.014500
vt 0.872700 0.011600
vt 0.866400 0.013000
vt 0.865900 0.017800
vt 0.867000 0.013100
vt 0.865600 0.014500
vt 0.808900 0.015600
vt 0.808900 0.006500
vt 0.814600 0.006500
vt 0.814600 0.015600
vt 0.802900 0.015600
vt 0.802900 0.006500
vt 0.789700 0.015600
vt 0.789700 0.006500
vt 0.953100 0.007300
vt 0.953100 0.005200
vt 0.954200 0.005200
vt 0.954200 0.007300
vt 0.952000 0.007300
vt 0.951900 0.005300
vt 0.949500 0.007400
vt 0.949400 0.005300
vt 0.963100 0.008600
vt 0.965000 0.008700
vt 0.963600 0.009700
vt 0.962400 0.010200
vt 0.965900 0.008600
vt 0.965500 0.010100
vt 0.882500 0.003100
vt 0.883300 0.003100
vt 0.883300 0.003500
vt 0.881100 0.231100
vt 0.884000 0.216400
vt 0.892200 0.221100
vt 0.889200 0.238000
vt 0.893700 0.202300
vt 0.885800 0.201200
vt 0.895400 0.187300
vt 0.887600 0.187300
vt 0.874400 0.245600
vt 0.881900 0.254600
vt 0.862700 0.260900
vt 0.870100 0.272100
vt 0.858700 0.280800
vt 0.852700 0.268700
vt 0.872800 0.224300
vt 0.876300 0.212300
vt 0.864100 0.219400
vt 0.867300 0.208100
vt 0.853500 0.214300
vt 0.857200 0.204000
vt 0.869300 0.196900
vt 0.859400 0.193900
vt 0.871100 0.186700
vt 0.861100 0.186400
vt 0.848700 0.223100
vt 0.859700 0.228900
vt 0.843000 0.231900
vt 0.851700 0.240900
vt 0.844500 0.248500
vt 0.838300 0.238400
vt 0.846900 0.211000
vt 0.850300 0.200800
vt 0.842500 0.209100
vt 0.845600 0.199000
vt 0.847000 0.190000
vt 0.851900 0.191400
vt 0.837800 0.218200
vt 0.842000 0.220300
vt 0.853500 0.185300
vt 0.848600 0.184400
vt 0.832700 0.226100
vt 0.836700 0.228500
vt 0.833500 0.234000
vt 0.830100 0.230700
vt 0.855500 0.178900
vt 0.850700 0.178700
vt 0.857200 0.172500
vt 0.863200 0.170900
vt 0.862600 0.178500
vt 0.852900 0.172900
vt 0.872600 0.166600
vt 0.872300 0.177500
vt 0.880700 0.162500
vt 0.880600 0.175900
vt 0.888800 0.158700
vt 0.888900 0.173400
vt 0.896800 0.156400
vt 0.896700 0.172200
vt 0.904600 0.154500
vt 0.903200 0.171700
vt 0.912100 0.152300
vt 0.909400 0.171200
vt 0.919100 0.151100
vt 0.916100 0.170900
vt 0.926100 0.150800
vt 0.922800 0.170900
vt 0.932700 0.151300
vt 0.929100 0.170900
vt 0.935600 0.151900
vt 0.932100 0.170900
vt 0.913900 0.133000
vt 0.905000 0.137400
vt 0.913100 0.116700
vt 0.903200 0.123200
vt 0.909500 0.100900
vt 0.898800 0.109400
vt 0.893400 0.129600
vt 0.888800 0.117400
vt 0.884500 0.135800
vt 0.887800 0.146600
vt 0.895800 0.142000
vt 0.878700 0.124300
vt 0.877400 0.140900
vt 0.872300 0.130500
vt 0.868500 0.146300
vt 0.863800 0.137300
vt 0.858600 0.152000
vt 0.862400 0.163000
vt 0.872000 0.157300
vt 0.853800 0.144400
vt 0.857200 0.165600
vt 0.853500 0.155100
vt 0.849000 0.157600
vt 0.853200 0.166900
vt 0.841600 0.150600
vt 0.847200 0.147800
vt 0.880200 0.152000
vt 0.838400 0.147600
vt 0.839000 0.142200
vt 0.843500 0.145000
vt 0.834600 0.145000
vt 0.845300 0.137100
vt 0.850200 0.140600
vt 0.854500 0.127100
vt 0.859900 0.132200
vt 0.861900 0.117500
vt 0.867800 0.123800
vt 0.868800 0.108900
vt 0.874800 0.116700
vt 0.883800 0.107100
vt 0.877900 0.098800
vt 0.861600 0.102200
vt 0.870100 0.090400
vt 0.860700 0.082700
vt 0.853000 0.096600
vt 0.855200 0.112400
vt 0.847000 0.108400
vt 0.848500 0.123100
vt 0.841100 0.119900
vt 0.840000 0.134400
vt 0.834000 0.132100
vt 0.834500 0.140100
vt 0.829500 0.137900
vt 0.826200 0.141600
vt 0.830600 0.143300
vt 0.866700 0.071600
vt 0.877100 0.080100
vt 0.876500 0.055200
vt 0.887000 0.065800
vt 0.885900 0.041200
vt 0.896300 0.053500
vt 0.897800 0.026900
vt 0.908100 0.040300
vt 0.908800 0.017100
vt 0.920000 0.030800
vt 0.913200 0.014100
vt 0.924400 0.029100
vt 0.895500 0.075900
vt 0.885600 0.088400
vt 0.893100 0.097700
vt 0.903900 0.087900
vt 0.905600 0.065400
vt 0.913100 0.079700
vt 0.916700 0.053600
vt 0.923100 0.071200
vt 0.927800 0.046100
vt 0.933800 0.065600
vt 0.932600 0.045200
vt 0.937900 0.064300
vt 0.936300 0.085100
vt 0.939500 0.083700
vt 0.937500 0.107500
vt 0.941000 0.107700
vt 0.936300 0.130000
vt 0.939100 0.131600
vt 0.928900 0.129800
vt 0.929600 0.109200
vt 0.921200 0.130900
vt 0.921100 0.112500
vt 0.927900 0.089200
vt 0.918200 0.094600
vt 0.929900 0.190900
vt 0.927000 0.190700
vt 0.928300 0.209600
vt 0.931400 0.209900
vt 0.934300 0.238800
vt 0.937600 0.237200
vt 0.940000 0.262900
vt 0.944200 0.261100
vt 0.939600 0.279600
vt 0.944000 0.281400
vt 0.930100 0.270800
vt 0.929000 0.262000
vt 0.924900 0.238300
vt 0.916500 0.258100
vt 0.915800 0.235400
vt 0.921100 0.209000
vt 0.913800 0.207600
vt 0.920600 0.190400
vt 0.914000 0.189900
vt 0.922000 0.292500
vt 0.909800 0.282200
vt 0.897900 0.303300
vt 0.908400 0.314100
vt 0.883300 0.316000
vt 0.894300 0.329600
vt 0.904600 0.339900
vt 0.919200 0.322100
vt 0.924000 0.324100
vt 0.908900 0.343000
vt 0.936600 0.301700
vt 0.932500 0.299900
vt 0.906500 0.205900
vt 0.907500 0.231000
vt 0.899900 0.226200
vt 0.897700 0.245500
vt 0.907400 0.252700
vt 0.890100 0.262500
vt 0.900400 0.272600
vt 0.900100 0.203800
vt 0.907200 0.189100
vt 0.901300 0.188100
vt 0.876800 0.280100
vt 0.887900 0.292100
vt 0.874000 0.303700
vt 0.864500 0.289800
vt 0.935200 0.171000
vt 0.932700 0.191100
vt 0.934600 0.210200
vt 0.940900 0.235500
vt 0.453900 0.232500
vt 0.454200 0.225400
vt 0.473400 0.225900
vt 0.473200 0.233100
vt 0.449400 0.224600
vt 0.449000 0.232800
vt 0.453100 0.239800
vt 0.444900 0.240100
vt 0.443300 0.249500
vt 0.451100 0.248900
vt 0.463700 0.241500
vt 0.457000 0.249800
vt 0.469600 0.248200
vt 0.462100 0.254100
vt 0.474000 0.261300
vt 0.465900 0.263600
vt 0.475300 0.270000
vt 0.466400 0.269100
vt 0.474600 0.277900
vt 0.464700 0.276900
vt 0.478600 0.244200
vt 0.480900 0.256800
vt 0.481800 0.270000
vt 0.460400 0.264600
vt 0.457500 0.258300
vt 0.456500 0.263900
vt 0.454600 0.260800
vt 0.456400 0.267100
vt 0.451700 0.263200
vt 0.450100 0.264600
vt 0.446900 0.260400
vt 0.449800 0.258300
vt 0.452500 0.258000
vt 0.453300 0.255300
vt 0.444400 0.256000
vt 0.460900 0.268400
vt 0.458600 0.274100
vt 0.453700 0.269900
vt 0.449900 0.254600
vt 0.525100 0.242500
vt 0.524500 0.230300
vt 0.531800 0.230300
vt 0.533100 0.243100
vt 0.535400 0.218200
vt 0.526900 0.219600
vt 0.537300 0.242000
vt 0.535800 0.230000
vt 0.539600 0.219800
vt 0.515700 0.241600
vt 0.517300 0.255100
vt 0.529300 0.255100
vt 0.518400 0.262600
vt 0.530600 0.262700
vt 0.518700 0.269800
vt 0.529800 0.271300
vt 0.515700 0.229800
vt 0.516800 0.219100
vt 0.532600 0.208200
vt 0.519800 0.206900
vt 0.534300 0.200800
vt 0.521500 0.199700
vt 0.534500 0.193700
vt 0.523000 0.190100
vt 0.506300 0.241900
vt 0.506500 0.229700
vt 0.490700 0.229700
vt 0.492200 0.242800
vt 0.506400 0.254000
vt 0.493200 0.254400
vt 0.508200 0.264400
vt 0.495700 0.267400
vt 0.493200 0.215800
vt 0.507300 0.217600
vt 0.495300 0.205900
vt 0.508700 0.206000
vt 0.498500 0.193200
vt 0.510800 0.197300
vt 0.508900 0.272800
vt 0.495900 0.275200
vt 0.500600 0.185800
vt 0.512800 0.188000
vt 0.479900 0.213800
vt 0.464400 0.216800
vt 0.470600 0.209600
vt 0.463500 0.204100
vt 0.468400 0.194200
vt 0.476200 0.197400
vt 0.469600 0.188600
vt 0.478200 0.188500
vt 0.458100 0.208100
vt 0.453800 0.218000
vt 0.452200 0.208800
vt 0.468400 0.180600
vt 0.478200 0.180400
vt 0.445500 0.217200
vt 0.444400 0.207800
vt 0.482600 0.202500
vt 0.487200 0.184400
vt 0.486500 0.189400
vt 0.451400 0.203600
vt 0.455700 0.202900
vt 0.451500 0.198600
vt 0.448700 0.196100
vt 0.453000 0.194700
vt 0.451900 0.193100
vt 0.454700 0.188200
vt 0.458600 0.189900
vt 0.459200 0.193400
vt 0.456100 0.197200
vt 0.454300 0.199000
vt 0.463200 0.192900
vt 0.458800 0.199700
vt 0.462200 0.182900
vt 0.464100 0.189000
vt 0.445900 0.202300
vt 0.575500 0.265500
vt 0.561300 0.263000
vt 0.563700 0.257000
vt 0.577000 0.259700
vt 0.551800 0.260700
vt 0.553000 0.255000
vt 0.591100 0.261900
vt 0.589900 0.267600
vt 0.589000 0.273600
vt 0.574900 0.271500
vt 0.574700 0.277100
vt 0.587300 0.278700
vt 0.561200 0.277400
vt 0.561200 0.268800
vt 0.550500 0.274800
vt 0.551200 0.266900
vt 0.543800 0.257800
vt 0.546200 0.252500
vt 0.542200 0.249100
vt 0.537200 0.256000
vt 0.544300 0.265100
vt 0.537900 0.263800
vt 0.543800 0.272700
vt 0.537600 0.271500
vt 0.548400 0.205600
vt 0.553800 0.204400
vt 0.554600 0.210200
vt 0.547800 0.212200
vt 0.562500 0.209300
vt 0.562100 0.202900
vt 0.574300 0.201500
vt 0.575500 0.207300
vt 0.589000 0.199500
vt 0.589200 0.205300
vt 0.574400 0.195500
vt 0.588800 0.193500
vt 0.587800 0.188200
vt 0.562500 0.197200
vt 0.563200 0.188700
vt 0.574800 0.189800
vt 0.553800 0.198400
vt 0.553700 0.190100
vt 0.541900 0.206900
vt 0.545200 0.213500
vt 0.541500 0.216900
vt 0.538800 0.212100
vt 0.548700 0.199100
vt 0.548700 0.191200
vt 0.542300 0.192400
vt 0.542300 0.199900
vt 0.408500 0.079000
vt 0.414600 0.076200
vt 0.414800 0.095900
vt 0.408400 0.095300
vt 0.402700 0.085100
vt 0.400300 0.094700
vt 0.414800 0.114300
vt 0.407700 0.111200
vt 0.401000 0.104100
vt 0.419400 0.095500
vt 0.418300 0.077000
vt 0.424400 0.095200
vt 0.424800 0.111800
vt 0.420000 0.113400
vt 0.423300 0.078200
vt 0.429700 0.079700
vt 0.430100 0.094900
vt 0.439900 0.094700
vt 0.440700 0.110200
vt 0.430800 0.108800
vt 0.440200 0.081600
vt 0.448800 0.094700
vt 0.449000 0.078900
vt 0.458800 0.094600
vt 0.459600 0.115000
vt 0.449200 0.112300
vt 0.458100 0.073800
vt 0.470800 0.116700
vt 0.469700 0.097700
vt 0.476100 0.115600
vt 0.476100 0.099800
vt 0.482700 0.112200
vt 0.483200 0.101300
vt 0.488200 0.101500
vt 0.487500 0.110500
vt 0.491300 0.108100
vt 0.491600 0.102800
vt 0.469600 0.090700
vt 0.468600 0.070800
vt 0.476000 0.088200
vt 0.475500 0.071600
vt 0.483100 0.086400
vt 0.482100 0.074700
vt 0.486700 0.076500
vt 0.487600 0.086100
vt 0.492100 0.079700
vt 0.492400 0.084800
vt 0.481600 0.274800
vt 0.867500 0.235900
vt 0.857100 0.250600
vt 0.848300 0.258600
vt 0.879900 0.187200
vt 0.878600 0.199200
s 0
usemtl hr_pain_panic_mat
f 1/1/1 2/2/2 3/3/3
f 4/4/4 1/1/5 3/3/6
s 1
f 4/4/7 5/5/8 1/1/9
f 5/5/8 6/6/10 1/1/9
f 5/5/8 7/7/11 6/6/10
f 7/7/11 8/8/12 6/6/10
f 8/8/12 7/7/11 9/9/13
f 10/10/14 8/8/12 9/9/13
f 10/10/14 9/9/13 11/11/15
f 12/12/16 10/10/14 11/11/15
f 12/12/16 11/11/15 13/13/17
f 14/14/18 12/12/16 13/13/17
f 13/13/17 15/15/19 14/14/18
f 15/15/19 16/16/20 14/14/18
f 15/15/19 17/17/21 16/16/20
f 17/17/21 18/18/22 16/16/20
f 17/17/21 19/19/23 18/18/22
f 19/19/23 20/20/24 18/18/22
f 21/21/25 22/22/26 23/23/27
f 24/24/28 21/21/25 23/23/27
f 23/23/27 25/25/29 24/24/28
f 25/25/29 23/23/27 22/22/26
f 25/25/29 26/26/30 24/24/28
f 25/25/29 27/27/31 26/26/30
f 27/27/31 25/25/29 22/22/26
f 27/27/31 28/28/32 26/26/30
f 22/22/26 21/21/25 29/29/33
f 30/30/34 22/22/26 29/29/33
f 30/30/34 29/29/33 31/31/35
f 32/32/36 30/30/34 31/31/35
f 31/31/35 33/33/37 32/32/36
f 33/33/37 34/34/38 32/32/36
f 27/27/31 35/35/39 28/28/32
f 22/22/26 30/30/34 35/35/39
f 27/27/31 22/22/26 35/35/39
f 35/35/39 36/36/40 28/28/32
f 35/35/39 37/37/41 36/36/40
f 32/32/36 34/34/38 37/37/41
f 30/30/34 32/32/36 37/37/41
f 35/35/39 30/30/34 37/37/41
f 37/37/41 38/38/42 36/36/40
f 37/37/41 39/39/43 38/38/42
f 34/34/38 39/39/43 37/37/41
f 39/39/43 40/40/44 38/38/42
f 33/33/37 41/41/45 34/34/38
f 41/41/45 42/42/46 34/34/38
f 34/34/38 42/42/46 39/39/43
f 41/41/45 43/43/47 42/42/46
f 43/43/47 44/44/48 42/42/46
f 43/43/47 45/45/49 44/44/48
f 45/45/49 46/46/50 44/44/48
f 45/45/49 47/47/51 46/46/50
f 47/47/51 48/48/52 46/46/50
f 48/48/52 47/47/51 49/49/53
f 50/50/54 48/48/52 49/49/53
f 49/49/53 51/51/55 50/50/54
f 51/51/55 52/52/56 50/50/54
f 51/51/55 53/53/57 52/52/56
f 53/53/57 54/54/58 52/52/56
f 46/46/50 48/48/52 54/54/58
f 50/50/54 52/52/56 54/54/58
f 48/48/52 50/50/54 54/54/58
f 53/53/57 55/55/59 54/54/58
f 55/55/59 56/56/60 54/54/58
f 44/44/48 46/46/50 56/56/60
f 56/56/60 46/46/50 54/54/58
f 55/55/59 57/57/61 56/56/60
f 57/57/61 58/58/62 56/56/60
f 58/58/62 44/44/48 56/56/60
f 44/44/48 58/58/62 59/59/63
f 42/42/46 44/44/48 59/59/63
f 58/58/62 57/57/61 60/60/64
f 59/59/63 58/58/62 60/60/64
f 42/42/46 59/59/63 39/39/43
f 59/59/63 60/60/64 40/40/44
f 39/39/43 59/59/63 40/40/44
f 26/61/30 20/62/24 19/63/23
f 24/64/28 26/61/30 19/63/23
f 18/65/22 20/62/24 26/61/30
f 28/66/32 18/65/22 26/61/30
f 16/67/20 18/65/22 28/66/32
f 36/68/40 16/67/20 28/66/32
f 14/69/18 16/67/20 36/68/40
f 38/70/42 14/69/18 36/68/40
f 14/69/18 38/70/42 40/71/44
f 12/72/16 14/69/18 40/71/44
f 12/72/16 40/71/44 60/73/64
f 10/74/14 12/72/16 60/73/64
f 10/74/14 60/73/64 8/75/12
f 60/73/64 57/76/61 8/75/12
f 8/75/12 57/76/61 6/77/10
f 57/76/61 55/78/59 6/77/10
f 6/77/10 55/78/59 1/79/9
f 55/78/59 53/80/57 1/79/9
f 1/79/9 53/80/57 2/81/65
f 53/80/57 51/82/55 2/81/65
f 2/83/65 51/84/55 49/85/53
f 3/86/6 2/83/65 49/85/53
f 15/87/19 13/88/17 31/89/35
f 29/90/33 15/87/19 31/89/35
f 17/91/21 15/87/19 29/90/33
f 21/92/25 17/91/21 29/90/33
f 19/93/23 17/91/21 21/92/25
f 24/94/28 19/93/23 21/92/25
f 33/95/37 31/89/35 13/88/17
f 11/96/15 33/95/37 13/88/17
f 11/96/15 9/97/13 33/95/37
f 9/97/13 41/98/45 33/95/37
f 9/97/13 7/99/11 41/98/45
f 7/99/11 43/100/47 41/98/45
f 45/101/49 43/100/47 7/99/11
f 5/102/8 45/101/49 7/99/11
f 47/103/51 45/101/49 5/102/8
f 4/104/7 47/103/51 5/102/8
f 49/105/53 47/103/51 4/104/7
f 3/106/6 49/105/53 4/104/7
f 61/107/66 62/108/67 63/109/68
f 64/110/69 61/107/66 63/109/68
f 65/111/70 61/107/66 64/110/69
f 66/112/71 65/111/70 64/110/69
f 67/113/72 65/111/70 66/112/71
f 68/114/73 67/113/72 66/112/71
f 67/113/72 68/114/73 69/115/74
f 68/114/73 70/116/75 69/115/74
f 63/109/68 62/108/67 71/117/76
f 62/108/77 72/118/78 71/117/76
f 71/117/79 72/118/80 73/119/81
f 72/118/80 74/120/82 73/119/81
f 75/121/83 69/115/74 70/116/75
f 76/122/84 75/121/83 70/116/75
f 76/122/84 77/123/85 75/121/83
f 77/123/85 78/124/86 75/121/83
f 78/124/86 77/123/85 79/125/87
f 77/123/88 80/126/89 79/125/90
f 79/125/90 80/126/89 81/127/91
f 80/126/89 82/128/92 81/127/91
f 83/129/93 84/130/94 85/131/95
f 86/132/96 83/129/93 85/131/95
f 85/131/95 84/130/94 82/133/97
f 84/130/98 81/127/91 82/133/92
f 87/134/99 83/129/93 86/132/96
f 88/135/100 87/134/99 86/132/96
f 89/136/101 87/134/99 88/135/100
f 90/137/102 89/136/101 88/135/100
f 74/138/82 89/136/101 90/139/102
f 73/140/81 74/138/82 90/139/102
f 91/141/103 92/142/104 93/143/105
f 91/141/103 94/144/106 92/142/104
f 94/144/106 95/145/107 92/142/104
f 97/146/108 96/147/109 98/148/110
f 101/149/111 72/150/112 100/151/113
f 104/152/114 77/153/115 103/154/116
f 102/155/117 104/152/114 103/154/116
f 77/153/115 104/152/114 79/156/118
f 105/157/119 77/153/115 79/156/120
f 106/158/121 105/157/119 79/156/120
f 107/159/122 106/158/121 79/156/120
f 108/160/123 109/161/124 110/162/125
f 84/163/126 108/160/123 110/162/125
f 84/163/126 110/162/125 106/164/121
f 107/165/122 84/163/126 106/164/121
f 64/166/69 63/167/68 93/168/127
f 92/169/128 64/166/69 93/168/129
f 66/170/71 64/166/69 92/169/128
f 95/171/130 66/170/71 92/169/128
f 68/172/73 66/170/71 95/171/130
f 97/173/131 68/172/73 95/171/130
f 70/174/75 68/172/73 97/173/131
f 99/175/132 70/174/75 97/173/131
f 93/168/127 63/167/68 71/176/133
f 71/177/79 73/178/81 100/179/134
f 76/180/84 70/174/75 99/175/132
f 103/181/135 76/180/84 99/175/132
f 103/181/136 77/182/137 76/180/84
f 105/183/138 80/184/139 77/182/140
f 82/185/141 80/184/139 105/183/138
f 106/186/142 82/185/143 105/183/144
f 85/187/95 82/185/143 106/186/142
f 110/188/145 85/187/95 106/186/142
f 86/189/96 85/187/95 110/188/145
f 109/190/146 86/189/96 110/188/145
f 88/191/147 86/189/96 109/190/146
f 111/192/148 88/191/147 109/190/146
f 90/193/149 88/191/147 111/192/148
f 112/194/150 90/193/149 111/192/148
f 73/195/81 90/193/149 112/194/150
f 100/196/134 73/195/81 112/194/150
f 62/197/67 61/198/66 91/199/151
f 91/199/151 61/198/66 94/200/152
f 61/198/66 65/201/70 94/200/152
f 94/200/152 65/201/70 96/202/153
f 65/201/70 67/203/72 96/202/153
f 96/202/153 67/203/72 98/204/154
f 67/203/72 69/205/74 98/204/154
f 101/206/155 74/207/156 72/208/157
f 98/204/154 69/205/74 75/209/83
f 102/210/158 98/204/154 75/209/83
f 102/210/158 75/209/83 104/211/159
f 75/209/83 78/212/86 104/211/159
f 104/211/159 78/212/86 79/213/160
f 79/214/161 81/215/162 107/216/163
f 84/217/94 83/218/164 108/219/165
f 107/216/163 81/220/162 84/221/166
f 108/219/165 83/218/164 87/222/167
f 87/223/168 89/224/169 113/225/170
f 114/226/171 115/227/172 116/228/173
f 117/229/174 114/226/171 116/228/173
f 118/230/175 115/227/172 114/226/171
f 119/231/176 118/230/175 114/226/171
f 117/232/174 120/233/177 121/234/178
f 114/235/171 117/232/174 121/234/178
f 114/235/171 121/234/178 122/236/179
f 119/237/176 114/235/171 122/236/179
f 123/233/180 116/232/173 115/235/172
f 115/238/181 121/239/178 120/240/177
f 123/241/180 115/238/181 120/240/177
f 122/242/179 121/239/178 115/238/181
f 118/243/182 122/242/179 115/238/181
f 127/244/183 128/245/184 124/246/185
f 128/245/184 129/247/186 124/246/185
f 128/245/184 130/248/187 129/247/186
f 130/248/187 131/249/188 129/247/186
f 130/248/187 132/250/189 131/249/188
f 132/250/189 133/251/190 131/249/188
f 132/250/189 134/252/191 133/251/190
f 134/252/191 135/253/192 133/251/190
f 134/252/191 136/254/193 135/253/192
f 136/254/193 137/255/194 135/253/192
f 136/254/193 138/256/195 137/255/194
f 138/256/195 139/257/196 137/255/194
f 138/256/195 140/258/197 139/257/196
f 140/258/197 141/259/198 139/257/196
f 140/258/197 142/260/199 141/259/198
f 142/260/200 143/261/201 141/259/198
f 142/260/200 144/262/202 143/261/201
f 144/262/202 145/263/203 143/261/201
f 144/262/202 146/264/204 145/263/203
f 146/264/204 147/265/205 145/263/206
f 146/264/204 148/266/207 147/265/205
f 148/266/208 149/267/209 147/268/210
f 149/267/209 150/269/211 147/268/210
f 124/270/212 127/271/213 126/272/214
f 125/273/215 124/270/212 126/272/214
f 151/274/216 128/275/217 124/270/212
f 152/276/218 128/275/217 151/274/216
f 153/277/219 152/276/218 151/274/216
f 132/278/220 152/276/218 153/277/219
f 154/279/221 132/278/220 153/277/219
f 155/280/222 132/278/220 154/279/221
f 156/281/223 155/280/222 154/279/221
f 157/282/224 155/280/222 156/281/223
f 158/283/225 157/282/224 156/281/223
f 159/284/226 157/282/224 158/283/225
f 120/285/227 159/284/226 158/283/225
f 160/286/228 159/284/226 120/285/227
f 141/287/229 160/286/228 120/285/227
f 142/288/230 160/286/228 141/287/229
f 161/289/231 142/288/232 141/287/233
f 144/290/234 142/288/232 161/289/231
f 145/291/235 144/290/234 161/289/231
f 162/292/236 146/293/237 145/291/235
f 148/294/238 146/293/237 162/292/236
f 162/295/239 163/296/240 148/294/238
f 163/296/240 164/297/241 148/294/238
f 152/298/218 130/299/187 128/300/217
f 132/301/189 130/299/187 152/298/218
f 155/302/222 134/303/191 132/304/220
f 136/305/193 134/303/191 155/302/222
f 157/306/224 136/305/193 155/302/222
f 138/307/195 136/305/193 157/306/224
f 159/308/226 138/307/195 157/306/224
f 140/309/197 138/307/195 159/308/226
f 160/310/228 140/309/197 159/308/226
f 142/311/199 140/309/197 160/310/228
f 164/312/242 149/313/209 148/314/208
s 0
f 124/315/243 129/316/244 151/317/245
s 1
f 151/317/216 129/316/186 153/318/219
f 129/316/186 131/319/188 153/318/219
f 153/318/219 131/319/188 154/320/221
f 131/319/188 133/321/190 154/320/221
f 154/320/221 133/321/190 156/322/223
f 133/321/190 135/323/192 156/322/223
f 156/322/223 135/323/192 158/324/225
f 135/323/192 137/325/194 158/324/225
f 158/324/225 137/325/194 120/326/227
f 137/325/194 139/327/196 120/326/227
f 120/326/227 139/327/196 141/328/229
f 141/329/198 143/330/201 161/331/231
f 161/331/231 143/330/201 145/332/235
f 145/333/206 147/334/205 162/335/246
f 162/336/239 147/337/210 163/338/240
f 147/337/210 150/339/211 163/338/240
f 165/340/247 166/341/248 167/342/249
f 168/343/250 166/341/248 165/340/247
f 169/344/251 166/341/248 168/343/250
f 170/345/252 166/341/248 169/344/251
f 171/346/253 166/341/248 170/345/252
f 172/347/254 166/341/248 171/346/253
f 173/348/255 166/341/248 172/347/254
f 174/349/256 166/341/248 173/348/255
f 175/350/257 166/341/248 174/351/258
f 176/352/259 166/341/248 175/350/257
f 167/342/249 166/341/248 176/352/259
f 177/353/260 178/354/261 174/355/256
f 173/356/262 177/353/263 174/355/264
f 177/353/260 179/357/265 178/354/261
f 179/357/266 122/358/267 178/354/268
f 179/357/269 180/359/270 122/358/267
f 181/360/271 182/361/272 183/362/273
f 183/362/274 184/363/275 185/364/276
f 184/363/277 186/365/278 185/364/279
f 187/366/280 188/367/281 189/368/282
f 187/366/280 190/369/283 188/367/281
f 187/366/280 169/370/284 190/369/283
f 187/366/280 170/371/285 169/370/284
f 187/366/280 171/372/286 170/371/285
f 187/366/280 172/373/287 171/372/286
f 187/366/280 173/374/288 172/373/287
f 187/366/280 191/375/289 173/374/288
f 187/366/280 189/368/282 176/376/290
f 187/366/280 176/376/290 192/377/291
f 187/366/280 192/377/291 193/378/292
f 187/366/280 193/378/292 191/379/293
f 177/380/294 173/381/288 191/382/289
f 194/383/295 177/380/296 191/384/297
f 122/385/298 177/380/296 194/383/295
f 180/386/299 195/387/300 122/388/301
f 165/389/247 167/390/249 189/391/282
f 188/392/281 165/389/247 189/391/282
f 168/393/250 165/389/247 188/392/281
f 190/394/283 168/393/250 188/392/281
f 169/395/251 168/393/250 190/394/283
f 189/391/282 167/390/249 176/396/290
f 122/397/302 179/398/303 177/399/296
f 182/400/304 181/401/305 184/402/306
f 185/403/279 205/404/307 184/405/308
f 183/406/309 184/405/308 181/407/310
f 194/408/295 178/409/311 122/410/301
f 174/411/256 178/409/311 194/408/295
f 191/412/297 174/411/256 194/408/295
f 193/413/292 174/414/312 191/412/293
f 175/415/257 174/414/313 193/413/292
f 192/416/291 175/415/257 193/413/292
f 176/417/259 175/415/257 192/416/291
f 206/418/314 199/419/315 200/420/316
f 206/418/317 198/421/318 199/419/319
f 206/418/314 197/422/320 198/421/321
f 206/418/322 186/423/323 196/424/324
f 206/418/314 185/425/279 186/423/278
f 206/418/314 203/426/325 204/427/326
f 201/428/327 206/429/328 202/430/329
f 200/431/330 206/429/331 201/428/327
f 196/432/332 206/429/328 197/433/333
f 202/430/334 206/429/328 203/434/335
f 204/435/336 206/429/328 185/436/337
f 185/436/337 206/429/328 205/437/338
f 205/438/339 206/429/328 186/439/340
f 195/387/300 180/386/299 181/388/341
f 205/440/339 186/381/340 184/380/306
f 207/441/342 208/442/343 209/443/344
f 210/444/345 207/441/342 209/443/344
f 211/445/346 208/442/347 207/441/348
f 212/446/349 211/445/346 207/441/348
f 212/446/350 213/447/351 211/445/346
f 213/447/351 214/448/352 211/445/346
f 213/447/351 215/449/353 214/448/352
f 215/449/353 216/450/354 214/448/352
f 217/451/355 216/450/354 215/449/353
f 218/452/356 217/451/355 215/449/353
f 210/453/357 209/454/358 208/455/359
f 207/456/360 210/453/357 208/455/359
f 212/457/361 211/458/362 219/459/363
f 157/460/364 219/459/365 216/461/366
f 220/462/367 219/459/368 157/460/369
f 220/462/370 212/457/361 219/459/363
f 159/463/371 220/462/367 157/460/369
f 157/460/364 216/461/366 221/464/372
f 222/465/373 157/460/364 221/464/372
f 159/463/371 157/460/364 222/465/373
f 223/466/374 159/463/371 222/465/373
s 0
f 213/467/375 212/468/349 220/469/367
s 1
f 213/467/351 220/469/367 159/470/371
f 215/471/353 213/467/351 159/470/371
f 215/471/353 159/470/371 223/472/374
f 218/473/356 215/471/353 223/472/374
s 0
f 219/469/376 211/474/377 214/467/378
s 1
f 219/469/376 214/467/352 216/475/354
f 221/476/372 216/477/366 217/478/355
f 224/479/379 225/480/380 118/481/381
f 119/482/382 224/479/379 118/481/381
f 224/479/379 226/483/383 225/480/384
f 226/483/383 227/484/385 225/480/384
f 226/483/386 84/485/387 227/484/388
f 84/485/387 83/486/389 227/484/388
f 225/487/390 224/488/391 119/489/392
f 118/490/393 225/487/390 119/489/392
f 225/487/394 227/491/395 224/488/396
f 227/491/395 226/492/397 224/488/396
f 227/491/398 83/493/399 226/492/400
f 83/493/399 84/494/401 226/492/400
f 87/495/402 113/496/403 112/497/404
f 111/498/405 87/495/402 112/497/404
f 87/495/406 111/498/407 109/161/408
f 108/160/409 87/495/406 109/161/408
f 101/499/111 100/500/113 112/497/404
f 113/496/410 101/499/111 112/497/404
f 89/501/169 74/502/156 101/503/155
f 113/225/170 89/501/169 101/503/155
f 228/504/411 229/505/412 230/506/413
f 231/507/414 228/504/411 230/506/413
f 230/506/413 229/505/412 232/508/415
f 229/505/412 233/509/416 232/508/415
f 232/508/415 233/509/416 234/510/417
f 233/509/416 235/511/418 234/510/417
f 236/512/419 228/504/411 231/507/414
f 237/513/420 236/512/419 231/507/414
f 238/514/421 236/512/419 237/513/420
f 239/515/422 238/514/421 237/513/420
f 239/515/422 240/516/423 238/514/421
f 240/516/423 241/517/424 238/514/421
f 228/504/411 64/518/425 229/505/412
f 64/518/425 93/519/426 229/505/412
f 229/505/412 93/519/426 233/509/416
f 64/518/425 91/520/427 93/519/428
f 91/520/429 62/521/430 93/519/431
f 91/520/432 242/522/433 62/521/77
f 242/522/433 243/523/434 62/521/77
f 62/521/77 243/523/434 72/524/78
f 243/523/434 244/525/435 72/524/78
f 72/524/78 244/525/435 74/526/436
f 244/525/435 245/527/437 74/526/436
f 246/528/438 242/522/433 91/520/432
f 94/529/439 246/528/438 91/520/432
f 94/529/440 91/520/427 64/518/425
f 247/530/441 246/528/438 94/529/439
f 96/531/442 247/530/441 94/529/439
f 96/531/442 98/532/443 247/530/441
f 98/532/443 248/533/444 247/530/441
f 242/522/433 249/534/445 243/523/434
f 249/534/445 250/535/446 243/523/434
f 243/523/434 250/535/446 244/525/435
f 250/535/446 249/534/445 251/536/447
f 252/537/448 250/535/446 251/536/447
f 252/537/448 253/538/449 250/535/446
f 253/538/449 254/539/450 250/535/446
f 244/525/435 254/539/450 245/527/437
f 250/535/446 254/539/450 244/525/435
f 251/536/447 249/534/445 255/540/451
f 249/534/445 256/541/452 255/540/451
f 257/542/453 254/539/450 253/538/449
f 254/539/450 257/542/453 245/527/437
f 258/543/454 257/542/453 253/538/449
f 255/540/451 256/541/452 167/544/455
f 256/541/452 259/545/456 167/544/455
f 247/530/441 248/533/444 259/545/456
f 167/544/455 259/545/456 176/546/457
f 248/533/444 176/546/457 259/545/456
f 260/547/458 167/544/455 176/546/457
f 256/541/452 249/534/445 242/522/433
f 246/528/438 256/541/452 242/522/433
f 259/545/456 256/541/452 246/528/438
f 247/530/441 259/545/456 246/528/438
f 261/548/459 257/542/453 258/543/454
f 262/549/460 261/548/459 258/543/454
f 261/548/459 262/549/460 263/550/461
f 263/550/461 264/551/462 261/548/459
f 264/551/462 265/552/463 261/548/459
f 257/542/453 261/548/459 265/552/463
f 262/549/460 266/553/464 263/550/461
f 264/551/462 87/554/465 265/552/463
f 87/554/465 113/555/466 265/552/463
f 113/555/467 87/554/468 111/556/469
f 112/557/470 113/555/467 111/556/469
f 112/557/471 111/556/472 267/558/473
f 268/559/474 112/557/471 267/558/473
f 267/558/473 269/560/475 268/559/474
f 269/560/475 270/561/476 268/559/474
f 270/561/476 269/560/475 271/562/477
f 272/563/478 270/561/476 271/562/477
f 272/563/478 271/562/477 273/564/479
f 274/565/480 272/563/478 273/564/479
f 273/564/479 275/566/481 274/565/480
f 275/566/481 276/567/482 274/565/480
f 275/566/481 277/568/483 276/567/482
f 277/568/483 278/569/484 276/567/482
f 278/569/484 277/568/483 279/570/485
f 280/571/486 278/569/484 279/570/485
f 280/571/486 279/570/485 281/572/487
f 282/573/488 280/571/486 281/572/487
f 235/511/418 268/559/474 270/561/476
f 234/510/417 235/511/418 270/561/476
f 234/510/417 270/561/476 272/563/478
f 273/564/479 271/562/477 283/574/489
f 271/562/477 284/575/490 283/574/489
f 283/574/489 284/575/490 285/576/491
f 284/575/490 286/577/492 285/576/491
f 285/576/491 286/577/492 287/578/493
f 286/577/492 288/579/494 287/578/493
f 286/577/492 289/580/495 288/579/494
f 289/580/495 290/581/496 288/579/494
f 289/580/495 291/582/497 290/581/496
f 292/583/498 291/582/497 289/580/495
f 293/584/499 292/583/498 289/580/495
f 293/584/499 289/580/495 286/577/492
f 284/575/490 293/584/499 286/577/492
f 291/582/497 294/585/500 290/581/496
f 291/582/497 295/586/501 294/585/500
f 295/586/501 82/587/502 294/585/500
f 295/586/501 84/588/503 82/587/502
f 84/588/503 107/589/504 82/587/505
f 84/588/506 226/590/507 107/589/504
f 296/591/508 226/590/509 84/588/510
f 108/592/511 296/591/508 84/588/510
f 108/592/512 84/588/503 295/586/501
f 226/590/507 297/593/513 107/589/504
f 296/591/508 298/594/514 226/590/509
f 298/594/514 224/595/515 226/590/509
f 226/590/507 224/595/515 297/593/513
f 180/596/516 224/595/515 298/594/514
f 181/597/517 180/596/518 298/594/514
f 180/596/516 299/598/519 224/595/515
f 299/598/519 300/599/520 224/595/515
f 224/595/515 300/599/520 297/593/513
f 109/600/521 108/592/512 295/586/501
f 109/600/521 295/586/501 291/582/497
f 292/583/498 109/600/521 291/582/497
f 264/551/462 296/591/508 108/592/511
f 87/554/465 264/551/462 108/592/511
f 181/597/517 298/594/514 266/553/464
f 298/594/514 263/550/461 266/553/464
f 263/550/461 298/594/514 296/591/508
f 264/551/462 263/550/461 296/591/508
f 111/556/472 109/600/521 292/583/498
f 267/558/473 111/556/472 292/583/498
f 267/558/473 292/583/498 293/584/499
f 269/560/475 267/558/473 293/584/499
f 269/560/475 293/584/499 284/575/490
f 271/562/477 269/560/475 284/575/490
f 299/598/519 301/601/522 300/599/520
f 302/602/523 300/603/524 301/601/522
f 303/604/525 302/602/523 301/601/522
f 302/602/523 304/605/526 300/603/524
f 304/605/526 305/606/527 300/603/524
f 304/605/526 306/607/528 305/606/527
f 306/607/528 307/608/529 305/606/527
f 306/607/528 308/609/530 307/608/529
f 308/609/530 105/610/531 307/608/529
f 308/609/530 309/611/532 105/610/531
f 309/611/532 310/612/533 105/610/531
f 311/613/534 310/612/533 309/611/532
f 312/614/535 311/613/534 309/611/532
f 312/614/535 309/611/532 313/615/536
f 314/616/537 312/614/535 313/615/536
f 314/616/537 313/615/536 240/617/423
f 313/615/536 241/618/424 240/617/423
f 313/615/536 103/619/538 241/618/424
f 103/619/538 313/615/536 309/611/532
f 308/609/530 103/619/538 309/611/532
f 103/619/538 99/620/539 241/618/424
f 103/619/540 102/621/541 99/620/542
f 102/621/543 103/619/538 308/609/530
f 306/607/528 102/621/543 308/609/530
f 102/621/541 98/622/544 99/620/542
f 102/621/543 315/623/545 98/622/443
f 315/623/545 248/624/444 98/622/443
f 315/623/545 316/625/546 248/624/444
f 316/625/546 176/626/457 248/624/444
f 260/627/458 176/626/457 316/625/546
f 175/628/547 260/627/458 316/625/546
f 314/616/537 240/617/423 317/629/548
f 318/630/549 314/616/537 317/629/548
f 318/630/549 317/629/548 319/631/550
f 320/632/551 318/630/549 319/631/550
f 320/632/551 319/631/550 321/633/552
f 322/634/553 320/632/551 321/633/552
f 322/634/553 321/633/552 323/635/554
f 324/636/555 322/634/553 323/635/554
f 324/636/555 323/635/554 325/637/556
f 326/638/557 324/636/555 325/637/556
f 326/638/557 325/637/556 327/639/558
f 328/640/559 326/638/557 327/639/558
f 320/632/551 329/641/560 318/630/549
f 329/641/560 330/642/561 318/630/549
f 330/642/561 329/641/560 331/643/562
f 330/642/561 331/643/562 311/613/534
f 312/614/535 330/642/561 311/613/534
f 329/641/560 332/644/563 331/643/562
f 329/641/560 333/645/564 332/644/563
f 333/645/564 329/641/560 320/632/551
f 322/634/553 333/645/564 320/632/551
f 333/645/564 334/646/565 332/644/563
f 333/645/564 335/647/566 334/646/565
f 322/634/553 324/636/555 335/647/566
f 333/645/564 322/634/553 335/647/566
f 335/647/566 324/636/555 326/638/557
f 335/647/566 336/648/567 334/646/565
f 335/647/566 337/649/568 336/648/567
f 337/649/568 335/647/566 326/638/557
f 337/649/568 326/638/557 328/640/559
f 337/649/568 338/650/569 336/648/567
f 337/649/568 339/651/570 338/650/569
f 339/651/570 337/649/568 328/640/559
f 339/651/570 340/652/571 338/650/569
f 332/644/563 287/578/493 331/643/562
f 287/578/493 288/579/494 331/643/562
f 341/653/572 338/650/569 340/652/571
f 338/650/569 341/653/572 336/648/567
f 342/654/573 341/653/572 340/652/571
f 341/653/572 342/654/573 343/655/574
f 342/654/573 344/656/575 343/655/574
f 345/657/576 343/655/574 344/656/575
f 346/658/577 345/657/576 344/656/575
f 345/657/576 347/659/578 343/655/574
f 347/659/578 348/660/579 343/655/574
f 347/659/578 349/661/580 348/660/579
f 349/661/580 350/662/581 348/660/579
f 348/660/579 350/662/581 351/663/582
f 343/655/574 348/660/579 351/663/582
f 341/653/572 343/655/574 351/663/582
f 350/662/581 352/664/583 351/663/582
f 349/661/580 283/574/489 350/662/581
f 283/574/489 285/576/491 350/662/581
f 285/576/491 287/578/493 352/664/583
f 350/662/581 285/576/491 352/664/583
f 279/570/485 345/657/576 346/658/577
f 281/572/487 279/570/485 346/658/577
f 275/566/481 349/661/580 347/659/578
f 277/568/483 275/566/481 347/659/578
f 277/568/483 347/659/578 345/657/576
f 279/570/485 277/568/483 345/657/576
f 273/564/479 283/574/489 349/661/580
f 275/566/481 273/564/479 349/661/580
f 336/648/567 351/663/582 352/664/583
f 334/646/565 336/648/567 352/664/583
f 341/653/572 351/663/582 336/648/567
f 334/646/565 352/664/583 332/644/563
f 352/664/583 287/578/493 332/644/563
f 282/573/488 353/665/584 354/666/585
f 354/666/585 353/665/584 355/667/586
f 353/665/584 356/668/587 355/667/586
f 355/667/586 356/668/587 357/669/588
f 356/668/587 358/670/589 357/669/588
f 357/669/588 358/670/589 359/671/590
f 358/670/589 360/672/591 359/671/590
f 361/673/592 359/671/590 360/672/591
f 362/674/593 361/673/592 360/672/591
f 361/673/592 363/675/594 359/671/590
f 363/675/594 364/676/595 359/671/590
f 359/671/590 364/676/595 365/677/596
f 357/669/588 359/671/590 365/677/596
f 364/676/595 366/678/597 365/677/596
f 363/675/594 366/678/597 364/676/595
f 366/678/597 367/679/598 365/677/596
f 365/677/596 367/679/598 368/680/599
f 357/669/588 365/677/596 368/680/599
f 355/667/586 357/669/588 368/680/599
f 367/679/598 369/681/600 368/680/599
f 368/680/599 369/681/600 354/682/585
f 355/667/586 368/680/599 354/682/585
f 369/681/600 370/683/601 354/682/585
f 363/675/594 371/684/602 366/678/597
f 371/684/602 372/685/603 366/678/597
f 373/686/604 372/685/603 371/684/602
f 374/687/605 373/686/604 371/684/602
f 373/686/604 374/687/605 321/688/552
f 374/687/605 323/689/554 321/688/552
f 325/690/556 323/689/554 374/687/605
f 375/691/606 325/690/556 374/687/605
f 375/691/606 374/687/605 371/684/602
f 375/691/606 376/692/607 325/690/556
f 376/692/607 327/693/558 325/690/556
f 377/694/608 376/692/607 375/691/606
f 378/695/609 377/694/608 375/691/606
f 378/695/609 375/691/606 371/684/602
f 369/681/600 379/696/610 370/683/601
f 380/697/611 379/696/610 369/681/600
f 380/697/611 381/698/612 379/696/610
f 382/699/613 381/698/612 380/697/611
f 383/700/614 382/699/613 380/697/611
f 384/701/615 382/699/613 383/700/614
f 385/702/616 384/701/615 383/700/614
f 381/698/612 386/703/617 379/696/610
f 379/696/610 386/703/617 387/704/618
f 386/703/617 388/705/619 387/704/618
f 389/706/620 384/701/615 385/702/616
f 390/707/621 389/706/620 385/702/616
f 390/707/621 319/708/550 389/706/620
f 319/708/550 317/709/548 389/706/620
f 382/699/613 231/507/414 381/698/612
f 231/507/414 230/506/413 381/698/612
f 381/698/612 230/506/413 386/703/617
f 237/513/420 231/507/414 382/699/613
f 384/701/615 237/513/420 382/699/613
f 239/515/422 237/513/420 384/701/615
f 389/706/620 239/515/422 384/701/615
f 389/706/620 317/709/548 240/516/423
f 239/515/422 389/706/620 240/516/423
f 386/703/617 232/508/415 388/705/619
f 230/506/413 232/508/415 386/703/617
f 232/508/415 234/510/417 388/705/619
f 321/688/552 319/708/550 390/707/621
f 373/686/604 321/688/552 390/707/621
f 373/686/604 390/707/621 372/685/603
f 390/707/621 385/702/616 372/685/603
f 372/685/603 385/702/616 366/678/597
f 385/702/616 383/700/614 366/678/597
f 366/678/597 383/700/614 367/679/598
f 383/700/614 380/697/611 367/679/598
f 367/679/598 380/697/611 369/681/600
f 388/705/619 234/510/417 272/563/478
f 388/705/619 272/563/478 274/565/480
f 387/704/618 388/705/619 274/565/480
f 387/704/618 274/565/480 276/567/482
f 370/683/601 387/704/618 276/567/482
f 379/696/610 387/704/618 370/683/601
f 370/683/601 276/567/482 278/569/484
f 354/682/585 370/683/601 278/569/484
f 280/571/486 354/666/585 278/569/484
f 280/571/486 282/573/488 354/666/585
f 282/710/622 391/711/623 353/665/584
f 353/665/584 391/711/623 356/668/587
f 356/668/587 392/712/624 358/670/589
f 392/712/624 393/713/625 358/670/589
f 358/670/589 393/713/625 360/672/591
f 377/694/608 378/695/609 362/674/593
f 378/695/609 361/673/592 362/674/593
f 361/673/592 378/695/609 363/675/594
f 378/695/609 371/684/602 363/675/594
f 394/714/626 395/715/627 220/716/628
f 219/717/629 394/714/626 220/716/628
f 395/715/627 394/714/626 396/718/630
f 394/714/626 397/719/631 396/718/630
f 394/714/626 398/720/632 397/719/631
f 394/714/626 219/717/629 398/720/632
f 398/720/632 399/721/633 397/719/631
f 400/722/634 399/721/633 398/720/632
f 401/723/635 400/722/634 398/720/632
f 401/723/635 398/720/632 402/724/636
f 219/717/629 402/724/636 398/720/632
f 403/725/637 401/723/635 402/724/636
f 403/725/637 402/724/636 404/726/638
f 404/726/638 402/724/636 219/717/629
f 405/727/639 403/725/637 404/726/638
f 405/727/639 404/726/638 406/728/640
f 407/729/641 405/727/639 406/728/640
f 406/728/640 408/730/642 407/729/641
f 408/730/642 409/731/643 407/729/641
f 408/730/642 410/732/644 409/731/643
f 410/732/644 411/733/645 409/731/643
f 406/728/640 404/726/638 412/734/646
f 413/735/647 406/728/640 412/734/646
f 408/730/642 406/728/640 413/735/647
f 412/734/646 404/726/638 219/717/629
f 410/732/644 408/730/642 414/736/648
f 414/736/648 408/730/642 413/735/647
f 405/727/639 407/729/641 415/737/649
f 416/738/650 405/727/639 415/737/649
f 403/725/637 405/727/639 416/738/650
f 415/737/649 417/739/651 416/738/650
f 417/739/651 418/740/652 416/738/650
f 417/739/651 419/741/653 418/740/652
f 419/741/653 417/739/651 415/737/649
f 419/741/653 420/742/654 418/740/652
f 420/742/654 419/741/653 421/743/655
f 421/744/656 422/745/657 420/742/654
f 420/742/654 422/745/657 423/746/658
f 418/740/652 420/742/654 423/746/658
f 416/738/650 418/740/652 423/747/659
f 421/744/656 424/748/660 422/745/657
f 425/749/661 419/741/653 415/737/649
f 425/749/661 426/750/662 419/751/663
f 423/747/659 403/725/637 416/738/650
f 401/723/635 403/725/637 423/747/659
f 422/752/664 401/723/635 423/747/659
f 400/722/634 401/723/635 422/752/664
f 424/748/660 400/722/634 422/752/664
f 425/749/661 409/731/643 426/750/662
f 407/729/641 409/731/643 425/749/661
f 415/737/649 407/729/641 425/749/661
f 409/731/643 411/733/645 426/750/662
f 427/753/665 195/754/666 180/755/667
f 182/756/668 427/753/665 180/755/667
f 180/755/669 195/754/666 179/757/670
f 195/754/666 428/758/671 179/757/670
f 181/759/517 182/756/668 180/760/667
f 180/755/672 179/757/670 299/761/519
f 427/753/665 429/762/673 195/754/666
f 430/763/674 429/762/673 427/753/665
f 184/764/675 430/763/674 427/753/665
f 184/764/675 427/753/665 182/756/668
f 431/765/676 430/763/674 184/764/675
f 432/766/677 431/765/676 184/764/675
f 433/767/678 431/765/676 432/766/677
f 434/768/679 433/767/678 432/766/677
f 429/762/673 435/769/680 195/754/666
f 195/754/666 435/769/680 428/758/671
f 435/769/680 121/770/681 428/758/671
f 428/758/671 121/770/681 177/771/682
f 179/757/670 428/758/671 177/771/682
f 121/770/681 436/772/683 177/771/682
f 177/771/682 436/772/683 437/773/684
f 436/772/683 438/774/685 437/773/684
f 437/773/684 438/774/685 439/775/686
f 438/774/685 440/776/687 439/775/686
f 429/762/673 156/777/688 435/769/680
f 156/777/688 158/778/689 435/769/680
f 435/769/680 158/778/689 121/770/681
f 441/779/690 158/778/689 156/777/688
f 442/780/691 441/779/690 156/777/688
f 442/780/691 156/777/688 153/781/692
f 443/782/693 442/780/691 153/781/692
f 153/781/692 444/783/694 443/782/693
f 444/783/694 445/784/695 443/782/693
f 441/779/690 446/785/696 158/778/689
f 446/785/696 447/786/697 158/778/689
f 446/785/696 448/787/698 447/786/697
f 448/787/698 449/788/699 447/786/697
f 448/787/698 450/789/700 449/788/699
f 450/789/700 451/790/701 449/788/699
f 444/783/694 452/791/702 445/784/695
f 452/791/702 453/792/703 445/784/695
f 450/789/700 454/793/704 451/790/701
f 454/793/704 455/794/705 451/790/701
f 447/786/697 449/788/699 436/772/683
f 121/770/681 447/786/697 436/772/683
f 158/778/689 447/786/697 121/770/681
f 446/785/696 456/795/706 448/787/698
f 220/716/628 456/795/706 446/785/696
f 220/716/628 457/796/707 456/795/706
f 457/796/707 458/797/708 456/795/706
f 458/797/708 457/796/707 459/798/709
f 458/797/708 459/798/709 460/799/710
f 461/800/711 458/797/708 460/799/710
f 460/799/710 462/801/712 461/800/711
f 462/801/712 463/802/713 461/800/711
f 457/796/707 464/803/714 459/798/709
f 457/796/707 465/804/715 464/803/714
f 465/804/715 457/796/707 220/716/628
f 465/804/715 466/805/716 464/803/714
f 462/801/712 467/806/717 463/802/713
f 467/806/717 468/807/718 463/802/713
f 465/804/715 469/808/719 466/805/716
f 469/808/719 470/809/720 466/805/716
f 458/797/708 461/800/711 471/810/721
f 456/795/706 458/797/708 471/810/721
f 463/802/713 468/807/718 148/811/722
f 461/800/711 463/802/713 148/812/723
f 471/810/721 461/800/711 148/812/723
f 469/808/719 465/804/715 395/715/627
f 396/718/630 469/808/719 395/715/627
f 395/715/627 465/804/715 220/716/628
f 464/803/714 466/805/716 472/813/724
f 473/814/725 464/803/714 472/813/724
f 472/813/724 474/815/726 473/814/725
f 474/815/726 472/813/724 475/816/727
f 476/817/728 474/815/726 475/818/729
f 475/818/729 477/819/730 476/817/728
f 477/819/730 478/820/731 476/817/728
f 476/817/728 478/820/731 479/821/732
f 480/822/733 476/817/728 479/821/732
f 474/815/726 476/817/728 480/822/733
f 481/823/734 474/815/726 480/822/733
f 474/815/726 481/823/734 473/814/725
f 480/822/733 479/821/732 482/824/735
f 483/825/736 480/822/733 482/824/735
f 481/823/734 480/822/733 483/825/736
f 473/814/725 481/823/734 483/825/736
f 477/819/730 484/826/737 478/820/731
f 484/826/737 485/827/738 478/820/731
f 479/821/732 478/820/731 485/827/738
f 482/824/735 479/821/732 485/827/738
f 472/813/724 486/828/739 475/816/727
f 483/825/736 459/798/709 473/814/725
f 459/798/709 464/803/714 473/814/725
f 460/799/710 459/798/709 483/825/736
f 482/824/735 460/799/710 483/825/736
f 462/801/712 460/799/710 482/824/735
f 485/827/738 462/801/712 482/824/735
f 467/806/717 462/801/712 485/827/738
f 484/826/737 467/806/717 485/827/738
f 466/805/716 470/809/720 486/828/739
f 472/813/724 466/805/716 486/828/739
f 487/829/740 488/830/741 253/831/449
f 252/832/448 487/829/740 253/831/449
f 253/831/449 488/830/741 489/833/742
f 258/834/454 253/831/449 489/833/742
f 252/832/448 251/835/447 487/829/740
f 251/835/447 490/836/743 487/829/740
f 490/836/743 491/837/744 487/829/740
f 491/837/744 492/838/745 487/829/740
f 487/829/740 492/838/745 488/830/741
f 492/838/745 491/837/744 493/839/746
f 491/837/744 494/840/747 493/839/746
f 493/839/746 495/841/748 492/838/745
f 495/841/748 199/842/749 492/838/745
f 488/830/741 199/842/749 489/833/742
f 492/838/745 199/842/749 488/830/741
f 199/842/749 495/841/748 496/843/750
f 497/844/751 199/842/749 496/843/750
f 199/842/749 497/844/751 489/833/742
f 258/834/454 489/833/742 498/845/752
f 489/833/742 497/844/751 498/845/752
f 262/846/460 258/834/454 498/845/752
f 262/846/460 498/845/752 266/847/464
f 498/845/752 183/848/753 266/847/464
f 498/845/752 499/849/754 183/848/753
f 497/844/751 499/849/754 498/845/752
f 499/849/754 186/850/755 183/848/753
f 186/850/755 499/849/754 500/851/756
f 497/844/751 496/843/750 500/851/756
f 499/849/754 497/844/751 500/851/756
f 501/852/757 186/850/755 500/851/756
f 266/847/464 183/848/753 182/756/758
f 183/848/753 184/764/759 182/756/760
f 181/759/517 266/847/464 182/756/758
f 501/852/757 434/768/679 186/850/755
f 434/768/679 432/766/677 186/850/755
f 432/766/677 184/764/675 183/848/753
f 186/850/755 432/766/677 183/848/753
f 502/853/761 503/854/762 260/855/458
f 175/856/547 502/853/761 260/855/458
f 260/855/458 503/854/762 167/857/455
f 503/854/762 504/858/763 167/857/455
f 167/857/455 504/858/763 505/859/764
f 255/860/451 167/857/455 505/859/764
f 255/860/451 505/859/764 490/861/743
f 251/862/447 255/860/451 490/861/743
f 505/859/764 506/863/765 490/861/743
f 506/863/765 491/864/744 490/861/743
f 491/864/744 506/863/765 494/865/747
f 507/866/766 506/863/765 505/859/764
f 504/858/763 507/866/766 505/859/764
f 507/866/766 508/867/767 506/868/768
f 508/867/767 507/866/766 509/869/769
f 509/869/769 507/866/766 504/858/763
f 503/854/762 509/869/769 504/858/763
f 510/870/770 508/867/767 509/869/769
f 174/871/771 502/853/761 175/856/547
f 303/872/525 174/871/772 175/856/547
f 174/871/772 303/872/525 301/873/522
f 178/874/773 174/871/772 301/873/522
f 509/869/769 511/875/774 510/870/770
f 511/875/774 512/876/775 510/870/770
f 512/876/775 511/875/774 513/877/776
f 511/875/774 514/878/777 513/877/776
f 174/871/771 177/771/682 514/878/777
f 502/853/761 174/871/771 514/878/777
f 511/875/774 502/853/761 514/878/777
f 514/878/777 437/773/684 513/877/776
f 177/771/682 437/773/684 514/878/777
f 437/773/684 439/775/686 513/877/776
f 511/875/774 509/869/769 503/854/762
f 502/853/761 511/875/774 503/854/762
f 301/873/522 299/761/519 178/874/773
f 299/761/519 179/757/670 178/874/773
f 508/879/767 510/880/770 515/881/778
f 516/882/779 508/879/767 515/881/778
f 506/883/768 508/879/767 516/882/779
f 494/884/747 506/883/768 516/882/779
f 516/882/779 515/881/778 496/885/750
f 495/886/748 516/882/779 496/885/750
f 494/884/747 516/882/779 495/886/748
f 493/887/746 494/884/747 495/886/748
f 515/881/778 510/880/770 517/888/780
f 510/880/770 512/889/775 517/888/780
f 518/890/781 517/888/780 512/889/775
f 517/888/780 518/890/781 501/891/757
f 500/892/756 517/888/780 501/891/757
f 515/881/778 517/888/780 500/892/756
f 496/885/750 515/881/778 500/892/756
f 513/893/776 518/890/781 512/889/775
f 518/890/781 513/893/776 439/894/686
f 519/895/782 518/890/781 439/894/686
f 501/891/757 518/890/781 519/895/782
f 519/895/782 439/894/686 520/896/783
f 519/895/782 520/896/783 433/897/678
f 434/898/679 519/895/782 433/897/678
f 434/898/679 501/891/757 519/895/782
f 439/894/686 440/899/687 520/896/783
f 520/896/783 440/899/687 521/900/784
f 440/899/687 455/901/705 521/900/784
f 522/902/785 521/900/784 455/901/705
f 521/900/784 522/902/785 453/903/703
f 452/904/702 521/900/784 453/903/703
f 520/896/783 521/900/784 452/904/702
f 433/897/678 520/896/783 452/904/702
f 454/905/704 522/902/785 455/901/705
f 453/903/703 522/902/785 414/906/786
f 522/902/785 397/907/631 414/906/786
f 414/906/786 397/907/631 410/908/644
f 397/907/631 399/909/633 410/908/644
f 410/908/644 399/909/633 411/910/645
f 399/909/633 400/911/634 411/910/645
f 411/910/645 400/911/634 424/912/660
f 426/913/662 411/910/645 424/912/660
f 426/913/662 424/912/660 419/914/663
f 424/912/660 421/915/656 419/914/663
f 522/902/785 454/905/704 396/916/630
f 397/907/631 522/902/785 396/916/630
f 454/905/704 148/917/722 396/916/630
f 469/918/719 396/916/630 148/917/722
f 468/919/718 469/918/719 148/917/722
f 470/920/720 469/918/719 468/919/718
f 467/921/717 470/920/720 468/919/718
f 470/920/720 467/921/717 484/922/737
f 486/923/739 470/920/720 484/922/737
f 484/922/737 477/924/730 486/923/739
f 477/924/730 475/925/727 486/923/739
f 153/781/692 156/777/688 429/762/673
f 430/763/674 153/781/692 429/762/673
f 444/783/694 153/781/692 430/763/674
f 431/765/676 444/783/694 430/763/674
f 452/791/702 444/783/694 431/765/676
f 433/767/678 452/791/702 431/765/676
f 413/735/647 412/734/646 442/780/691
f 443/782/693 413/735/647 442/780/691
f 442/780/691 412/734/646 441/779/690
f 412/734/646 219/717/629 441/779/690
f 220/716/628 441/779/690 219/717/629
f 441/779/690 220/716/628 446/785/696
f 414/736/648 413/735/647 443/782/693
f 445/784/695 414/736/648 443/782/693
f 453/792/703 414/926/786 445/784/695
f 456/795/706 471/810/721 448/787/698
f 448/787/698 471/810/721 450/789/700
f 471/810/721 148/812/723 450/789/700
f 450/789/700 148/812/723 454/793/704
f 451/790/701 455/794/705 440/776/687
f 438/774/685 451/790/701 440/776/687
f 449/788/699 451/790/701 438/774/685
f 436/772/683 449/788/699 438/774/685
f 95/927/787 94/529/440 64/518/425
f 96/531/788 94/529/789 95/927/790
f 97/928/791 96/531/788 95/927/790
f 97/928/792 99/929/542 98/532/544
f 95/927/787 64/518/425 228/504/411
f 236/512/419 95/927/787 228/504/411
f 97/928/793 95/927/787 236/512/419
f 238/514/421 97/928/793 236/512/419
f 97/928/793 238/514/421 99/929/539
f 238/514/421 241/517/424 99/929/539
f 72/524/794 74/526/436 100/930/795
f 71/931/796 72/524/797 100/930/795
f 93/519/431 62/521/430 71/931/798
f 71/931/796 100/930/795 235/511/418
f 233/509/416 71/931/796 235/511/418
f 93/519/426 71/931/796 233/509/416
f 100/930/795 74/526/436 112/557/799
f 74/526/436 113/555/466 112/557/799
f 74/526/436 245/527/437 113/555/466
f 245/527/437 265/552/463 113/555/466
f 245/527/437 257/542/453 265/552/463
f 100/930/795 112/557/471 268/559/474
f 235/511/418 100/930/795 268/559/474
f 331/643/562 288/579/494 290/581/496
f 311/613/534 331/643/562 290/581/496
f 311/613/534 290/581/496 310/612/533
f 290/581/496 294/585/500 310/612/533
f 310/612/533 294/585/500 82/587/502
f 105/610/531 310/612/533 82/587/502
f 105/610/531 82/587/505 107/589/504
f 307/608/529 105/610/531 107/589/504
f 307/608/529 107/589/504 305/606/527
f 107/589/504 297/593/513 305/606/527
f 305/606/527 297/593/513 300/603/524
f 314/616/537 318/630/549 330/642/561
f 312/614/535 314/616/537 330/642/561
f 175/628/547 316/625/546 302/602/523
f 303/604/525 175/628/547 302/602/523
f 304/605/526 302/602/523 316/625/546
f 315/623/545 304/605/526 316/625/546
f 306/607/528 304/605/526 315/623/545
f 102/621/543 306/607/528 315/623/545
