# Blender 4.3.2
# www.blender.org
mtllib PiernaIzq_T.mtl
o PiernaIzq_T
v -1.279673 -1.605065 1.733077
v -1.576632 -1.786132 0.160105
v -1.281255 -1.669166 -1.475912
v 0.765608 1.122049 -4.606364
v -0.594562 -0.910682 -3.207575
v 0.838653 -3.140067 -1.623800
v 2.832772 1.271189 -3.176496
v 3.974743 1.314673 -0.246995
v 2.034430 -3.155531 -0.084821
v 1.119924 -3.148171 1.564966
v 1.047585 1.249372 4.622126
v -0.496272 -0.790537 3.463055
v 1.798213 -3.153486 0.953028
v 3.269093 1.308824 2.717675
v -0.683363 -3.161053 1.252166
v -0.935208 -3.157787 0.176742
v 0.076593 -2.159281 2.339220
v 0.342429 -3.160603 1.683398
v 1.660262 -3.153968 -1.081259
v 0.157317 -3.135134 -1.591507
v -0.696754 -3.154144 -1.008976
v 1.164338 -3.154102 -1.120445
v 1.704233 -3.126676 0.381864
v 0.206303 -3.449656 1.520461
v 0.113999 -4.143871 2.267666
v 0.832375 -3.914845 1.779827
v -0.513580 -3.504108 1.315604
v -0.592373 -4.269161 1.735183
v 1.025960 -4.277395 1.493393
v 1.093510 -4.258358 0.397250
v 0.385125 -4.288883 -0.932015
v -0.614232 -3.944867 0.618840
v -0.286394 -4.278305 -0.700990
v 1.029328 -3.603897 1.144005
vn 0.3829 -0.5200 -0.7635
vn 0.1612 -0.8390 -0.5197
vn 0.0088 -0.5754 -0.8179
vn 0.6992 -0.4492 -0.5562
vn 0.8616 -0.3856 -0.3300
vn 0.5872 -0.8086 -0.0353
vn 0.2665 -0.8219 0.5034
vn 0.4466 -0.5056 0.7382
vn 0.1197 -0.5715 0.8118
vn 0.5168 -0.8112 0.2735
vn 0.7587 -0.4392 0.4811
vn 0.8996 -0.3815 0.2125
vn -0.8909 -0.4040 0.2074
vn -0.8876 -0.4090 0.2116
vn -0.9179 -0.3968 0.0039
vn -0.4725 -0.5656 0.6759
vn -0.5142 -0.6625 0.5448
vn -0.5178 -0.5507 0.6547
vn -0.4167 -0.4735 0.7760
vn -0.0589 -0.4742 0.8785
vn -0.8910 -0.4140 -0.1864
vn -0.9058 -0.4234 0.0133
vn -0.0001 -0.9999 -0.0145
vn -0.0376 -0.7299 -0.6825
vn -0.0809 -0.9965 -0.0200
vn 0.4778 -0.8091 -0.3422
vn 0.1147 -0.7037 0.7011
vn -0.7350 -0.4525 -0.5050
vn -0.5289 -0.5074 -0.6803
vn -0.6068 -0.5504 -0.5735
vn -0.0187 -0.6285 0.7776
vn -0.0371 0.2060 0.9778
vn -0.0438 -0.2172 0.9751
vn 0.6356 0.3146 0.7050
vn -0.7740 0.1163 0.6223
vn -0.7280 -0.5019 0.4670
vn 0.7121 -0.6277 0.3145
vn 0.6070 -0.7944 -0.0217
vn 0.6291 -0.5269 -0.5715
vn 0.6551 -0.4968 -0.5693
vn 0.9129 -0.3928 0.1115
vn -0.4926 -0.7629 -0.4186
vn -0.3892 -0.4264 -0.8165
vn 0.3820 -0.4006 -0.8328
vn -0.9477 -0.3192 0.0065
vn 0.8288 0.1012 0.5503
vn 0.0007 -1.0000 0.0076
vn -0.2761 0.0413 0.9603
vn -0.6348 -0.5830 -0.5071
vt 0.746811 -0.443585
vt 0.836080 -0.507833
vt 0.811300 -0.450200
vt 0.726792 -0.485351
vt 0.716800 -0.547300
vt 0.826077 -0.549397
vt 0.834698 -0.589074
vt 0.744483 -0.661898
vt 0.809400 -0.653900
vt 0.828429 -0.571752
vt 0.722000 -0.607600
vt 0.859800 -0.613400
vt 0.850694 -0.646173
vt 0.882304 -0.614754
vt 0.829300 -0.620600
vt 0.844100 -0.603800
vt 0.851069 -0.457535
vt 0.884503 -0.487647
vt 0.884300 -0.460600
vt 0.859400 -0.530200
vt 0.854100 -0.539800
vt 0.869509 -0.531946
vt 0.840700 -0.555300
vt 0.847183 -0.563915
vt 0.847100 -0.538400
vt 0.844500 -0.571700
vt 0.855000 -0.581200
vt 0.865358 -0.579913
vt 0.859600 -0.488900
vt 0.843805 -0.497674
vt 0.882200 -0.641200
vt 0.939907 -0.460759
vt 0.906881 -0.460613
vt 0.921180 -0.481380
vt 0.934941 -0.431623
vt 0.909519 -0.433818
vt 0.915918 -0.493820
vt 0.918964 -0.521492
vt 0.891710 -0.558310
vt 0.932100 -0.571900
vt 0.950082 -0.515645
vt 0.906140 -0.368289
vt 0.947910 -0.400427
vt 0.939900 -0.353300
vt 0.932900 -0.335500
vt 0.897400 -0.353700
vt 0.906300 -0.592100
vt 0.925400 -0.407700
vt 0.938000 -0.496000
vt 0.653097 -0.524680
vt 0.661673 -0.526944
vt 0.647571 -0.491702
vt 0.669600 -0.515300
vt 0.668198 -0.495330
vt 0.656000 -0.483100
vt 0.946100 -0.426600
vt 0.949477 -0.470665
vt 0.829008 -0.525469
s 1
usemtl Material__16
f 4/1/1 6/2/2 5/3/3
f 7/4/4 8/5/5 9/6/6
f 10/7/7 11/8/8 12/9/9
f 13/10/10 14/11/11 10/7/7
f 9/6/6 8/5/12 13/10/10
f 15/12/13 1/13/14 16/14/15
f 17/15/16 12/9/17 1/13/18
f 15/12/19 18/16/20 17/15/16
f 17/15/16 1/13/18 15/12/19
f 3/17/21 16/18/15 2/19/22
f 6/20/2 22/21/23 20/22/24
f 9/23/6 23/24/25 19/25/26
f 9/23/6 13/26/10 23/24/25
f 13/26/10 10/27/7 18/28/27
f 18/28/27 23/24/25 13/26/10
f 16/18/15 3/17/21 21/29/28
f 20/30/29 21/29/28 3/17/30
f 2/31/22 16/14/15 1/13/14
f 17/15/31 18/16/27 10/7/7
f 23/24/25 22/21/23 19/25/26
f 6/20/2 19/25/26 22/21/23
f 24/32/32 25/33/33 26/34/34
f 25/33/33 24/32/32 27/35/35
f 27/35/35 28/36/36 25/33/33
f 29/37/37 26/34/34 25/33/33
f 30/38/38 31/39/39 22/40/40
f 22/40/40 23/41/41 30/38/38
f 33/42/42 16/43/15 21/44/28
f 21/44/28 20/45/29 31/46/43
f 31/46/43 33/42/42 21/44/28
f 31/39/39 20/47/44 22/40/40
f 16/43/15 33/42/42 32/48/45
f 24/32/32 26/34/34 34/49/46
f 26/34/34 29/37/37 34/49/46
f 30/38/38 23/41/41 34/49/46
f 27/35/35 32/48/45 28/36/36
f 29/37/37 30/38/38 34/49/46
f 33/50/42 31/51/47 28/52/36
f 31/51/47 30/53/38 28/52/36
f 30/53/38 29/54/37 28/52/36
f 29/54/37 25/55/33 28/52/36
f 15/56/48 27/35/35 24/32/32
f 18/57/20 15/56/19 24/32/32
f 16/43/15 32/48/45 27/35/35
f 34/49/46 23/41/41 18/57/20
f 18/57/20 24/32/32 34/49/46
f 27/35/35 15/56/13 16/43/15
f 32/48/45 33/42/42 28/36/36
f 4/1/1 7/4/4 19/58/26
f 19/58/26 6/2/2 4/1/1
f 7/4/4 9/6/6 19/58/26
f 13/10/10 8/5/12 14/11/11
f 10/7/7 14/11/11 11/8/8
f 10/7/7 12/9/9 17/15/31
f 5/3/3 6/2/2 20/30/24
f 20/30/29 3/17/30 5/3/49
