# Blender 4.3.2
# www.blender.org
mtllib PiernaDer_DP.mtl
o PiernaDer_DP
v -0.579660 -2.859304 1.220588
v -0.350412 -2.859304 1.336310
v -0.800850 -2.859304 0.673100
v 0.101856 -2.859304 0.673100
v -0.120798 -2.859304 1.220588
v -0.762036 -2.859304 -0.130366
v -0.710034 -2.521288 0.665414
v -0.305004 -2.301562 0.109136
v -0.305736 -2.302294 0.702032
v -0.559518 -2.372242 0.033332
v -0.538644 -2.350270 0.658820
v -0.667554 -2.548024 -0.088984
v -0.580026 -2.621632 -0.398800
v -0.617748 -2.859304 -0.429196
v -0.350412 -2.859304 -0.563590
v -0.339060 -2.721976 -0.531730
v -0.082344 -2.859304 -0.429196
v -0.082344 -2.621632 -0.398800
v 0.062676 -2.859304 -0.130366
v 0.016164 -2.548024 -0.088984
v -0.038400 -2.218432 -0.143548
v -0.063672 -2.372242 0.033332
v -0.106152 -2.218432 0.024908
v -0.270576 -2.218432 0.094856
v -0.080514 -1.477954 0.042854
v 0.062676 -2.521288 0.665414
v -0.080880 -2.350270 0.658820
v -0.435738 -2.218432 0.024908
v -0.503856 -2.218432 -0.143548
v -0.435738 -2.218432 -0.312370
v -0.270576 -2.218432 -0.382318
v -0.106152 -2.218432 -0.312370
v -0.177930 -1.477954 0.085334
v -0.267648 -1.477954 0.042854
v -0.316722 -1.477954 -0.059320
v -0.267648 -1.477954 -0.160762
v -0.200634 -1.477954 -0.203242
v -0.080514 -1.477954 -0.160762
v -0.022290 -1.477954 -0.059320
v -0.025584 -1.095634 -0.121942
v -0.131418 -1.130788 -0.164422
v -0.210522 -1.083544 -0.120112
v -0.108714 -2.722708 1.196048
v -0.322944 -2.520922 1.157234
v -0.569772 -2.722708 1.196048
v -0.339060 -2.722708 1.311776
v 0.027150 -1.046560 -0.013180
v -0.016794 -0.959764 -0.110956
v -0.089304 -0.868216 -0.138790
v 0.117240 -0.177538 -0.109126
v 0.172170 -0.168382 0.095588
v 0.103320 -0.059620 0.205448
v -0.159252 0.121652 -0.022702
v -0.100656 -0.014212 -0.131830
v -0.037668 -1.154956 0.072884
v 0.001152 0.090524 0.218636
v -0.098826 0.153512 0.116096
v 0.023490 -0.139090 -0.166618
v -0.131784 -1.248706 0.108038
v -0.213084 -1.154956 0.072884
v -0.254466 -1.046560 -0.013180
v -0.196602 -0.959764 -0.110956
vn -0.7448 -0.5971 0.2980
vn -0.7737 -0.5861 0.2405
vn -0.2882 -0.5875 0.7561
vn 0.7229 -0.6447 0.2486
vn 0.2962 -0.6298 0.7181
vn -0.5604 0.6775 0.4764
vn -0.4589 0.6014 0.6540
vn 0.0081 0.9893 -0.1454
vn -0.8370 0.5055 -0.2096
vn -0.9696 0.1567 -0.1881
vn -0.8466 -0.5281 -0.0665
vn -0.7196 -0.1234 -0.6833
vn -0.6879 -0.5829 -0.4324
vn -0.0218 -0.2109 -0.9773
vn -0.3615 -0.3460 -0.8658
vn 0.3548 -0.6212 -0.6987
vn 0.6642 -0.2702 -0.6970
vn 0.7329 -0.6173 -0.2861
vn 0.9851 -0.0335 -0.1684
vn 0.9496 -0.3119 0.0317
vn 0.9986 0.0199 -0.0485
vn 0.6173 0.4701 0.6308
vn 0.5658 -0.3873 0.7279
vn 0.4453 0.1089 0.8887
vn 0.9794 0.0173 0.2014
vn 0.8078 0.5456 0.2230
vn -0.7998 -0.0414 0.5988
vn -0.9673 0.1216 0.2224
vn -0.0708 -0.4301 0.9000
vn -0.9626 -0.2338 -0.1371
vn -0.8644 0.3606 -0.3505
vn -0.6953 -0.0803 -0.7142
vn -0.4167 0.2873 -0.8624
vn 0.6626 -0.1751 0.7282
vn 0.2454 0.9533 0.1761
vn -0.3363 0.7566 0.5607
vn -0.3538 0.7147 0.6034
vn -0.5270 0.4149 0.7417
vn 0.6544 -0.2578 -0.7108
vn -0.7229 -0.2284 0.6521
vn -0.1410 -0.2879 -0.9472
vn 0.5621 -0.3368 -0.7554
vn 0.8486 -0.5254 -0.0611
vn 0.5716 -0.4276 -0.7003
vn 0.3718 0.2449 -0.8954
vn -0.4687 0.0042 -0.8834
vn 0.6572 0.3936 -0.6428
vn 0.9684 0.2391 0.0708
vn 0.8984 -0.4342 -0.0652
vn 0.8872 0.2277 -0.4012
vn 0.7074 -0.2486 0.6617
vn 0.8627 0.1369 0.4869
vn 0.1700 0.1504 0.9739
vn -0.3951 0.7519 0.5278
vn 0.0818 0.4488 0.8899
vn -0.4416 -0.2107 0.8721
vn -0.9153 0.2162 -0.3398
vn -0.5746 0.4621 -0.6755
vn 0.1990 0.2048 -0.9584
vn 0.2842 -0.1111 -0.9523
vn -0.2457 -0.2327 -0.9410
vn -0.8453 0.4443 -0.2968
vt 0.410156 1.332031
vt 0.378906 1.386719
vt 0.453125 1.312500
vt 0.527344 1.386719
vt 0.492188 1.332031
vt 0.656250 1.531250
vt 0.644531 1.546875
vt 0.664063 1.464844
vt 0.625000 1.468750
vt 0.613281 1.566406
vt 0.562500 1.574219
vt 0.601563 1.625000
vt 0.562500 1.628906
vt 0.585938 1.648438
vt 0.562500 1.652344
vt 0.667969 1.578125
vt 0.667969 1.546875
vt 0.761719 1.535156
vt 0.667969 1.535156
vt 0.562500 1.472656
vt 0.652344 1.468750
vt 0.761719 1.527344
vt 0.761719 1.558594
vt 0.667969 1.609375
vt 0.761719 1.585938
vt 0.667969 1.621094
vt 0.539063 1.472656
vt 0.378906 1.574219
vt 0.527344 1.574219
vt 0.406250 1.628906
vt 0.500000 1.628906
vt 0.453125 1.652344
vt 0.562500 1.332031
vt 0.562500 1.390625
vt 0.585938 1.335938
vt 0.613281 1.394531
vt 0.640625 1.398438
vt 0.648438 1.386719
vt 0.617188 1.343750
vt 0.585938 1.316406
vt 0.562500 1.312500
vt 0.761719 1.593750
vt 0.843750 1.546875
vt 0.218750 1.222656
vt 0.367188 1.472656
s 1
usemtl mesh0136mat
f 1/1/1 3/2/2 2/3/3
f 3/2/2 4/4/4 2/3/3
f 2/3/3 4/4/4 5/5/5
f 8/6/6 10/7/7 9/8/8
f 7/9/9 12/10/10 6/11/11
f 6/11/11 13/12/12 14/13/13
f 13/12/12 16/14/14 15/15/15
f 15/15/15 16/14/14 17/13/16
f 16/14/14 18/12/17 17/13/16
f 17/13/16 18/12/17 19/11/18
f 19/11/18 18/12/17 20/10/19
f 18/12/17 21/16/20 20/10/19
f 20/10/19 21/16/20 22/7/21
f 23/17/22 25/18/23 24/19/24
f 19/11/18 20/10/19 4/20/4
f 4/20/4 20/10/19 26/9/25
f 20/10/19 22/7/21 26/9/25
f 26/9/25 22/7/21 27/21/26
f 24/19/24 28/17/27 10/7/7
f 28/17/27 29/16/28 10/7/7
f 10/7/7 29/16/28 12/10/10
f 25/18/23 33/22/29 24/19/24
f 24/19/24 33/22/29 28/17/27
f 29/16/28 35/23/30 30/24/31
f 30/24/31 36/25/32 31/26/33
f 4/27/4 6/28/11 19/29/18
f 19/29/18 14/30/13 17/31/16
f 14/30/13 15/32/15 17/31/16
f 5/33/5 4/34/4 43/35/34
f 4/34/4 26/36/25 43/35/34
f 26/36/25 27/37/26 43/35/34
f 27/37/26 9/38/8 44/39/35
f 9/38/8 11/37/36 44/39/35
f 44/39/35 11/37/36 45/35/37
f 3/34/2 1/33/1 45/35/37
f 45/35/37 1/33/1 46/40/38
f 1/33/1 2/41/3 46/40/38
f 6/11/11 3/20/2 7/9/9
f 9/8/8 10/7/7 11/21/36
f 10/7/7 12/10/10 11/21/36
f 11/21/36 12/10/10 7/9/9
f 12/10/10 13/12/12 6/11/11
f 14/13/13 13/12/12 15/15/15
f 21/16/20 23/17/22 22/7/21
f 22/7/21 23/17/22 24/19/24
f 27/21/26 22/7/21 9/8/8
f 9/8/8 22/7/21 8/6/6
f 22/7/21 24/19/24 8/6/6
f 8/6/6 24/19/24 10/7/7
f 12/10/10 29/16/28 13/12/12
f 29/16/28 30/24/31 13/12/12
f 30/24/31 31/26/33 13/12/12
f 13/12/12 31/26/33 16/14/14
f 16/14/14 31/26/33 18/12/17
f 31/26/33 32/24/39 18/12/17
f 18/12/17 32/24/39 21/16/20
f 33/22/29 34/18/40 28/17/27
f 28/17/27 34/18/40 29/16/28
f 34/18/40 35/23/30 29/16/28
f 35/23/30 36/25/32 30/24/31
f 36/25/32 37/42/41 31/26/33
f 31/26/33 37/42/41 32/24/39
f 37/42/41 38/25/42 32/24/39
f 32/24/39 38/25/42 21/16/20
f 38/25/42 39/43/43 21/16/20
f 21/16/20 39/43/43 23/17/22
f 39/43/43 25/18/23 23/17/22
f 40/44/44 38/44/42 41/44/45
f 38/44/42 37/44/41 41/44/45
f 41/44/45 37/44/41 42/44/46
f 37/44/41 36/44/32 42/44/46
f 3/45/2 6/28/11 4/27/4
f 6/28/11 14/30/13 19/29/18
f 2/41/3 5/33/5 43/35/34
f 43/35/34 27/37/26 44/39/35
f 11/37/36 7/36/9 45/35/37
f 7/36/9 3/34/2 45/35/37
f 2/41/3 43/35/34 46/40/38
f 43/35/34 44/39/35 46/40/38
f 46/40/38 44/39/35 45/35/37
f 48/44/47 50/44/48 51/44/49
f 48/44/47 51/44/49 47/44/50
f 47/44/50 52/44/51 55/44/52
f 55/44/52 52/44/51 56/44/53
f 56/44/53 57/44/54 59/44/55
f 59/44/55 57/44/54 60/44/56
f 57/44/54 53/44/57 60/44/56
f 62/44/58 54/44/59 58/44/60
f 58/44/60 49/44/61 62/44/58
f 62/44/58 42/44/46 61/44/62
f 42/44/46 36/44/32 61/44/62
f 61/44/62 34/44/40 60/44/56
f 47/44/50 40/44/44 48/44/47
f 40/44/44 41/44/45 48/44/47
f 41/44/45 49/44/61 48/44/47
f 49/44/61 50/44/48 48/44/47
f 51/44/49 52/44/51 47/44/50
f 55/44/52 56/44/53 59/44/55
f 60/44/56 53/44/57 61/44/62
f 53/44/57 54/44/59 61/44/62
f 61/44/62 54/44/59 62/44/58
f 50/44/48 49/44/61 58/44/60
f 49/44/61 41/44/45 62/44/58
f 41/44/45 42/44/46 62/44/58
f 36/44/32 35/44/30 61/44/62
f 35/44/30 34/44/40 61/44/62
f 34/44/40 33/44/29 60/44/56
f 60/44/56 33/44/29 59/44/55
f 33/44/29 25/44/23 59/44/55
f 59/44/55 25/44/23 55/44/52
f 25/44/23 39/44/43 55/44/52
f 55/44/52 39/44/43 47/44/50
f 39/44/43 38/44/42 47/44/50
f 38/44/42 40/44/44 47/44/50
f 52/44/51 51/44/49 50/44/48 58/44/60 54/44/59 53/44/57 57/44/54 56/44/53
