# Blender 4.3.2
# www.blender.org
mtllib PiernaIzq_A.mtl
o PiernaIzqA
v 0.144143 -12.049104 -0.351522
v 0.182022 -11.184717 0.254582
v -0.318001 -11.201640 -0.708453
v -0.710452 -10.704120 -0.388260
v -0.731757 -11.184250 0.272503
v -0.259838 -11.023226 0.667591
v 0.698669 -4.013566 -0.410932
v 0.892907 -0.380485 1.314194
v -0.301140 -3.877863 -1.084393
v -1.350725 -3.866731 -0.012446
v -0.952706 -4.122320 1.136272
v -0.314128 -4.088235 1.461366
v 0.354057 -12.293521 2.650308
v 0.357383 -12.060184 0.681267
v 0.289552 -11.962390 1.465526
v -0.256889 -11.442040 0.991852
v -0.810002 -11.710013 0.772829
v -0.850309 -12.070327 -0.261707
v -1.055362 -12.291653 2.668501
v -0.354522 -12.561240 2.233480
v -0.357467 -12.522819 -0.246885
v 0.195525 -12.395778 0.006056
v -0.321899 -12.325989 -0.628767
v -0.748908 -12.400942 -0.222937
v 0.191026 -12.090777 2.822017
v -0.398030 -11.924911 2.841228
v -0.909831 -12.249290 3.262077
v -0.925558 -12.482605 3.051349
v 0.220594 -12.511801 2.643980
v -0.438552 -12.287334 3.561013
v -0.028485 -12.288588 3.429569
v -0.194276 -12.508729 3.368497
v 1.042147 -0.290810 -0.650150
v -0.342803 -0.168460 -1.479260
v -1.682928 -0.072360 0.036325
v -1.074708 0.015840 1.654130
v -0.404928 0.036590 1.933655
vn 0.9514 0.0801 0.2972
vn 0.8169 -0.1712 -0.5509
vn 0.8897 -0.0827 -0.4490
vn 0.7871 -0.1053 0.6078
vn -0.0705 -0.0569 -0.9959
vn -0.1075 -0.0860 -0.9905
vn -0.8928 -0.0099 -0.4504
vn -0.9719 -0.0878 -0.2183
vn -0.9421 0.1712 0.2882
vn -0.7559 -0.1167 0.6442
vn 0.0495 0.2646 0.9631
vn -0.0149 -0.1225 0.9924
vn 0.9970 0.0744 0.0208
vn 0.7822 0.6150 0.0994
vn 0.9762 -0.0321 0.2143
vn 0.1438 0.8498 0.5072
vn -0.8645 0.4767 0.1595
vn -0.8933 -0.0890 -0.4405
vn -0.9974 0.0383 0.0615
vn -0.0317 -0.9994 -0.0166
vn 0.0040 -0.9648 -0.2630
vn 0.7267 -0.6457 -0.2347
vn 0.0106 -0.4932 -0.8699
vn -0.6690 -0.6601 -0.3417
vn 0.6228 0.2125 0.7529
vn 0.6084 0.7299 0.3116
vn -0.7220 0.2658 0.6388
vn -0.1435 0.1312 0.9809
vn -0.0258 0.9541 0.2984
vn -0.6208 -0.7333 0.2773
vn 0.2238 -0.8359 0.5012
vn 0.5570 -0.8177 0.1458
vn 0.8694 -0.1033 -0.4832
vn -0.1822 -0.0953 -0.9786
vn -0.9850 -0.0774 -0.1539
vn -0.6964 -0.1029 0.7103
vn -0.0333 -0.1141 0.9929
vt 0.908046 0.085058
vt 0.947004 0.075791
vt 0.922753 0.228407
vt 0.884399 0.297422
vt 0.964930 0.098024
vt 0.951350 0.229298
vt 0.988500 0.111018
vt 0.988219 0.227313
vt 0.815300 0.105873
vt 0.844488 0.089668
vt 0.846311 0.223044
vt 0.815217 0.222914
vt 0.875844 0.085772
vt 0.863526 0.226316
vt 0.912024 0.067375
vt 0.888000 0.052000
vt 0.874527 0.027275
vt 0.874360 0.072386
vt 0.847288 0.074256
vt 0.817542 0.086352
vt 0.841573 0.036600
vt 0.972409 0.333592
vt 0.966563 0.389588
vt 0.956229 0.382897
vt 0.972392 0.078698
vt 0.988500 0.088700
vt 0.943429 0.066481
vt 0.988500 0.082500
vt 0.816498 0.082689
vt 0.964900 0.397000
vt 0.974735 0.389836
vt 0.859903 0.018073
vt 0.868717 0.028042
vt 0.845036 0.025223
vt 0.851990 0.018856
vt 0.857423 0.033383
vt 0.839621 0.026156
vt 0.856709 0.013668
vt 0.877039 0.022220
vt 0.969449 0.308535
vt 0.958962 0.323051
vt 0.983518 0.316078
vt 0.923300 0.298700
vt 0.953800 0.292500
vt 0.988500 0.275200
vt 0.842700 0.291900
vt 0.815300 0.270300
vt 0.855400 0.299500
s 1
usemtl joy_body_mat
f 2/1/1 1/2/2 7/3/3
f 7/3/3 8/4/4 2/1/1
f 1/2/2 3/5/5 9/6/6
f 9/6/6 7/3/3 1/2/2
f 3/5/5 4/7/7 10/8/8
f 10/8/8 9/6/6 3/5/5
f 4/9/7 5/10/9 11/11/10
f 11/11/10 10/12/8 4/9/7
f 5/10/9 6/13/11 12/14/12
f 12/14/12 11/11/10 5/10/9
f 6/13/11 2/1/1 8/4/4
f 8/4/4 12/14/12 6/13/11
f 14/15/13 15/16/14 13/17/15
f 15/16/14 14/15/13 16/18/16
f 17/19/17 18/20/18 19/21/19
f 20/22/20 21/23/21 22/24/22
f 6/13/11 5/10/9 17/19/17
f 17/19/17 16/18/16 6/13/11
f 2/1/1 6/13/11 16/18/16
f 16/18/16 14/15/13 2/1/1
f 17/19/17 5/10/9 18/20/18
f 2/1/1 14/15/13 1/2/2
f 1/2/2 23/25/23 3/5/5
f 23/25/23 18/26/18 4/7/7
f 4/7/7 3/5/5 23/25/23
f 5/10/9 4/9/7 18/20/18
f 14/15/13 13/17/15 22/27/22
f 1/2/2 14/15/13 22/27/22
f 1/2/2 22/27/22 23/25/23
f 24/28/24 18/26/18 23/25/23
f 19/21/19 18/20/18 24/29/24
f 23/30/23 22/24/22 21/23/21
f 21/23/21 20/22/20 24/31/24
f 23/30/23 21/23/21 24/31/24
f 31/32/25 13/17/15 25/33/26
f 27/34/27 30/35/28 26/36/29
f 25/33/26 26/36/29 30/35/28
f 30/35/28 31/32/25 25/33/26
f 27/34/27 19/21/19 28/37/30
f 28/37/30 32/38/31 30/35/28
f 30/35/28 27/34/27 28/37/30
f 31/32/25 30/35/28 32/38/31
f 32/38/31 29/39/32 13/17/15
f 13/17/15 31/32/25 32/38/31
f 32/40/31 20/22/20 29/41/32
f 28/42/30 20/22/20 32/40/31
f 15/16/14 16/18/16 26/36/29
f 26/36/29 25/33/26 15/16/14
f 16/18/16 17/19/17 27/34/27
f 27/34/27 26/36/29 16/18/16
f 19/21/19 27/34/27 17/19/17
f 19/21/19 24/29/24 28/37/30
f 20/22/20 28/42/30 24/31/24
f 20/22/20 22/24/22 29/41/32
f 13/17/15 29/39/32 22/27/22
f 13/17/15 15/16/14 25/33/26
f 7/3/3 33/43/33 8/4/4
f 9/6/6 34/44/34 33/43/33
f 33/43/33 7/3/3 9/6/6
f 10/8/8 35/45/35 34/44/34
f 34/44/34 9/6/6 10/8/8
f 11/11/10 36/46/36 35/47/35
f 35/47/35 10/12/8 11/11/10
f 12/14/12 37/48/37 36/46/36
f 36/46/36 11/11/10 12/14/12
f 8/4/4 37/48/37 12/14/12
