# Blender 4.3.2
# www.blender.org
mtllib PiernaIzq_DP.mtl
o PiernaIzq_DP
v 0.123699 -2.822412 1.207451
v 0.353313 -2.822412 1.323173
v -0.098955 -2.822412 0.659962
v 0.804117 -2.822412 0.659962
v 0.582561 -2.822412 1.207451
v 0.258465 -1.441062 0.029716
v 0.438639 -2.181540 0.011770
v 0.168741 -1.441062 0.072196
v 0.273483 -2.181540 0.081718
v 0.562419 -2.335350 0.020194
v 0.308637 -2.265402 0.688894
v 0.307905 -2.264670 0.095998
v 0.066573 -2.335350 0.020194
v 0.506757 -2.181540 -0.156686
v 0.307539 -1.441062 -0.072458
v 0.438639 -2.181540 -0.325508
v 0.258465 -1.441062 -0.173900
v 0.273483 -2.181540 -0.395456
v 0.191451 -1.441062 -0.216380
v 0.109419 -2.181540 -0.325508
v 0.071331 -1.441062 -0.173900
v 0.041301 -2.181540 -0.156686
v 0.013107 -1.441062 -0.072458
v 0.109419 -2.181540 0.011770
v 0.071331 -1.441062 0.029716
v 0.085245 -2.584740 -0.411938
v 0.341961 -2.685084 -0.544868
v 0.582927 -2.584740 -0.411938
v 0.670455 -2.511132 -0.102122
v -0.013263 -2.511132 -0.102122
v -0.059769 -2.822412 -0.143504
v 0.085245 -2.822412 -0.442334
v 0.353313 -2.822412 -0.576728
v 0.620649 -2.822412 -0.442334
v 0.764937 -2.822412 -0.143504
v 0.712935 -2.484396 0.652276
v 0.541545 -2.313378 0.645682
v -0.059769 -2.484396 0.652276
v 0.083781 -2.313378 0.645682
v 0.572673 -2.685816 1.182911
v 0.341961 -2.685816 1.298638
v 0.325851 -2.484030 1.144096
v 0.111615 -2.685816 1.182911
v 0.039837 -1.118064 0.059746
v -0.024981 -1.009668 -0.026318
v -0.100419 -0.022728 0.192310
v 0.001749 0.127416 0.205498
v 0.133953 -1.211814 0.094900
v 0.215253 -1.118064 0.059746
v 0.256635 -1.009668 -0.026318
v 0.213057 -1.046652 -0.133250
v 0.133587 -1.093896 -0.177560
v 0.027753 -1.058742 -0.135080
v 0.018963 -0.922872 -0.124094
v -0.169269 -0.131490 0.082450
v -0.114339 -0.140646 -0.122264
v 0.198771 -0.922872 -0.124094
v 0.091473 -0.831324 -0.151928
v -0.020589 -0.102198 -0.179756
v 0.103557 0.022680 -0.144968
v 0.162153 0.158544 -0.035840
v 0.101727 0.190404 0.102958
vn -0.6779 -0.7223 0.1368
vn 0.7739 -0.5857 0.2408
vn -0.1981 -0.6794 0.7065
vn 0.3344 -0.5915 0.7337
vn 0.2877 0.8826 0.3719
vn 0.0243 0.3632 0.9314
vn 0.1295 0.9843 -0.1198
vn -0.3511 0.7724 0.5292
vn -0.3671 -0.1532 0.9175
vn 0.2823 0.3552 0.8912
vn 0.8512 0.4196 0.3153
vn 0.7227 -0.2378 0.6489
vn 0.8678 0.2156 0.4478
vn 0.5554 0.6619 -0.5034
vn 0.8936 0.2325 -0.3840
vn -0.0153 0.6528 -0.7574
vn 0.0495 -0.2876 -0.9565
vn -0.6462 0.5390 -0.5403
vn -0.2998 0.0612 -0.9520
vn -0.8786 0.4774 0.0133
vn -0.8717 -0.0627 -0.4860
vn -0.6634 0.4606 0.5898
vn 0.6151 0.6597 -0.4318
vn 0.8537 0.3420 -0.3927
vn -0.9169 0.1539 -0.3682
vn -0.9055 -0.1067 -0.4108
vn -0.8366 -0.5172 -0.1805
vn -0.4183 0.0473 -0.9071
vn -0.6521 -0.4047 -0.6411
vn -0.0356 -0.1618 -0.9862
vn 0.8368 0.5059 -0.2095
vn 0.7950 0.5746 0.1945
vn -0.8475 0.4967 -0.1869
vn -0.5272 0.8233 -0.2105
vn 0.3538 0.7146 0.6035
vn 0.0174 0.3342 0.9423
vn 0.5270 0.4149 0.7417
vn -0.2838 0.3267 0.9015
vn -0.7795 -0.6056 -0.1597
vn -0.7076 -0.2484 0.6615
vn -0.6485 0.2607 0.7152
vn -0.5989 0.2737 0.7526
vn -0.0666 0.4494 0.8908
vn -0.5771 0.1786 0.7969
vn 0.4155 -0.0432 0.9086
vn 0.5933 -0.3125 0.7418
vn 0.8917 -0.2699 0.3633
vn 0.7019 -0.1920 -0.6859
vn 0.0880 -0.3046 -0.9484
vn -0.3353 -0.1304 -0.9330
vn -0.8432 0.1409 -0.5188
vn -0.7116 -0.4225 -0.5614
vn -0.7217 0.3730 -0.5831
vn 0.0296 -0.3539 -0.9348
vn -0.3243 -0.1189 -0.9384
vn 0.4142 0.3561 -0.8376
vn 0.2048 0.0776 -0.9757
vn 0.8923 0.2122 -0.3984
vn 0.4322 0.7545 0.4939
vn 0.7239 -0.6518 -0.2262
vn 0.6879 -0.5829 -0.4324
vn -0.7077 -0.6427 0.2935
vt 0.527344 1.386719
vt 0.378906 1.386719
vt 0.453125 1.312500
vt 0.410156 1.332031
vt 0.644531 1.546875
vt 0.656250 1.531250
vt 0.664063 1.464844
vt 0.667969 1.535156
vt 0.667969 1.546875
vt 0.667969 1.578125
vt 0.843750 1.523438
vt 0.843750 1.546875
vt 0.667969 1.609375
vt 0.843750 1.566406
vt 0.667969 1.621094
vt 0.843750 1.574219
vt 0.761719 1.558594
vt 0.601563 1.625000
vt 0.613281 1.566406
vt 0.562500 1.574219
vt 0.585938 1.648438
vt 0.562500 1.628906
vt 0.562500 1.652344
vt 0.625000 1.468750
vt 0.652344 1.468750
vt 0.585938 1.335938
vt 0.617188 1.343750
vt 0.585938 1.316406
vt 0.562500 1.390625
vt 0.613281 1.394531
vt 0.640625 1.398438
vt 0.648438 1.386719
vt 0.218750 1.222656
vt 0.378906 1.574219
vt 0.527344 1.574219
vt 0.406250 1.628906
vt 0.500000 1.628906
vt 0.453125 1.652344
vt 0.492188 1.332031
vt 0.843750 1.515625
vt 0.562500 1.472656
vt 0.562500 1.332031
vt 0.562500 1.312500
vt 0.367188 1.472656
vt 0.539063 1.472656
s 1
usemtl mesh0136mat
f 3/1/1 4/2/2 2/3/3
f 2/3/3 4/2/2 5/4/4
f 10/5/5 12/6/6 11/7/7
f 13/5/8 12/6/6 9/8/9
f 12/6/6 10/5/5 9/8/9
f 9/8/9 10/5/5 7/9/10
f 10/5/5 14/10/11 7/9/10
f 7/9/10 14/10/11 6/11/12
f 6/11/12 14/10/11 15/12/13
f 14/10/11 16/13/14 15/12/13
f 15/12/13 16/13/14 17/14/15
f 16/13/14 18/15/16 17/14/15
f 19/16/17 20/13/18 21/14/19
f 21/14/19 22/10/20 23/17/21
f 22/10/20 24/9/22 23/17/21
f 28/18/23 14/10/11 29/19/24
f 24/9/22 22/10/20 13/5/8
f 30/19/25 26/18/26 31/20/27
f 26/18/26 27/21/28 32/22/29
f 27/21/28 28/18/23 33/23/30
f 36/24/31 29/19/24 37/25/32
f 29/19/24 10/5/5 37/25/32
f 30/19/25 38/24/33 13/5/8
f 38/24/33 39/25/34 13/5/8
f 40/26/35 42/27/36 41/28/37
f 41/28/37 42/27/36 43/26/38
f 4/29/2 36/30/31 40/26/35
f 36/30/31 37/31/32 40/26/35
f 40/26/35 37/31/32 42/27/36
f 37/31/32 11/32/7 42/27/36
f 11/32/7 39/31/34 42/27/36
f 42/27/36 39/31/34 43/26/38
f 43/26/38 38/30/33 3/29/1
f 21/33/19 23/33/21 45/33/39
f 46/33/40 44/33/41 47/33/42
f 47/33/42 44/33/41 48/33/43
f 44/33/41 25/33/44 48/33/43
f 8/33/45 6/33/12 49/33/46
f 49/33/46 6/33/12 50/33/47
f 6/33/12 15/33/13 50/33/47
f 15/33/13 17/33/15 50/33/47
f 17/33/15 19/33/17 51/33/48
f 19/33/17 21/33/19 52/33/49
f 52/33/49 21/33/19 53/33/50
f 21/33/19 45/33/39 53/33/50
f 55/33/51 56/33/52 54/33/53
f 58/33/54 52/33/49 54/33/53
f 52/33/49 53/33/50 54/33/53
f 54/33/53 56/33/52 58/33/54
f 56/33/52 59/33/55 58/33/54
f 58/33/54 59/33/55 57/33/56
f 59/33/55 60/33/57 57/33/56
f 57/33/56 60/33/57 50/33/47
f 60/33/57 61/33/58 50/33/47
f 50/33/47 61/33/58 49/33/46
f 61/33/58 62/33/59 49/33/46
f 23/33/21 44/33/41 45/33/39
f 44/33/41 46/33/40 45/33/39
f 35/34/60 31/35/27 34/36/61
f 31/35/27 32/37/29 34/36/61
f 34/36/61 32/37/29 33/38/30
f 1/39/62 3/1/1 2/3/3
f 6/11/12 8/40/45 7/9/10
f 7/9/10 8/40/45 9/8/9
f 11/7/7 12/6/6 13/5/8
f 17/14/15 18/15/16 19/16/17
f 18/15/16 20/13/18 19/16/17
f 20/13/18 22/10/20 21/14/19
f 23/17/21 24/9/22 25/11/44
f 22/10/20 20/13/18 26/18/26
f 20/13/18 18/15/16 26/18/26
f 26/18/26 18/15/16 27/21/28
f 27/21/28 18/15/16 28/18/23
f 18/15/16 16/13/14 28/18/23
f 16/13/14 14/10/11 28/18/23
f 14/10/11 10/5/5 29/19/24
f 8/40/45 25/11/44 9/8/9
f 25/11/44 24/9/22 9/8/9
f 9/8/9 24/9/22 13/5/8
f 13/5/8 22/10/20 30/19/25
f 22/10/20 26/18/26 30/19/25
f 31/20/27 26/18/26 32/22/29
f 32/22/29 27/21/28 33/23/30
f 33/23/30 28/18/23 34/22/61
f 34/22/61 28/18/23 35/20/60
f 28/18/23 29/19/24 35/20/60
f 35/20/60 29/19/24 36/24/31
f 37/25/32 10/5/5 11/7/7
f 36/24/31 4/41/2 35/20/60
f 31/20/27 3/41/1 30/19/25
f 3/41/1 38/24/33 30/19/25
f 39/25/34 11/7/7 13/5/8
f 3/29/1 1/42/62 43/26/38
f 1/42/62 2/43/3 43/26/38
f 43/26/38 2/43/3 41/28/37
f 2/43/3 5/42/4 41/28/37
f 41/28/37 5/42/4 40/26/35
f 5/42/4 4/29/2 40/26/35
f 39/31/34 38/30/33 43/26/38
f 23/33/21 25/33/44 44/33/41
f 25/33/44 8/33/45 48/33/43
f 48/33/43 8/33/45 49/33/46
f 50/33/47 17/33/15 51/33/48
f 51/33/48 19/33/17 52/33/49
f 53/33/50 45/33/39 54/33/53
f 45/33/39 55/33/51 54/33/53
f 50/33/47 51/33/48 57/33/56
f 51/33/48 52/33/49 57/33/56
f 57/33/56 52/33/49 58/33/54
f 49/33/46 62/33/59 48/33/43
f 62/33/59 47/33/42 48/33/43
f 45/33/39 46/33/40 55/33/51
f 4/44/2 3/45/1 35/34/60
f 3/45/1 31/35/27 35/34/60
f 59/33/55 56/33/52 55/33/51 46/33/40 47/33/42 62/33/59 61/33/58 60/33/57
