# Blender 4.3.2
# www.blender.org
mtllib PiernaIzq_Ember.mtl
o PiernaIzq_E
v -0.053458 -0.065378 0.003756
v -0.051571 -0.084466 0.055813
v 0.046919 -0.149882 -0.049473
v 0.018160 -0.392866 -0.010592
v 0.035332 -0.387640 -0.035460
v 0.026438 -0.471856 -0.081874
v 0.009600 -0.481832 -0.047346
v 0.066765 -0.478983 -0.100036
v 0.110837 -0.488015 -0.086429
v 0.094975 -0.386394 -0.038704
v 0.063619 -0.387845 -0.046106
v 0.085990 -0.115474 -0.025482
v -0.017757 -0.060367 -0.042053
v -0.035292 -0.088399 0.092877
v -0.060202 -0.070053 0.096202
v 0.030656 -0.081550 0.115450
v 0.013027 -0.109770 0.115973
v 0.073798 -0.106964 0.093790
v 0.106568 -0.124745 0.016415
v 0.111607 -0.226471 0.045591
v 0.043716 -0.261523 0.093571
v 0.086882 -0.233243 0.085010
v 0.113019 -0.387852 -0.011407
v 0.020134 -0.399854 0.016870
v 0.118864 -0.461278 0.002128
v 0.098278 -0.447909 0.035129
v 0.129251 -0.496389 -0.050147
v 0.067194 -0.448331 0.044138
v 0.028560 -0.362196 0.052452
v 0.033478 -0.465509 0.022086
v 0.012940 -0.487548 -0.010550
v 0.118799 -0.824467 -0.084659
v 0.147952 -0.812603 -0.038159
v 0.108029 -0.775620 0.070743
v 0.076920 -0.820070 -0.092403
v 0.041980 -0.813770 -0.057858
v 0.165348 -0.806306 0.145898
v 0.186340 -0.847019 0.198777
v 0.117912 -1.048666 -0.090737
v 0.160867 -0.932461 -0.025721
v 0.183833 -0.827142 0.105186
v 0.174160 -0.947702 0.011558
v 0.198524 -1.048813 0.235613
v 0.164802 -0.844191 0.198752
v 0.099111 -0.850320 0.105944
v 0.066195 -0.952449 0.048297
v 0.048728 -0.935460 0.003826
v 0.037872 -0.815219 -0.020996
v 0.045777 -1.048831 -0.067493
v 0.154262 -0.958900 -0.046807
v 0.090373 -0.586521 0.007491
v 0.086678 -0.748639 -0.013175
v 0.112534 -0.750564 -0.022353
v 0.067437 -0.747199 -0.026509
v 0.115220 -0.753856 -0.054687
v 0.067667 -0.744794 -0.056770
v 0.093142 -0.754298 -0.067588
v 0.064991 -1.048811 0.053350
v 0.186408 -1.048816 0.015573
v 0.207592 -1.048800 0.189048
v 0.176684 -1.048777 0.237115
v 0.061940 0.001014 -0.002004
v 0.060746 -0.000467 0.068799
v 0.001207 0.019620 -0.043973
v 0.105396 -0.118675 0.051466
v -0.064425 -0.023420 -0.063174
v 0.051347 -0.094536 -0.046260
v 0.157774 -1.048826 -0.052791
v 0.043446 -1.048813 -0.013482
v 0.051746 -0.061550 -0.028106
v 0.042409 -0.044567 -0.038488
v 0.058027 -0.037986 -0.027785
v 0.069399 -0.050087 -0.036499
v 0.056938 -0.044618 -0.048718
v 0.055975 -0.059169 -0.047394
v -0.044479 -0.019433 -0.052397
v -0.045101 -0.007063 -0.066097
v -0.028884 -0.005300 -0.048281
v -0.025790 -0.007850 -0.070387
v -0.040525 -0.022080 -0.067730
v -0.026346 -0.025922 -0.058352
vn -0.9002 -0.1940 -0.3899
vn -0.9570 -0.1382 0.2549
vn -0.9113 -0.3810 0.1560
vn -0.9725 0.0002 -0.2329
vn -0.4441 -0.4924 -0.7486
vn -0.6191 0.1679 -0.7671
vn 0.1375 -0.0017 -0.9905
vn -0.0464 0.2764 -0.9599
vn -0.9781 -0.0340 -0.2054
vn -0.6535 0.1484 -0.7423
vn -0.9298 -0.1536 0.3345
vn -0.0398 0.1799 -0.9829
vn 0.5815 0.2701 -0.7674
vn 0.6297 0.1533 -0.7616
vn 0.9463 0.1378 -0.2926
vn 0.9885 0.0563 -0.1401
vn 0.9151 0.3395 -0.2176
vn 0.8635 0.1363 -0.4856
vn 0.3163 0.2457 -0.9163
vn -0.5559 -0.4769 0.6808
vn -0.4415 -0.8068 0.3926
vn -0.1525 -0.0721 0.9857
vn 0.4589 -0.4485 0.7670
vn 0.8174 0.0832 0.5700
vn 0.6006 -0.0857 0.7949
vn 0.9436 0.1819 0.2766
vn 0.9670 0.0024 0.2549
vn -0.6657 -0.2745 0.6939
vn -0.1437 -0.2168 0.9656
vn 0.9287 -0.0370 0.3689
vn -0.0389 -0.2675 0.9628
vn 0.6438 -0.1844 0.7427
vn -0.6071 -0.2335 0.7595
vn 0.1097 0.1854 -0.9765
vn 0.5428 0.1615 -0.8242
vn -0.2642 0.1493 -0.9528
vn 0.8254 0.2498 -0.5063
vn 0.8978 0.2478 -0.3640
vn 0.9239 0.3770 -0.0661
vn 0.7746 0.5363 0.3352
vn 0.3215 0.8680 0.3785
vn -0.9200 0.1746 0.3510
vn -0.4048 0.7769 0.4822
vn -0.0804 0.6208 0.7798
vn -0.8243 0.0732 -0.5614
vn -0.8886 0.1804 -0.4218
vn 0.6309 0.4446 0.6359
vn -0.9621 0.2091 0.1750
vn -0.8403 0.1705 0.5147
vn -0.3714 0.4531 0.8104
vn 0.4123 -0.6815 -0.6046
vn 0.9388 -0.2915 0.1834
vn 0.7212 -0.2365 -0.6511
vn 0.3535 -0.9354 0.0012
vn 0.9504 -0.3091 -0.0345
vn 0.6628 -0.5379 -0.5209
vn 0.7656 -0.6424 0.0348
vn 0.5447 -0.5256 0.6535
vn -0.6191 -0.7157 0.3232
vn -0.9531 0.1679 -0.2518
vn -0.8547 -0.4308 -0.2895
vn -0.9780 0.0246 0.2071
vn -0.5503 -0.7354 -0.3954
vn -0.6302 -0.6887 0.3585
vn 0.2581 -0.1180 0.9589
vn 0.9775 -0.0097 0.2105
vn 0.9094 -0.0084 -0.4158
vn 0.4448 0.0843 -0.8917
vn 0.2235 -0.0715 -0.9721
vn 0.0529 -0.9595 0.2766
vn -0.7260 0.3051 -0.6163
vn -0.0055 -0.7068 -0.7074
vn 0.5448 0.8008 0.2489
vn 0.9969 -0.0526 0.0584
vn 0.1206 0.4859 -0.8656
vn -0.7285 0.5676 -0.3835
vn -0.4151 -0.6388 -0.6478
vn -0.9395 -0.2083 0.2719
vn 0.3054 0.9029 0.3026
vn 0.6036 0.4087 -0.6845
vn 0.6216 -0.7067 -0.3379
vt 0.288549 0.098549
vt 0.419941 0.185507
vt 0.292906 0.128036
vt 0.426577 0.174104
vt 0.307201 0.074777
vt 0.434780 0.161936
vt 0.360747 0.081722
vt 0.445671 0.149954
vt 0.463010 0.195001
vt 0.469738 0.183395
vt 0.454500 0.206790
vt 0.482246 0.173550
vt 0.454708 0.135568
vt 0.494446 0.162253
vt 0.462399 0.121263
vt 0.505162 0.149541
vt 0.383053 0.042306
vt 0.368374 0.054580
vt 0.344381 0.063481
vt 0.254197 0.231523
vt 0.241051 0.217308
vt 0.259433 0.210362
vt 0.155545 0.324545
vt 0.217415 0.214646
vt 0.215333 0.199692
vt 0.191354 0.199874
vt 0.164619 0.242381
vt 0.175210 0.197629
vt 0.161860 0.193659
vt 0.149111 0.232139
vt 0.157806 0.302869
vt 0.174297 0.260417
vt 0.100220 0.283386
vt 0.092566 0.313445
vt 0.123176 0.323080
vt 0.110168 0.314962
vt 0.067885 0.319770
vt 0.129862 0.338550
vt 0.135636 0.357415
vt 0.011379 0.082734
vt 0.019068 0.111858
vt 0.004734 0.118130
vt 0.023636 0.081834
vt 0.040685 0.107566
vt 0.102923 0.098258
vt 0.039131 0.073678
vt 0.113666 0.081259
vt 0.033140 0.053132
vt 0.075512 0.065650
vt 0.042075 0.064270
vt 0.018442 0.048306
vt 0.029345 0.022066
vt 0.140986 0.084733
vt 0.011229 0.013998
vt 0.005692 0.044723
vt 0.045080 0.025631
vt 0.099410 0.042613
vt 0.138786 0.077013
vt 0.248354 0.608338
vt 0.335484 0.618171
vt 0.327092 0.630772
vt 0.279482 0.641949
vt 0.325845 0.654630
vt 0.278389 0.665868
vt 0.314378 0.714402
vt 0.242711 0.631227
vt 0.287666 0.653729
vt 0.236206 0.662781
vt 0.221649 0.736162
vt 0.306300 0.756777
vt 0.218603 0.756420
vt 0.306604 0.765638
vt 0.219191 0.765506
vt 0.309283 0.814810
vt 0.235899 0.856623
vt 0.276334 0.852321
vt 0.326535 0.874794
vt 0.285179 0.867751
vt 0.328299 0.889480
vt 0.334114 0.909481
vt 0.245947 0.908803
vt 0.249807 0.932608
vt 0.241766 0.886054
vt 0.520776 0.863514
vt 0.520084 0.814813
vt 0.562500 0.863768
vt 0.562988 0.812500
vt 0.498681 0.864063
vt 0.502206 0.814942
vt 0.486711 0.814922
vt 0.448980 0.863280
vt 0.448975 0.812500
vt 0.022185 0.416650
vt 0.086347 0.364419
vt 0.032626 0.423566
vt 0.042091 0.429006
vt 0.052957 0.435411
vt 0.560076 0.260225
vt 0.565591 0.248037
vt 0.582698 0.230083
vt 0.574249 0.237922
vt 0.995092 0.142874
vt 0.943964 0.142098
vt 0.957678 0.068913
vt 0.974567 0.053933
vt 0.966999 0.051333
vt 0.892989 0.102369
vt 0.885254 0.077698
vt 0.932643 0.085921
vt 0.885798 0.062580
vt 0.945963 0.059515
vt 0.888672 0.047455
vt 0.900391 0.032074
vt 0.924516 0.019518
vt 0.973730 0.036469
vt 0.979315 0.006059
vt 0.995336 0.614991
vt 0.994141 0.605469
vt 0.995724 0.594727
vt 0.578101 0.004473
vt 0.539004 0.024372
vt 0.527454 0.005259
vt 0.569556 0.024318
vt 0.580917 0.901539
vt 0.585321 0.888008
vt 0.589767 0.904830
vt 0.570863 0.890724
vt 0.569298 0.907685
vt 0.551880 0.938261
vt 0.539092 0.935133
vt 0.537509 0.926290
vt 0.544716 0.945457
vt 0.531443 0.941231
vt 0.537598 0.953613
vt 0.656065 0.939677
vt 0.658544 0.925411
vt 0.663545 0.931870
vt 0.672061 0.941593
vt 0.477326 0.903439
vt 0.469788 0.899048
vt 0.471099 0.886289
vt 0.460902 0.904698
vt 0.460221 0.889501
vt 0.451660 0.892578
s 1
usemtl Ember_Costume_01_Mat
f 1/1/1 24/2/2 2/3/3
f 4/4/4 24/2/2 1/1/1
f 4/4/4 1/1/1 13/5/5
f 5/6/6 4/4/4 13/5/5
f 5/6/6 13/5/5 3/7/7
f 11/8/8 5/6/6 3/7/7
f 4/4/4 7/9/9 24/2/2
f 5/6/6 6/10/10 4/4/4
f 4/4/4 6/10/10 7/9/9
f 24/2/2 7/9/9 31/11/11
f 5/6/6 11/8/8 6/10/10
f 11/8/8 8/12/12 6/10/10
f 11/8/8 10/13/13 8/12/12
f 10/13/13 9/14/14 8/12/12
f 23/15/15 27/16/16 9/14/14
f 10/13/13 23/15/15 9/14/14
f 23/15/15 10/13/13 19/17/17
f 10/13/13 11/8/8 12/18/18
f 10/13/13 12/18/18 19/17/17
f 11/8/8 3/7/7 12/18/18
f 13/5/5 67/19/19 3/7/7
f 12/18/18 3/7/7 67/19/19
f 2/20/3 14/21/20 15/22/21
f 2/20/3 24/23/2 14/21/20
f 14/21/20 17/24/22 16/25/23
f 14/21/20 16/25/23 15/22/21
f 18/26/24 16/25/23 17/24/22
f 18/26/24 22/27/25 65/28/26
f 22/27/25 18/26/24 17/24/22
f 19/29/17 65/28/26 20/30/27
f 22/27/25 20/30/27 65/28/26
f 14/21/20 29/31/28 17/24/22
f 24/23/2 29/31/28 14/21/20
f 17/24/22 21/32/29 22/27/25
f 29/31/28 21/32/29 17/24/22
f 23/33/15 19/29/17 20/30/27
f 25/34/30 20/30/27 22/27/25
f 25/34/30 23/33/15 20/30/27
f 28/35/31 21/32/29 29/31/28
f 26/36/32 22/27/25 21/32/29
f 26/36/32 25/34/30 22/27/25
f 28/35/31 26/36/32 21/32/29
f 23/33/15 25/34/30 27/37/16
f 29/31/28 24/23/2 30/38/33
f 29/31/28 30/38/33 28/35/31
f 24/23/2 31/39/11 30/38/33
f 57/40/34 32/41/35 35/42/36
f 55/43/37 32/41/35 57/40/34
f 55/43/37 33/44/38 32/41/35
f 41/45/39 33/44/38 55/43/37
f 41/45/39 55/43/37 53/46/40
f 37/47/41 41/45/39 53/46/40
f 54/48/42 34/49/43 52/50/44
f 52/50/44 34/49/43 53/46/40
f 37/47/41 53/46/40 34/49/43
f 56/51/45 36/52/46 54/48/42
f 38/53/47 41/45/39 37/47/41
f 56/51/45 35/54/36 36/52/46
f 56/51/45 57/55/34 35/54/36
f 48/56/48 54/48/42 36/52/46
f 54/48/42 48/56/48 34/49/43
f 34/49/43 48/56/48 45/57/49
f 34/49/43 45/57/49 44/58/50
f 44/58/50 37/47/41 34/49/43
f 38/53/47 37/47/41 44/58/50
f 39/59/51 35/60/36 32/61/35
f 50/62/52 32/61/35 33/63/38
f 42/64/53 33/63/38 41/65/39
f 39/59/51 32/61/35 50/62/52
f 68/66/54 39/59/51 50/62/52
f 40/67/55 50/62/52 33/63/38
f 40/67/55 33/63/38 42/64/53
f 59/68/56 42/64/53 41/65/39
f 60/69/57 59/68/56 41/65/39
f 60/69/57 41/65/39 38/70/47
f 60/69/57 38/70/47 43/71/58
f 43/71/58 38/70/47 44/72/50
f 61/73/59 43/71/58 44/72/50
f 61/73/59 44/72/50 45/74/49
f 58/75/60 61/73/59 45/74/49
f 46/76/61 45/74/49 48/77/48
f 58/75/60 45/74/49 46/76/61
f 47/78/62 46/76/61 48/77/48
f 36/79/46 35/80/36 49/81/63
f 49/81/63 48/77/48 36/79/46
f 39/82/51 49/81/63 35/80/36
f 48/77/48 69/83/64 47/78/62
f 69/83/64 48/77/48 49/81/63
f 46/84/61 42/85/53 58/86/60
f 58/86/60 42/85/53 59/87/56
f 46/84/61 47/88/62 42/85/53
f 42/85/53 47/88/62 40/89/55
f 50/90/52 40/89/55 47/88/62
f 69/91/64 50/90/52 47/88/62
f 68/92/54 50/90/52 69/91/64
f 27/37/16 25/34/30 55/93/37
f 26/36/32 51/94/65 25/34/30
f 26/36/32 28/35/31 51/94/65
f 28/35/31 30/38/33 51/94/65
f 25/34/30 53/95/40 55/93/37
f 25/34/30 51/94/65 53/95/40
f 51/94/65 30/38/33 52/96/44
f 51/94/65 52/96/44 53/95/40
f 30/38/33 31/39/11 52/96/44
f 31/39/11 54/97/42 52/96/44
f 31/11/11 7/9/9 54/98/42
f 7/9/9 56/99/45 54/98/42
f 7/9/9 6/10/10 56/99/45
f 9/14/14 27/16/16 55/100/37
f 9/14/14 55/100/37 8/12/12
f 6/10/10 8/12/12 56/99/45
f 8/12/12 55/100/37 57/101/34
f 8/12/12 57/101/34 56/99/45
f 58/102/60 59/103/56 60/104/57
f 61/105/59 58/102/60 60/104/57
f 61/105/59 60/104/57 43/106/58
f 16/107/23 18/108/24 63/109/66
f 63/109/66 18/108/24 65/110/26
f 62/111/67 63/109/66 65/110/26
f 65/110/26 19/112/17 62/111/67
f 19/112/17 12/113/18 62/111/67
f 67/114/19 62/111/67 12/113/18
f 62/111/67 67/114/19 64/115/68
f 66/116/69 64/115/68 67/114/19
f 67/117/19 13/118/5 66/119/69
f 69/120/64 39/121/51 68/122/54
f 69/120/64 49/123/63 39/121/51
f 70/124/70 71/125/71 75/126/72
f 72/127/73 70/124/70 73/128/74
f 72/129/73 74/130/75 71/131/71
f 73/132/74 74/130/75 72/129/73
f 74/130/75 75/133/72 71/131/71
f 75/133/72 73/132/74 70/134/70
f 73/132/74 75/133/72 74/130/75
f 77/135/76 80/136/77 76/137/78
f 78/138/79 77/135/76 76/137/78
f 78/139/79 79/140/80 77/141/76
f 78/139/79 81/142/81 79/140/80
f 79/140/80 80/143/77 77/141/76
f 81/142/81 76/144/78 80/143/77
f 80/143/77 79/140/80 81/142/81
