# Blender 4.3.2
# www.blender.org
mtllib PiernaDer_Pena.mtl
o PiernaDer_Pena
v -0.037364 -0.259685 -0.085971
v 0.032636 -0.259685 -0.085971
v 0.012635 -0.259685 -0.085971
v -0.017364 -0.259685 -0.085971
v 0.042634 -0.259685 -0.065972
v -0.057364 -0.259685 -0.065972
v 0.052636 -0.259685 -0.045972
v -0.057364 -0.259685 -0.045972
v -0.057364 -0.259685 0.024028
v 0.052636 -0.259685 0.024028
v -0.057364 -0.259685 0.064028
v 0.052636 -0.259685 0.064028
v 0.052636 -0.259685 0.104028
v -0.057364 -0.259685 0.104028
v 0.042634 -0.259685 0.124028
v -0.057364 -0.259685 0.124028
v 0.022634 -0.259685 0.134029
v -0.037364 -0.259685 0.134029
v 0.002634 -0.259685 0.144029
v -0.017364 -0.259685 0.144029
v 0.022634 -0.289685 0.134029
v 0.002634 -0.289685 0.144029
v 0.002634 -0.299685 0.144029
v 0.022634 -0.299685 0.134029
v -0.017364 -0.299685 0.144029
v -0.017364 -0.289685 0.144029
v -0.037364 -0.299685 0.134029
v -0.037364 -0.289685 0.134029
v 0.042634 -0.289685 0.124028
v 0.042634 -0.299685 0.124028
v 0.052636 -0.289685 0.104028
v 0.042634 -0.299685 0.104028
v -0.047366 -0.299685 0.124028
v -0.057364 -0.289685 0.124028
v -0.057364 -0.299685 0.104028
v -0.057364 -0.289685 0.104028
v 0.052636 -0.289685 0.064028
v 0.042634 -0.299685 0.064028
v 0.042634 -0.299685 0.024028
v 0.052636 -0.289685 0.024028
v 0.042634 -0.299685 -0.045972
v 0.052636 -0.289685 -0.045972
v 0.042634 -0.289685 -0.065972
v 0.042634 -0.299685 -0.065972
v 0.032636 -0.289685 -0.085971
v 0.022634 -0.299685 -0.075971
v 0.012635 -0.289685 -0.085971
v 0.002634 -0.299685 -0.085971
v -0.017364 -0.289685 -0.085971
v -0.017364 -0.299685 -0.085971
v -0.037364 -0.289685 -0.085971
v -0.037364 -0.299685 -0.075971
v -0.057364 -0.289685 -0.065972
v -0.047366 -0.299685 -0.065972
v -0.057364 -0.289685 -0.045972
v -0.057364 -0.299685 -0.045972
v -0.057364 -0.299685 0.024028
v -0.057364 -0.289685 0.024028
v -0.057364 -0.299685 0.064028
v -0.057364 -0.289685 0.064028
v -0.017364 -0.169685 -0.095972
v -0.017364 -0.149685 -0.095972
v 0.012635 -0.159685 -0.085971
v 0.012635 -0.169685 -0.085971
v -0.037364 -0.169685 -0.085971
v -0.037364 -0.149685 -0.085971
v -0.057364 -0.169685 -0.055972
v -0.067366 -0.149685 -0.055972
v -0.067366 -0.159685 -0.035971
v -0.077365 -0.149685 -0.025972
v 0.032636 -0.159685 -0.065972
v 0.032636 -0.179685 -0.065972
v 0.032636 -0.159685 -0.045972
v 0.032636 -0.179685 -0.045972
v -0.067366 -0.169685 -0.015972
v -0.077365 -0.149685 -0.005972
v -0.067366 -0.149685 0.004029
v -0.067366 -0.169685 0.004029
v -0.047366 -0.169685 0.014029
v -0.057364 -0.149685 0.024028
v -0.037364 -0.169685 0.024028
v -0.047366 -0.159685 0.034028
v 0.012635 -0.179685 0.024028
v 0.012635 -0.169685 0.034028
v -0.017364 -0.159685 0.044028
v -0.017364 -0.179685 0.024028
v 0.022634 -0.179685 0.004029
v 0.022634 -0.169685 0.014029
v 0.032636 -0.179685 -0.015972
v 0.032636 -0.159685 -0.015972
v -0.017364 -0.169685 -0.085971
v 0.012635 -0.149685 -0.085971
v -0.037364 -0.169685 -0.075971
v -0.037364 -0.149685 -0.075971
v -0.067366 -0.139685 -0.055972
v -0.057364 -0.169685 -0.035971
v -0.077365 -0.139685 -0.025972
v 0.022634 -0.159685 -0.065972
v 0.022634 -0.179685 -0.065972
v 0.032636 -0.159685 -0.035971
v -0.057364 -0.169685 -0.015972
v -0.057364 -0.169685 -0.005972
v -0.037364 -0.149685 0.034028
v -0.037364 -0.179685 0.014029
v 0.012635 -0.179685 0.014029
v -0.017364 -0.159685 0.034028
v 0.002634 -0.159685 0.024028
v 0.022634 -0.159685 0.014029
v 0.032636 -0.179685 -0.025972
v -0.017364 -0.219685 0.014029
v -0.017364 -0.209685 0.034028
v 0.002634 -0.209685 0.034028
v 0.002634 -0.219685 0.014029
v 0.012635 -0.219685 -0.015972
v -0.017364 -0.219685 -0.015972
v -0.017364 -0.219685 0.034028
v 0.012635 -0.219685 0.034028
v 0.012635 -0.219685 0.014029
v 0.052636 -0.249685 0.034028
v 0.052636 -0.239685 0.074028
v 0.052636 -0.259685 0.074028
v 0.052636 -0.259685 0.034028
v 0.052636 -0.229685 0.074028
v 0.042634 -0.229685 0.034028
v 0.042634 -0.209685 0.074028
v 0.042634 -0.219685 0.034028
v 0.032636 -0.209685 0.074028
v 0.032636 -0.219685 0.024028
v 0.012635 -0.199685 0.074028
v 0.012635 -0.209685 0.024028
v -0.007365 -0.199685 0.074028
v -0.007365 -0.209685 0.024028
v -0.027365 -0.199685 0.074028
v -0.027365 -0.209685 0.024028
v -0.037364 -0.199685 0.074028
v -0.037364 -0.219685 0.034028
v -0.057364 -0.219685 0.074028
v -0.047366 -0.219685 0.034028
v -0.057364 -0.229685 0.074028
v -0.057364 -0.239685 0.034028
v -0.067366 -0.239685 0.074028
v -0.057364 -0.249685 0.034028
v -0.067366 -0.249685 0.074028
v -0.057364 -0.259685 0.074028
v -0.057364 -0.259685 0.024028
v 0.042634 -0.249685 0.034028
v 0.042634 -0.259685 0.034028
v 0.042634 -0.259685 0.074028
v 0.042634 -0.229685 0.074028
v 0.042634 -0.239685 0.034028
v 0.042634 -0.219685 0.074028
v 0.032636 -0.219685 0.034028
v 0.012635 -0.209685 0.074028
v -0.007365 -0.209685 0.074028
v -0.007365 -0.219685 0.034028
v -0.027365 -0.209685 0.074028
v -0.027365 -0.219685 0.034028
v -0.037364 -0.209685 0.074028
v -0.047366 -0.219685 0.074028
v -0.047366 -0.229685 0.034028
v -0.047366 -0.239685 0.034028
v -0.057364 -0.239685 0.074028
v -0.057364 -0.249685 0.074028
v -0.057364 -0.259685 0.034028
v -0.057364 -0.239685 -0.045972
v -0.057364 -0.229685 -0.075971
v -0.057364 -0.219685 -0.065972
v -0.057364 -0.239685 -0.075971
v -0.057364 -0.249685 -0.075971
v -0.057364 -0.259685 -0.065972
v -0.057364 -0.269685 -0.045972
v -0.057364 -0.259685 -0.035971
v -0.057364 -0.249685 -0.025972
v -0.057364 -0.229685 -0.025972
v -0.057364 -0.219685 -0.035971
v -0.057364 -0.209685 -0.045972
v -0.047366 -0.229685 -0.015972
v -0.047366 -0.229685 -0.025972
v -0.027365 -0.229685 -0.015972
v -0.027365 -0.219685 -0.015972
v -0.007365 -0.219685 -0.015972
v 0.022634 -0.219685 -0.015972
v 0.022634 -0.229685 -0.015972
v 0.042634 -0.229685 -0.025972
v 0.032636 -0.229685 -0.015972
v 0.052636 -0.229685 -0.025972
v 0.052636 -0.249685 -0.025972
v -0.057364 -0.239685 -0.025972
v -0.007365 -0.219685 -0.005972
v 0.042634 -0.229685 -0.015972
v 0.052636 -0.259685 -0.035971
v 0.052636 -0.269685 -0.045972
v 0.052636 -0.259685 -0.065972
v 0.052636 -0.249685 -0.075971
v 0.052636 -0.239685 -0.075971
v 0.052636 -0.229685 -0.075971
v 0.052636 -0.219685 -0.065972
v 0.052636 -0.209685 -0.045972
v 0.052636 -0.219685 -0.035971
v 0.052636 -0.239685 -0.025972
v 0.052636 -0.239685 -0.045972
v -0.007365 -0.239685 0.084028
v -0.007365 -0.259685 0.074028
v 0.002634 -0.259685 0.074028
v 0.002634 -0.239685 0.084028
v 0.002634 -0.229685 0.084028
v -0.007365 -0.229685 0.084028
v -0.007365 -0.209685 0.084028
v 0.002634 -0.209685 0.084028
v -0.017364 -0.209685 0.074028
v 0.002634 -0.209685 0.074028
v 0.002634 -0.199685 0.064028
v -0.017364 -0.209685 0.064028
v 0.002634 -0.219685 0.084028
v -0.007365 -0.219685 0.084028
v 0.012635 -0.209685 0.054029
v -0.007365 -0.209685 0.054029
v -0.017364 -0.209685 0.054029
v -0.017364 -0.209685 -0.005972
v 0.012635 -0.209685 -0.005972
v -0.017364 -0.199685 0.004029
v 0.012635 -0.199685 0.004029
v 0.002634 -0.179685 0.024028
v -0.017364 -0.129685 -0.095972
v -0.027365 -0.109685 -0.095972
v 0.012635 -0.119685 -0.095972
v 0.012635 -0.139685 -0.085971
v 0.032636 -0.129685 -0.065972
v 0.022634 -0.139685 -0.065972
v 0.042634 -0.129685 -0.035971
v 0.032636 -0.139685 -0.035971
v -0.047366 -0.119685 -0.085971
v -0.057364 -0.099685 -0.085971
v -0.077365 -0.119685 -0.055972
v -0.087366 -0.089685 -0.055972
v -0.097365 -0.089685 -0.025972
v -0.087366 -0.119685 -0.025972
v -0.007365 -0.199685 -0.085971
v 0.012635 -0.199685 -0.085971
v 0.032636 -0.199685 -0.065972
v 0.042634 -0.199685 -0.045972
v -0.027365 -0.199685 -0.075971
v -0.047366 -0.199685 -0.055972
v -0.047366 -0.199685 -0.045972
v -0.007365 -0.209685 -0.085971
v 0.022634 -0.209685 -0.085971
v -0.007365 -0.219685 -0.085971
v 0.022634 -0.219685 -0.085971
v 0.042634 -0.219685 -0.065972
v 0.042634 -0.209685 -0.065972
v -0.027365 -0.219685 -0.075971
v -0.027365 -0.209685 -0.075971
v 0.042634 -0.209685 -0.055972
v 0.042634 -0.219685 -0.055972
v -0.047366 -0.219685 -0.065972
v -0.047366 -0.209685 -0.065972
v -0.047366 -0.209685 -0.045972
v -0.047366 -0.219685 -0.045972
v 0.042634 -0.209685 -0.035971
v 0.042634 -0.219685 -0.035971
v 0.032636 -0.209685 -0.015972
v 0.032636 -0.199685 -0.015972
v 0.032636 -0.199685 -0.025972
v 0.032636 -0.219685 -0.025972
v 0.022634 -0.149685 0.024028
v 0.032636 -0.139685 -0.005972
v 0.022634 -0.129685 0.024028
v 0.042634 -0.129685 -0.005972
v 0.032636 -0.119685 0.034028
v 0.042634 -0.119685 -0.005972
v 0.042634 -0.099685 0.034028
v 0.052636 -0.109685 0.004029
v 0.042634 -0.089685 0.044028
v 0.062635 -0.099685 0.004029
v 0.052636 -0.079685 0.044028
v 0.072636 -0.089685 0.004029
v 0.062635 -0.069685 0.044028
v 0.082635 -0.079685 0.004029
v 0.002634 -0.129685 0.054029
v 0.002634 -0.149685 0.044028
v -0.017364 -0.119685 0.064028
v -0.017364 -0.139685 0.044028
v -0.047366 -0.109685 0.054029
v -0.047366 -0.139685 0.044028
v -0.037364 -0.159685 0.034028
v -0.007365 -0.199685 0.004029
v 0.012635 -0.199685 -0.005972
v -0.027365 -0.199685 -0.005972
v 0.012635 -0.209685 -0.015972
v -0.007365 -0.209685 -0.005972
v -0.027365 -0.219685 -0.025972
v -0.027365 -0.209685 -0.015972
v 0.012635 -0.159685 0.024028
v -0.037364 -0.219685 -0.025972
v -0.037364 -0.209685 -0.015972
v -0.037364 -0.209685 -0.025972
v -0.037364 -0.219685 -0.035971
v -0.047366 -0.199685 -0.015972
v -0.037364 -0.199685 -0.005972
v -0.077365 -0.129685 0.014029
v -0.057364 -0.129685 0.034028
v -0.067366 -0.099685 0.044028
v -0.077365 -0.099685 0.024028
v -0.077365 -0.119685 -0.005972
v -0.087366 -0.089685 0.004029
v -0.067366 -0.149685 -0.005972
v -0.047366 -0.199685 -0.025972
v -0.047366 -0.209685 -0.035971
v -0.047366 -0.219685 -0.035971
v -0.097365 -0.059685 -0.025972
v -0.097365 -0.069685 0.004029
v -0.107364 -0.029685 -0.025972
v -0.097365 -0.029685 0.004029
v -0.117365 0.010315 -0.025972
v -0.107364 0.000315 0.004029
v -0.117365 0.050315 -0.035971
v -0.117365 0.050315 0.004029
v -0.117365 0.070315 -0.035971
v -0.107364 0.070315 0.004029
v -0.087366 -0.029685 0.034028
v -0.087366 -0.069685 0.034028
v -0.077365 -0.069685 0.054029
v -0.077365 -0.039685 0.064028
v -0.097365 0.000315 0.034028
v -0.077365 -0.009685 0.064028
v -0.097365 0.040315 0.034028
v -0.077365 0.020315 0.064028
v -0.097365 0.060315 0.034028
v -0.077365 0.040315 0.064028
v -0.047366 -0.049685 0.074028
v -0.047366 -0.079685 0.064028
v -0.017364 -0.089685 0.074028
v -0.017364 -0.069685 0.084028
v 0.012635 -0.109685 0.064028
v 0.012635 -0.089685 0.064028
v -0.017364 -0.049685 0.084028
v 0.022634 -0.069685 0.074028
v -0.007365 -0.029685 0.094029
v 0.032636 -0.059685 0.074028
v -0.047366 -0.009685 0.084028
v -0.047366 -0.029685 0.084028
v -0.007365 -0.019685 0.094029
v 0.032636 -0.049685 0.074028
v -0.047366 0.010315 0.084028
v -0.037364 0.020315 0.084028
v -0.067366 0.050315 0.064028
v 0.002634 -0.009685 0.084028
v 0.042634 -0.039685 0.074028
v 0.072636 -0.059685 0.044028
v 0.082635 -0.069685 0.004029
v 0.092634 -0.079685 -0.045972
v 0.082635 -0.069685 -0.085971
v 0.042634 -0.039685 -0.135972
v 0.002634 0.000315 -0.165971
v -0.027365 0.030315 -0.155972
v -0.067366 0.060315 -0.135972
v -0.097365 0.080315 -0.085971
v -0.107364 0.090315 -0.035971
v 0.072636 -0.079685 -0.085971
v 0.082635 -0.089685 -0.045972
v 0.072636 -0.089685 -0.045972
v 0.062635 -0.079685 -0.085971
v 0.052636 -0.099685 -0.075971
v 0.062635 -0.099685 -0.045972
v 0.012635 -0.069685 -0.115972
v 0.022634 -0.049685 -0.125971
v -0.027365 -0.039685 -0.125971
v -0.017364 -0.019685 -0.145972
v -0.007365 -0.009685 -0.155972
v -0.027365 -0.009685 -0.135972
v -0.067366 0.020315 -0.125971
v -0.067366 -0.009685 -0.105972
v -0.107364 0.000315 -0.075971
v -0.107364 0.040315 -0.075971
v -0.107364 0.060315 -0.085971
v -0.067366 0.040315 -0.125971
v -0.037364 0.010315 -0.155972
v 0.032636 -0.039685 -0.135972
v -0.097365 -0.029685 -0.065972
v -0.097365 -0.059685 -0.055972
v -0.067366 -0.039685 -0.095972
v -0.057364 -0.069685 -0.095972
v -0.027365 -0.059685 -0.115972
v -0.027365 -0.079685 -0.105972
v 0.012635 -0.079685 -0.105972
v 0.012635 -0.099685 -0.095972
v 0.042634 -0.109685 -0.075971
v 0.042634 -0.119685 -0.065972
v 0.052636 -0.109685 -0.035971
v 0.052636 -0.119685 -0.035971
v -0.097365 0.090315 0.004029
v -0.087366 0.070315 0.034028
v 0.002634 -0.249685 0.084028
v -0.007365 -0.249685 0.084028
v -0.017364 -0.249685 0.074028
v 0.002634 -0.249685 0.074028
v 0.002634 -0.249685 0.094029
v 0.012635 -0.259685 0.094029
v 0.012635 -0.259685 0.114028
v 0.012635 -0.249685 0.114028
v 0.002634 -0.229685 0.094029
v 0.012635 -0.239685 0.114028
v 0.022634 -0.219685 0.094029
v 0.022634 -0.229685 0.114028
v 0.042634 -0.229685 0.094029
v 0.042634 -0.239685 0.114028
v 0.052636 -0.249685 0.094029
v 0.042634 -0.249685 0.104028
v 0.042634 -0.259685 0.094029
v 0.042634 -0.259685 0.104028
v 0.022634 -0.209685 0.084028
v 0.042634 -0.219685 0.084028
v 0.052636 -0.249685 0.084028
v 0.032636 -0.239685 0.124028
v 0.022634 -0.229685 0.124028
v 0.032636 -0.239685 0.134029
v 0.022634 -0.239685 0.134029
v 0.032636 -0.249685 0.124028
v 0.022634 -0.249685 0.134029
v 0.022634 -0.249685 0.124028
v 0.012635 -0.249685 0.124028
v 0.012635 -0.239685 0.124028
v 0.012635 -0.259685 0.124028
v 0.042634 -0.249685 0.124028
v 0.032636 -0.259685 0.114028
v 0.022634 -0.219685 -0.005972
v -0.027365 -0.219685 -0.005972
v 0.022634 -0.219685 0.014029
v 0.032636 -0.229685 0.014029
v 0.042634 -0.249685 0.004029
v 0.042634 -0.249685 -0.015972
v 0.032636 -0.259685 0.004029
v 0.032636 -0.259685 -0.015972
v -0.007365 -0.219685 0.014029
v -0.027365 -0.219685 0.014029
v -0.047366 -0.229685 0.014029
v -0.047366 -0.249685 -0.015972
v -0.047366 -0.249685 0.004029
v -0.037364 -0.259685 -0.015972
v -0.037364 -0.259685 0.004029
v 0.022634 -0.219685 0.034028
v -0.007365 -0.219685 0.054029
v 0.022634 -0.219685 0.054029
v 0.032636 -0.229685 0.034028
v 0.042634 -0.219685 0.054029
v 0.042634 -0.249685 0.024028
v 0.052636 -0.249685 0.054029
v -0.037364 -0.209685 0.054029
v -0.047366 -0.219685 0.054029
v -0.057364 -0.249685 0.054029
v -0.057364 -0.249685 0.024028
v 0.042634 -0.259685 0.024028
v 0.042634 -0.259685 0.054029
v -0.057364 -0.259685 0.054029
v -0.047366 -0.259685 0.034028
v -0.037364 -0.199685 0.084028
v -0.017364 -0.229685 0.094029
v -0.037364 -0.219685 0.094029
v -0.027365 -0.229685 0.114028
v -0.047366 -0.239685 0.114028
v -0.057364 -0.229685 0.094029
v -0.057364 -0.249685 0.104028
v -0.067366 -0.249685 0.094029
v -0.017364 -0.239685 0.114028
v -0.017364 -0.249685 0.094029
v -0.017364 -0.249685 0.114028
v -0.047366 -0.259685 0.104028
v -0.057364 -0.259685 0.094029
v -0.017364 -0.259685 0.094029
v -0.027365 -0.259685 0.114028
v -0.057364 -0.219685 0.084028
v -0.017364 -0.249685 0.124028
v -0.017364 -0.239685 0.124028
v -0.027365 -0.249685 0.134029
v -0.027365 -0.239685 0.134029
v -0.037364 -0.249685 0.134029
v -0.047366 -0.249685 0.124028
v -0.037364 -0.239685 0.124028
v -0.027365 -0.229685 0.134029
v -0.047366 -0.239685 0.124028
v -0.027365 -0.229685 0.124028
v -0.047366 -0.259685 0.114028
v -0.047366 -0.249685 0.114028
v -0.027365 -0.259685 0.124028
v 0.022634 -0.229685 -0.085971
v 0.042634 -0.229685 -0.065972
v 0.052636 -0.229685 -0.055972
v -0.007365 -0.229685 -0.085971
v -0.007365 -0.239685 -0.095972
v 0.022634 -0.239685 -0.085971
v 0.022634 -0.249685 -0.085971
v -0.007365 -0.249685 -0.085971
v 0.032636 -0.259685 -0.065972
v 0.042634 -0.249685 -0.075971
v 0.042634 -0.259685 -0.055972
v 0.052636 -0.249685 -0.055972
v 0.042634 -0.229685 -0.035971
v 0.052636 -0.249685 -0.035971
v 0.042634 -0.249685 -0.025972
v 0.042634 -0.259685 -0.045972
v 0.032636 -0.259685 -0.025972
v -0.057364 -0.229685 -0.045972
v -0.057364 -0.229685 -0.055972
v -0.047366 -0.229685 -0.065972
v -0.037364 -0.229685 -0.075971
v -0.037364 -0.249685 -0.085971
v -0.027365 -0.249685 -0.085971
v -0.047366 -0.249685 -0.065972
v -0.047366 -0.259685 -0.065972
v -0.057364 -0.249685 -0.055972
v -0.047366 -0.259685 -0.055972
v -0.057364 -0.249685 -0.045972
v -0.047366 -0.259685 -0.045972
v -0.047366 -0.259685 -0.035971
v -0.047366 -0.249685 -0.035971
v -0.037364 -0.229685 -0.025972
v -0.007365 -0.259685 -0.065972
v -0.007365 -0.259685 -0.055972
v -0.007365 -0.259685 -0.045972
v -0.007365 -0.259685 -0.025972
v -0.007365 -0.259685 -0.015972
v -0.007365 -0.259685 0.004029
v -0.007365 -0.259685 0.024028
v -0.007365 -0.259685 0.054029
vn -0.2949 0.5108 0.8075
vn 0.2982 0.5159 0.8031
vn 0.1158 0.9512 0.2859
vn -0.1154 -0.9503 -0.2892
vn -0.2949 -0.5108 -0.8075
vn 0.1157 -0.9513 -0.2859
vn 0.3582 -0.2057 -0.9107
vn 0.2980 -0.5158 -0.8032
vn -0.2949 -0.5108 -0.8076
vn -0.3549 -0.2049 -0.9122
vn 0.3140 -0.0175 -0.9493
vn -0.3106 -0.0185 -0.9504
vn -0.2977 -0.0000 -0.9547
vn 0.2986 0.0012 -0.9544
vn -0.2988 -0.0000 -0.9543
vn 0.3218 0.0331 -0.9462
vn -0.3226 0.0323 -0.9460
vn 0.3601 0.2079 -0.9094
vn -0.3601 0.2079 -0.9094
vn 0.3010 0.5216 -0.7984
vn -0.3011 0.5215 -0.7984
vn 0.1306 0.9453 -0.2991
vn -0.1306 0.9453 -0.2991
vn 0.4972 0.8613 0.1044
vn 0.1359 0.9847 0.1091
vn 0.0436 0.3173 0.9473
vn 0.0574 0.0999 0.9933
vn -0.0437 0.3173 0.9473
vn -0.1359 0.9847 0.1091
vn -0.0574 0.0999 0.9933
vn -0.4971 0.8614 0.1044
vn 0.8613 0.4972 0.1044
vn 0.0626 0.0360 0.9974
vn 0.9885 0.1008 0.1130
vn 0.0510 0.0050 0.9987
vn -0.0628 0.0360 0.9974
vn -0.8614 0.4970 0.1044
vn -0.0509 0.0050 0.9987
vn -0.9889 0.0986 0.1108
vn 0.9921 0.0034 0.1253
vn 0.0454 -0.0000 0.9990
vn 0.0443 -0.0000 0.9990
vn 0.9903 0.0034 0.1392
vn 0.0492 -0.0028 0.9988
vn 0.9893 -0.0557 0.1347
vn 0.8573 -0.4983 0.1296
vn 0.0624 -0.0359 0.9974
vn 0.4896 -0.8641 0.1166
vn 0.0567 -0.0984 0.9935
vn 0.1180 -0.9868 0.1107
vn 0.0395 -0.3274 0.9441
vn -0.1198 -0.9868 0.1088
vn -0.0396 -0.3274 0.9440
vn -0.4972 -0.8614 0.1042
vn -0.0565 -0.0985 0.9935
vn -0.8614 -0.4972 0.1042
vn -0.0624 -0.0360 0.9974
vn -0.9921 -0.0585 0.1109
vn -0.0492 -0.0028 0.9988
vn -0.0443 -0.0000 0.9990
vn -0.9931 -0.0000 0.1173
vn -0.0454 -0.0000 0.9990
vn -0.9934 -0.0000 0.1143
vn 0.1158 -0.9512 -0.2859
vn -0.1070 -0.9502 0.2925
vn -0.1261 -0.9760 -0.1778
vn 0.5005 -0.8236 -0.2669
vn 0.5307 -0.8207 0.2117
vn -0.5666 -0.7393 0.3639
vn -0.6110 -0.7903 -0.0459
vn -0.7337 -0.5121 0.4466
vn -0.8549 -0.5095 0.0978
vn -0.8149 -0.1399 0.5625
vn -0.9662 -0.1020 0.2369
vn 0.8379 -0.4143 -0.3555
vn 0.8726 -0.4661 0.1462
vn 0.9337 -0.0561 -0.3536
vn 0.9824 -0.1320 0.1319
vn -0.7885 0.1009 0.6067
vn -0.9373 0.1850 0.2953
vn -0.8378 0.4231 0.3449
vn -0.7128 0.2986 0.6346
vn -0.8378 0.4234 0.3448
vn -0.6165 0.5444 0.5688
vn -0.5719 0.5618 0.5978
vn -0.0899 -0.6918 0.7165
vn -0.6164 0.5443 0.5690
vn -0.6193 0.5417 0.5683
vn -0.6164 0.5445 0.5689
vn -0.3336 0.7041 0.6269
vn -0.3546 0.6978 0.6224
vn 0.4285 0.6277 0.6499
vn 0.3903 0.8257 0.4072
vn -0.0529 0.8673 0.4950
vn -0.0512 0.6791 0.7322
vn 0.8839 0.4197 0.2065
vn 0.8144 0.5004 0.2938
vn 0.9830 0.1830 0.0152
vn 0.9709 0.2342 0.0501
vn 0.9709 0.2343 0.0501
vn 0.0818 0.9944 -0.0674
vn 0.4069 -0.4044 0.8191
vn -0.5258 0.8187 0.2307
vn 0.4653 -0.7983 0.3824
vn 0.2780 0.9589 -0.0560
vn 0.6237 0.7555 -0.2006
vn 0.8188 0.4529 -0.3527
vn 0.8372 -0.1093 0.5359
vn 0.8941 0.1429 -0.4244
vn -0.8815 0.4542 0.1293
vn -0.5770 0.8153 0.0489
vn -0.8885 0.4397 0.1317
vn -0.9857 0.0984 0.1372
vn -0.9818 0.1270 0.1412
vn 0.8814 -0.0213 -0.4719
vn 0.8814 -0.0214 -0.4719
vn 0.8814 -0.0214 -0.4718
vn 0.8846 0.1101 -0.4532
vn 0.7828 -0.3460 -0.5173
vn 0.8342 -0.2409 -0.4961
vn 0.8342 -0.2408 -0.4962
vn 0.7807 -0.3495 -0.5180
vn 0.6310 -0.5440 -0.5531
vn 0.3734 -0.7086 -0.5987
vn 0.6233 -0.5513 -0.5545
vn 0.3535 -0.7162 -0.6018
vn -0.1762 -0.7685 -0.6151
vn 0.0208 -0.7774 -0.6287
vn 0.0840 -0.7738 -0.6278
vn -0.1760 -0.7686 -0.6150
vn -0.1759 -0.7688 -0.6148
vn 0.0842 -0.7739 -0.6277
vn 0.0841 -0.7738 -0.6279
vn 0.3588 -0.3327 -0.8721
vn -0.2649 -0.4561 -0.8496
vn 0.0623 -0.4687 -0.8812
vn -0.4484 -0.3321 -0.8299
vn -0.5814 -0.0478 -0.8122
vn 0.4913 -0.1504 -0.8579
vn 0.5214 0.0092 -0.8533
vn -0.2706 0.9239 0.2706
vn -0.0000 0.9239 0.3827
vn -0.0000 0.9239 -0.3827
vn -0.1096 0.6690 -0.7351
vn -0.0910 0.6739 -0.7332
vn -0.3538 0.5660 -0.7446
vn 0.1504 0.6502 -0.7448
vn 0.3930 0.4978 -0.7732
vn 0.5150 0.2819 -0.8095
vn 0.5110 0.3013 -0.8050
vn 0.5139 0.2932 -0.8062
vn 0.5304 0.1562 -0.8332
vn 0.5110 0.3015 -0.8050
vn -0.0000 -0.0000 -0.0000
vn -0.1474 -0.3521 0.9243
vn -0.3236 -0.3179 0.8912
vn -0.3788 -0.2283 0.8969
vn -0.4193 -0.0873 0.9036
vn 0.8726 -0.4661 0.1461
vn 0.2082 -0.1709 0.9630
vn 0.0613 -0.2890 0.9554
vn -0.4360 -0.0065 0.8999
vn -0.4163 0.0908 0.9047
vn -0.3631 0.2080 0.9083
vn -0.2524 0.3405 0.9057
vn -0.3666 0.2012 0.9084
vn -0.2402 0.3508 0.9051
vn 0.4286 0.6275 0.6500
vn -0.0514 0.6791 0.7322
vn 0.1363 0.2761 0.9514
vn -0.0789 0.3621 0.9288
vn 0.3315 0.1258 0.9350
vn 0.3558 0.0427 0.9336
vn 0.3130 0.1554 0.9370
vn 0.3499 0.0158 0.9367
vn -0.1269 -0.1262 -0.9839
vn -0.2059 -0.0726 -0.9759
vn 0.1982 -0.0649 -0.9780
vn 0.1221 -0.1182 -0.9855
vn 0.1170 -0.1580 -0.9805
vn -0.1049 -0.1719 -0.9795
vn -0.0355 0.1046 0.9939
vn -0.1220 0.1344 0.9834
vn 0.0361 0.1063 0.9937
vn 0.1204 0.1463 0.9819
vn -0.1520 0.1663 0.9743
vn 0.1601 0.1850 0.9696
vn 0.9935 -0.1129 0.0163
vn 0.9999 0.0062 -0.0112
vn 0.9751 0.0735 0.2092
vn 0.9740 -0.0862 0.2094
vn 0.9420 -0.0581 -0.3305
vn 0.9335 -0.1803 -0.3099
vn 0.7195 -0.1489 -0.6784
vn 0.7192 -0.2562 -0.6459
vn 0.3315 -0.2030 -0.9214
vn 0.3356 -0.3170 -0.8871
vn 0.1082 -0.2011 -0.9736
vn 0.1071 -0.3313 -0.9374
vn 0.0044 -0.1789 -0.9839
vn 0.0044 -0.3100 -0.9507
vn -0.0890 -0.1791 -0.9798
vn -0.0879 -0.3096 -0.9468
vn -0.3799 -0.1814 -0.9071
vn -0.4095 -0.2896 -0.8651
vn -0.7485 -0.1479 -0.6465
vn -0.7356 -0.2653 -0.6233
vn -0.9134 -0.1296 -0.3858
vn -0.8921 -0.2581 -0.3710
vn -0.9754 -0.1013 -0.1957
vn -0.9591 -0.2228 -0.1745
vn -0.9758 -0.0115 0.2184
vn -0.9217 0.0645 0.3824
vn -0.9758 -0.0113 0.2184
vn -0.9643 -0.1284 0.2317
vn -0.0000 -0.0000 1.0000
vn -0.9218 0.0645 0.3823
vn -0.9643 -0.1286 0.2316
vn -0.9996 -0.0168 -0.0241
vn -0.9759 -0.0305 -0.2161
vn -0.9726 0.0863 -0.2157
vn -0.9882 0.1532 0.0033
vn -0.9271 0.2070 0.3124
vn -0.9513 0.0453 0.3049
vn -0.6931 0.3107 0.6505
vn -0.7397 0.1345 0.6594
vn -0.3025 0.3571 0.8837
vn -0.3319 0.2003 0.9218
vn -0.0995 0.3396 0.9353
vn -0.1066 0.1986 0.9743
vn -0.0050 0.3157 0.9488
vn -0.0055 0.1729 0.9849
vn 0.0786 0.3113 0.9470
vn 0.0812 0.1705 0.9820
vn 0.3522 0.3459 0.8697
vn 0.4128 0.1758 0.8937
vn 0.7244 0.3166 0.6124
vn 0.7626 0.1512 0.6290
vn 0.8872 0.2751 0.3704
vn 0.9170 0.1250 0.3788
vn 0.9485 0.2547 0.1883
vn 0.9802 0.0885 0.1773
vn 0.9588 0.1700 -0.2277
vn 0.9163 -0.0165 -0.4001
vn 0.9689 0.0115 -0.2470
vn 0.9128 0.0848 -0.3994
vn 0.6784 -0.1490 0.7195
vn -0.6505 0.3109 -0.6930
vn -0.3125 0.2070 -0.9271
vn -0.6930 0.3110 0.6505
vn 0.7626 0.1510 0.6290
vn -0.6233 -0.2653 0.7356
vn 0.6291 0.1511 -0.7625
vn 0.3789 0.1249 -0.9170
vn 0.9937 -0.0109 0.1119
vn 0.9673 -0.2506 -0.0397
vn 0.9788 -0.1448 -0.1449
vn 0.9937 -0.0107 0.1119
vn 0.8627 -0.4921 -0.1161
vn 0.9329 0.0893 0.3489
vn 0.9830 -0.0000 -0.1835
vn 0.9788 0.1447 -0.1447
vn 0.9788 -0.1447 -0.1449
vn 0.6427 -0.6055 0.4693
vn -0.2360 0.9662 0.1040
vn 0.6427 -0.6056 0.4692
vn 0.6856 -0.4624 0.5623
vn 0.2997 -0.6443 0.7036
vn 0.6428 -0.6056 0.4692
vn 0.2847 -0.9134 -0.2908
vn 0.0772 -0.9740 -0.2129
vn -0.2916 -0.6681 0.6846
vn 0.0018 -0.5932 0.8051
vn -0.0795 -0.9724 -0.2195
vn -0.2916 -0.6680 0.6847
vn -0.2869 -0.9062 -0.3108
vn -0.6387 -0.6544 0.4048
vn -0.2915 -0.6681 0.6846
vn -0.2869 -0.9062 -0.3107
vn -0.6386 -0.6544 0.4049
vn -0.2869 -0.9061 -0.3108
vn -0.8590 -0.4770 -0.1859
vn -0.9713 0.0441 0.2337
vn -0.9515 -0.2894 -0.1041
vn -0.9941 0.0003 -0.1088
vn -0.9358 -0.2506 -0.2480
vn -0.9673 -0.2505 0.0397
vn -0.9941 -0.0000 -0.1088
vn -0.9788 -0.1447 0.1450
vn -0.9830 -0.0000 0.1835
vn -0.9755 0.1587 0.1526
vn -0.9092 0.3678 0.1950
vn -0.9941 0.0005 -0.1089
vn -0.9754 0.1589 0.1526
vn -0.8613 0.5081 -0.0051
vn -0.9093 0.3676 0.1950
vn -0.9242 0.1450 -0.3533
vn -0.9363 0.2397 -0.2569
vn -0.8816 0.4354 -0.1822
vn -0.2031 0.9651 0.1651
vn -0.8817 0.4353 -0.1822
vn -0.4991 0.6723 -0.5467
vn 0.2998 -0.6444 0.7035
vn -0.1396 0.9886 0.0564
vn -0.2031 0.9652 0.1650
vn 0.0018 -0.5932 0.8050
vn -0.0000 -0.5932 0.8051
vn -0.0010 0.9954 0.0955
vn -0.1396 0.9886 0.0565
vn 0.2848 -0.9134 -0.2908
vn -0.4991 0.6723 -0.5468
vn -0.2181 0.6401 -0.7367
vn 0.1345 0.9889 0.0629
vn 0.1346 0.9889 0.0629
vn -0.2916 -0.6681 0.6845
vn 0.2165 0.9630 0.1607
vn -0.6386 -0.6545 0.4049
vn -0.6386 -0.6545 0.4048
vn 0.8914 0.3708 0.2607
vn 0.8911 0.4440 -0.0940
vn 0.5023 0.6985 -0.5097
vn 0.2149 0.6621 -0.7179
vn -0.9617 -0.1258 0.2434
vn -0.9998 -0.0156 0.0123
vn -0.9639 -0.2281 0.1375
vn -0.9582 -0.0012 0.2862
vn -0.9617 -0.1225 0.2451
vn -0.9697 -0.0021 -0.2441
vn -0.9722 0.1235 -0.1989
vn 0.9999 0.0048 -0.0143
vn 0.9570 -0.2373 -0.1671
vn 0.9481 -0.1428 -0.2840
vn 0.9999 0.0049 -0.0143
vn 0.9575 -0.2884 -0.0060
vn 0.9560 -0.2574 0.1411
vn 0.9519 0.1774 0.2498
vn 0.9594 0.0015 0.2822
vn 0.9999 0.0046 -0.0143
vn 0.8915 0.3705 0.2607
vn 0.9519 0.1771 0.2499
vn 0.9511 0.0028 -0.3088
vn 0.9999 0.0051 -0.0143
vn 0.9482 0.1536 -0.2782
vn 0.9548 0.2392 -0.1765
vn 0.9549 0.2390 -0.1765
vn 0.8496 0.5209 0.0829
vn -0.1311 0.9812 0.1417
vn -0.1686 0.9519 0.2557
vn 0.1686 0.9519 0.2557
vn 0.1311 0.9812 0.1417
vn 0.1302 0.9897 -0.0602
vn -0.1302 0.9897 -0.0602
vn -0.1312 0.9812 0.1416
vn -0.0892 0.8543 -0.5120
vn -0.1301 0.9897 -0.0602
vn 0.1301 0.9897 -0.0602
vn 0.0742 0.8566 -0.5107
vn -0.2269 0.5276 -0.8186
vn 0.1966 0.5304 -0.8247
vn 0.3355 0.2951 -0.8946
vn 0.3354 0.2952 -0.8946
vn -0.3683 0.2915 -0.8828
vn -0.0000 -0.9574 -0.2889
vn -0.0000 -0.9860 -0.1669
vn 0.3209 -0.9354 -0.1484
vn 0.2403 -0.9295 -0.2799
vn 0.3210 -0.9354 -0.1484
vn 0.3074 -0.9501 0.0528
vn -0.0000 -0.9988 0.0487
vn 0.2806 -0.8237 0.4928
vn 0.0064 -0.9041 0.4272
vn 0.2805 -0.8236 0.4929
vn 0.0064 -0.9042 0.4271
vn 0.2292 -0.1725 0.9580
vn 0.0064 -0.9042 0.4270
vn 0.0217 -0.3252 0.9454
vn 0.2293 -0.1726 0.9579
vn -0.3129 -0.7948 0.5200
vn -0.1781 -0.1733 0.9686
vn 0.0340 -0.1123 0.9931
vn 0.0247 -0.1133 0.9933
vn 0.0164 -0.1124 0.9935
vn -0.0892 0.8544 -0.5120
vn -0.3128 -0.7948 0.5200
vn -0.0892 0.8543 -0.5121
vn 0.2806 -0.8237 0.4927
vn 0.0741 0.8566 -0.5107
vn -0.0443 0.7764 0.6286
vn -0.0779 0.8017 0.5926
vn 0.0958 0.8015 0.5902
vn 0.0913 0.7787 0.6208
vn -0.0089 0.7468 0.6649
vn 0.1472 0.7472 0.6481
vn 0.0533 0.7461 0.6637
vn -0.0089 0.7469 0.6649
vn 0.1473 0.7472 0.6480
vn 0.1407 0.7446 0.6525
vn 0.0534 0.7462 0.6636
vn -0.0038 -0.7490 -0.6626
vn -0.0112 -0.9824 0.1864
vn 0.1407 0.7443 0.6528
vn 0.0457 -0.7806 -0.6233
vn 0.0365 -0.8068 -0.5897
vn -0.0563 -0.8067 -0.5883
vn -0.0886 -0.7795 -0.6202
vn -0.0000 -0.7490 -0.6626
vn 0.0458 -0.7806 -0.6233
vn -0.0887 -0.7795 -0.6201
vn -0.1288 -0.7482 -0.6509
vn -0.1287 -0.7482 -0.6509
vn -0.2184 -0.7381 -0.6383
vn -0.9039 -0.4109 -0.1185
vn -0.8307 -0.5105 -0.2219
vn -0.9745 -0.2226 0.0275
vn -0.9840 -0.1694 0.0557
vn -0.8308 -0.5104 -0.2219
vn -0.9039 -0.4109 -0.1187
vn -0.7294 -0.6017 -0.3256
vn -0.7295 -0.6014 -0.3258
vn -0.1727 -0.9605 0.2183
vn -0.2048 -0.9425 0.2642
vn 0.3658 -0.8795 0.3044
vn 0.4792 -0.8593 0.1788
vn 0.7109 -0.5218 0.4715
vn 0.8578 -0.4742 0.1985
vn 0.7943 -0.0884 0.6010
vn 0.9553 -0.1073 0.2755
vn -0.6048 -0.7476 0.2744
vn -0.6229 -0.7371 0.2622
vn -0.8295 -0.4679 0.3051
vn -0.8506 -0.4542 0.2648
vn -0.9627 -0.0479 0.2663
vn -0.9437 -0.0745 0.3222
vn -0.1362 -0.9802 0.1434
vn 0.5309 -0.8474 0.0076
vn -0.1182 -0.9906 0.0693
vn -0.1362 -0.9802 0.1435
vn -0.0937 -0.9944 0.0484
vn -0.1181 -0.9906 0.0693
vn 0.4984 -0.8662 -0.0355
vn 0.4468 -0.8924 -0.0625
vn 0.8559 -0.4896 -0.1666
vn 0.8057 -0.5480 -0.2246
vn 0.9790 -0.1007 -0.1775
vn 0.9629 -0.0946 -0.2529
vn -0.6005 -0.7976 0.0570
vn -0.6052 -0.7838 0.1391
vn -0.8534 -0.5136 0.0886
vn -0.8197 -0.5137 0.2533
vn -0.9129 -0.1349 0.3852
vn -0.9677 -0.1289 0.2165
vn -0.0640 -0.9979 -0.0039
vn 0.4099 -0.9054 -0.1107
vn -0.0673 -0.9942 -0.0838
vn 0.3699 -0.9092 -0.1910
vn 0.7323 -0.6144 -0.2936
vn 0.7691 -0.5928 -0.2387
vn -0.4931 -0.8620 -0.1175
vn -0.5649 -0.8250 -0.0181
vn 0.9627 -0.0703 -0.2612
vn 0.9597 -0.0426 -0.2779
vn -0.8118 -0.5391 -0.2246
vn -0.8628 -0.5020 -0.0599
vn -0.9984 -0.0549 0.0139
vn -0.9768 -0.0272 -0.2126
vn 0.9303 0.3396 -0.1388
vn 0.9099 0.3534 -0.2172
vn 0.7263 0.6790 0.1071
vn 0.8011 0.5609 0.2088
vn 0.9564 0.2790 -0.0864
vn 0.6607 0.7505 -0.0174
vn 0.8345 0.4898 0.2523
vn 0.9750 0.2209 -0.0234
vn 0.8345 0.4897 0.2524
vn 0.8727 0.4476 0.1952
vn 0.9837 0.1798 -0.0038
vn 0.8727 0.4475 0.1952
vn 0.9837 0.1797 -0.0038
vn 0.8249 0.4403 0.3546
vn 0.9358 0.1814 0.3021
vn 0.7502 0.4738 0.4612
vn 0.8144 0.1990 0.5452
vn 0.7183 0.5287 0.4523
vn 0.7996 0.2485 0.5467
vn 0.6615 0.5661 0.4919
vn 0.7572 0.2775 0.5913
vn 0.6030 0.5915 0.5352
vn 0.6978 0.2863 0.6565
vn 0.5945 0.6121 0.5215
vn 0.6914 0.2907 0.6614
vn 0.5827 0.6336 0.5090
vn 0.6837 0.2956 0.6672
vn 0.4311 0.7837 0.4472
vn 0.4493 0.7567 0.4749
vn -0.0814 0.8941 0.4403
vn -0.0783 0.8532 0.5157
vn -0.3893 0.8304 0.3986
vn -0.3931 0.7745 0.4957
vn -0.0507 0.8063 0.5894
vn -0.3741 0.7350 0.5655
vn -0.0220 0.7517 0.6591
vn -0.3314 0.7014 0.6310
vn 0.0013 0.7278 0.6858
vn -0.0221 0.7517 0.6592
vn -0.3314 0.7013 0.6312
vn 0.3658 0.7337 0.5726
vn 0.3869 0.7176 0.5790
vn -0.2775 0.6768 0.6818
vn 0.3019 0.8317 0.4660
vn -0.0350 0.7553 0.6544
vn -0.1210 0.8979 0.4233
vn 0.2487 0.9232 0.2930
vn -0.3445 0.8888 0.3022
vn -0.2429 0.6644 0.7068
vn 0.3871 0.7176 0.5790
vn 0.4532 0.7423 0.4935
vn 0.8344 0.4899 0.2523
vn -0.5376 0.8410 0.0606
vn -0.4422 0.6273 0.6411
vn -0.6915 0.5369 0.4833
vn -0.7680 0.6332 -0.0959
vn -0.7649 0.4037 0.5019
vn -0.5631 0.5614 0.6064
vn -0.7763 0.3617 0.5163
vn -0.6075 0.5506 0.5725
vn -0.8011 0.3629 0.4760
vn -0.7763 0.3616 0.5163
vn -0.6076 0.5505 0.5726
vn -0.8475 0.3666 0.3838
vn -0.6605 0.5940 0.4593
vn -0.6834 0.6419 0.3479
vn -0.8783 0.3791 0.2915
vn -0.9228 0.1881 0.3362
vn -0.9384 0.2137 0.2715
vn -0.8854 0.1493 0.4402
vn -0.9036 -0.1127 0.4134
vn -0.8806 0.1344 0.4544
vn -0.7763 0.3618 0.5162
vn -0.9161 0.1700 0.3631
vn -0.8806 0.1342 0.4544
vn -0.9225 0.3054 0.2360
vn -0.9214 0.3522 -0.1640
vn -0.9748 -0.0439 0.2188
vn -0.9519 0.2337 0.1982
vn -0.9811 -0.0499 0.1871
vn -0.9567 0.2456 0.1562
vn -0.9878 -0.0429 0.1497
vn -0.9594 0.2567 0.1169
vn -0.9986 -0.0417 0.0311
vn -0.9674 0.2530 0.0077
vn -0.9588 -0.0527 -0.2792
vn -0.9175 0.2595 -0.3013
vn -0.8895 0.4365 0.1352
vn -0.8923 0.4123 0.1837
vn -0.7141 0.6647 0.2197
vn -0.7398 0.6547 0.1553
vn -0.8803 0.4633 0.1022
vn -0.7531 0.6488 0.1086
vn -0.8816 0.4707 0.0348
vn -0.7369 0.6747 0.0416
vn -0.8272 0.5155 -0.2236
vn -0.6526 0.7450 -0.1377
vn -0.4423 0.8653 0.2357
vn -0.4127 0.8611 0.2969
vn -0.0697 0.9283 0.3652
vn -0.0560 0.9493 0.3093
vn 0.4209 0.8096 0.4092
vn 0.3875 0.8346 0.3916
vn -0.0102 0.9668 0.2552
vn 0.3829 0.8459 0.3713
vn 0.0468 0.9892 0.1390
vn 0.4009 0.8648 0.3024
vn -0.4201 0.9059 0.0538
vn -0.4640 0.8692 0.1708
vn 0.1526 0.9879 -0.0277
vn 0.4298 0.8804 0.2003
vn -0.3021 0.9467 -0.1115
vn -0.8403 -0.4912 -0.2292
vn -0.2070 -0.9167 0.3416
vn 0.5278 0.6366 0.5623
vn 0.3505 -0.5877 -0.7292
vn -0.4268 -0.9030 0.0492
vn 0.1748 -0.8197 0.5455
vn 0.4065 -0.5879 0.6994
vn 0.7012 -0.1109 0.7043
vn 0.6990 -0.1114 0.7063
vn 0.3760 -0.6217 0.6871
vn 0.4243 -0.6363 0.6443
vn 0.7102 -0.1030 0.6964
vn 0.0696 -0.8194 0.5690
vn 0.0057 -0.7696 0.6385
vn -0.3614 -0.8101 0.4616
vn -0.2636 -0.7641 0.5888
vn -0.1923 -0.8608 0.4711
vn -0.5609 -0.7117 0.4229
vn -0.6964 -0.6506 0.3029
vn -0.6588 -0.6743 0.3335
vn -0.8716 -0.4289 0.2376
vn -0.8973 -0.4176 0.1432
vn -0.8824 -0.4511 -0.1341
vn -0.6981 -0.7127 0.0686
vn -0.5040 -0.8308 0.2359
vn 0.0637 -0.7660 0.6397
vn -0.8557 -0.4548 0.2468
vn -0.8508 -0.4639 0.2467
vn -0.6386 -0.7111 0.2942
vn -0.6267 -0.7314 0.2689
vn -0.3075 -0.8770 0.3692
vn -0.2508 -0.9162 0.3126
vn 0.1797 -0.8773 0.4451
vn 0.2653 -0.8924 0.3651
vn 0.5280 -0.6442 0.5534
vn 0.6212 -0.5959 0.5090
vn 0.7627 -0.0932 0.6400
vn 0.7811 -0.0846 0.6186
vn -0.6245 -0.3679 0.6889
vn 0.3176 0.9365 -0.1483
vn -0.8535 -0.4841 -0.1926
vn -0.9177 -0.3718 -0.1400
vn -0.9182 0.0790 -0.3882
vn -0.5987 0.7969 0.0807
vn -0.2298 0.4570 -0.8593
vn 0.4157 0.4410 -0.7954
vn 0.5954 0.7992 0.0825
vn 0.0740 0.1372 0.9878
vn -0.0812 0.1511 0.9852
vn -0.9627 0.2601 0.0749
vn -0.2644 -0.1631 0.9505
vn -0.3214 0.1319 0.9377
vn -0.9815 0.1696 0.0894
vn -0.6886 0.4895 -0.5350
vn -0.6843 0.3269 -0.6518
vn 0.0594 0.5225 -0.8505
vn 0.0479 0.4098 -0.9109
vn 0.6775 0.3966 -0.6194
vn 0.5819 0.4357 -0.6866
vn 0.9512 0.2949 -0.0910
vn 0.9088 0.4166 -0.0208
vn 0.3111 -0.1250 0.9421
vn 0.3221 0.1947 0.9265
vn 0.0949 0.1979 -0.9756
vn 0.7133 0.0526 -0.6989
vn 0.9882 -0.0451 -0.1464
vn 0.5702 0.3512 -0.7427
vn 0.0219 0.2801 -0.9597
vn 0.4292 0.6948 -0.5770
vn -0.0313 0.7935 -0.6077
vn 0.6490 0.7481 0.1386
vn 0.0026 0.9802 0.1978
vn 0.6490 0.7480 0.1387
vn 0.0327 0.8676 0.4963
vn -0.2157 0.6989 0.6819
vn -0.5077 0.6797 -0.5293
vn -0.6411 0.7413 0.1987
vn -0.6560 0.2556 -0.7102
vn 0.9017 0.4302 0.0441
vn 0.3759 0.4309 0.8204
vn 0.2793 0.6944 0.6632
vn -0.9673 0.2153 0.1345
vn -0.3510 0.3782 0.8566
vn 0.2941 -0.0411 -0.9549
vn 0.4188 0.4437 -0.7923
vn -0.0630 0.3307 -0.9416
vn -0.0072 -0.0889 -0.9960
vn -0.0631 0.3308 -0.9416
vn -0.3431 0.3164 -0.8844
vn -0.3092 -0.0640 -0.9489
vn -0.0630 0.3305 -0.9417
vn 0.2884 -0.1283 -0.9489
vn 0.7307 -0.0936 -0.6762
vn 0.7166 0.0515 -0.6956
vn 0.9859 -0.0784 0.1476
vn 0.9610 0.1298 0.2442
vn 0.3111 -0.0906 0.9461
vn 0.2657 0.0395 0.9633
vn -0.0071 -0.1345 -0.9909
vn -0.3233 -0.1368 -0.9364
vn -0.7331 0.0187 -0.6799
vn -0.7024 -0.1232 -0.7010
vn -0.9745 0.1032 0.1995
vn -0.9661 -0.1116 0.2329
vn -0.3205 0.0528 0.9458
vn -0.2815 -0.0726 0.9568
vn 0.2056 -0.1711 -0.9636
vn 0.0073 -0.1466 -0.9892
vn 0.0740 -0.0874 -0.9934
vn 0.1289 -0.0842 -0.9881
vn 0.7012 -0.2241 -0.6768
vn 0.7104 -0.1605 -0.6853
vn 0.9787 -0.2042 -0.0222
vn 0.9795 -0.1703 -0.1077
vn -0.1804 -0.2151 -0.9598
vn -0.2679 -0.2273 -0.9363
vn -0.7326 -0.2619 -0.6283
vn -0.7219 -0.2602 -0.6412
vn -0.9562 -0.2657 -0.1226
vn -0.9574 -0.2795 0.0722
vn 0.2888 -0.0600 0.9555
vn 0.2537 0.0936 0.9627
vn -0.2505 0.0674 0.9658
vn -0.2642 -0.0728 0.9617
vn -0.0892 0.1544 -0.9840
vn 0.7458 0.4933 -0.4476
vn -0.0440 0.6067 -0.7937
vn -0.0471 0.4384 -0.8976
vn -0.5776 0.4312 -0.6932
vn -0.6726 0.4217 -0.6081
vn -0.9023 0.4260 -0.0660
vn -0.9497 0.2857 -0.1284
vn 0.7908 0.3077 -0.5291
vn 0.9579 0.2748 0.0835
vn 0.9783 0.1847 0.0941
vn -0.3132 0.2005 0.9283
vn -0.3002 -0.1229 0.9459
vn 0.2461 -0.1594 0.9561
vn 0.3050 0.1454 0.9412
vn -0.7475 0.0639 -0.6612
vn -0.2987 -0.0288 0.9539
vn -0.9762 -0.0985 -0.1931
vn 0.9673 0.2212 0.1243
vn 0.7558 0.2126 -0.6194
vn 0.8297 0.5407 0.1385
vn -0.2655 0.6132 0.7439
vn -0.0632 0.9531 0.2959
vn -0.0611 0.9979 -0.0225
vn -0.6939 0.7144 0.0905
vn -0.5317 0.6074 -0.5903
vn -0.0760 0.6996 -0.7104
vn -0.0611 0.9979 -0.0224
vn 0.8298 0.5407 0.1385
vn 0.7546 0.4828 -0.4444
vn -0.5641 0.3429 -0.7511
vn -0.0568 0.2497 -0.9667
vn -0.3661 0.4493 0.8150
vn -0.8841 0.4657 0.0387
vn 0.3316 0.3641 0.8703
vn 0.2752 0.5322 0.8006
vn 0.3556 -0.9055 -0.2316
vn 0.7695 -0.6009 -0.2163
vn 0.9834 -0.0383 -0.1773
vn -0.0836 -0.9747 -0.2071
vn -0.0971 -0.9951 0.0175
vn 0.3602 -0.9279 0.0966
vn 0.1424 -0.5900 0.7948
vn -0.0488 -0.5853 0.8094
vn 0.2803 -0.3479 0.8946
vn 0.7447 -0.6345 0.2069
vn 0.3267 -0.0583 0.9433
vn 0.9562 -0.1217 0.2663
vn 0.9356 0.2860 -0.2072
vn 0.8246 0.3604 -0.4361
vn 0.9591 0.1990 0.2015
vn 0.9270 0.3216 0.1929
vn 0.3313 0.0936 0.9389
vn 0.2959 0.1471 0.9438
vn 0.4187 0.4436 -0.7924
vn -0.9361 0.2589 -0.2379
vn -0.9741 -0.0602 -0.2178
vn -0.7770 -0.5800 -0.2446
vn -0.4580 -0.8624 -0.2157
vn -0.4465 -0.8915 0.0771
vn -0.2011 0.5913 -0.7810
vn -0.4466 0.8914 -0.0770
vn -0.0488 0.5853 -0.8093
vn -0.7685 -0.6166 0.1710
vn -0.2009 -0.5913 0.7810
vn -0.2833 -0.3400 0.8967
vn -0.9658 -0.1254 0.2271
vn -0.3111 -0.0568 0.9487
vn -0.9641 0.1972 0.1781
vn -0.3135 0.0918 0.9452
vn -0.2898 0.1231 0.9491
vn -0.9503 0.2783 0.1393
vn -0.8657 0.3494 -0.3583
vn -0.5032 0.3513 -0.7895
vn -0.0000 -0.1886 0.9820
vn 0.0020 -0.0092 1.0000
vn 0.0047 0.0538 0.9985
vn 0.0005 0.0629 0.9980
vn -0.0017 0.0183 0.9998
vn -0.0016 -0.0631 0.9980
vn -0.0000 -0.0149 0.9999
vn -0.0034 0.1395 0.9902
vn 0.3055 -0.0042 0.9522
vn -0.2155 0.6990 0.6818
vn 0.2795 0.6942 0.6633
vn 0.0327 0.8675 0.4963
vn -0.2156 0.6990 0.6818
vn -0.6052 -0.7838 0.1390
vn -0.4157 -0.8941 0.1666
vn -0.5612 -0.8108 0.1663
vn -0.7952 -0.5136 0.3222
vn -0.9129 -0.1348 0.3852
vn -0.5876 -0.7694 0.2506
vn -0.7943 -0.4978 0.3481
vn 0.8559 -0.4897 -0.1666
vn 0.8948 -0.4355 -0.0986
vn 0.9884 -0.1088 -0.1058
vn 0.4983 -0.8663 -0.0353
vn 0.9789 -0.1010 -0.1775
vn 0.9884 -0.1091 -0.1057
vn 0.9838 0.1793 -0.0038
vn -0.6076 0.5504 0.5725
vn -0.3652 -0.6852 0.6302
vn -0.0344 -0.8514 0.5234
vn -0.7606 -0.6489 -0.0204
vn -0.3399 -0.9183 0.2029
vn -0.4119 -0.6704 -0.6172
vt 0.910000 0.372600
vt 0.910000 0.386000
vt 0.911100 0.381800
vt 0.911100 0.376800
vt 0.907000 0.389100
vt 0.907000 0.369500
vt 0.902800 0.390200
vt 0.902800 0.368400
vt 0.888000 0.368400
vt 0.888000 0.390200
vt 0.880600 0.368400
vt 0.880600 0.390200
vt 0.873200 0.390200
vt 0.873200 0.368400
vt 0.868800 0.389000
vt 0.868800 0.369600
vt 0.865500 0.385800
vt 0.865500 0.372800
vt 0.864400 0.381400
vt 0.864400 0.377200
vt 0.394100 0.335000
vt 0.392300 0.341500
vt 0.394200 0.341800
vt 0.395800 0.335900
vt 0.394200 0.347400
vt 0.392300 0.347600
vt 0.395800 0.353200
vt 0.394200 0.354200
vt 0.399000 0.330200
vt 0.399900 0.331800
vt 0.405500 0.328300
vt 0.405800 0.330200
vt 0.400000 0.357300
vt 0.399000 0.359000
vt 0.405800 0.359000
vt 0.405500 0.360800
vt 0.416300 0.328300
vt 0.416400 0.330200
vt 0.427000 0.330200
vt 0.427000 0.328300
vt 0.448200 0.330200
vt 0.448400 0.328300
vt 0.454700 0.330100
vt 0.453700 0.331700
vt 0.459300 0.334700
vt 0.457600 0.335600
vt 0.461000 0.340900
vt 0.459100 0.341100
vt 0.461000 0.348300
vt 0.459100 0.348000
vt 0.459300 0.354500
vt 0.457600 0.353500
vt 0.454700 0.359100
vt 0.453700 0.357400
vt 0.448400 0.360800
vt 0.448200 0.358900
vt 0.427000 0.359000
vt 0.427000 0.360800
vt 0.416400 0.359000
vt 0.416300 0.360800
vt 0.994600 0.020600
vt 0.994600 0.007100
vt 0.972900 0.007100
vt 0.972900 0.020600
vt 0.972900 0.035000
vt 0.994600 0.035000
vt 0.972900 0.049200
vt 0.994600 0.049200
vt 0.972900 0.063700
vt 0.994600 0.063700
vt 0.972900 0.087300
vt 0.994600 0.087300
vt 0.972900 0.110800
vt 0.994600 0.110800
vt 0.972900 0.157800
vt 0.994600 0.157800
vt 0.972900 0.171600
vt 0.994600 0.171600
vt 0.972900 0.185300
vt 0.994600 0.185300
vt 0.972900 0.199500
vt 0.994600 0.199500
vt 0.972900 0.187000
vt 0.972900 0.200800
vt 0.994600 0.200800
vt 0.994600 0.187000
vt 0.972900 0.052900
vt 0.994600 0.052900
vt 0.994600 0.067400
vt 0.972900 0.067400
vt 0.972900 0.038100
vt 0.994600 0.038100
vt 0.972900 0.025800
vt 0.994600 0.025800
vt 0.994600 0.090700
vt 0.972900 0.090700
vt 0.994600 0.114100
vt 0.972900 0.114100
vt 0.994600 0.160700
vt 0.972900 0.160700
vt 0.994600 0.171900
vt 0.972900 0.171900
vt 0.994600 0.180200
vt 0.972900 0.180200
vt 0.994600 0.194600
vt 0.972900 0.194600
vt 0.789700 0.005700
vt 0.789700 0.002700
vt 0.784800 0.002700
vt 0.784800 0.005700
vt 0.794400 0.005700
vt 0.794400 0.002700
vt 0.800500 0.005700
vt 0.800500 0.002700
vt 0.804600 0.005700
vt 0.804600 0.002700
vt 0.779200 0.002700
vt 0.779200 0.005700
vt 0.773100 0.002700
vt 0.773100 0.005700
vt 0.806200 0.005700
vt 0.806200 0.002700
vt 0.807800 0.002700
vt 0.807800 0.005700
vt 0.810500 0.005700
vt 0.810900 0.002700
vt 0.814700 0.005700
vt 0.812700 0.004100
vt 0.822300 0.005700
vt 0.822300 0.002700
vt 0.817200 0.002700
vt 0.817200 0.005700
vt 0.814400 0.002700
vt 0.825400 0.005700
vt 0.825400 0.002700
vt 0.829800 0.005700
vt 0.827700 0.003900
vt 0.832300 0.005700
vt 0.829400 0.002700
vt 0.832300 0.002700
vt 0.946800 0.008400
vt 0.944600 0.008500
vt 0.944900 0.010200
vt 0.948900 0.008300
vt 0.947200 0.010200
vt 0.949300 0.010200
vt 0.952000 0.010200
vt 0.953800 0.010200
vt 0.953300 0.008100
vt 0.942300 0.010200
vt 0.942300 0.008500
vt 0.939500 0.010200
vt 0.940000 0.008700
vt 0.954100 0.008100
vt 0.954500 0.010200
vt 0.954900 0.008100
vt 0.955200 0.010200
vt 0.956400 0.010300
vt 0.957200 0.009300
vt 0.956000 0.008100
vt 0.957100 0.008000
vt 0.961800 0.008500
vt 0.959400 0.008200
vt 0.959000 0.010300
vt 0.961000 0.010300
vt 0.957900 0.010300
vt 0.958300 0.008100
vt 0.866400 0.002000
vt 0.868200 0.002000
vt 0.866400 0.001700
vt 0.869900 0.002000
vt 0.869900 0.001700
vt 0.868200 0.001700
vt 0.872000 0.002000
vt 0.872000 0.001700
vt 0.873500 0.002000
vt 0.873500 0.001700
vt 0.864300 0.001700
vt 0.864300 0.002000
vt 0.862000 0.001700
vt 0.862000 0.002000
vt 0.874000 0.002000
vt 0.876800 0.002000
vt 0.876800 0.001700
vt 0.875600 0.001700
vt 0.877700 0.002000
vt 0.877700 0.001700
vt 0.879300 0.002000
vt 0.879300 0.001700
vt 0.880400 0.002000
vt 0.880400 0.001700
vt 0.881900 0.002000
vt 0.882900 0.002000
vt 0.882900 0.001700
vt 0.881900 0.001700
vt 0.867900 0.003100
vt 0.866200 0.003100
vt 0.867900 0.003500
vt 0.869600 0.003500
vt 0.869600 0.003100
vt 0.871700 0.003500
vt 0.873200 0.003100
vt 0.871700 0.003100
vt 0.873200 0.003500
vt 0.864300 0.003100
vt 0.864300 0.003500
vt 0.866200 0.003500
vt 0.862400 0.003100
vt 0.873800 0.003100
vt 0.873800 0.003500
vt 0.874400 0.003500
vt 0.874400 0.003100
vt 0.875300 0.003500
vt 0.876200 0.003500
vt 0.875400 0.003100
vt 0.877000 0.003500
vt 0.879900 0.003100
vt 0.877900 0.003100
vt 0.879900 0.003500
vt 0.876900 0.003100
vt 0.877900 0.003500
vt 0.880900 0.003500
vt 0.881800 0.003500
vt 0.881000 0.003100
vt 0.882500 0.003500
vt 0.780200 0.007100
vt 0.772500 0.007100
vt 0.772500 0.015300
vt 0.780200 0.015300
vt 0.788900 0.015300
vt 0.788900 0.007100
vt 0.875100 0.010100
vt 0.875900 0.010600
vt 0.879000 0.010100
vt 0.879000 0.010600
vt 0.882400 0.010600
vt 0.957600 0.005400
vt 0.955600 0.005400
vt 0.955500 0.007300
vt 0.957500 0.007400
vt 0.959300 0.007500
vt 0.959400 0.005500
vt 0.806300 0.235800
vt 0.774400 0.243200
vt 0.778900 0.256000
vt 0.809700 0.244700
vt 0.770800 0.231500
vt 0.802800 0.225100
vt 0.767600 0.220100
vt 0.799900 0.215100
vt 0.765400 0.207200
vt 0.798500 0.205400
vt 0.764200 0.194000
vt 0.797900 0.193700
vt 0.763600 0.179300
vt 0.797200 0.178500
vt 0.763600 0.164500
vt 0.796900 0.163600
vt 0.763700 0.153400
vt 0.796600 0.151500
vt 0.766000 0.136900
vt 0.798200 0.142000
vt 0.768600 0.125800
vt 0.800600 0.132100
vt 0.771100 0.115300
vt 0.803300 0.122100
vt 0.773300 0.108800
vt 0.775900 0.101300
vt 0.804800 0.117300
vt 0.806600 0.112600
vt 0.816800 0.143500
vt 0.816800 0.141300
vt 0.809900 0.141300
vt 0.810000 0.143600
vt 0.810000 0.145900
vt 0.816800 0.145800
vt 0.810000 0.148000
vt 0.816800 0.147900
vt 0.810000 0.150200
vt 0.816800 0.150100
vt 0.810000 0.152700
vt 0.816800 0.152700
vt 0.810000 0.155800
vt 0.816800 0.155800
vt 0.810000 0.159000
vt 0.816800 0.158900
vt 0.810000 0.161300
vt 0.816900 0.161200
vt 0.810100 0.163800
vt 0.816900 0.163800
vt 0.810100 0.165900
vt 0.816900 0.165800
vt 0.810100 0.167900
vt 0.816900 0.167900
vt 0.810100 0.169100
vt 0.816900 0.170300
vt 0.816900 0.169000
vt 0.810100 0.170300
vt 0.809000 0.189900
vt 0.811300 0.189900
vt 0.809000 0.189500
vt 0.813300 0.190000
vt 0.813300 0.189700
vt 0.811300 0.189600
vt 0.815300 0.190000
vt 0.815000 0.189700
vt 0.816700 0.187400
vt 0.816800 0.185200
vt 0.816400 0.185200
vt 0.816300 0.187400
vt 0.816800 0.182700
vt 0.816400 0.182700
vt 0.816900 0.180200
vt 0.816500 0.180200
vt 0.817000 0.178300
vt 0.816600 0.178300
vt 0.815200 0.175100
vt 0.815000 0.175500
vt 0.813400 0.175100
vt 0.811700 0.175000
vt 0.811700 0.175400
vt 0.813400 0.175400
vt 0.810500 0.175000
vt 0.810500 0.175300
vt 0.809300 0.175300
vt 0.810400 0.175600
vt 0.810300 0.176000
vt 0.811900 0.176000
vt 0.811900 0.175700
vt 0.813600 0.176100
vt 0.813600 0.175700
vt 0.815600 0.177100
vt 0.815200 0.177300
vt 0.815200 0.178500
vt 0.815500 0.178500
vt 0.815100 0.180400
vt 0.815500 0.180400
vt 0.815100 0.182800
vt 0.815400 0.182800
vt 0.815000 0.185200
vt 0.815300 0.185200
vt 0.814900 0.187000
vt 0.814100 0.189000
vt 0.815300 0.187000
vt 0.813900 0.188700
vt 0.812600 0.188600
vt 0.812600 0.189000
vt 0.811100 0.188600
vt 0.809500 0.188900
vt 0.810300 0.188900
vt 0.809500 0.188500
vt 0.947300 0.006600
vt 0.946200 0.007700
vt 0.946900 0.008100
vt 0.948900 0.006700
vt 0.948400 0.005500
vt 0.947700 0.008000
vt 0.948400 0.007600
vt 0.945400 0.011800
vt 0.944500 0.010800
vt 0.944500 0.012200
vt 0.945400 0.012200
vt 0.946700 0.011800
vt 0.946700 0.012200
vt 0.949000 0.011800
vt 0.947900 0.011800
vt 0.949000 0.012200
vt 0.950300 0.012200
vt 0.950300 0.011800
vt 0.951200 0.012200
vt 0.951200 0.010700
vt 0.717400 0.348300
vt 0.656300 0.324000
vt 0.697000 0.374700
vt 0.721400 0.314400
vt 0.707900 0.283100
vt 0.680600 0.262800
vt 0.645600 0.258400
vt 0.615400 0.272300
vt 0.598500 0.291900
vt 0.604500 0.364700
vt 0.590700 0.333600
vt 0.593100 0.310200
vt 0.606000 0.276700
vt 0.553200 0.301100
vt 0.588000 0.297900
vt 0.883900 0.023400
vt 0.884600 0.022300
vt 0.881500 0.023000
vt 0.877100 0.022000
vt 0.877200 0.022600
vt 0.881400 0.021600
vt 0.873000 0.022200
vt 0.873000 0.022800
vt 0.881500 0.023800
vt 0.876800 0.023500
vt 0.868800 0.022600
vt 0.868900 0.022000
vt 0.864600 0.021600
vt 0.864800 0.021000
vt 0.860000 0.019100
vt 0.861400 0.022200
vt 0.862100 0.023400
vt 0.864500 0.023000
vt 0.864500 0.023800
vt 0.869200 0.023500
vt 0.961700 0.006300
vt 0.961000 0.007000
vt 0.962000 0.006800
vt 0.961300 0.006100
vt 0.960200 0.007100
vt 0.960500 0.006400
vt 0.960800 0.007900
vt 0.960300 0.007600
vt 0.655700 0.323800
vt 0.591300 0.332900
vt 0.604200 0.364700
vt 0.594500 0.299600
vt 0.614800 0.272200
vt 0.708400 0.283300
vt 0.679900 0.262500
vt 0.720900 0.314100
vt 0.631800 0.384800
vt 0.665600 0.388900
vt 0.697000 0.375600
vt 0.711100 0.357000
vt 0.719700 0.340200
vt 0.587900 0.298400
vt 0.821000 0.008600
vt 0.816500 0.008700
vt 0.816500 0.011100
vt 0.821000 0.011200
vt 0.824800 0.011200
vt 0.824800 0.008600
vt 0.827600 0.008600
vt 0.827600 0.011200
vt 0.829800 0.007300
vt 0.829900 0.012600
vt 0.831300 0.012600
vt 0.831200 0.007300
vt 0.960200 0.011800
vt 0.961400 0.011800
vt 0.961400 0.011400
vt 0.960200 0.011400
vt 0.962500 0.011300
vt 0.962500 0.011800
vt 0.963300 0.011300
vt 0.963300 0.011800
vt 0.963900 0.010900
vt 0.963900 0.011700
vt 0.963300 0.012200
vt 0.963900 0.012600
vt 0.965000 0.010900
vt 0.965000 0.011700
vt 0.965000 0.012600
vt 0.872300 0.011100
vt 0.868800 0.011200
vt 0.869400 0.011700
vt 0.867200 0.013100
vt 0.866600 0.013100
vt 0.865800 0.014500
vt 0.866100 0.017800
vt 0.872700 0.011600
vt 0.866400 0.013000
vt 0.867000 0.013100
vt 0.865600 0.014500
vt 0.865900 0.017800
vt 0.808900 0.015600
vt 0.814600 0.015600
vt 0.814600 0.006500
vt 0.808900 0.006500
vt 0.802900 0.015600
vt 0.802900 0.006500
vt 0.789700 0.015600
vt 0.789700 0.006500
vt 0.872300 0.004500
vt 0.868200 0.004400
vt 0.868100 0.004800
vt 0.953100 0.007300
vt 0.954200 0.007300
vt 0.954200 0.005200
vt 0.953100 0.005200
vt 0.952000 0.007300
vt 0.951900 0.005300
vt 0.949500 0.007400
vt 0.949400 0.005300
vt 0.963100 0.008600
vt 0.962400 0.010200
vt 0.963600 0.009700
vt 0.965000 0.008700
vt 0.882500 0.003100
vt 0.883300 0.003500
vt 0.881100 0.231000
vt 0.889200 0.238000
vt 0.892200 0.221000
vt 0.884000 0.216300
vt 0.893700 0.202200
vt 0.885700 0.201100
vt 0.895400 0.187300
vt 0.887500 0.187200
vt 0.874300 0.245500
vt 0.881900 0.254600
vt 0.862600 0.260900
vt 0.870000 0.272100
vt 0.858700 0.280700
vt 0.852600 0.268700
vt 0.872800 0.224300
vt 0.876200 0.212200
vt 0.864100 0.219300
vt 0.853500 0.214200
vt 0.867300 0.208100
vt 0.857200 0.203900
vt 0.869300 0.196900
vt 0.859400 0.193900
vt 0.871100 0.186700
vt 0.861100 0.186400
vt 0.848700 0.223100
vt 0.859700 0.228800
vt 0.843000 0.231900
vt 0.851700 0.240800
vt 0.844400 0.248500
vt 0.838200 0.238400
vt 0.846900 0.211000
vt 0.850200 0.200700
vt 0.842400 0.209000
vt 0.845600 0.198900
vt 0.847000 0.189900
vt 0.851900 0.191400
vt 0.837700 0.218100
vt 0.842000 0.220300
vt 0.853500 0.185200
vt 0.848600 0.184300
vt 0.832600 0.226000
vt 0.836700 0.228500
vt 0.833400 0.233900
vt 0.830100 0.230600
vt 0.855500 0.178900
vt 0.850700 0.178700
vt 0.857100 0.172400
vt 0.863200 0.170800
vt 0.862600 0.178500
vt 0.852800 0.172900
vt 0.872600 0.166500
vt 0.872300 0.177400
vt 0.880700 0.162400
vt 0.880600 0.175800
vt 0.888800 0.158700
vt 0.888900 0.173400
vt 0.896800 0.156300
vt 0.896700 0.172200
vt 0.904600 0.154400
vt 0.903200 0.171700
vt 0.912100 0.152300
vt 0.909400 0.171100
vt 0.919100 0.151100
vt 0.916100 0.170900
vt 0.926100 0.150800
vt 0.922700 0.170900
vt 0.932700 0.151300
vt 0.929000 0.170900
vt 0.895800 0.141900
vt 0.887800 0.146600
vt 0.893400 0.129600
vt 0.884500 0.135800
vt 0.888900 0.117400
vt 0.878700 0.124300
vt 0.877400 0.140800
vt 0.872300 0.130400
vt 0.868500 0.146200
vt 0.863800 0.137200
vt 0.858600 0.152000
vt 0.862400 0.163000
vt 0.872000 0.157300
vt 0.853800 0.144300
vt 0.857200 0.165500
vt 0.853500 0.155000
vt 0.849000 0.157500
vt 0.853200 0.166900
vt 0.841600 0.150500
vt 0.847200 0.147700
vt 0.880200 0.152000
vt 0.838400 0.147600
vt 0.843500 0.144900
vt 0.839000 0.142200
vt 0.834600 0.145000
vt 0.845300 0.137000
vt 0.850200 0.140500
vt 0.854500 0.127100
vt 0.859900 0.132100
vt 0.861900 0.117500
vt 0.868800 0.108800
vt 0.867800 0.123700
vt 0.874800 0.116600
vt 0.883800 0.107100
vt 0.877900 0.098700
vt 0.861600 0.102100
vt 0.870200 0.090300
vt 0.860800 0.082700
vt 0.853000 0.096500
vt 0.855200 0.112300
vt 0.847000 0.108400
vt 0.848500 0.123000
vt 0.840000 0.134400
vt 0.841100 0.119900
vt 0.834000 0.132000
vt 0.834500 0.140000
vt 0.829500 0.137800
vt 0.826200 0.141500
vt 0.830600 0.143200
vt 0.866800 0.071600
vt 0.877100 0.080100
vt 0.876500 0.055200
vt 0.887000 0.065700
vt 0.886000 0.041100
vt 0.896400 0.053500
vt 0.897800 0.026800
vt 0.908200 0.040300
vt 0.908900 0.017000
vt 0.920100 0.030700
vt 0.895500 0.075800
vt 0.885600 0.088300
vt 0.893100 0.097700
vt 0.904000 0.087900
vt 0.905700 0.065400
vt 0.913200 0.079600
vt 0.916700 0.053600
vt 0.923200 0.071100
vt 0.927800 0.046100
vt 0.933800 0.065600
vt 0.909500 0.100900
vt 0.898800 0.109400
vt 0.903200 0.123100
vt 0.913100 0.116700
vt 0.905000 0.137400
vt 0.913900 0.133000
vt 0.921100 0.112400
vt 0.921200 0.130800
vt 0.929600 0.109200
vt 0.928900 0.129800
vt 0.927900 0.089200
vt 0.918200 0.094600
vt 0.937500 0.107400
vt 0.936300 0.130000
vt 0.936300 0.085100
vt 0.939500 0.083700
vt 0.938000 0.064300
vt 0.935600 0.151900
vt 0.932100 0.170900
vt 0.931400 0.209900
vt 0.929900 0.190900
vt 0.928200 0.209600
vt 0.927000 0.190600
vt 0.920600 0.190400
vt 0.921100 0.209000
vt 0.913800 0.207500
vt 0.913900 0.189900
vt 0.915800 0.235300
vt 0.924900 0.238300
vt 0.916500 0.258000
vt 0.928900 0.262000
vt 0.940000 0.262900
vt 0.930000 0.270700
vt 0.921900 0.292500
vt 0.909700 0.282200
vt 0.897800 0.303200
vt 0.908300 0.314100
vt 0.883200 0.316000
vt 0.894200 0.329600
vt 0.904500 0.339900
vt 0.919200 0.322100
vt 0.932500 0.299900
vt 0.939500 0.279600
vt 0.934200 0.238800
vt 0.887800 0.292100
vt 0.874000 0.303600
vt 0.876800 0.280100
vt 0.864400 0.289800
vt 0.900400 0.272600
vt 0.890100 0.262500
vt 0.907400 0.252600
vt 0.897600 0.245400
vt 0.907500 0.231000
vt 0.899900 0.226100
vt 0.906500 0.205900
vt 0.900000 0.203800
vt 0.907200 0.189100
vt 0.901300 0.188100
vt 0.939100 0.131600
vt 0.941000 0.107700
vt 0.913300 0.014100
vt 0.924500 0.029100
vt 0.932600 0.045200
vt 0.453900 0.232500
vt 0.473200 0.233100
vt 0.473400 0.225900
vt 0.454200 0.225400
vt 0.449400 0.224600
vt 0.449000 0.232800
vt 0.453100 0.239800
vt 0.444900 0.240100
vt 0.443300 0.249500
vt 0.451100 0.248900
vt 0.463700 0.241500
vt 0.457000 0.249800
vt 0.469600 0.248200
vt 0.462100 0.254100
vt 0.474000 0.261300
vt 0.465900 0.263600
vt 0.475300 0.270000
vt 0.466400 0.269100
vt 0.474600 0.277900
vt 0.464700 0.276900
vt 0.478600 0.244200
vt 0.480900 0.256800
vt 0.481800 0.270000
vt 0.460400 0.264600
vt 0.457500 0.258300
vt 0.456500 0.263900
vt 0.454600 0.260800
vt 0.456400 0.267100
vt 0.451700 0.263200
vt 0.450100 0.264600
vt 0.446900 0.260400
vt 0.452500 0.258000
vt 0.449800 0.258300
vt 0.453300 0.255300
vt 0.460900 0.268400
vt 0.458600 0.274100
vt 0.453700 0.269900
vt 0.449900 0.254600
vt 0.444400 0.256000
vt 0.525100 0.242500
vt 0.533100 0.243100
vt 0.531800 0.230300
vt 0.524500 0.230300
vt 0.535400 0.218200
vt 0.526900 0.219600
vt 0.539600 0.219800
vt 0.515700 0.241600
vt 0.517300 0.255100
vt 0.529300 0.255100
vt 0.518400 0.262600
vt 0.530600 0.262700
vt 0.518700 0.269800
vt 0.529800 0.271300
vt 0.515700 0.229800
vt 0.516800 0.219100
vt 0.532600 0.208200
vt 0.519800 0.206900
vt 0.534300 0.200800
vt 0.521500 0.199700
vt 0.534500 0.193700
vt 0.523000 0.190100
vt 0.506300 0.241900
vt 0.506500 0.229700
vt 0.490700 0.229700
vt 0.492200 0.242800
vt 0.506400 0.254000
vt 0.493200 0.254400
vt 0.508200 0.264400
vt 0.495700 0.267400
vt 0.493200 0.215800
vt 0.507300 0.217600
vt 0.495300 0.205900
vt 0.508700 0.206000
vt 0.498500 0.193200
vt 0.510800 0.197300
vt 0.508900 0.272800
vt 0.495900 0.275200
vt 0.500600 0.185800
vt 0.512800 0.188000
vt 0.479900 0.213800
vt 0.464400 0.216800
vt 0.470600 0.209600
vt 0.463500 0.204100
vt 0.468400 0.194200
vt 0.476200 0.197400
vt 0.469600 0.188600
vt 0.478200 0.188500
vt 0.458100 0.208100
vt 0.453800 0.218000
vt 0.452200 0.208800
vt 0.468400 0.180600
vt 0.478200 0.180400
vt 0.445500 0.217200
vt 0.444400 0.207800
vt 0.482600 0.202500
vt 0.487200 0.184400
vt 0.486500 0.189400
vt 0.451400 0.203600
vt 0.455700 0.202900
vt 0.451500 0.198600
vt 0.454700 0.188200
vt 0.451900 0.193100
vt 0.453000 0.194700
vt 0.458600 0.189900
vt 0.459200 0.193400
vt 0.456100 0.197200
vt 0.454300 0.199000
vt 0.463200 0.192900
vt 0.458800 0.199700
vt 0.462200 0.182900
vt 0.464100 0.189000
vt 0.445900 0.202300
vt 0.448700 0.196100
vt 0.575500 0.265500
vt 0.577000 0.259700
vt 0.563700 0.257000
vt 0.561300 0.263000
vt 0.551800 0.260700
vt 0.553000 0.255000
vt 0.591100 0.261900
vt 0.589900 0.267600
vt 0.589000 0.273600
vt 0.574900 0.271500
vt 0.574700 0.277100
vt 0.587300 0.278700
vt 0.561200 0.277400
vt 0.561200 0.268800
vt 0.550500 0.274800
vt 0.551200 0.266900
vt 0.543800 0.257800
vt 0.546200 0.252500
vt 0.542200 0.249100
vt 0.537200 0.256000
vt 0.544300 0.265100
vt 0.537900 0.263800
vt 0.543800 0.272700
vt 0.537600 0.271500
vt 0.537300 0.242000
vt 0.548400 0.205600
vt 0.547800 0.212200
vt 0.554600 0.210200
vt 0.553800 0.204400
vt 0.562500 0.209300
vt 0.562100 0.202900
vt 0.574300 0.201500
vt 0.575500 0.207300
vt 0.589000 0.199500
vt 0.589200 0.205300
vt 0.574400 0.195500
vt 0.588800 0.193500
vt 0.587800 0.188200
vt 0.574800 0.189800
vt 0.562500 0.197200
vt 0.563200 0.188700
vt 0.553800 0.198400
vt 0.553700 0.190100
vt 0.548700 0.199100
vt 0.548700 0.191200
vt 0.542300 0.192400
vt 0.542300 0.199900
vt 0.541900 0.206900
vt 0.545200 0.213500
vt 0.541500 0.216900
vt 0.538800 0.212100
vt 0.408500 0.079000
vt 0.408400 0.095300
vt 0.414800 0.095900
vt 0.414600 0.076200
vt 0.402700 0.085100
vt 0.400300 0.094700
vt 0.414800 0.114300
vt 0.407700 0.111200
vt 0.401000 0.104100
vt 0.419400 0.095500
vt 0.418300 0.077000
vt 0.424400 0.095200
vt 0.424800 0.111800
vt 0.420000 0.113400
vt 0.423300 0.078200
vt 0.429700 0.079700
vt 0.430100 0.094900
vt 0.439900 0.094700
vt 0.440700 0.110200
vt 0.430800 0.108800
vt 0.440200 0.081600
vt 0.448800 0.094700
vt 0.449000 0.078900
vt 0.458800 0.094600
vt 0.459600 0.115000
vt 0.449200 0.112300
vt 0.458100 0.073800
vt 0.470800 0.116700
vt 0.469700 0.097700
vt 0.476100 0.115600
vt 0.476100 0.099800
vt 0.482700 0.112200
vt 0.483200 0.101300
vt 0.488200 0.101500
vt 0.487500 0.110500
vt 0.491300 0.108100
vt 0.491600 0.102800
vt 0.493900 0.105100
vt 0.469600 0.090700
vt 0.468600 0.070800
vt 0.476000 0.088200
vt 0.475500 0.071600
vt 0.483100 0.086400
vt 0.482100 0.074700
vt 0.486700 0.076500
vt 0.487600 0.086100
vt 0.492100 0.079700
vt 0.492400 0.084800
vt 0.481600 0.274800
vt 0.867400 0.235800
vt 0.857100 0.250600
vt 0.848300 0.258500
vt 0.878500 0.199200
vt 0.879900 0.187200
vt 0.937600 0.237200
vt 0.944100 0.261100
vt 0.944000 0.281400
vt 0.936500 0.301700
vt 0.923900 0.324100
vt 0.908800 0.343000
s 0
usemtl hr_pain_panic_mat
f 1/1/1 2/2/2 3/3/3
f 4/4/4 1/1/5 3/3/6
s 1
f 5/5/7 2/2/8 1/1/9
f 6/6/10 5/5/7 1/1/9
f 7/7/11 5/5/7 6/6/10
f 8/8/12 7/7/11 6/6/10
f 7/7/11 8/8/12 9/9/13
f 10/10/14 7/7/11 9/9/13
f 10/10/14 9/9/13 11/11/15
f 12/12/14 10/10/14 11/11/15
f 12/12/14 11/11/15 13/13/16
f 11/11/15 14/14/17 13/13/16
f 15/15/18 13/13/16 14/14/17
f 16/16/19 15/15/18 14/14/17
f 17/17/20 15/15/18 16/16/19
f 18/18/21 17/17/20 16/16/19
f 19/19/22 17/17/20 18/18/21
f 20/20/23 19/19/22 18/18/21
f 21/21/24 22/22/25 23/23/26
f 24/24/27 21/21/24 23/23/26
f 25/25/28 23/23/26 22/22/25
f 23/23/26 25/25/28 24/24/27
f 26/26/29 25/25/28 22/22/25
f 27/27/30 25/25/28 26/26/29
f 25/25/28 27/27/30 24/24/27
f 28/28/31 27/27/30 26/26/29
f 21/21/24 24/24/27 29/29/32
f 24/24/27 30/30/33 29/29/32
f 29/29/32 30/30/33 31/31/34
f 30/30/33 32/32/35 31/31/34
f 33/33/36 27/27/30 28/28/31
f 24/24/27 27/27/30 33/33/36
f 30/30/33 24/24/27 33/33/36
f 34/34/37 33/33/36 28/28/31
f 35/35/38 33/33/36 34/34/37
f 30/30/33 33/33/36 35/35/38
f 32/32/35 30/30/33 35/35/38
f 36/36/39 35/35/38 34/34/37
f 37/37/40 31/31/34 32/32/35
f 38/38/41 37/37/40 32/32/35
f 38/38/41 32/32/35 35/35/38
f 38/38/41 39/39/42 37/37/40
f 39/39/42 40/40/43 37/37/40
f 39/39/42 41/41/44 40/40/43
f 41/41/44 42/42/45 40/40/43
f 43/43/46 42/42/45 41/41/44
f 44/44/47 43/43/46 41/41/44
f 45/45/48 43/43/46 44/44/47
f 46/46/49 45/45/48 44/44/47
f 45/45/48 46/46/49 47/47/50
f 46/46/49 48/48/51 47/47/50
f 49/49/52 47/47/50 48/48/51
f 50/50/53 49/49/52 48/48/51
f 51/51/54 49/49/52 50/50/53
f 52/52/55 51/51/54 50/50/53
f 46/46/49 44/44/47 52/52/55
f 48/48/51 46/46/49 52/52/55
f 50/50/53 48/48/51 52/52/55
f 53/53/56 51/51/54 52/52/55
f 54/54/57 53/53/56 52/52/55
f 44/44/47 41/41/44 54/54/57
f 44/44/47 54/54/57 52/52/55
f 55/55/58 53/53/56 54/54/57
f 56/56/59 55/55/58 54/54/57
f 41/41/44 56/56/59 54/54/57
f 55/55/58 56/56/59 57/57/60
f 58/58/61 55/55/58 57/57/60
f 57/57/60 56/56/59 39/39/42
f 56/56/59 41/41/44 39/39/42
f 57/57/60 39/39/42 38/38/41
f 59/59/62 57/57/60 38/38/41
f 58/58/61 57/57/60 59/59/62
f 60/60/63 58/58/61 59/59/62
f 59/59/62 38/38/41 35/35/38
f 59/59/62 35/35/38 36/36/39
f 60/60/63 59/59/62 36/36/39
f 26/61/29 22/62/25 19/63/22
f 20/64/23 26/61/29 19/63/22
f 20/64/23 18/65/21 26/61/29
f 18/65/21 28/66/31 26/61/29
f 18/65/21 16/67/19 28/66/31
f 16/67/19 34/68/37 28/66/31
f 16/67/19 14/69/17 34/68/37
f 14/69/17 36/70/39 34/68/37
f 36/70/39 14/69/17 11/71/15
f 60/72/63 36/70/39 11/71/15
f 60/72/63 11/71/15 9/73/13
f 58/74/61 60/72/63 9/73/13
f 58/74/61 9/73/13 8/75/12
f 55/76/58 58/74/61 8/75/12
f 55/76/58 8/75/12 6/77/10
f 53/78/56 55/76/58 6/77/10
f 53/78/56 6/77/10 1/79/9
f 51/80/54 53/78/56 1/79/9
f 51/80/54 1/79/9 4/81/4
f 49/82/52 51/80/54 4/81/4
f 4/83/4 3/84/64 47/85/50
f 49/86/52 4/83/4 47/85/50
f 15/87/18 29/88/32 31/89/34
f 13/90/16 15/87/18 31/89/34
f 15/87/18 17/91/20 29/88/32
f 17/91/20 21/92/24 29/88/32
f 17/91/20 19/93/22 21/92/24
f 19/93/22 22/94/25 21/92/24
f 31/89/34 37/95/40 13/90/16
f 37/95/40 12/96/14 13/90/16
f 37/95/40 40/97/43 12/96/14
f 40/97/43 10/98/14 12/96/14
f 40/97/43 42/99/45 10/98/14
f 42/99/45 7/100/11 10/98/14
f 42/99/45 43/101/46 7/100/11
f 43/101/46 5/102/7 7/100/11
f 43/101/46 45/103/48 5/102/7
f 45/103/48 2/104/8 5/102/7
f 45/103/48 47/105/50 2/104/8
f 47/105/50 3/106/64 2/104/8
f 61/107/65 62/108/66 63/109/67
f 64/110/68 61/107/65 63/109/67
f 61/107/65 65/111/69 62/108/66
f 65/111/69 66/112/70 62/108/66
f 65/111/69 67/113/71 66/112/70
f 67/113/71 68/114/72 66/112/70
f 68/114/72 67/113/71 69/115/73
f 70/116/74 68/114/72 69/115/73
f 64/110/68 63/109/67 71/117/75
f 72/118/76 64/110/68 71/117/75
f 72/118/76 71/117/75 73/119/77
f 74/120/78 72/118/76 73/119/77
f 69/115/73 75/121/79 70/116/74
f 75/121/79 76/122/80 70/116/74
f 77/123/81 76/122/80 75/121/79
f 78/124/82 77/123/81 75/121/79
f 77/123/83 78/124/82 79/125/84
f 80/126/85 77/123/86 79/125/87
f 80/126/88 79/125/89 81/127/90
f 82/128/91 80/126/88 81/127/90
f 83/129/92 84/130/93 85/131/94
f 86/132/95 83/129/92 85/131/94
f 86/132/95 85/131/94 82/133/91
f 81/127/90 86/132/95 82/133/91
f 83/129/92 87/134/96 84/130/93
f 87/134/96 88/135/97 84/130/93
f 87/134/96 89/136/98 88/135/97
f 89/136/98 90/137/99 88/135/97
f 89/136/98 74/138/78 90/139/99
f 74/138/78 73/140/77 90/139/100
f 91/141/101 64/142/102 92/143/103
f 93/144/104 91/141/101 62/145/105
f 94/146/106 93/144/104 62/145/105
f 95/147/107 97/148/108 96/149/109
f 92/143/103 64/142/102 98/150/110
f 64/142/111 99/151/112 98/150/110
f 98/150/110 99/151/112 100/152/113
f 99/151/112 74/153/114 100/152/113
f 101/154/115 96/149/109 97/148/108
f 76/155/116 101/154/117 97/148/118
f 102/156/119 101/154/120 76/155/121
f 77/157/122 102/156/119 76/155/121
f 80/158/123 103/159/124 79/160/125
f 103/159/124 104/161/126 79/160/125
f 105/162/127 86/163/128 106/164/129
f 107/165/130 105/162/131 106/164/132
f 106/164/133 86/163/128 103/166/124
f 86/163/128 104/167/126 103/166/124
f 63/168/67 62/169/66 92/170/134
f 66/171/70 94/172/135 62/173/136
f 66/171/70 68/174/72 94/172/135
f 68/174/72 95/175/137 94/172/135
f 68/174/72 70/176/74 95/175/137
f 70/176/74 97/177/138 95/175/137
f 63/168/67 92/170/134 98/178/139
f 71/179/75 63/168/67 98/178/139
f 71/179/75 98/178/139 100/180/140
s 0
f 73/181/141 71/179/142 100/180/143
s 1
f 70/176/74 76/182/80 97/177/138
f 82/183/144 103/184/145 80/185/146
f 82/183/144 85/186/94 103/184/145
f 85/186/94 106/187/147 103/184/145
f 85/186/94 84/188/93 106/187/147
f 84/188/93 107/189/148 106/187/147
f 84/188/93 88/190/149 107/189/148
f 88/190/149 108/191/150 107/189/148
f 88/190/151 90/192/152 108/191/153
s 0
f 73/193/154 100/194/154 90/195/154
s 1
f 61/196/65 64/197/68 91/198/155
f 61/196/65 91/198/155 93/199/156
f 65/200/69 61/196/65 93/199/156
f 65/200/69 93/199/156 67/201/157
f 69/202/73 67/203/71 96/204/158
f 72/205/159 99/206/160 64/207/161
f 72/205/159 74/208/78 99/206/160
f 69/202/73 96/204/158 75/209/79
f 96/204/158 101/210/162 75/209/79
f 75/209/79 101/210/162 102/211/163
f 78/212/82 75/209/79 102/211/163
f 78/212/82 102/211/163 79/213/164
f 81/214/165 79/215/166 104/216/167
f 83/217/168 86/218/169 105/219/170
f 81/220/165 104/216/167 86/221/171
f 83/217/168 105/219/170 87/222/172
f 89/223/173 87/224/174 109/225/175
f 110/226/176 111/227/177 112/228/178
f 113/229/179 110/226/176 112/228/178
f 113/229/179 114/230/180 110/226/176
f 114/230/180 115/231/181 110/226/176
f 116/232/182 111/233/177 110/234/183
f 117/232/184 118/234/185 113/235/179
f 112/233/178 117/232/184 113/235/179
f 113/235/179 118/234/185 114/236/180
f 118/237/185 117/238/184 116/239/182
f 110/240/183 118/237/185 116/239/182
f 110/240/183 115/241/186 118/237/185
f 115/241/186 114/242/187 118/237/185
f 119/243/188 120/244/189 121/245/190
f 122/246/191 119/243/188 121/245/190
f 123/247/192 120/244/189 119/243/188
f 124/248/193 123/247/192 119/243/188
f 125/249/194 123/247/192 124/248/193
f 126/250/195 125/249/194 124/248/193
f 127/251/196 125/249/194 126/250/195
f 128/252/197 127/251/196 126/250/195
f 129/253/198 127/251/196 128/252/197
f 130/254/199 129/253/198 128/252/197
f 131/255/200 129/253/198 130/254/199
f 132/256/201 131/255/200 130/254/199
f 133/257/202 131/255/200 132/256/201
f 134/258/203 133/257/202 132/256/201
f 135/259/204 133/257/202 134/258/203
f 136/260/205 135/259/204 134/258/203
f 137/261/206 135/259/204 136/260/205
f 138/262/207 137/261/206 136/260/205
f 139/263/208 137/261/206 138/262/207
f 140/264/209 139/263/208 138/262/207
f 141/265/210 139/263/208 140/264/209
f 142/266/211 141/265/210 140/264/209
f 143/267/212 141/265/210 142/266/211
f 144/268/213 143/267/214 142/269/215
f 145/270/216 144/268/217 142/269/218
f 146/271/219 147/272/220 148/273/221
f 120/274/222 146/271/219 148/273/221
f 120/274/222 149/275/223 146/271/219
f 149/275/223 150/276/224 146/271/219
f 149/275/223 151/277/225 150/276/224
f 151/277/225 124/278/226 150/276/224
f 151/277/225 127/279/227 124/278/226
f 127/279/227 152/280/228 124/278/226
f 127/279/227 153/281/229 152/280/228
f 153/281/229 117/282/230 152/280/228
f 153/281/229 154/283/231 117/282/230
f 154/283/231 155/284/232 117/282/230
f 154/283/231 156/285/233 155/284/232
f 156/285/233 157/286/234 155/284/232
f 156/285/233 158/287/235 157/286/234
f 158/287/235 136/288/236 157/286/234
f 158/287/235 159/289/237 136/288/236
f 159/289/237 160/290/238 136/288/236
f 159/289/237 139/291/239 160/290/238
f 139/291/239 161/292/240 160/290/238
f 139/291/239 162/293/241 161/292/240
f 162/293/241 142/294/242 161/292/240
f 162/293/241 163/295/243 142/294/242
f 164/296/244 142/297/245 163/295/243
f 144/298/246 164/296/244 163/295/243
f 121/299/190 120/300/189 148/301/221
f 123/302/192 149/303/223 120/304/222
f 123/302/192 125/305/194 149/303/223
s 0
f 125/305/247 151/306/248 149/303/249
s 1
f 125/305/194 127/307/196 151/306/250
f 129/308/198 153/309/229 127/310/227
f 129/308/198 131/311/200 153/309/229
f 131/311/200 154/312/231 153/309/229
f 131/311/200 133/313/202 154/312/231
f 133/313/202 156/314/233 154/312/231
f 133/313/202 135/315/204 156/314/233
f 135/315/204 158/316/235 156/314/233
f 135/315/204 137/317/206 158/316/235
f 137/317/206 159/318/237 158/316/235
f 137/317/206 139/319/208 159/318/237
f 141/320/210 162/321/241 139/322/239
f 141/320/210 143/323/212 162/321/241
f 143/323/212 163/324/243 162/321/241
f 144/325/246 163/324/243 143/323/212
f 122/326/191 147/327/220 146/328/219
f 119/329/188 122/326/191 146/328/219
f 119/329/188 146/328/219 150/330/224
f 124/331/193 119/329/188 150/330/224
f 126/332/195 124/333/226 152/334/228
f 128/335/197 126/332/195 152/334/228
f 128/335/197 152/334/228 117/336/230
f 130/337/199 128/335/197 117/336/230
f 130/337/199 117/336/230 155/338/232
f 132/339/201 130/337/199 155/338/232
f 132/339/201 155/338/232 157/340/234
f 134/341/203 132/339/201 157/340/234
f 134/341/203 157/340/234 136/342/236
f 138/343/207 136/344/205 160/345/251
s 0
f 138/343/252 160/345/253 161/346/254
s 1
f 140/347/209 138/343/207 161/346/240
f 140/347/209 161/346/240 142/348/242
f 145/349/216 142/350/218 164/351/244
f 165/352/255 166/353/256 167/354/257
f 165/352/258 174/355/259 173/356/260
f 165/352/258 176/357/261 175/358/262
f 165/352/258 167/354/263 176/357/261
f 177/359/264 173/360/260 174/361/259
f 178/362/265 177/359/266 174/361/267
f 179/363/268 177/359/269 178/362/270
f 180/364/271 179/363/268 178/362/270
f 183/365/272 181/366/273 182/367/274
f 183/365/275 182/367/274 184/368/276
f 185/369/277 183/365/278 184/368/279
f 185/369/280 184/368/281 186/370/282
f 187/371/283 185/369/280 186/370/282
f 168/372/284 165/373/285 166/374/286
f 169/375/287 165/373/288 168/372/284
f 170/376/289 165/373/285 169/375/287
f 171/377/290 165/373/285 170/376/289
f 172/378/291 165/373/285 171/377/290
f 173/379/292 165/373/293 172/378/294
f 188/380/295 165/373/285 173/379/296
f 175/381/297 165/373/285 174/382/298
f 174/382/298 165/373/285 188/383/299
f 173/384/296 177/385/300 188/386/295
f 174/387/259 188/388/301 177/389/302
f 179/390/303 180/391/304 177/392/305
f 179/390/303 181/393/306 180/391/304
f 181/393/307 189/394/308 180/391/309
f 178/395/310 177/389/311 180/396/312
f 189/394/308 181/393/273 182/397/313
f 182/397/314 183/398/315 190/399/316
s 0
f 183/398/315 185/400/317 190/399/316
s 1
f 190/399/316 185/400/318 187/401/319
f 200/402/320 186/403/282 190/404/321
f 186/403/282 184/405/281 190/404/321
f 190/404/321 184/405/281 182/406/322
f 193/407/323 201/408/324 194/409/325
f 192/410/326 201/408/324 193/407/327
f 186/411/282 201/408/324 187/412/283
f 198/413/328 201/408/324 199/414/329
f 201/415/330 196/416/331 197/417/332
f 201/415/333 195/418/334 196/416/331
f 201/415/333 194/419/335 195/418/334
f 201/415/333 191/420/336 192/421/337
f 201/415/338 187/422/339 191/420/340
f 201/415/333 197/417/332 198/423/341
f 201/415/342 199/424/343 186/425/344
f 201/415/333 186/425/345 200/426/320
f 201/415/333 200/427/346 187/422/319
f 187/384/319 200/428/346 190/385/316
f 202/429/347 203/430/348 204/431/349
f 205/432/350 202/429/347 204/431/349
f 206/433/351 207/434/352 202/429/353
f 208/435/354 207/434/355 206/433/356
f 209/436/357 208/435/354 206/433/356
f 210/437/358 208/435/354 209/436/357
f 211/438/359 210/437/358 209/436/357
f 211/438/359 212/439/360 210/437/358
f 212/439/361 213/440/362 210/437/358
f 203/441/363 202/442/364 205/443/365
f 204/444/366 203/441/363 205/443/365
f 205/443/367 202/442/364 206/445/368
f 206/445/368 207/446/369 214/447/370
f 207/446/369 215/448/371 214/447/370
f 214/447/372 215/448/373 153/449/374
f 215/448/375 154/450/376 153/449/377
f 215/451/378 210/452/379 154/450/376
f 153/449/374 154/450/376 216/453/380
f 154/450/376 217/454/381 216/453/380
f 154/450/376 210/452/379 217/454/381
f 210/452/379 218/455/382 217/454/381
s 0
f 207/456/352 208/457/383 215/458/384
s 1
f 215/458/378 208/457/385 210/459/379
s 0
f 210/460/358 213/461/362 218/462/382
f 206/463/368 214/458/386 209/457/387
s 1
f 209/457/357 214/458/372 211/464/359
f 214/458/372 153/465/374 211/464/359
f 211/464/359 153/465/374 212/466/360
f 153/465/374 216/467/380 212/466/360
f 219/468/388 115/469/389 114/470/390
f 220/471/391 219/468/388 114/470/390
f 221/472/392 219/468/388 220/471/391
f 222/473/393 221/472/392 220/471/391
f 86/474/394 221/472/395 222/473/396
f 223/475/397 86/474/398 222/473/393
f 222/476/399 83/477/400 223/478/401
f 220/479/402 114/480/403 115/481/404
f 219/482/405 220/479/402 115/481/404
f 222/483/406 220/479/407 219/482/408
f 221/484/409 222/483/406 219/482/408
f 83/485/400 222/483/399 221/484/410
f 86/486/411 83/485/400 221/484/410
f 87/487/412 108/488/413 90/489/414
f 109/490/415 87/487/412 90/489/414
f 108/488/416 87/487/417 107/165/418
f 87/487/417 105/162/419 107/165/418
s 0
f 89/491/154 109/225/154 74/492/154
s 1
f 224/493/420 225/494/421 226/495/422
f 227/496/423 224/493/420 226/495/422
f 227/496/423 226/495/422 228/497/424
f 229/498/425 227/496/423 228/497/424
f 229/498/425 228/497/424 230/499/426
f 231/500/427 229/498/425 230/499/426
f 224/493/420 232/501/428 225/494/421
f 232/501/428 233/502/429 225/494/421
f 232/501/428 234/503/430 233/502/429
f 234/503/430 235/504/431 233/502/429
f 236/505/432 235/504/431 234/503/430
f 237/506/433 236/505/432 234/503/430
f 62/507/434 224/493/420 227/496/423
f 92/508/435 62/507/434 227/496/423
f 92/508/435 227/496/423 229/498/425
f 91/509/436 62/507/437 92/508/435
f 238/510/438 91/509/439 64/511/440
f 239/512/441 238/510/438 64/511/440
f 239/512/441 64/511/440 72/513/442
f 240/514/443 239/512/441 72/513/442
f 240/514/443 72/513/442 74/515/444
f 241/516/445 240/514/443 74/515/444
f 238/510/438 242/517/446 91/509/439
f 242/517/446 93/518/447 91/509/439
f 242/517/446 243/519/448 93/518/447
f 243/519/448 67/520/449 93/518/447
f 96/521/450 67/520/449 243/519/448
f 244/522/451 96/521/450 243/519/448
f 245/523/452 238/510/438 239/512/441
f 246/524/453 245/523/452 239/512/441
f 246/524/453 239/512/441 240/514/443
f 245/523/452 246/524/453 247/525/454
f 246/524/453 248/526/455 247/525/454
f 249/527/456 248/526/455 246/524/453
f 250/528/457 249/527/456 246/524/453
f 250/528/457 240/514/443 241/516/445
f 250/528/457 246/524/453 240/514/443
f 245/523/452 247/525/454 251/529/458
f 252/530/459 245/523/452 251/529/458
f 250/528/457 253/531/460 249/527/456
f 253/531/460 250/528/457 241/516/445
f 253/531/460 254/532/461 249/527/456
f 252/530/459 251/529/458 255/533/462
f 256/534/463 252/530/459 255/533/462
f 244/522/451 243/519/448 256/534/463
f 256/534/463 255/533/462 257/535/464
f 257/535/464 244/522/451 256/534/463
f 255/533/462 258/536/465 257/535/464
f 245/523/452 252/530/459 238/510/438
f 252/530/459 242/517/446 238/510/438
f 252/530/459 256/534/463 242/517/446
f 256/534/463 243/519/448 242/517/446
f 253/531/460 259/537/466 254/532/461
f 259/537/466 260/538/467 254/532/461
f 260/538/467 259/537/466 261/539/468
f 262/540/469 261/539/468 259/537/466
f 263/541/470 262/540/469 259/537/466
f 259/537/466 253/531/460 263/541/470
f 264/542/471 260/538/467 261/539/468
f 87/543/472 262/540/469 263/541/470
f 109/544/473 87/543/472 263/541/470
f 87/543/474 109/544/473 108/545/475
f 109/544/473 90/546/476 108/545/475
f 108/545/477 90/546/478 265/547/479
f 90/546/478 266/548/480 265/547/479
f 267/549/481 265/547/479 266/548/480
f 268/550/482 267/549/481 266/548/480
f 267/549/481 268/550/482 269/551/483
f 268/550/482 270/552/484 269/551/483
f 269/551/483 270/552/484 271/553/485
f 270/552/484 272/554/486 271/553/485
f 273/555/487 271/553/485 272/554/486
f 274/556/488 273/555/487 272/554/486
f 275/557/489 273/555/487 274/556/488
f 276/558/490 275/557/489 274/556/488
f 275/557/489 276/558/490 277/559/491
f 276/558/490 278/560/492 277/559/491
f 266/548/480 231/500/427 268/550/482
f 231/500/427 230/499/426 268/550/482
f 268/550/482 230/499/426 270/552/484
f 265/547/479 267/549/481 279/561/493
f 280/562/494 265/547/479 279/561/493
f 280/562/494 279/561/493 281/563/495
f 282/564/496 280/562/494 281/563/495
f 282/564/496 281/563/495 283/565/497
f 284/566/498 282/564/496 283/565/497
f 106/567/499 282/564/496 284/566/498
f 285/568/500 106/567/499 284/566/498
f 86/569/501 106/567/499 285/568/500
f 104/570/502 86/569/501 285/568/500
f 286/571/503 86/569/504 104/570/505
f 286/571/503 287/572/506 86/569/504
f 287/572/506 105/573/507 86/569/504
f 288/574/508 286/571/503 104/570/505
f 289/575/509 287/572/506 286/571/503
f 290/576/510 289/575/509 286/571/503
f 290/576/510 286/571/503 288/574/508
f 290/576/510 181/577/511 289/575/509
f 181/577/511 182/578/512 289/575/509
f 291/579/513 181/577/511 290/576/510
f 292/580/514 291/579/513 290/576/510
f 292/580/514 290/576/510 288/574/508
f 105/573/515 293/581/516 106/567/499
f 106/567/499 293/581/516 282/564/496
f 293/581/516 280/562/494 282/564/496
f 287/572/506 262/540/469 105/573/507
f 262/540/469 87/543/472 105/573/507
f 105/573/515 87/543/517 293/581/516
f 289/575/509 182/578/512 264/542/471
f 261/539/468 289/575/509 264/542/471
f 261/539/468 262/540/469 287/572/506
f 289/575/509 261/539/468 287/572/506
f 87/543/517 108/545/477 293/581/516
f 293/581/516 108/545/477 280/562/494
f 108/545/477 265/547/479 280/562/494
f 294/582/518 291/579/513 292/580/514
f 295/583/519 294/582/518 292/580/514
f 295/583/519 296/584/520 294/582/518
f 296/584/520 297/585/521 294/582/518
f 298/586/522 296/584/520 295/583/519
f 299/587/523 298/586/522 295/583/519
f 102/588/524 298/586/522 299/587/523
f 79/589/525 102/588/524 299/587/523
f 77/590/526 102/588/527 79/589/528
f 300/591/529 77/590/86 80/592/85
f 301/593/530 300/591/529 80/592/85
f 301/593/530 302/594/531 300/591/529
f 302/594/531 303/595/532 300/591/529
f 300/591/529 303/595/532 304/596/533
f 303/595/532 305/597/534 304/596/533
f 304/596/533 305/597/534 236/598/432
f 237/599/433 304/596/533 236/598/432
f 306/600/535 304/596/533 237/599/433
f 306/600/535 77/590/86 300/591/529
f 304/596/533 306/600/535 300/591/529
f 97/601/536 306/600/535 237/599/433
f 101/602/537 306/600/535 97/601/536
f 101/602/537 102/588/538 77/590/86
f 306/600/535 101/602/537 77/590/86
f 307/603/539 101/602/540 96/604/450
f 244/605/451 307/603/539 96/604/450
f 308/606/541 307/603/539 244/605/451
f 257/607/464 308/606/541 244/605/451
f 257/607/464 258/608/465 308/606/541
f 258/608/465 309/609/542 308/606/541
f 236/598/432 305/597/534 310/610/543
f 305/597/534 311/611/544 310/610/543
f 310/610/543 311/611/544 312/612/545
f 311/611/544 313/613/546 312/612/545
f 312/612/545 313/613/546 314/614/547
f 313/613/546 315/615/548 314/614/547
f 314/614/547 315/615/548 316/616/549
f 315/615/548 317/617/550 316/616/549
f 316/616/549 317/617/550 318/618/551
f 317/617/550 319/619/552 318/618/551
f 320/620/553 313/613/546 311/611/544
f 321/621/554 320/620/553 311/611/544
f 320/620/553 321/621/554 322/622/555
f 322/622/555 321/621/554 302/594/531
f 321/621/554 303/595/532 302/594/531
f 323/623/556 320/620/553 322/622/555
f 324/624/557 320/620/553 323/623/556
f 324/624/557 315/615/548 313/613/546
f 320/620/553 324/624/557 313/613/546
f 325/625/558 324/624/557 323/623/556
f 326/626/559 324/624/557 325/625/558
f 315/615/548 324/624/557 326/626/559
f 317/617/550 315/615/548 326/626/559
f 317/617/550 326/626/559 319/619/552
f 327/627/560 326/626/559 325/625/558
f 328/628/561 326/626/559 327/627/560
f 326/626/559 328/628/561 319/619/552
f 329/629/562 328/628/561 327/627/560
f 330/630/563 323/623/556 322/622/555
f 331/631/564 330/630/563 322/622/555
f 331/631/564 332/632/565 330/630/563
f 332/632/565 333/633/566 330/630/563
f 332/632/565 334/634/567 333/633/566
f 334/634/567 335/635/568 333/633/566
f 281/563/495 332/632/565 331/631/564
f 283/565/497 281/563/495 331/631/564
f 279/561/493 334/634/567 332/632/565
f 281/563/495 279/561/493 332/632/565
f 333/633/566 335/635/568 336/636/569
f 335/635/568 337/637/570 336/636/569
f 336/636/569 337/637/570 338/638/571
f 337/637/570 339/639/572 338/638/571
f 336/636/569 338/638/571 340/640/573
f 341/641/574 336/636/569 340/640/573
f 333/633/566 336/636/569 341/641/574
f 330/630/563 333/633/566 341/641/574
f 338/638/571 339/639/572 342/642/575
f 338/638/571 342/642/575 340/640/573
f 339/639/572 343/643/576 342/642/575
f 342/642/575 344/644/577 340/640/573
f 334/634/567 269/551/483 335/635/568
f 269/551/483 271/553/485 335/635/568
f 335/635/568 271/553/485 337/637/570
f 337/637/570 273/555/487 339/639/572
f 271/553/485 273/555/487 337/637/570
f 273/555/487 275/557/489 339/639/572
f 339/639/572 275/557/489 343/643/576
f 275/557/489 277/559/491 343/643/576
f 340/640/573 327/627/560 341/641/574
f 340/640/573 344/644/577 327/627/560
f 327/627/560 325/625/558 341/641/574
f 344/644/577 329/629/562 327/627/560
f 341/641/574 325/625/558 323/623/556
f 330/630/563 341/641/574 323/623/556
f 329/629/562 344/644/577 345/645/578
f 345/645/578 344/644/577 342/642/575
f 346/646/579 329/629/562 345/645/578
f 349/647/580 277/559/491 350/648/581
f 352/649/582 351/650/583 359/651/584
f 351/650/583 360/652/585 359/651/584
f 359/651/584 360/652/585 361/653/586
f 362/654/587 359/651/584 361/653/586
f 363/655/588 362/654/587 361/653/586
f 364/656/589 363/655/588 361/653/586
f 363/655/588 365/657/590 362/654/587
f 365/657/590 366/658/591 362/654/587
f 365/657/590 367/659/592 366/658/591
f 367/659/592 368/660/593 366/658/591
f 368/660/593 369/661/594 366/658/591
f 368/660/593 370/662/595 369/661/594
f 367/659/592 370/662/595 368/660/593
f 371/663/596 370/662/595 367/659/592
f 372/664/597 371/663/596 367/659/592
f 372/664/597 373/665/598 371/663/596
f 373/665/598 374/666/599 371/663/596
f 374/666/599 373/665/598 314/667/547
f 316/668/549 374/666/599 314/667/547
f 316/668/549 318/669/551 374/666/599
f 318/669/551 375/670/600 374/666/599
f 374/666/599 375/670/600 371/663/596
f 375/670/600 376/671/601 371/663/596
f 371/663/596 376/671/601 370/662/595
f 370/662/595 377/672/602 369/661/594
f 376/671/601 377/672/602 370/662/595
f 369/661/594 378/673/603 366/658/591
f 366/658/591 378/673/603 362/654/587
f 378/673/603 359/651/584 362/654/587
f 314/667/547 373/665/598 379/674/604
f 379/674/604 373/665/598 372/664/597
f 312/675/545 314/667/547 379/674/604
f 312/675/545 379/674/604 380/676/605
f 310/677/543 312/675/545 380/676/605
f 380/676/605 379/674/604 381/678/606
f 382/679/607 380/676/605 381/678/606
f 382/679/607 381/678/606 383/680/608
f 384/681/609 382/679/607 383/680/608
f 384/681/609 383/680/608 385/682/610
f 386/683/611 384/681/609 385/682/610
f 386/683/611 385/682/610 387/684/612
f 388/685/613 386/683/611 387/684/612
f 388/685/613 387/684/612 389/686/614
f 390/687/615 388/685/613 389/686/614
f 225/494/421 384/681/609 386/683/611
f 226/495/422 225/494/421 386/683/611
f 226/495/422 386/683/611 388/685/613
f 233/502/429 382/679/607 384/681/609
f 225/494/421 233/502/429 384/681/609
f 235/504/431 380/676/605 382/679/607
f 233/502/429 235/504/431 382/679/607
f 380/676/605 235/504/431 236/505/432
f 310/677/543 380/676/605 236/505/432
f 228/497/424 388/685/613 390/687/615
f 228/497/424 226/495/422 388/685/613
f 230/499/426 228/497/424 390/687/615
f 387/684/612 385/682/610 363/655/588
f 385/682/610 365/657/590 363/655/588
f 385/682/610 383/680/608 365/657/590
f 383/680/608 367/659/592 365/657/590
f 383/680/608 381/678/606 367/659/592
f 381/678/606 372/664/597 367/659/592
f 381/678/606 379/674/604 372/664/597
f 387/684/612 363/655/588 364/656/589
f 389/686/614 387/684/612 364/656/589
f 389/686/614 364/656/589 274/556/488
f 274/556/488 364/656/589 276/558/490
f 364/656/589 361/653/586 276/558/490
f 361/653/586 360/652/585 276/558/490
f 360/652/585 278/560/492 276/558/490
f 272/554/486 389/686/614 274/556/488
f 390/687/615 389/686/614 272/554/486
f 270/552/484 390/687/615 272/554/486
f 230/499/426 390/687/615 270/552/484
f 350/648/581 278/560/492 360/652/585
f 277/559/491 278/560/492 350/648/581
f 351/650/583 350/648/581 360/652/585
f 343/643/576 277/559/491 349/647/580
f 348/688/616 343/643/576 349/647/580
f 342/642/575 343/643/576 348/688/616
f 347/689/617 342/642/575 348/688/616
f 347/689/617 345/645/578 342/642/575
f 358/690/618 318/618/551 391/691/619
f 318/618/551 319/619/552 391/691/619
f 391/691/619 319/619/552 392/692/620
f 319/619/552 328/628/561 392/692/620
f 392/692/620 328/628/561 329/629/562
f 346/646/579 392/692/620 329/629/562
f 393/693/621 214/694/622 215/695/623
f 394/696/624 393/693/621 215/695/623
f 393/693/621 394/696/624 395/697/625
f 396/698/626 393/693/621 395/697/625
s 0
f 397/699/154 393/693/154 396/698/154
s 1
f 214/694/622 393/693/621 397/699/627
f 398/700/628 397/699/627 396/698/626
f 398/700/628 399/701/629 397/699/627
f 399/701/629 400/702/630 397/699/627
f 397/699/627 400/702/630 401/703/631
f 401/703/631 214/694/622 397/699/627
f 400/702/630 402/704/632 401/703/631
f 401/703/631 402/704/632 403/705/633
f 401/703/631 403/705/633 214/694/622
f 402/704/632 404/706/634 403/705/633
f 403/705/633 404/706/634 405/707/635
f 404/706/634 406/708/636 405/707/635
f 407/709/637 405/707/635 406/708/636
f 408/710/638 407/709/637 406/708/636
f 409/711/639 407/709/637 408/710/638
f 410/712/640 409/711/639 408/710/638
f 403/705/633 405/707/635 411/713/641
f 405/707/635 412/714/642 411/713/641
f 405/707/635 407/709/637 412/714/642
f 403/705/633 411/713/641 214/694/622
f 407/709/637 409/711/639 413/715/643
f 407/709/637 413/715/643 412/714/642
f 406/708/636 404/706/634 414/716/644
f 404/706/634 415/717/645 414/716/644
f 404/706/634 402/704/632 415/717/645
f 416/718/646 414/716/644 415/717/645
f 417/719/647 416/718/646 415/717/645
f 418/720/648 416/718/646 417/719/647
f 416/718/646 418/720/648 414/716/644
f 419/721/649 418/720/648 417/719/647
f 418/720/650 419/721/649 420/722/651
f 421/723/652 420/722/651 419/721/649
f 419/721/649 417/719/647 422/724/653
f 421/725/654 419/721/649 422/724/653
f 417/719/647 415/717/645 422/726/655
f 418/720/648 424/727/656 414/716/644
f 425/728/657 424/727/656 418/729/658
f 402/704/632 422/726/655 415/717/645
f 400/702/630 421/730/659 422/726/655
f 402/704/632 400/702/630 422/726/655
f 399/701/629 423/731/660 421/730/659
f 400/702/630 399/701/629 421/730/659
f 408/710/638 424/727/656 425/728/657
f 408/710/638 406/708/636 424/727/656
f 406/708/636 414/716/644 424/727/656
f 410/712/640 408/710/638 425/728/657
f 426/732/661 183/733/662 181/734/663
f 189/735/664 426/732/661 181/734/663
f 189/735/664 181/734/665 179/736/666
f 427/737/667 189/735/664 179/736/666
f 179/736/666 181/734/668 291/738/513
f 428/739/669 426/732/661 189/735/664
f 428/739/669 429/740/670 426/732/661
f 429/740/670 185/741/671 426/732/661
f 426/732/661 185/741/671 183/733/662
f 429/740/670 430/742/672 185/741/671
f 430/742/672 431/743/673 185/741/671
f 430/742/672 432/744/674 431/743/673
f 432/744/674 433/745/675 431/743/673
f 434/746/676 428/739/669 189/735/664
f 434/746/676 189/735/664 427/737/667
f 435/747/677 434/746/676 427/737/667
f 435/747/677 427/737/667 177/748/678
f 427/737/667 179/736/666 177/748/678
f 436/749/679 435/747/677 177/748/678
f 436/749/679 177/748/678 437/750/680
f 438/751/681 436/749/679 437/750/680
f 438/751/681 437/750/680 439/752/682
f 440/753/683 438/751/681 439/752/682
f 441/754/684 428/739/669 434/746/676
f 155/755/685 441/754/684 434/746/676
f 155/755/685 434/746/676 435/747/677
f 155/755/685 442/756/686 441/754/684
f 442/756/686 443/757/687 441/754/684
f 441/754/684 443/757/687 444/758/688
f 443/757/687 445/759/689 444/758/688
f 446/760/690 444/758/688 445/759/689
f 447/761/691 446/760/690 445/759/689
f 448/762/692 442/756/686 155/755/685
f 157/763/693 448/762/692 155/755/685
f 449/764/694 448/762/692 157/763/693
f 160/765/695 449/764/694 157/763/693
f 450/766/696 449/764/694 160/765/695
f 451/767/697 450/766/696 160/765/695
f 452/768/698 446/760/690 447/761/691
f 453/769/699 452/768/698 447/761/691
f 454/770/700 450/766/696 451/767/697
f 455/771/701 454/770/700 451/767/697
f 160/765/695 157/763/693 436/749/679
f 157/763/693 435/747/677 436/749/679
f 157/763/693 155/755/685 435/747/677
f 456/772/702 448/762/692 449/764/694
f 456/772/702 215/695/623 448/762/692
f 457/773/703 215/695/623 456/772/702
f 458/774/704 457/773/703 456/772/702
f 457/773/703 458/774/704 459/775/705
f 459/775/705 458/774/704 460/776/706
f 458/774/704 461/777/707 460/776/706
f 462/778/708 460/776/706 461/777/707
f 463/779/709 462/778/708 461/777/707
f 464/780/710 457/773/703 459/775/705
f 465/781/711 457/773/703 464/780/710
f 457/773/703 465/781/711 215/695/623
f 466/782/712 465/781/711 464/780/710
f 467/783/713 462/778/708 463/779/709
f 468/784/714 467/783/713 463/779/709
f 469/785/715 465/781/711 466/782/712
f 470/786/716 469/785/715 466/782/712
f 458/774/704 456/772/702 471/787/717
f 461/777/707 458/774/704 471/787/717
f 468/784/714 463/779/709 163/788/718
f 463/779/709 143/789/719 163/788/718
f 461/777/707 471/787/717 143/789/719
f 463/779/709 461/777/707 143/789/719
f 465/781/711 469/785/715 394/696/624
f 469/785/715 395/697/625 394/696/624
f 465/781/711 394/696/624 215/695/623
f 466/782/712 464/780/710 472/790/720
f 464/780/710 473/791/721 472/790/720
f 474/792/722 472/790/720 473/791/721
f 476/793/723 474/794/724 475/795/725
f 477/796/726 476/793/723 475/795/725
f 477/796/726 475/795/725 478/797/727
f 475/795/725 479/798/728 478/797/727
s 0
f 475/795/729 474/792/730 479/798/728
s 1
f 475/799/731 474/792/722 473/791/721
f 478/797/727 479/798/728 480/800/732
f 479/798/728 481/801/733 480/800/732
f 475/799/731 473/791/721 481/801/733
f 479/798/728 475/799/731 481/801/733
f 482/802/734 476/793/723 477/796/726
f 483/803/735 482/802/734 477/796/726
f 478/797/727 480/800/732 483/803/735
f 477/796/726 478/797/727 483/803/735
f 484/804/736 472/790/720 474/805/737
f 459/775/705 481/801/733 473/791/721
f 464/780/710 459/775/705 473/791/721
f 460/776/706 480/800/732 481/801/733
f 459/775/705 460/776/706 481/801/733
f 462/778/708 483/803/735 480/800/732
f 460/776/706 462/778/708 480/800/732
f 467/783/713 482/802/734 483/803/735
f 462/778/708 467/783/713 483/803/735
f 466/782/712 472/790/720 484/804/736
f 470/786/716 466/782/712 484/804/736
f 485/806/738 248/807/455 249/808/456
f 486/809/739 485/806/738 249/808/456
f 486/809/739 249/808/456 487/810/740
f 249/808/456 254/811/461 487/810/740
f 247/812/454 248/807/455 485/806/738
f 488/813/741 247/812/454 485/806/738
f 489/814/742 488/813/741 485/806/738
f 490/815/743 489/814/742 485/806/738
f 490/815/743 485/806/738 486/809/739
f 489/814/742 490/815/743 491/816/744
f 492/817/745 489/814/742 491/816/744
f 493/818/746 491/816/744 490/815/743
f 494/819/747 493/818/746 490/815/743
f 494/819/747 486/809/739 487/810/740
f 494/819/747 490/815/743 486/809/739
f 493/818/746 494/819/747 495/820/748
f 494/819/747 496/821/749 495/820/748
f 496/821/749 494/819/747 487/810/740
f 487/810/740 254/811/461 497/822/750
f 496/821/749 487/810/740 497/822/750
f 254/811/461 260/823/467 497/822/750
f 497/822/750 260/823/467 264/824/471
f 184/825/751 497/822/750 264/824/471
f 498/826/752 497/822/750 184/825/751
f 498/826/752 496/821/749 497/822/750
f 499/827/753 498/826/752 184/825/751
f 498/826/752 499/827/753 500/828/754
f 496/821/749 498/826/752 500/828/754
f 495/820/748 496/821/749 500/828/754
f 499/827/753 501/829/755 500/828/754
f 184/825/751 264/824/471 183/733/756
f 264/824/471 182/830/512 183/733/756
f 433/745/675 501/829/755 499/827/753
f 431/743/673 433/745/675 499/827/753
f 431/743/673 499/827/753 184/825/751
f 185/741/671 431/743/673 184/825/751
f 502/831/757 309/832/542 258/833/465
f 503/834/758 502/831/757 258/833/465
f 503/834/758 258/833/465 255/835/462
f 504/836/759 503/834/758 255/835/462
f 504/836/759 255/835/462 505/837/760
f 255/835/462 251/838/458 505/837/760
f 505/837/760 251/838/458 488/839/741
f 251/838/458 247/840/454 488/839/741
f 506/841/761 505/837/760 488/839/741
f 489/842/742 506/841/761 488/839/741
f 506/841/761 489/842/742 492/843/745
s 0
f 507/844/762 506/841/763 492/843/764
s 1
f 508/845/765 506/841/761 507/844/766
f 508/845/765 504/836/759 505/837/760
f 506/841/761 508/845/765 505/837/760
f 509/846/767 508/845/765 507/844/766
f 508/845/765 509/846/767 510/847/768
f 510/847/768 503/834/758 504/836/759
f 508/845/765 510/847/768 504/836/759
f 509/846/767 511/848/769 510/847/768
f 512/849/770 510/847/768 511/848/769
f 510/847/768 512/849/770 503/834/758
f 513/850/771 512/849/770 511/848/769
f 512/849/770 513/850/771 514/851/772
f 515/852/773 512/849/770 514/851/772
f 502/831/757 512/849/770 515/852/773
f 178/853/774 502/831/757 515/852/773
f 502/831/757 178/853/774 309/832/542
f 178/853/774 297/854/521 309/832/542
f 297/854/521 178/853/774 294/855/518
f 178/853/774 516/856/775 294/855/518
f 177/748/678 516/856/775 178/853/774
f 177/748/678 178/853/774 515/852/773
f 437/750/680 515/852/773 514/851/772
f 437/750/680 177/748/678 515/852/773
f 439/752/682 437/750/680 514/851/772
f 512/849/770 502/831/757 503/834/758
f 291/738/513 294/855/518 516/856/775
f 179/736/666 291/738/513 516/856/775
f 179/736/666 516/856/775 177/748/678
f 509/857/767 517/858/776 518/859/777
f 511/860/769 509/857/767 518/859/777
f 509/857/767 507/861/766 517/858/776
f 507/861/766 492/862/745 517/858/776
f 518/859/777 517/858/776 495/863/748
f 517/858/776 493/864/746 495/863/748
f 517/858/776 492/862/745 493/864/746
f 492/862/745 491/865/744 493/864/746
f 511/860/769 518/859/777 519/866/778
f 513/867/771 511/860/769 519/866/778
f 519/866/778 520/868/779 513/867/771
f 520/868/779 519/866/778 501/869/755
f 519/866/778 500/870/754 501/869/755
f 518/859/777 495/863/748 500/870/754
f 519/866/778 518/859/777 500/870/754
f 520/868/779 514/871/772 513/867/771
f 514/871/772 520/868/779 439/872/682
f 520/868/779 521/873/780 439/872/682
f 520/868/779 501/869/755 521/873/780
f 439/872/682 521/873/780 522/874/781
f 522/874/781 521/873/780 432/875/674
f 521/873/780 433/876/675 432/875/674
f 501/869/755 433/876/675 521/873/780
f 440/877/683 439/872/682 522/874/781
f 440/877/683 522/874/781 523/878/782
f 455/879/701 440/877/683 523/878/782
f 523/878/782 524/880/783 455/879/701
f 524/880/783 523/878/782 453/881/699
f 523/878/782 452/882/698 453/881/699
f 522/874/781 432/875/674 452/882/698
f 523/878/782 522/874/781 452/882/698
f 524/880/783 454/883/700 455/879/701
f 524/880/783 453/881/699 413/884/784
f 396/885/626 524/880/783 413/884/784
f 396/885/626 413/884/784 409/886/639
f 398/887/628 396/885/626 409/886/639
f 398/887/628 409/886/639 410/888/640
f 399/889/629 398/887/628 410/888/640
f 399/889/629 410/888/640 423/890/660
f 410/888/640 425/891/657 423/890/660
f 423/890/660 425/891/657 418/892/658
f 421/893/785 423/890/660 418/892/658
s 0
f 418/892/786 420/894/787 421/893/788
s 1
f 454/883/700 524/880/783 395/895/625
f 524/880/783 396/885/626 395/895/625
f 163/896/718 454/883/700 395/895/625
f 395/895/625 469/897/715 163/896/718
f 469/897/715 468/898/714 163/896/718
f 469/897/715 470/899/716 468/898/714
f 470/899/716 467/900/713 468/898/714
f 467/900/713 470/899/716 482/901/734
f 470/899/716 484/902/736 482/901/734
f 476/903/723 482/901/734 484/902/736
f 474/904/737 476/903/723 484/902/736
f 444/758/688 429/740/670 428/739/669
f 441/754/684 444/758/688 428/739/669
f 444/758/688 446/760/690 429/740/670
f 446/760/690 430/742/672 429/740/670
f 446/760/690 452/768/698 430/742/672
f 452/768/698 432/744/674 430/742/672
f 412/714/642 445/759/689 443/757/687
f 411/713/641 412/714/642 443/757/687
f 411/713/641 443/757/687 442/756/686
f 214/694/622 411/713/641 442/756/686
f 442/756/686 215/695/623 214/694/622
f 215/695/623 442/756/686 448/762/692
f 412/714/642 413/715/643 445/759/689
f 413/715/643 447/761/691 445/759/689
f 413/905/784 453/769/699 447/761/691
f 471/787/717 456/772/702 449/764/694
f 471/787/717 449/764/694 450/766/696
f 143/789/719 471/787/717 450/766/696
f 143/789/719 450/766/696 454/770/700
f 163/788/718 143/789/719 454/770/700
f 451/767/697 438/751/681 440/753/683
f 455/771/701 451/767/697 440/753/683
f 451/767/697 160/765/695 438/751/681
f 160/765/695 436/749/679 438/751/681
f 93/518/789 67/520/790 94/906/791
f 67/520/790 95/907/792 94/906/791
f 95/907/792 67/520/790 96/521/793
f 62/507/434 94/906/794 224/493/420
f 94/906/794 232/501/428 224/493/420
f 94/906/794 95/907/795 232/501/428
f 95/907/795 234/503/430 232/501/428
f 234/503/430 95/907/795 97/908/536
f 237/506/433 234/503/430 97/908/536
f 72/513/796 98/909/797 100/910/798
f 74/515/444 72/513/796 100/910/798
f 72/513/796 64/511/799 98/909/797
f 100/910/798 98/909/797 231/500/427
f 98/909/797 229/498/425 231/500/427
f 98/909/797 92/508/435 229/498/425
f 74/515/800 100/910/801 90/546/802
f 109/544/473 74/515/444 90/546/478
f 241/516/445 74/515/444 109/544/473
f 263/541/470 241/516/445 109/544/473
f 253/531/460 241/516/445 263/541/470
f 100/910/798 231/500/427 266/548/480
f 90/546/478 100/910/798 266/548/480
f 267/549/481 269/551/483 334/634/567
f 279/561/493 267/549/481 334/634/567
f 322/622/555 302/594/531 283/565/497
f 331/631/564 322/622/555 283/565/497
f 283/565/497 302/594/531 301/593/530
f 284/566/498 283/565/497 301/593/530
f 284/566/498 301/593/530 285/568/500
f 301/593/530 80/592/85 285/568/500
f 285/568/500 80/592/85 104/570/502
f 80/592/85 79/589/803 104/570/502
f 104/570/505 79/589/525 299/587/523
f 288/574/508 104/570/505 299/587/523
f 288/574/508 299/587/523 295/583/519
f 292/580/514 288/574/508 295/583/519
f 305/597/534 303/595/532 321/621/554
f 311/611/544 305/597/534 321/621/554
f 309/609/542 297/585/521 296/584/520
f 308/606/541 309/609/542 296/584/520
f 296/584/520 298/586/522 308/606/541
f 298/586/522 307/603/539 308/606/541
f 298/586/522 102/588/524 307/603/539
f 102/588/524 101/602/540 307/603/539
f 352/649/582 359/651/584 378/673/603
f 353/911/804 352/649/582 378/673/603
f 353/911/804 378/673/603 369/661/594
f 354/912/805 353/911/804 369/661/594
f 354/912/805 369/661/594 355/913/806
f 369/661/594 377/672/602 355/913/806
f 355/913/806 377/672/602 356/914/807
f 377/672/602 376/671/601 356/914/807
f 356/914/807 376/671/601 375/670/600
f 357/915/808 356/914/807 375/670/600
f 357/915/808 375/670/600 318/669/551
f 358/916/618 357/915/808 318/669/551
