# Blender 4.3.2
# www.blender.org
mtllib PiernaDer_Sam.mtl
o PiernaDer_Sam
v 0.458536 -4.894814 1.660340
v -1.169574 -4.894814 1.660340
v 0.596839 -4.894814 1.273624
v -1.319295 -4.894814 1.273624
v 0.087935 -4.659821 2.287417
v 0.275243 -4.011931 1.491149
v 0.014081 -4.070353 2.157837
v 0.275243 -4.011931 1.491149
v -0.155781 -3.817231 1.505251
v -0.463946 -3.825294 1.528747
v -0.800315 -4.661845 2.287417
v -0.684837 -4.070353 2.157837
v -0.952720 -4.001195 1.515316
v -0.952720 -4.001195 1.515316
v 0.136269 -4.894814 2.487485
v -0.849331 -4.894814 2.487485
v 0.345742 -4.894814 1.999393
v -1.035968 -4.894814 1.999393
v -1.056109 -4.737700 1.945680
v -1.148091 -4.737700 1.713382
v 0.353794 -4.737700 1.945680
v 0.424964 -4.737700 1.713382
v -1.056109 -4.737700 1.945680
v -1.035968 -4.894814 1.999393
v -0.780845 -4.502719 2.441835
v -0.849331 -4.894814 2.487485
v 0.095316 -4.502719 2.441835
v 0.136269 -4.894814 2.487485
v 0.345742 -4.894814 1.999393
v 0.353794 -4.737700 1.945680
v 0.458536 -4.894814 1.660340
v 0.424964 -4.737700 1.713382
v -1.169574 -4.894814 1.660340
v -1.148091 -4.737700 1.713382
v 0.353794 -4.737700 1.945680
v 0.345742 -4.894814 1.999393
v -1.056109 -4.737700 1.945680
v -1.035968 -4.894814 1.999393
v -0.800315 -4.661845 2.287417
v -1.223958 -4.661845 1.101749
v 0.087935 -4.659821 2.287417
v 0.502844 -4.661845 1.101749
v 0.210794 -1.468049 0.415592
v 0.251747 -0.753027 0.439088
v -0.018820 -0.753027 0.535767
v 0.196692 -2.258278 -0.273922
v -0.157123 -2.258278 -0.414249
v -0.128259 -1.947418 -0.298100
v -0.435753 -1.805089 -0.188661
v -0.366596 -1.188088 -0.060422
v -0.048366 -1.141085 -0.158443
v -0.018820 -0.753027 -0.126224
v -0.282006 -0.753027 -0.029545
v -0.482745 -1.470062 0.181270
v -0.388079 -0.753027 0.204777
v -0.344442 -1.412323 0.416934
v -0.282006 -0.753027 0.439088
v -0.063799 -1.393524 0.514955
v 0.187969 -1.641266 0.416934
v 0.323588 -1.470062 0.181270
v 0.365212 -0.753027 0.204777
v 0.228251 -1.188088 -0.060422
v 0.251747 -0.753027 -0.029545
v 0.194679 -1.828585 -0.193357
v -0.391445 -1.593603 0.416934
v -0.102739 -1.732577 0.513613
v -0.508265 -2.258278 -0.273922
v -0.652607 -2.258278 0.063778
v -0.508265 -2.258278 0.402160
v -0.157123 -2.258278 0.542476
v 0.196692 -2.258278 0.402160
v 0.344400 -2.258278 0.063778
v 0.039590 0.016379 -0.143681
v -0.202113 0.016379 -0.042965
v -0.299463 0.016379 0.200751
v -0.202113 0.016379 0.444456
v 0.039590 0.016379 0.545172
v 0.318891 0.016379 0.444456
v 0.423622 0.016379 0.200751
v 0.318891 0.016379 -0.042965
v 0.239658 0.728728 -0.177242
v 0.524998 0.653532 -0.043636
v 0.529706 0.670989 0.431707
v 0.467259 0.891198 0.484738
v -1.268937 -4.738382 0.582769
v -1.252833 -4.738382 0.297429
v 0.558570 -4.738382 0.584111
v 0.539100 -4.738382 0.297429
v -1.271632 -4.894814 0.626406
v -1.268937 -4.738382 0.582769
v 0.561254 -4.894814 0.627748
v 0.558570 -4.738382 0.584111
v -1.252833 -4.738382 0.297429
v -1.250149 -4.894814 0.255123
v 0.539100 -4.738382 0.297429
v 0.537087 -4.894814 0.255123
v 0.369909 -4.737029 -0.441100
v 0.439737 -4.737029 -0.224246
v -1.072224 -4.737029 -0.443113
v -1.159509 -4.737029 -0.224917
v 0.561254 -4.894814 0.627748
v 0.573343 -4.894814 0.862730
v -1.271632 -4.894814 0.626406
v -1.286394 -4.894814 0.861388
v 0.565291 -4.738382 0.915772
v 0.573343 -4.894814 0.862730
v 0.558570 -4.738382 0.584111
v 0.561254 -4.894814 0.627748
v 0.206097 -4.894813 -0.810359
v 0.197363 -4.503389 -0.772090
v 0.326943 -4.894813 -0.561275
v 0.369909 -4.737029 -0.441100
v 0.450484 -4.502048 -0.084590
v 0.439737 -4.737029 -0.224246
v 0.488753 -4.894814 -0.096008
v 0.537087 -4.894814 0.255123
v 0.539100 -4.738382 0.297429
v 0.560583 -4.502718 1.297120
v 0.582737 -4.738382 1.180971
v 0.596839 -4.894814 1.273624
v 0.458536 -4.894814 1.660340
v 0.424964 -4.737700 1.713382
v 0.371251 -4.502718 1.763058
v 0.095316 -4.502719 2.441835
v 0.371251 -4.502718 1.763058
v -0.780845 -4.502719 2.441835
v -0.930566 -4.894813 -0.810359
v -0.896323 -4.503389 -0.772090
v -0.362570 -4.894813 -1.131955
v -0.367267 -4.504731 -1.109130
v -0.367267 -4.504731 -1.109130
v -0.896323 -4.503389 -0.772090
v 0.197363 -4.503389 -0.772090
v -1.166890 -4.502048 -0.084590
v 0.450484 -4.502048 -0.084590
v 0.560583 -4.502718 1.297120
v -1.266924 -4.502718 1.297120
v -1.102441 -4.502718 1.685178
v -1.102441 -4.502718 1.685178
v -1.148091 -4.737700 1.713382
v -1.266924 -4.502718 1.297120
v -1.169574 -4.894814 1.660340
v -1.319295 -4.894814 1.273624
v -1.303180 -4.738382 1.179629
v -1.289089 -4.738382 0.912417
v -1.166890 -4.502048 -0.084590
v -1.268937 -4.738382 0.582769
v -1.252833 -4.738382 0.297429
v -1.250149 -4.894814 0.255123
v -1.212551 -4.894814 -0.096008
v -1.159509 -4.737029 -0.224917
v -1.072224 -4.737029 -0.443113
v -1.019853 -4.894813 -0.561275
v -1.286394 -4.894814 0.861388
v -1.271632 -4.894814 0.626406
v -1.019853 -4.894813 -0.561275
v 0.326943 -4.894813 -0.561275
v -1.072224 -4.737029 -0.443113
v 0.369909 -4.737029 -0.441100
v 0.167157 -4.135472 -0.618343
v -0.351152 -4.319436 -0.909733
v -0.278651 -3.404335 -0.737858
v -0.837913 -4.135472 -0.618343
v 0.502844 -4.661845 1.101749
v 0.428319 -4.661844 -0.039611
v 0.365883 -3.970978 -0.024167
v 0.151042 -4.661844 -0.684145
v -0.361899 -4.661844 -0.973511
v -0.873498 -4.661844 -0.684145
v -1.149433 -4.661844 -0.039611
v -1.014485 -3.970978 -0.024167
v -1.099757 -4.069682 1.039973
v -0.753994 -3.816561 1.021856
v -0.284019 -3.651406 1.014464
v 0.169841 -3.785684 0.993652
v 0.459878 -4.069682 1.039973
v -0.282006 -3.590301 0.703615
v 0.204755 -3.748085 0.498168
v -1.223958 -4.661845 1.101749
v -0.237016 -3.053864 -0.625735
v 0.175209 -3.053864 -0.451847
v 0.174538 -3.404335 -0.514954
v 0.345742 -3.404335 0.016786
v 0.345742 -3.053864 0.020141
v 0.174538 -3.404335 0.453189
v -0.269246 -3.404335 0.676082
v -0.796289 -3.748085 0.498168
v -0.899678 -3.404335 0.016786
v -0.733842 -3.404335 -0.514954
v -0.660670 -3.053864 -0.451847
v -0.831203 -3.053864 0.020141
v -0.733842 -3.404335 0.453189
v -0.660670 -3.053864 0.439087
v -0.250447 -3.053864 0.612975
v 0.175209 -3.053864 0.439087
v -0.508265 -2.258278 -0.273922
v -0.652607 -2.258278 0.063778
v -0.508265 -2.258278 0.402160
v -0.157123 -2.258278 0.542476
v 0.196692 -2.258278 0.402160
v 0.344400 -2.258278 0.063778
v 0.196692 -2.258278 -0.273922
v -0.157123 -2.258278 -0.414249
v -1.250149 -4.894814 0.255123
v -1.212551 -4.894814 -0.096008
v 0.537087 -4.894814 0.255123
v 0.488753 -4.894814 -0.096008
v -1.289089 -4.738382 0.912417
v -1.286394 -4.894814 0.861388
v 0.565291 -4.738382 0.915772
v 0.573343 -4.894814 0.862730
v 0.582737 -4.738382 1.180971
v -1.303180 -4.738382 1.179629
v 0.565291 -4.738382 0.915772
v -1.289089 -4.738382 0.912417
v 0.439737 -4.737029 -0.224246
v 0.488753 -4.894814 -0.096008
v -1.159509 -4.737029 -0.224917
v -1.212551 -4.894814 -0.096008
v -0.362570 -4.894813 -1.131955
v 0.206097 -4.894813 -0.810359
v -0.930566 -4.894813 -0.810359
v 0.326943 -4.894813 -0.561275
v -1.019853 -4.894813 -0.561275
v -1.319295 -4.894814 1.273624
v -1.303180 -4.738382 1.179629
v 0.596839 -4.894814 1.273624
v 0.582737 -4.738382 1.180971
v -1.223958 -4.661845 1.101749
v -1.149433 -4.661844 -0.039611
v 0.502844 -4.661845 1.101749
v 0.428319 -4.661844 -0.039611
v -0.873498 -4.661844 -0.684145
v 0.151042 -4.661844 -0.684145
v -0.361899 -4.661844 -0.973511
vn -0.0000 -1.0000 -0.0000
vn 0.4845 -0.5074 0.7126
vn 0.7600 0.5605 0.3291
vn 0.4389 0.5856 0.6815
vn 0.1903 0.9322 0.3080
vn -0.1679 0.9433 0.2864
vn -0.4941 -0.4981 0.7126
vn -0.4092 0.6032 0.6846
vn -0.7276 0.6261 0.2804
vn -0.8962 0.1675 0.4109
vn -0.8979 0.1005 0.4286
vn -0.5207 0.1794 0.8347
vn -0.5763 0.1931 0.7941
vn 0.5357 0.1602 0.8291
vn 0.5499 0.1530 0.8211
vn 0.9043 0.1132 0.4116
vn 0.9140 0.1600 0.3729
vn -0.0000 -0.3199 0.9475
vn -0.0000 -0.3235 -0.9462
vn -0.9692 -0.2090 0.1299
vn 0.4844 -0.5074 0.7126
vn 0.9450 -0.2935 0.1440
vn 0.6715 -0.0732 0.7374
vn 0.6649 -0.0596 0.7446
vn -0.0057 -0.0208 0.9998
vn 0.6390 0.1829 -0.7471
vn 0.0160 0.3052 -0.9522
vn 0.0457 0.2669 -0.9626
vn -0.6655 0.2524 -0.7024
vn -0.7323 0.2022 -0.6502
vn 0.0206 0.1211 -0.9924
vn -0.0025 0.0383 -0.9993
vn -0.6851 0.1113 -0.7199
vn -0.9800 0.1743 0.0961
vn -0.9937 0.1120 0.0086
vn -0.6330 0.0932 0.7685
vn -0.6792 0.0478 0.7324
vn 0.0020 -0.0179 0.9998
vn 0.6456 -0.0479 0.7621
vn 0.9980 -0.0281 0.0564
vn 0.9977 -0.0672 0.0103
vn 0.6929 0.0410 -0.7198
vn 0.6712 -0.0278 -0.7408
vn 0.6451 0.1406 -0.7511
vn -0.6470 0.1356 0.7503
vn 0.0195 0.0257 0.9995
vn -0.6801 0.2523 -0.6884
vn -0.9760 0.2153 -0.0331
vn -0.7154 0.1042 0.6909
vn -0.0117 0.0376 0.9992
vn 0.6935 0.0031 0.7204
vn 0.9987 0.0442 -0.0269
vn 0.1018 -0.0591 -0.9931
vn -0.6926 0.0524 -0.7194
vn -0.9941 0.1080 -0.0060
vn -0.6932 0.0731 0.7170
vn 0.0932 -0.0325 0.9951
vn 0.6615 -0.1320 0.7382
vn 0.9832 -0.1826 0.0029
vn 0.6616 -0.1454 -0.7356
vn 0.3781 -0.1307 -0.9165
vn 0.6947 -0.3251 -0.6416
vn 0.7435 -0.2526 0.6192
vn 0.3807 -0.1822 0.9066
vn 0.0007 -0.2687 -0.9632
vn -0.0000 -0.2611 0.9653
vn 0.9976 0.0635 -0.0260
vn 0.9987 0.0433 -0.0286
vn 0.9856 0.1574 -0.0614
vn 0.9987 0.0028 -0.0514
vn 0.7252 0.0759 -0.6844
vn 0.7529 0.1094 -0.6490
vn 0.9017 0.0686 -0.4269
vn 0.9200 0.1450 -0.3641
vn 0.9666 0.1435 -0.2124
vn 0.9538 0.1201 -0.2755
vn 0.9803 0.1005 -0.1701
vn 0.9829 0.0687 -0.1711
vn 0.9781 0.1676 -0.1232
vn 0.9801 0.1094 0.1655
vn 0.9937 0.1081 -0.0297
vn 0.9669 0.0748 0.2440
vn 0.9359 0.0752 0.3442
vn 0.9331 0.1189 0.3393
vn 0.9230 0.1643 0.3479
vn -0.0000 1.0000 -0.0000
vn -0.7560 0.1289 -0.6417
vn -0.7535 0.1141 -0.6475
vn -0.0127 0.0753 -0.9971
vn -0.0268 0.0658 -0.9975
vn -0.0000 1.0000 -0.0040
vn -0.0000 1.0000 -0.0024
vn -0.0000 1.0000 -0.0005
vn -0.0000 1.0000 0.0003
vn -0.8991 0.2258 0.3750
vn -0.9292 0.1465 0.3392
vn -0.9730 0.1526 0.1733
vn -0.9453 0.0620 0.3203
vn -0.9560 0.1114 0.2712
vn -0.9883 0.1528 -0.0016
vn -0.9869 0.1476 -0.0654
vn -0.9636 0.1556 -0.2173
vn -0.9820 0.1794 -0.0597
vn -0.9788 0.1695 -0.1153
vn -0.9850 0.0744 -0.1554
vn -0.9813 0.1185 -0.1514
vn -0.9387 0.1533 -0.3087
vn -0.9092 0.1257 -0.3969
vn -0.9142 0.0738 -0.3986
vn -0.9980 0.0033 -0.0627
vn -0.9981 0.0010 -0.0615
vn -0.0000 -0.5994 0.8004
vn -0.0010 -0.6052 0.7961
vn -0.0001 -0.6001 0.7999
vn -0.0011 -0.6057 0.7957
vn 0.7444 0.0899 -0.6617
vn 0.0013 0.1760 -0.9844
vn 0.0081 0.2278 -0.9737
vn -0.7411 0.1839 -0.6457
vn 0.9451 -0.2935 0.1440
vn 0.9731 0.0769 -0.2172
vn 0.9827 0.1203 -0.1407
vn 0.7193 0.0744 -0.6907
vn -0.0014 0.1736 -0.9848
vn -0.7322 0.1330 -0.6680
vn -0.9618 0.1764 -0.2093
vn -0.9586 0.2565 -0.1236
vn -0.8576 0.5084 0.0775
vn -0.4602 0.8784 0.1292
vn -0.0071 0.9789 0.2040
vn 0.4871 0.8572 0.1674
vn 0.9145 0.3808 0.1366
vn 0.0019 0.7076 0.7066
vn 0.7939 0.5166 0.3207
vn -0.9693 -0.2090 0.1299
vn 0.0221 0.2700 -0.9626
vn 0.7214 0.1242 -0.6813
vn 0.7463 0.1099 -0.6565
vn 0.9994 0.0318 0.0164
vn 0.9999 0.0088 0.0083
vn 0.7354 0.0882 0.6719
vn 0.0004 0.1592 0.9872
vn -0.7919 0.4899 0.3645
vn -0.9799 0.1973 0.0289
vn -0.7376 0.2233 -0.6373
vn -0.6959 0.2785 -0.6619
vn -0.9769 0.2122 0.0241
vn -0.7223 0.2049 0.6605
vn -0.7003 0.1686 0.6936
vn -0.0211 0.1287 0.9915
vn 0.7126 0.0297 0.7010
vn -0.6745 0.2835 -0.6816
vn -0.9731 0.2291 0.0242
vn -0.6729 0.1592 0.7224
vn 0.0235 0.0816 0.9964
vn 0.7051 0.0159 0.7090
vn 0.9999 0.0066 0.0094
vn 0.7294 0.1148 -0.6744
vn 0.0266 0.2499 -0.9679
vn -0.0017 -0.3101 0.9507
vn -0.0017 -0.3108 0.9505
vn -0.0007 -0.3205 0.9472
vn -0.0007 -0.3212 0.9470
vn 0.0003 -0.6306 -0.7761
vn 0.0003 -0.6308 -0.7759
vn -0.0000 -0.6326 -0.7745
vn -0.0000 -0.6327 -0.7744
vn -0.0000 -0.5150 -0.8572
vn -0.0000 -0.5147 -0.8574
vn 0.0006 -0.5099 -0.8602
vn 0.0006 -0.5096 -0.8604
vt 0.746100 1.015600
vt 0.664100 1.015600
vt 0.753900 1.015600
vt 0.656300 1.015600
vt 0.964800 1.652300
vt 0.941400 1.671900
vt 0.960900 1.671900
vt 0.937500 1.675800
vt 0.941400 1.679700
vt 0.941400 1.675800
vt 0.730500 1.015600
vt 0.679700 1.015600
vt 0.742200 1.015600
vt 0.668000 1.015600
vt 0.668000 1.023400
vt 0.664100 1.023400
vt 0.742200 1.023400
vt 0.746100 1.023400
vt 0.683600 1.035200
vt 0.730500 1.035200
vt 0.589800 1.019500
vt 0.585900 1.027300
vt 0.554700 1.019500
vt 0.558600 1.027300
vt 0.582000 1.019500
vt 0.562500 1.027300
vt 0.562500 1.019500
vt 0.085900 1.503900
vt 0.054700 1.562500
vt 0.128900 1.484400
vt 0.203100 1.562500
vt 0.945300 1.035200
vt 0.925800 1.035200
vt 0.925800 1.039100
vt 0.968800 1.019500
vt 0.968800 1.015600
vt 0.949200 1.019500
vt 0.945300 1.023400
vt 0.937500 1.023400
vt 0.937500 1.019500
vt 0.925800 1.019500
vt 0.925800 1.023400
vt 0.945300 1.031300
vt 0.925800 1.031300
vt 0.945300 1.039100
vt 0.949200 1.035200
vt 0.953100 1.039100
vt 0.968800 1.027300
vt 0.968800 1.035200
vt 0.968800 1.039100
vt 0.906300 1.019500
vt 0.906300 1.023400
vt 0.906300 1.031300
vt 0.906300 1.035200
vt 0.906300 1.039100
vt 0.886700 1.019500
vt 0.886700 1.023400
vt 0.886700 1.035200
vt 0.882800 1.039100
vt 0.656300 1.023400
vt 0.660200 1.023400
vt 0.753900 1.023400
vt 0.750000 1.023400
vt 0.550800 1.019500
vt 0.550800 1.027300
vt 0.593800 1.019500
vt 0.593800 1.027300
vt 0.734400 1.015600
vt 0.734400 1.035200
vt 0.746100 1.035200
vt 0.750000 1.015600
vt 0.753900 1.035200
vt 0.742200 1.035200
vt 0.675800 1.015600
vt 0.675800 1.035200
vt 0.703100 1.015600
vt 0.703100 1.035200
vt 0.664100 1.035200
vt 0.656300 1.035200
vt 0.668000 1.035200
vt 0.660200 1.015600
vt 0.671900 1.015600
vt 0.855500 1.668000
vt 0.843800 1.664100
vt 0.851600 1.691400
vt 0.921900 1.652300
vt 0.878900 1.652300
vt 0.878900 1.675800
vt 0.851600 1.652300
vt 0.843800 1.652300
vt 0.921900 1.671900
vt 0.925800 1.679700
vt 0.925800 1.683600
vt 0.921900 1.679700
vt 0.906300 1.687500
vt 0.898400 1.683600
vt 0.859400 1.718800
vt 0.867200 1.718800
vt 0.859400 1.691400
vt 0.878900 1.691400
vt 0.882800 1.718800
vt 0.898400 1.691400
vt 0.906300 1.691400
vt 0.898400 1.718800
vt 0.906300 1.718800
vt 0.875000 1.757800
vt 0.886700 1.757800
vt 0.898400 1.757800
vt 0.906300 1.757800
vt 0.867200 1.757800
vt 0.589800 1.027300
vt 0.546900 1.019500
vt 0.597700 1.019500
vt 0.597700 1.027300
vt 0.019500 1.617200
vt 0.035200 1.718800
vt 0.195300 1.617200
vt 0.179700 1.718800
vt 0.058600 1.773400
vt 0.156300 1.773400
vt 0.105500 1.796900
s 1
usemtl Mesh_0233_rip
f 1/1/1 2/2/1 3/3/1
f 3/3/1 2/2/1 4/4/1
f 5/5/2 6/6/3 7/7/4
f 8/8/3 9/9/5 7/7/4
f 7/7/4 9/9/5 10/9/6
f 5/5/2 7/7/4 11/5/7
f 11/5/7 7/7/4 12/7/8
f 7/7/4 10/9/6 12/7/8
f 12/7/8 10/9/6 13/10/9
f 14/6/9 11/5/7 12/7/8
f 15/11/1 16/12/1 17/13/1
f 17/13/1 16/12/1 18/14/1
f 19/15/1 20/16/1 21/17/1
f 21/17/1 20/16/1 22/18/1
f 23/15/10 24/14/11 25/19/12
f 24/14/11 26/12/13 25/19/12
f 25/19/12 26/12/13 27/20/14
f 26/12/13 28/11/15 27/20/14
f 28/11/15 29/13/16 27/20/14
f 27/20/14 29/13/16 30/17/17
f 31/21/18 32/22/18 33/23/18
f 32/22/18 34/24/18 33/23/18
f 35/22/19 36/25/19 37/26/19
f 36/25/19 38/27/19 37/26/19
f 39/28/7 40/29/20 41/30/21
f 41/30/21 40/29/20 42/31/22
f 43/32/23 44/33/24 45/34/25
f 46/35/26 47/36/27 48/37/28
f 47/36/27 49/38/29 48/37/28
f 49/38/29 50/39/30 48/37/28
f 48/37/28 50/39/30 51/40/31
f 51/40/31 50/39/30 52/41/32
f 52/41/32 50/39/30 53/42/33
f 50/39/30 54/43/34 53/42/33
f 53/42/33 54/43/34 55/44/35
f 54/43/34 56/32/36 55/44/35
f 55/44/35 56/32/36 57/33/37
f 56/32/36 58/45/38 57/33/37
f 57/33/37 58/45/38 45/34/25
f 45/34/25 58/45/38 43/32/23
f 58/45/38 59/46/39 43/32/23
f 59/46/39 60/43/40 43/32/23
f 43/32/23 60/43/40 44/33/24
f 44/33/24 60/43/40 61/44/41
f 60/43/40 62/39/42 61/44/41
f 61/44/41 62/39/42 63/42/43
f 54/43/34 50/39/30 49/38/29
f 64/38/44 62/39/42 60/43/40
f 54/43/34 65/46/45 56/32/36
f 65/46/45 66/47/46 56/32/36
f 56/32/36 66/47/46 58/45/38
f 66/47/46 59/46/39 58/45/38
f 47/36/27 67/35/47 49/38/29
f 49/38/29 67/35/47 54/43/34
f 67/35/47 68/48/48 54/43/34
f 68/48/48 69/49/49 54/43/34
f 54/43/34 69/49/49 65/46/45
f 69/49/49 70/50/50 65/46/45
f 65/46/45 70/50/50 66/47/46
f 70/50/50 71/49/51 66/47/46
f 66/47/46 71/49/51 59/46/39
f 71/49/51 72/48/52 59/46/39
f 59/46/39 72/48/52 60/43/40
f 72/48/52 46/35/26 60/43/40
f 60/43/40 46/35/26 64/38/44
f 46/35/26 48/37/28 64/38/44
f 64/38/44 48/37/28 62/39/42
f 48/37/28 51/40/31 62/39/42
f 62/39/42 51/40/31 63/42/43
f 51/40/31 52/41/32 63/42/43
f 63/42/43 52/41/32 73/51/53
f 73/51/53 52/41/32 74/52/54
f 52/41/32 53/42/33 74/52/54
f 74/52/54 53/42/33 75/53/55
f 53/42/33 55/44/35 75/53/55
f 75/53/55 55/44/35 76/54/56
f 55/44/35 57/33/37 76/54/56
f 76/54/56 57/33/37 77/55/57
f 57/33/37 45/34/25 77/55/57
f 77/55/57 45/34/25 78/54/58
f 45/34/25 44/33/24 78/54/58
f 78/54/58 44/33/24 79/53/59
f 44/33/24 61/44/41 79/53/59
f 79/53/59 61/44/41 80/52/60
f 61/44/41 63/42/43 80/52/60
f 63/42/43 73/51/53 80/52/60
f 73/51/53 81/56/61 80/52/60
f 81/56/61 82/57/62 80/52/60
f 80/52/60 82/57/62 79/53/59
f 82/57/62 83/58/63 79/53/59
f 79/53/59 83/58/63 78/54/58
f 83/58/63 84/59/64 78/54/58
f 78/54/58 84/59/64 77/55/57
f 85/60/1 86/61/1 87/62/1
f 87/62/1 86/61/1 88/63/1
f 89/64/65 90/65/65 91/66/65
f 91/66/65 90/65/65 92/67/65
f 93/65/66 94/64/66 95/67/66
f 95/67/66 94/64/66 96/66/66
f 97/17/1 98/18/1 99/15/1
f 99/15/1 98/18/1 100/16/1
f 101/3/1 102/3/1 103/4/1
f 103/4/1 102/3/1 104/4/1
f 105/62/67 106/3/68 107/62/69
f 107/62/69 106/3/68 108/3/70
f 109/68/71 110/69/72 111/13/73
f 111/13/73 110/69/72 112/17/74
f 110/69/72 113/70/75 112/17/74
f 112/17/74 113/70/75 114/18/76
f 114/18/76 113/70/75 115/71/77
f 115/71/77 113/70/75 116/71/78
f 116/71/78 113/70/75 117/63/79
f 117/63/79 113/70/75 107/62/69
f 113/70/75 118/72/80 107/62/69
f 107/62/69 118/72/80 105/62/67
f 105/62/67 118/72/80 119/62/81
f 119/62/81 118/72/80 120/3/82
f 120/3/82 118/72/80 121/1/83
f 121/1/83 118/72/80 122/18/84
f 118/72/80 123/73/85 122/18/84
f 122/18/84 123/73/85 30/17/17
f 30/17/17 123/73/85 27/20/14
f 124/20/86 125/73/86 126/19/86
f 127/74/87 128/75/88 129/76/89
f 128/75/88 130/77/90 129/76/89
f 129/76/89 130/77/90 109/68/71
f 109/68/71 130/77/90 110/69/72
f 131/77/91 132/75/92 133/69/92
f 132/75/92 134/78/93 133/69/92
f 133/69/92 134/78/93 135/70/93
f 135/70/93 134/78/93 136/72/94
f 134/78/93 137/79/94 136/72/94
f 137/79/94 138/80/86 136/72/94
f 136/72/94 138/80/86 125/73/86
f 125/73/86 138/80/86 126/19/86
f 25/19/12 139/80/95 23/15/10
f 23/15/10 139/80/95 140/16/96
f 139/80/95 141/79/97 140/16/96
f 140/16/96 141/79/97 142/2/98
f 142/2/98 141/79/97 143/4/99
f 143/4/99 141/79/97 144/60/100
f 144/60/100 141/79/97 145/60/101
f 141/79/97 146/78/102 145/60/101
f 145/60/101 146/78/102 147/60/103
f 147/60/103 146/78/102 148/61/104
f 148/61/104 146/78/102 149/81/105
f 149/81/105 146/78/102 150/81/106
f 150/81/106 146/78/102 151/16/107
f 146/78/102 128/75/88 151/16/107
f 151/16/107 128/75/88 152/15/108
f 152/15/108 128/75/88 153/82/109
f 153/82/109 128/75/88 127/74/87
f 154/4/110 145/60/101 155/4/111
f 145/60/101 147/60/103 155/4/111
f 156/27/112 157/25/113 158/26/114
f 157/25/113 159/22/115 158/26/114
f 160/83/116 161/84/117 162/85/118
f 161/84/117 163/83/119 162/85/118
f 164/86/120 165/87/121 166/88/122
f 166/88/122 165/87/121 160/83/116
f 165/87/121 167/89/123 160/83/116
f 160/83/116 167/89/123 161/84/117
f 167/89/123 168/90/124 161/84/117
f 161/84/117 168/90/124 163/83/119
f 168/90/124 169/89/125 163/83/119
f 169/89/125 170/87/126 163/83/119
f 163/83/119 170/87/126 171/88/127
f 170/87/126 172/91/128 171/88/127
f 171/88/127 172/91/128 173/92/129
f 172/91/128 13/10/9 173/92/129
f 13/10/9 10/9/6 173/92/129
f 173/92/129 10/9/6 174/93/130
f 10/9/6 9/9/5 174/93/130
f 174/93/130 9/9/5 175/94/131
f 9/9/5 8/8/3 175/94/131
f 8/8/3 176/91/132 175/94/131
f 5/5/2 164/86/120 6/6/3
f 6/6/3 164/86/120 176/91/132
f 164/86/120 166/88/122 176/91/132
f 177/95/133 174/93/130 178/96/134
f 178/96/134 174/93/130 175/94/131
f 170/87/126 179/86/135 172/91/128
f 172/91/128 179/86/135 14/6/9
f 179/86/135 11/5/7 14/6/9
f 180/97/136 181/98/137 182/99/138
f 182/99/138 181/98/137 183/100/139
f 181/98/137 184/101/140 183/100/139
f 184/101/140 185/102/141 183/100/139
f 183/100/139 185/102/141 178/96/134
f 185/102/141 186/103/142 178/96/134
f 178/96/134 186/103/142 177/95/133
f 186/103/142 187/96/143 177/95/133
f 177/95/133 187/96/143 174/93/130
f 174/93/130 187/96/143 173/92/129
f 173/92/129 187/96/143 171/88/127
f 187/96/143 188/100/144 171/88/127
f 171/88/127 188/100/144 163/83/119
f 188/100/144 189/99/145 163/83/119
f 163/83/119 189/99/145 162/85/118
f 162/85/118 189/99/145 190/98/146
f 190/98/146 189/99/145 191/101/147
f 189/99/145 188/100/144 191/101/147
f 186/103/142 192/102/148 187/96/143
f 187/96/143 192/102/148 188/100/144
f 191/101/147 188/100/144 193/104/149
f 188/100/144 192/102/148 193/104/149
f 193/104/149 192/102/148 194/105/150
f 192/102/148 186/103/142 194/105/150
f 194/105/150 186/103/142 195/104/151
f 186/103/142 185/102/141 195/104/151
f 195/104/151 185/102/141 184/101/140
f 175/94/131 176/91/132 178/96/134
f 176/91/132 166/88/122 178/96/134
f 178/96/134 166/88/122 183/100/139
f 166/88/122 160/83/116 183/100/139
f 183/100/139 160/83/116 182/99/138
f 160/83/116 162/85/118 182/99/138
f 182/99/138 162/85/118 180/97/136
f 162/85/118 190/98/146 180/97/136
f 180/97/136 190/98/146 196/106/152
f 196/106/152 190/98/146 197/107/153
f 190/98/146 191/101/147 197/107/153
f 197/107/153 191/101/147 198/108/154
f 191/101/147 193/104/149 198/108/154
f 198/108/154 193/104/149 199/109/155
f 193/104/149 194/105/150 199/109/155
f 199/109/155 194/105/150 200/108/156
f 194/105/150 195/104/151 200/108/156
f 200/108/156 195/104/151 201/107/157
f 195/104/151 184/101/140 201/107/157
f 201/107/157 184/101/140 202/106/158
f 184/101/140 181/98/137 202/106/158
f 202/106/158 181/98/137 203/110/159
f 181/98/137 180/97/136 203/110/159
f 203/110/159 180/97/136 196/106/152
f 204/81/1 205/81/1 206/71/1
f 206/71/1 205/81/1 207/71/1
f 208/65/160 209/64/161 210/67/162
f 210/67/162 209/64/161 211/66/163
f 212/62/1 213/60/1 214/62/1
f 214/62/1 213/60/1 215/60/1
f 216/111/164 217/21/165 218/24/166
f 218/24/166 217/21/165 219/23/167
f 220/76/1 221/68/1 222/74/1
f 221/68/1 223/13/1 222/74/1
f 222/74/1 223/13/1 224/82/1
f 225/112/168 226/65/169 227/113/170
f 227/113/170 226/65/169 228/114/171
f 229/115/1 230/116/1 231/117/1
f 231/117/1 230/116/1 232/118/1
f 230/116/1 233/119/1 232/118/1
f 232/118/1 233/119/1 234/120/1
f 233/119/1 235/121/1 234/120/1
