# Blender 4.3.2
# www.blender.org
mtllib PiernaDer_H.mtl
o PiernaDer_Hercules
v -0.146091 0.078436 -0.212536
v -0.267858 -0.114174 -0.194668
v -0.238311 0.074626 -0.141223
v -0.002733 0.081266 -0.263180
v -0.070896 -0.145244 -0.280699
v 0.152008 0.082276 -0.284663
v 0.139032 -0.174534 -0.207853
v 0.213878 -0.140604 -0.187394
v 0.213878 -0.237004 0.072036
v 0.260112 -0.234084 0.101697
v 0.139031 -0.219164 -0.191417
v 0.147202 -0.426614 -0.182892
v -0.070875 -0.426614 -0.251448
v -0.070875 -0.760874 -0.207153
v -0.288953 -0.426614 -0.182893
v -0.260141 -0.766224 -0.146007
v -0.382448 -0.426614 0.101695
v -0.332947 -0.786374 0.084303
v -0.289403 -0.426614 0.344482
v -0.248441 -0.804754 0.303652
v -0.070875 -0.813234 0.400588
v -0.070875 -1.110514 0.284405
v 0.048634 -1.110514 0.216020
v 0.048634 -1.185934 0.241558
v 0.095958 -1.296274 0.008096
v 0.097848 -1.421954 0.116019
v 0.180100 -1.392354 -0.060127
v 0.127413 -1.586204 0.080465
v 0.220035 -1.599654 -0.115134
v -0.001353 -1.456234 0.158707
v -0.070875 -1.440964 0.187568
v -0.070875 -1.184524 0.309942
v -0.190384 -1.185934 0.241558
v -0.190384 -1.110514 0.216020
v -0.246081 -1.212654 0.023050
v -0.261951 -1.005644 0.065654
v -0.203479 -1.173404 -0.135526
v -0.203479 -0.995034 -0.071686
v -0.070876 -1.166054 -0.177060
v -0.070875 -0.989734 -0.116042
v 0.065829 -0.995034 -0.071686
v 0.118391 -0.766224 -0.146007
v 0.246694 -0.786374 0.084303
v 0.273009 -0.426614 0.101695
v -0.070875 -2.627534 0.294486
v 0.045382 -2.594120 -0.007982
v -0.070875 -2.536609 0.047985
v 0.113748 -2.690444 0.264466
v 0.131642 -2.713209 0.470795
v 0.139200 -2.836355 0.429233
v 0.123475 -2.759476 0.513409
v 0.094454 -2.836355 0.574439
v 0.094454 -2.767147 0.595343
v -0.070875 -2.836356 0.584801
v -0.070875 -2.743053 0.611378
v -0.316407 -2.778807 0.522518
v -0.070875 -2.730370 0.533720
v -0.317171 -2.767454 0.454264
v -0.070875 -2.681189 0.491155
v -0.325339 -2.740238 0.426232
v -0.290901 -2.715730 0.218485
v -0.204777 -2.602846 -0.016476
v 0.213878 0.082476 -0.286112
v 0.275749 0.082276 -0.284663
v 0.028742 -2.352619 -0.076570
v 0.074412 -2.543044 -0.168239
v 0.011024 -2.334034 -0.222908
v -0.070875 -2.360401 -0.015297
v -0.170492 -2.352619 -0.076570
v -0.221657 -2.586135 -0.168511
v -0.206639 -2.663618 -0.152067
v -0.116442 -2.570151 -0.323435
v -0.175572 -2.743963 -0.356916
v 0.033154 -2.743964 -0.356916
v -0.169818 -2.836356 -0.347710
v 0.027399 -2.836357 -0.347710
v -0.278208 -0.154784 -0.194072
v -0.372117 -0.140294 0.101698
v -0.278617 -0.154724 0.346411
v -0.070908 -0.186764 0.469018
v -0.070875 -0.426614 0.467743
v 0.139454 -0.219224 0.343760
v 0.147652 -0.426614 0.344482
v -0.239599 -1.421954 0.116019
v -0.321090 -1.355014 -0.049586
v -0.245909 -1.328434 -0.238127
v -0.070876 -1.315384 -0.288648
v -0.070876 -1.565584 -0.381979
v 0.104158 -1.328434 -0.238127
v 0.134829 -1.573264 -0.324414
v -0.059880 0.040906 0.491137
v -0.195765 0.045546 0.404036
v 0.043540 0.039086 0.525274
v 0.213878 -0.189874 0.382351
v 0.288302 -0.219224 0.343760
v 0.167644 -0.234084 0.101697
v -0.070875 -1.836414 0.112432
v -0.070875 -2.105829 0.042790
v 0.097539 -1.827774 0.043859
v -0.239290 -1.827774 0.043859
v -0.203719 -2.095791 -0.036247
v -0.317958 -1.805444 -0.132782
v -0.180091 -2.071818 -0.225012
v -0.245589 -1.781654 -0.320981
v -0.070876 -2.065678 -0.273359
v -0.070876 -1.774854 -0.372294
v 0.103838 -1.781654 -0.320981
v 0.213878 0.035826 0.541744
v -0.152775 -2.334034 -0.222908
v -0.070875 -2.329274 -0.260389
v 0.041960 -2.033831 -0.225012
v -0.140397 -1.456234 0.158707
v -0.269164 -1.586204 0.080465
v -0.361786 -1.599654 -0.115134
v -0.276580 -1.573264 -0.324414
v -0.025309 -2.570151 -0.323435
v 0.192417 -1.036564 0.065654
v 0.061728 -1.173404 -0.135526
v -0.070875 -1.596844 0.161110
v 0.176207 -1.805444 -0.132782
v -0.279181 0.052056 0.282024
v -0.309401 0.057506 0.179870
v -0.313463 0.066806 0.005430
v 0.140239 -0.803154 0.285337
v 0.060057 -2.622391 -0.151441
v 0.075101 -2.836355 -0.065179
v -0.331855 -2.836355 0.371858
v -0.301519 -2.836356 0.189378
v -0.251158 -2.836355 -0.083660
v -0.070896 -0.186774 -0.265406
v 0.122733 -2.836356 0.221595
v 0.065588 -2.057804 -0.036248
v -0.316407 -2.836355 0.507744
v 0.027399 -2.907534 -0.347710
v 0.027399 -2.836357 -0.347710
v 0.075101 -2.907533 -0.065179
v -0.169818 -2.907533 -0.347710
v -0.169818 -2.836356 -0.347710
v -0.251158 -2.907533 -0.083660
v -0.251158 -2.836355 -0.083660
v -0.301519 -2.836356 0.189378
v -0.301519 -2.907534 0.189378
v -0.331855 -2.907533 0.371858
v -0.331855 -2.836355 0.371858
v -0.316407 -2.907533 0.507744
v -0.316407 -2.836355 0.507744
v -0.070875 -2.836356 0.584801
v 0.122733 -2.836356 0.221595
v 0.139200 -2.907533 0.429233
v 0.122733 -2.907533 0.221595
v 0.139200 -2.836355 0.429233
v 0.094455 -2.907533 0.574439
v 0.094454 -2.836355 0.574439
v -0.070875 -2.907533 0.584801
v 0.075101 -2.836355 -0.065179
vn -0.6228 -0.5464 0.5600
vn 0.3949 -0.8254 -0.4035
vn -0.7045 0.2024 -0.6803
vn -0.0364 -0.9852 -0.1675
vn -0.1106 -0.1434 -0.9835
vn 0.3073 -0.9513 0.0246
vn 0.4768 -0.4101 -0.7775
vn 0.3976 -0.5944 -0.6990
vn 0.0105 0.9999 0.0039
vn 0.7843 0.6189 -0.0430
vn 0.7181 -0.0990 -0.6889
vn 0.6669 -0.0528 -0.7433
vn 0.0036 -0.0906 -0.9959
vn -0.0000 -0.2459 -0.9693
vn -0.7081 -0.0703 -0.7026
vn -0.6776 -0.2472 -0.6926
vn -0.9982 -0.0510 0.0300
vn -0.9760 -0.2178 0.0025
vn -0.7588 -0.0655 0.6480
vn -0.7360 -0.2295 0.6369
vn 0.0003 -0.2624 0.9650
vn 0.0006 -0.0247 0.9997
vn 0.7270 -0.1598 0.6678
vn 0.7563 -0.0148 0.6541
vn 0.9597 0.2308 0.1602
vn 0.7561 -0.0132 0.6544
vn 0.9447 0.2918 0.1497
vn 0.7300 -0.0851 0.6782
vn 0.9993 -0.0118 0.0347
vn 0.3828 -0.0900 0.9194
vn -0.0000 -0.2563 0.9666
vn -0.0000 -0.0486 0.9988
vn -0.7370 -0.0146 0.6758
vn -0.8078 -0.0832 0.5836
vn -0.9839 0.1465 0.1021
vn -0.9794 -0.1968 -0.0441
vn -0.6740 0.4120 -0.6132
vn -0.7107 -0.0678 -0.7002
vn -0.0008 0.4786 -0.8780
vn -0.0037 -0.0343 -0.9994
vn 0.6108 -0.1039 -0.7849
vn 0.6047 -0.2467 -0.7573
vn 0.9828 -0.1808 -0.0368
vn 0.9995 -0.0038 0.0301
vn 0.0215 0.7101 0.7038
vn -0.0278 0.9715 0.2354
vn 0.8960 0.3776 0.2337
vn 0.8166 0.5772 -0.0049
vn 0.7203 0.6030 0.3429
vn 0.9966 0.0110 0.0815
vn 0.8069 0.3706 0.4600
vn 0.6386 -0.1160 0.7608
vn 0.5313 0.4047 0.7443
vn -0.1239 -0.1374 0.9827
vn -0.0925 0.5373 0.8383
vn -0.6818 0.4188 0.5998
vn -0.0500 0.8842 0.4644
vn -0.8040 0.4822 0.3479
vn -0.0654 0.8409 0.5372
vn -0.7786 0.5547 0.2936
vn -0.8300 0.5569 -0.0310
vn -0.8913 0.4201 0.1704
vn -0.0000 -0.9935 0.1142
vn -0.8264 -0.5607 -0.0521
vn 0.8357 0.1019 -0.5396
vn 0.9033 0.0508 0.4261
vn 0.9766 -0.0090 -0.2147
vn 0.0052 0.0547 0.9985
vn -0.9065 0.0540 0.4187
vn -0.9677 -0.0359 -0.2497
vn -0.9794 0.0669 -0.1904
vn -0.4569 0.2297 -0.8594
vn -0.6145 0.1082 -0.7814
vn 0.6406 0.0782 -0.7639
vn -0.5944 -0.0583 -0.8020
vn 0.6473 -0.0578 -0.7601
vn -0.7323 0.0775 -0.6765
vn -0.9926 0.1191 0.0218
vn -0.7760 0.0526 0.6285
vn -0.0816 -0.1216 0.9892
vn 0.0033 -0.0829 0.9966
vn 0.5098 -0.4552 0.7300
vn 0.7160 -0.0441 0.6967
vn -0.7289 -0.0538 0.6825
vn -0.9600 0.2660 0.0878
vn -0.6346 0.4276 -0.6438
vn -0.0000 0.4749 -0.8800
vn -0.0000 0.1557 -0.9878
vn 0.6447 0.4326 -0.6303
vn 0.6640 0.1107 -0.7395
vn 0.1043 -0.9687 0.2254
vn -0.0999 -0.9944 -0.0347
vn 0.3252 -0.9358 -0.1361
vn 0.0047 -0.7811 0.6244
vn 0.0223 0.9985 -0.0502
vn 0.0660 0.9960 -0.0601
vn 0.0180 0.9974 -0.0702
vn 0.6866 -0.2414 0.6858
vn -0.0000 -0.2245 0.9745
vn 0.0160 -0.2742 0.9615
vn -0.6855 -0.2327 0.6898
vn -0.8570 -0.2872 0.4278
vn -0.9630 -0.2682 -0.0278
vn -0.7592 -0.2691 -0.5927
vn -0.6317 -0.2331 -0.7393
vn 0.0191 -0.2210 -0.9751
vn -0.0000 -0.1862 -0.9825
vn 0.6327 -0.2441 -0.7349
vn -0.6766 -0.7218 -0.1458
vn -0.8093 0.0883 -0.5808
vn 0.0009 0.1386 -0.9903
vn 0.8058 -0.3067 -0.5066
vn -0.3828 -0.0900 0.9194
vn -0.7258 -0.0923 0.6817
vn -0.9999 -0.0126 0.0061
vn -0.6641 0.1105 -0.7394
vn 0.4578 0.2360 -0.8572
vn 0.9530 -0.2823 -0.1102
vn 0.7237 0.3953 -0.5657
vn -0.0000 -0.1894 0.9819
vn 0.9558 -0.2884 -0.0580
vn -0.3142 -0.9160 -0.2493
vn -0.1443 -0.8956 0.4208
vn -0.0987 -0.8988 -0.4271
vn 0.7007 -0.2141 0.6806
vn 0.9940 -0.0140 -0.1082
vn 0.9931 0.0631 -0.0985
vn -0.9979 0.0508 -0.0413
vn -0.9829 0.0639 -0.1729
vn -0.9700 0.1197 -0.2115
vn -0.0226 -0.2058 -0.9783
vn 0.9910 0.0384 -0.1283
vn 0.8659 -0.3028 0.3980
vn -0.7916 -0.0738 0.6066
vn 0.6977 -0.7068 -0.1168
vn 0.5228 -0.5867 -0.6185
vn 0.6456 -0.0000 -0.7637
vn -0.4775 -0.5947 -0.6467
vn -0.5940 -0.0000 -0.8045
vn -0.6990 -0.6943 -0.1715
vn -0.9712 -0.0000 -0.2383
vn -0.9850 -0.0000 -0.1727
vn -0.6984 -0.7051 -0.1225
vn -0.7355 -0.6772 -0.0190
vn -0.9997 -0.0000 -0.0258
vn -0.6156 -0.6025 0.5080
vn -0.7713 -0.0000 0.6365
vn -0.1205 -0.0000 0.9927
vn 0.7112 -0.6976 -0.0871
vn 0.9926 -0.0000 -0.1216
vn 0.7404 -0.6672 0.0817
vn 0.9940 -0.0000 0.1097
vn 0.4956 -0.5988 0.6291
vn 0.6188 -0.0000 0.7855
vn -0.0896 -0.6683 0.7385
vn 0.9863 -0.0000 -0.1652
vt 0.794922 1.997314
vt 0.831055 1.997314
vt 0.800537 1.929932
vt 0.875977 1.997314
vt 0.861572 1.916504
vt 0.920166 1.997314
vt 0.925781 1.906738
vt 0.947266 1.933594
vt 0.994141 1.873535
vt 0.996582 1.801514
vt 0.923096 1.828369
vt 0.914795 1.743652
vt 0.852051 1.751221
vt 0.844727 1.624756
vt 0.788330 1.757568
vt 0.784668 1.629883
vt 0.708740 1.760254
vt 0.711914 1.625000
vt 0.630371 1.766602
vt 0.629150 1.626953
vt 0.551025 1.628174
vt 0.560791 1.527100
vt 0.502441 1.524658
vt 0.513428 1.479736
vt 0.441162 1.427246
vt 0.484619 1.386475
vt 0.424316 1.377930
vt 0.482422 1.322754
vt 0.415771 1.298828
vt 0.519775 1.370850
vt 0.560791 1.387451
vt 0.560791 1.484619
vt 0.614990 1.482178
vt 0.631104 1.524658
vt 0.694336 1.461914
vt 0.707764 1.541748
vt 0.760986 1.459473
vt 0.773193 1.534912
vt 0.836670 1.456787
vt 0.833496 1.529053
vt 0.894287 1.522705
vt 0.904297 1.615967
vt 0.965820 1.597168
vt 0.987549 1.729004
vt 0.208984 1.652832
vt 0.193359 1.772217
vt 0.278809 1.644287
vt 0.290527 1.769043
vt 0.277588 1.851807
vt 0.325928 1.852539
vt 0.279053 1.877197
vt 0.282959 1.938477
vt 0.264648 1.913574
vt 0.179199 1.948730
vt 0.179199 1.912354
vt 0.085693 1.903809
vt 0.179199 1.882568
vt 0.083740 1.869141
vt 0.179199 1.856689
vt 0.084229 1.846924
vt 0.083008 1.764404
vt 0.094971 1.653320
vt 0.937256 1.997314
vt 0.222412 1.281738
vt 0.250732 1.322510
vt 0.293213 1.285156
vt 0.347656 1.344238
vt 0.249512 1.373535
vt 0.315674 1.412842
vt 0.209473 1.409668
vt 0.277588 1.478271
vt 0.214844 1.489502
vt 0.228027 1.512695
vt 0.150635 1.514404
vt 0.178955 1.576904
vt 0.105225 1.592285
vt 0.190186 1.608154
vt 0.104980 1.624023
vt 0.795654 1.859375
vt 0.712402 1.866699
vt 0.631104 1.866699
vt 0.537354 1.862061
vt 0.539795 1.771973
vt 0.454834 1.843262
vt 0.461182 1.766846
vt 0.361572 1.809326
vt 0.382080 1.747070
vt 0.643799 1.385254
vt 0.702637 1.400146
vt 0.762207 1.390137
vt 0.825684 1.387451
vt 0.819580 1.298584
vt 0.882813 1.386230
vt 0.875732 1.298584
vt 0.938965 1.298584
vt 0.597656 1.943848
vt 0.540771 1.947510
vt 0.500732 1.960449
vt 0.403564 1.927734
vt 0.364258 1.866699
vt 0.082764 1.256104
vt 0.140625 1.256348
vt 0.140625 1.155762
vt 0.199219 1.253906
vt 0.199219 1.152344
vt 0.276611 1.248291
vt 0.279297 1.136230
vt 0.350342 1.222900
vt 0.326904 1.103271
vt 0.405518 1.183105
vt 0.450684 1.133789
vt 0.423584 1.996826
vt 0.082764 1.059082
vt 0.140625 1.061035
vt 0.199219 1.059326
vt 0.239502 1.048828
vt 0.270264 1.029541
vt 0.296875 1.005127
vt 0.376465 1.066895
vt 0.604736 1.367920
vt 0.650635 1.321289
vt 0.706543 1.306885
vt 0.757813 1.298584
vt 0.039551 1.512207
vt 0.112305 1.524170
vt 0.088135 1.442871
vt 0.117920 1.429199
vt 0.157227 1.424561
vt 0.957275 1.509033
vt 0.949219 1.417725
vt 0.887451 1.447510
vt 0.944824 1.371338
vt 0.798828 1.192139
vt 0.723877 1.192139
vt 0.723877 1.272949
vt 0.642578 1.192139
vt 0.642578 1.272949
vt 0.568115 1.272949
vt 0.594238 1.328613
vt 0.568115 1.335693
vt 0.421387 1.192139
vt 0.421387 1.272949
vt 0.494141 1.192139
vt 0.494141 1.272949
vt 0.539795 1.327148
vt 0.656738 1.941406
vt 0.685547 1.942383
vt 0.746338 1.961426
vt 0.402588 1.613770
vt 0.472900 1.626465
vt 0.420166 1.528564
vt 0.034180 1.540771
vt 0.005127 1.604980
vt 0.043213 1.835693
vt 0.033691 1.762451
vt 0.007324 1.667236
vt 0.857910 1.843018
vt 0.995850 1.272949
vt 0.931396 1.192139
vt 0.931396 1.272949
vt 0.865967 1.272949
vt 0.865967 1.192139
vt 0.336914 1.757568
vt 0.356201 1.649658
vt 0.005859 1.146484
vt 0.002197 1.246094
vt 0.082764 1.167236
vt 0.273193 1.553711
vt 0.067627 1.933105
vt 0.037842 1.046143
vt 0.324463 1.282227
vt 0.394775 1.274902
vt 0.484131 1.067627
vt 0.568115 1.192139
vt 0.798828 1.272949
vt 0.995850 1.192139
vt 0.165771 1.766113
vt 0.165771 1.664063
vt 0.093750 1.664063
vt 0.165771 1.593994
vt 0.093750 1.593994
vt 0.165771 1.495605
vt 0.093750 1.495605
vt 0.093750 1.396729
vt 0.165771 1.396729
vt 0.165771 1.331055
vt 0.093750 1.331055
vt 0.165771 1.282227
vt 0.093750 1.282227
vt 0.093750 1.190674
vt 0.165771 1.003662
vt 0.093750 1.003662
vt 0.165771 1.077637
vt 0.093750 1.077637
vt 0.165771 1.131836
vt 0.093750 1.131836
vt 0.417236 1.384766
vt 0.513428 1.554932
vt 0.498291 1.389893
vt 0.610352 1.406494
vt 0.619629 1.533691
vt 0.721924 1.500244
vt 0.442383 1.568115
vt 0.389404 1.562744
vt 0.360840 1.403076
vt 0.357910 1.467529
vt 0.165771 1.869629
vt 0.093750 1.869629
vt 0.093750 1.766113
vt 0.165771 1.190674
vt 0.720703 1.423340
s 1
usemtl legs
f 3/1/1 1/2/2 2/3/3
f 1/2/2 4/4/4 2/3/3
f 2/3/3 4/4/4 5/5/5
f 4/4/4 6/6/6 5/5/5
f 5/5/5 6/6/6 7/7/7
f 6/6/6 8/8/8 7/7/7
f 7/7/7 8/8/8 9/9/9
f 9/9/9 10/10/10 11/11/11
f 10/10/10 12/12/12 11/11/11
f 11/11/11 12/12/12 13/13/13
f 12/12/12 14/14/14 13/13/13
f 13/13/13 14/14/14 15/15/15
f 14/14/14 16/16/16 15/15/15
f 15/15/15 16/16/16 17/17/17
f 16/16/16 18/18/18 17/17/17
f 17/17/17 18/18/18 19/19/19
f 18/18/18 20/20/20 19/19/19
f 19/19/19 20/20/20 21/21/21
f 20/20/20 22/22/22 21/21/21
f 21/21/21 22/22/22 23/23/23
f 22/22/22 24/24/24 23/23/23
f 23/23/23 24/24/24 25/25/25
f 24/24/24 26/26/26 25/25/25
f 25/25/25 26/26/26 27/27/27
f 26/26/26 28/28/28 27/27/27
f 27/27/27 28/28/28 29/29/29
f 28/28/28 26/26/26 30/30/30
f 30/30/30 26/26/26 31/31/31
f 26/26/26 24/24/24 31/31/31
f 31/31/31 24/24/24 32/32/32
f 24/24/24 22/22/22 32/32/32
f 32/32/32 22/22/22 33/33/33
f 22/22/22 34/34/34 33/33/33
f 33/33/33 34/34/34 35/35/35
f 34/34/34 36/36/36 35/35/35
f 35/35/35 36/36/36 37/37/37
f 36/36/36 38/38/38 37/37/37
f 37/37/37 38/38/38 39/39/39
f 38/38/38 40/40/40 39/39/39
f 39/39/39 40/40/40 41/41/41
f 40/40/40 42/42/42 41/41/41
f 41/41/41 42/42/42 43/43/43
f 42/42/42 12/12/12 43/43/43
f 43/43/43 12/12/12 44/44/44
f 12/12/12 10/10/10 44/44/44
f 47/45/45 45/46/46 46/47/47
f 46/47/47 45/46/46 48/48/48
f 45/46/46 49/49/49 48/48/48
f 48/48/48 49/49/49 50/50/50
f 49/49/49 51/51/51 50/50/50
f 50/50/50 51/51/51 52/52/52
f 51/51/51 53/53/53 52/52/52
f 52/52/52 53/53/53 54/54/54
f 53/53/53 55/55/55 54/54/54
f 54/54/54 55/55/55 56/56/56
f 55/55/55 57/57/57 56/56/56
f 56/56/56 57/57/57 58/58/58
f 57/57/57 59/59/59 58/58/58
f 58/58/58 59/59/59 60/60/60
f 59/59/59 45/46/46 60/60/60
f 60/60/60 45/46/46 61/61/61
f 45/46/46 47/45/45 61/61/61
f 61/61/61 47/45/45 62/62/62
f 6/6/6 63/63/63 8/8/8
f 63/63/63 64/6/64 8/8/8
f 67/64/65 65/65/66 66/66/67
f 66/66/67 65/65/66 46/67/47
f 65/65/66 68/68/68 46/67/47
f 46/67/47 68/68/68 47/69/45
f 68/68/68 69/70/69 47/69/45
f 47/69/45 69/70/69 62/71/62
f 69/70/69 70/72/70 62/71/62
f 62/71/62 70/72/70 71/73/71
f 70/72/70 72/74/72 71/73/71
f 71/73/71 72/74/72 73/75/73
f 72/74/72 74/76/74 73/75/73
f 73/75/73 74/76/74 75/77/75
f 74/76/74 76/78/76 75/77/75
f 5/5/5 77/79/77 2/3/3
f 2/3/3 77/79/77 78/80/78
f 77/79/77 17/17/17 78/80/78
f 78/80/78 17/17/17 79/81/79
f 17/17/17 19/19/19 79/81/79
f 79/81/79 19/19/19 80/82/80
f 19/19/19 81/83/81 80/82/80
f 80/82/80 81/83/81 82/84/82
f 81/83/81 83/85/83 82/84/82
f 82/84/82 83/85/83 10/86/10
f 83/85/83 44/87/44 10/86/10
f 32/32/32 33/33/33 31/31/31
f 31/31/31 33/33/33 84/88/84
f 33/33/33 35/35/35 84/88/84
f 84/88/84 35/35/35 85/89/85
f 35/35/35 37/37/37 85/89/85
f 85/89/85 37/37/37 86/90/86
f 37/37/37 87/91/87 86/90/86
f 86/90/86 87/91/87 88/92/88
f 87/91/87 89/93/89 88/92/88
f 88/92/88 89/93/89 90/94/90
f 89/93/89 29/95/29 90/94/90
f 92/96/91 80/82/80 91/97/92
f 91/97/92 80/82/80 93/98/93
f 80/82/80 82/84/82 93/98/93
f 93/98/93 82/84/82 94/99/94
f 82/84/82 9/100/9 94/99/94
f 9/100/95 96/86/96 95/84/97
f 99/101/98 97/102/99 98/103/100
f 97/102/99 100/104/101 98/103/100
f 98/103/100 100/104/101 101/105/102
f 100/104/101 102/106/103 101/105/102
f 101/105/102 102/106/103 103/107/104
f 102/106/103 104/108/105 103/107/104
f 103/107/104 104/108/105 105/109/106
f 104/108/105 106/110/107 105/109/106
f 105/109/106 106/110/107 107/111/108
f 93/98/93 94/99/94 108/112/109
f 65/113/66 98/103/100 68/114/68
f 68/114/68 98/103/100 69/115/69
f 98/103/100 101/105/102 69/115/69
f 69/115/69 101/105/102 109/116/110
f 101/105/102 103/107/104 109/116/110
f 109/116/110 103/107/104 110/117/111
f 103/107/104 105/109/106 110/117/111
f 110/117/111 105/109/106 67/118/65
f 105/109/106 111/119/112 67/118/65
f 34/34/34 18/18/18 36/36/36
f 36/36/36 18/18/18 38/38/38
f 18/18/18 16/16/16 38/38/38
f 38/38/38 16/16/16 40/40/40
f 16/16/16 14/14/14 40/40/40
f 40/40/40 14/14/14 42/42/42
f 14/14/14 12/12/12 42/42/42
f 31/31/31 84/88/84 112/120/113
f 112/120/113 84/88/84 113/121/114
f 84/88/84 85/89/85 113/121/114
f 113/121/114 85/89/85 114/122/115
f 85/89/85 86/90/86 114/122/115
f 114/122/115 86/90/86 115/123/116
f 86/90/86 88/92/88 115/123/116
f 66/124/67 116/125/117 67/126/65
f 67/126/65 116/125/117 110/127/111
f 116/125/117 72/74/72 110/127/111
f 110/127/111 72/74/72 109/128/110
f 72/74/72 70/72/70 109/128/110
f 109/128/110 70/72/70 69/70/69
f 43/43/43 117/129/118 41/41/41
f 117/129/118 25/130/25 41/41/41
f 41/41/41 25/130/25 118/131/119
f 25/130/25 27/132/27 118/131/119
f 118/131/119 27/132/27 89/93/89
f 27/132/27 29/95/29 89/93/89
f 104/133/105 102/134/103 114/135/115
f 102/134/103 100/136/101 114/135/115
f 114/135/115 100/136/101 113/137/114
f 100/136/101 119/138/120 113/137/114
f 113/137/114 119/138/120 112/139/113
f 119/138/120 31/140/31 112/139/113
f 45/46/46 59/59/59 49/49/49
f 49/49/49 59/59/59 51/51/51
f 59/59/59 57/57/57 51/51/51
f 51/51/51 57/57/57 53/53/53
f 57/57/57 55/55/55 53/53/53
f 120/141/121 29/142/29 99/143/98
f 29/142/29 28/144/28 99/143/98
f 99/143/98 28/144/28 119/138/120
f 28/144/28 30/145/30 119/138/120
f 119/138/120 30/145/30 31/140/31
f 92/96/91 121/146/122 79/81/79
f 121/146/122 122/147/123 79/81/79
f 79/81/79 122/147/123 78/80/78
f 122/147/123 123/148/124 78/80/78
f 78/80/78 123/148/124 3/1/1
f 44/87/44 83/85/83 43/149/43
f 83/85/83 124/150/125 43/149/43
f 43/149/43 124/150/125 117/151/118
f 124/150/125 23/23/23 117/151/118
f 117/151/118 23/23/23 25/25/25
f 66/124/67 125/152/126 116/125/117
f 116/125/117 125/152/126 74/76/74
f 125/152/126 126/153/127 74/76/74
f 74/76/74 126/153/127 76/78/76
f 58/58/58 60/60/60 127/154/128
f 60/60/60 61/61/61 127/154/128
f 127/154/128 61/61/61 128/155/129
f 61/61/61 129/156/130 128/155/129
f 7/7/7 130/157/131 5/5/5
f 5/5/5 130/157/131 77/79/77
f 130/157/131 15/15/15 77/79/77
f 77/79/77 15/15/15 17/17/17
f 9/9/9 11/11/11 7/7/7
f 7/7/7 11/11/11 130/157/131
f 11/11/11 13/13/13 130/157/131
f 130/157/131 13/13/13 15/15/15
f 29/158/29 107/159/108 90/160/90
f 90/160/90 107/159/108 88/161/88
f 107/159/108 106/162/107 88/161/88
f 88/161/88 106/162/107 104/133/105
f 50/50/50 131/163/132 48/48/48
f 48/48/48 131/163/132 46/47/47
f 131/163/132 126/164/127 46/47/47
f 111/165/112 120/166/121 132/167/133
f 120/166/121 99/101/98 132/167/133
f 132/167/133 99/101/98 98/103/100
f 75/77/75 129/168/130 73/75/73
f 73/75/73 129/168/130 71/73/71
f 129/168/130 62/71/62 71/73/71
f 58/58/58 127/154/128 56/56/56
f 127/154/128 133/169/134 56/56/56
f 56/56/56 133/169/134 54/54/54
f 41/41/41 118/131/119 39/39/39
f 118/131/119 87/91/87 39/39/39
f 39/39/39 87/91/87 37/37/37
f 98/103/100 65/113/66 132/167/133
f 65/113/66 67/170/65 132/167/133
f 132/167/133 67/170/65 111/165/112
f 81/83/81 21/21/21 83/85/83
f 83/85/83 21/21/21 124/150/125
f 21/21/21 23/23/23 124/150/125
f 66/66/67 46/67/47 125/171/126
f 125/171/126 46/67/47 126/172/127
f 120/173/121 111/119/112 107/111/108
f 107/111/108 111/119/112 105/109/106
f 18/18/18 34/34/34 20/20/20
f 20/20/20 34/34/34 22/22/22
f 99/143/98 119/138/120 97/174/99
f 97/174/99 119/138/120 100/136/101
f 114/135/115 115/175/116 104/133/105
f 115/175/116 88/161/88 104/133/105
f 62/62/62 129/156/130 61/61/61
f 9/100/9 82/84/82 10/86/10
f 2/3/3 78/80/78 3/1/1
f 92/96/91 79/81/79 80/82/80
f 72/74/72 116/125/117 74/76/74
f 118/131/119 89/93/89 87/91/87
f 29/158/29 120/176/121 107/159/108
f 21/21/21 81/83/81 19/19/19
usemtl skirt
f 136/177/135 134/178/136 135/179/137
f 134/178/136 137/180/138 135/179/137
f 135/179/137 137/180/138 138/181/139
f 137/180/138 139/182/140 138/181/139
f 138/181/139 139/182/140 140/183/141
f 139/182/140 141/184/142 140/183/141
f 139/182/140 142/185/143 141/184/142
f 142/185/143 143/186/144 141/184/142
f 141/184/142 143/186/144 144/187/145
f 143/186/144 145/188/146 144/187/145
f 144/187/145 145/188/146 146/189/147
f 145/188/146 147/190/148 146/189/147
f 150/191/149 148/192/150 149/193/151
f 148/192/150 151/194/152 149/193/151
f 149/193/151 151/194/152 152/195/153
f 151/194/152 153/196/154 152/195/153
f 152/195/153 153/196/154 147/190/148
f 149/197/151 142/198/143 150/199/149
f 150/199/149 142/198/143 136/200/135
f 142/198/143 139/201/140 136/200/135
f 136/200/135 139/201/140 137/202/138
f 142/198/143 149/197/151 143/203/144
f 143/203/144 149/197/151 145/204/146
f 149/197/151 152/205/153 145/204/146
f 145/204/146 152/205/153 154/206/155
f 150/207/149 136/177/135 148/208/150
f 148/208/150 136/177/135 155/209/156
f 136/177/135 135/179/137 155/209/156
f 145/188/146 154/210/155 147/190/148
f 154/210/155 152/195/153 147/190/148
f 137/202/138 134/211/136 136/200/135
