# Blender 4.3.2
# www.blender.org
mtllib PiernaIzq_H.mtl
o PiernaIzq_Hercules
v -0.242619 -0.111593 -0.187394
v -0.242619 -0.207993 0.072036
v -0.167772 -0.145523 -0.207853
v -0.167772 -0.190153 -0.191417
v 0.042155 -0.157763 -0.265406
v 0.042134 -0.397603 -0.251448
v 0.260212 -0.397603 -0.182892
v 0.042134 -0.731863 -0.207153
v 0.231401 -0.737213 -0.146007
v 0.042134 -0.960723 -0.116042
v 0.174738 -0.966023 -0.071686
v 0.042134 -1.137043 -0.177060
v 0.174738 -1.144393 -0.135526
v 0.042134 -1.286373 -0.288648
v 0.217168 -1.299423 -0.238127
v 0.042134 -1.536573 -0.381979
v 0.247839 -1.544253 -0.324414
v 0.042134 -2.507598 0.047986
v 0.262160 -2.686718 0.218485
v 0.176036 -2.573835 -0.016476
v 0.042135 -2.598523 0.294486
v 0.296599 -2.711226 0.426232
v 0.042135 -2.652178 0.491156
v 0.288431 -2.738444 0.454263
v 0.042135 -2.701360 0.533720
v 0.287666 -2.749795 0.522518
v 0.042135 -2.714043 0.611378
v 0.042135 -2.807344 0.584801
v -0.123195 -2.738137 0.595343
v -0.123195 -2.807343 0.574439
v -0.152216 -2.730464 0.513409
v -0.167941 -2.807345 0.429234
v -0.160382 -2.684199 0.470795
v -0.142488 -2.661433 0.264467
v -0.074123 -2.565109 -0.007982
v -0.180748 0.111287 -0.284663
v 0.042155 -0.116233 -0.280699
v 0.249467 -0.125772 -0.194072
v 0.353707 -0.397603 0.101695
v 0.304206 -0.757363 0.084303
v 0.233210 -0.976633 0.065654
v 0.217340 -1.183643 0.023050
v 0.292349 -1.326003 -0.049586
v 0.210858 -1.392943 0.116019
v 0.240423 -1.557193 0.080465
v 0.111656 -1.427223 0.158707
v -0.126589 -1.392943 0.116019
v -0.124699 -1.267263 0.008096
v -0.208841 -1.363343 -0.060127
v -0.077375 -1.156923 0.241558
v 0.042134 -1.411953 0.187568
v 0.042135 -1.155513 0.309942
v 0.161643 -1.156923 0.241558
v 0.042134 -1.081503 0.284405
v 0.161643 -1.081503 0.216020
v 0.219700 -0.775743 0.303652
v 0.260662 -0.397603 0.344482
v 0.249876 -0.125713 0.346411
v 0.343376 -0.111283 0.101698
v 0.280660 0.086517 0.179870
v 0.284722 0.095817 0.005430
v -0.103153 -2.514033 -0.168238
v -0.057483 -2.323608 -0.076570
v -0.039765 -2.305023 -0.222908
v 0.042134 -2.331390 -0.015298
v 0.141751 -2.323606 -0.076570
v 0.192916 -2.557124 -0.168511
v 0.177898 -2.634607 -0.152067
v 0.087700 -2.541140 -0.323435
v 0.146831 -2.714952 -0.356916
v -0.061895 -2.714953 -0.356916
v 0.141077 -2.807345 -0.347710
v -0.056141 -2.807345 -0.347710
v -0.132899 -1.299423 -0.238127
v -0.163570 -1.544253 -0.324414
v -0.090469 -1.144393 -0.135526
v -0.094570 -0.966023 -0.071686
v -0.147132 -0.737213 -0.146007
v -0.175943 -0.397603 -0.182892
v -0.242619 -0.160863 0.382351
v -0.168195 -0.190212 0.343760
v -0.288853 -0.205073 0.101697
v -0.176393 -0.397603 0.344482
v -0.301750 -0.397603 0.101695
v -0.275435 -0.757363 0.084303
v 0.042134 -1.745843 -0.372294
v 0.042134 -2.036667 -0.273359
v -0.132580 -1.752643 -0.320981
v 0.216848 -1.752643 -0.320981
v 0.151350 -2.042807 -0.225012
v 0.289217 -1.776433 -0.132782
v 0.174978 -2.066780 -0.036248
v 0.210549 -1.798763 0.043859
v 0.042134 -2.076818 0.042790
v 0.042134 -1.807403 0.112432
v -0.126280 -1.798763 0.043859
v -0.242619 0.064837 0.541744
v -0.072281 0.068097 0.525274
v 0.042167 -0.157753 0.469018
v 0.042134 -0.397603 0.467744
v 0.042134 -0.784223 0.400588
v -0.070701 -2.004820 -0.225012
v 0.042134 -2.300263 -0.260389
v 0.124034 -2.305023 -0.222908
v -0.221158 -1.007553 0.065654
v -0.248776 -1.570643 -0.115134
v -0.003432 -2.541141 -0.323435
v -0.077375 -1.081503 0.216020
v -0.168980 -0.774132 0.285337
v 0.333045 -1.570643 -0.115134
v 0.042134 -1.567833 0.161110
v -0.204948 -1.776433 -0.132782
v -0.156154 -1.557193 0.080465
v -0.027388 -1.427223 0.158707
v 0.250439 0.081067 0.282024
v 0.167024 0.074558 0.404036
v 0.031138 0.069917 0.491137
v -0.026008 0.110277 -0.263178
v 0.239117 -0.085163 -0.194668
v 0.272778 -2.807345 0.189378
v 0.222417 -2.807345 -0.083660
v 0.303115 -2.807345 0.371858
v -0.103842 -2.807345 -0.065179
v -0.088798 -2.593379 -0.151441
v 0.209570 0.103637 -0.141223
v 0.117351 0.107447 -0.212536
v 0.287666 -2.807344 0.507744
v -0.094329 -2.028793 -0.036247
v -0.151474 -2.807345 0.221595
v -0.123195 -2.878523 0.574439
v -0.123195 -2.807343 0.574439
v -0.167941 -2.807345 0.429234
v 0.042135 -2.807344 0.584801
v 0.042135 -2.878523 0.584801
v 0.287666 -2.807344 0.507744
v 0.287667 -2.878523 0.507744
v 0.303115 -2.807345 0.371858
v 0.303115 -2.878523 0.371858
v 0.272778 -2.807345 0.189378
v 0.272778 -2.878523 0.189378
v 0.222417 -2.878523 -0.083660
v -0.167941 -2.878523 0.429233
v -0.151473 -2.878523 0.221595
v -0.103842 -2.878523 -0.065179
v 0.141077 -2.878523 -0.347710
v 0.222417 -2.807345 -0.083660
v 0.141077 -2.807345 -0.347710
v -0.056141 -2.807345 -0.347710
v -0.056141 -2.878523 -0.347710
v -0.103842 -2.807345 -0.065179
v -0.151474 -2.807345 0.221595
vn -0.4544 -0.6122 -0.6471
vn -0.4768 -0.4101 -0.7775
vn -0.0001 0.9979 0.0644
vn -0.7181 -0.0990 -0.6889
vn 0.0226 -0.2058 -0.9783
vn -0.0036 -0.0906 -0.9959
vn 0.7081 -0.0703 -0.7026
vn -0.0000 -0.2459 -0.9693
vn 0.6776 -0.2472 -0.6926
vn 0.0037 -0.0343 -0.9994
vn 0.7107 -0.0678 -0.7002
vn 0.0008 0.4786 -0.8780
vn 0.6740 0.4120 -0.6132
vn -0.0000 0.4749 -0.8800
vn 0.6346 0.4276 -0.6438
vn -0.0000 0.1555 -0.9878
vn 0.6641 0.1107 -0.7394
vn 0.8913 0.4201 0.1704
vn -0.0215 0.7097 0.7041
vn 0.8300 0.5569 -0.0310
vn 0.0278 0.9715 0.2354
vn 0.7786 0.5547 0.2936
vn 0.0654 0.8409 0.5372
vn 0.8041 0.4822 0.3479
vn 0.0500 0.8842 0.4644
vn 0.6818 0.4188 0.5998
vn 0.0925 0.5373 0.8383
vn 0.1239 -0.1374 0.9827
vn -0.5313 0.4047 0.7443
vn -0.6385 -0.1160 0.7608
vn -0.8069 0.3706 0.4600
vn -0.9966 0.0110 0.0815
vn -0.7203 0.6030 0.3429
vn -0.8166 0.5772 -0.0049
vn -0.8960 0.3776 0.2337
vn 0.4242 -0.9036 -0.0602
vn 0.1106 -0.1434 -0.9835
vn 0.7323 0.0775 -0.6765
vn 0.9982 -0.0510 0.0300
vn 0.9760 -0.2178 0.0025
vn 0.9794 -0.1968 -0.0441
vn 0.9839 0.1465 0.1021
vn 0.9600 0.2660 0.0878
vn 0.7289 -0.0538 0.6825
vn 0.7258 -0.0923 0.6817
vn 0.3828 -0.0900 0.9194
vn -0.9447 0.2918 0.1498
vn -0.7561 -0.0132 0.6544
vn -0.9597 0.2308 0.1602
vn -0.7563 -0.0148 0.6541
vn -0.0000 -0.2563 0.9666
vn -0.0000 -0.0486 0.9988
vn 0.7370 -0.0146 0.6758
vn -0.0006 -0.0247 0.9997
vn 0.8078 -0.0832 0.5836
vn 0.7360 -0.2295 0.6369
vn 0.7588 -0.0655 0.6480
vn 0.7760 0.0526 0.6285
vn 0.9926 0.1191 0.0218
vn 0.1442 -0.8956 0.4209
vn 0.0986 -0.8988 -0.4271
vn -0.8357 0.1019 -0.5396
vn -0.9766 -0.0090 -0.2147
vn -0.9033 0.0508 0.4261
vn -0.0051 0.0547 0.9985
vn 0.9065 0.0540 0.4187
vn 0.9677 -0.0359 -0.2497
vn 0.9794 0.0669 -0.1904
vn 0.4569 0.2297 -0.8594
vn 0.6145 0.1082 -0.7814
vn -0.6406 0.0782 -0.7639
vn 0.5944 -0.0583 -0.8020
vn -0.6473 -0.0578 -0.7601
vn -0.6640 0.1107 -0.7395
vn -0.6447 0.4326 -0.6303
vn -0.7237 0.3953 -0.5657
vn -0.6108 -0.1039 -0.7849
vn -0.6047 -0.2467 -0.7573
vn -0.6669 -0.0528 -0.7433
vn -0.0047 -0.7811 0.6244
vn -0.2976 -0.9406 0.1636
vn -0.5014 -0.4807 0.7194
vn -0.9796 0.1923 0.0585
vn -0.7160 -0.0441 0.6967
vn -0.9995 -0.0038 0.0302
vn -0.9828 -0.1808 -0.0368
vn -0.6327 -0.2441 -0.7349
vn -0.0000 -0.1862 -0.9825
vn -0.0191 -0.2210 -0.9751
vn 0.6317 -0.2331 -0.7393
vn 0.7592 -0.2691 -0.5927
vn 0.9630 -0.2682 -0.0278
vn 0.8570 -0.2872 0.4278
vn 0.6855 -0.2326 0.6899
vn -0.0160 -0.2742 0.9615
vn -0.0000 -0.2242 0.9746
vn -0.6865 -0.2412 0.6860
vn 0.6767 -0.7217 -0.1457
vn -0.3251 -0.9358 -0.1361
vn 0.0816 -0.1216 0.9892
vn -0.0033 -0.0829 0.9966
vn -0.0003 -0.2624 0.9650
vn -0.8058 -0.3067 -0.5066
vn -0.0009 0.1383 -0.9904
vn 0.8093 0.0882 -0.5808
vn -0.9530 -0.2823 -0.1102
vn -0.9993 -0.0118 0.0347
vn -0.4578 0.2360 -0.8571
vn -0.7270 -0.1598 0.6678
vn -0.7007 -0.2141 0.6806
vn 0.9999 -0.0126 0.0061
vn -0.0000 -0.1894 0.9819
vn -0.9557 -0.2884 -0.0581
vn -0.7300 -0.0851 0.6782
vn -0.3828 -0.0900 0.9194
vn 0.3141 -0.9160 -0.2494
vn -0.1043 -0.9687 0.2254
vn 0.0998 -0.9944 -0.0347
vn 0.0364 -0.9852 -0.1675
vn 0.7045 0.2024 -0.6803
vn 0.9700 0.1197 -0.2115
vn 0.9829 0.0639 -0.1729
vn 0.9979 0.0508 -0.0413
vn -0.9931 0.0631 -0.0985
vn -0.9940 -0.0140 -0.1082
vn 0.6227 -0.5464 0.5601
vn -0.3947 -0.8254 -0.4035
vn 0.7916 -0.0738 0.6066
vn -0.8659 -0.3028 0.3980
vn -0.9910 0.0384 -0.1283
vn -0.9940 -0.0000 0.1097
vn -0.4956 -0.5988 0.6291
vn -0.6188 -0.0000 0.7855
vn 0.1205 -0.0000 0.9927
vn 0.0896 -0.6683 0.7385
vn 0.7713 -0.0000 0.6365
vn 0.6156 -0.6025 0.5080
vn 0.9997 -0.0000 -0.0258
vn 0.7355 -0.6772 -0.0190
vn 0.9850 -0.0000 -0.1727
vn 0.6984 -0.7051 -0.1225
vn 0.6990 -0.6942 -0.1715
vn -0.7404 -0.6672 0.0817
vn -0.7112 -0.6976 -0.0871
vn -0.6977 -0.7068 -0.1168
vn 0.4775 -0.5947 -0.6467
vn 0.9712 -0.0000 -0.2383
vn 0.5940 -0.0000 -0.8045
vn -0.6456 -0.0000 -0.7637
vn -0.5228 -0.5867 -0.6185
vn -0.9863 -0.0000 -0.1652
vn -0.9926 -0.0000 -0.1216
vt 0.947266 1.933594
vt 0.925781 1.906738
vt 0.994141 1.873535
vt 0.923096 1.828369
vt 0.857910 1.843018
vt 0.852051 1.751221
vt 0.788330 1.757568
vt 0.844727 1.624756
vt 0.784668 1.629883
vt 0.833496 1.529053
vt 0.773193 1.534912
vt 0.836670 1.456787
vt 0.760986 1.459473
vt 0.825684 1.387451
vt 0.762207 1.390137
vt 0.819580 1.298584
vt 0.757813 1.298584
vt 0.094971 1.653320
vt 0.208984 1.652832
vt 0.083008 1.764404
vt 0.193359 1.772217
vt 0.084229 1.846924
vt 0.179199 1.856689
vt 0.083740 1.869141
vt 0.179199 1.882568
vt 0.085693 1.903809
vt 0.179199 1.912354
vt 0.179199 1.948730
vt 0.264648 1.913574
vt 0.282959 1.938477
vt 0.279053 1.877197
vt 0.325928 1.852539
vt 0.277588 1.851807
vt 0.290527 1.769043
vt 0.278809 1.644287
vt 0.920166 1.997314
vt 0.861572 1.916504
vt 0.795654 1.859375
vt 0.708740 1.760254
vt 0.711914 1.625000
vt 0.707764 1.541748
vt 0.694336 1.461914
vt 0.702637 1.400146
vt 0.643799 1.385254
vt 0.650635 1.321289
vt 0.604736 1.367920
vt 0.424316 1.377930
vt 0.484619 1.386475
vt 0.441162 1.427246
vt 0.513428 1.479736
vt 0.560791 1.387451
vt 0.560791 1.484619
vt 0.614990 1.482178
vt 0.560791 1.527100
vt 0.631104 1.524658
vt 0.629150 1.626953
vt 0.630371 1.766602
vt 0.631104 1.866699
vt 0.712402 1.866699
vt 0.685547 1.942383
vt 0.746338 1.961426
vt 0.222412 1.281738
vt 0.293213 1.285156
vt 0.250732 1.322510
vt 0.347656 1.344238
vt 0.249512 1.373535
vt 0.315674 1.412842
vt 0.209473 1.409668
vt 0.277588 1.478271
vt 0.214844 1.489502
vt 0.228027 1.512695
vt 0.150635 1.514404
vt 0.178955 1.576904
vt 0.105225 1.592285
vt 0.190186 1.608154
vt 0.104980 1.624023
vt 0.875732 1.298584
vt 0.882813 1.386230
vt 0.887451 1.447510
vt 0.894287 1.522705
vt 0.904297 1.615967
vt 0.914795 1.743652
vt 0.403564 1.927734
vt 0.364258 1.866699
vt 0.454834 1.843262
vt 0.361572 1.809326
vt 0.461182 1.766846
vt 0.382080 1.747070
vt 0.402588 1.613770
vt 0.450684 1.133789
vt 0.405518 1.183105
vt 0.326904 1.103271
vt 0.350342 1.222900
vt 0.279297 1.136230
vt 0.276611 1.248291
vt 0.199219 1.152344
vt 0.199219 1.253906
vt 0.140625 1.155762
vt 0.140625 1.256348
vt 0.082764 1.256104
vt 0.423584 1.996826
vt 0.500732 1.960449
vt 0.537354 1.862061
vt 0.539795 1.771973
vt 0.551025 1.628174
vt 0.376465 1.066895
vt 0.296875 1.005127
vt 0.270264 1.029541
vt 0.239502 1.048828
vt 0.199219 1.059326
vt 0.140625 1.061035
vt 0.082764 1.059082
vt 0.965820 1.597168
vt 0.957275 1.509033
vt 0.949219 1.417725
vt 0.944824 1.371338
vt 0.938965 1.298584
vt 0.157227 1.424561
vt 0.117920 1.429199
vt 0.112305 1.524170
vt 0.088135 1.442871
vt 0.039551 1.512207
vt 0.502441 1.524658
vt 0.472900 1.626465
vt 0.798828 1.192139
vt 0.723877 1.272949
vt 0.723877 1.192139
vt 0.642578 1.192139
vt 0.642578 1.272949
vt 0.568115 1.272949
vt 0.594238 1.328613
vt 0.568115 1.335693
vt 0.421387 1.192139
vt 0.494141 1.192139
vt 0.421387 1.272949
vt 0.494141 1.272949
vt 0.539795 1.327148
vt 0.656738 1.941406
vt 0.597656 1.943848
vt 0.540771 1.947510
vt 0.875977 1.997314
vt 0.800537 1.929932
vt 0.007324 1.667236
vt 0.033691 1.762451
vt 0.043213 1.835693
vt 0.005127 1.604980
vt 0.034180 1.540771
vt 0.420166 1.528564
vt 0.519775 1.370850
vt 0.482422 1.322754
vt 0.415771 1.298828
vt 0.987549 1.729004
vt 0.996582 1.801514
vt 0.794922 1.997314
vt 0.831055 1.997314
vt 0.931396 1.192139
vt 0.865967 1.272949
vt 0.865967 1.192139
vt 0.798828 1.272949
vt 0.067627 1.933105
vt 0.273193 1.553711
vt 0.082764 1.167236
vt 0.002197 1.246094
vt 0.005859 1.146484
vt 0.336914 1.757568
vt 0.356201 1.649658
vt 0.706543 1.306885
vt 0.995850 1.192139
vt 0.995850 1.272949
vt 0.931396 1.272949
vt 0.037842 1.046143
vt 0.484131 1.067627
vt 0.394775 1.274902
vt 0.324463 1.282227
vt 0.568115 1.192139
vt 0.093750 1.077637
vt 0.165771 1.131836
vt 0.093750 1.131836
vt 0.093750 1.190674
vt 0.165771 1.190674
vt 0.093750 1.282227
vt 0.165771 1.282227
vt 0.093750 1.331055
vt 0.165771 1.331055
vt 0.093750 1.396729
vt 0.165771 1.396729
vt 0.165771 1.495605
vt 0.357910 1.467529
vt 0.360840 1.403076
vt 0.389404 1.562744
vt 0.417236 1.384766
vt 0.442383 1.568115
vt 0.513428 1.554932
vt 0.498291 1.389893
vt 0.610352 1.406494
vt 0.619629 1.533691
vt 0.721924 1.500244
vt 0.093750 1.495605
vt 0.165771 1.593994
vt 0.093750 1.593994
vt 0.093750 1.664063
vt 0.165771 1.664063
vt 0.165771 1.766113
vt 0.093750 1.766113
vt 0.093750 1.869629
vt 0.165771 1.003662
vt 0.165771 1.077637
vt 0.093750 1.003662
vt 0.720703 1.423340
vt 0.165771 1.869629
s 1
usemtl legs
f 1/1/1 3/2/2 2/3/3
f 2/3/3 3/2/2 4/4/4
f 3/2/2 5/5/5 4/4/4
f 4/4/4 5/5/5 6/6/6
f 5/5/5 7/7/7 6/6/6
f 6/6/6 7/7/7 8/8/8
f 7/7/7 9/9/9 8/8/8
f 8/8/8 9/9/9 10/10/10
f 9/9/9 11/11/11 10/10/10
f 10/10/10 11/11/11 12/12/12
f 11/11/11 13/13/13 12/12/12
f 12/12/12 13/13/13 14/14/14
f 13/13/13 15/15/15 14/14/14
f 14/14/14 15/15/15 16/16/16
f 15/15/15 17/17/17 16/16/16
f 20/18/18 18/19/19 19/20/20
f 18/19/19 21/21/21 19/20/20
f 19/20/20 21/21/21 22/22/22
f 21/21/21 23/23/23 22/22/22
f 22/22/22 23/23/23 24/24/24
f 23/23/23 25/25/25 24/24/24
f 24/24/24 25/25/25 26/26/26
f 25/25/25 27/27/27 26/26/26
f 26/26/26 27/27/27 28/28/28
f 27/27/27 29/29/29 28/28/28
f 28/28/28 29/29/29 30/30/30
f 29/29/29 31/31/31 30/30/30
f 30/30/30 31/31/31 32/32/32
f 31/31/31 33/33/33 32/32/32
f 32/32/32 33/33/33 34/34/34
f 33/33/33 21/21/21 34/34/34
f 34/34/34 21/21/21 35/35/35
f 21/21/21 18/19/19 35/35/35
f 1/1/1 36/36/36 3/2/2
f 36/36/36 37/37/37 3/2/2
f 3/2/2 37/37/37 5/5/5
f 37/37/37 38/38/38 5/5/5
f 5/5/5 38/38/38 7/7/7
f 38/38/38 39/39/39 7/7/7
f 7/7/7 39/39/39 9/9/9
f 39/39/39 40/40/40 9/9/9
f 9/9/9 40/40/40 11/11/11
f 40/40/40 41/41/41 11/11/11
f 11/11/11 41/41/41 13/13/13
f 41/41/41 42/42/42 13/13/13
f 13/13/13 42/42/42 43/43/43
f 42/42/42 44/44/44 43/43/43
f 43/43/43 44/44/44 45/45/45
f 44/44/44 46/46/46 45/45/45
f 49/47/47 47/48/48 48/49/49
f 48/49/49 47/48/48 50/50/50
f 47/48/48 51/51/51 50/50/50
f 50/50/50 51/51/51 52/52/52
f 51/51/51 53/53/53 52/52/52
f 52/52/52 53/53/53 54/54/54
f 53/53/53 55/55/55 54/54/54
f 54/54/54 55/55/55 56/56/56
f 55/55/55 40/40/40 56/56/56
f 56/56/56 40/40/40 57/57/57
f 40/40/40 39/39/39 57/57/57
f 57/57/57 39/39/39 58/58/58
f 39/39/39 59/59/59 58/58/58
f 58/58/58 59/59/59 60/60/60
f 59/59/59 61/61/61 60/60/60
f 64/62/62 62/63/63 63/64/64
f 62/63/63 35/65/35 63/64/64
f 63/64/64 35/65/35 65/66/65
f 35/65/35 18/67/19 65/66/65
f 65/66/65 18/67/19 66/68/66
f 18/67/19 20/69/18 66/68/66
f 66/68/66 20/69/18 67/70/67
f 20/69/18 68/71/68 67/70/67
f 67/70/67 68/71/68 69/72/69
f 68/71/68 70/73/70 69/72/69
f 69/72/69 70/73/70 71/74/71
f 70/73/70 72/75/72 71/74/71
f 71/74/71 72/75/72 73/76/73
f 75/77/74 74/78/75 16/16/16
f 16/16/16 74/78/75 14/14/14
f 74/78/75 76/79/76 14/14/14
f 14/14/14 76/79/76 12/12/12
f 76/79/76 77/80/77 12/12/12
f 12/12/12 77/80/77 10/10/10
f 77/80/77 78/81/78 10/10/10
f 10/10/10 78/81/78 8/8/8
f 78/81/78 79/82/79 8/8/8
f 8/8/8 79/82/79 6/6/6
f 79/82/79 4/4/4 6/6/6
f 80/83/80 2/84/81 81/85/82
f 81/85/82 82/86/83 83/87/84
f 82/86/83 84/88/85 83/87/84
f 83/87/84 84/88/85 85/89/86
f 88/90/87 86/91/88 87/92/89
f 86/91/88 89/93/90 87/92/89
f 87/92/89 89/93/90 90/94/91
f 89/93/90 91/95/92 90/94/91
f 90/94/91 91/95/92 92/96/93
f 91/95/92 93/97/94 92/96/93
f 92/96/93 93/97/94 94/98/95
f 93/97/94 95/99/96 94/98/95
f 94/98/95 95/99/96 96/100/97
f 97/101/98 80/83/80 98/102/99
f 80/83/80 81/85/82 98/102/99
f 98/102/99 81/85/82 99/103/100
f 81/85/82 100/104/101 99/103/100
f 99/103/100 100/104/101 57/57/57
f 100/104/101 101/105/102 57/57/57
f 57/57/57 101/105/102 56/56/56
f 101/105/102 54/54/54 56/56/56
f 102/106/103 87/92/89 64/107/62
f 64/107/62 87/92/89 103/108/104
f 87/92/89 90/94/91 103/108/104
f 103/108/104 90/94/91 104/109/105
f 90/94/91 92/96/93 104/109/105
f 104/109/105 92/96/93 66/110/66
f 92/96/93 94/98/95 66/110/66
f 66/110/66 94/98/95 65/111/65
f 94/98/95 63/112/64 65/111/65
f 85/113/86 77/80/77 105/114/106
f 105/114/106 77/80/77 48/115/49
f 77/80/77 76/79/76 48/115/49
f 48/115/49 76/79/76 49/116/47
f 76/79/76 74/78/75 49/116/47
f 49/116/47 74/78/75 106/117/107
f 74/78/75 75/77/74 106/117/107
f 66/68/66 67/70/67 104/118/105
f 67/70/67 69/72/69 104/118/105
f 104/118/105 69/72/69 103/119/104
f 69/72/69 107/120/108 103/119/104
f 103/119/104 107/120/108 64/121/62
f 107/120/108 62/122/63 64/121/62
f 52/52/52 54/54/54 50/50/50
f 50/50/50 54/54/54 108/123/109
f 54/54/54 101/105/102 108/123/109
f 108/123/109 101/105/102 109/124/110
f 101/105/102 83/87/84 109/124/110
f 109/124/110 83/87/84 85/89/86
f 46/46/46 44/44/44 51/51/51
f 51/51/51 44/44/44 53/53/53
f 44/44/44 42/42/42 53/53/53
f 53/53/53 42/42/42 55/55/55
f 42/42/42 41/41/41 55/55/55
f 55/55/55 41/41/41 40/40/40
f 89/125/90 110/126/111 91/127/92
f 91/127/92 110/126/111 93/128/94
f 110/126/111 45/129/45 93/128/94
f 93/128/94 45/129/45 111/130/112
f 45/129/45 46/131/46 111/130/112
f 111/130/112 46/131/46 51/132/51
f 112/133/113 96/134/97 106/135/107
f 106/135/107 96/134/97 113/136/114
f 96/134/97 111/130/112 113/136/114
f 113/136/114 111/130/112 114/137/115
f 111/130/112 51/132/51 114/137/115
f 21/21/21 33/33/33 23/23/23
f 33/33/33 31/31/31 23/23/23
f 23/23/23 31/31/31 25/25/25
f 31/31/31 29/29/29 25/25/25
f 25/25/25 29/29/29 27/27/27
f 60/60/60 115/138/116 58/58/58
f 115/138/116 116/139/117 58/58/58
f 58/58/58 116/139/117 99/103/100
f 116/139/117 117/140/118 99/103/100
f 99/103/100 117/140/118 98/102/99
f 36/36/36 118/141/119 37/37/37
f 118/141/119 119/142/120 37/37/37
f 37/37/37 119/142/120 38/38/38
f 119/142/120 59/59/59 38/38/38
f 38/38/38 59/59/59 39/39/39
f 121/143/121 19/20/20 120/144/122
f 120/144/122 19/20/20 122/145/123
f 19/20/20 22/22/22 122/145/123
f 122/145/123 22/22/22 24/24/24
f 73/76/73 123/146/124 71/74/71
f 123/146/124 124/147/125 71/74/71
f 71/74/71 124/147/125 107/120/108
f 124/147/125 62/122/63 107/120/108
f 50/50/50 108/123/109 48/49/49
f 48/49/49 108/123/109 105/148/106
f 108/123/109 109/124/110 105/148/106
f 105/148/106 109/124/110 85/89/86
f 51/51/51 47/48/48 114/149/115
f 114/149/115 47/48/48 113/150/114
f 47/48/48 49/47/47 113/150/114
f 113/150/114 49/47/47 106/151/107
f 77/80/77 85/113/86 78/81/78
f 78/81/78 85/113/86 79/82/79
f 85/113/86 84/152/85 79/82/79
f 79/82/79 84/152/85 82/153/83
f 61/61/61 59/59/59 125/154/126
f 59/59/59 119/142/120 125/154/126
f 125/154/126 119/142/120 126/155/127
f 119/142/120 118/141/119 126/155/127
f 88/156/87 16/157/16 86/158/88
f 86/158/88 16/157/16 89/125/90
f 16/157/16 17/159/17 89/125/90
f 89/125/90 17/159/17 110/126/111
f 24/24/24 26/26/26 122/145/123
f 122/145/123 26/26/26 127/160/128
f 26/26/26 28/28/28 127/160/128
f 20/69/18 121/161/121 68/71/68
f 68/71/68 121/161/121 70/73/70
f 121/161/121 72/75/72 70/73/70
f 94/98/95 96/100/97 128/162/129
f 96/100/97 112/163/113 128/162/129
f 128/162/129 112/163/113 102/164/103
f 32/32/32 34/34/34 129/165/130
f 34/34/34 35/35/35 129/165/130
f 129/165/130 35/35/35 123/166/124
f 13/13/13 43/43/43 15/15/15
f 43/43/43 110/167/111 15/15/15
f 15/15/15 110/167/111 17/17/17
f 112/168/113 106/169/107 88/156/87
f 106/169/107 75/170/74 88/156/87
f 88/156/87 75/170/74 16/157/16
f 94/98/95 128/162/129 63/112/64
f 63/112/64 128/162/129 64/171/62
f 128/162/129 102/164/103 64/171/62
f 112/172/113 88/90/87 102/106/103
f 102/106/103 88/90/87 87/92/89
f 123/173/124 35/65/35 124/174/125
f 124/174/125 35/65/35 62/63/63
f 2/3/3 4/4/4 82/153/83
f 4/4/4 79/82/79 82/153/83
f 93/128/94 111/130/112 95/175/96
f 95/175/96 111/130/112 96/134/97
f 81/85/82 83/87/84 100/104/101
f 83/87/84 101/105/102 100/104/101
f 20/18/18 19/20/20 121/143/121
f 45/45/45 110/167/111 43/43/43
f 71/74/71 107/120/108 69/72/69
f 57/57/57 58/58/58 99/103/100
usemtl skirt
f 132/176/131 130/177/132 131/178/133
f 131/178/133 130/177/132 133/179/134
f 130/177/132 134/180/135 133/179/134
f 133/179/134 134/180/135 135/181/136
f 134/180/135 136/182/137 135/181/136
f 135/181/136 136/182/137 137/183/138
f 136/182/137 138/184/139 137/183/138
f 137/183/138 138/184/139 139/185/140
f 138/184/139 140/186/141 139/185/140
f 139/185/140 140/186/141 141/187/142
f 134/188/135 130/189/132 136/190/137
f 130/189/132 142/191/143 136/190/137
f 136/190/137 142/191/143 138/192/139
f 142/191/143 140/193/141 138/192/139
f 142/191/143 143/194/144 140/193/141
f 143/194/144 144/195/145 140/193/141
f 140/193/141 144/195/145 141/196/142
f 144/195/145 145/197/146 141/196/142
f 139/185/140 141/187/142 146/198/147
f 141/187/142 145/199/146 146/198/147
f 146/198/147 145/199/146 147/200/148
f 145/199/146 148/201/149 147/200/148
f 145/199/146 149/202/150 148/201/149
f 149/202/150 144/203/145 148/201/149
f 148/201/149 144/203/145 150/204/151
f 144/203/145 151/205/152 150/204/151
f 143/206/144 142/207/143 151/208/152
f 151/208/152 142/207/143 132/176/131
f 142/207/143 130/177/132 132/176/131
f 144/195/145 149/209/150 145/197/146
f 144/203/145 143/210/144 151/205/152
