# Blender 4.3.2
# www.blender.org
mtllib PiernaIzq_Sam.mtl
o PiernaIzq_Sam
v -0.165890 1.219555 0.610292
v -0.424368 0.875805 0.484738
v 0.003301 0.000986 0.545172
v 0.003301 0.000986 0.545172
v -0.424368 0.875805 0.484738
v -0.276000 0.000986 0.444456
v -0.486815 0.655596 0.431707
v -0.380731 0.000986 0.200751
v -0.482107 0.638139 -0.043636
v -0.276000 0.000986 -0.042965
v -0.196767 0.713335 -0.177242
v -0.276000 0.000986 -0.042965
v -0.196767 0.713335 -0.177242
v 0.003301 0.000986 -0.143681
v -0.322321 -0.768420 0.204777
v -0.208856 -0.768420 0.439088
v 0.061711 -0.768420 0.535767
v 0.324897 -0.768420 0.439088
v 0.245004 0.000986 0.444456
v 0.430970 -0.768420 0.204777
v 0.342354 0.000986 0.200751
v 0.324897 -0.768420 -0.029545
v 0.245004 0.000986 -0.042965
v 0.061711 -0.768420 -0.126224
v 0.003301 0.000986 -0.143681
v -0.208856 -0.768420 -0.029545
v -0.328360 -4.518111 1.763058
v -0.052425 -4.518112 2.441835
v 0.823736 -4.518112 2.441835
v -0.328360 -4.518111 1.763058
v -0.310903 -4.753093 1.945680
v -0.052425 -4.518112 2.441835
v -0.302851 -4.910206 1.999393
v -0.093378 -4.910206 2.487485
v 0.892222 -4.910206 2.487485
v 0.823736 -4.518112 2.441835
v 1.078859 -4.910206 1.999393
v 1.099000 -4.753093 1.945680
v 1.145332 -4.518111 1.685178
v 1.145332 -4.518111 1.685178
v -0.517692 -4.518111 1.297120
v 1.309815 -4.518111 1.297120
v 1.209781 -4.517440 -0.084590
v -0.407582 -4.517440 -0.084590
v -0.154472 -4.518782 -0.772090
v 0.939214 -4.518782 -0.772090
v 0.410158 -4.520124 -1.109130
v 1.190982 -4.753093 1.713382
v 1.309815 -4.518111 1.297120
v 1.212465 -4.910206 1.660340
v 1.362186 -4.910206 1.273624
v 1.346071 -4.753775 1.179629
v 1.331980 -4.753775 0.912417
v 1.209781 -4.517440 -0.084590
v 1.311839 -4.753775 0.582769
v 1.295724 -4.753775 0.297429
v 1.293040 -4.910206 0.255123
v 1.255442 -4.910206 -0.096008
v 1.202400 -4.752422 -0.224917
v 0.939214 -4.518782 -0.772090
v 1.115115 -4.752422 -0.443113
v 1.062755 -4.910206 -0.561275
v 0.973457 -4.910206 -0.810359
v 0.405461 -4.910206 -1.131955
v 0.410158 -4.520124 -1.109130
v 1.329296 -4.910206 0.861388
v 1.314523 -4.910206 0.626406
v -0.163206 -4.910206 -0.810359
v -0.154472 -4.518782 -0.772090
v -0.284052 -4.910206 -0.561275
v -0.327018 -4.752422 -0.441100
v -0.407582 -4.517440 -0.084590
v -0.396846 -4.752422 -0.224246
v -0.445851 -4.910206 -0.096008
v -0.494196 -4.910206 0.255123
v -0.496209 -4.753775 0.297429
v -0.515679 -4.753775 0.584111
v -0.517692 -4.518111 1.297120
v -0.522389 -4.753775 0.915772
v -0.539846 -4.753775 1.180971
v -0.553948 -4.910206 1.273624
v -0.415645 -4.910206 1.660340
v -0.382073 -4.753093 1.713382
v -0.518363 -4.910206 0.627748
v -0.530452 -4.910206 0.862730
v -0.496209 -4.753775 0.297429
v 1.295724 -4.753775 0.297429
v -0.515679 -4.753775 0.584111
v 1.311839 -4.753775 0.582769
v -0.515679 -4.753775 0.584111
v 1.311839 -4.753775 0.582769
v -0.518363 -4.910206 0.627748
v 1.314523 -4.910206 0.626406
v -0.494196 -4.910206 0.255123
v 1.293040 -4.910206 0.255123
v -0.496209 -4.753775 0.297429
v 1.295724 -4.753775 0.297429
v -0.327018 -4.752422 -0.441100
v -0.284052 -4.910206 -0.561275
v 1.115115 -4.752422 -0.443113
v 1.062755 -4.910206 -0.561275
v 1.202400 -4.752422 -0.224917
v -0.396846 -4.752422 -0.224246
v 1.115115 -4.752422 -0.443113
v -0.327018 -4.752422 -0.441100
v 1.329296 -4.910206 0.861388
v -0.530452 -4.910206 0.862730
v 1.314523 -4.910206 0.626406
v -0.518363 -4.910206 0.627748
v -0.445851 -4.910206 -0.096008
v 1.255442 -4.910206 -0.096008
v -0.494196 -4.910206 0.255123
v 1.293040 -4.910206 0.255123
v -0.530452 -4.910206 0.862730
v 1.329296 -4.910206 0.861388
v -0.522389 -4.753775 0.915772
v 1.331980 -4.753775 0.912417
v 1.331980 -4.753775 0.912417
v 1.346071 -4.753775 1.179629
v -0.522389 -4.753775 0.915772
v -0.539846 -4.753775 1.180971
v 1.255442 -4.910206 -0.096008
v -0.445851 -4.910206 -0.096008
v 1.202400 -4.752422 -0.224917
v -0.396846 -4.752422 -0.224246
v -0.539846 -4.753775 1.180971
v 1.346071 -4.753775 1.179629
v -0.553948 -4.910206 1.273624
v 1.362186 -4.910206 1.273624
v 1.362186 -4.910206 1.273624
v 1.212465 -4.910206 1.660340
v -0.553948 -4.910206 1.273624
v -0.415645 -4.910206 1.660340
v 1.078859 -4.910206 1.999393
v 0.892222 -4.910206 2.487485
v -0.302851 -4.910206 1.999393
v -0.093378 -4.910206 2.487485
v 0.404790 -4.677237 -0.973511
v 0.916389 -4.677237 -0.684145
v -0.108151 -4.677237 -0.684145
v -0.385428 -4.677237 -0.039611
v 1.192324 -4.677237 -0.039611
v -0.459953 -4.677238 1.101749
v 1.266849 -4.677238 1.101749
v -0.382073 -4.753093 1.713382
v 1.190982 -4.753093 1.713382
v -0.310903 -4.753093 1.945680
v 1.099000 -4.753093 1.945680
v -0.415645 -4.910206 1.660340
v 1.212465 -4.910206 1.660340
v -0.382073 -4.753093 1.713382
v 1.190982 -4.753093 1.713382
v -0.310903 -4.753093 1.945680
v 1.099000 -4.753093 1.945680
v -0.302851 -4.910206 1.999393
v 1.078859 -4.910206 1.999393
v 1.062755 -4.910206 -0.561275
v -0.284052 -4.910206 -0.561275
v 0.973457 -4.910206 -0.810359
v -0.163206 -4.910206 -0.810359
v 0.405461 -4.910206 -1.131955
v 0.839180 -3.763479 0.498168
v 0.324897 -3.605694 0.703615
v 0.326910 -3.666799 1.014464
v -0.161864 -3.763479 0.498168
v -0.126950 -3.801077 0.993652
v 0.198672 -3.832624 1.505251
v -0.232352 -4.027324 1.491149
v 0.028810 -4.085745 2.157837
v 0.506837 -3.840688 1.528747
v 0.727728 -4.085745 2.157837
v 0.995611 -4.016588 1.515316
v 0.796885 -3.831954 1.021856
v 1.142648 -4.085074 1.039973
v 1.057376 -3.986371 -0.024167
v 1.192324 -4.677237 -0.039611
v 0.880804 -4.150865 -0.618343
v 0.916389 -4.677237 -0.684145
v 0.404790 -4.677237 -0.973511
v 0.394054 -4.334829 -0.909733
v -0.108151 -4.677237 -0.684145
v -0.416987 -4.085074 1.039973
v -0.322992 -3.986371 -0.024167
v -0.124266 -4.150865 -0.618343
v -0.385428 -4.677237 -0.039611
v -0.459953 -4.677238 1.101749
v -0.232352 -4.027324 1.491149
v -0.045033 -4.675213 2.287417
v 0.843206 -4.677238 2.287417
v 0.995611 -4.016588 1.515316
v 1.266849 -4.677238 1.101749
v -0.459953 -4.677238 1.101749
v 1.266849 -4.677238 1.101749
v -0.045033 -4.675213 2.287417
v 0.843206 -4.677238 2.287417
v 0.106690 -1.408917 0.514955
v -0.167903 -1.483442 0.415592
v -0.280697 -1.485455 0.181270
v -0.153801 -2.273671 -0.273922
v -0.301509 -2.273671 0.063778
v -0.145078 -1.656659 0.416934
v 0.145641 -1.747970 0.513613
v 0.387333 -1.427716 0.416934
v 0.434336 -1.608996 0.416934
v 0.525636 -1.485455 0.181270
v 0.551156 -2.273671 0.402160
v 0.695498 -2.273671 0.063778
v 0.551156 -2.273671 -0.273922
v 0.465213 -1.820482 -0.188661
v 0.200014 -2.273671 -0.414249
v 0.200014 -2.273671 0.542476
v -0.153801 -2.273671 0.402160
v 0.409487 -1.203481 -0.060422
v 0.143617 -1.962811 -0.298100
v -0.158498 -1.843978 -0.193357
v -0.185360 -1.203481 -0.060422
v 0.091257 -1.156478 -0.158443
v 0.312137 -3.419729 0.676082
v 0.776744 -3.419729 0.453189
v 0.942569 -3.419729 0.016786
v 0.776744 -3.419728 -0.514954
v 0.321542 -3.419728 -0.737858
v -0.131647 -3.419728 -0.514954
v -0.302851 -3.419729 0.016786
v -0.302851 -3.069257 0.020141
v -0.131647 -3.419729 0.453189
v -0.132318 -3.069257 0.439087
v 0.293338 -3.069257 0.612975
v 0.703561 -3.069257 0.439087
v 0.874094 -3.069257 0.020141
v 0.703561 -3.069257 -0.451847
v 0.279918 -3.069257 -0.625735
v -0.132318 -3.069257 -0.451847
v -0.153801 -2.273671 -0.273922
v -0.301509 -2.273671 0.063778
v -0.153801 -2.273671 0.402160
v 0.200014 -2.273671 0.542476
v 0.551156 -2.273671 0.402160
v 0.695498 -2.273671 0.063778
v 0.551156 -2.273671 -0.273922
v 0.200014 -2.273671 -0.414249
vn -0.3289 -0.0959 0.9395
vn -0.0932 -0.0325 0.9951
vn -0.2753 -0.0115 0.9613
vn -0.6615 -0.1320 0.7382
vn -0.7598 -0.2326 0.6071
vn -0.9832 -0.1826 0.0029
vn -0.6949 -0.3249 -0.6416
vn -0.7422 -0.1434 -0.6546
vn -0.3927 -0.1280 -0.9107
vn -0.3360 -0.1383 -0.9317
vn -0.9977 -0.0672 0.0103
vn -0.6649 -0.0596 0.7446
vn 0.0057 -0.0208 0.9998
vn 0.6792 0.0478 0.7324
vn 0.6932 0.0731 0.7170
vn 0.9937 0.1120 0.0086
vn 0.9941 0.1080 -0.0060
vn 0.6851 0.1113 -0.7199
vn 0.6926 0.0524 -0.7194
vn 0.0025 0.0383 -0.9993
vn 0.0073 -0.0217 -0.9997
vn -0.6712 -0.0278 -0.7408
vn -0.0000 1.0000 -0.0000
vn -0.9230 0.1643 0.3479
vn -0.9140 0.1600 0.3729
vn -0.5357 0.1602 0.8291
vn -0.9043 0.1132 0.4116
vn -0.5499 0.1530 0.8211
vn 0.5763 0.1931 0.7941
vn 0.5207 0.1794 0.8347
vn 0.8979 0.1005 0.4286
vn 0.8962 0.1675 0.4109
vn 0.8991 0.2258 0.3750
vn -0.0000 1.0000 0.0003
vn -0.0000 1.0000 -0.0005
vn -0.0000 1.0000 -0.0024
vn -0.0000 1.0000 -0.0040
vn 0.9292 0.1465 0.3392
vn 0.9730 0.1526 0.1733
vn 0.9453 0.0620 0.3203
vn 0.9560 0.1114 0.2712
vn 0.9883 0.1528 -0.0016
vn 0.9869 0.1477 -0.0654
vn 0.9636 0.1556 -0.2173
vn 0.9820 0.1795 -0.0596
vn 0.9788 0.1695 -0.1153
vn 0.9850 0.0744 -0.1554
vn 0.9813 0.1185 -0.1514
vn 0.9387 0.1533 -0.3087
vn 0.7535 0.1141 -0.6475
vn 0.9092 0.1257 -0.3969
vn 0.9142 0.0739 -0.3986
vn 0.7560 0.1289 -0.6417
vn 0.0127 0.0753 -0.9971
vn 0.0268 0.0658 -0.9975
vn 0.9980 0.0033 -0.0627
vn 0.9981 0.0010 -0.0615
vn -0.7252 0.0759 -0.6844
vn -0.7529 0.1094 -0.6490
vn -0.9017 0.0686 -0.4269
vn -0.9200 0.1450 -0.3641
vn -0.9666 0.1435 -0.2124
vn -0.9538 0.1202 -0.2755
vn -0.9803 0.1005 -0.1701
vn -0.9828 0.0687 -0.1711
vn -0.9781 0.1677 -0.1232
vn -0.9856 0.1574 -0.0614
vn -0.9801 0.1094 0.1655
vn -0.9976 0.0635 -0.0259
vn -0.9937 0.1081 -0.0297
vn -0.9669 0.0748 0.2440
vn -0.9359 0.0752 0.3442
vn -0.9331 0.1189 0.3393
vn -0.9987 0.0028 -0.0514
vn -0.9987 0.0433 -0.0286
vn -0.0000 -1.0000 -0.0000
vn -0.0007 -0.2687 -0.9632
vn -0.0000 -0.2611 0.9653
vn 0.0011 -0.6057 0.7957
vn 0.0010 -0.6052 0.7961
vn 0.0001 -0.6001 0.7999
vn -0.0000 -0.5994 0.8004
vn 0.0007 -0.3212 0.9470
vn 0.0017 -0.3108 0.9505
vn 0.0007 -0.3205 0.9472
vn 0.0017 -0.3101 0.9507
vn -0.0000 -0.6327 -0.7744
vn -0.0003 -0.6308 -0.7759
vn -0.0000 -0.6325 -0.7745
vn -0.0003 -0.6306 -0.7761
vn -0.0006 -0.5096 -0.8604
vn -0.0000 -0.5147 -0.8574
vn -0.0006 -0.5099 -0.8602
vn -0.0000 -0.5150 -0.8572
vn -0.0000 -0.3199 0.9475
vn -0.0000 -0.3235 -0.9462
vn 0.7919 0.4899 0.3646
vn -0.0019 0.7076 0.7066
vn 0.0071 0.9789 0.2040
vn -0.7939 0.5166 0.3207
vn -0.4871 0.8572 0.1674
vn -0.1903 0.9322 0.3080
vn -0.7600 0.5605 0.3290
vn -0.4389 0.5856 0.6815
vn 0.1679 0.9433 0.2864
vn 0.4092 0.6032 0.6846
vn 0.7276 0.6261 0.2804
vn 0.4602 0.8784 0.1292
vn 0.8576 0.5084 0.0775
vn 0.9586 0.2565 -0.1236
vn 0.9618 0.1764 -0.2093
vn 0.7412 0.1839 -0.6457
vn 0.7322 0.1330 -0.6680
vn 0.0014 0.1736 -0.9848
vn -0.0013 0.1760 -0.9844
vn -0.7193 0.0744 -0.6907
vn -0.9145 0.3808 0.1366
vn -0.9827 0.1203 -0.1407
vn -0.7444 0.0899 -0.6617
vn -0.9731 0.0769 -0.2172
vn -0.9451 -0.2935 0.1440
vn -0.4845 -0.5075 0.7126
vn 0.4941 -0.4981 0.7126
vn 0.9693 -0.2090 0.1299
vn -0.9450 -0.2935 0.1440
vn 0.9693 -0.2090 0.1298
vn -0.4845 -0.5074 0.7126
vn -0.0020 -0.0179 0.9998
vn -0.6715 -0.0732 0.7374
vn -0.9978 -0.0269 0.0602
vn -0.6454 0.1718 -0.7443
vn -0.9987 0.0442 -0.0269
vn -0.6456 -0.0479 0.7621
vn -0.0195 0.0257 0.9995
vn 0.6330 0.0932 0.7685
vn 0.6470 0.1356 0.7503
vn 0.9811 0.1724 0.0878
vn 0.7154 0.1042 0.6909
vn 0.9760 0.2153 -0.0331
vn 0.6766 0.2611 -0.6885
vn 0.6360 0.2632 -0.7254
vn -0.0050 0.2984 -0.9544
vn 0.0117 0.0376 0.9992
vn -0.6935 0.0031 0.7204
vn 0.7322 0.1964 -0.6522
vn -0.0646 0.2620 -0.9629
vn -0.6650 0.1321 -0.7350
vn -0.6943 0.0448 -0.7183
vn -0.0176 0.1219 -0.9924
vn -0.0004 0.1592 0.9872
vn 0.7223 0.2049 0.6605
vn 0.9799 0.1973 0.0289
vn 0.7376 0.2233 -0.6373
vn -0.0081 0.2278 -0.9737
vn -0.7463 0.1099 -0.6565
vn -0.9994 0.0318 0.0164
vn -0.9999 0.0088 0.0083
vn -0.7354 0.0882 0.6719
vn -0.7126 0.0297 0.7010
vn 0.0211 0.1287 0.9915
vn 0.7003 0.1686 0.6936
vn 0.9769 0.2122 0.0241
vn 0.6959 0.2785 -0.6619
vn -0.0221 0.2700 -0.9626
vn -0.7214 0.1242 -0.6813
vn -0.7294 0.1148 -0.6744
vn -0.9999 0.0066 0.0094
vn -0.7051 0.0159 0.7090
vn -0.0235 0.0816 0.9964
vn 0.6729 0.1592 0.7224
vn 0.9731 0.2291 0.0242
vn 0.6745 0.2835 -0.6816
vn -0.0266 0.2499 -0.9679
vt 0.875000 1.043000
vt 0.882800 1.039100
vt 0.906300 1.039100
vt 0.906300 1.035200
vt 0.886700 1.035200
vt 0.906300 1.031300
vt 0.886700 1.023400
vt 0.906300 1.023400
vt 0.886700 1.019500
vt 0.906300 1.019500
vt 0.925800 1.031300
vt 0.925800 1.035200
vt 0.925800 1.039100
vt 0.925800 1.023400
vt 0.925800 1.019500
vt 0.742200 1.035200
vt 0.730500 1.035200
vt 0.683600 1.035200
vt 0.742200 1.023400
vt 0.742200 1.015600
vt 0.730500 1.015600
vt 0.679700 1.015600
vt 0.668000 1.015600
vt 0.668000 1.023400
vt 0.668000 1.035200
vt 0.753900 1.035200
vt 0.656300 1.035200
vt 0.664100 1.035200
vt 0.746100 1.035200
vt 0.734400 1.035200
vt 0.675800 1.035200
vt 0.703100 1.035200
vt 0.664100 1.023400
vt 0.664100 1.015600
vt 0.656300 1.015600
vt 0.656300 1.023400
vt 0.660200 1.023400
vt 0.660200 1.015600
vt 0.671900 1.015600
vt 0.675800 1.015600
vt 0.703100 1.015600
vt 0.734400 1.015600
vt 0.746100 1.023400
vt 0.750000 1.015600
vt 0.750000 1.023400
vt 0.753900 1.023400
vt 0.753900 1.015600
vt 0.746100 1.015600
vt 0.593800 1.027300
vt 0.550800 1.027300
vt 0.593800 1.019500
vt 0.550800 1.019500
vt 0.585900 1.027300
vt 0.582000 1.019500
vt 0.562500 1.027300
vt 0.562500 1.019500
vt 0.554700 1.019500
vt 0.589800 1.019500
vt 0.558600 1.027300
vt 0.589800 1.027300
vt 0.597700 1.027300
vt 0.597700 1.019500
vt 0.546900 1.019500
vt 0.105500 1.796900
vt 0.058600 1.773400
vt 0.156300 1.773400
vt 0.179700 1.718800
vt 0.035200 1.718800
vt 0.195300 1.617200
vt 0.019500 1.617200
vt 0.898400 1.683600
vt 0.906300 1.687500
vt 0.925800 1.683600
vt 0.921900 1.679700
vt 0.941400 1.679700
vt 0.937500 1.675800
vt 0.960900 1.671900
vt 0.941400 1.675800
vt 0.925800 1.679700
vt 0.921900 1.671900
vt 0.878900 1.675800
vt 0.878900 1.652300
vt 0.855500 1.668000
vt 0.851600 1.652300
vt 0.843800 1.652300
vt 0.843800 1.664100
vt 0.921900 1.652300
vt 0.941400 1.671900
vt 0.964800 1.652300
vt 0.203100 1.562500
vt 0.054700 1.562500
vt 0.128900 1.484400
vt 0.085900 1.503900
vt 0.945300 1.039100
vt 0.945300 1.035200
vt 0.945300 1.031300
vt 0.968800 1.019500
vt 0.968800 1.027300
vt 0.949200 1.035200
vt 0.953100 1.039100
vt 0.968800 1.035200
vt 0.945300 1.023400
vt 0.968800 1.015600
vt 0.968800 1.039100
vt 0.937500 1.023400
vt 0.949200 1.019500
vt 0.937500 1.019500
vt 0.906300 1.691400
vt 0.898400 1.691400
vt 0.878900 1.691400
vt 0.859400 1.691400
vt 0.851600 1.691400
vt 0.882800 1.718800
vt 0.898400 1.718800
vt 0.906300 1.718800
vt 0.867200 1.718800
vt 0.859400 1.718800
vt 0.875000 1.757800
vt 0.886700 1.757800
vt 0.898400 1.757800
vt 0.906300 1.757800
vt 0.867200 1.757800
s 1
usemtl Mesh_0233_rip
f 1/1/1 2/2/1 3/3/1
f 4/3/2 5/2/3 6/4/4
f 5/2/3 7/5/5 6/4/4
f 6/4/4 7/5/5 8/6/6
f 7/5/5 9/7/7 8/6/6
f 8/6/6 9/7/7 10/8/8
f 9/7/7 11/9/9 10/8/8
f 12/8/10 13/9/10 14/10/10
f 10/8/8 15/11/11 8/6/6
f 15/11/11 16/12/12 8/6/6
f 8/6/6 16/12/12 6/4/4
f 16/12/12 17/13/13 6/4/4
f 6/4/4 17/13/13 4/3/2
f 17/13/13 18/12/14 4/3/2
f 4/3/2 18/12/14 19/4/15
f 18/12/14 20/11/16 19/4/15
f 19/4/15 20/11/16 21/6/17
f 20/11/16 22/14/18 21/6/17
f 21/6/17 22/14/18 23/8/19
f 22/14/18 24/15/20 23/8/19
f 23/8/19 24/15/20 25/10/21
f 24/15/20 26/14/22 25/10/21
f 25/10/21 26/14/22 10/8/8
f 26/14/22 15/11/11 10/8/8
f 27/16/23 28/17/23 29/18/23
f 30/16/24 31/19/25 32/17/26
f 31/19/25 33/20/27 32/17/26
f 33/20/27 34/21/28 32/17/26
f 34/21/28 35/22/29 32/17/26
f 32/17/26 35/22/29 36/18/30
f 35/22/29 37/23/31 36/18/30
f 37/23/31 38/24/32 36/18/30
f 38/24/32 39/25/33 36/18/30
f 29/18/23 40/25/23 27/16/23
f 27/16/23 40/25/23 41/26/34
f 40/25/23 42/27/34 41/26/34
f 42/27/34 43/28/35 41/26/34
f 41/26/34 43/28/35 44/29/35
f 44/29/35 43/28/35 45/30/36
f 43/28/35 46/31/36 45/30/36
f 45/30/36 46/31/36 47/32/37
f 38/24/32 48/33/38 39/25/33
f 39/25/33 48/33/38 49/27/39
f 48/33/38 50/34/40 49/27/39
f 50/34/40 51/35/41 49/27/39
f 51/35/41 52/36/42 49/27/39
f 52/36/42 53/36/43 49/27/39
f 49/27/39 53/36/43 54/28/44
f 53/36/43 55/36/45 54/28/44
f 55/36/45 56/37/46 54/28/44
f 56/37/46 57/38/47 54/28/44
f 57/38/47 58/38/48 54/28/44
f 58/38/48 59/33/49 54/28/44
f 54/28/44 59/33/49 60/31/50
f 59/33/49 61/24/51 60/31/50
f 61/24/51 62/39/52 60/31/50
f 62/39/52 63/40/53 60/31/50
f 63/40/53 64/41/54 60/31/50
f 60/31/50 64/41/54 65/32/55
f 66/35/56 67/35/57 53/36/43
f 67/35/57 55/36/45 53/36/43
f 64/41/54 68/42/58 65/32/55
f 65/32/55 68/42/58 69/30/59
f 68/42/58 70/20/60 69/30/59
f 70/20/60 71/19/61 69/30/59
f 69/30/59 71/19/61 72/29/62
f 71/19/61 73/43/63 72/29/62
f 73/43/63 74/44/64 72/29/62
f 74/44/64 75/44/65 72/29/62
f 75/44/65 76/45/66 72/29/62
f 76/45/66 77/46/67 72/29/62
f 72/29/62 77/46/67 78/26/68
f 77/46/67 79/46/69 78/26/68
f 79/46/69 80/46/70 78/26/68
f 80/46/70 81/47/71 78/26/68
f 81/47/71 82/48/72 78/26/68
f 82/48/72 83/43/73 78/26/68
f 78/26/68 83/43/73 30/16/24
f 83/43/73 31/19/25 30/16/24
f 84/47/74 85/47/75 77/46/67
f 77/46/67 85/47/75 79/46/69
f 86/45/76 87/37/76 88/46/76
f 88/46/76 87/37/76 89/36/76
f 90/49/77 91/50/77 92/51/77
f 92/51/77 91/50/77 93/52/77
f 94/51/78 95/52/78 96/49/78
f 96/49/78 95/52/78 97/50/78
f 98/53/79 99/54/80 100/55/81
f 100/55/81 99/54/80 101/56/82
f 102/33/76 103/43/76 104/24/76
f 104/24/76 103/43/76 105/19/76
f 106/35/76 107/47/76 108/35/76
f 108/35/76 107/47/76 109/47/76
f 110/44/76 111/38/76 112/44/76
f 112/44/76 111/38/76 113/38/76
f 114/51/83 115/52/84 116/49/85
f 116/49/85 115/52/84 117/50/86
f 118/36/76 119/36/76 120/46/76
f 120/46/76 119/36/76 121/46/76
f 122/57/87 123/58/88 124/59/89
f 124/59/89 123/58/88 125/60/90
f 126/61/91 127/50/92 128/62/93
f 128/62/93 127/50/92 129/63/94
f 130/35/76 131/34/76 132/47/76
f 132/47/76 131/34/76 133/48/76
f 134/23/76 135/22/76 136/20/76
f 136/20/76 135/22/76 137/21/76
f 138/64/76 139/65/76 140/66/76
f 140/66/76 139/65/76 141/67/76
f 139/65/76 142/68/76 141/67/76
f 141/67/76 142/68/76 143/69/76
f 143/69/76 142/68/76 144/70/76
f 145/43/76 146/33/76 147/19/76
f 146/33/76 148/24/76 147/19/76
f 149/58/95 150/57/95 151/53/95
f 150/57/95 152/59/95 151/53/95
f 153/53/96 154/55/96 155/54/96
f 154/55/96 156/56/96 155/54/96
f 157/39/76 158/20/76 159/40/76
f 158/20/76 160/42/76 159/40/76
f 159/40/76 160/42/76 161/41/76
f 162/71/97 163/72/98 164/73/99
f 163/72/98 165/71/100 164/73/99
f 165/71/100 166/74/101 164/73/99
f 164/73/99 166/74/101 167/75/102
f 166/74/101 168/76/103 167/75/102
f 168/76/103 169/77/104 167/75/102
f 167/75/102 169/77/104 170/75/105
f 169/77/104 171/77/106 170/75/105
f 171/77/106 172/78/107 170/75/105
f 170/75/105 172/78/107 173/79/108
f 172/78/107 174/80/109 173/79/108
f 173/79/108 174/80/109 175/81/110
f 174/80/109 176/82/111 175/81/110
f 175/81/110 176/82/111 177/83/112
f 176/82/111 178/84/113 177/83/112
f 178/84/113 179/85/114 177/83/112
f 177/83/112 179/85/114 180/86/115
f 179/85/114 181/84/116 180/86/115
f 167/75/102 170/75/105 164/73/99
f 170/75/105 173/79/108 164/73/99
f 164/73/99 173/79/108 162/71/97
f 173/79/108 175/81/110 162/71/97
f 168/76/103 166/74/101 182/80/117
f 166/74/101 165/71/100 182/80/117
f 182/80/117 165/71/100 183/81/118
f 180/86/115 181/84/116 184/83/119
f 181/84/116 185/82/120 184/83/119
f 184/83/119 185/82/120 183/81/118
f 185/82/120 186/87/121 183/81/118
f 183/81/118 186/87/121 182/80/117
f 182/80/117 186/87/121 187/88/103
f 186/87/121 188/89/122 187/88/103
f 187/88/103 188/89/122 169/77/104
f 188/89/122 189/89/123 169/77/104
f 169/77/104 189/89/123 171/77/106
f 171/77/106 189/89/123 190/88/107
f 189/89/123 191/87/124 190/88/107
f 190/88/107 191/87/124 174/80/109
f 191/87/124 176/82/111 174/80/109
f 192/90/125 193/91/126 194/92/127
f 193/91/126 195/93/123 194/92/127
f 18/12/14 17/13/13 196/94/128
f 196/94/128 17/13/13 197/95/129
f 17/13/13 16/12/12 197/95/129
f 197/95/129 16/12/12 198/96/130
f 16/12/12 15/11/11 198/96/130
f 199/97/131 200/98/132 198/96/130
f 200/98/132 201/99/133 198/96/130
f 198/96/130 201/99/133 197/95/129
f 197/95/129 201/99/133 196/94/128
f 201/99/133 202/100/134 196/94/128
f 196/94/128 202/100/134 203/95/135
f 202/100/134 204/99/136 203/95/135
f 203/95/135 204/99/136 205/96/137
f 204/99/136 206/101/138 205/96/137
f 206/101/138 207/98/139 205/96/137
f 207/98/139 208/97/140 205/96/137
f 205/96/137 208/97/140 209/102/141
f 208/97/140 210/103/142 209/102/141
f 206/101/138 204/99/136 211/104/143
f 204/99/136 202/100/134 211/104/143
f 211/104/143 202/100/134 212/101/144
f 202/100/134 201/99/133 212/101/144
f 212/101/144 201/99/133 200/98/132
f 205/96/137 209/102/141 213/105/145
f 213/105/145 209/102/141 214/106/146
f 209/102/141 210/103/142 214/106/146
f 210/103/142 199/97/131 214/106/146
f 214/106/146 199/97/131 215/102/147
f 199/97/131 198/96/130 215/102/147
f 215/102/147 198/96/130 216/105/148
f 198/96/130 15/11/11 216/105/148
f 15/11/11 26/14/22 216/105/148
f 216/105/148 26/14/22 217/107/149
f 26/14/22 24/15/20 217/107/149
f 217/107/149 24/15/20 213/105/145
f 24/15/20 22/14/18 213/105/145
f 213/105/145 22/14/18 205/96/137
f 22/14/18 20/11/16 205/96/137
f 205/96/137 20/11/16 203/95/135
f 20/11/16 18/12/14 203/95/135
f 203/95/135 18/12/14 196/94/128
f 213/105/145 214/106/146 217/107/149
f 217/107/149 214/106/146 216/105/148
f 214/106/146 215/102/147 216/105/148
f 165/71/100 163/72/98 218/108/150
f 163/72/98 162/71/97 218/108/150
f 218/108/150 162/71/97 219/109/151
f 219/109/151 162/71/97 220/110/152
f 162/71/97 175/81/110 220/110/152
f 175/81/110 177/83/112 220/110/152
f 220/110/152 177/83/112 221/111/153
f 221/111/153 177/83/112 222/112/154
f 177/83/112 180/86/115 222/112/154
f 180/86/115 184/83/119 222/112/154
f 222/112/154 184/83/119 223/111/155
f 223/111/155 184/83/119 224/110/156
f 184/83/119 183/81/118 224/110/156
f 224/110/156 183/81/118 165/71/100
f 225/113/157 226/109/158 227/114/159
f 226/109/158 218/108/150 227/114/159
f 227/114/159 218/108/150 228/115/160
f 218/108/150 219/109/151 228/115/160
f 228/115/160 219/109/151 229/114/161
f 219/109/151 220/110/152 229/114/161
f 229/114/161 220/110/152 230/113/162
f 220/110/152 221/111/153 230/113/162
f 230/113/162 221/111/153 231/116/163
f 221/111/153 222/112/154 231/116/163
f 231/116/163 222/112/154 232/117/164
f 222/112/154 223/111/155 232/117/164
f 232/117/164 223/111/155 233/116/165
f 223/111/155 224/110/156 233/116/165
f 233/116/165 224/110/156 225/113/157
f 225/113/157 224/110/156 226/109/158
f 224/110/156 165/71/100 226/109/158
f 226/109/158 165/71/100 218/108/150
f 234/118/166 225/113/157 235/119/167
f 225/113/157 227/114/159 235/119/167
f 235/119/167 227/114/159 236/120/168
f 227/114/159 228/115/160 236/120/168
f 236/120/168 228/115/160 237/121/169
f 228/115/160 229/114/161 237/121/169
f 237/121/169 229/114/161 238/120/170
f 229/114/161 230/113/162 238/120/170
f 238/120/170 230/113/162 239/119/171
f 230/113/162 231/116/163 239/119/171
f 239/119/171 231/116/163 240/118/172
f 231/116/163 232/117/164 240/118/172
f 240/118/172 232/117/164 241/122/173
f 232/117/164 233/116/165 241/122/173
f 241/122/173 233/116/165 234/118/166
f 233/116/165 225/113/157 234/118/166
