# Blender 4.3.2
# www.blender.org
mtllib Mesa.mtl
o old_table
v 64.885620 3.501081 31.552416
v 70.764839 3.486151 31.568262
v 70.810432 3.509205 37.552593
v 70.816734 20.411879 30.077179
v 64.901161 3.484585 37.534122
v 63.387413 20.533680 37.588879
v 62.530609 71.285347 37.645985
v 70.960342 71.285446 37.657467
v 63.361580 21.065201 30.034107
v 62.551727 71.285606 29.171915
v 70.933540 71.285431 29.153099
v 64.877182 3.495460 -42.365913
v 64.869133 3.500415 -36.403233
v 70.765488 3.484142 -36.420792
v 70.796547 3.526658 -42.398506
v 70.819130 20.511869 -34.903709
v 70.960808 71.285461 -42.491493
v 63.363640 20.785343 -42.418118
v 63.358749 21.118954 -34.868870
v 62.532276 71.285339 -42.480698
v 62.551655 71.285606 -34.006046
v 70.931877 71.285339 -33.986210
v -64.832619 3.495453 37.531807
v -64.824570 3.500406 31.569124
v -70.720932 3.484130 31.586685
v -70.751984 3.526649 37.564400
v -70.774574 20.511940 30.069592
v -70.916260 71.285431 37.657360
v -63.319080 20.785315 37.584003
v -63.314182 21.118874 30.034765
v -62.487728 71.285316 37.646561
v -62.507111 71.285583 29.171923
v -70.887321 71.285309 29.152079
v -64.845390 3.488088 -36.391216
v -70.722847 3.494083 -36.400799
v -70.766129 3.502983 -42.383472
v -70.915794 71.285423 -42.491573
v -70.772186 20.412014 -34.911274
v -63.317005 21.065256 -34.868206
v -63.336266 20.736492 -42.416901
v -62.507172 71.285583 -34.006039
v -62.486065 71.285316 -42.480114
v -70.888992 71.285408 -33.987228
v -64.842697 3.513409 -42.369041
v -78.079880 70.656494 39.250732
v -77.799858 70.637985 -45.996216
v -77.618607 70.641884 41.658463
v -76.172729 70.603157 -47.681187
v -76.247993 70.609749 43.054718
v -73.900223 70.683334 -48.150272
v -73.972961 70.702629 43.565422
v 73.899536 70.710083 -48.172665
v 76.247963 70.609634 -47.645058
v 77.584793 70.622566 41.706490
v 76.174072 70.602646 43.090385
v 77.806290 70.643959 -45.947483
v 78.095856 70.726189 39.362701
v -78.085724 73.795052 -43.841599
v -78.064148 73.817085 39.421051
v -77.583824 73.842499 41.712254
v -76.172729 73.870255 43.090805
v -73.826187 73.782837 43.577728
v -73.899521 73.763359 -48.172672
v -76.247925 73.863785 -47.645100
v 73.972946 73.770821 43.565453
v 73.900246 73.790123 -48.150257
v 76.172737 73.870277 -47.681187
v 76.247925 73.863815 43.054710
v 77.803757 73.837761 41.348911
v 77.579895 73.852814 -46.301582
v 78.081940 73.793236 -43.938019
v -77.620094 73.838081 -46.242676
v 73.826180 70.690613 43.577759
v -62.732334 70.830246 37.250740
v -62.732334 70.830246 33.958042
v -62.732327 70.830246 -42.084900
v -62.732357 62.053226 37.178463
v -57.768349 62.060410 37.179802
v -53.094719 64.640366 37.180813
v -53.099903 64.655678 34.021748
v -57.699379 62.080479 34.030865
v -62.732193 62.040070 34.029896
v 53.118298 64.650764 37.174698
v 53.162296 64.637405 34.036289
v -57.767838 62.062229 -42.014938
v -62.732342 62.053211 -42.012627
v -57.710617 62.072453 -38.867916
v -53.121513 64.640907 -38.859856
v -53.070755 64.651825 -42.008926
v -62.732128 62.044472 -38.872364
v 53.143604 64.650978 -38.865780
v -62.732327 70.830246 -38.792187
v 53.142403 64.638496 -42.014294
v 57.813065 62.062199 37.180698
v 62.776886 62.053246 37.178486
v 62.776855 70.830261 37.250763
v 57.755264 62.072552 34.033562
v 62.776672 62.044506 34.038231
v 62.776855 70.830261 33.958061
v 57.813053 62.060268 -42.013519
v 62.776867 70.830261 -42.084877
v 62.776897 62.053230 -42.012596
v 57.744133 62.080524 -38.864868
v 62.776733 62.040077 -38.864029
v 62.776867 70.830261 -38.792179
v 66.557365 70.830276 -34.176338
v 69.850052 70.830276 -34.176338
v 66.633049 62.072510 -28.642143
v 66.625015 64.641190 -24.052031
v 69.783966 64.655579 -24.003996
v 69.779861 62.062271 -28.699688
v 69.777779 62.053230 -34.176353
v 66.637520 62.044502 -34.176163
v 69.769432 64.636520 19.191319
v 69.850052 70.830276 29.342224
v 69.779198 62.060547 23.865204
v 69.777779 62.053246 29.342241
v 66.630119 62.080532 23.796394
v 66.629204 62.040092 29.342094
v 66.630959 64.651077 19.196005
v 66.557365 70.830276 29.342226
v -69.805527 70.830246 -34.176361
v -69.724838 64.636292 -24.025778
v -69.734673 62.060516 -28.699333
v -69.733246 62.053211 -34.176376
v -66.585648 62.080475 -28.630657
v -66.584679 62.040054 -34.176228
v -66.586334 64.651985 -24.029032
v -69.739220 64.654671 19.171282
v -66.588333 62.072563 23.807768
v -66.593002 62.044495 29.342026
v -69.735336 62.062263 23.865547
v -69.733253 62.053226 29.342218
v -66.580582 64.641418 19.217216
v -66.512833 70.830246 29.342199
v -66.512840 70.830246 -34.176365
v -69.805534 70.830246 29.342199
vn -0.3835 -0.5258 0.7593
vn 0.3945 -0.6136 0.6840
vn -0.7106 0.1274 0.6920
vn 0.7593 -0.5256 0.3837
vn 0.7243 -0.4168 -0.5492
vn 0.6100 0.0791 0.7885
vn -0.4843 -0.4330 -0.7602
vn -0.8166 -0.0774 -0.5719
vn -0.7594 -0.5253 -0.3838
vn -0.7242 -0.4169 0.5493
vn -0.6101 0.0792 -0.7884
vn 0.4845 -0.4329 0.7602
vn 0.8163 -0.0773 0.5724
vn 0.3851 -0.5236 -0.7600
vn -0.3923 -0.6154 -0.6837
vn 0.7105 0.1278 -0.6920
vn 0.5818 -0.7604 -0.2885
vn 0.7246 -0.6832 0.0908
vn 0.7794 -0.5287 0.3361
vn -0.1456 -0.7619 -0.6311
vn 0.0007 -0.0086 -1.0000
vn 0.2692 -0.5964 -0.7562
vn 0.2060 -0.7332 0.6480
vn 0.0009 -0.0087 1.0000
vn 0.2486 -0.5966 0.7631
vn 0.0005 -0.0092 1.0000
vn 0.1499 -0.7614 0.6308
vn 0.0172 -0.7091 0.7049
vn 0.0012 -0.0089 -1.0000
vn 0.2701 -0.6859 -0.6757
vn 0.3595 -0.6616 -0.6581
vn 0.2215 -0.7261 0.6509
vn -0.0009 -0.0095 -1.0000
vn -0.1498 -0.7614 -0.6308
vn -0.0176 -0.7085 -0.7055
vn -0.0012 -0.0089 1.0000
vn -0.2701 -0.6856 0.6760
vn -0.3595 -0.6617 0.6579
vn -0.2215 -0.7273 -0.6496
vn 0.1455 -0.7619 0.6312
vn -0.2695 -0.5960 0.7564
vn -0.2058 -0.7331 -0.6482
vn -0.0010 -0.0088 -1.0000
vn -0.2489 -0.5965 -0.7630
vn -1.0000 -0.0092 0.0004
vn -0.6312 -0.7611 0.1490
vn -0.6975 -0.7164 0.0144
vn 0.6766 -0.7363 -0.0054
vn 1.0000 -0.0089 -0.0013
vn 0.6938 -0.6972 -0.1802
vn 0.6474 -0.7328 -0.2092
vn -0.6766 -0.7363 0.0053
vn -1.0000 -0.0089 0.0013
vn -0.6938 -0.6973 0.1804
vn -0.6473 -0.7329 0.2095
vn 1.0000 -0.0092 -0.0004
vn 0.6312 -0.7612 -0.1491
vn 0.6975 -0.7164 -0.0145
vn 0.6667 -0.6998 0.2565
vn 1.0000 -0.0088 0.0011
vn 0.7996 -0.6005 -0.0089
vn 0.7595 -0.4336 -0.4849
vn 0.7527 0.1034 -0.6501
vn -0.7596 -0.4332 0.4851
vn -0.7527 0.1030 0.6503
vn -0.6445 -0.7634 -0.0426
vn -0.6386 -0.7507 -0.1691
vn -0.6536 -0.7282 0.2064
vn 0.5263 0.7211 -0.4505
vn 0.6418 0.7498 0.1607
vn 0.8714 0.4878 -0.0522
vn -0.7338 0.6520 -0.1908
vn -0.8641 0.5034 -0.0059
vn 0.1808 -0.6973 0.6936
vn 0.2933 -0.6542 -0.6971
vn 0.1810 -0.6978 -0.6930
vn -0.1807 -0.6978 0.6931
vn -0.1807 -0.6972 -0.6937
vn -0.2934 -0.6555 0.6959
vn -0.6509 -0.7250 0.2252
vn 0.7679 -0.5959 0.2352
vn 0.6934 -0.6980 -0.1786
vn 1.0000 -0.0085 0.0007
vn 0.6760 -0.6854 0.2707
vn -1.0000 -0.0089 -0.0011
vn -0.7561 -0.5965 -0.2692
vn -0.6314 -0.7609 -0.1498
vn -0.6956 -0.6553 -0.2946
vn 0.7562 -0.5964 0.2693
vn 0.6317 -0.7616 -0.1448
vn -0.8397 -0.5406 -0.0513
vn -0.7680 -0.5957 -0.2351
vn -0.6931 -0.6978 -0.1805
vn -1.0000 -0.0085 -0.0007
vn -0.7652 0.1412 0.6282
vn -0.5867 -0.1629 -0.7932
vn 0.6980 0.1662 0.6965
vn -0.4783 -0.4665 -0.7441
vn 0.6277 0.1399 -0.7658
vn -0.7409 -0.5409 0.3982
vn -0.7644 0.1417 -0.6290
vn -0.6047 -0.1960 0.7720
vn -0.6972 0.1639 0.6978
vn 0.6984 0.1662 -0.6961
vn 0.6273 0.1397 0.7662
vn 0.7408 -0.5410 -0.3981
vn 0.7650 0.1412 0.6284
vn 0.6045 -0.1961 -0.7721
vn 0.6973 0.1638 -0.6978
vn -0.6984 0.1662 0.6961
vn -0.6274 0.1398 -0.7661
vn 0.3910 -0.7994 0.4561
vn 0.6175 0.0587 0.7844
vn 0.7652 0.1410 -0.6282
vn -0.6980 0.1664 -0.6965
vn -0.6277 0.1399 0.7658
vn -0.3032 -0.7830 0.5432
vn 0.4329 -0.7398 0.5150
vn -0.4761 -0.5112 -0.7155
vn 0.2512 -0.5823 -0.7732
vn -0.5975 0.6073 0.5236
vn -0.6147 0.7770 0.1353
vn -0.1923 0.6131 0.7662
vn -0.2064 0.6367 -0.7430
vn 0.4326 0.7399 -0.5153
vn 0.2514 0.5820 0.7733
vn -0.0372 0.5390 0.8415
vn -0.1455 0.6828 0.7160
vn 0.1344 -0.6897 0.7115
vn -0.2201 -0.5877 0.7785
vn -0.0171 -0.5143 -0.8574
vn -0.0408 0.4906 -0.8705
vn -0.0144 -0.7003 -0.7137
vn 0.1204 0.5383 -0.8341
vn -0.6971 0.1640 -0.6979
vn 0.6972 0.1637 0.6979
vt 0.622288 0.689562
vt 0.646960 0.684809
vt 0.630007 0.763086
vt 0.852816 0.344786
vt 0.880896 0.340405
vt 0.858547 0.427224
vt 0.767051 0.340375
vt 0.794743 0.344779
vt 0.788498 0.427235
vt 0.645697 0.663539
vt 0.617630 0.668003
vt 0.639723 0.581119
vt 0.731474 0.667697
vt 0.703770 0.663375
vt 0.709771 0.580901
vt 0.709168 0.973009
vt 0.684381 0.976281
vt 0.705669 0.899155
vt 0.013472 0.978498
vt 0.011899 0.709350
vt 0.013510 0.702219
vt 0.560936 0.259905
vt 0.553787 0.296247
vt 0.540142 0.258192
vt 0.517718 0.245713
vt 0.554025 0.208536
vt 0.539985 0.247011
vt 0.553706 0.296884
vt 0.560914 0.333236
vt 0.540124 0.334980
vt 0.554102 0.384588
vt 0.517731 0.347481
vt 0.539980 0.346151
vt 0.517641 0.333515
vt 0.025754 0.296884
vt 0.018481 0.260584
vt 0.039266 0.258799
vt 0.025202 0.209186
vt 0.061573 0.246275
vt 0.039398 0.247626
vt 0.061741 0.260226
vt 0.018459 0.333679
vt 0.025671 0.297390
vt 0.039249 0.335433
vt 0.061597 0.347862
vt 0.025278 0.385093
vt 0.039393 0.346615
vt 0.023131 0.202922
vt 0.015544 0.164471
vt 0.039625 0.162388
vt 0.283092 0.147881
vt 0.300182 0.106921
vt 0.307387 0.146285
vt 0.259762 0.146748
vt 0.348993 0.161060
vt 0.332468 0.199781
vt 0.325895 0.162417
vt 0.371158 0.162347
vt 0.596416 0.110912
vt 0.603367 0.147528
vt 0.580472 0.149349
vt 0.371145 0.148245
vt 0.332717 0.111629
vt 0.558116 0.147826
vt 0.569947 0.691362
vt 0.567950 0.765159
vt 0.545191 0.688231
vt 0.761666 0.974391
vt 0.768073 0.900804
vt 0.786181 0.978963
vt 0.504671 0.709008
vt 0.503558 0.978081
vt 0.503183 0.701667
vt 0.011261 0.412004
vt 0.014207 0.688338
vt 0.009790 0.419332
vt 0.010858 0.010527
vt 0.006644 0.023355
vt 0.005912 0.010494
vt 0.504378 0.020698
vt 0.505068 0.007690
vt 0.509310 0.020659
vt 0.560973 0.245622
vt 0.517736 0.259659
vt 0.560977 0.347492
vt 0.018395 0.246329
vt 0.018400 0.347961
vt 0.061643 0.333940
vt 0.063189 0.163766
vt 0.039653 0.150588
vt 0.015332 0.149450
vt 0.021789 0.110034
vt 0.062867 0.148908
vt 0.300598 0.199820
vt 0.283350 0.159689
vt 0.307466 0.161333
vt 0.259915 0.161598
vt 0.348837 0.149858
vt 0.325926 0.148134
vt 0.558289 0.161969
vt 0.580358 0.160584
vt 0.603464 0.161824
vt 0.597052 0.199333
vt 0.642401 0.977239
vt 0.598808 0.765560
vt 0.678204 0.974436
vt 0.596469 0.692298
vt 0.570026 0.979933
vt 0.533876 0.979510
vt 0.848186 0.739875
vt 0.959310 0.853008
vt 0.847606 0.852796
vt 0.824155 0.346505
vt 0.783160 0.667131
vt 0.824197 0.428842
vt 0.823861 0.668110
vt 0.743034 0.665354
vt 0.864162 0.667393
vt 0.904570 0.665550
vt 0.958952 0.973457
vt 0.848241 0.859920
vt 0.959944 0.860538
vt 0.674352 0.661737
vt 0.714404 0.340991
vt 0.674069 0.579400
vt 0.673700 0.340132
vt 0.754534 0.342649
vt 0.633400 0.340967
vt 0.592998 0.342930
vt 0.729508 0.299928
vt 0.617543 0.186419
vt 0.731930 0.186361
vt 0.735326 0.972140
vt 0.737294 0.898553
vt 0.706472 0.684640
vt 0.670564 0.685292
vt 0.778879 0.686292
vt 0.814938 0.688881
vt 0.498846 0.697308
vt 0.017901 0.697706
vt 0.498973 0.983486
vt 0.018029 0.983890
vt 0.504123 0.683725
vt 0.502440 0.413540
vt 0.505512 0.676355
vt 0.500839 0.406224
vt 0.499749 0.688066
vt 0.496462 0.401907
vt 0.015552 0.407620
vt 0.018839 0.693779
vt 0.185427 0.022427
vt 0.189452 0.009484
vt 0.189493 0.022315
vt 0.180471 0.022438
vt 0.184690 0.009432
vt 0.500272 0.007807
vt 0.678891 0.006655
vt 0.683823 0.006683
vt 0.678907 0.019707
vt 0.001915 0.023534
vt 0.993849 0.017848
vt 0.998677 0.004845
vt 0.998675 0.017847
vt 0.692807 0.019689
vt 0.993829 0.004803
vt 0.687929 0.019567
vt 0.692790 0.006640
vt 0.683863 0.019643
vt 0.687888 0.006736
vt 0.194354 0.009430
vt 0.495411 0.020692
vt 0.495394 0.007642
vt 0.491869 0.985149
vt 0.025005 0.696049
vt 0.492664 0.689808
vt 0.022637 0.405878
vt 0.742478 0.185916
vt 0.854024 0.299311
vt 0.742559 0.300144
vt 0.606098 0.979349
vt 0.959031 0.739839
vt 0.848108 0.973089
vt 0.617569 0.299520
vt 0.742836 0.684712
vt 0.500313 0.020638
vt 0.001931 0.010424
vt 0.194371 0.022480
vt 0.025212 0.985481
vt 0.491662 0.695718
vt 0.026039 0.695290
vt 0.489262 0.400396
vt 0.854376 0.186179
s 1
usemtl old_table_mat.001
f 5/1/1 3/2/2 6/3/3
f 14/4/4 15/5/5 16/6/6
f 15/7/5 12/8/7 18/9/8
f 25/10/9 26/11/10 27/12/11
f 26/13/10 23/14/12 29/15/13
f 44/16/14 36/17/15 40/18/16
f 56/19/17 57/20/18 54/21/19
f 82/22/20 75/23/21 81/24/22
f 79/25/23 74/26/24 78/27/25
f 92/28/26 90/29/27 87/30/28
f 76/31/29 89/32/30 85/33/31
f 88/34/32 92/28/26 87/30/28
f 99/35/33 98/36/34 97/37/35
f 96/38/36 83/39/37 94/40/38
f 84/41/39 99/35/33 97/37/35
f 104/42/40 105/43/36 103/44/41
f 93/45/42 101/46/43 100/47/44
f 106/48/45 113/49/46 108/50/47
f 116/51/48 115/52/49 117/53/50
f 114/54/51 115/52/49 116/51/48
f 124/55/52 122/56/53 125/57/54
f 123/58/55 122/56/53 124/55/52
f 135/59/56 131/60/57 130/61/58
f 128/62/59 136/63/60 134/64/61
f 135/59/56 134/64/61 136/63/60
f 2/65/62 4/66/63 3/67/2
f 35/68/64 38/69/65 36/70/15
f 45/71/66 46/72/67 47/73/68
f 70/74/69 69/75/70 71/76/71
f 57/77/18 69/78/70 54/79/19
f 72/80/72 46/81/67 58/82/73
f 74/26/24 77/83/74 78/27/25
f 80/84/75 81/24/22 75/23/21
f 85/33/31 86/85/76 76/31/29
f 94/40/38 95/86/77 96/38/36
f 101/46/43 102/87/78 100/47/44
f 91/88/79 103/44/41 105/43/36
f 106/48/45 108/50/47 109/89/80
f 111/90/81 112/91/82 107/92/83
f 110/93/84 111/90/81 107/92/83
f 121/94/85 118/95/86 119/96/87
f 120/97/88 118/95/86 121/94/85
f 136/63/60 126/98/89 127/99/90
f 128/62/59 126/98/89 136/63/60
f 123/58/55 129/100/91 122/56/53
f 135/59/56 130/61/58 134/64/61
f 132/101/92 133/102/93 137/103/94
f 129/100/91 132/101/92 137/103/94
f 137/103/94 122/56/53 129/100/91
f 7/104/95 9/105/96 6/3/3
f 8/106/97 6/3/3 3/2/2
f 4/66/63 1/107/98 9/105/96
f 9/105/96 11/108/99 4/66/63
f 8/109/97 4/66/63 11/108/99
f 14/110/4 12/111/7 15/112/5
f 13/113/100 18/9/8 12/8/7
f 20/114/101 19/115/102 21/116/103
f 18/9/8 17/117/104 15/7/5
f 16/6/6 13/113/100 14/4/4
f 22/118/105 19/115/102 16/6/6
f 17/119/104 16/6/6 15/5/5
f 25/120/9 23/121/12 26/122/10
f 24/123/106 29/15/13 23/14/12
f 31/124/107 30/125/108 32/126/109
f 29/15/13 28/127/110 26/13/10
f 27/12/11 24/123/106 25/10/9
f 33/128/111 30/125/108 27/12/11
f 28/129/110 27/12/11 26/11/10
f 35/130/64 44/131/14 34/132/112
f 34/133/112 40/18/16 39/134/113
f 42/135/114 39/134/113 40/18/16
f 37/136/115 40/18/16 36/17/15
f 38/69/65 34/133/112 39/134/113
f 39/134/113 43/137/116 38/69/65
f 37/138/115 38/69/65 43/137/116
f 46/72/67 49/139/117 47/73/68
f 55/140/118 48/141/119 53/142/120
f 55/140/118 56/19/17 54/21/19
f 60/143/121 58/144/73 59/145/122
f 72/146/72 61/147/123 64/148/124
f 67/149/125 61/147/123 68/150/126
f 69/75/70 67/149/125 68/150/126
f 70/151/69 53/152/120 67/153/125
f 57/77/18 71/154/71 69/78/70
f 56/155/17 70/151/69 71/154/71
f 72/80/72 48/156/119 46/81/67
f 45/157/66 58/82/73 46/81/67
f 47/158/68 59/159/122 45/157/66
f 68/160/126 54/79/19 69/78/70
f 65/161/127 55/162/118 68/163/126
f 62/164/128 73/165/129 65/161/127
f 61/166/123 51/167/130 62/164/128
f 60/168/121 49/169/117 61/166/123
f 52/170/131 67/153/125 53/152/120
f 63/171/132 52/170/131 50/172/133
f 48/156/119 63/171/132 50/172/133
f 50/173/133 53/142/120 48/141/119
f 73/174/129 49/139/117 55/140/118
f 62/175/128 68/150/126 61/147/123
f 66/176/134 64/148/124 67/149/125
f 79/25/23 81/24/22 80/84/75
f 78/27/25 82/22/20 81/24/22
f 99/35/33 80/84/75 75/23/21
f 74/26/24 83/39/37 96/38/36
f 83/39/37 80/84/75 84/41/39
f 89/32/30 87/30/28 85/33/31
f 85/33/31 90/29/27 86/85/76
f 91/88/79 92/28/26 88/34/32
f 89/32/30 101/46/43 93/45/42
f 89/32/30 91/88/79 88/34/32
f 83/39/37 97/37/35 94/40/38
f 94/40/38 98/36/34 95/86/77
f 93/45/42 103/44/41 91/88/79
f 100/47/44 104/42/40 103/44/41
f 111/90/81 113/49/46 112/91/82
f 110/93/84 108/50/47 111/90/81
f 110/93/84 115/52/49 114/54/51
f 116/51/48 119/96/87 118/95/86
f 114/54/51 118/95/86 120/97/88
f 110/93/84 120/97/88 109/89/80
f 106/48/45 120/97/88 121/94/85
f 124/55/52 127/99/90 126/98/89
f 123/58/55 126/98/89 128/62/59
f 132/101/92 131/60/57 133/102/93
f 129/100/91 130/61/58 132/101/92
f 128/62/59 129/100/91 123/58/55
f 1/107/98 6/3/3 9/105/96
f 2/177/62 5/178/1 1/179/98
f 7/104/95 10/180/135 9/105/96
f 8/106/97 7/104/95 6/3/3
f 4/66/63 2/65/62 1/107/98
f 9/105/96 10/180/135 11/108/99
f 8/109/97 3/67/2 4/66/63
f 14/110/4 13/181/100 12/111/7
f 13/113/100 19/115/102 18/9/8
f 20/114/101 18/9/8 19/115/102
f 18/9/8 20/114/101 17/117/104
f 16/6/6 19/115/102 13/113/100
f 22/118/105 21/116/103 19/115/102
f 17/119/104 22/118/105 16/6/6
f 25/120/9 24/182/106 23/121/12
f 24/123/106 30/125/108 29/15/13
f 31/124/107 29/15/13 30/125/108
f 29/15/13 31/124/107 28/127/110
f 27/12/11 30/125/108 24/123/106
f 33/128/111 32/126/109 30/125/108
f 28/129/110 33/128/111 27/12/11
f 35/130/64 36/183/15 44/131/14
f 34/133/112 44/16/14 40/18/16
f 42/135/114 41/184/136 39/134/113
f 37/136/115 42/135/114 40/18/16
f 38/69/65 35/68/64 34/133/112
f 39/134/113 41/184/136 43/137/116
f 37/138/115 36/70/15 38/69/65
f 46/72/67 48/141/119 49/139/117
f 55/140/118 49/139/117 48/141/119
f 55/140/118 53/142/120 56/19/17
f 60/143/121 72/146/72 58/144/73
f 72/146/72 60/143/121 61/147/123
f 67/149/125 64/148/124 61/147/123
f 69/75/70 70/74/69 67/149/125
f 70/151/69 56/155/17 53/152/120
f 57/77/18 56/155/17 71/154/71
f 72/80/72 64/185/124 48/156/119
f 45/157/66 59/159/122 58/82/73
f 47/158/68 60/168/121 59/159/122
f 68/160/126 55/186/118 54/79/19
f 65/161/127 73/165/129 55/162/118
f 62/164/128 51/167/130 73/165/129
f 61/166/123 49/169/117 51/167/130
f 60/168/121 47/158/68 49/169/117
f 52/170/131 66/187/134 67/153/125
f 63/171/132 66/187/134 52/170/131
f 48/156/119 64/185/124 63/171/132
f 50/173/133 52/188/131 53/142/120
f 73/174/129 51/189/130 49/139/117
f 62/175/128 65/190/127 68/150/126
f 66/176/134 63/191/132 64/148/124
f 79/25/23 78/27/25 81/24/22
f 78/27/25 77/83/74 82/22/20
f 99/35/33 84/41/39 80/84/75
f 74/26/24 79/25/23 83/39/37
f 83/39/37 79/25/23 80/84/75
f 89/32/30 88/34/32 87/30/28
f 85/33/31 87/30/28 90/29/27
f 91/88/79 105/43/36 92/28/26
f 89/32/30 76/31/29 101/46/43
f 89/32/30 93/45/42 91/88/79
f 83/39/37 84/41/39 97/37/35
f 94/40/38 97/37/35 98/36/34
f 93/45/42 100/47/44 103/44/41
f 100/47/44 102/87/78 104/42/40
f 111/90/81 108/50/47 113/49/46
f 110/93/84 109/89/80 108/50/47
f 110/93/84 107/92/83 115/52/49
f 116/51/48 117/53/50 119/96/87
f 114/54/51 116/51/48 118/95/86
f 110/93/84 114/54/51 120/97/88
f 106/48/45 109/89/80 120/97/88
f 124/55/52 125/57/54 127/99/90
f 123/58/55 124/55/52 126/98/89
f 132/101/92 130/61/58 131/60/57
f 129/100/91 134/64/61 130/61/58
f 128/62/59 134/64/61 129/100/91
f 1/107/98 5/1/1 6/3/3
f 2/177/62 3/192/2 5/178/1
