# Blender 4.3.2
# www.blender.org
mtllib BoteBasuraAzul.mtl
o Green_Lid
v 0.208393 0.905346 0.253189
v 0.255562 0.905346 0.215454
v 0.226444 0.905346 0.250317
v 0.241747 0.905346 0.242137
v 0.251972 0.905346 0.229895
v 0.253643 0.905348 -0.267206
v 0.208393 0.905346 -0.293329
v 0.241747 0.905346 -0.282276
v 0.226444 0.905346 -0.290456
v -0.214595 0.905346 -0.293329
v -0.261764 0.905346 -0.255593
v -0.232646 0.905346 -0.290456
v -0.247948 0.905346 -0.282276
v -0.258173 0.905346 -0.270034
v -0.214595 0.905346 0.253189
v -0.261764 0.905346 0.215454
v -0.232646 0.905346 0.250317
v -0.258173 0.905346 0.229895
v -0.247948 0.905346 0.242137
v 0.208393 0.927038 0.253189
v 0.255562 0.927038 0.215454
v 0.226444 0.927038 0.250317
v 0.241747 0.927038 0.242137
v 0.251972 0.927038 0.229895
v 0.255562 0.927038 -0.255593
v 0.208393 0.927038 -0.293329
v 0.251972 0.927038 -0.270034
v 0.241747 0.927038 -0.282276
v 0.226444 0.927038 -0.290456
v -0.214595 0.927038 -0.293329
v -0.259844 0.927036 -0.267205
v -0.232646 0.927038 -0.290456
v -0.247948 0.927038 -0.282276
v -0.214595 0.927038 0.253189
v -0.261764 0.927038 0.215454
v -0.232646 0.927038 0.250317
v -0.258173 0.927038 0.229895
v -0.247948 0.927038 0.242137
v 0.192040 0.906185 0.233456
v 0.208694 0.906185 0.230806
v 0.222813 0.906185 0.223259
v 0.232247 0.906185 0.211964
v 0.235560 0.906185 0.198640
v 0.233790 0.906197 -0.246672
v 0.222813 0.906185 -0.260579
v 0.202214 0.906186 -0.270305
v -0.198220 0.906185 -0.270776
v -0.214874 0.906185 -0.268126
v -0.228993 0.906185 -0.260579
v -0.238426 0.906185 -0.249284
v -0.241739 0.906185 -0.235961
v -0.214874 0.906185 0.230806
v -0.198220 0.906185 0.233456
v -0.228993 0.906185 0.223259
v -0.239968 0.906184 0.209353
v 0.192040 0.926199 0.233456
v 0.208694 0.926199 0.230806
v 0.222813 0.926199 0.223259
v 0.232247 0.926199 0.211964
v 0.235560 0.926199 0.198640
v 0.235560 0.926199 -0.235961
v 0.232247 0.926199 -0.249284
v 0.222813 0.926199 -0.260579
v 0.208694 0.926199 -0.268126
v 0.192040 0.926199 -0.270776
v -0.198220 0.926199 -0.270776
v -0.214874 0.926199 -0.268126
v -0.228993 0.926199 -0.260579
v -0.238426 0.926199 -0.249284
v -0.241739 0.926199 -0.235961
v -0.214874 0.926199 0.230806
v -0.198220 0.926199 0.233456
v -0.228993 0.926199 0.223259
v -0.241739 0.926199 0.198640
v -0.238426 0.926199 0.211964
v 0.135212 0.926199 0.233456
v -0.182429 0.926199 -0.270776
v -0.011194 0.926199 -0.270776
v 0.173686 0.926199 -0.270776
v 0.004198 0.926199 -0.270776
v -0.136958 0.926199 0.233456
v -0.093848 0.926199 0.233456
v -0.026343 0.926199 0.233456
v 0.018950 0.926199 0.233456
v 0.091831 0.926199 0.233456
v 0.145488 0.957825 0.169201
v 0.168218 0.957828 0.156154
v 0.170052 0.957827 0.065544
v 0.146744 0.957824 0.048320
v -0.153036 0.957824 0.048392
v -0.176159 0.957827 0.065542
v -0.151382 0.957824 0.169268
v -0.174323 0.957828 0.156155
v 0.103480 0.905346 -0.293329
v 0.089151 0.905346 -0.293329
v 0.103480 0.927038 -0.293329
v 0.089151 0.927038 -0.293329
v 0.101559 0.907444 -0.352317
v 0.091072 0.907444 -0.352317
v 0.101559 0.929136 -0.352317
v 0.091072 0.929136 -0.352317
v -0.103040 0.905346 -0.293329
v -0.117370 0.905346 -0.293329
v -0.103040 0.927038 -0.293329
v -0.117370 0.927038 -0.293329
v -0.104961 0.907444 -0.352317
v -0.115449 0.907444 -0.352317
v -0.104961 0.929136 -0.352317
v -0.115449 0.929136 -0.352317
v -0.084306 0.938393 0.208752
v -0.023888 0.938393 0.208752
v -0.192626 0.938393 0.206380
v -0.177720 0.938393 0.208752
v 0.199111 0.938393 0.199625
v 0.207554 0.938393 0.189516
v -0.122890 0.938393 0.208752
v 0.120707 0.938393 0.208752
v 0.171569 0.938393 0.208752
v 0.186474 0.938393 0.206380
v 0.081880 0.938393 0.208752
v -0.216671 0.938393 0.177592
v -0.213706 0.938393 0.189516
v -0.205262 0.938393 0.199625
v 0.016651 0.938393 0.208752
v 0.210519 0.938393 0.177592
v -0.186078 0.938393 0.244468
v 0.199111 0.938393 0.235511
v 0.209053 0.938393 0.222344
v 0.181432 0.938393 0.244282
v -0.215085 0.938393 0.223068
v -0.205262 0.938393 0.235511
v 0.209436 0.945590 0.169806
v -0.187391 0.945590 0.193668
v -0.205262 0.945590 0.184741
v 0.181646 0.945590 0.193498
v -0.215588 0.945590 0.169806
v 0.199111 0.945590 0.184741
v 0.209437 0.945590 0.222215
v -0.187209 0.945590 0.244432
v -0.205262 0.945590 0.235511
v 0.180260 0.945590 0.244355
v -0.215697 0.945590 0.221340
v 0.199111 0.945590 0.235511
v 0.215431 0.010219 0.044388
v 0.219345 0.556428 0.044387
v 0.199611 0.010216 0.112042
v 0.209917 0.556435 0.090662
v 0.155284 0.555139 0.165244
v 0.152319 0.010219 0.166243
v -0.152320 0.010219 0.166242
v -0.152320 0.556428 0.166242
v -0.189391 0.010219 0.128053
v -0.192926 0.556428 0.122670
v -0.211274 0.010219 0.078007
v -0.211274 0.556428 0.078007
v -0.215413 0.010219 0.044387
v -0.215413 0.556428 0.044387
v 0.213853 0.010216 -0.051244
v 0.219345 0.556428 -0.027976
v 0.206473 0.556458 -0.080136
v 0.191818 0.010219 -0.108134
v 0.167961 0.555975 -0.137252
v 0.149911 0.010219 -0.151979
v 0.083278 0.556428 -0.193723
v 0.082435 0.010219 -0.193734
v -0.082435 0.556428 -0.193734
v -0.149424 0.010219 -0.152373
v -0.150397 0.556428 -0.151567
v -0.190696 0.010219 -0.109844
v -0.192924 0.556428 -0.106260
v -0.213532 0.010219 -0.053460
v -0.211274 0.556428 -0.061596
v -0.215497 0.556399 0.044376
v 0.219345 0.556428 0.044387
v 0.202096 0.877166 0.246174
v 0.247169 0.877166 0.210116
v 0.219345 0.877166 0.243429
v 0.233968 0.877166 0.235613
v 0.243738 0.877166 0.223915
v 0.247169 0.877166 -0.240001
v 0.202096 0.877166 -0.276060
v 0.243738 0.877166 -0.253800
v 0.233968 0.877166 -0.265498
v 0.219345 0.877166 -0.273315
v 0.213695 0.557680 0.209966
v 0.244450 0.588396 0.219512
v 0.215987 0.588801 0.243548
v 0.231850 0.570527 0.223331
v 0.215236 0.564825 0.229902
v 0.233459 0.590203 0.234616
v 0.201098 0.557742 -0.250013
v 0.212034 0.588295 -0.274643
v 0.243973 0.588851 -0.250830
v 0.213396 0.570140 -0.264502
v 0.219345 0.559859 -0.240001
v 0.232776 0.590080 -0.265027
v 0.229821 0.568757 -0.253797
v -0.202097 0.877166 -0.276060
v -0.247170 0.877166 -0.240001
v -0.219345 0.877166 -0.273315
v -0.233968 0.877166 -0.265498
v -0.243739 0.877166 -0.253800
v -0.215413 0.556428 -0.240001
v -0.244451 0.588397 -0.249396
v -0.215986 0.588802 -0.273434
v -0.233240 0.570082 -0.242037
v -0.205623 0.557348 -0.249139
v -0.225343 0.570045 -0.259345
v -0.233458 0.590203 -0.264502
v -0.202050 0.569632 -0.265500
v -0.202097 0.877166 0.246174
v -0.247170 0.877166 0.210116
v -0.219345 0.877166 0.243429
v -0.243739 0.877166 0.223915
v -0.233968 0.877166 0.235613
v -0.215413 0.556428 0.210116
v -0.214215 0.588227 0.243914
v -0.243974 0.588852 0.220944
v -0.216928 0.559702 0.219851
v -0.213396 0.570139 0.234616
v -0.232777 0.590083 0.235141
v -0.233072 0.571749 0.223331
v 0.208393 0.879247 0.253189
v 0.253681 0.879179 0.226966
v 0.234258 0.879207 0.247787
v 0.254382 0.879246 -0.265119
v 0.208393 0.879247 -0.293329
v 0.236958 0.879260 -0.286400
v -0.214595 0.879247 -0.293329
v -0.259849 0.879239 -0.267193
v -0.240378 0.879263 -0.287967
v -0.214595 0.879247 0.253189
v -0.260585 0.879238 0.224974
v -0.243107 0.879226 0.246297
v 0.208393 0.905346 0.253189
v 0.254383 0.905346 0.224977
v 0.236967 0.905346 0.246255
v 0.253642 0.905346 -0.267208
v 0.208393 0.905346 -0.293329
v 0.234171 0.905346 -0.287970
v -0.214595 0.905346 -0.293329
v -0.260585 0.905346 -0.265114
v -0.243168 0.905346 -0.286394
v -0.214595 0.905346 0.253189
v -0.259844 0.905346 0.227067
v -0.240370 0.905346 0.247832
v 0.206129 0.905346 0.236486
v 0.237408 0.905349 0.217772
v 0.236301 0.905349 -0.259088
v 0.206192 0.905346 -0.276616
v -0.211759 0.905346 -0.276833
v -0.242553 0.905348 -0.259007
v -0.213023 0.905346 0.236658
v -0.244022 0.905348 0.216054
v 0.208393 0.905346 -0.333014
v -0.214595 0.905346 -0.333014
v 0.208393 0.931445 -0.333014
v -0.214595 0.931445 -0.333014
v 0.208393 0.905346 -0.353895
v -0.214595 0.905346 -0.353895
v 0.208393 0.931445 -0.353895
v -0.214595 0.931445 -0.353895
v -0.082435 0.010219 -0.193734
v -0.185742 0.877166 -0.276060
v -0.197480 0.879247 -0.293329
v -0.197480 0.905346 -0.293329
v -0.197480 0.905346 -0.333014
v -0.197480 0.931445 -0.333014
v 0.007548 0.877166 -0.276060
v 0.004798 0.879247 -0.293329
v 0.004798 0.905346 -0.293329
v 0.004798 0.905346 -0.333014
v 0.004798 0.931445 -0.333014
v 0.089151 0.905346 -0.353895
v 0.089151 0.931445 -0.353895
v -0.008394 0.877166 -0.276060
v -0.011885 0.879247 -0.293329
v -0.011885 0.905346 -0.293329
v -0.011885 0.905346 -0.333014
v -0.011885 0.931445 -0.333014
v 0.183087 0.877166 -0.276060
v 0.188500 0.879247 -0.293329
v 0.188500 0.905346 -0.293329
v 0.188500 0.905346 -0.333014
v 0.188500 0.931445 -0.333014
v 0.215402 0.912686 -0.349603
v -0.222441 0.911887 -0.348827
v 0.215402 0.911210 -0.339544
v -0.222441 0.911821 -0.338661
v 0.215402 0.921187 -0.335676
v -0.222441 0.922248 -0.336103
v -0.222441 0.925570 -0.348633
v 0.215402 0.926211 -0.347691
v -0.119230 0.905346 -0.333014
v -0.119230 0.931445 -0.333014
v -0.119230 0.905346 -0.353895
v -0.119230 0.931445 -0.353895
v -0.101883 0.905346 -0.333014
v -0.101883 0.931445 -0.333014
v -0.101883 0.905346 -0.353895
v -0.101883 0.931445 -0.353895
v 0.089151 0.905346 -0.333014
v 0.089151 0.931445 -0.333014
v 0.103480 0.905346 -0.333014
v 0.103480 0.931445 -0.333014
v 0.103480 0.905346 -0.353895
v 0.103480 0.931445 -0.353895
v -0.214595 0.879247 0.276675
v 0.208393 0.879247 0.276675
v -0.214542 0.905353 0.277399
v 0.208393 0.905346 0.276675
v -0.138985 0.746119 0.276456
v 0.132783 0.746117 0.276587
v -0.109099 0.880795 0.279665
v -0.051919 0.905346 0.279084
v -0.000986 0.746117 0.276544
v 0.114922 0.905333 0.279459
v 0.138153 0.877150 0.279365
v 0.152319 0.556428 0.223915
v 0.152319 0.010219 0.216715
v -0.152320 0.010219 0.216703
v -0.152320 0.556428 0.223915
v 0.152319 0.556428 0.210116
v -0.152320 0.556428 0.210116
v 0.069024 0.491036 0.223915
v 0.069024 0.010219 0.216763
v -0.069024 0.010219 0.216763
v -0.069024 0.491036 0.223915
v 0.069024 0.335173 0.187888
v 0.069024 0.010219 0.187888
v -0.069024 0.010219 0.187888
v -0.069024 0.335173 0.187888
v -0.069520 0.271759 0.194687
v 0.069528 0.270276 0.195749
v 0.069549 0.266348 0.212718
v -0.069551 0.266186 0.212837
v -0.069525 0.284879 0.216359
v 0.069528 0.286222 0.216052
v 0.069549 0.290148 0.199083
v -0.069559 0.291562 0.201590
v 0.222343 0.111077 -0.169430
v -0.221761 0.103202 -0.161823
v 0.222343 0.103229 -0.157660
v -0.221761 0.111078 -0.146569
v 0.222343 0.111854 -0.146341
v -0.221761 0.127156 -0.154176
v 0.222343 0.126086 -0.152885
v 0.222343 0.124939 -0.164596
v -0.221761 0.119283 -0.169430
v -0.228985 0.127458 -0.258757
v -0.229866 0.087371 -0.255331
v -0.213108 0.043988 -0.235846
v -0.228985 0.033306 -0.225596
v -0.213108 0.012959 -0.185682
v -0.229579 0.010063 -0.170459
v -0.213108 0.009635 -0.146299
v -0.213108 0.022325 -0.108688
v -0.228985 0.043990 -0.080152
v -0.229845 0.145062 -0.061191
v -0.213108 0.186369 -0.080152
v -0.228985 0.181206 -0.078523
v -0.228985 0.208035 -0.108688
v -0.213108 0.217397 -0.130311
v -0.229779 0.220154 -0.146292
v -0.213108 0.220724 -0.169696
v -0.228985 0.217398 -0.185684
v -0.213108 0.208032 -0.207316
v -0.228985 0.198543 -0.220893
v -0.213108 0.181210 -0.237473
v -0.213108 0.122799 -0.261094
v -0.229798 0.013397 -0.130720
v -0.229586 0.104898 -0.057290
v -0.229779 0.166296 -0.246440
v -0.219150 0.104726 -0.190884
v -0.219171 0.080151 -0.154706
v -0.219150 0.111649 -0.123800
v -0.219004 0.152263 -0.161485
v 0.229441 0.127458 -0.258757
v 0.230322 0.087370 -0.255331
v 0.213563 0.043988 -0.235846
v 0.229441 0.033306 -0.225596
v 0.213563 0.012959 -0.185682
v 0.230035 0.010063 -0.170460
v 0.213563 0.009635 -0.146299
v 0.230254 0.013397 -0.130720
v 0.213563 0.022325 -0.108688
v 0.229441 0.043990 -0.080152
v 0.230042 0.104898 -0.057290
v 0.230301 0.145062 -0.061191
v 0.213563 0.186369 -0.080152
v 0.229441 0.181206 -0.078523
v 0.229441 0.208035 -0.108688
v 0.213563 0.217397 -0.130311
v 0.230235 0.220154 -0.146292
v 0.213563 0.220724 -0.169696
v 0.229441 0.217398 -0.185684
v 0.213563 0.197054 -0.225595
v 0.229441 0.198543 -0.220893
v 0.230235 0.166297 -0.246440
v 0.213563 0.122799 -0.261094
v 0.219572 0.094855 -0.187025
v 0.219549 0.088404 -0.134041
v 0.219577 0.143275 -0.135997
v 0.219635 0.141568 -0.180001
v 0.213563 0.049151 -0.078524
v 0.213563 0.107561 -0.054906
v -0.213108 0.049151 -0.078524
v -0.213108 0.107561 -0.054906
vn -0.8569 0.0006 -0.5154
vn -0.8811 -0.0150 -0.4726
vn -0.9695 -0.0433 -0.2411
vn 0.0025 0.9994 0.0349
vn -0.0000 0.9993 0.0372
vn 0.0410 -0.9992 -0.0004
vn 0.0349 -0.9994 -0.0026
vn 0.0359 -0.9993 -0.0089
vn -0.0029 0.9992 -0.0395
vn -0.0000 0.9991 -0.0425
vn 0.0046 0.9994 0.0339
vn -0.0051 0.9993 -0.0383
vn -0.0000 0.8972 0.4415
vn -0.0369 0.9722 0.2314
vn -0.0000 0.8972 0.4416
vn -0.0402 0.9067 0.4198
vn -0.1260 0.9309 0.3427
vn 0.3089 0.9340 0.1793
vn 0.2085 0.9727 0.1016
vn 0.2076 0.9389 0.2744
vn 0.4070 0.9124 0.0431
vn 0.2194 0.9755 -0.0148
vn 0.0001 0.8974 0.4412
vn -0.0000 0.9951 -0.0986
vn 0.0204 0.9983 -0.0554
vn 0.0075 0.9952 -0.0975
vn -0.1127 0.9906 -0.0772
vn -0.2187 0.9757 -0.0150
vn -0.0612 0.9943 -0.0874
vn -0.2335 0.9710 -0.0510
vn 0.0288 0.9952 -0.0938
vn 0.1189 -0.8921 -0.4360
vn -0.0000 -0.9025 -0.4306
vn -0.2377 -0.0284 0.9709
vn -0.6197 -0.0070 0.7848
vn -0.1940 -0.0260 0.9806
vn 0.0220 -0.8966 -0.4422
vn -0.1192 -0.8929 -0.4341
vn -0.0000 -0.9044 -0.4267
vn -0.0002 -0.9036 -0.4285
vn 0.1468 -0.8851 -0.4417
vn -0.1454 -0.8854 -0.4414
vn -0.0220 -0.8985 -0.4385
vn 0.1685 0.2077 -0.9636
vn 0.3407 -0.6887 -0.6401
vn -0.5478 -0.7505 -0.3698
vn 0.6161 0.2173 0.7571
vn 0.2399 0.0251 0.9705
vn 0.6344 -0.0042 0.7730
vn 0.7350 0.6285 0.2544
vn 0.9397 -0.0440 0.3393
vn -0.3380 -0.6921 -0.6378
vn -0.1441 0.1921 -0.9707
vn 0.5478 -0.7505 -0.3698
vn -0.6251 0.0103 0.7805
vn -0.9238 -0.0000 0.3829
vn 0.9362 0.0041 0.3515
vn 0.5804 -0.7879 0.2057
vn 0.6461 -0.6718 0.3621
vn 0.7262 -0.6723 -0.1437
vn 0.6376 -0.7197 -0.2749
vn 0.9971 -0.0473 -0.0601
vn 0.6218 -0.6672 -0.4102
vn 0.4641 -0.6898 -0.5557
vn 0.5125 -0.7298 -0.4525
vn 0.1632 -0.6498 -0.7424
vn 0.2600 -0.7373 -0.6235
vn -0.1750 -0.6599 -0.7307
vn -0.4499 -0.7776 -0.4392
vn -0.9989 -0.0235 -0.0412
vn -0.7292 -0.6681 -0.1479
vn 0.6469 -0.6601 0.3818
vn 0.2228 -0.7440 0.6299
vn 0.3773 -0.9127 0.1571
vn 0.2182 -0.6299 -0.7454
vn 0.6091 -0.6850 -0.3997
vn 0.0669 -0.9643 -0.2562
vn 0.9156 -0.2722 -0.2959
vn 0.6073 -0.2176 -0.7641
vn -0.4833 -0.6432 -0.5940
vn -0.0759 -0.6117 -0.7874
vn -0.0965 -0.9140 -0.3941
vn -0.2360 -0.2206 -0.9464
vn -0.6452 -0.1917 -0.7395
vn -0.9207 -0.2518 0.2981
vn -0.6720 -0.6379 0.3761
vn -0.6070 -0.2147 0.7651
vn -0.2047 -0.6209 0.7567
vn -0.3372 -0.8726 0.3534
vn 0.2334 -0.2580 0.9375
vn 0.3155 -0.0027 0.9489
vn 0.0767 -0.0051 0.9970
vn 0.9200 -0.2764 0.2778
vn 0.9928 -0.0055 0.1195
vn 0.8878 -0.0026 0.4602
vn 0.8877 -0.0031 -0.4604
vn 0.9928 -0.0062 -0.1197
vn 0.2089 -0.2435 -0.9472
vn 0.0766 -0.0022 -0.9971
vn 0.3159 -0.0016 -0.9488
vn -0.3153 -0.0027 -0.9490
vn -0.0759 -0.0054 -0.9971
vn -0.9140 -0.2789 -0.2947
vn -0.9928 -0.0055 -0.1195
vn -0.8878 -0.0026 -0.4603
vn -0.1180 -0.9908 0.0668
vn -0.7575 -0.5985 0.2609
vn -0.1436 -0.9896 0.0076
vn 0.0342 -0.9935 -0.1085
vn 0.4544 -0.5488 -0.7016
vn 0.0862 -0.9925 -0.0867
vn 0.1448 -0.9776 0.1530
vn 0.4345 -0.5214 0.7344
vn 0.0623 -0.9695 0.2372
vn 0.1218 -0.7212 0.6819
vn 0.0138 -0.9619 0.2729
vn -0.0645 -0.9954 -0.0714
vn -0.4192 -0.5497 -0.7226
vn -0.0289 -0.9947 -0.0983
vn 0.1359 -0.9892 -0.0555
vn 0.7566 -0.5939 -0.2736
vn 0.2613 -0.9652 -0.0042
vn 0.4457 0.6887 0.5720
vn -0.6472 0.6777 -0.3491
vn -0.2299 0.5403 -0.8095
vn -0.3349 0.8972 0.2879
vn 0.3304 0.6048 -0.7246
vn -0.3115 0.7106 0.6309
vn 0.5444 0.8247 -0.1529
vn -0.2127 0.7207 0.6598
vn 0.3113 0.7107 -0.6309
vn -0.7258 0.6435 -0.2431
vn 0.4933 0.8037 0.3327
vn -0.3581 0.6084 -0.7082
vn 0.1823 0.7485 0.6377
vn 0.7256 0.6436 0.2436
vn -0.7071 -0.7071 -0.0000
vn -0.5774 -0.5774 -0.5773
vn -0.0000 -1.0000 -0.0000
vn 0.7071 0.7071 -0.0000
vn 0.5774 0.5774 -0.5773
vn -0.0000 1.0000 -0.0000
vn 0.5774 0.5773 -0.5774
vn -0.4047 0.8963 0.1813
vn -0.0000 0.0274 0.9996
vn -0.0005 0.0234 0.9997
vn 0.3092 -0.2890 -0.9060
vn 0.0567 -0.2995 -0.9524
vn 0.8593 -0.1298 -0.4947
vn 0.5523 0.7850 -0.2804
vn 0.5635 -0.2878 -0.7743
vn 0.9898 -0.0904 -0.1105
vn 0.8997 0.0416 0.4346
vn 0.9911 -0.1092 0.0767
vn 0.5998 0.0130 0.8001
vn 0.0620 0.0488 0.9969
vn 0.3438 0.0237 0.9387
vn -0.0662 -0.3155 -0.9466
vn -0.3167 -0.3664 -0.8749
vn -0.5810 0.5727 0.5783
vn 0.0029 0.7043 0.7099
vn 0.0048 0.7041 0.7100
vn 0.0252 0.7155 0.6981
vn -0.0001 1.0000 -0.0000
vn -0.5768 -0.5795 0.5758
vn -0.6552 0.6536 0.3788
vn -1.0000 -0.0000 -0.0000
vn 0.5768 -0.5823 0.5729
vn -0.5801 -0.5800 0.5719
vn -0.5462 -0.8067 0.2256
vn 0.9162 0.0002 0.4008
vn -0.1749 -0.6992 -0.6932
vn -0.6460 -0.7500 -0.1419
vn -0.0000 -0.0049 -1.0000
vn 0.6176 -0.2089 0.7583
vn 0.3587 -0.9284 -0.0968
vn -0.7251 -0.6745 -0.1387
vn -0.0767 -0.0046 0.9970
vn -0.3153 -0.0024 0.9490
vn -0.2198 -0.2409 0.9453
vn -0.8877 -0.0031 0.4604
vn -0.9928 -0.0062 0.1197
vn 0.1729 -0.9809 0.0889
vn 0.2764 -0.9610 0.0064
vn 0.7580 -0.5763 0.3057
vn -0.0947 -0.9947 -0.0407
vn -0.1510 -0.9885 -0.0043
vn -0.7369 -0.6030 -0.3057
vn -0.0926 -0.9896 0.1098
vn -0.0548 -0.9763 0.2096
vn -0.5021 -0.5919 0.6305
vn -0.5198 0.8328 -0.1904
vn -0.4969 0.7793 0.3818
vn 0.4054 0.8960 0.1810
vn 0.1166 0.8479 0.5172
vn 0.7109 0.6438 -0.2830
vn -0.7146 0.6417 0.2785
vn -0.4068 0.8955 0.1805
vn -0.0009 -0.0082 -1.0000
vn 0.4067 0.8956 0.1805
vn -0.0000 0.0197 0.9998
vn -0.0713 0.0301 0.9970
vn -0.3690 -0.0781 0.9261
vn -0.6003 -0.1262 0.7898
vn -0.8934 -0.1581 0.4205
vn -0.9465 -0.3140 0.0741
vn -0.9472 -0.3041 -0.1013
vn -0.8392 -0.2904 -0.4598
vn -0.5455 -0.3808 -0.7466
vn -0.0103 -0.0215 0.9997
vn -0.0082 0.0086 0.9999
vn -0.0280 -0.0235 0.9993
vn 0.0203 -0.0053 0.9998
vn 0.0086 -0.0215 0.9997
vn -0.0000 -0.0193 0.9998
vn 0.8921 0.4510 0.0294
vn 0.5779 0.5749 0.5793
vn -0.6825 -0.0828 0.7262
vn 0.0503 -0.1012 0.9936
vn 0.6825 -0.0828 0.7262
vn 0.5725 -0.4009 -0.7152
vn -0.5302 -0.6324 -0.5647
vn -0.5404 0.6049 -0.5849
vn 0.5905 -0.6725 0.4461
vn -0.5257 -0.6537 0.5444
vn 0.4925 0.3411 0.8007
vn -0.5157 0.4027 0.7562
vn 0.6072 0.7144 -0.3478
vn 0.5185 -0.2745 -0.8098
vn -0.5416 -0.7889 -0.2905
vn -0.5876 0.1678 -0.7915
vn 0.5778 0.6210 -0.5296
vn -0.6057 0.7632 0.2253
vn 0.5833 -0.0282 -0.8117
vn 0.0098 -0.2938 -0.9558
vn -0.6641 0.1092 -0.7396
vn 0.5838 -0.5061 -0.6349
vn -0.5981 -0.6254 -0.5011
vn 0.6230 -0.7392 -0.2557
vn -0.7037 -0.7054 -0.0848
vn 0.6457 -0.7589 0.0843
vn -0.7118 -0.6731 0.2007
vn 0.6167 -0.6710 0.4115
vn -0.6019 -0.5034 0.6199
vn 0.5468 -0.0870 0.8327
vn -0.7427 -0.0995 0.6622
vn -0.6330 0.2115 0.7447
vn 0.5783 0.5017 0.6433
vn -0.6831 0.4237 0.5949
vn -0.6062 0.6823 0.4088
vn 0.6459 0.7294 0.2254
vn -0.2734 0.9559 0.1075
vn 0.6511 0.7552 -0.0755
vn -0.6379 0.7352 -0.2294
vn 0.6646 0.6463 -0.3751
vn -0.6376 0.5922 -0.4927
vn 0.6776 0.4171 -0.6057
vn -0.1272 0.4289 -0.8944
vn -0.9950 -0.0998 0.0051
vn -0.9952 0.0093 -0.0969
vn -0.9880 -0.0808 0.1317
vn -0.9885 -0.1500 -0.0215
vn -0.9875 0.0518 0.1486
vn -0.9951 0.0307 0.0941
vn -0.9957 0.0917 -0.0122
vn -0.0106 -0.2942 -0.9557
vn -0.7017 -0.0535 -0.7104
vn 0.6641 0.1092 -0.7396
vn 0.5970 -0.6262 -0.5014
vn -0.5632 -0.5442 -0.6219
vn 0.7024 -0.7063 -0.0877
vn -0.6286 -0.7377 -0.2465
vn 0.7119 -0.6721 0.2038
vn -0.6451 -0.7597 0.0823
vn 0.6013 -0.5038 0.6202
vn -0.6281 -0.6569 0.4170
vn 0.7395 -0.1056 0.6648
vn -0.5378 0.0523 0.8414
vn 0.6308 0.2188 0.7444
vn 0.6817 0.4226 0.5972
vn -0.5824 0.5811 0.5685
vn 0.6071 0.6821 0.4076
vn 0.2734 0.9559 0.1075
vn -0.6528 0.7262 0.2157
vn 0.6088 0.7492 -0.2610
vn -0.6485 0.7561 -0.0879
vn 0.6857 0.5792 -0.4409
vn -0.5950 0.5569 -0.5795
vn -0.0152 0.4454 -0.8952
vn 0.9947 -0.0761 0.0686
vn 0.9882 -0.0784 0.1317
vn 0.9878 -0.1551 -0.0157
vn 0.9947 0.0704 -0.0748
vn 0.9878 0.0468 0.1487
vn 0.9946 0.0589 0.0850
vn 0.9947 -0.0759 -0.0696
vn 0.6870 -0.3649 0.6284
vn 0.6033 -0.7966 0.0367
vn 0.5660 0.7375 0.3685
vn -0.5755 -0.3438 0.7420
vn -0.6531 -0.4164 0.6326
vn 0.5162 0.4783 0.7104
vn -0.5317 0.7705 -0.3516
vn -0.5938 0.4517 0.6659
vn 0.6525 0.6424 -0.4021
vn -0.5237 -0.3099 -0.7935
vn 0.5468 -0.3903 -0.7407
vn 0.8880 -0.0000 0.4598
vn 0.6247 -0.0000 0.7809
vn -0.0788 0.0003 -0.9969
vn 0.0789 -0.0001 -0.9969
vn 0.0786 -0.0000 -0.9969
vn 0.3146 -0.0000 -0.9492
vn 0.6247 -0.0000 -0.7809
vn 0.6311 -0.0062 -0.7757
vn 0.3146 -0.0000 0.9492
vn -0.6311 0.0062 -0.7757
vn -0.6247 -0.0000 -0.7809
vn -0.0785 -0.0000 0.9969
vn -0.3146 -0.0000 0.9492
vn -0.8880 -0.0000 0.4598
vn -0.9704 -0.0000 0.2413
vn 0.8811 0.0149 -0.4727
vn 0.8569 -0.0006 -0.5154
vn -0.6247 -0.0000 0.7809
vn -0.3146 -0.0000 -0.9492
vn 0.0788 0.0001 0.9969
vn 0.0787 -0.0000 0.9969
vn -0.0789 -0.0001 0.9969
vn -0.9964 0.0841 -0.0039
vn -1.0000 0.0025 -0.0001
vn -0.9963 0.0861 -0.0040
vn -0.0785 -0.0000 -0.9969
vn 0.9696 0.0433 -0.2410
vn 1.0000 -0.0025 -0.0001
vn 0.9964 -0.0841 -0.0039
vn 1.0000 -0.0000 -0.0000
vn 0.9705 -0.0000 0.2413
vn 0.1571 -0.0000 -0.9876
vn -0.0000 -0.0000 -1.0000
vn -0.7675 -0.0000 -0.6410
vn -0.0011 0.0119 0.9999
vn -0.0660 -0.0106 0.9978
vn -0.0000 0.0236 0.9997
vn -0.4480 0.0210 0.8938
vn -0.4461 0.0227 0.8947
vn -0.4714 -0.0000 0.8819
vn -0.1569 -0.0565 0.9860
vn -0.0552 -0.0046 0.9985
vn -0.4714 -0.0000 -0.8819
vn -0.0788 -0.0000 -0.9969
vn 0.9704 -0.0000 0.2413
vn 0.7675 -0.0000 0.6410
vn 0.0788 0.0004 0.9969
vn -0.0000 -0.0000 1.0000
vn -0.7779 0.0121 0.6282
vn -0.8849 -0.0149 0.4656
vn -0.7675 -0.0000 0.6410
vn 0.8589 0.0006 -0.5121
vn 0.9695 -0.0433 -0.2411
vn 0.8849 -0.0149 -0.4656
vn 0.7779 0.0121 -0.6282
vn 0.7675 -0.0000 -0.6410
vn 0.4714 -0.0000 0.8819
vn 0.0788 -0.0000 0.9969
vn -0.1571 -0.0000 -0.9876
vn 0.9964 0.0841 -0.0039
vn 1.0000 0.0025 -0.0001
vn 0.4714 -0.0000 -0.8819
vn 0.1571 -0.0000 0.9876
vn -0.8589 0.0006 0.5121
vn -0.9695 -0.0433 0.2411
vn -0.9964 0.0841 0.0039
vn -1.0000 0.0025 0.0001
vn -0.9705 -0.0000 -0.2413
vn -0.9704 -0.0000 -0.2413
vn -0.0347 -0.9994 -0.0086
vn -0.0407 -0.9992 -0.0014
vn -0.0242 0.9995 -0.0207
vn -0.0072 0.9993 -0.0364
vn -0.0161 0.9995 -0.0288
vn 0.0133 -0.9995 0.0270
vn 0.0034 -0.9993 0.0368
vn 0.0009 -0.9994 0.0351
vn -0.0183 0.9996 0.0227
vn -0.0226 0.9996 0.0189
vn -0.0144 0.9995 0.0265
vn 0.0051 0.9992 -0.0398
vn -0.0021 -0.9994 0.0360
vn -0.0066 -0.9994 0.0326
vn -0.0085 -0.9995 0.0317
vn 0.0051 0.9993 -0.0383
vn -0.0242 0.9995 -0.0202
vn 0.0145 -0.9995 -0.0298
vn 0.0018 -0.9992 -0.0404
vn 0.0072 -0.9993 -0.0365
vn 0.0337 -0.9994 0.0084
vn 0.0405 -0.9992 0.0015
vn 0.0185 0.9996 0.0227
vn 0.0063 0.9994 0.0326
vn 0.0151 0.9995 0.0267
vn -0.0063 0.9994 0.0326
vn -0.0133 0.9995 0.0270
vn 0.0244 0.9995 -0.0209
vn 0.0072 0.9993 -0.0365
vn 0.0145 0.9995 -0.0298
vn 0.0320 0.9994 0.0149
vn 0.0282 0.9995 0.0129
vn -0.0350 0.9994 0.0071
vn -0.0407 0.9992 -0.0014
vn -0.0405 0.9992 0.0015
vn 0.0242 0.9995 -0.0202
vn 0.0162 0.9994 -0.0290
vn -0.0242 -0.9995 -0.0207
vn -0.0242 -0.9995 -0.0202
vn -0.0161 -0.9995 -0.0288
vn -0.0043 0.9994 0.0357
vn -0.0072 -0.9993 -0.0364
vn -0.0145 -0.9995 -0.0298
vn 0.0384 0.9992 0.0065
vn 0.0407 0.9992 -0.0014
vn 0.0357 0.9993 -0.0074
vn -0.0049 -0.9991 -0.0410
vn 0.0032 -0.9992 -0.0406
vn -0.0010 -0.9992 -0.0390
vn -0.0179 -0.9996 0.0228
vn -0.0147 -0.9995 0.0263
vn -0.0305 -0.9994 0.0145
vn -0.0311 -0.9995 0.0061
vn -0.0347 0.9994 -0.0086
vn -0.0357 0.9993 -0.0074
vn -0.0046 0.9994 0.0339
vn -0.0145 0.9995 -0.0298
vn 0.0183 -0.9996 0.0227
vn 0.0226 -0.9996 0.0189
vn 0.0147 -0.9995 0.0268
vn 0.0063 -0.9994 0.0326
vn -0.0337 0.9994 0.0084
vn 0.0245 -0.9995 -0.0206
vn 0.0242 -0.9995 -0.0198
vn 0.0244 -0.9995 -0.0192
vn 0.0162 -0.9995 -0.0289
vn 0.0133 0.9995 0.0271
vn 0.0350 -0.9994 0.0071
vn -0.0358 -0.9993 -0.0073
vn 0.0346 0.9994 -0.0086
vn 0.1259 0.9309 0.3429
vn -0.0000 0.8975 0.4410
vn 0.0401 0.9069 0.4195
vn 0.0364 0.9722 0.2313
vn -0.4067 0.9126 0.0431
vn -0.3088 0.9341 0.1791
vn -0.2089 0.9736 0.0919
vn -0.2075 0.9390 0.2742
vn -0.9995 -0.0000 -0.0325
vn -0.0000 -0.9994 -0.0355
vn -0.0000 0.9994 0.0355
vn 0.9995 -0.0000 -0.0325
vn 0.3321 0.9326 0.1413
vn 0.3904 0.9182 0.0668
vn -0.0000 0.8967 0.4426
vn 0.2336 0.9710 -0.0510
vn -0.0080 0.9952 -0.0975
vn -0.0289 0.9952 -0.0938
vn -0.0205 0.9983 -0.0555
vn -0.2187 0.9391 0.2650
vn -0.1241 0.9283 0.3504
vn -0.1089 0.9255 0.3628
vn 0.1127 0.9906 -0.0773
vn -0.3901 0.9183 0.0666
vn 0.1089 0.9254 0.3629
vn 0.0416 0.9092 0.4143
vn 0.1241 0.9283 0.3506
vn -0.3016 0.9369 0.1768
vn -0.2123 0.9388 0.2712
vn -0.0228 0.9039 0.4272
vn -0.3318 0.9327 0.1414
vn 0.0612 0.9943 -0.0875
vn 0.2188 0.9391 0.2651
vn 0.2124 0.9387 0.2714
vn 0.0229 0.9039 0.4272
vn 0.3018 0.9368 0.1770
vn -0.0416 0.9092 0.4143
vn -0.2854 -0.8607 -0.4217
vn -0.3997 -0.8358 -0.3764
vn 0.1944 0.0220 0.9807
vn -0.7348 0.6428 0.2163
vn 0.3993 -0.8359 -0.3765
vn 0.2849 -0.8609 -0.4215
vn -0.6552 0.6532 0.3795
vn -0.7217 -0.6281 0.2909
vn -0.6153 -0.6696 0.4159
vn -0.5586 -0.7490 0.3564
vn -0.7121 -0.6756 0.1912
vn -0.6524 -0.7384 0.1709
vn -0.9925 -0.0000 0.1222
vn -0.4348 -0.6934 -0.5746
vn -0.6126 -0.6776 -0.4069
vn -0.3849 -0.7346 -0.5588
vn -0.3106 -0.9483 0.0657
vn -0.6212 -0.7677 0.1572
vn 0.4013 -0.9014 0.1626
vn 0.6246 -0.0038 0.7809
vn -0.3665 -0.9279 0.0690
vn 0.6249 -0.0039 -0.7807
vn -0.6246 -0.0038 -0.7809
vn -0.6249 -0.0039 0.7807
vn 0.2818 -0.7716 -0.5703
vn -0.2726 -0.7748 -0.5704
vn -0.0063 -0.9933 -0.1152
vn -0.0087 -0.9628 0.2700
vn -0.0993 -0.7357 0.6700
vn -0.1368 -0.7289 0.6708
vn 0.2252 -0.9368 -0.2677
vn -0.0000 -0.9928 -0.1196
vn -0.7778 -0.5251 -0.3453
vn 0.7662 -0.5155 0.3837
vn -0.3225 0.4131 0.8517
vn 0.5467 0.6996 0.4601
vn 0.7782 -0.5247 -0.3450
vn -0.7071 -0.0000 -0.7071
vn 0.7071 -0.0000 -0.7071
vn 0.9745 -0.1988 0.1037
vn 1.0000 -0.0056 -0.0000
vn -0.5462 0.6998 0.4603
vn 0.3223 0.4127 0.8520
vn -0.7698 -0.5149 0.3773
vn -0.3225 0.4132 0.8516
vn -0.2247 -0.9370 -0.2675
vn 0.2246 -0.9370 -0.2675
vn -0.2252 -0.9368 -0.2677
vn 0.3223 0.4127 0.8519
vn -0.7696 -0.5149 0.3775
vn 0.7662 -0.5155 0.3836
vn 0.0081 -0.9931 -0.1167
vn 0.0383 -0.0000 0.9993
vn -1.0000 0.0009 0.0010
vn -0.0305 -0.0613 0.9977
vn -0.7102 -0.0105 0.7039
vn 0.0389 -0.0228 0.9990
vn 0.0525 0.8760 0.4794
vn -0.0000 -0.0000 -0.0000
vn 0.4984 0.8666 0.0232
vn 0.7071 -0.0000 0.7071
vn -0.7071 -0.0000 0.7071
vn 0.7102 -0.0105 0.7039
vn 0.6145 -0.2376 0.7523
vn -0.5140 -0.7038 0.4904
vn 0.5246 -0.7425 0.4166
vn 0.9963 -0.0860 -0.0040
vn -0.4266 0.0398 0.9036
vn 0.9963 0.0860 -0.0040
vn -0.9963 0.0860 0.0040
vn -0.5685 -0.7355 -0.3686
vn 0.0328 -0.9993 0.0158
vn 0.0690 -0.9971 0.0332
vn 0.2919 -0.9564 0.0032
vn 0.0295 -0.9995 0.0095
vn 0.9798 -0.0070 0.1996
s 1
usemtl Material.002
f 31//1 14//2 11//3
f 30//4 78//5 80//5
f 30//4 77//5 78//5
f 16//6 55//7 18//8
f 20//9 76//10 85//10
f 30//4 66//11 77//5
f 20//9 56//12 76//10
f 111//13 92//14 110//15
f 113//16 92//14 112//17
f 115//18 87//19 114//20
f 110//15 92//14 116//15
f 116//15 92//14 113//16
f 125//21 88//22 87//19
f 124//23 92//14 111//13
f 125//21 87//19 115//18
f 79//24 89//25 65//26
f 69//27 91//28 68//29
f 70//30 91//28 69//27
f 65//26 89//25 64//31
f 80//24 89//25 79//24
f 133//32 110//33 116//33
f 139//34 131//35 126//36
f 133//32 116//33 113//37
f 133//32 111//33 110//33
f 135//38 117//39 120//39
f 133//32 124//40 111//33
f 112//41 133//32 113//37
f 135//38 119//42 118//43
f 132//44 125//45 115//46
f 143//47 129//48 127//49
f 138//50 127//49 128//51
f 135//38 118//43 117//39
f 121//52 136//53 122//54
f 140//55 130//56 131//35
f 5//308 23//309 4//309
f 10//310 26//311 7//312
f 7//312 29//313 9//313
f 9//313 28//314 8//315
f 4//309 22//316 3//316
f 14//2 33//317 13//318
f 15//319 36//320 17//320
f 18//321 35//322 16//322
f 8//315 27//323 6//324
f 19//325 37//321 18//321
f 13//318 32//326 12//326
f 1//327 22//316 20//328
f 1//327 34//329 15//319
f 11//330 35//331 31//332
f 17//320 38//325 19//325
f 10//310 32//326 30//333
f 27//323 25//334 6//324
f 2//335 25//336 21//337
f 2//338 24//308 5//308
f 53//339 71//339 72//339
f 53//340 82//340 83//340
f 42//341 58//341 59//341
f 80//342 46//343 79//344
f 64//345 45//346 63//347
f 46//343 64//348 65//349
f 41//350 57//350 58//350
f 53//340 81//340 82//340
f 39//351 76//340 56//351
f 51//352 69//352 70//352
f 50//353 68//353 69//353
f 39//351 85//340 76//340
f 47//354 78//355 77//355
f 45//356 62//357 63//358
f 55//359 74//360 75//361
f 54//362 75//361 73//363
f 53//340 72//340 81//340
f 49//364 67//364 68//364
f 47//354 77//355 66//365
f 57//366 39//351 56//351
f 39//351 84//340 85//340
f 74//367 51//368 70//337
f 52//369 73//369 71//369
f 67//370 47//354 66//365
f 44//371 61//372 62//357
f 47//354 80//342 78//355
f 46//343 65//349 79//344
f 61//373 43//374 60//167
f 53//340 83//340 84//340
f 43//375 59//375 60//376
f 42//377 2//378 5//377
f 58//379 22//380 23//381
f 48//382 10//383 47//384
f 63//385 27//386 28//387
f 34//388 84//10 83//10
f 7//389 9//390 46//391
f 34//388 81//10 72//392
f 58//379 24//393 59//393
f 52//394 15//395 17//396
f 50//397 11//398 14//397
f 84//10 20//9 85//10
f 68//399 32//400 33//401
f 63//385 29//402 64//403
f 73//404 36//405 71//406
f 68//399 31//407 69//408
f 61//409 21//410 25//411
f 73//404 37//412 38//413
f 41//414 5//415 4//416
f 26//417 80//5 79//5
f 41//414 3//418 40//419
f 70//420 35//421 74//422
f 1//423 53//424 39//425
f 45//426 9//390 8//427
f 45//426 6//428 44//429
f 34//388 82//10 81//10
f 59//430 21//410 60//431
f 26//417 79//5 65//432
f 57//433 20//9 22//380
f 49//434 14//435 13//436
f 49//434 12//437 48//382
f 64//403 26//417 65//432
f 34//388 83//10 82//10
f 62//438 25//411 27//438
f 54//439 18//440 55//441
f 54//439 17//396 19//442
f 67//443 30//4 32//400
f 31//407 70//420 69//408
f 51//444 16//6 11//398
f 44//429 2//378 43//445
f 75//446 35//421 37//446
f 71//406 34//388 72//392
f 47//384 7//389 46//391
f 40//419 1//423 39//425
f 87//19 119//447 114//20
f 117//448 118//449 86//450
f 86//450 124//23 120//448
f 120//448 117//448 86//450
f 121//451 122//452 93//453
f 122//452 123//454 93//453
f 118//449 119//447 86//450
f 93//453 112//17 92//14
f 121//451 93//453 91//28
f 89//25 91//28 92//14
f 95//355 96//355 97//355
f 99//340 100//340 98//340
f 99//455 97//455 101//455
f 94//456 99//456 98//456
f 97//457 100//457 101//457
f 98//458 96//458 94//458
f 103//355 104//355 105//355
f 107//340 108//340 106//340
f 107//455 105//455 109//455
f 102//456 107//456 106//456
f 109//457 104//457 108//457
f 106//458 104//458 102//458
f 115//459 60//460 125//21
f 111//461 84//461 124//461
f 88//22 60//460 61//462
f 66//463 67//464 90//465
f 123//466 71//467 112//468
f 80//24 78//24 89//25
f 61//462 62//469 88//22
f 91//28 74//470 121//451
f 120//461 84//461 85//461
f 119//471 56//472 57//473
f 90//465 68//29 91//28
f 123//466 75//474 73//475
f 77//24 66//463 90//465
f 113//476 81//461 116//461
f 122//477 74//470 75//474
f 62//469 63//478 88//22
f 90//465 78//24 77//24
f 117//461 85//461 76//461
f 114//479 57//473 58//480
f 118//481 76//461 56//472
f 116//461 82//461 110//461
f 89//25 63//478 64//31
f 114//479 59//482 115//459
f 112//468 72//483 113//476
f 110//461 83//461 111//461
f 114//484 135//38 137//485
f 139//34 140//55 131//35
f 143//47 141//486 129//48
f 133//142 140//142 139//142
f 134//142 142//487 140//142
f 138//50 137//142 143//47
f 143//142 135//142 141//142
f 133//142 141//142 135//142
f 121//52 142//487 136//53
f 126//36 141//486 139//34
f 124//40 135//38 120//39
f 138//50 143//47 127//49
f 115//46 137//485 132//44
f 138//50 125//45 132//44
f 134//488 122//54 136//53
f 133//32 123//489 134//488
f 140//55 142//487 130//56
f 5//308 24//308 23//309
f 10//310 30//333 26//311
f 7//312 26//311 29//313
f 9//313 29//313 28//314
f 4//309 23//309 22//316
f 14//2 31//1 33//317
f 15//319 34//329 36//320
f 18//321 37//321 35//322
f 8//315 28//314 27//323
f 19//325 38//325 37//321
f 13//318 33//317 32//326
f 1//327 3//316 22//316
f 1//327 20//328 34//329
f 11//330 16//167 35//331
f 17//320 36//320 38//325
f 10//310 12//326 32//326
f 2//335 6//550 25//336
f 2//338 21//338 24//308
f 53//339 52//339 71//339
f 42//341 41//341 58//341
f 80//342 47//354 46//343
f 64//345 46//551 45//346
f 41//350 40//350 57//350
f 51//352 50//352 69//352
f 50//353 49//353 68//353
f 45//356 44//371 62//357
f 54//362 55//359 75//361
f 49//364 48//364 67//364
f 57//366 40//366 39//351
f 39//351 53//340 84//340
f 74//367 55//552 51//368
f 52//369 54//369 73//369
f 67//370 48//370 47//354
f 61//373 44//553 43//374
f 43//375 42//375 59//375
f 42//377 43//445 2//378
f 58//379 57//433 22//380
f 48//382 12//437 10//383
f 63//385 62//386 27//386
f 58//379 23//381 24//393
f 52//394 53//424 15//395
f 50//397 51//444 11//398
f 84//10 34//388 20//9
f 68//399 67//443 32//400
f 63//385 28//387 29//402
f 73//404 38//413 36//405
f 68//399 33//401 31//407
f 61//409 60//431 21//410
f 73//404 75//412 37//412
f 41//414 42//415 5//415
f 26//417 30//4 80//5
f 41//414 4//416 3//418
f 70//420 31//407 35//421
f 1//423 15//395 53//424
f 45//426 46//391 9//390
f 45//426 8//427 6//428
f 59//430 24//430 21//410
f 57//433 56//12 20//9
f 49//434 50//435 14//435
f 49//434 13//436 12//437
f 64//403 29//402 26//417
f 62//438 61//409 25//411
f 54//439 19//442 18//440
f 54//439 52//394 17//396
f 67//443 66//11 30//4
f 51//444 55//7 16//6
f 44//429 6//428 2//378
f 75//446 74//422 35//421
f 71//406 36//405 34//388
f 47//384 10//383 7//389
f 40//419 3//418 1//423
f 87//19 86//450 119//447
f 86//450 92//14 124//23
f 93//453 123//454 112//17
f 92//14 86//450 87//19
f 87//19 88//22 89//25
f 89//25 90//465 91//28
f 91//28 93//453 92//14
f 92//14 87//19 89//25
f 95//355 94//355 96//355
f 99//340 101//340 100//340
f 99//455 95//455 97//455
f 94//456 95//456 99//456
f 97//457 96//457 100//457
f 98//458 100//458 96//458
f 103//355 102//355 104//355
f 107//340 109//340 108//340
f 107//455 103//455 105//455
f 102//456 103//456 107//456
f 109//457 105//457 104//457
f 106//458 108//458 104//458
f 115//459 59//482 60//460
f 111//461 83//461 84//461
f 88//22 125//21 60//460
f 123//466 73//475 71//467
f 91//28 70//30 74//470
f 120//461 124//461 84//461
f 119//471 118//481 56//472
f 90//465 67//464 68//29
f 123//466 122//477 75//474
f 113//476 72//483 81//461
f 122//477 121//451 74//470
f 90//465 89//25 78//24
f 117//461 120//461 85//461
f 114//479 119//471 57//473
f 118//481 117//461 76//461
f 116//461 81//461 82//461
f 89//25 88//22 63//478
f 114//479 58//480 59//482
f 112//468 71//467 72//483
f 110//461 82//461 83//461
f 114//484 119//42 135//38
f 133//142 134//142 140//142
f 134//142 136//53 142//487
f 138//50 132//44 137//142
f 143//142 137//142 135//142
f 133//142 139//142 141//142
f 121//52 130//56 142//487
f 126//36 129//48 141//486
f 124//40 133//32 135//38
f 115//46 114//484 137//485
f 138//50 128//51 125//45
f 134//488 123//489 122//54
f 133//32 112//41 123//489
usemtl Material.003
f 148//57 149//58 146//59
f 158//60 160//61 159//62
f 161//63 160//61 158//60
f 163//64 162//65 161//63
f 165//66 164//67 163//64
f 263//68 164//67 165//66
f 156//69 173//70 171//71
f 188//72 189//73 185//74
f 194//75 197//76 191//77
f 193//78 197//76 196//79
f 208//80 210//81 207//82
f 205//83 208//80 209//84
f 218//85 222//86 221//87
f 189//73 220//88 219//89
f 187//90 177//91 175//92
f 186//93 176//94 179//95
f 193//78 182//96 180//97
f 192//98 181//99 184//100
f 207//82 210//81 191//77
f 205//83 200//101 198//102
f 204//103 199//104 202//105
f 214//106 233//107 212//108
f 184//109 228//110 183//111
f 178//112 225//113 177//114
f 177//114 223//115 175//116
f 201//117 231//118 200//119
f 182//120 226//121 180//122
f 237//123 248//124 247//125
f 244//126 253//127 246//128
f 239//129 250//130 240//131
f 242//132 252//133 243//134
f 243//134 252//133 251//135
f 236//136 248//124 237//123
f 256//137 260//138 267//139
f 257//140 261//141 285//142
f 268//142 262//142 258//142
f 272//139 274//139 302//139
f 273//142 275//143 280//142
f 279//139 274//139 272//139
f 284//139 259//139 255//139
f 283//144 250//130 239//129
f 210//81 192//98 194//75
f 251//135 264//145 276//145
f 251//135 276//145 269//146
f 213//147 253//127 211//148
f 214//149 254//150 215//151
f 212//152 254//150 214//149
f 202//153 252//133 199//154
f 201//155 252//133 202//153
f 198//156 251//135 200//157
f 175//158 247//125 177//159
f 303//140 275//143 273//142
f 310//160 253//127 244//126
f 315//161 253//127 310//160
f 317//162 311//163 235//164
f 321//165 322//166 324//167
f 149//58 320//168 321//169
f 149//58 321//169 150//170
f 147//171 148//57 146//59
f 161//63 162//65 160//61
f 163//64 164//67 162//65
f 263//68 166//172 164//67
f 171//71 173//70 172//173
f 281//174 181//99 192//98
f 186//93 190//175 188//72
f 191//77 197//76 195//176
f 204//103 208//80 206//177
f 204//103 209//84 208//80
f 205//83 210//81 208//80
f 219//89 220//88 222//86
f 210//81 205//83 192//98
f 211//178 213//179 217//180
f 214//181 212//182 218//85
f 219//89 222//86 206//177
f 179//183 176//184 224//185
f 202//186 199//187 230//188
f 215//189 213//190 234//191
f 177//114 225//113 223//115
f 241//192 243//134 251//135
f 246//128 253//127 254//150
f 240//131 250//130 249//193
f 266//194 241//192 251//135
f 235//195 237//123 247//125
f 238//196 240//131 249//193
f 317//162 235//195 247//125
f 245//197 246//128 254//150
f 278//198 266//194 251//135
f 276//174 269//174 192//98
f 264//199 276//174 192//98
f 271//200 278//198 251//135
f 191//77 210//81 194//75
f 269//174 281//174 192//98
f 198//156 264//145 251//135
f 281//201 181//202 250//130
f 181//202 184//203 250//130
f 183//204 182//205 249//193
f 182//205 180//206 249//193
f 176//207 179//208 248//124
f 179//208 178//209 248//124
f 312//210 314//211 308//212
f 318//213 317//162 315//161
f 314//211 315//161 310//160
f 313//214 318//213 316//215
f 320//168 323//216 319//217
f 329//218 328//219 332//220
f 319//217 324//142 322//490
f 151//491 152//492 150//170
f 153//493 154//494 152//492
f 156//69 155//495 157//496
f 167//497 166//172 263//68
f 169//498 168//499 167//497
f 172//173 169//498 171//71
f 212//182 204//103 218//85
f 180//97 186//93 193//78
f 187//90 188//72 190//175
f 196//79 194//75 192//98
f 203//500 208//80 207//82
f 221//87 220//88 217//180
f 189//73 216//501 185//502
f 187//90 220//88 189//73
f 190//175 177//91 187//90
f 190//175 179//95 178//503
f 195//176 188//72 185//74
f 166//172 203//504 195//176
f 197//76 186//93 188//72
f 196//79 182//96 193//78
f 196//79 184//100 183//505
f 209//84 200//101 205//83
f 209//84 202//105 201//506
f 213//179 221//87 217//180
f 214//181 221//87 215//507
f 216//501 206//177 203//500
f 218//85 206//177 222//86
f 175//92 217//180 187//90
f 199//187 233//107 230//188
f 224//185 178//112 179//183
f 201//117 230//188 231//118
f 214//106 234//191 233//107
f 184//109 227//508 228//110
f 200//119 229//509 198//510
f 211//511 223//115 232//512
f 213//190 232//513 234//191
f 180//122 224//185 176//184
f 183//111 226//121 182//120
f 198//510 265//514 264//515
f 224//185 237//123 225//113
f 231//118 241//192 229//509
f 233//107 242//132 230//188
f 232//513 246//128 234//191
f 241//192 256//516 229//509
f 226//121 236//136 224//185
f 225//113 235//195 223//115
f 227//508 240//131 228//110
f 228//110 238//196 226//121
f 230//188 243//134 231//118
f 234//191 245//197 233//107
f 254//150 242//132 245//197
f 249//193 236//136 238//196
f 154//494 167//497 161//63
f 267//517 229//509 256//516
f 285//518 239//129 257//519
f 239//129 255//520 257//519
f 260//138 258//167 262//521
f 261//141 255//337 259//522
f 144//523 159//62 174//524
f 297//340 260//138 262//521
f 258//525 266//194 268//526
f 279//527 278//198 280//528
f 267//139 296//139 294//139
f 264//515 277//529 276//515
f 264//199 205//83 198//102
f 281//515 270//530 282//531
f 271//200 250//130 283//144
f 299//355 279//527 280//528
f 280//528 271//200 273//532
f 284//533 283//144 285//518
f 280//142 301//142 299//142
f 276//515 270//530 269//515
f 272//534 277//529 279//527
f 255//520 282//531 284//533
f 181//535 282//531 227//508
f 285//142 307//142 305//142
f 305//355 284//533 285//518
f 250//130 269//146 281//201
f 254//150 199//154 252//133
f 211//148 247//125 175//158
f 215//151 253//127 213//147
f 251//135 201//155 200//157
f 184//203 249//193 250//130
f 248//124 180//206 176//207
f 247//125 178//209 177//159
f 297//142 268//142 295//142
f 268//526 294//355 295//355
f 275//143 300//340 301//340
f 300//139 279//139 298//139
f 273//532 302//355 303//355
f 306//139 284//139 304//139
f 261//141 306//340 307//340
f 299//167 300//167 298//167
f 307//167 304//167 305//167
f 296//337 295//337 294//337
f 275//143 302//337 274//522
f 282//340 271//340 283//340
f 277//340 266//340 278//340
f 272//534 271//200 270//530
f 266//194 267//517 268//526
f 311//163 318//213 309//536
f 309//337 235//337 311//337
f 308//537 244//126 232//167
f 315//161 247//125 253//127
f 310//160 308//212 314//211
f 316//215 315//161 314//211
f 316//215 318//213 315//161
f 320//168 325//538 326//539
f 313//214 309//540 318//213
f 312//210 316//215 314//211
f 148//57 320//168 149//58
f 150//170 324//167 151//491
f 145//541 174//542 195//543
f 216//139 203//142 157//142
f 331//544 329//218 332//220
f 321//165 328//219 322//166
f 319//217 328//355 325//538
f 326//539 329//218 330//545
f 327//546 332//220 328//219
f 144//523 147//171 146//59
f 329//218 325//538 328//219
f 319//217 323//216 324//142
f 151//491 153//493 152//492
f 153//493 155//495 154//494
f 156//69 154//494 155//495
f 167//497 168//499 166//172
f 169//498 170//554 168//499
f 172//173 170//554 169//498
f 212//182 199//104 204//103
f 180//97 176//94 186//93
f 187//90 189//73 188//72
f 196//79 197//76 194//75
f 203//500 206//177 208//80
f 221//87 222//86 220//88
f 189//73 219//89 216//501
f 187//90 217//180 220//88
f 190//175 178//503 177//91
f 190//175 186//93 179//95
f 195//176 197//76 188//72
f 172//173 173//70 203//504
f 203//504 207//82 191//77
f 195//176 174//524 159//62
f 195//176 159//62 160//61
f 203//504 191//77 195//176
f 170//554 172//173 203//504
f 168//499 170//554 203//504
f 195//176 160//61 162//65
f 195//176 162//65 164//67
f 166//172 168//499 203//504
f 195//176 164//67 166//172
f 197//76 193//78 186//93
f 196//79 183//505 182//96
f 196//79 192//98 184//100
f 209//84 201//506 200//101
f 209//84 204//103 202//105
f 213//179 215//507 221//87
f 214//181 218//85 221//87
f 216//501 219//89 206//177
f 218//85 204//103 206//177
f 175//92 211//178 217//180
f 199//187 212//108 233//107
f 224//185 225//113 178//112
f 201//117 202//186 230//188
f 214//106 215//189 234//191
f 184//109 181//535 227//508
f 200//119 231//118 229//509
f 211//511 175//116 223//115
f 213//190 211//511 232//513
f 180//122 226//121 224//185
f 183//111 228//110 226//121
f 198//510 229//509 265//514
f 224//185 236//136 237//123
f 231//118 243//134 241//192
f 233//107 245//197 242//132
f 232//513 244//126 246//128
f 241//192 258//525 256//516
f 226//121 238//196 236//136
f 225//113 237//123 235//195
f 227//508 239//129 240//131
f 228//110 240//131 238//196
f 230//188 242//132 243//134
f 234//191 246//128 245//197
f 254//150 252//133 242//132
f 249//193 248//124 236//136
f 158//60 144//523 146//59
f 146//59 149//58 150//170
f 150//170 152//492 154//494
f 154//494 156//69 171//71
f 171//71 169//498 167//497
f 167//497 263//68 165//66
f 165//66 163//64 161//63
f 161//63 158//60 146//59
f 146//59 150//170 154//494
f 154//494 171//71 167//497
f 167//497 165//66 161//63
f 161//63 146//59 154//494
f 267//517 265//514 229//509
f 285//518 283//144 239//129
f 239//129 227//508 255//520
f 260//138 256//137 258//167
f 261//141 257//140 255//337
f 144//523 158//60 159//62
f 297//340 296//340 260//138
f 258//525 241//192 266//194
f 279//527 277//529 278//198
f 267//139 260//138 296//139
f 264//515 265//514 277//529
f 264//199 192//98 205//83
f 281//515 269//515 270//530
f 271//200 251//135 250//130
f 299//355 298//355 279//527
f 280//528 278//198 271//200
f 284//533 282//531 283//144
f 280//142 275//143 301//142
f 276//515 277//529 270//530
f 272//534 270//530 277//529
f 255//520 227//508 282//531
f 181//535 281//515 282//531
f 285//142 261//141 307//142
f 305//355 304//355 284//533
f 250//130 251//135 269//146
f 254//150 212//152 199//154
f 211//148 253//127 247//125
f 215//151 254//150 253//127
f 251//135 252//133 201//155
f 184//203 183//204 249//193
f 248//124 249//193 180//206
f 247//125 248//124 178//209
f 297//142 262//142 268//142
f 268//526 267//517 294//355
f 275//143 274//522 300//340
f 300//139 274//139 279//139
f 273//532 272//534 302//355
f 306//139 259//139 284//139
f 261//141 259//522 306//340
f 299//167 301//167 300//167
f 307//167 306//167 304//167
f 296//337 297//337 295//337
f 275//143 303//140 302//337
f 282//340 270//340 271//340
f 277//340 265//340 266//340
f 272//534 273//532 271//200
f 266//194 265//514 267//517
f 311//163 317//162 318//213
f 309//337 223//337 235//337
f 308//537 310//160 244//126
f 315//161 317//162 247//125
f 320//168 319//217 325//538
f 148//57 323//216 320//168
f 150//170 321//169 324//167
f 323//555 148//556 147//557
f 185//558 323//555 147//557
f 195//543 185//558 147//557
f 195//543 147//557 145//541
f 153//493 151//491 324//139
f 153//493 324//139 216//139
f 155//495 153//493 216//139
f 157//142 155//495 216//139
f 331//544 330//545 329//218
f 321//165 327//546 328//219
f 319//217 322//355 328//355
f 326//539 325//538 329//218
f 327//546 331//544 332//220
f 144//523 145//559 147//171
usemtl Black
f 286//221 287//222 292//223
f 288//224 289//225 287//222
f 290//226 291//227 289//225
f 293//228 292//223 291//227
f 341//229 342//230 349//231
f 348//232 349//231 346//233
f 370//234 351//235 350//236
f 352//237 353//238 351//235
f 354//239 355//240 353//238
f 356//241 371//242 355//240
f 357//243 358//244 371//242
f 408//245 372//246 358//244
f 408//245 359//247 372//246
f 360//248 361//249 359//247
f 360//248 362//250 361//249
f 363//251 364//252 362//250
f 365//253 366//254 364//252
f 367//255 368//256 366//254
f 369//257 373//258 368//256
f 370//234 350//236 373//258
f 353//238 355//240 351//235
f 359//247 377//259 376//260
f 373//261 377//259 364//262
f 351//263 374//264 373//261
f 372//246 376//260 371//242
f 355//240 375//265 374//264
f 359//247 376//260 372//246
f 379//266 400//267 378//268
f 381//269 380//270 379//266
f 383//271 382//272 381//269
f 385//273 384//274 383//271
f 387//275 386//276 385//273
f 388//277 406//278 387//275
f 389//279 406//278 388//277
f 391//280 390//281 389//279
f 392//282 390//281 391//280
f 394//283 393//284 392//282
f 396//285 395//286 394//283
f 398//287 397//288 396//285
f 399//289 397//288 398//287
f 378//268 400//267 399//289
f 404//290 399//291 394//292
f 402//293 388//277 385//273
f 379//294 401//295 383//271
f 389//279 403//296 394//292
f 402//293 389//279 388//277
f 357//243 356//241 407//297
f 286//221 288//224 287//222
f 288//224 290//226 289//225
f 290//226 293//228 291//227
f 286//221 293//228 290//226
f 290//226 288//224 286//221
f 293//228 286//221 292//223
f 292//223 287//222 291//227
f 291//227 287//222 289//225
f 341//229 343//298 342//230
f 347//299 348//232 346//233
f 348//232 341//229 349//231
f 344//300 349//231 342//230
f 370//234 352//237 351//235
f 352//237 354//239 353//238
f 354//239 356//241 355//240
f 356//241 357//243 371//242
f 357//243 407//297 358//244
f 407//297 408//245 358//244
f 408//245 360//248 359//247
f 360//248 363//251 362//250
f 363//251 365//253 364//252
f 365//253 367//255 366//254
f 367//255 369//257 368//256
f 369//257 370//234 373//258
f 350//236 351//235 373//258
f 358//244 372//246 371//242
f 351//263 355//240 374//264
f 355//240 371//242 375//265
f 373//261 374//264 377//259
f 371//242 376//260 375//265
f 359//247 364//262 377//259
f 379//266 380//270 400//267
f 381//269 382//272 380//270
f 383//271 384//274 382//272
f 385//273 386//276 384//274
f 387//275 405//301 386//276
f 387//275 406//278 405//301
f 389//279 390//281 406//278
f 392//282 393//284 390//281
f 394//283 395//286 393//284
f 396//285 397//288 395//286
f 399//289 400//267 397//288
f 399//289 379//266 378//268
f 385//273 388//277 387//275
f 381//269 379//266 383//271
f 389//279 402//293 403//296
f 403//296 404//290 394//292
f 386//276 405//301 384//274
f 391//280 394//283 392//282
f 343//298 344//300 342//230
f 347//299 344//300 345//547
f 343//298 348//232 347//299
f 361//249 364//252 359//247
f 368//256 364//252 366//254
f 374//264 376//260 377//259
f 394//283 398//287 396//285
f 402//293 404//290 403//296
f 401//295 399//291 404//290
f 383//271 402//293 385//273
f 393//284 380//270 384//274
f 360//248 354//239 367//255
f 344//300 346//233 349//231
f 391//280 389//279 394//283
f 343//298 345//547 344//300
f 347//299 346//233 344//300
f 347//299 345//547 343//298
f 343//298 341//229 348//232
f 361//249 362//250 364//252
f 368//256 373//258 364//252
f 374//264 375//265 376//260
f 394//283 399//289 398//287
f 402//293 401//295 404//290
f 401//295 379//294 399//291
f 383//271 401//295 402//293
f 384//274 405//301 406//278
f 406//278 390//281 393//284
f 393//284 395//286 397//288
f 397//288 400//267 380//270
f 380//270 382//272 384//274
f 384//274 406//278 393//284
f 393//284 397//288 380//270
f 365//253 363//251 360//248
f 360//248 408//245 407//297
f 407//297 356//241 354//239
f 354//239 352//237 370//234
f 370//234 369//257 367//255
f 367//255 365//253 360//248
f 360//248 407//297 354//239
f 354//239 370//234 367//255
usemtl Blank.001
f 338//302 340//303 337//304
f 339//305 333//306 340//303
f 338//302 339//305 340//303
f 333//306 339//305 334//307
f 334//307 336//548 333//306
f 335//549 337//304 336//548
f 338//302 334//307 339//305
f 333//306 337//304 340//303
f 334//307 335//549 336//548
f 335//549 338//302 337//304
f 338//302 335//549 334//307
f 333//306 336//548 337//304
