# Blender 4.3.2
# www.blender.org
mtllib Faroles.mtl
o ParkLamp_Untitled.189
v 0.241570 0.000000 0.241570
v 0.241570 -0.000000 -0.241570
v -0.241570 0.000000 0.241570
v -0.241570 -0.000000 -0.241570
v 0.200820 0.541173 0.200818
v 0.200820 0.541173 -0.200818
v -0.200818 0.541173 0.200818
v -0.200819 0.541173 -0.200818
v 0.055817 0.541173 -0.175381
v -0.175382 0.541173 -0.055816
v -0.124495 0.541173 0.124495
v 0.084546 0.541173 0.163481
v 0.176063 0.541173 -0.000000
v 0.000001 0.757346 -0.176062
v -0.124495 0.757346 -0.124495
v -0.176063 0.757346 -0.000000
v -0.124495 0.757346 0.124495
v 0.000001 0.757346 0.176062
v 0.124495 0.757346 0.124495
v 0.176063 0.757346 -0.000000
v 0.124495 0.757346 -0.124495
v 0.053604 0.860788 -0.103647
v -0.103444 0.861138 -0.053499
v -0.053604 0.860788 0.103647
v 0.103444 0.861138 0.053499
v 0.050595 0.859044 -0.067036
v -0.083352 0.859044 -0.010298
v 0.032759 0.859044 0.077334
v 0.028441 2.501380 -0.036944
v -0.046216 2.501380 -0.006158
v 0.017777 2.501380 0.043101
v -0.042370 1.847361 0.005645
v 0.016297 1.847338 -0.039515
v 0.026075 1.847341 0.033870
v 0.215935 3.060012 0.214418
v 0.213932 3.063673 -0.215109
v -0.213932 3.063673 0.215108
v -0.215935 3.060012 -0.214419
v 0.101753 3.221451 0.101752
v 0.101753 3.221451 -0.101753
v -0.101754 3.221451 0.101752
v -0.101754 3.221451 -0.101753
v 0.059406 3.221451 0.059405
v 0.059406 3.221451 -0.059405
v -0.059406 3.221451 0.059405
v -0.059406 3.221451 -0.059405
v -0.012083 3.303825 0.036251
v 0.012083 3.303825 -0.036252
v 0.029683 2.628026 0.093267
v -0.066206 2.628026 0.066206
v -0.025851 2.469029 0.076839
v -0.086939 2.628026 -0.044962
v -0.093629 2.513067 -0.000000
v -0.064772 2.463192 -0.038866
v 0.044961 2.628026 -0.086939
v 0.025850 2.469029 -0.076839
v 0.093628 2.628026 -0.000000
v 0.076272 2.467390 0.025523
v 0.135280 2.633274 0.129458
v 0.129555 2.634808 -0.135701
v -0.129555 2.634808 0.135700
v -0.135066 2.632093 -0.128498
v 0.179816 3.095630 0.176806
v 0.177343 3.095508 -0.182155
v -0.177344 3.095508 0.182154
v -0.182153 3.095508 -0.177344
vn 0.6794 -0.2906 0.6738
vn 0.6776 -0.2779 -0.6809
vn 0.8157 0.5785 0.0008
vn 0.8164 0.5774 -0.0000
vn -0.6794 -0.2906 -0.6738
vn -0.0046 0.5774 -0.8164
vn -0.0000 0.5835 -0.8121
vn -0.6776 -0.2779 0.6809
vn -0.8157 0.5785 -0.0008
vn -0.8164 0.5774 -0.0000
vn 0.0046 0.5774 0.8164
vn -0.0000 0.5835 0.8121
vn 0.8060 0.5828 0.1031
vn 0.6365 0.5246 -0.5654
vn 0.1646 0.8794 -0.4467
vn -0.1646 0.8794 0.4467
vn -0.0000 0.2706 -0.9627
vn -0.8060 0.5828 -0.1031
vn -0.6365 0.5246 0.5654
vn -0.0000 0.2706 0.9627
vn -0.0000 1.0000 -0.0000
vn 0.9972 0.0751 -0.0000
vn -0.0000 0.0751 -0.9972
vn -0.9972 0.0751 -0.0000
vn -0.0000 0.0751 0.9972
vn 0.2545 -0.1168 -0.9600
vn -0.9327 -0.0797 -0.3517
vn -0.6441 0.2401 -0.7263
vn -0.0576 0.2701 -0.9611
vn -0.9611 0.2702 0.0577
vn -0.7006 -0.0481 0.7119
vn -0.7111 0.2518 0.6564
vn 0.4539 -0.0557 0.8893
vn 0.0058 0.2785 0.9604
vn 0.6905 0.2569 0.6762
vn 0.9988 -0.0481 -0.0080
vn 0.9640 0.2657 -0.0090
vn 0.7103 0.2648 -0.6522
vn -0.2629 0.8239 0.5020
vn 0.5005 0.8251 0.2620
vn 0.2629 0.8239 -0.5020
vn -0.5005 0.8251 -0.2620
vn -0.9921 0.0252 -0.1226
vn -0.9910 0.0203 0.1321
vn 0.3811 0.0203 -0.9243
vn 0.6022 0.0252 -0.7979
vn 0.3899 0.0252 0.9205
vn 0.6099 0.0203 0.7922
vn -0.9911 0.0191 -0.1321
vn 0.6099 0.0191 -0.7922
vn 0.3812 0.0191 0.9243
vn -0.5596 -0.6353 -0.5322
vn 0.5380 -0.6268 -0.5636
vn 0.5609 -0.6310 0.5360
vn -0.5378 -0.6265 0.5642
vn 0.3403 -0.0651 0.9381
vn -0.7148 0.0030 0.6993
vn -0.2167 -0.6512 0.7273
vn -0.8324 0.0153 -0.5540
vn -0.9618 -0.2577 0.0925
vn -0.5580 -0.7153 -0.4206
vn 0.4036 -0.1209 -0.9069
vn 0.2717 -0.6036 -0.7495
vn 0.9941 -0.1084 -0.0062
vn 0.7340 -0.6414 0.2234
vn 0.6926 -0.1391 -0.7078
vn 0.7072 -0.1370 0.6936
vn -0.7093 -0.1415 -0.6905
vn -0.6902 -0.1409 0.7097
vt 0.670192 0.914176
vt 0.670192 0.915270
vt 0.637177 0.962407
vt 0.543365 0.914176
vt 0.576379 0.962407
vt 0.543365 0.915270
vt 0.299224 0.915270
vt 0.426051 0.914176
vt 0.393037 0.962407
vt 0.332238 0.962407
vt 0.624526 0.962407
vt 0.610388 0.984508
vt 0.603168 0.984508
vt 0.589030 0.962407
vt 0.344890 0.962407
vt 0.380385 0.962407
vt 0.359028 0.984508
vt 0.666774 0.161663
vt 0.546783 0.161663
vt 0.678948 -0.000015
vt 0.534608 -0.000015
vt 0.290468 -0.000015
vt 0.434808 -0.000015
vt 0.422633 0.161663
vt 0.302642 0.161663
vt 0.621084 0.161663
vt 0.560104 0.161663
vt 0.569585 0.226245
vt 0.606779 0.226245
vt 0.554179 0.226245
vt 0.310038 0.161663
vt 0.325444 0.161663
vt 0.325444 0.226245
vt 0.310038 0.226245
vt 0.385526 0.161663
vt 0.362638 0.226245
vt 0.399831 0.226245
vt 0.415237 0.161663
vt 0.415237 0.226245
vt 0.659378 0.161663
vt 0.643972 0.226245
vt 0.659378 0.226245
vt 0.583012 0.256727
vt 0.634342 0.256727
vt 0.621383 0.256727
vt 0.579215 0.256727
vt 0.348033 0.256727
vt 0.329027 0.256727
vt 0.390201 0.256727
vt 0.585527 0.256727
vt 0.595095 0.502005
vt 0.611159 0.502005
vt 0.620068 0.256727
vt 0.370599 0.256727
vt 0.369940 0.502005
vt 0.350955 0.502005
vt 0.341387 0.256727
vt 0.618461 0.502005
vt 0.628029 0.256727
vt 0.595095 0.747282
vt 0.614213 0.747282
vt 0.366887 0.747282
vt 0.350955 0.747282
vt 0.618461 0.747282
vt 0.567523 0.789198
vt 0.643468 0.789701
vt 0.645895 0.787655
vt 0.567112 0.786815
vt 0.370245 0.785118
vt 0.342858 0.785118
vt 0.355991 0.741432
vt 0.334666 0.785118
vt 0.334666 0.750774
vt 0.589984 0.738440
vt 0.578806 0.750774
vt 0.583848 0.785118
vt 0.618950 0.785118
vt 0.613425 0.741432
vt 0.634750 0.785118
vt 0.625292 0.738120
vt 0.390609 0.785118
vt 0.381884 0.741146
vt 0.594140 0.734564
vt 0.344764 0.734564
vt 0.658608 0.924591
vt 0.661909 0.924797
vt 0.551704 0.924591
vt 0.554949 0.924591
vt 0.417672 0.924447
vt 0.310808 0.924591
vt 0.325948 0.789701
vt 0.401894 0.789332
s 1
usemtl Lamp.004
f 35/1/1 36/2/2 40/3/3
f 40/3/3 39/3/4 35/1/1
f 36/2/2 38/4/5 42/5/6
f 42/5/6 40/3/7 36/2/2
f 38/4/5 37/6/8 41/5/9
f 41/5/9 42/5/10 38/4/5
f 37/7/8 35/8/1 39/9/11
f 39/9/11 41/10/12 37/7/8
f 43/11/13 44/11/14 48/12/15
f 48/12/15 47/13/16 43/11/13
f 44/11/14 46/14/17 48/12/15
f 46/14/18 45/14/19 47/13/16
f 47/13/16 48/12/15 46/14/18
f 45/15/19 43/16/20 47/17/16
f 42/5/21 41/5/21 39/3/21
f 39/3/21 40/3/21 42/5/21
f 5/18/21 6/18/21 8/19/21
f 8/19/21 7/19/21 5/18/21
f 1/20/22 2/20/22 6/18/22
f 6/18/22 5/18/22 1/20/22
f 2/20/23 4/21/23 8/19/23
f 8/19/23 6/18/23 2/20/23
f 4/21/24 3/21/24 7/19/24
f 7/19/24 8/19/24 4/21/24
f 3/22/25 1/23/25 5/24/25
f 5/24/25 7/25/25 3/22/25
f 9/26/26 10/27/27 15/28/28
f 15/28/28 14/29/29 9/26/26
f 16/30/30 15/28/28 10/27/27
f 10/31/27 11/32/31 17/33/32
f 17/33/32 16/34/30 10/31/27
f 11/32/31 12/35/33 18/36/34
f 18/36/34 17/33/32 11/32/31
f 19/37/35 18/36/34 12/35/33
f 12/35/33 13/38/36 20/39/37
f 20/39/37 19/37/35 12/35/33
f 13/40/36 9/26/26 21/41/38
f 21/41/38 20/42/37 13/40/36
f 14/29/29 21/41/38 9/26/26
f 24/43/39 25/44/40 22/45/41
f 23/46/42 24/43/39 22/45/41
f 14/29/29 15/28/28 23/46/42
f 23/46/42 22/45/41 14/29/29
f 15/28/28 16/30/30 23/46/42
f 16/34/30 17/33/32 24/47/39
f 24/47/39 23/48/42 16/34/30
f 17/33/32 18/36/34 24/47/39
f 18/36/34 19/37/35 25/49/40
f 25/49/40 24/47/39 18/36/34
f 19/37/35 20/39/37 25/49/40
f 20/42/37 21/41/38 22/45/41
f 22/45/41 25/44/40 20/42/37
f 21/41/38 14/29/29 22/45/41
f 27/50/43 32/51/44 33/52/45
f 33/52/45 26/53/46 27/50/43
f 28/54/47 34/55/48 32/56/44
f 32/56/44 27/57/43 28/54/47
f 26/53/46 33/52/45 34/58/48
f 34/58/48 28/59/47 26/53/46
f 30/60/49 29/61/50 33/52/45
f 33/52/45 32/51/44 30/60/49
f 31/62/51 30/63/49 32/56/44
f 32/56/44 34/55/48 31/62/51
f 29/61/50 31/64/51 34/58/48
f 34/58/48 33/52/45 29/61/50
f 62/65/52 60/66/53 59/67/54
f 59/67/54 61/68/55 62/65/52
f 35/1/1 37/6/8 38/4/5
f 38/4/5 36/2/2 35/1/1
f 49/69/56 50/70/57 51/71/58
f 50/70/57 52/72/59 53/73/60
f 53/73/60 51/71/58 50/70/57
f 54/74/61 53/75/60 52/76/59
f 52/76/59 55/77/62 56/78/63
f 56/78/63 54/74/61 52/76/59
f 55/77/62 57/79/64 58/80/65
f 58/80/65 56/78/63 55/77/62
f 57/81/64 49/69/56 58/82/65
f 51/71/58 58/82/65 49/69/56
f 54/74/61 56/78/63 58/80/65
f 51/83/58 54/74/61 58/80/65
f 51/71/58 53/73/60 54/84/61
usemtl GLASS.004
f 59/67/54 60/66/53 64/85/66
f 64/85/66 63/86/67 59/67/54
f 60/66/53 62/65/52 66/87/68
f 66/87/68 64/85/66 60/66/53
f 62/65/52 61/68/55 65/88/69
f 63/89/67 65/90/69 61/91/55
f 65/88/69 66/87/68 62/65/52
f 61/91/55 59/92/54 63/89/67
