# Blender 4.3.2
# www.blender.org
mtllib LamparaSuelo_optim.mtl
o LamparaSuelo
v 1.577598 0.668539 -0.007394
v 1.501955 0.585865 -0.389205
v 1.891034 1.013007 -0.775490
v 2.110970 1.289779 -0.775422
v 2.143768 1.268562 -0.775366
v 1.501098 0.585118 0.364332
v 1.891034 1.013008 0.752110
v 2.128568 1.278654 0.752110
v 1.387957 -0.404033 -0.279878
v 1.354897 -0.363819 -0.308379
v 1.319161 -0.333529 -0.251207
v 1.400794 -0.427517 0.264563
v 1.319608 -0.333146 0.264562
v 1.375397 -0.380396 0.264574
v 1.403213 0.473676 -0.296169
v 1.369340 0.434206 -0.267652
v 1.331711 0.405892 -0.324797
v 1.387346 0.287305 -0.444028
v 1.328686 0.261532 -0.400761
v 1.399738 0.250542 -0.462996
v 1.378912 -0.188556 -0.444031
v 1.320895 -0.214340 -0.400132
v 1.391261 -0.225351 -0.463042
v 1.328672 0.261553 0.377411
v 1.399726 0.250586 0.439729
v 1.387311 0.287299 0.420721
v 1.320905 -0.214338 0.376806
v 1.391255 -0.225295 0.439773
v 1.378887 -0.188574 0.420741
v 1.403213 0.473676 0.256324
v 1.369320 0.434223 0.284841
v 1.332210 0.405450 0.227696
v 1.555219 -0.605136 -0.016117
v 1.482514 -0.519909 0.365755
v 1.856341 -0.960449 0.752010
v 2.095938 -1.227105 0.751967
v 2.068289 -1.243812 -0.775539
v 1.481691 -0.519118 -0.387833
v 1.856341 -0.960449 -0.775590
v 0.084987 0.362161 0.314741
v 0.082359 0.217320 0.416030
v 0.083308 0.268889 0.570741
v 0.084917 0.362231 0.499141
v 0.080485 0.107558 0.629713
v 0.078549 -0.001906 0.445297
v 0.158891 -0.024278 -0.454985
v 0.916466 0.231488 -0.384060
v 0.909361 -0.175588 -0.389153
v 0.167083 0.440882 -0.187052
v 0.920361 0.447095 -0.116142
v 0.168486 0.392651 0.237553
v 0.915859 0.359072 0.259566
v 0.994094 0.170907 -0.408807
v 1.044338 0.188563 -0.338178
v 0.998448 0.413160 -0.197216
v 1.108761 0.414143 -0.003882
v 0.998774 0.434528 0.160540
v 1.044366 0.188009 0.330811
v 0.993852 0.161588 0.405481
v 1.115714 0.034732 0.416264
v 0.932161 0.221693 -0.263648
v 0.944197 0.037828 -0.320603
v 0.962025 0.376056 -0.095462
v 0.941232 0.302120 -0.161958
v 0.944701 0.342738 -0.045666
v 0.961358 0.351588 0.137893
v 0.941790 0.333729 0.077942
v 0.943589 0.280173 0.188953
v 0.952386 0.127956 0.351009
v 0.939935 0.149913 0.290010
v 0.938381 0.000942 0.309497
v 1.000775 -0.086424 -0.349770
v 0.996932 0.201244 0.415997
v 0.996882 0.201277 0.600300
v 0.999319 0.346033 0.314741
v 0.999390 0.346103 0.499141
v 0.086490 0.298029 -0.335759
v 0.053805 0.105984 -0.427211
v 0.088780 0.429770 -0.163959
v 0.069070 0.464910 0.051929
v 0.087783 0.375178 0.250741
v 0.084813 0.203485 0.382542
v 1.115872 0.034746 -0.430817
v 0.992880 -0.018021 0.445299
v 0.992964 -0.017689 0.629713
v 0.051937 0.000955 0.419398
v 0.074068 -0.256162 0.314741
v 0.073998 -0.256233 0.499141
v 0.076554 -0.111579 0.600255
v 0.075677 -0.162821 0.386441
v 0.152792 -0.371161 -0.060776
v 0.905647 -0.385244 -0.003796
v 0.160111 -0.254324 0.279399
v 0.901004 -0.257881 0.280962
v 0.988000 -0.170032 -0.381931
v 0.984802 -0.363808 -0.132437
v 1.109086 -0.377531 -0.003847
v 0.984894 -0.342956 0.174644
v 1.050433 -0.321225 -0.003868
v 1.039248 -0.152965 0.326340
v 0.988817 -0.113163 0.390111
v 0.935431 -0.145837 -0.255957
v 0.949497 -0.316190 -0.088018
v 0.932978 -0.246263 -0.125694
v 0.933497 -0.267382 0.037347
v 0.935458 -0.204217 0.188917
v 0.950565 -0.200528 0.254712
v 0.933979 -0.110638 0.269941
v 0.990079 -0.179019 0.570741
v 0.990009 -0.178949 0.386441
v 0.988470 -0.272361 0.499141
v 0.988400 -0.272291 0.314741
v 0.079546 -0.097544 -0.390359
v 0.076505 -0.269308 -0.258559
v 0.039366 -0.362944 -0.059639
v 0.075508 -0.323900 0.156242
v 0.077870 -0.192089 0.327942
v 0.173391 0.274526 0.558411
v 0.907240 0.268968 0.534252
v 0.164873 -0.208742 0.514106
v 0.901030 -0.150119 0.562115
v 1.489200 0.144851 -0.579788
v 1.478890 0.370366 -0.557032
v 1.980300 0.230481 -1.111944
v 1.663087 0.366740 -0.745273
v 1.484496 -0.087454 -0.580201
v 1.478726 -0.338604 -0.569941
v 1.974149 -0.151369 -1.120658
v 1.483651 0.144382 0.554290
v 1.477326 0.385878 0.538584
v 1.659774 0.366348 0.718139
v 1.983309 0.191014 1.089191
v 1.484489 -0.088756 0.550533
v 1.475908 -0.335606 0.535681
v 1.965626 -0.190368 1.088812
v 0.343456 0.062451 -0.457299
v 0.348123 0.323751 -0.352912
v 0.424792 0.205103 -0.391099
v 0.351111 0.505648 -0.042865
v 0.427906 0.378482 -0.254709
v 0.429640 0.460395 -0.050164
v 0.348804 0.364560 0.313961
v 0.422126 0.430697 0.164564
v 0.347037 0.268864 0.602011
v 0.431990 0.352744 0.516180
v 0.439224 0.135313 0.590663
v 0.346743 0.098139 -0.413417
v 0.350150 0.293380 -0.331217
v 0.352441 0.425121 -0.159417
v 0.352937 0.453407 0.055283
v 0.351444 0.370530 0.255283
v 0.348473 0.198836 0.387083
v 0.346899 0.264169 0.390983
v 0.335053 0.103377 0.449121
v 0.344939 -0.001497 0.414683
v 0.437904 0.321316 0.319483
v 0.420971 -0.000524 -0.421171
v 0.418216 -0.161741 -0.361595
v 0.337990 -0.256469 -0.335529
v 0.416419 -0.284517 -0.254763
v 0.334971 -0.408992 0.044161
v 0.415143 -0.366487 -0.050170
v 0.338181 -0.231832 0.549644
v 0.432218 -0.229396 0.483987
v 0.423940 -0.108052 0.608283
v 0.339188 -0.191906 0.375868
v 0.343207 -0.102193 -0.385817
v 0.340166 -0.273957 -0.254017
v 0.338673 -0.356834 -0.053917
v 0.339169 -0.328548 0.160783
v 0.341531 -0.196738 0.332483
v 0.341262 -0.058782 0.435983
v 0.428228 -0.227848 0.319483
v 0.408712 -0.336538 0.164531
v 0.436482 0.238510 0.546883
v 0.437975 0.321387 0.483283
v 0.431079 -0.001817 0.599039
v 0.429722 -0.145114 0.546883
v 1.172252 0.070432 -0.323666
v 1.175081 0.217007 -0.261863
v 1.177148 0.316770 -0.131316
v 1.177500 0.338139 0.031886
v 1.176207 0.276044 0.182656
v 1.173688 0.145634 0.283459
v 1.170926 -0.003029 0.303817
v 1.047017 0.076676 -0.270627
v 1.036617 0.318805 0.025461
v 1.036573 -0.003924 0.247156
v 1.169780 -0.078362 -0.303254
v 1.167724 -0.208031 -0.203186
v 1.166789 -0.270805 -0.051163
v 1.167060 -0.249490 0.111294
v 1.168698 -0.149373 0.242039
v 1.026647 -0.246405 -0.045875
v 1.178591 0.255139 -0.389845
v 1.260165 0.157807 -0.428673
v 1.260210 0.360586 -0.247775
v 1.182387 0.471909 -0.093265
v 1.266087 0.480180 0.010677
v 1.199190 0.419873 0.166725
v 1.169150 0.309403 0.494121
v 1.177106 0.132914 0.641743
v 1.259490 0.106243 0.655209
v 1.263769 0.349626 0.324680
v 1.170988 0.308546 0.330201
v 1.179157 0.132712 -0.396671
v 1.180706 0.282171 -0.326790
v 1.183757 0.388839 -0.200171
v 1.183591 0.445129 -0.044714
v 1.257294 0.131280 0.418329
v 1.260493 0.281205 0.348097
v 1.262118 0.195972 0.430597
v 1.261824 0.387477 0.221729
v 1.262569 0.429621 0.120029
v 1.263108 0.443806 -0.044799
v 1.259094 0.233037 -0.354571
v 1.257668 0.082274 -0.409544
v 1.174023 -0.021203 -0.437021
v 1.176039 -0.017617 -0.409601
v 1.255689 -0.019366 0.431103
v 1.257867 -0.023249 0.459924
v 1.254359 -0.190457 -0.389809
v 1.168371 -0.318243 -0.288519
v 1.250973 -0.382405 -0.152724
v 1.250357 -0.407410 0.080854
v 1.171502 -0.380383 -0.039680
v 1.252544 -0.284610 0.324073
v 1.178948 -0.350479 0.175141
v 1.158146 -0.242568 0.493589
v 1.252942 -0.268210 0.535089
v 1.163269 -0.113860 0.583938
v 1.173888 -0.168317 -0.354571
v 1.171223 -0.294950 -0.247899
v 1.161128 -0.241251 0.329629
v 1.254326 -0.184170 0.401129
v 1.251957 -0.169680 0.376229
v 1.250380 -0.296158 0.269696
v 1.248553 -0.366194 0.120029
v 1.248692 -0.380385 -0.044786
v 1.250362 -0.296297 -0.247908
v 1.253610 -0.121707 -0.382062
v 1.171409 0.079709 0.609595
v 1.171645 0.224971 0.557029
vn -0.2468 0.2759 0.9290
vn -0.4512 0.5573 0.6970
vn -0.1766 0.1972 -0.9643
vn 0.2314 -0.2250 0.9465
vn -0.6185 -0.3061 -0.7237
vn -0.5157 -0.5733 0.6367
vn -0.1205 0.8030 -0.5837
vn -0.6706 0.6872 0.2795
vn 0.5570 -0.6776 0.4802
vn -0.4835 0.4098 0.7735
vn -0.0000 -0.0000 -0.0000
vn 0.5711 0.6654 -0.4808
vn 0.5082 0.3824 0.7717
vn 0.2869 -0.8513 -0.4392
vn 0.7587 0.3334 -0.5596
vn 0.7472 -0.1156 -0.6545
vn 0.2857 -0.8514 -0.4399
vn 0.7516 0.3340 -0.5687
vn 0.7405 -0.1159 -0.6620
vn -0.7585 -0.3330 -0.5602
vn 0.2876 -0.8505 0.4403
vn 0.7468 -0.1153 0.6550
vn 0.7513 0.3338 0.5693
vn -0.2865 0.8506 -0.4409
vn 0.7402 -0.1153 0.6625
vn 0.5714 0.6651 -0.4808
vn 0.5017 0.3890 0.7726
vn 0.9998 -0.0179 -0.0002
vn 0.9998 -0.0176 -0.0001
vn 0.9998 -0.0175 0.0004
vn -0.7707 0.5221 0.3652
vn -0.4086 0.4951 -0.7668
vn 0.9998 -0.0178 0.0001
vn 0.9998 -0.0178 -0.0001
vn -0.0277 0.9109 -0.4118
vn 0.0396 0.4507 -0.8918
vn -0.0747 -0.1645 -0.9835
vn 0.6653 0.6380 0.3877
vn 0.9643 0.1625 -0.2092
vn 0.9785 0.2015 -0.0432
vn 0.5232 -0.1834 -0.8322
vn 0.7000 -0.5171 -0.4925
vn 0.4504 -0.7853 -0.4247
vn 0.9489 -0.1804 -0.2590
vn 0.4814 -0.8216 0.3052
vn 0.8083 -0.0811 0.5832
vn 0.9691 0.2087 0.1313
vn 0.3255 -0.5619 0.7605
vn -0.9533 0.2456 -0.1758
vn -0.9965 0.0314 -0.0768
vn -0.9699 0.2080 -0.1269
vn -0.9954 0.0950 0.0132
vn -0.9984 -0.0558 -0.0082
vn -0.9972 0.0135 0.0735
vn 0.9998 -0.0180 0.0002
vn 0.9998 -0.0177 0.0002
vn 0.0311 -0.5227 -0.8519
vn -0.0474 -0.9855 -0.1629
vn 0.6538 0.7496 -0.1032
vn 0.9365 -0.3503 -0.0170
vn 0.7645 -0.5535 0.3304
vn 0.4706 0.5765 0.6680
vn 0.4205 0.8576 0.2963
vn 0.3247 -0.4746 0.8181
vn 0.5168 0.6572 -0.5487
vn -0.9612 -0.2123 0.1762
vn -0.9525 -0.2303 0.1990
vn 0.6877 0.5952 -0.4157
vn 0.4313 0.4504 0.7817
vn 0.8720 -0.0069 0.4895
vn 0.9104 -0.3192 -0.2630
vn 0.8691 -0.1349 -0.4759
vn 0.9188 -0.3914 -0.0507
vn 0.8602 -0.4149 -0.2965
vn -0.9956 0.0152 -0.0920
vn -0.5664 0.5030 0.6528
vn 0.6464 0.3326 -0.6867
vn -0.9051 -0.0173 0.4249
vn 0.5405 -0.5496 -0.6370
vn 0.6320 0.3976 0.6652
vn 0.2472 0.9680 0.0430
vn -0.4942 0.6640 -0.5611
vn -0.0045 -0.3216 -0.9469
vn -0.8355 -0.1837 -0.5179
vn -0.3942 -0.8205 -0.4139
vn -0.5369 0.8431 -0.0297
vn 0.3385 0.9392 -0.0567
vn 0.2536 0.7734 -0.5810
vn 0.1540 0.4561 0.8765
vn -0.0664 0.0386 0.9970
vn 0.4647 0.7807 0.4178
vn -0.9800 -0.1683 0.1060
vn -0.5836 0.5794 -0.5690
vn -0.9976 -0.0248 0.0643
vn -0.9812 -0.0121 -0.1925
vn -0.9727 -0.0141 -0.2317
vn -0.9970 -0.0182 -0.0749
vn -0.9819 -0.0063 -0.1895
vn 0.1718 -0.8668 -0.4681
vn -0.4778 -0.8740 0.0883
vn -0.5249 -0.5803 -0.6227
vn 0.0444 -0.9082 0.4162
vn -0.8764 -0.4760 0.0726
vn -0.5653 0.0875 -0.8202
vn -0.9637 0.1097 0.2434
vn -0.9829 0.1715 0.0666
vn -0.9823 0.1774 0.0606
vn -0.8392 0.4610 -0.2885
vn -0.9944 0.0848 -0.0625
vn -0.9959 0.0323 -0.0847
vn -0.9973 -0.0040 0.0735
vn 0.9945 0.0616 0.0842
vn 0.5201 -0.1747 0.8361
vn 0.9887 -0.0687 0.1333
vn 0.9630 -0.0408 0.2664
vn -0.0149 -0.9272 0.3743
vn -0.3850 0.1191 -0.9152
vn -0.7869 0.1087 -0.6075
vn -0.5466 0.5626 -0.6203
vn -0.7278 0.6810 0.0812
vn -0.4627 0.7783 -0.4245
vn -0.1407 0.9812 0.1319
vn -0.4840 0.6352 0.6019
vn -0.5751 0.3732 0.7280
vn -0.8010 -0.0784 0.5936
vn -0.3891 -0.1029 0.9154
vn -0.5978 -0.3495 -0.7215
vn -0.5048 -0.6174 -0.6033
vn -0.7514 -0.6541 -0.0877
vn -0.1753 -0.9758 -0.1311
vn -0.4923 -0.7596 0.4251
vn -0.5574 -0.5479 0.6238
vn -0.0756 0.9173 0.3909
vn 0.5766 0.7560 0.3100
vn 0.5978 0.7976 0.0809
vn -0.3584 0.9191 0.1638
vn -0.9989 -0.0200 0.0427
vn -0.5542 0.5007 -0.6649
vn -0.9933 -0.0006 0.1158
vn -0.8564 -0.4124 0.3107
vn -0.9945 0.0795 0.0687
vn -0.5539 0.7924 -0.2556
vn 0.9925 -0.0781 -0.0937
vn 0.9945 -0.0571 -0.0876
vn 0.9925 -0.0351 -0.1168
vn 0.8859 -0.4297 -0.1745
vn 0.9888 -0.1434 0.0405
vn 0.8863 -0.4307 -0.1702
vn 0.1297 0.7978 -0.5888
vn 0.6229 0.1876 -0.7595
vn -0.6144 -0.0927 -0.7835
vn 0.5717 -0.3828 -0.7257
vn -0.5689 -0.6474 -0.5071
vn -0.2050 -0.7529 0.6254
vn -0.1493 -0.3368 0.9297
vn -0.3380 -0.8096 0.4799
vn 0.1053 0.1721 0.9794
vn -0.4830 0.3331 0.8098
vn -0.9560 0.1460 0.2546
vn -0.9952 0.0197 0.0959
vn -0.9975 0.0623 0.0326
vn -0.3221 -0.9437 -0.0758
vn 0.5581 -0.8078 0.1897
vn 0.9920 0.1248 0.0168
vn 0.9946 0.0913 -0.0485
vn 0.6009 -0.7744 -0.1979
vn 0.9712 0.1785 0.1579
vn 0.9948 -0.0007 0.1021
vn -0.2972 -0.9121 0.2825
vn -0.9841 -0.1778 -0.0007
vn -0.9831 0.0890 0.1600
vn -0.9913 0.0249 0.1289
vn 0.3107 0.7918 0.5258
vn 0.8218 0.0978 -0.5614
vn -0.3028 -0.4063 -0.8621
vn -0.6464 -0.6855 -0.3351
vn -0.3224 -0.3753 0.8690
vn 0.1196 0.1314 0.9841
vn 0.7051 0.7071 0.0530
vn 0.7042 0.7068 0.0675
vn 0.7037 0.7067 0.0732
vn -0.2166 0.3529 -0.9102
vn 0.0317 0.9731 -0.2282
vn 0.0163 0.9688 0.2474
vn 0.0167 0.9679 0.2509
vn 0.8423 -0.5332 -0.0795
vn 0.8541 -0.5200 -0.0080
vn 0.4389 0.4631 -0.7699
vn 0.7997 -0.5099 0.3169
vn 0.9999 -0.0166 -0.0001
vn 0.9998 -0.0177 -0.0001
vn 0.9998 -0.0174 -0.0001
vn 0.5223 0.2338 -0.8201
vn -0.9669 0.1758 0.1849
vn -0.9668 0.1761 0.1853
vn 0.9998 -0.0180 -0.0002
vn 0.0113 -0.2235 0.9746
vn -0.0040 -0.9989 -0.0459
vn 0.0003 -0.9458 0.3249
vn 0.0001 -0.9457 0.3251
vn 0.6544 0.7156 -0.2444
vn 0.6902 0.6670 -0.2807
vn 0.9114 0.3400 0.2319
vn 0.5382 0.2665 -0.7996
vn 0.9998 -0.0177 -0.0000
vn 0.9998 -0.0176 -0.0000
vn -0.9523 -0.1709 -0.2528
vn -0.9521 -0.1714 -0.2532
vn -0.0017 0.5584 0.8296
vn 0.0351 0.6161 0.7869
vn 0.0155 -0.5590 0.8290
vn -0.0158 -0.6669 0.7450
vn 0.1876 0.9822 0.0031
vn -0.3769 -0.8313 0.4085
vn 0.5318 -0.5695 0.6268
vn 0.2881 0.3732 -0.8819
vn 0.1882 -0.1715 -0.9671
vn 0.1378 0.9524 0.2721
vn -0.8125 0.5670 0.1359
vn -0.9895 -0.1331 -0.0563
vn -0.9899 -0.1256 -0.0655
vn 0.2177 -0.4175 -0.8822
vn -0.0182 -0.7252 0.6883
vn 0.1941 -0.9457 -0.2608
vn 0.9914 0.1208 0.0496
vn 0.9792 0.2013 0.0239
vn 0.9825 -0.1859 -0.0065
vn 0.9829 -0.1223 0.1378
vn 0.9943 -0.0065 0.1061
vn 0.9945 -0.0109 -0.1043
vn 0.9945 -0.0112 -0.1046
vn 0.6555 -0.7402 0.1495
vn 0.9974 0.0190 -0.0698
vn 0.9974 0.0191 -0.0696
vn 0.9942 0.0891 -0.0600
vt 0.000000 0.000000
vt 0.125000 0.666700
vt 0.166700 0.666700
vt 0.187541 0.666700
vt 0.227245 0.666700
vt 0.227383 0.666700
vt 0.931344 0.333300
vt 0.828103 0.666700
vt 0.813612 0.333300
vt 0.053701 1.000000
vt 0.178501 1.000000
vt 0.026188 1.000000
vt 0.192239 1.000000
vt 0.103956 1.000000
vt 0.065750 1.000000
vt 0.187535 1.000000
vt 0.000000 1.000000
vt 0.806499 1.000000
vt 0.821793 1.000000
vt 0.852563 1.000000
vt 0.854200 0.666700
vt 0.773028 0.666700
vt 0.937500 0.666700
vt 1.000000 0.666700
vt 0.979276 0.666700
vt 0.246061 0.666700
vt 0.020791 0.666700
vt -0.000000 0.666700
vt 0.187481 0.666700
vt 0.834304 0.666700
vt 0.970282 0.333300
vt 0.021159 1.000000
vt 0.165710 1.000000
vt 0.070909 1.000000
vt 0.854089 1.000000
vt 0.954199 1.000000
vt 0.186675 1.000000
vt 0.128261 1.000000
vt 0.020316 1.000000
vt 0.145800 0.666700
vt 0.226973 0.666700
vt 0.062500 0.666700
vt 1.000000 1.000000
vt 0.981002 1.000000
vt 0.923986 1.000000
vt 0.208954 1.000000
vt 0.209545 1.000000
vt 0.835618 1.000000
vt 0.789340 1.000000
vt 0.020680 1.000000
vt 0.972309 0.666700
vt 0.980072 0.985089
vt 0.897634 0.985014
vt 0.168922 0.666700
vt 0.210078 0.666700
vt 0.128639 0.666700
vt 0.857977 0.666700
vt 0.187500 0.666700
vt 0.227236 0.666700
vt 0.246200 0.666700
vt 0.897604 0.985064
vt 0.975385 0.666700
vt 0.869773 0.666700
vt 0.062674 0.987683
vt 0.156573 0.666700
vt 0.027664 0.666700
vt 0.780545 0.666700
vt 0.812500 0.666700
vt 0.895800 0.666700
vt 0.000000 0.666700
vt 0.208300 0.666700
vt 0.227300 0.666700
vt 0.753800 0.666700
vt 0.191089 0.666700
vt 0.227333 0.666700
vt 0.773578 1.000000
vt 0.786864 1.000000
vt 0.854000 1.000000
vt 0.938008 1.000000
vt 0.937383 1.000000
vt 0.021173 1.000000
vt 0.050368 1.000000
vt 0.103898 1.000000
vt 0.187453 1.000000
vt 0.226600 1.000000
vt 0.226432 1.000000
vt 0.475500 1.000000
vt 0.812640 1.000000
vt 0.895691 1.000000
vt 0.949340 1.000000
vt 0.979142 1.000000
vt 0.062532 1.000000
vt 0.062024 1.000000
vt 0.146125 1.000000
vt 0.214399 1.000000
vt 0.795686 1.000000
vt 0.058562 0.666700
vt 0.119853 0.666700
vt 0.020781 0.666700
vt 0.854025 0.666700
vt 0.833126 0.666700
vt 0.791700 0.666700
vt 0.916700 0.666700
vt 0.979139 0.666700
vt 0.963570 0.666700
vt 0.145764 1.000000
vt 0.187507 0.666700
vt 0.208300 1.000000
vt 0.083300 1.000000
vt 0.041700 1.000000
vt 0.979110 1.000000
vt 0.896010 0.992952
vt 0.986229 0.666700
vt 0.797555 0.666700
vt 0.772606 0.666700
vt 0.833159 0.666700
vt 0.889651 0.666700
vt 0.132222 0.666700
vt 0.187469 0.666700
vt 0.204549 0.666700
vt 0.211638 0.666700
vt 0.833300 0.666700
vt 0.772817 0.666700
vt 0.895961 0.666700
vt 0.980203 0.666700
vt 0.024712 0.666700
vt 0.979115 1.000000
vt 0.941399 0.666700
vt 0.895951 1.000000
vt 0.812580 1.000000
vt 0.062851 0.666700
vt 0.228170 0.666700
vt 0.000000 0.333300
vt 0.092689 0.333300
vt 0.102344 0.666700
vt 0.958558 0.666700
vt 0.792753 1.000000
vt 0.958793 1.000000
vt 0.916700 1.000000
vt 0.978939 1.000000
vt 0.187532 0.666700
vt 0.187507 0.666700
vt 0.226375 1.000000
vt 0.104200 0.666700
vt 0.227383 0.666700
vt 0.227150 0.666700
vt 0.779652 1.000000
vt 0.024618 0.666700
vt 0.112541 0.666700
vt 0.110421 0.333300
vt 0.017053 0.333300
vt 0.984709 0.666700
vt 0.960904 1.000000
vt 0.962305 1.000000
vt 0.020733 1.000000
vt 0.104026 1.000000
vt 0.937420 1.000000
vt 0.166700 1.000000
vt 0.753940 0.666700
vt 0.157739 0.666700
vt 0.151918 0.666700
vt 0.171356 0.666700
vt 0.137901 0.666700
vt 0.961381 1.000000
vt 0.814261 0.985180
vt 0.773217 0.980023
vt 0.062683 0.987684
vt 0.000765 0.985089
vt 0.024724 0.666700
vt 0.121981 0.666700
vt 0.772700 0.666700
vt 0.020800 0.666700
vt 0.835718 0.961387
vt 0.142816 0.666700
vt 0.980073 0.985040
vt 0.000761 0.985040
vt 0.979200 0.666700
vt 0.833300 1.000000
vt 0.772788 1.000000
vt 0.227149 0.666700
vt 0.227042 1.000000
vt 0.000766 0.666700
vt 0.121961 0.666700
vt 0.104137 1.000000
s 1
usemtl wire_115115115
f 35/1/1 34/1/2 37/1/3 36/1/4
f 1/1/5 6/1/6 4/1/7
f 33/1/31 38/1/32 37/1/3
f 122/1/75 123/1/76 124/1/77
f 126/1/78 124/1/77 128/1/79
f 132/1/80 131/1/81 130/1/82
f 131/1/81 133/1/83 129/1/84
f 131/1/81 134/1/85 133/1/83
f 4/1/7 5/1/174 3/1/175
f 3/1/175 2/1/176 4/1/7
f 7/1/177 8/1/178 4/1/7 6/1/6
f 2/1/176 1/1/5 4/1/7
f 8/1/178 5/1/174 4/1/7
f 7/1/177 6/1/6 1/1/5 5/1/174 8/1/178
f 36/1/4 33/1/31 34/1/2 35/1/1
f 34/1/2 33/1/31 37/1/3
f 38/1/32 39/1/182 37/1/3
f 39/1/182 38/1/32 33/1/31 36/1/4 37/1/3
f 125/1/213 127/1/214 128/1/79 124/1/77
f 5/1/174 1/1/5 2/1/176 3/1/175
f 125/1/213 124/1/77 123/1/76
f 122/1/75 126/1/78 125/1/213
f 125/1/213 123/1/76 122/1/75
f 124/1/77 126/1/78 122/1/75
f 127/1/214 125/1/213 126/1/78
f 129/1/84 135/1/215 132/1/80 130/1/82
f 128/1/79 127/1/214 126/1/78
f 129/1/84 130/1/82 131/1/81
f 135/1/215 134/1/85 131/1/81 132/1/80
f 134/1/85 135/1/215 133/1/83
f 135/1/215 129/1/84 133/1/83
usemtl wire_144154176
f 11/1/8 9/1/9 10/1/10
f 17/1/11 15/1/12 16/1/13
f 20/1/14 18/1/15 19/1/16
f 20/1/14 19/1/16 18/1/15
f 23/1/17 21/1/18 22/1/19
f 23/1/17 22/1/19 21/1/18
f 24/1/20 26/1/21 25/1/22
f 24/1/20 25/1/22 26/1/21
f 27/1/23 29/1/24 28/1/25
f 27/1/23 28/1/25 29/1/24
f 32/1/11 30/1/26 31/1/27
f 11/1/8 10/1/10 9/1/9
f 12/1/179 14/1/180 13/1/181
f 13/1/181 14/1/180 12/1/179
f 17/1/11 16/1/13 15/1/12
f 32/1/11 31/1/27 30/1/26
usemtl wire_196088225
f 43/2/28 42/3/29 41/4/29 40/2/30
f 45/5/33 41/4/29 44/6/34
f 49/7/35 47/8/36 46/9/37
f 57/10/38 58/11/39 56/12/40
f 69/13/41 68/14/42 66/15/43
f 69/13/41 70/16/44 68/14/42
f 66/15/43 58/11/39 69/13/41
f 66/15/43 56/12/40 58/11/39
f 63/17/45 56/12/40 66/15/43
f 72/18/46 54/19/47 61/20/48
f 77/21/49 78/22/50 79/23/51
f 80/24/52 78/22/50 115/25/53
f 86/26/54 80/27/52 115/28/53
f 89/29/55 90/3/56 45/5/33
f 46/9/37 48/30/57 91/31/58
f 99/32/59 100/33/60 98/34/61
f 72/18/46 102/35/62 103/36/63
f 100/33/60 101/37/64 98/34/61
f 100/33/60 107/38/65 69/13/41
f 99/32/59 103/39/63 107/38/65
f 117/40/66 86/41/54 116/42/67
f 57/43/38 56/44/40 55/45/68
f 59/46/69 60/47/70 58/11/39
f 58/11/39 60/47/70 100/33/60
f 95/48/71 83/49/72 72/18/46
f 98/34/61 97/50/73 99/32/59
f 96/17/74 97/50/73 98/34/61
f 139/51/86 141/52/87 140/53/88
f 144/54/89 146/55/90 145/56/91
f 149/23/92 137/57/93 148/21/94
f 152/58/95 154/59/96 153/3/97
f 155/60/98 154/59/96 152/58/95
f 160/61/99 161/62/100 159/63/101
f 174/64/102 166/65/103 161/66/100
f 136/67/104 159/63/101 167/68/105
f 159/63/101 168/69/106 167/68/105
f 169/70/107 161/66/100 170/42/108
f 170/42/108 166/65/103 171/40/109
f 172/71/110 154/59/96 155/72/98
f 147/73/111 136/67/104 167/68/105
f 146/55/90 175/3/112 145/56/91
f 165/74/113 178/3/114 177/75/115
f 165/74/113 164/2/116 178/3/114
f 179/76/117 186/77/118 180/78/119
f 180/78/119 187/79/120 181/80/121
f 181/80/121 187/79/120 182/43/122
f 182/81/122 187/82/120 183/83/123
f 183/83/123 187/82/120 184/84/124
f 184/84/124 187/82/120 188/85/125
f 184/84/124 188/85/125 185/86/126
f 187/82/120 186/87/118 188/85/125
f 189/88/127 190/89/128 194/90/129
f 190/89/128 191/91/130 194/90/129
f 191/17/130 192/92/131 194/93/129
f 192/92/131 193/94/132 194/93/129
f 193/94/132 185/86/126 188/95/125
f 194/93/129 188/95/125 186/87/118
f 179/76/117 189/88/127 186/96/118
f 200/97/133 204/98/134 199/99/135
f 205/2/136 204/98/134 200/97/133
f 207/100/137 195/101/138 206/102/139
f 208/103/140 195/101/138 207/100/137
f 209/104/141 198/105/142 208/103/140
f 209/70/141 200/97/133 198/70/142
f 211/106/143 212/107/144 210/108/145
f 213/109/146 204/98/134 211/106/143
f 215/17/147 199/99/135 214/110/148
f 215/111/147 197/112/149 199/113/135
f 195/101/138 196/114/150 218/115/151
f 222/116/152 223/117/153 218/115/151
f 230/118/154 231/119/155 229/2/156
f 203/120/157 202/121/158 231/119/155
f 218/115/151 232/122/159 219/123/160
f 223/117/153 233/124/161 232/122/159
f 223/117/153 226/125/162 233/124/161
f 225/126/163 239/17/164 238/110/165
f 239/127/164 224/128/166 240/129/167
f 240/129/167 222/116/152 241/130/168
f 228/131/169 229/2/156 234/2/170
f 202/121/158 243/3/171 242/132/172
f 202/121/158 201/2/173 243/3/171
f 50/70/183 49/133/35 51/134/184 52/135/185
f 41/4/29 42/3/29 44/6/34
f 47/8/36 48/30/57 46/9/37
f 50/136/183 47/8/36 49/7/35
f 67/110/186 65/17/187 63/17/45 66/15/43
f 53/137/188 55/45/68 54/19/47
f 55/45/68 56/44/40 54/19/47
f 57/10/38 59/46/69 58/11/39
f 61/20/48 63/138/45 64/139/189
f 63/138/45 65/140/187 64/139/189
f 76/2/190 74/141/191 73/142/192 75/2/190
f 66/15/43 68/14/42 67/110/186
f 69/13/41 71/143/193 70/16/44
f 63/138/45 54/19/47 56/44/40
f 63/138/45 61/20/48 54/19/47
f 80/27/52 86/26/54 82/58/194 81/144/195
f 79/23/51 78/22/50 80/24/52
f 74/141/191 85/145/196 84/146/28 73/142/192
f 72/18/46 61/20/48 62/147/197
f 90/3/56 89/29/55 88/2/56 87/2/56
f 92/148/198 94/149/199 93/150/200 91/151/58
f 89/29/55 45/5/33 44/6/34
f 91/31/58 48/30/57 92/152/198
f 99/153/59 96/154/74 95/48/71 72/18/46
f 107/38/65 103/39/63 105/155/201 106/156/202
f 72/18/46 62/147/197 102/35/62
f 103/36/63 102/35/62 104/157/203
f 104/157/203 105/43/201 103/36/63
f 69/13/41 107/38/65 108/158/204 71/143/193
f 107/38/65 106/156/202 108/158/204
f 109/3/205 110/3/205 84/146/28 85/145/196
f 100/33/60 99/32/59 107/38/65
f 103/36/63 99/153/59 72/18/46
f 111/2/206 112/2/206 110/3/205 109/3/205
f 113/68/207 114/69/208 115/25/53 78/159/50
f 52/135/185 51/2/184 118/160/209 119/161/210
f 116/42/67 86/41/54 115/28/53
f 53/137/188 83/49/72 95/48/71
f 69/13/41 58/11/39 100/33/60
f 94/149/199 121/162/211 120/163/212 93/2/200
f 118/160/209 121/162/211 119/161/210
f 118/160/209 120/163/212 121/162/211
f 59/46/69 101/37/64 60/47/70
f 101/37/64 100/33/60 60/47/70
f 53/137/188 54/19/47 83/49/72
f 54/19/47 72/18/46 83/49/72
f 96/154/74 99/153/59 97/164/73
f 138/165/216 157/166/217 136/67/104 137/57/93
f 140/53/88 138/165/216 137/57/93 139/51/86
f 143/167/218 141/168/87 139/169/86 142/170/219
f 137/57/93 136/67/104 147/171/111 148/21/94
f 142/170/219 139/169/86 150/172/220 151/144/221
f 149/23/92 139/51/86 137/57/93
f 149/23/92 150/24/220 139/51/86
f 153/3/97 142/170/219 151/144/221 152/58/95
f 145/56/91 143/167/218 142/170/219 144/54/89
f 159/63/101 136/67/104 157/166/217 158/173/222
f 144/54/89 163/174/223 165/74/113 146/55/90
f 159/63/101 158/173/222 160/61/99
f 161/62/100 160/61/99 162/175/224
f 161/66/100 162/176/224 174/64/102
f 164/2/116 165/74/113 163/174/223
f 169/177/107 168/69/106 159/63/101 161/62/100
f 155/72/98 171/40/109 166/65/103 172/71/110
f 170/42/108 161/66/100 166/65/103
f 166/65/103 174/64/102 164/2/116 163/174/223
f 176/2/225 156/2/226 143/167/218 145/56/91
f 145/56/91 175/3/112 176/2/225
f 146/55/90 165/74/113 177/75/115
f 174/64/102 173/2/227 164/2/116
f 203/120/157 204/98/134 201/2/173 202/121/158
f 180/78/119 186/77/118 187/79/120
f 186/96/118 189/88/127 194/90/129
f 193/94/132 188/95/125 194/93/129
f 195/101/138 197/112/149 196/114/150
f 195/101/138 198/105/142 197/112/149
f 198/105/142 199/113/135 197/112/149
f 198/70/142 200/97/133 199/99/135
f 204/98/134 213/109/146 214/110/148 199/99/135
f 208/103/140 198/105/142 195/101/138
f 211/106/143 204/98/134 212/107/144
f 218/115/151 219/123/160 206/102/139 195/101/138
f 197/112/149 216/178/228 196/114/150
f 216/178/228 217/179/229 196/114/150
f 204/98/134 205/2/136 201/2/173
f 221/180/230 220/181/231 210/108/145 212/107/144
f 226/125/162 223/117/153 224/128/166 225/24/163
f 222/116/152 224/128/166 223/117/153
f 228/131/169 226/182/162 225/126/163 227/183/232
f 236/158/233 220/181/231 221/180/230 235/3/234
f 230/118/154 203/120/157 231/119/155
f 218/115/151 223/117/153 232/122/159
f 237/184/235 236/158/233 235/3/234 227/183/232
f 238/110/165 237/184/235 227/183/232 225/126/163
f 196/114/150 217/179/229 241/130/168 222/116/152
f 225/24/163 224/128/166 239/127/164
f 240/129/167 224/128/166 222/116/152
f 229/2/156 228/131/169 227/183/232 230/118/154
f 218/115/151 196/114/150 222/116/152
f 202/121/158 242/132/172 231/119/155
