# Blender 4.3.2
# www.blender.org
mtllib Parquimetro.mtl
o parko01
v -0.205650 0.000000 0.127000
v -0.205650 -0.000000 -0.165000
v 0.168550 -0.000000 -0.165000
v 0.168550 0.000000 0.127000
v -0.205650 1.500000 0.127000
v 0.168550 1.500000 0.127000
v 0.168550 1.500000 -0.165000
v -0.205650 1.500000 -0.165000
v 0.168550 0.896700 0.127000
v -0.205650 0.896700 0.127000
v 0.168550 0.896700 -0.165000
v -0.151250 0.083600 -0.165000
v -0.205650 0.896700 -0.165000
v -0.149950 0.896700 -0.165000
v 0.126950 0.936000 0.122200
v 0.119850 1.458700 0.122200
v -0.163750 1.458000 0.122200
v -0.165250 0.937700 0.122200
v 0.114950 1.465600 -0.165000
v 0.109650 0.896700 -0.165000
v 0.128350 1.468700 0.139600
v -0.172450 1.468000 0.139600
v 0.135750 0.925900 0.139600
v -0.173950 0.927800 0.139600
v 0.093550 0.097700 -0.147600
v -0.142650 0.093800 -0.147600
v -0.141250 0.896700 -0.147600
v 0.101050 0.896800 -0.147600
v -0.140250 1.456900 -0.147600
v 0.106250 1.455700 -0.147600
v -0.148950 1.467000 -0.165000
v 0.102150 0.087800 -0.165000
vn -0.5774 -0.5774 0.5774
vn -0.5773 -0.5773 -0.5774
vn 0.5773 -0.5773 -0.5774
vn 0.5774 -0.5774 0.5774
vn -0.6454 0.6377 0.4205
vn 0.6442 0.6292 0.4349
vn 0.5773 0.5773 -0.5774
vn -0.5774 0.5774 -0.5773
vn 0.7794 -0.1208 0.6148
vn -0.7784 -0.1219 0.6159
vn 0.7071 -0.0000 -0.7071
vn 0.2242 0.2269 -0.9478
vn -0.7071 -0.0000 -0.7071
vn 0.6154 -0.0012 -0.7882
vn -0.5059 0.5007 0.7024
vn -0.4989 -0.5078 0.7023
vn 0.5031 -0.5036 0.7023
vn 0.5055 0.5012 0.7023
vn -0.2290 -0.2256 -0.9469
vn -0.6154 0.0066 -0.7882
vn -0.0481 0.0798 0.9956
vn -0.0014 0.0600 0.9982
vn 0.0045 -0.0879 0.9961
vn -0.0138 -0.0635 0.9979
vn -0.5043 0.5026 -0.7022
vn 0.5002 0.5064 -0.7024
vn 0.6154 -0.0008 -0.7882
vn 0.5018 -0.5050 -0.7023
vn -0.5072 -0.4995 -0.7023
vn 0.2272 -0.2287 -0.9466
vn -0.2331 0.2322 -0.9443
vt 0.377200 1.208300
vt 0.377200 1.404700
vt 0.281000 1.404700
vt 0.281000 1.208300
vt 0.378300 1.404700
vt 0.282100 1.404700
vt 0.282100 1.208300
vt 0.378300 1.208300
vt 0.211200 0.009700
vt 0.211200 0.604100
vt 0.005900 0.604100
vt 0.005900 0.009700
vt 0.278800 0.958600
vt 0.278800 0.614100
vt 0.385200 0.614100
vt 0.385200 0.958600
vt 0.259200 0.956000
vt 0.230200 0.992200
vt 0.230200 0.604400
vt 0.259900 0.604400
vt 0.387700 0.614800
vt 0.387700 0.959500
vt 0.275400 0.959500
vt 0.275400 0.614800
vt 0.193200 0.623100
vt 0.189200 0.976100
vt 0.024100 0.975600
vt 0.023300 0.624300
vt 0.278800 0.067600
vt 0.385200 0.067600
vt 0.397200 0.048100
vt 0.429600 0.014500
vt 0.429600 0.604400
vt 0.394400 0.604400
vt 0.275400 0.068000
vt 0.387700 0.068000
vt 0.211200 0.996500
vt 0.005900 0.996500
vt 0.390400 0.954200
vt 0.260400 0.046800
vt 0.230200 0.014500
vt 0.429600 0.992200
s 1
usemtl Material__25
f 1/1/1 2/2/2 3/3/3 4/4/4
f 5/5/5 6/6/6 7/7/7 8/8/8
f 4/9/4 9/10/9 10/11/10 1/12/1
f 3/13/3 11/14/11 9/15/9 4/16/4
f 12/17/12 2/18/2 13/19/13 14/20/14
f 13/21/13 2/22/2 1/23/1 10/24/10
f 15/25/15 16/26/16 17/27/17 18/28/18
f 9/15/9 11/14/11 7/29/7 6/30/6
f 19/31/19 7/32/7 11/33/11 20/34/20
f 13/21/13 10/24/10 5/35/5 8/36/8
f 21/26/21 6/37/6 5/38/5 22/27/22
f 6/37/6 21/26/21 23/25/23 9/10/9
f 24/28/24 10/11/10 9/10/9 23/25/23
f 5/38/5 10/11/10 24/28/24 22/27/22
f 22/27/22 24/28/24 18/28/18 17/27/17
f 24/28/24 23/25/23 15/25/15 18/28/18
f 23/25/23 21/26/21 16/26/16 15/25/15
f 21/26/21 22/27/22 17/27/17 16/26/16
f 25/39/25 26/17/26 27/20/27 28/34/20
f 27/20/27 29/40/28 30/31/29 28/34/20
f 7/32/7 19/31/19 31/40/30 8/41/8
f 31/40/30 14/20/14 13/19/13 8/41/8
f 32/39/31 3/42/3 2/18/2 12/17/12
f 11/33/11 3/42/3 32/39/31 20/34/20
f 31/40/30 19/31/19 30/31/29 29/40/28
f 19/31/19 20/34/20 28/34/20 30/31/29
f 20/34/20 32/39/31 25/39/25 28/34/20
f 32/39/31 12/17/12 26/17/26 25/39/25
f 12/17/12 14/20/14 27/20/27 26/17/26
f 14/20/14 31/40/30 29/40/28 27/20/27
