# Blender 4.3.2
# www.blender.org
mtllib pulqueletras_optim.mtl
o pulqueletras
v 0.150542 0.599590 1.827414
v 0.212507 0.625955 1.920832
v 0.204668 0.565260 1.768583
v 0.223028 0.575279 1.934039
v 0.121457 0.398249 1.752627
v 0.136669 0.428315 2.053729
v 0.156225 0.382020 2.314900
v 0.236693 0.576272 2.252807
v 0.230592 0.370607 2.283821
v 0.219407 0.310929 2.265630
v 0.225303 0.174405 2.281219
v 0.235266 0.333338 1.855018
v 0.228554 0.108583 2.251832
v 0.142355 0.180179 1.925627
v 0.143183 0.130064 2.074881
v 0.136367 0.190569 1.787594
v 0.163990 0.286195 1.834930
v 0.133210 0.125055 1.721600
v 0.150292 0.185565 2.256140
v 0.134282 0.401468 1.934992
v 0.132083 0.515758 2.177311
v 0.133391 0.298441 2.189559
v 0.143278 0.646931 2.295725
v 0.146510 0.601030 2.190870
v 0.145310 0.526055 2.264270
v 0.159635 0.561835 1.977360
v 0.163520 0.559680 1.891235
v 0.152250 0.543095 1.733840
v 0.135325 0.517440 1.793460
v 0.152475 -0.597360 2.238340
v 0.233200 -0.598418 2.295629
v 0.226915 -0.024616 1.947940
v 0.227427 -0.112132 2.288978
v 0.213302 -0.080814 2.234982
v 0.233504 0.004034 1.771752
v 0.153290 0.077800 2.288850
v 0.155410 -0.025480 1.818800
v 0.138310 0.041351 1.869018
v 0.143715 -0.049885 2.009750
v 0.137394 -0.097682 1.928379
v 0.135140 0.086005 2.217725
v 0.133395 -0.173905 2.233080
v 0.144983 -0.554375 2.348994
v 0.153660 -0.664665 2.322655
v 0.146135 -0.765831 2.472554
v -0.228250 0.185188 2.078998
v -0.224262 0.377220 1.764830
v -0.237162 0.429499 2.074196
v -0.244640 0.754109 2.481272
v 0.148094 0.758440 2.471134
v 0.140315 0.625225 1.665652
v 0.138288 0.734120 1.828851
v 0.131679 0.253970 1.708757
v 0.155505 0.382220 2.219000
v 0.148445 0.290585 2.278245
v 0.133223 0.480202 2.372777
v 0.192241 0.330374 1.915694
v 0.142344 0.357999 1.785018
v 0.142945 0.100725 1.989981
v 0.154745 0.012045 1.712350
v 0.138744 -0.043508 2.304686
v 0.126865 0.649328 2.014745
v 0.137031 -0.705585 2.042029
v 0.143669 -0.190325 2.048417
v 0.133059 -0.055473 2.210272
v 0.134431 -0.776521 2.364957
v -0.239419 -0.539453 2.077207
v -0.243402 -0.201572 2.080271
v -0.236486 -0.722325 2.491663
v -0.240195 -0.701123 2.028513
v -0.239457 0.155213 1.782455
v -0.242841 0.100459 2.030919
v -0.248472 0.746357 1.918824
v -0.233326 0.270606 1.713059
v -0.243191 0.640201 2.439452
v 0.145622 0.624899 2.427021
v 0.144239 -0.532541 2.427755
v -0.232982 -0.788743 2.440214
v -0.241468 -0.590672 2.434808
v 0.135392 -0.552760 2.079773
v -0.238084 -0.066821 1.680075
v -0.245696 0.218012 1.582974
v -0.247934 0.591486 1.629070
v 0.144226 0.424458 1.589964
v 0.145911 -0.127951 1.769385
v 0.144944 0.029270 1.620282
v -0.234463 0.131327 1.946146
v -0.235423 0.381801 1.922683
v 0.132519 0.749876 1.579705
v 0.146139 0.606123 1.529395
v 0.218110 0.110152 1.486517
v 0.160264 0.138073 1.519385
v 0.160000 0.279504 1.460364
v 0.150945 0.383345 1.476835
v 0.143407 0.625886 0.972625
v 0.146325 0.506950 1.456463
v 0.142916 0.749190 0.804072
v 0.143319 0.358236 0.998017
v 0.140285 0.391998 1.400978
v 0.134620 0.151745 1.448590
v 0.154110 0.148434 0.983333
v 0.148085 0.257975 0.976515
v 0.149412 0.248301 0.860457
v 0.228791 0.104657 0.952056
v 0.228493 0.331209 1.441792
v 0.205720 0.344706 0.991232
v 0.171269 0.623062 0.953309
v 0.235726 0.614579 1.448883
v 0.155537 0.667084 1.440903
v 0.140613 0.749037 1.129912
v 0.178908 -0.392557 1.016693
v 0.220405 -0.456682 1.160577
v 0.164623 -0.407691 1.342626
v 0.190025 -0.250330 1.373040
v 0.180220 -0.245320 1.426125
v 0.185540 -0.233285 1.404935
v 0.198132 -0.090238 1.435631
v 0.205337 0.046052 1.458230
v 0.202781 -0.084602 0.980206
v 0.146840 -0.087302 0.916156
v 0.152837 0.062264 0.913245
v 0.141645 -0.028940 0.971600
v 0.156794 -0.133576 0.983434
v 0.137822 0.003259 1.440392
v 0.149268 -0.108726 1.395495
v 0.137843 -0.126590 1.495949
v 0.157975 -0.239920 1.431690
v 0.145533 -0.219323 1.376708
v 0.141758 -0.338071 1.217024
v 0.140792 -0.458791 1.240548
v 0.129329 -0.412383 0.974613
v 0.159940 -0.427780 1.150975
v 0.137757 -0.511417 1.108491
v -0.234445 0.744268 0.799051
v -0.231564 0.751945 1.576077
v 0.152580 0.765784 1.092242
v 0.144520 0.025040 1.501760
v 0.153388 -0.303057 1.152755
v 0.135559 -0.249238 1.051826
v -0.233302 0.758279 1.276250
v -0.235113 0.761121 1.120358
v -0.246237 0.714739 1.541961
v 0.141430 0.754528 1.281000
v -0.239425 0.608277 1.325646
v 0.148813 -0.223005 1.553382
v 0.135304 -0.449171 1.462461
v 0.146005 -0.606055 1.210391
v 0.153646 -0.504319 0.957439
v 0.148413 -0.309078 0.846787
v -0.249620 0.676559 0.836587
v -0.230650 -0.491651 0.933665
v -0.243244 -0.589680 1.117268
v -0.242873 -0.280745 0.839355
v 0.139339 0.486972 1.086951
v -0.242391 -0.285075 1.136161
v -0.242114 -0.557034 1.332457
v -0.245175 -0.417529 1.488566
v -0.242413 -0.196933 1.562022
v -0.240950 -0.288318 1.276437
v 0.141231 -0.213451 1.301905
v 0.145012 0.574192 1.329764
v 0.144586 0.607588 0.650578
v 0.134612 0.706471 0.576691
v 0.145245 0.374126 0.499236
v 0.136218 0.179499 0.549305
v 0.139425 0.237798 0.474427
v 0.227128 0.297422 0.526989
v 0.205466 0.566998 0.538962
v 0.137153 0.741427 0.381555
v 0.135032 -0.456812 0.246103
v 0.196623 -0.375715 0.149959
v 0.130355 -0.556754 0.068625
v 0.155430 -0.390357 0.405504
v 0.182375 -0.392710 0.453512
v 0.181160 0.080895 0.487200
v 0.170171 -0.069075 0.499520
v 0.139143 -0.211516 0.393673
v 0.125252 -0.196747 0.096388
v 0.158235 0.053320 0.492130
v 0.141805 -0.044037 0.622636
v 0.141814 -0.529223 0.673620
v 0.132455 -0.313870 0.256460
v 0.142433 -0.443941 0.497256
v -0.232506 -0.199095 0.106617
v -0.234129 -0.542152 0.675296
v -0.230236 0.743519 0.375388
v 0.135156 0.533953 0.562155
v 0.129807 0.748116 0.693128
v 0.142289 0.561426 0.427043
v 0.169935 0.127130 0.518525
v 0.147213 -0.514189 0.088855
v 0.147473 -0.290971 0.121676
v 0.132507 -0.135347 0.518455
v 0.147400 -0.209921 0.160262
v 0.094386 -0.559477 0.647092
v -0.238159 -0.217845 0.394114
v -0.239872 -0.560560 0.080103
v -0.238504 0.584872 0.427326
v -0.241767 -0.379166 0.641392
v -0.234478 0.745707 0.683037
v 0.146537 0.301455 -0.066520
v 0.232697 0.132655 -0.066069
v 0.229198 0.601540 -0.201829
v 0.181540 0.587629 -0.393103
v 0.166211 0.589627 -0.148669
v 0.133173 0.711721 -0.201814
v 0.148997 0.601899 -0.378272
v 0.134570 0.311495 -0.541380
v 0.138335 0.180582 -0.124583
v 0.135395 0.433055 -0.184175
v 0.141230 0.180517 -0.591669
v 0.140322 0.250553 -0.646787
v 0.150843 0.401092 -0.588982
v 0.221526 0.351103 -0.093618
v 0.207216 0.377595 -0.604839
v 0.211954 0.145068 -0.603957
v 0.141288 -0.072305 -0.480549
v 0.235560 -0.094657 -0.618003
v 0.217916 0.091689 -0.603597
v 0.153068 -0.060830 -0.633748
v 0.184144 -0.158528 -0.526434
v 0.161868 -0.302992 -0.150689
v 0.152566 0.073008 -0.564739
v 0.144625 -0.152697 -0.385617
v 0.135862 -0.269057 -0.435345
v 0.162129 -0.259683 -0.588583
v 0.139157 -0.173995 -0.623551
v 0.155734 -0.175295 -0.487797
v 0.140609 0.070693 -0.651573
v 0.136556 -0.494553 -0.810264
v 0.120541 -0.552363 -0.646673
v 0.137458 -0.459092 -0.315509
v 0.145916 -0.379650 -0.677543
v 0.140199 -0.426460 -0.464554
v 0.148893 -0.313844 -0.336821
v 0.188629 -0.288410 -0.572580
v 0.193006 -0.371399 -0.261218
v 0.147804 -0.467445 -0.697265
v 0.143347 0.012250 -0.083679
v 0.218638 -0.114098 -0.042251
v 0.134542 -0.065150 0.019842
v 0.154646 0.164742 0.025499
v 0.141165 -0.126040 -0.103665
v 0.136627 -0.178555 -0.045432
v -0.241595 -0.538482 -0.465320
v -0.238790 -0.358143 -0.670596
v 0.140616 0.433382 -0.093318
v 0.134985 0.540431 -0.275979
v 0.147694 0.472210 -0.394166
v 0.141891 0.547861 -0.017643
v 0.150276 0.717277 -0.451468
v 0.151305 0.467463 -0.296306
v 0.145037 0.350135 -0.213169
v 0.151085 0.332100 -0.474144
v 0.150951 0.053023 -0.166329
v 0.141481 -0.024957 -0.758498
v 0.155530 0.081485 -0.066580
v 0.233194 -0.457055 -0.637810
v 0.152005 -0.696929 -0.648222
v 0.142070 -0.229607 -0.213872
v -0.234938 -0.554733 -0.290883
v -0.231202 -0.497605 -0.804581
v -0.222676 -0.714025 -0.658711
v -0.239731 -0.249951 -0.427872
v -0.237331 -0.294376 -0.365304
v -0.231031 -0.128183 -0.389540
v -0.241502 -0.082704 -0.481763
v -0.243353 -0.023212 -0.762254
v -0.245416 -0.468348 -0.105408
v -0.237850 -0.233393 -0.213849
v -0.246656 -0.191559 0.064485
v -0.232622 0.162858 0.102697
v -0.241007 0.498157 0.011769
v -0.244655 0.713834 -0.186048
v -0.238189 0.729818 -0.401961
v 0.144127 0.401609 -0.705804
v -0.245979 0.543588 -0.618735
v -0.238695 0.173721 -0.177055
v -0.240001 0.310878 -0.481531
v 0.149208 -0.533921 -0.491170
v 0.145020 -0.552971 -0.284694
v 0.155070 -0.458260 -0.107502
v 0.143707 -0.226072 0.056412
v 0.149218 0.257209 0.097752
v -0.242212 0.267740 -0.742359
v -0.242153 0.442555 -0.265660
v -0.242854 0.475577 -0.378384
v 0.228547 0.634402 -1.033353
v 0.137815 0.567420 -1.068360
v 0.131785 0.544435 -0.996193
v 0.143866 0.679902 -1.036161
v 0.152130 0.639385 -1.513260
v 0.142686 0.533441 -1.566794
v 0.235344 0.604720 -1.529475
v 0.156988 0.644453 -1.595861
v 0.234983 0.615543 -1.577229
v 0.217111 0.370915 -1.507106
v 0.144849 0.389531 -1.500656
v 0.137622 0.243610 -1.494611
v 0.159173 0.160489 -1.070744
v 0.159740 0.138855 -0.998500
v 0.142306 0.270084 -0.969897
v 0.165945 0.394910 -1.010870
v 0.136609 0.294893 -1.074299
v 0.252937 0.342841 -1.011003
v 0.238728 0.096723 -1.028982
v 0.201050 -0.098077 -1.002947
v 0.156465 -0.267950 -1.082395
v 0.166827 -0.302784 -1.070092
v 0.142918 0.031434 -1.073243
v 0.141230 -0.152244 -1.027329
v 0.140558 0.019783 -0.978203
v 0.134333 -0.018311 -1.521426
v 0.134740 -0.210835 -1.522125
v 0.135135 -0.163545 -1.476090
v 0.220683 -0.120932 -1.518790
v 0.207733 -0.306019 -1.466225
v 0.141734 -0.400949 -1.464730
v 0.153209 -0.487888 -1.359276
v 0.132670 -0.345615 -1.372165
v 0.144290 -0.558945 -1.162402
v -0.239066 0.736137 -1.680311
v -0.236464 0.749527 -1.171795
v 0.137556 0.632031 -0.958679
v 0.156729 0.765187 -1.134792
v 0.131911 0.734546 -1.196281
v 0.141025 0.758762 -0.881887
v 0.136021 0.737390 -0.841818
v 0.138773 0.743403 -1.364973
v 0.142532 0.719646 -1.680294
v 0.152442 -0.233475 -0.894304
v 0.140675 -0.408307 -0.987139
v 0.154038 -0.256458 -1.474374
v 0.147005 -0.312778 -1.266076
v -0.232319 0.756166 -0.848166
v -0.241657 0.671278 -0.859522
v 0.148842 -0.571221 -1.372019
v 0.145091 -0.406084 -1.587842
v 0.137756 0.256385 -1.647844
v -0.239944 0.740299 -1.361686
v -0.242994 0.628409 -1.395758
v 0.151394 0.614433 -1.400849
v -0.240209 -0.242317 -1.382597
v 0.148185 -0.201433 -1.400688
v 0.138359 -0.221311 -1.164100
v 0.143032 0.560076 -1.143796
v -0.235191 -0.242289 -1.164964
v -0.241348 -0.306807 -1.275909
v -0.239458 -0.564290 -1.385653
v -0.245358 -0.358876 -1.611912
v -0.242842 -0.557609 -1.160587
v -0.233211 -0.435247 -0.998453
v -0.243149 -0.237877 -0.894700
v 0.137536 0.470929 -2.109092
v 0.143212 0.725432 -1.778743
v 0.131170 0.763131 -2.383312
v 0.142260 0.789970 -2.470603
v 0.131288 0.408300 -2.021275
v 0.142883 0.301707 -2.479302
v 0.140078 0.278897 -2.059755
v 0.238012 0.342717 -1.913803
v 0.224687 0.115049 -1.948289
v 0.145984 0.151969 -2.125102
v 0.228346 0.135353 -2.395147
v 0.228100 0.072482 -2.390663
v 0.152205 0.148200 -2.421655
v 0.150268 0.077460 -2.341761
v 0.156315 0.297395 -1.975000
v 0.145055 0.426594 -2.462870
v 0.130380 0.157320 -2.333605
v 0.138930 0.402925 -1.915745
v 0.156810 0.301575 -1.893805
v 0.147337 0.126653 -1.897751
v 0.145550 0.035135 -1.958584
v 0.138140 -0.136090 -1.939510
v 0.130316 -0.082299 -2.482957
v 0.140646 -0.256501 -2.471200
v 0.146282 -0.088823 -2.038930
v 0.147891 -0.085459 -2.397051
v 0.132549 0.025439 -2.105506
v 0.149855 0.064100 -2.425640
v 0.218366 -0.062120 -1.939325
v 0.183141 -0.438215 -2.201800
v 0.151047 -0.341744 -1.958112
v 0.183176 -0.429959 -2.320622
v 0.170654 -0.374076 -2.391354
v 0.171390 -0.448774 -1.935925
v 0.145002 -0.546718 -1.791054
v 0.158117 -0.444522 -2.403888
v 0.162885 -0.385570 -2.318675
v 0.132908 -0.457565 -2.073788
v -0.235998 -0.095391 -2.469563
v -0.229754 0.450684 -2.059612
v -0.223974 0.308772 -2.462788
v -0.242144 0.738321 -1.797004
v 0.162742 0.142654 -1.977168
v 0.143085 0.567555 -1.828776
v 0.141651 -0.275659 -2.051812
v 0.135990 -0.291946 -2.110079
v 0.140674 -0.277114 -2.360841
v 0.143778 -0.576985 -2.453733
v 0.133989 -0.537085 -2.494111
v 0.134965 -0.487020 -2.209700
v -0.240546 -0.582266 -2.473316
v -0.243116 -0.376566 -1.823492
v -0.234393 -0.551534 -1.786746
v -0.233303 -0.252873 -2.474108
v -0.241073 -0.068016 -2.058916
v -0.249136 0.511108 -2.301813
v -0.230659 0.426800 -2.458365
v 0.143642 0.286532 -2.348088
v -0.210517 0.656086 -1.791234
v 0.143111 -0.390511 -1.820009
v -0.249089 0.131905 -1.844156
v -0.237024 0.778166 -2.482594
v -0.235139 -0.555392 -2.189385
v -0.240822 -0.270727 -2.051150
v -0.219880 -0.279214 -2.359708
v -0.218278 -0.068182 -2.371243
v -0.248500 0.205646 -2.464310
v -0.240537 0.263074 -2.267689
v -0.238199 0.277632 -2.064631
v 0.150043 0.473178 -2.372018
vn 0.9648 0.1501 -0.2161
vn 0.6475 0.1343 -0.7501
vn 0.8746 -0.3449 -0.3407
vn 0.5835 0.4882 0.6490
vn 0.9997 0.0148 -0.0205
vn 0.9914 0.1135 0.0648
vn 0.9795 -0.0925 -0.1789
vn 0.8196 0.1387 0.5559
vn 0.6244 0.4954 -0.6039
vn 0.9545 -0.1306 0.2681
vn 0.8088 0.5663 0.1585
vn 0.9608 0.1450 -0.2362
vn 0.8883 0.2647 -0.3753
vn 0.9933 0.1099 -0.0346
vn 0.9543 -0.1562 -0.2547
vn 0.7190 0.0993 -0.6879
vn 0.9783 -0.0713 -0.1947
vn -0.6805 0.7141 -0.1643
vn -0.7922 0.0374 0.6092
vn -0.8221 -0.4232 0.3808
vn 0.7379 0.0800 0.6702
vn 0.9829 0.1087 0.1486
vn -0.5936 -0.7602 0.2641
vn 0.6321 -0.7716 -0.0705
vn 0.6225 -0.4863 0.6131
vn -0.7355 0.0911 -0.6714
vn -0.5743 -0.4136 -0.7065
vn 0.5646 -0.4427 -0.6966
vn -0.8756 -0.2866 -0.3888
vn -0.6881 -0.0624 -0.7229
vn -0.9867 0.1621 -0.0108
vn -0.6442 0.4207 -0.6387
vn 0.7024 0.1030 -0.7043
vn 0.0343 0.1185 -0.9924
vn -0.8954 0.4450 -0.0147
vn -0.9316 -0.2927 -0.2155
vn -0.7419 -0.1235 0.6590
vn -0.5592 0.4690 0.6837
vn -0.7689 0.1192 0.6282
vn -0.6158 -0.1162 0.7793
vn 0.7869 0.0982 0.6093
vn -0.6958 0.5826 0.4200
vn 0.9752 0.1980 0.0987
vn 0.9297 0.1429 0.3394
vn 0.9740 -0.1423 -0.1765
vn 0.9949 -0.0880 -0.0485
vn 0.7269 -0.0912 -0.6806
vn 0.9770 0.2080 -0.0462
vn 0.8621 0.2099 0.4611
vn 0.5291 0.5446 -0.6507
vn 0.9636 0.0780 0.2555
vn 0.3227 0.7859 0.5274
vn -0.8311 -0.0239 0.5555
vn -0.4726 0.3678 0.8008
vn -0.5336 0.5031 -0.6798
vn 0.4916 0.4872 0.7218
vn 0.5443 0.5134 -0.6634
vn -0.7368 -0.0801 -0.6714
vn -0.5538 0.5894 0.5882
vn -0.4993 0.4279 -0.7534
vn 0.7073 -0.0245 -0.7065
vn 0.6986 -0.1917 -0.6893
vn -0.6586 -0.1504 -0.7373
vn 0.4847 0.3664 0.7943
vn 0.6942 0.6949 0.1876
vn 0.3500 -0.0370 0.9360
vn -0.8923 0.3136 0.3249
vn -0.6536 -0.7419 -0.1497
vn -0.6561 -0.6762 0.3350
vn -0.6734 -0.4029 0.6198
vn -0.6659 -0.1047 0.7386
vn 0.7498 0.1899 -0.6338
vn -0.7950 -0.0676 -0.6028
vn 0.5700 -0.0426 0.8205
vn 0.8464 0.3499 0.4014
vn 0.9457 0.0557 0.3203
vn 0.8751 0.1824 -0.4482
vn 0.7435 0.4700 -0.4757
vn 0.9971 0.0395 -0.0653
vn 0.9972 0.0216 0.0716
vn 0.9563 -0.2920 0.0129
vn 0.9754 -0.1750 0.1340
vn 0.9923 -0.1070 0.0626
vn 0.8611 0.3577 -0.3614
vn 0.9933 -0.1139 0.0173
vn 0.5703 0.5045 -0.6483
vn 0.9878 0.1543 0.0184
vn 0.6911 -0.0768 -0.7186
vn 0.5223 0.5164 0.6786
vn 0.6728 -0.0506 0.7381
vn 0.6488 -0.4041 0.6448
vn -0.5708 -0.5088 0.6444
vn 0.2022 -0.9276 0.3142
vn -0.5820 -0.5697 -0.5802
vn 0.4992 -0.5580 -0.6629
vn -0.5620 0.5638 0.6052
vn -0.7648 0.0259 0.6438
vn -0.5677 0.6224 -0.5389
vn 0.7640 0.6452 -0.0032
vn 0.4190 0.6924 -0.5874
vn -0.7587 -0.0755 -0.6471
vn -0.5462 0.4955 -0.6754
vn -0.9080 0.3064 -0.2859
vn 0.8619 -0.0670 0.5026
vn 0.9675 -0.1500 0.2033
vn 0.9826 0.1721 -0.0697
vn 0.9933 -0.1038 -0.0508
vn 0.9958 -0.0239 0.0889
vn 0.6523 -0.7565 -0.0469
vn 0.9859 -0.0875 0.1424
vn 0.7304 0.4602 -0.5047
vn 0.9601 -0.0997 -0.2612
vn -0.8075 -0.5661 0.1658
vn -0.8149 0.5758 0.0658
vn -0.8563 0.1520 0.4936
vn -0.6047 0.0517 0.7948
vn 0.6603 0.1256 0.7404
vn -0.6547 0.3634 0.6629
vn 0.6310 0.4162 0.6547
vn 0.5288 0.8101 0.2532
vn -0.6351 0.6990 0.3287
vn -0.6718 -0.2297 0.7042
vn 0.5831 0.1688 0.7947
vn -0.5377 0.3278 0.7768
vn 0.7284 0.3375 0.5962
vn -0.8487 0.2636 0.4584
vn -0.6748 -0.0669 -0.7350
vn 0.7050 0.3081 -0.6388
vn -0.8334 0.1036 -0.5429
vn 0.5788 0.0613 -0.8132
vn -0.5279 -0.8431 -0.1027
vn -0.6526 0.1660 -0.7393
vn -0.6754 0.4413 -0.5909
vn 0.6405 0.2926 -0.7101
vn -0.6068 0.7599 -0.2329
vn -0.8577 -0.4801 0.1837
vn -0.8154 -0.4252 -0.3929
vn -0.7634 -0.1770 0.6212
vn 0.9909 0.1335 0.0168
vn 0.9354 0.3448 0.0781
vn 0.8078 0.5648 -0.1686
vn 0.5495 0.5227 0.6518
vn 0.9864 -0.1618 -0.0300
vn 0.9406 0.0963 0.3257
vn 0.9917 -0.0829 0.0984
vn 0.7081 -0.2013 0.6768
vn 0.9880 -0.0501 0.1460
vn 0.9943 -0.0437 0.0972
vn 0.9622 -0.1231 -0.2428
vn 0.8593 -0.4137 0.3008
vn 0.9918 -0.1276 0.0117
vn 0.8213 0.2939 0.4891
vn 0.9989 0.0372 -0.0289
vn 0.6475 -0.3711 -0.6656
vn 0.9974 -0.0496 -0.0530
vn 0.5530 0.3776 0.7427
vn -0.7405 -0.0223 0.6717
vn -0.7442 -0.0866 0.6623
vn -0.8290 0.2983 0.4730
vn 0.9073 0.1047 0.4073
vn -0.5641 0.5606 -0.6062
vn -0.5554 0.4980 0.6660
vn 0.5695 0.5256 -0.6319
vn 0.7047 -0.0867 -0.7042
vn 0.7353 0.3200 -0.5975
vn -0.5796 0.5542 -0.5973
vn -0.6221 -0.7367 -0.2649
vn -0.6442 -0.7167 0.2671
vn -0.6373 -0.3193 -0.7014
vn 0.6663 -0.0871 -0.7406
vn 0.8920 0.4502 -0.0403
vn -0.8493 0.5278 0.0128
vn -0.5443 0.5664 0.6188
vn 0.7056 0.6758 -0.2133
vn -0.6681 -0.1918 0.7189
vn -0.5691 -0.5379 0.6219
vn 0.6399 -0.4873 0.5942
vn 0.6293 -0.7422 -0.2306
vn 0.6345 -0.7116 0.3017
vn 0.7703 -0.0919 0.6310
vn 0.9395 0.3424 0.0130
vn 0.7998 -0.0406 -0.5989
vn 0.9160 0.2546 -0.3101
vn 0.7223 0.6872 0.0781
vn 0.9696 0.1604 0.1845
vn 0.9896 -0.1337 0.0538
vn 0.6720 0.1225 0.7303
vn 0.9964 0.0760 -0.0370
vn 0.9596 -0.2573 0.1137
vn 0.9963 -0.0853 0.0036
vn 0.9810 0.1917 -0.0314
vn 0.5612 -0.7091 -0.4270
vn -0.5535 0.5893 -0.5885
vn 0.5912 0.6634 -0.4587
vn -0.9683 0.0084 0.2495
vn -0.7384 0.0477 0.6727
vn -0.1526 -0.0449 0.9873
vn -0.5930 0.5729 0.5658
vn 0.7038 0.6937 0.1532
vn 0.5831 0.4601 0.6696
vn -0.9951 -0.0979 -0.0134
vn -0.8833 -0.3255 -0.3374
vn -0.5240 -0.6565 -0.5426
vn -0.5482 -0.5313 0.6459
vn 0.5472 -0.5319 0.6462
vn 0.9967 0.0109 -0.0804
vn 0.7585 -0.4301 -0.4897
vn 0.8567 -0.4985 -0.1329
vn 0.3443 -0.9328 0.1061
vn 0.5512 0.6154 -0.5635
vn 0.5375 -0.5679 -0.6233
vn -0.5644 -0.6516 -0.5067
vn -0.8916 -0.3319 -0.3080
vn -0.8930 0.3006 -0.3349
vn -0.7136 0.6999 0.0313
vn -0.4870 0.7030 -0.5183
vn 0.7852 -0.5967 -0.1657
vn -0.5568 0.6522 -0.5144
vn -0.5856 -0.6093 -0.5346
vn -0.6810 -0.7305 0.0517
vn 0.7049 0.7086 -0.0333
vn 0.9995 -0.0260 0.0197
vn 0.9905 -0.0097 0.1373
vn 0.9204 0.2369 -0.3109
vn 0.9914 0.1090 -0.0727
vn 0.7966 0.5953 -0.1054
vn 0.8915 -0.3740 -0.2556
vn 0.9285 -0.3508 0.1216
vn 0.8978 -0.1404 0.4175
vn 0.8311 -0.2298 0.5065
vn 0.9067 -0.3251 0.2688
vn 0.9470 -0.3129 0.0721
vn 0.9851 0.1718 -0.0015
vn 0.9749 -0.0628 -0.2138
vn 0.9192 -0.3495 -0.1811
vn 0.9918 0.0709 0.1065
vn 0.6279 0.7446 -0.2267
vn 0.9875 0.1225 0.0991
vn 0.9703 0.1258 -0.2068
vn 0.9557 -0.2121 0.2043
vn 0.9944 0.0861 -0.0610
vn 0.8727 -0.3526 -0.3378
vn 0.9864 -0.1636 -0.0154
vn 0.9859 -0.1589 -0.0532
vn 0.9606 0.1400 0.2401
vn 0.6533 -0.2851 -0.7014
vn -0.6206 -0.5558 -0.5531
vn 0.6712 -0.6545 -0.3480
vn -0.8492 -0.2933 0.4391
vn 0.9796 -0.1648 -0.1147
vn 0.7375 -0.0738 0.6713
vn 0.9902 -0.0130 -0.1393
vn 0.8884 -0.3773 -0.2617
vn 0.9630 0.1921 0.1893
vn 0.9872 0.0757 -0.1405
vn 0.9887 0.1251 0.0828
vn 0.9678 0.1205 -0.2211
vn 0.9964 -0.0808 -0.0240
vn 0.9788 -0.0664 -0.1939
vn 0.9833 -0.1468 0.1073
vn 0.9705 0.1033 0.2177
vn 0.8175 0.4703 0.3325
vn 0.9319 0.2557 -0.2573
vn 0.9937 -0.0983 -0.0534
vn 0.7323 -0.1368 0.6671
vn 0.9612 -0.2758 0.0033
vn 0.5902 -0.5168 0.6201
vn 0.9812 -0.1930 -0.0025
vn 0.9401 -0.0543 -0.3366
vn 0.7402 -0.4950 -0.4551
vn -0.5692 -0.5610 -0.6011
vn 0.9803 0.0866 0.1775
vn 0.7272 -0.6001 0.3333
vn -0.8887 0.3383 -0.3095
vn 0.8855 0.4587 -0.0741
vn 0.6490 -0.7579 0.0667
vn 0.9580 -0.2849 -0.0327
vn 0.9615 -0.1205 -0.2469
vn 0.9984 0.0500 0.0252
vn 0.9469 0.2222 0.2323
vn -0.5830 0.3539 -0.7313
vn 0.9889 0.0823 -0.1240
vn 0.9943 -0.0148 0.1057
vn 0.8181 -0.0893 -0.5681
vn 0.9984 -0.0281 0.0481
vn 0.9462 0.1586 -0.2821
vn 0.9300 -0.3583 0.0821
vn 0.9975 -0.0679 -0.0185
vn 0.9994 -0.0307 -0.0178
vn 0.9482 0.0020 0.3176
vn 0.9568 0.0410 -0.2878
vn 0.7893 0.0272 -0.6134
vn 0.6638 -0.2565 -0.7026
vn 0.7894 -0.2755 0.5486
vn 0.6569 -0.0295 -0.7534
vn 0.9200 0.3116 -0.2377
vn 0.9733 -0.2294 0.0002
vn 0.9799 0.1588 -0.1211
vn 0.9030 -0.3610 0.2328
vn 0.9749 -0.0534 -0.2164
vn 0.9645 -0.2585 0.0530
vn 0.9981 -0.0470 -0.0393
vn 0.7987 0.5521 -0.2396
vn 0.9678 0.2383 -0.0812
vn 0.9913 -0.0521 -0.1205
vn 0.9753 -0.2000 0.0934
vn 0.9910 -0.1145 0.0697
vn 0.9888 0.0464 0.1420
vn 0.9593 -0.0295 0.2807
vn 0.9503 -0.2866 -0.1217
vn 0.9365 -0.3000 -0.1814
vn 0.6647 -0.2343 0.7094
vn -0.5854 0.0554 -0.8088
vn 0.6357 0.7068 -0.3104
vn -0.6571 -0.5698 0.4936
vn -0.7250 -0.0820 -0.6839
vn -0.8248 0.3336 -0.4565
vn 0.8954 -0.1853 -0.4047
vn 0.8665 -0.4669 0.1765
vn 0.6669 -0.7332 0.1330
vn 0.9794 0.1688 0.1111
vn 0.9965 -0.0343 0.0759
vn 0.7175 -0.5200 0.4634
vn 0.8894 -0.4001 -0.2212
vn 0.7539 -0.5705 0.3259
vn 0.9838 -0.1741 -0.0437
vn 0.9922 0.0145 0.1236
vn 0.9853 0.1698 -0.0197
vn 0.6707 0.7109 0.2117
vn 0.9324 -0.0528 0.3576
vn 0.9837 0.1632 0.0759
vn 0.9841 -0.1682 0.0569
vn 0.9193 0.3927 0.0274
vn 0.9472 0.1696 -0.2721
vn 0.9638 0.1085 -0.2436
vn 0.9958 -0.0664 0.0628
vn 0.9981 -0.0581 -0.0209
vn 0.9990 0.0092 -0.0431
vn 0.9981 -0.0134 0.0594
vn 0.9737 0.1844 -0.1338
vn -0.8104 0.3465 -0.4724
vn 0.4216 0.3076 -0.8530
vn 0.8441 0.4835 0.2319
vn 0.8123 -0.5716 0.1156
vn 0.9589 -0.0100 0.2837
vn 0.9683 0.0297 0.2481
vn 0.9952 0.0955 -0.0189
vn 0.9785 0.1405 -0.1512
vn 0.8636 -0.0938 0.4953
vn 0.9963 0.0262 0.0821
vn 0.6027 0.7905 0.1090
vn 0.9881 -0.1301 -0.0825
vn 0.9813 0.1178 -0.1522
vn 0.9562 -0.0160 -0.2922
vn 0.5675 -0.2751 -0.7761
vn -0.8862 0.3282 -0.3270
vn 0.4269 0.8997 0.0913
vn 0.5279 0.6719 -0.5195
vn 0.8485 0.2988 -0.4368
vn -0.7388 0.0668 -0.6706
vn 0.8337 0.4123 -0.3674
vn 0.9542 -0.2971 0.0350
vn 0.9327 -0.1882 0.3078
vn 0.9990 -0.0150 -0.0410
vn 0.9646 0.1776 -0.1950
vn 0.7411 -0.0248 0.6710
vn 0.8895 0.3800 0.2537
vn 0.8635 0.1876 -0.4681
vn 0.9434 -0.2506 0.2170
vn 0.9960 -0.0721 -0.0527
vn 0.9361 -0.1935 0.2938
vn 0.9893 0.1449 -0.0182
vn 0.8718 -0.2947 -0.3914
vn 0.9638 -0.2582 -0.0658
vn 0.8085 -0.2693 0.5232
vn 0.8649 -0.4842 0.1324
vn 0.9597 0.1256 -0.2513
vn 0.9833 -0.1599 -0.0871
vn 0.9490 0.3108 -0.0523
vn 0.9689 -0.0520 0.2420
vn 0.9405 -0.1511 -0.3042
vn 0.9974 0.0522 -0.0500
vn 0.9944 -0.0617 0.0861
vn 0.9974 -0.0692 -0.0180
vn 0.9983 -0.0516 0.0280
vn 0.9981 0.0292 0.0545
vn 0.9473 0.3193 -0.0270
vn 0.9913 -0.0281 -0.1282
vn 0.9947 -0.0195 -0.1009
vn 0.9417 0.0488 0.3328
vn 0.9620 -0.1563 -0.2239
vn 0.9952 0.0477 0.0858
vn 0.9472 -0.1272 0.2944
vn 0.8751 0.4386 -0.2048
vn 0.9983 -0.0344 0.0475
vn 0.9878 0.1253 -0.0923
vn 0.9717 -0.1944 0.1340
vn 0.9253 -0.3792 0.0108
vn 0.8500 0.1787 0.4955
vn 0.9182 0.3666 -0.1499
vn 0.9992 0.0288 -0.0278
vn -0.5847 -0.8003 0.1332
vn 0.9710 0.1824 -0.1543
vn 0.9282 0.1917 -0.3188
vn 0.8384 0.2030 -0.5058
vn 0.8141 0.2301 0.5332
vn 0.8999 0.1428 -0.4121
vn 0.9993 0.0274 0.0240
vn 0.9904 0.1272 0.0546
vn 0.9747 -0.0683 0.2127
vn 0.9857 0.0909 -0.1419
vn 0.9522 -0.1531 -0.2645
vn 0.8967 -0.1911 0.3994
vn 0.9154 -0.2568 -0.3101
vn 0.8401 -0.5422 -0.0118
vn 0.7002 -0.6536 -0.2872
vn 0.8394 -0.5414 0.0477
vn 0.8958 -0.3601 0.2604
vn 0.7866 0.3176 -0.5295
vn 0.7919 0.6098 -0.0323
vn 0.8143 -0.0441 0.5788
vn 0.8764 0.4681 -0.1130
vn 0.3436 0.3970 -0.8511
vt 0.904591 0.744029
vt 0.908781 0.723193
vt 0.914605 0.734423
vt 0.366691 0.003208
vt 0.353327 0.038093
vt 0.338608 0.019387
vt 0.243168 0.036520
vt 0.239269 0.072252
vt 0.232598 0.023207
vt 0.290993 0.127766
vt 0.284267 0.109512
vt 0.326555 0.127943
vt 0.299695 0.101795
vt 0.332847 0.090991
vt 0.326339 0.105634
vt 0.306825 0.172620
vt 0.329270 0.145957
vt 0.153280 0.018199
vt 0.193348 0.096446
vt 0.187169 0.074904
vt 0.520550 0.556912
vt 0.515421 0.552764
vt 0.514729 0.471643
vt 0.808760 0.629677
vt 0.871651 0.619150
vt 0.867713 0.635119
vt 0.123892 0.195316
vt 0.142115 0.238501
vt 0.080387 0.242258
vt 0.812005 0.189520
vt 0.872718 0.161764
vt 0.870542 0.188577
vt 0.812277 0.164893
vt 0.813094 0.107039
vt 0.212120 0.109851
vt 0.137849 0.158643
vt 0.188517 0.115224
vt 0.201769 0.040267
vt 0.220618 0.055650
vt 0.132902 0.097192
vt 0.144935 0.117501
vt 0.139252 0.063152
vt 0.081524 0.038547
vt 0.093207 0.004844
vt 0.062943 0.229630
vt 0.066892 0.257248
vt 0.005144 0.225790
vt 0.772030 0.239654
vt 0.762008 0.238411
vt 0.770089 0.179526
vt 0.160165 0.106422
vt 0.168934 0.113773
vt 0.325810 0.802856
vt 0.332224 0.843718
vt 0.327344 0.817838
vt 0.323080 0.783039
vt 0.306357 0.781013
vt 0.320317 0.758391
vt 0.562581 0.481049
vt 0.543312 0.460870
vt 0.572686 0.482035
vt 0.973611 0.781426
vt 0.978935 0.777622
vt 0.977856 0.781399
vt 0.951046 0.444855
vt 0.947336 0.452455
vt 0.946408 0.406374
vt 0.140865 0.946379
vt 0.095622 0.886291
vt 0.140923 0.886989
vt 0.097055 0.947771
vt 0.448105 0.005524
vt 0.480717 0.005542
vt 0.477981 0.024112
vt 0.944724 0.002208
vt 0.893965 0.064813
vt 0.891828 0.022158
vt 0.538000 0.295952
vt 0.538550 0.425735
vt 0.475285 0.421365
vt 0.952750 0.293991
vt 0.947266 0.294951
vt 0.947155 0.254683
vt 0.941752 0.066130
vt 0.739036 0.463142
vt 0.801685 0.462000
vt 0.738567 0.508125
vt 0.802412 0.636185
vt 0.517676 0.215382
vt 0.512764 0.168202
vt 0.559420 0.170280
vt 0.483688 0.206440
vt 0.457920 0.181544
vt 0.445918 0.145879
vt 0.731794 0.629070
vt 0.667033 0.492060
vt 0.728417 0.496970
vt 0.722217 0.463175
vt 0.667352 0.465365
vt 0.313193 0.520173
vt 0.310989 0.484609
vt 0.316581 0.487333
vt 0.473463 0.276755
vt 0.474498 0.250086
vt 0.537574 0.246606
vt 0.342807 0.745458
vt 0.331921 0.769348
vt 0.538442 0.669528
vt 0.536470 0.675846
vt 0.536470 0.664557
vt 0.293420 0.788053
vt 0.288859 0.799986
vt 0.288859 0.780046
vt 0.707053 0.418067
vt 0.712717 0.382637
vt 0.713573 0.431912
vt 0.083995 0.989002
vt 0.076175 0.977539
vt 0.083995 0.977332
vt 0.689463 0.247426
vt 0.717873 0.251313
vt 0.693997 0.276262
vt 0.737845 0.244804
vt 0.732226 0.264941
vt 0.373225 0.220216
vt 0.434074 0.222066
vt 0.378134 0.226484
vt 0.805990 0.853469
vt 0.806175 0.757000
vt 0.868235 0.755640
vt 0.436106 0.003615
vt 0.432151 0.194745
vt 0.370549 0.026226
vt 0.938450 0.338150
vt 0.944256 0.399411
vt 0.936074 0.398239
vt 0.581968 0.270727
vt 0.547135 0.403086
vt 0.549174 0.243269
vt 0.586005 0.249396
vt 0.728304 0.682692
vt 0.731300 0.804136
vt 0.668602 0.681655
vt 0.666441 0.652460
vt 0.625841 0.409111
vt 0.634279 0.456919
vt 0.586492 0.396956
vt 0.879446 0.221489
vt 0.898507 0.172793
vt 0.940970 0.235313
vt 0.108830 0.318156
vt 0.098788 0.354787
vt 0.097176 0.338593
vt 0.092994 0.452112
vt 0.119881 0.437888
vt 0.094322 0.474818
vt 0.179490 0.404763
vt 0.162387 0.395615
vt 0.180757 0.380246
vt 0.299650 0.446222
vt 0.286526 0.407988
vt 0.297918 0.398383
vt 0.732534 0.073013
vt 0.668248 0.057558
vt 0.733382 0.036757
vt 0.217123 0.848619
vt 0.218413 0.811360
vt 0.277811 0.811108
vt 0.237130 0.271270
vt 0.269229 0.243401
vt 0.222614 0.372258
vt 0.915343 0.401603
vt 0.914896 0.338606
vt 0.932480 0.338367
vt 0.921924 0.815918
vt 0.931316 0.753902
vt 0.943672 0.755365
vt 0.349988 0.370929
vt 0.306013 0.378151
vt 0.743469 0.113542
vt 0.803534 0.170162
vt 0.743671 0.169067
vt 0.577317 0.949431
vt 0.598508 0.889064
vt 0.598751 0.949359
vt 0.695432 0.947429
vt 0.673663 0.891763
vt 0.697648 0.890294
vt 0.740283 0.062988
vt 0.739940 0.016527
vt 0.803796 0.039794
vt 0.333475 0.284046
vt 0.302061 0.247656
vt 0.295056 0.285160
vt 0.278169 0.285798
vt 0.878298 0.267656
vt 0.813045 0.331387
vt 0.814328 0.270703
vt 0.822962 0.962042
vt 0.820012 0.936971
vt 0.827028 0.928968
vt 0.402657 0.468256
vt 0.370927 0.498708
vt 0.380730 0.484472
vt 0.203220 0.824676
vt 0.211758 0.851597
vt 0.202300 0.854582
vt 0.749266 0.973119
vt 0.749214 0.953875
vt 0.758772 0.968415
vt 0.380983 0.556978
vt 0.397403 0.614752
vt 0.375445 0.585320
vt 0.364980 0.644823
vt 0.374216 0.615499
vt 0.221443 0.653283
vt 0.220087 0.487874
vt 0.283885 0.502754
vt 0.808043 0.261134
vt 0.807736 0.410182
vt 0.743385 0.401384
vt 0.745164 0.265131
vt 0.931198 0.308103
vt 0.883841 0.244501
vt 0.931985 0.243442
vt 0.883685 0.307758
vt 0.925700 0.407882
vt 0.926543 0.444645
vt 0.919628 0.458787
vt 0.797700 0.677955
vt 0.797536 0.807632
vt 0.737473 0.645141
vt 0.166344 0.684090
vt 0.131293 0.679544
vt 0.193472 0.666762
vt 0.003303 0.680632
vt 0.004524 0.497726
vt 0.066341 0.565708
vt 0.066567 0.499006
vt 0.164624 0.515305
vt 0.197592 0.489402
vt 0.414347 0.948831
vt 0.400832 0.948776
vt 0.414366 0.885893
vt 0.880454 0.858838
vt 0.932646 0.858403
vt 0.883699 0.923667
vt 0.283809 0.484723
vt 0.283457 0.655463
vt 0.283039 0.689051
vt 0.810306 0.555678
vt 0.808466 0.529043
vt 0.873300 0.555413
vt 0.873869 0.493359
vt 0.873304 0.529336
vt 0.654082 0.700050
vt 0.641833 0.725353
vt 0.624333 0.723459
vt 0.558748 0.772570
vt 0.570085 0.753594
vt 0.573496 0.768455
vt 0.108375 0.708156
vt 0.150613 0.689856
vt 0.141988 0.711198
vt 0.158244 0.756307
vt 0.156153 0.775742
vt 0.146552 0.774453
vt 0.341143 0.856134
vt 0.286935 0.916591
vt 0.286165 0.854878
vt 0.369194 0.335659
vt 0.366500 0.410327
vt 0.361334 0.288882
vt 0.367729 0.248069
vt 0.824555 0.731411
vt 0.822918 0.645711
vt 0.883754 0.705174
vt 0.883705 0.643310
vt 0.440711 0.289143
vt 0.400743 0.294360
vt 0.464773 0.268045
vt 0.457046 0.299709
vt 0.066830 0.486238
vt 0.003367 0.462592
vt 0.067412 0.452310
vt 0.004259 0.485393
vt 0.610758 0.786456
vt 0.612488 0.800339
vt 0.571665 0.800851
vt 0.640464 0.818583
vt 0.644393 0.880905
vt 0.580715 0.825133
vt 0.413397 0.814208
vt 0.413871 0.879558
vt 0.355628 0.881212
vt 0.909778 0.561472
vt 0.894960 0.625125
vt 0.877736 0.562296
vt 0.910475 0.339361
vt 0.907947 0.399055
vt 0.892146 0.341057
vt 0.836345 0.228077
vt 0.826727 0.239059
vt 0.826456 0.196628
vt 0.140368 0.866613
vt 0.136730 0.882287
vt 0.078996 0.880490
vt 0.463960 0.415106
vt 0.468262 0.460553
vt 0.410192 0.411167
vt 0.425710 0.451299
vt 0.399077 0.392800
vt 0.341664 0.919912
vt 0.548029 0.750981
vt 0.948066 0.753572
vt 0.968871 0.753668
vt 0.957263 0.778370
vt 0.973102 0.819201
vt 0.982498 0.824642
vt 0.973102 0.836959
vt 0.815004 0.438081
vt 0.825278 0.433899
vt 0.827341 0.443338
vt 0.423530 0.986842
vt 0.425169 0.978022
vt 0.433750 0.990486
vt 0.337989 0.986949
vt 0.344053 0.993479
vt 0.335636 0.996753
vt 0.269879 0.052933
vt 0.248771 0.054828
vt 0.253354 0.039220
vt 0.254225 0.090059
vt 0.276788 0.091439
vt 0.266571 0.113012
vt 0.913351 0.748470
vt 0.321246 0.072965
vt 0.294618 0.052795
vt 0.292042 0.018896
vt 0.321153 0.026283
vt 0.258432 0.026162
vt 0.262050 0.013366
vt 0.345372 0.207210
vt 0.330709 0.213226
vt 0.709944 0.967169
vt 0.703667 0.958830
vt 0.717591 0.956049
vt 0.294735 0.147871
vt 0.156391 0.986965
vt 0.145220 0.988339
vt 0.144604 0.975878
vt 0.353089 0.128391
vt 0.361591 0.022454
vt 0.522357 0.468956
vt 0.005565 0.256654
vt 0.065889 0.265065
vt 0.872254 0.565358
vt 0.079502 0.208314
vt 0.869949 0.102103
vt 0.906008 0.102947
vt 0.918101 0.101700
vt 0.909023 0.160210
vt 0.762802 0.891677
vt 0.762576 0.950250
vt 0.750489 0.947650
vt 0.753045 0.888866
vt 0.355460 0.773052
vt 0.418622 0.775037
vt 0.354546 0.805876
vt 0.420212 0.805639
vt 0.068160 0.736838
vt 0.068063 0.803474
vt 0.003178 0.771026
vt 0.002232 0.709601
vt 0.009037 0.806840
vt 0.490098 0.828587
vt 0.429200 0.813808
vt 0.485033 0.804676
vt 0.251301 0.140018
vt 0.227571 0.116279
vt 0.278726 0.134890
vt 0.194881 0.948576
vt 0.182027 0.947714
vt 0.193353 0.886915
vt 0.559678 0.889263
vt 0.568672 0.890175
vt 0.570271 0.950114
vt 0.144796 0.888334
vt 0.145374 0.949638
vt 0.879318 0.166168
vt 0.894421 0.102161
vt 0.900257 0.163451
vt 0.559714 0.949741
vt 0.027372 0.814451
vt 0.056131 0.875641
vt 0.023679 0.871701
vt 0.878354 0.102554
vt 0.316167 0.038610
vt 0.190591 0.977665
vt 0.187907 0.988758
vt 0.179624 0.975549
vt 0.257165 0.063934
vt 0.265803 0.064890
vt 0.930700 0.981853
vt 0.924852 0.972786
vt 0.932708 0.965018
vt 0.305770 0.741856
vt 0.313681 0.800460
vt 0.571666 0.523731
vt 0.558556 0.535606
vt 0.313972 0.618489
vt 0.326145 0.625638
vt 0.330671 0.645057
vt 0.332801 0.667127
vt 0.327061 0.685402
vt 0.950181 0.314584
vt 0.959484 0.316650
vt 0.958384 0.333880
vt 0.390235 0.988984
vt 0.387968 0.975180
vt 0.397225 0.975180
vt 0.973611 0.775015
vt 0.989524 0.388058
vt 0.994991 0.391022
vt 0.989524 0.396855
vt 0.564811 0.170015
vt 0.564412 0.111158
vt 0.570530 0.033987
vt 0.193380 0.987461
vt 0.194028 0.975857
vt 0.199043 0.985806
vt 0.631456 0.032107
vt 0.630202 0.165550
vt 0.721232 0.930420
vt 0.708093 0.947469
vt 0.710747 0.919338
vt 0.523119 0.664677
vt 0.502334 0.719749
vt 0.518277 0.663770
vt 0.538885 0.460439
vt 0.479488 0.459326
vt 0.555079 0.026331
vt 0.513992 0.016754
vt 0.545780 0.201903
vt 0.310960 0.587079
vt 0.750136 0.635730
vt 0.943181 0.559817
vt 0.940833 0.622440
vt 0.931827 0.622376
vt 0.931937 0.558982
vt 0.490434 0.158054
vt 0.733009 0.643395
vt 0.699214 0.642647
vt 0.325691 0.705265
vt 0.311149 0.704095
vt 0.666527 0.634221
vt 0.865607 0.095358
vt 0.813228 0.097150
vt 0.810858 0.070824
vt 0.870149 0.048159
vt 0.722570 0.195225
vt 0.717603 0.236567
vt 0.721086 0.185316
vt 0.966882 0.973215
vt 0.966442 0.948908
vt 0.973713 0.949086
vt 0.325139 0.711616
vt 0.324135 0.737248
vt 0.179624 0.956570
vt 0.188925 0.958199
vt 0.180135 0.969310
vt 0.962496 0.750527
vt 0.962986 0.725819
vt 0.973385 0.745299
vt 0.705087 0.324739
vt 0.715608 0.331905
vt 0.708025 0.354608
vt 0.293644 0.796170
vt 0.959620 0.193544
vt 0.980117 0.178780
vt 0.977304 0.202187
vt 0.769965 0.446677
vt 0.780279 0.442241
vt 0.776592 0.455049
vt 0.726886 0.371586
vt 0.730373 0.402295
vt 0.426824 0.947410
vt 0.428522 0.887111
vt 0.470103 0.947255
vt 0.861193 0.852154
vt 0.872647 0.784683
vt 0.869880 0.852670
vt 0.542705 0.438783
vt 0.943669 0.209052
vt 0.749653 0.432531
vt 0.741093 0.423670
vt 0.748711 0.419096
vt 0.877952 0.815386
vt 0.885847 0.755484
vt 0.912063 0.810719
vt 0.913604 0.759051
vt 0.667567 0.800649
vt 0.374148 0.004232
vt 0.727004 0.652537
vt 0.478301 0.884708
vt 0.717030 0.277343
vt 0.985121 0.725293
vt 0.985121 0.741304
vt 0.976174 0.735272
vt 0.989941 0.422662
vt 0.986533 0.434450
vt 0.983548 0.423951
vt 0.994287 0.776850
vt 0.983533 0.779605
vt 0.984966 0.768002
vt 0.186100 0.273046
vt 0.166033 0.268399
vt 0.157462 0.251900
vt 0.561459 0.831436
vt 0.559866 0.806316
vt 0.571999 0.816959
vt 0.174197 0.331823
vt 0.170008 0.355869
vt 0.159847 0.313917
vt 0.939104 0.073393
vt 0.946926 0.093339
vt 0.939104 0.096694
vt 0.921202 0.987533
vt 0.911418 0.995884
vt 0.911418 0.985221
vt 0.364171 0.952524
vt 0.372904 0.953478
vt 0.366044 0.970861
vt 0.112541 0.388366
vt 0.089774 0.378494
vt 0.115757 0.376897
vt 0.084291 0.357227
vt 0.088003 0.431013
vt 0.074090 0.392590
vt 0.851267 0.987767
vt 0.851360 0.995156
vt 0.842547 0.985691
vt 0.101932 0.426014
vt 0.112220 0.434553
vt 0.938823 0.315377
vt 0.943880 0.312163
vt 0.943880 0.332106
vt 0.042050 0.985659
vt 0.048843 0.977033
vt 0.052132 0.989348
vt 0.934323 0.926850
vt 0.931779 0.961037
vt 0.924852 0.931894
vt 0.979794 0.352072
vt 0.983534 0.341630
vt 0.989997 0.357058
vt 0.204600 0.393737
vt 0.190842 0.386176
vt 0.202764 0.371567
vt 0.331108 0.422997
vt 0.345271 0.448314
vt 0.218413 0.318915
vt 0.272493 0.860931
vt 0.234344 0.882079
vt 0.179602 0.744240
vt 0.189724 0.719633
vt 0.190417 0.793780
vt 0.836579 0.859354
vt 0.829141 0.924040
vt 0.805118 0.858126
vt 0.244246 0.421580
vt 0.255664 0.343893
vt 0.262636 0.390882
vt 0.914572 0.644707
vt 0.914491 0.708521
vt 0.895626 0.643223
vt 0.862684 0.331737
vt 0.582121 0.889892
vt 0.327806 0.478820
vt 0.077333 0.453781
vt 0.083327 0.445491
vt 0.536130 0.891781
vt 0.538012 0.943771
vt 0.500197 0.885609
vt 0.501017 0.940618
vt 0.665523 0.948390
vt 0.152200 0.438221
vt 0.157757 0.446351
vt 0.119812 0.448937
vt 0.208617 0.320003
vt 0.177015 0.293610
vt 0.182440 0.313891
vt 0.668141 0.137464
vt 0.734920 0.180488
vt 0.673834 0.181261
vt 0.734754 0.130531
vt 0.805321 0.111448
vt 0.895322 0.707897
vt 0.310907 0.313946
vt 0.350701 0.329815
vt 0.904963 0.527995
vt 0.916526 0.462658
vt 0.917405 0.528589
vt 0.903431 0.462918
vt 0.488350 0.704859
vt 0.488754 0.748277
vt 0.425538 0.731077
vt 0.544591 0.837493
vt 0.938196 0.817910
vt 0.789066 0.976233
vt 0.800568 0.978750
vt 0.790800 0.989565
vt 0.202000 0.965247
vt 0.212225 0.969722
vt 0.202717 0.982944
vt 0.949903 0.003472
vt 0.960848 0.003374
vt 0.956044 0.044928
vt 0.962246 0.689239
vt 0.962246 0.677031
vt 0.968921 0.685585
vt 0.380743 0.523618
vt 0.815306 0.928968
vt 0.814293 0.955166
vt 0.804726 0.938248
vt 0.197571 0.849913
vt 0.181637 0.819691
vt 0.182536 0.807547
vt 0.552079 0.225953
vt 0.559997 0.222853
vt 0.559997 0.240371
vt 0.972160 0.267216
vt 0.979871 0.284797
vt 0.971846 0.285207
vt 0.976503 0.948908
vt 0.984263 0.956464
vt 0.976503 0.964674
vt 0.783091 0.912024
vt 0.802076 0.943229
vt 0.777669 0.937198
vt 0.778258 0.951027
vt 0.187685 0.847599
vt 0.181637 0.875646
vt 0.433677 0.672016
vt 0.397802 0.672550
vt 0.402349 0.661085
vt 0.395937 0.501209
vt 0.165350 0.485184
vt 0.433981 0.618061
vt 0.443987 0.590554
vt 0.445742 0.625978
vt 0.736316 0.809149
vt 0.129446 0.631335
vt 0.147540 0.645015
vt 0.087082 0.628302
vt 0.403714 0.886749
vt 0.641866 0.949464
vt 0.646176 0.886811
vt 0.661607 0.949177
vt 0.660551 0.887394
vt 0.068719 0.687433
vt 0.164164 0.636426
vt 0.103845 0.660163
vt 0.076427 0.486153
vt 0.119446 0.485751
vt 0.927407 0.917495
vt 0.875972 0.921248
vt 0.639908 0.001950
vt 0.663293 0.144443
vt 0.635025 0.002738
vt 0.211637 0.775610
vt 0.202000 0.796297
vt 0.205662 0.774289
vt 0.726876 0.235384
vt 0.726935 0.184891
vt 0.733835 0.233189
vt 0.219979 0.689392
vt 0.808550 0.492022
vt 0.840131 0.239147
vt 0.844603 0.200764
vt 0.854005 0.221190
vt 0.949842 0.047807
vt 0.773885 0.969726
vt 0.767628 0.954021
vt 0.774615 0.947179
vt 0.938073 0.972539
vt 0.950197 0.973671
vt 0.938073 0.988155
vt 0.297430 0.989371
vt 0.301320 0.978447
vt 0.310095 0.989743
vt 0.565627 0.685991
vt 0.658632 0.674389
vt 0.603618 0.716155
vt 0.562147 0.719319
vt 0.547474 0.725397
vt 0.977749 0.658064
vt 0.974404 0.643863
vt 0.984120 0.642745
vt 0.599252 0.975154
vt 0.596667 0.986296
vt 0.593581 0.974915
vt 0.401032 0.962709
vt 0.412984 0.951993
vt 0.412984 0.974505
vt 0.131690 0.776369
vt 0.132466 0.739207
vt 0.988069 0.637779
vt 0.982894 0.625157
vt 0.990410 0.623262
vt 0.989891 0.011784
vt 0.998365 0.015696
vt 0.989485 0.021025
vt 0.158517 0.801407
vt 0.154329 0.789598
vt 0.158537 0.730303
vt 0.160576 0.708755
vt 0.172545 0.688400
vt 0.463685 0.385330
vt 0.403693 0.370617
vt 0.403441 0.322123
vt 0.542130 0.693511
vt 0.067791 0.686503
vt 0.073725 0.695832
vt 0.799361 0.822839
vt 0.777549 0.882776
vt 0.749250 0.819913
vt 0.739119 0.818372
vt 0.746453 0.873591
vt 0.737282 0.879985
vt 0.220871 0.948340
vt 0.267796 0.888574
vt 0.275370 0.948158
vt 0.221787 0.886189
vt 0.875984 0.623114
vt 0.355152 0.817044
vt 0.654955 0.870756
vt 0.652884 0.820912
vt 0.653649 0.809271
vt 0.579724 0.867892
vt 0.467522 0.338322
vt 0.439796 0.328674
vt 0.463949 0.327648
vt 0.390839 0.885732
vt 0.356578 0.947443
vt 0.354225 0.886456
vt 0.606103 0.949131
vt 0.631644 0.888736
vt 0.631375 0.948663
vt 0.604731 0.887893
vt 0.397110 0.944812
vt 0.075848 0.814584
vt 0.140644 0.826847
vt 0.137246 0.812282
vt 0.012009 0.848002
vt 0.018627 0.868802
vt 0.004296 0.883701
vt 0.749304 0.882671
vt 0.364181 0.442807
vt 0.115692 0.952927
vt 0.133975 0.955871
vt 0.112714 0.969893
vt 0.969501 0.778061
vt 0.508482 0.223060
vt 0.521459 0.233726
vt 0.508483 0.240293
vt 0.870721 0.977826
vt 0.861614 0.983056
vt 0.861614 0.965890
vt 0.982912 0.846681
vt 0.973102 0.854441
vt 0.973102 0.839748
vt 0.975143 0.876304
vt 0.987260 0.881715
vt 0.975143 0.892293
vt 0.633375 0.952520
vt 0.633986 0.972527
vt 0.621507 0.966733
vt 0.971286 0.807034
vt 0.969257 0.816275
vt 0.961938 0.804037
vt 0.769015 0.975160
vt 0.774615 0.987796
vt 0.762230 0.990001
vt 0.241547 0.100301
vt 0.240139 0.119427
vt 0.918771 0.334052
vt 0.907732 0.327561
vt 0.918771 0.312163
vt 0.826146 0.355226
vt 0.815967 0.386541
vt 0.816681 0.368973
vt 0.326235 0.060937
vt 0.284753 0.033688
vt 0.282228 0.022288
vt 0.962273 0.298007
vt 0.974023 0.311944
vt 0.962273 0.328777
vt 0.333777 0.037743
vt 0.336906 0.953094
vt 0.348348 0.933227
vt 0.351109 0.946123
vt 0.520700 0.979306
vt 0.531906 0.980294
vt 0.520700 0.990796
vt 0.604910 0.976216
vt 0.615604 0.979488
vt 0.604339 0.989069
vt 0.984234 0.804236
vt 0.983320 0.816275
vt 0.974199 0.805040
vt 0.922698 0.321503
vt 0.935870 0.312163
vt 0.935870 0.334153
vt 0.258368 0.125127
vt 0.273967 0.128337
vt 0.238785 0.975484
vt 0.238785 0.989147
vt 0.229113 0.983192
vt 0.503826 0.973593
vt 0.493669 0.971158
vt 0.493669 0.951507
vt 0.277943 0.124602
vt 0.509282 0.630220
vt 0.705990 0.977935
vt 0.311757 0.231306
vt 0.886590 0.460256
vt 0.894683 0.477018
vt 0.889176 0.519392
vt 0.073094 0.233363
vt 0.197610 0.141571
vt 0.804982 0.721375
vt 0.814270 0.640941
vt 0.816278 0.667766
vt 0.067776 0.701319
vt 0.807310 0.563023
vt 0.160960 0.073988
vt 0.061478 0.814976
vt 0.031012 0.882915
vt 0.010114 0.978903
vt 0.013448 0.991197
vt 0.001905 0.991197
vt 0.972213 0.500859
vt 0.978459 0.498414
vt 0.978459 0.512714
vt 0.520700 0.971269
vt 0.528003 0.951508
vt 0.530993 0.975465
vt 0.984733 0.678141
vt 0.974862 0.667500
vt 0.984733 0.661923
vt 0.840346 0.749831
vt 0.837561 0.736887
vt 0.846919 0.738049
vt 0.326117 0.970106
vt 0.315182 0.984679
vt 0.315182 0.968556
vt 0.584619 0.494653
vt 0.594141 0.229122
vt 0.585881 0.216133
vt 0.596231 0.213233
vt 0.972266 0.599184
vt 0.968495 0.581127
vt 0.976277 0.588777
vt 0.840897 0.965544
vt 0.852101 0.972164
vt 0.840897 0.982902
vt 0.563850 0.555377
vt 0.555681 0.570495
vt 0.092098 0.953804
vt 0.100661 0.971871
vt 0.090601 0.975280
vt 0.308074 0.721734
vt 0.505433 0.879387
vt 0.499529 0.880502
vt 0.504808 0.873093
vt 0.037927 0.987493
vt 0.027925 0.989790
vt 0.027925 0.974971
vt 0.342051 0.663412
vt 0.343995 0.681923
vt 0.713242 0.897071
vt 0.705322 0.904987
vt 0.702934 0.896852
vt 0.517911 0.964371
vt 0.509529 0.975952
vt 0.506885 0.959211
vt 0.300676 0.972139
vt 0.297370 0.961906
vt 0.312155 0.964796
vt 0.563340 0.640946
vt 0.559225 0.654718
vt 0.545178 0.627035
vt 0.555371 0.593650
vt 0.835738 0.929651
vt 0.829992 0.959373
vt 0.829818 0.928968
vt 0.317251 0.611464
vt 0.935837 0.529253
vt 0.936550 0.550592
vt 0.931456 0.530179
vt 0.520757 0.797579
vt 0.518087 0.789423
vt 0.526869 0.795097
vt 0.345805 0.969379
vt 0.351109 0.984156
vt 0.335636 0.984156
vt 0.502276 0.838542
vt 0.512977 0.838160
vt 0.511930 0.866355
vt 0.528037 0.223477
vt 0.535766 0.240293
vt 0.525868 0.239128
vt 0.707623 0.890014
vt 0.564278 0.583037
vt 0.707072 0.303510
vt 0.192277 0.971187
vt 0.454232 0.970720
vt 0.448516 0.967467
vt 0.454232 0.952135
vt 0.990805 0.906685
vt 0.995358 0.918215
vt 0.984904 0.918215
vt 0.712162 0.343770
vt 0.238412 0.953364
vt 0.238785 0.972695
vt 0.228363 0.962732
vt 0.279829 0.983971
vt 0.274021 0.988164
vt 0.274021 0.975133
vt 0.669752 0.411492
vt 0.694969 0.423863
vt 0.672164 0.435153
vt 0.354205 0.952656
vt 0.359995 0.956693
vt 0.355801 0.972365
vt 0.954374 0.165188
vt 0.964480 0.145958
vt 0.963544 0.164755
vt 0.939998 0.177585
vt 0.747477 0.455159
vt 0.737746 0.445439
vt 0.610063 0.965165
vt 0.602379 0.972270
vt 0.615604 0.959304
vt 0.196006 0.338128
vt 0.186104 0.343377
vt 0.801936 0.954206
vt 0.801936 0.973444
vt 0.793048 0.962786
vt 0.749294 0.982327
vt 0.758279 0.975909
vt 0.758279 0.989473
vt 0.101263 0.317399
vt 0.780723 0.971212
vt 0.780723 0.954206
vt 0.789447 0.969806
vt 0.176771 0.309925
vt 0.160755 0.294029
vt 0.084829 0.325389
vt 0.089937 0.341032
vt 0.943824 0.070946
vt 0.890421 0.835203
vt 0.882279 0.845950
vt 0.877062 0.826204
vt 0.114926 0.391853
vt 0.986976 0.484247
vt 0.989630 0.495625
vt 0.981248 0.493373
vt 0.125730 0.406696
vt 0.131930 0.387727
vt 0.093568 0.396477
vt 0.100242 0.408751
vt 0.956081 0.200570
vt 0.952439 0.219013
vt 0.948520 0.188304
vt 0.502566 0.645906
vt 0.494829 0.660836
vt 0.494829 0.642755
vt 0.112814 0.415299
vt 0.614025 0.216187
vt 0.605370 0.226096
vt 0.609161 0.213972
vt 0.488344 0.947726
vt 0.490672 0.962763
vt 0.481497 0.970409
vt 0.875251 0.853850
vt 0.180824 0.356609
vt 0.292792 0.380521
vt 0.804385 0.001771
vt 0.879134 0.416226
vt 0.868917 0.379890
vt 0.884442 0.414657
vt 0.272471 0.441282
vt 0.968583 0.505030
vt 0.962732 0.518852
vt 0.963516 0.499405
vt 0.684858 0.188825
vt 0.701704 0.184810
vt 0.696452 0.203935
vt 0.985006 0.985731
vt 0.978509 0.996104
vt 0.976502 0.987509
vt 0.989478 0.316419
vt 0.989478 0.330762
vt 0.979836 0.317386
vt 0.878398 0.982780
vt 0.878398 0.965020
vt 0.890080 0.971496
vt 0.975370 0.152953
vt 0.986014 0.154090
vt 0.975370 0.167194
vt 0.377865 0.527645
vt 0.366027 0.542322
vt 0.169772 0.875768
vt 0.173606 0.854359
vt 0.176206 0.883147
vt 0.984717 0.075766
vt 0.993167 0.075766
vt 0.987648 0.086766
vt 0.912170 0.555032
vt 0.911340 0.531831
vt 0.916675 0.536376
vt 0.734240 0.991679
vt 0.727112 0.980159
vt 0.738166 0.980200
vt 0.950481 0.224027
vt 0.955955 0.241105
vt 0.946396 0.243476
vt 0.382354 0.608445
vt 0.777404 0.888664
vt 0.787950 0.891662
vt 0.959943 0.472577
vt 0.952445 0.490816
vt 0.956391 0.462431
vt 0.114725 0.990207
vt 0.103450 0.990207
vt 0.111253 0.978273
vt 0.975865 0.027226
vt 0.964485 0.019894
vt 0.975865 0.001395
vt 0.374921 0.646527
vt 0.416425 0.632361
vt 0.381968 0.625545
vt 0.488857 0.885274
vt 0.488780 0.940357
vt 0.482501 0.939297
vt 0.462834 0.641182
vt 0.467096 0.582490
vt 0.481635 0.603075
vt 0.463275 0.605298
vt 0.452228 0.589849
vt 0.123749 0.983490
vt 0.132362 0.979564
vt 0.134046 0.990539
vt 0.487104 0.223760
vt 0.493039 0.240259
vt 0.485819 0.240259
vt 0.453528 0.238286
vt 0.440619 0.240158
vt 0.439850 0.222759
vt 0.834160 0.748400
vt 0.822132 0.750783
vt 0.822132 0.736960
vt 0.103450 0.957894
vt 0.241574 0.975388
vt 0.253951 0.981379
vt 0.241574 0.988937
vt 0.618104 0.746478
vt 0.633089 0.743744
vt 0.946085 0.538122
vt 0.959681 0.526604
vt 0.958632 0.552955
vt 0.317112 0.962824
vt 0.320416 0.928031
vt 0.331809 0.964961
vt 0.646870 0.742049
vt 0.647596 0.768959
vt 0.908846 0.942486
vt 0.916188 0.959116
vt 0.899774 0.954374
vt 0.946460 0.551408
vt 0.543202 0.980172
vt 0.545859 0.990819
vt 0.538590 0.990768
vt 0.125435 0.798423
vt 0.143881 0.788008
vt 0.004617 0.272401
vt 0.063563 0.282946
vt 0.002774 0.298647
vt 0.858095 0.427761
vt 0.846673 0.457461
vt 0.846673 0.424430
vt 0.928547 0.561955
vt 0.923384 0.620944
vt 0.916398 0.559773
vt 0.953861 0.879107
vt 0.953672 0.861079
vt 0.954402 0.901665
vt 0.797197 0.879296
vt 0.551059 0.804110
vt 0.581088 0.809811
vt 0.639088 0.807814
vt 0.576147 0.837218
vt 0.161062 0.756428
vt 0.174625 0.794575
vt 0.922063 0.926850
vt 0.635071 0.780668
vt 0.636323 0.799230
vt 0.635389 0.768595
vt 0.611700 0.766233
vt 0.334598 0.939257
vt 0.066882 0.972269
vt 0.056092 0.953075
vt 0.066778 0.954098
vt 0.409324 0.978293
vt 0.411882 0.990154
vt 0.400768 0.985653
vt 0.097062 0.978268
vt 0.100661 0.990779
vt 0.090571 0.986893
vt 0.977643 0.042610
vt 0.988023 0.030015
vt 0.988023 0.045935
vt 0.894858 0.966934
vt 0.907079 0.975955
vt 0.894483 0.982444
vt 0.342617 0.060848
vt 0.969837 0.226857
vt 0.983844 0.237291
vt 0.969837 0.243257
vt 0.989735 0.532794
vt 0.979075 0.537041
vt 0.985633 0.522328
vt 0.559659 0.968816
vt 0.572707 0.952779
vt 0.572707 0.972089
vt 0.922495 0.726103
vt 0.244729 0.088229
vt 0.986177 0.135469
vt 0.980650 0.125297
vt 0.988575 0.121562
vt 0.812386 0.354625
vt 0.816046 0.338420
vt 0.336453 0.074605
vt 0.819337 0.409558
vt 0.304905 0.072899
vt 0.976286 0.551191
vt 0.962470 0.535326
vt 0.972495 0.526071
vt 0.812385 0.451128
vt 0.827341 0.457032
vt 0.982115 0.904909
vt 0.972588 0.912020
vt 0.972619 0.900365
vt 0.338528 0.108059
vt 0.526855 0.772561
vt 0.537532 0.784766
vt 0.525326 0.784766
vt 0.901445 0.447497
vt 0.916838 0.412412
vt 0.911470 0.429671
vt 0.971814 0.480888
vt 0.971814 0.462431
vt 0.982239 0.470817
vt 0.576147 0.954127
vt 0.586890 0.970526
vt 0.576147 0.972126
vt 0.522375 0.659395
vt 0.064517 0.024974
vt 0.006203 0.024401
vt 0.062307 0.949013
vt 0.034004 0.889002
vt 0.062153 0.890780
vt 0.942411 0.101178
vt 0.418509 0.677709
vt 0.357836 0.674897
vt 0.428764 0.879366
vt 0.486618 0.872791
vt 0.006316 0.002838
vt 0.068145 0.004146
vt 0.646670 0.229209
vt 0.632192 0.240015
vt 0.643764 0.220173
vt 0.986696 0.015205
vt 0.978770 0.027226
vt 0.978654 0.016839
vt 0.921533 0.978231
vt 0.911418 0.964180
vt 0.922063 0.967868
vt 0.582574 0.527264
vt 0.202000 0.934992
vt 0.211064 0.952259
vt 0.202000 0.962458
vt 0.921662 0.536222
vt 0.928666 0.554429
vt 0.920238 0.555847
vt 0.574827 0.211817
vt 0.574827 0.240286
vt 0.564107 0.215169
vt 0.667701 0.952424
vt 0.674467 0.974728
vt 0.665327 0.962471
vt 0.955626 0.299400
vt 0.381158 0.229745
vt 0.388908 0.229279
vt 0.387201 0.239096
vt 0.433170 0.229385
vt 0.433282 0.240157
vt 0.423573 0.232015
vt 0.477533 0.240376
vt 0.472290 0.236666
vt 0.475882 0.225449
vt 0.334651 0.706680
vt 0.973712 0.714766
vt 0.981693 0.705350
vt 0.981693 0.722504
vt 0.305849 0.930938
vt 0.908930 0.853972
vt 0.904578 0.839076
vt 0.913708 0.841711
vt 0.570000 0.005107
vt 0.645740 0.652769
vt 0.610501 0.654445
vt 0.631716 0.642699
vt 0.659999 0.618662
vt 0.654114 0.598151
vt 0.586664 0.661602
vt 0.598555 0.669502
vt 0.870851 0.003989
vt 0.810506 0.033692
vt 0.811606 0.001402
vt 0.631523 0.204284
vt 0.691974 0.394717
vt 0.270018 0.956061
vt 0.279025 0.971867
vt 0.262402 0.968522
vt 0.700433 0.924488
vt 0.016238 0.980032
vt 0.024881 0.978701
vt 0.017793 0.990432
vt 0.757632 0.439255
vt 0.896331 0.547318
vt 0.908551 0.531831
vt 0.908541 0.554476
vt 0.013994 0.960940
vt 0.018627 0.975912
vt 0.008103 0.973519
vt 0.958870 0.170816
vt 0.647215 0.442362
vt 0.572707 0.987587
vt 0.563118 0.989953
vt 0.560869 0.974878
vt 0.699357 0.374469
vt 0.706913 0.371423
vt 0.688383 0.233800
vt 0.701704 0.238750
vt 0.957047 0.295019
vt 0.957047 0.281256
vt 0.966475 0.290987
vt 0.139362 0.288050
vt 0.138176 0.280971
vt 0.123411 0.292178
vt 0.470844 0.962831
vt 0.478708 0.952135
vt 0.478708 0.974237
vt 0.916516 0.072790
vt 0.926237 0.085907
vt 0.911174 0.096694
vt 0.981696 0.303595
vt 0.987968 0.313124
vt 0.979432 0.312691
vt 0.162680 0.276810
vt 0.953944 0.987567
vt 0.963523 0.978199
vt 0.962467 0.987649
vt 0.874094 0.077236
vt 0.882084 0.092933
vt 0.875578 0.093824
vt 0.156073 0.423252
vt 0.615399 0.239793
vt 0.144160 0.413880
vt 0.895896 0.080716
vt 0.891926 0.093961
vt 0.893654 0.069476
vt 0.874439 0.013970
vt 0.882559 0.010902
vt 0.880177 0.057202
vt 0.960173 0.938984
vt 0.963675 0.970092
vt 0.942682 0.959799
vt 0.545065 0.959448
vt 0.556870 0.976000
vt 0.542051 0.967937
vt 0.954970 0.376749
vt 0.964202 0.396047
vt 0.953585 0.400209
vt 0.963921 0.405712
vt 0.972854 0.426105
vt 0.963921 0.428194
vt 0.872455 0.920125
vt 0.190665 0.686736
vt 0.199210 0.694884
vt 0.927923 0.642817
vt 0.917365 0.705662
vt 0.918214 0.642503
vt 0.183719 0.431207
vt 0.932084 0.401863
vt 0.730490 0.857357
vt 0.667566 0.885933
vt 0.667288 0.855163
vt 0.668438 0.826845
vt 0.730349 0.823845
vt 0.423820 0.793967
vt 0.487164 0.793101
vt 0.424103 0.677273
vt 0.489993 0.679370
vt 0.813872 0.247944
vt 0.879059 0.243433
vt 0.986767 0.059505
vt 0.995080 0.048725
vt 0.995080 0.060073
vt 0.211190 0.988316
vt 0.202000 0.995891
vt 0.202673 0.985733
vt 0.164654 0.811651
vt 0.155029 0.851115
vt 0.154559 0.808176
vt 0.869855 0.228778
vt 0.987761 0.604784
vt 0.987761 0.620473
vt 0.976741 0.607575
vt 0.358076 0.481560
vt 0.367389 0.484483
vt 0.952563 0.906428
vt 0.959222 0.904812
vt 0.955489 0.918150
vt 0.144604 0.853038
vt 0.158137 0.874628
vt 0.149857 0.879640
vt 0.294640 0.974928
vt 0.294640 0.990061
vt 0.283841 0.982512
vt 0.079283 0.954134
vt 0.083271 0.971149
vt 0.074011 0.969693
vt 0.989617 0.539830
vt 0.989617 0.554923
vt 0.979225 0.548821
vt 0.171170 0.976420
vt 0.173809 0.987736
vt 0.165976 0.989223
vt 0.457561 0.627024
vt 0.459110 0.608412
vt 0.882180 0.536280
vt 0.888490 0.555989
vt 0.877646 0.546632
vt 0.745494 0.245181
vt 0.867243 0.460574
vt 0.952906 0.670380
vt 0.951131 0.644188
vt 0.958747 0.642872
vt 0.426088 0.646362
vt 0.437871 0.649153
vt 0.798478 0.646128
vt 0.957047 0.278466
vt 0.957047 0.246270
vt 0.968550 0.264164
vt 0.056092 0.989431
vt 0.068468 0.976970
vt 0.068062 0.988778
vt 0.469501 0.222759
vt 0.469501 0.240156
vt 0.457051 0.232702
vt 0.589325 0.990090
vt 0.576147 0.979848
vt 0.590663 0.974915
vt 0.820384 0.980592
vt 0.818095 0.965304
vt 0.832620 0.977789
vt 0.559039 0.785517
vt 0.952078 0.599596
vt 0.965246 0.569853
vt 0.964351 0.601995
vt 0.088317 0.706443
vt 0.130427 0.727380
vt 0.116652 0.721675
vt 0.146511 0.735760
vt 0.958467 0.794276
vt 0.221302 0.736192
vt 0.284175 0.803662
vt 0.221199 0.803862
vt 0.065990 0.269624
vt 0.792645 0.178480
vt 0.801079 0.236657
vt 0.790639 0.237918
vt 0.219383 0.692951
vt 0.278900 0.710247
vt 0.278710 0.889364
vt 0.056092 0.972214
vt 0.976020 0.032407
vt 0.907079 0.964180
vt 0.983388 0.226867
vt 0.962509 0.548921
vt 0.982115 0.918214
vt 0.339037 0.127833
vt 0.534823 0.767478
vt 0.913606 0.408118
vt 0.592319 0.953088
vt 0.512471 0.655904
vt 0.039624 0.949510
vt 0.946996 0.163278
vt 0.911418 0.982432
vt 0.206174 0.926607
vt 0.928666 0.529253
vt 0.337675 0.689118
vt 0.292230 0.944826
vt 0.630392 0.004646
vt 0.308585 0.624985
vt 0.565125 0.208193
vt 0.671242 0.401379
vt 0.468787 0.954179
vt 0.987968 0.298007
vt 0.953944 0.972385
vt 0.883466 0.075424
vt 0.150085 0.429001
vt 0.556870 0.951204
vt 0.974170 0.402999
vt 0.872395 0.866317
vt 0.932736 0.705936
vt 0.728675 0.887172
vt 0.986047 0.049653
vt 0.807241 0.244444
vt 0.808677 0.461535
vt 0.056092 0.975058
vt 0.576408 0.990090
vt 0.952076 0.558910
vt 0.970278 0.801248
s 1
usemtl tripo_mat_6e77566e-703d-4834-b4a5-99b314536f99
f 16/1/1 58/2/2 17/3/3
f 50/4/4 56/5/5 23/6/6
f 28/7/7 53/8/8 51/9/9
f 39/10/10 59/11/11 65/12/12
f 15/13/13 19/14/14 41/15/15
f 80/16/16 65/12/12 42/17/17
f 73/18/18 74/19/19 47/20/20
f 77/21/21 61/22/22 56/23/5
f 78/24/23 66/25/24 45/26/25
f 67/27/26 70/28/27 78/29/23
f 70/30/27 80/31/16 63/32/28
f 67/33/26 68/34/29 80/31/16
f 82/35/30 68/36/29 71/37/31
f 82/35/30 74/19/19 83/38/32
f 84/39/33 51/9/9 53/8/8
f 68/36/29 46/40/34 72/41/35
f 68/36/29 48/42/36 46/40/34
f 75/43/37 49/44/38 48/42/36
f 79/45/39 69/46/40 77/47/21
f 59/48/11 14/49/41 87/50/42
f 87/51/42 71/52/31 72/41/35
f 94/53/43 92/54/44 93/55/45
f 96/56/46 161/57/47 109/58/48
f 107/59/49 97/60/50 95/61/51
f 116/62/52 127/63/52 115/64/52
f 142/65/53 135/66/54 140/67/55
f 89/68/56 140/69/55 135/70/54
f 143/71/57 140/69/55 89/68/56
f 142/72/53 140/73/55 144/74/58
f 141/75/59 97/76/50 134/77/60
f 103/78/61 149/79/62 153/80/63
f 110/81/64 136/82/65 141/83/59
f 97/76/50 141/75/59 136/84/65
f 110/85/64 141/86/59 154/87/66
f 155/88/67 154/87/66 141/86/59
f 152/89/68 155/90/67 153/91/63
f 156/92/69 157/93/70 158/94/71
f 160/95/72 144/96/58 161/97/47
f 143/98/57 161/97/47 144/96/58
f 144/96/58 140/99/55 143/98/57
f 154/100/66 136/101/65 110/102/64
f 150/103/73 134/104/60 97/105/50
f 89/106/56 90/107/74 109/58/48
f 116/108/75 127/109/76 114/110/77
f 190/111/78 179/112/79 165/113/80
f 174/114/81 193/115/82 183/116/83
f 193/117/82 177/118/84 176/119/85
f 169/120/86 163/121/87 189/122/88
f 188/123/89 163/121/87 169/120/86
f 188/123/89 162/124/90 163/121/87
f 181/125/91 185/126/92 195/127/93
f 185/128/92 197/129/94 172/130/95
f 200/131/96 199/132/97 162/133/90
f 184/134/98 194/135/99 178/136/100
f 198/137/101 199/138/97 200/139/96
f 200/139/96 186/140/102 198/137/101
f 189/141/88 177/142/84 198/143/101
f 198/143/101 186/144/102 189/141/88
f 184/145/98 197/146/94 196/147/103
f 197/148/94 184/149/98 172/150/95
f 254/151/104 223/152/105 211/153/106
f 231/154/107 234/155/108 259/156/109
f 222/157/110 260/158/111 243/159/112
f 245/160/113 265/161/114 264/162/115
f 272/163/116 284/164/117 273/165/118
f 250/166/119 206/167/120 274/168/121
f 273/169/118 274/170/121 271/171/122
f 224/172/123 266/173/124 264/174/115
f 217/175/125 267/176/126 266/177/124
f 268/178/127 264/162/115 267/179/126
f 268/180/127 233/181/128 246/182/129
f 230/183/130 246/184/129 233/185/128
f 259/186/109 245/187/113 263/188/131
f 285/189/132 277/190/133 276/191/134
f 277/192/133 274/170/121 275/193/135
f 274/170/121 287/194/136 286/195/137
f 279/196/138 217/197/125 254/198/104
f 213/199/139 207/200/140 204/201/141
f 329/202/142 293/203/143 292/204/144
f 302/205/145 331/206/146 312/207/147
f 311/208/148 310/209/149 307/210/150
f 299/211/151 344/212/152 313/213/153
f 338/214/154 313/213/153 314/215/155
f 331/216/146 328/217/156 336/218/157
f 341/219/158 343/220/159 344/221/152
f 342/222/160 341/219/158 344/221/152
f 329/223/142 322/224/161 340/225/162
f 329/223/142 330/226/163 322/224/161
f 346/227/164 310/228/149 345/229/165
f 346/230/164 345/231/165 323/232/166
f 349/233/167 351/234/168 350/235/169
f 350/236/169 322/237/161 339/238/170
f 330/239/163 339/238/170 322/237/161
f 341/240/158 322/241/161 350/235/169
f 334/242/171 344/243/152 348/244/172
f 323/245/166 335/246/173 325/247/174
f 336/218/157 328/217/156 335/248/173
f 353/249/175 352/250/176 331/216/146
f 352/251/176 351/252/168 332/253/177
f 351/252/168 337/254/178 321/255/179
f 397/256/180 371/257/181 358/258/182
f 366/259/183 411/260/184 370/261/185
f 375/262/186 413/263/187 384/264/188
f 383/265/189 385/266/190 390/267/191
f 369/268/192 415/269/193 357/270/194
f 414/271/195 405/272/196 412/273/197
f 412/273/197 395/274/198 414/271/195
f 415/275/193 395/276/198 356/277/199
f 355/278/200 356/277/199 395/276/198
f 409/279/201 393/280/202 395/274/198
f 415/281/193 410/282/203 409/279/201
f 406/283/204 413/284/187 405/285/196
f 388/286/205 413/284/187 406/283/204
f 380/287/206 378/288/207 379/289/208
f 379/290/208 378/291/207 419/292/209
f 359/293/210 376/294/211 392/295/212
f 408/296/213 378/297/207 417/298/214
f 421/299/215 411/300/184 394/301/216
f 411/302/184 359/303/210 394/304/216
f 354/305/217 358/306/182 393/307/202
f 407/308/218 404/309/219 417/310/214
f 416/311/220 405/272/196 404/309/219
f 414/271/195 417/312/214 405/272/196
f 415/269/193 369/268/192 410/313/203
f 359/314/210 411/260/184 366/259/183
f 399/315/221 391/316/222 383/317/189
f 23/318/6 8/319/223 24/320/224
f 1/321/225 2/322/226 27/323/227
f 4/324/228 2/325/226 26/326/229
f 2/327/226 4/328/228 27/329/227
f 20/330/230 5/331/231 29/332/232
f 16/333/1 14/334/41 38/335/233
f 16/1/1 17/3/3 14/336/41
f 22/337/234 19/14/14 15/13/13
f 6/338/235 62/339/236 24/340/224
f 62/339/236 1/341/225 52/342/237
f 43/343/238 30/344/239 80/16/16
f 44/345/240 31/346/241 43/347/238
f 65/12/12 64/348/242 39/10/10
f 32/349/243 40/350/244 38/351/233
f 42/17/17 61/352/22 80/16/16
f 50/4/4 76/353/245 56/5/5
f 76/354/245 77/21/21 56/23/5
f 45/355/25 69/46/40 78/356/23
f 63/357/28 66/25/24 78/24/23
f 78/29/23 79/358/39 67/27/26
f 70/30/27 67/33/26 80/31/16
f 80/31/16 68/34/29 64/359/242
f 71/37/31 74/19/19 82/35/30
f 5/360/231 58/361/2 47/362/20
f 71/363/31 16/364/1 53/365/8
f 53/365/8 74/366/19 71/363/31
f 73/367/18 52/368/237 83/369/32
f 51/370/9 83/369/32 52/368/237
f 84/371/33 86/372/246 82/373/30
f 84/371/33 82/373/30 83/374/32
f 81/375/247 82/373/30 86/372/246
f 85/376/248 81/377/247 86/378/246
f 85/379/248 86/380/246 40/381/244
f 79/358/39 75/43/37 68/36/29
f 79/358/39 68/36/29 67/27/26
f 68/36/29 75/43/37 48/42/36
f 49/44/38 73/18/18 48/42/36
f 83/38/32 74/19/19 73/18/18
f 77/47/21 69/46/40 45/355/25
f 72/382/35 46/383/34 15/384/13
f 87/385/42 72/386/35 15/387/13
f 6/388/235 15/384/13 48/389/36
f 88/390/249 6/391/235 48/392/36
f 48/389/36 15/384/13 46/383/34
f 15/387/13 59/393/11 87/385/42
f 88/394/249 14/395/41 20/396/230
f 88/390/249 20/397/230 6/391/235
f 61/352/22 43/343/238 80/16/16
f 21/398/250 6/338/235 24/340/224
f 57/399/251 14/400/41 17/401/3
f 58/402/2 20/330/230 12/403/252
f 118/404/253 91/405/254 92/406/44
f 143/407/57 109/58/48 161/57/47
f 99/408/255 96/56/46 94/53/43
f 95/61/51 98/409/256 103/410/61
f 99/411/255 93/412/45 100/413/257
f 100/413/257 124/414/258 125/415/259
f 103/416/61 102/417/260 101/418/261
f 103/419/61 98/420/256 106/421/262
f 116/62/75 128/422/263 127/63/76
f 124/423/258 117/424/264 125/425/259
f 145/426/265 92/427/44 90/428/74
f 124/429/258 118/430/253 137/431/266
f 90/428/74 142/432/53 158/433/71
f 90/428/74 158/433/71 145/426/265
f 146/434/267 113/435/268 127/436/76
f 121/437/269 149/438/62 103/439/61
f 150/103/73 103/78/61 153/80/63
f 149/79/62 148/440/270 151/441/271
f 151/441/271 153/80/63 149/79/62
f 153/91/63 155/90/67 150/442/73
f 150/442/73 155/90/67 141/443/59
f 152/89/68 153/91/63 151/444/271
f 154/100/66 139/445/272 136/101/65
f 154/87/66 155/88/67 138/446/273
f 159/447/274 129/448/275 138/449/273
f 138/449/273 155/450/67 159/447/274
f 159/451/274 158/94/71 142/72/53
f 142/72/53 144/74/58 159/451/274
f 129/452/275 159/453/274 160/95/72
f 128/454/263 160/455/72 125/415/259
f 160/95/72 159/456/274 144/96/58
f 146/457/267 157/458/70 156/459/69
f 156/459/69 147/460/276 146/457/267
f 150/461/73 141/462/59 134/463/60
f 125/464/259 99/465/255 100/466/257
f 128/454/263 114/467/77 113/468/268
f 163/469/87 162/470/90 168/471/277
f 166/472/278 164/473/279 167/474/280
f 166/475/278 165/476/80 179/477/79
f 190/111/281 175/478/281 179/112/281
f 171/479/282 170/480/283 191/481/284
f 176/482/85 180/483/285 193/484/82
f 193/115/82 180/485/285 181/486/91
f 169/487/86 186/488/102 188/489/89
f 195/490/93 191/491/284 181/492/91
f 195/490/93 172/130/95 191/491/284
f 172/130/95 195/490/93 185/128/92
f 181/125/91 162/133/90 199/132/97
f 185/493/92 196/147/103 197/146/94
f 172/150/95 184/149/98 191/494/284
f 192/495/286 178/496/100 194/497/99
f 194/498/99 184/499/98 177/500/84
f 184/499/98 196/501/103 177/500/84
f 196/502/103 198/143/101 177/142/84
f 200/131/96 162/133/90 188/503/89
f 198/137/101 196/147/103 199/138/97
f 189/141/88 186/144/102 169/504/86
f 196/147/103 185/493/92 199/138/97
f 200/505/96 188/489/89 186/488/102
f 187/506/287 162/124/90 165/476/80
f 190/507/78 180/508/285 179/509/79
f 206/510/120 203/511/288 248/512/289
f 203/513/288 205/514/290 248/515/289
f 250/516/119 205/517/290 206/518/120
f 207/519/140 206/520/120 248/521/289
f 209/522/291 255/523/292 253/524/293
f 213/525/139 212/526/294 256/527/295
f 218/528/296 227/529/297 220/530/298
f 218/531/296 220/532/298 221/533/299
f 221/534/299 220/535/298 217/536/125
f 229/537/300 223/152/105 220/535/298
f 220/535/298 233/538/128 256/539/295
f 237/540/301 232/541/302 235/542/303
f 233/538/128 236/543/304 234/544/108
f 258/545/305 233/546/128 234/547/108
f 243/548/112 240/549/306 244/550/307
f 284/551/117 241/552/308 242/553/309
f 202/554/310 242/555/309 257/556/311
f 283/557/312 244/558/307 241/559/308
f 246/560/129 245/160/113 268/178/127
f 262/561/313 245/160/113 246/560/129
f 268/178/127 245/160/113 264/162/115
f 272/562/116 273/169/118 271/171/122
f 273/563/118 284/564/117 250/166/119
f 276/565/134 213/566/139 256/567/295
f 275/568/135 251/569/314 277/570/133
f 273/563/118 250/166/119 274/168/121
f 269/571/315 278/572/316 270/573/317
f 270/574/317 260/575/111 265/576/114
f 267/577/126 217/197/125 279/196/138
f 230/183/130 262/578/313 246/184/129
f 263/579/131 245/160/113 262/561/313
f 231/154/107 230/580/130 238/581/318
f 259/582/109 263/583/131 230/584/130
f 263/583/131 262/585/313 230/584/130
f 259/186/109 280/586/319 245/187/113
f 232/587/302 281/588/320 280/589/319
f 284/590/117 283/557/312 241/559/308
f 284/590/117 247/591/321 250/516/119
f 247/591/321 284/590/117 201/592/322
f 283/593/312 269/594/315 282/595/323
f 269/594/315 283/593/312 271/596/122
f 268/180/127 256/597/295 233/181/128
f 235/598/303 265/576/114 260/575/111
f 287/194/136 274/170/121 277/192/133
f 277/192/133 279/599/138 287/194/136
f 285/600/132 268/178/127 277/192/133
f 287/601/136 252/602/324 286/603/137
f 252/602/324 287/601/136 249/604/325
f 253/605/293 255/606/292 278/607/316
f 207/519/140 251/608/314 206/520/120
f 217/175/125 266/177/124 224/609/123
f 203/610/288 206/611/120 205/612/290
f 240/613/306 241/614/308 244/615/307
f 325/616/174 289/617/326 304/618/327
f 291/619/328 327/620/329 324/621/330
f 329/202/142 298/622/331 293/203/143
f 290/623/332 302/624/145 303/625/333
f 332/626/177 311/627/148 312/628/147
f 317/629/334 333/630/335 320/631/336
f 333/632/335 334/633/171 320/634/336
f 333/635/335 317/636/334 318/637/337
f 334/638/171 319/639/338 320/640/336
f 320/640/336 319/639/338 318/641/337
f 309/642/339 332/626/177 334/643/171
f 321/644/179 337/645/178 319/646/338
f 342/647/160 298/622/331 329/202/142
f 341/240/158 340/648/162 322/241/161
f 345/649/165 310/650/149 308/651/340
f 323/232/166 345/231/165 347/652/341
f 347/653/341 348/654/172 353/655/175
f 348/654/172 351/234/168 353/655/175
f 351/234/168 348/654/172 350/235/169
f 348/244/172 344/243/152 343/656/159
f 334/657/171 348/658/172 345/659/165
f 347/660/341 345/659/165 348/658/172
f 350/236/169 339/238/170 338/661/154
f 348/654/172 343/662/159 350/235/169
f 351/234/168 352/663/176 353/655/175
f 347/653/341 353/655/175 336/664/157
f 347/653/341 336/664/157 323/665/166
f 327/666/329 325/247/174 335/246/173
f 326/667/342 323/245/166 325/247/174
f 328/668/156 331/669/146 327/670/329
f 327/671/329 290/672/332 324/673/330
f 335/674/173 323/675/166 336/676/157
f 353/249/175 331/216/146 336/218/157
f 352/250/176 332/677/177 331/216/146
f 351/252/168 321/255/179 332/253/177
f 351/252/168 349/678/167 337/254/178
f 325/679/174 327/680/329 291/681/328
f 304/618/327 346/682/164 325/616/174
f 339/683/170 330/684/163 293/685/143
f 307/686/150 312/687/147 311/688/148
f 297/689/343 298/690/331 299/691/151
f 356/692/199 355/693/200 397/256/180
f 354/694/217 423/695/344 356/692/199
f 423/695/344 369/696/192 356/692/199
f 361/697/345 358/698/182 371/699/181
f 373/700/346 362/701/347 396/702/348
f 382/703/349 374/704/350 375/705/186
f 383/265/189 400/706/351 399/707/221
f 391/708/222 384/709/188 387/710/352
f 386/711/353 385/712/190 389/713/354
f 402/714/355 389/715/354 385/266/190
f 391/716/222 387/717/352 388/718/205
f 417/312/214 404/309/219 405/272/196
f 414/271/195 392/719/212 408/720/213
f 408/720/213 417/312/214 414/271/195
f 393/280/202 422/721/356 395/274/198
f 369/696/192 357/722/194 356/692/199
f 397/723/180 413/263/187 373/724/346
f 395/274/198 422/721/356 414/271/195
f 417/725/214 399/726/221 418/727/357
f 407/728/218 400/729/351 377/730/358
f 407/731/218 402/732/355 404/733/219
f 402/732/355 407/731/218 377/734/358
f 398/735/359 417/298/214 378/297/207
f 359/293/210 392/295/212 394/736/216
f 392/737/212 420/738/360 394/739/216
f 408/740/213 419/292/209 378/291/207
f 420/741/360 421/742/215 394/743/216
f 422/744/356 411/745/184 421/746/215
f 360/747/361 393/748/202 358/749/182
f 360/747/361 422/750/356 393/748/202
f 422/744/356 360/751/361 411/745/184
f 393/307/202 410/752/203 423/753/344
f 423/753/344 354/305/217 393/307/202
f 369/754/192 423/753/344 410/752/203
f 421/755/215 420/756/360 422/757/356
f 400/758/351 418/727/357 399/726/221
f 416/311/220 406/759/204 405/272/196
f 409/279/201 410/282/203 393/280/202
f 362/760/347 373/761/346 374/762/350
f 383/317/189 391/316/222 403/763/362
f 367/764/363 363/765/364 380/766/206
f 3/767/365 28/768/7 1/769/225
f 4/770/228 26/771/229 27/772/227
f 7/773/366 9/774/367 54/775/368
f 23/776/6 25/777/369 8/778/223
f 12/779/252 57/780/251 17/781/3
f 13/782/370 36/783/371 41/784/15
f 86/380/246 18/785/372 60/786/373
f 53/8/8 18/785/372 86/380/246
f 38/787/233 35/788/374 18/789/372
f 56/790/5 36/791/371 19/792/14
f 22/337/234 21/398/250 54/793/368
f 62/339/236 26/794/229 2/795/226
f 62/796/236 2/797/226 1/798/225
f 23/6/6 24/340/224 62/339/236
f 62/339/236 50/4/4 23/6/6
f 56/5/5 25/799/369 23/6/6
f 21/800/250 8/801/223 25/802/369
f 30/803/239 31/804/241 44/805/240
f 43/806/238 31/807/241 30/808/239
f 39/809/10 40/810/244 32/811/243
f 65/12/12 80/16/16 64/348/242
f 33/812/375 61/813/22 42/814/17
f 37/815/376 38/335/233 40/816/244
f 38/817/233 37/818/376 35/819/374
f 35/820/374 60/821/373 18/822/372
f 59/11/11 39/10/10 32/823/243
f 59/11/11 32/823/243 38/335/233
f 77/21/21 43/824/238 61/22/22
f 66/825/24 44/345/240 43/347/238
f 80/16/16 30/344/239 63/826/28
f 73/827/18 47/828/20 71/829/31
f 78/29/23 69/830/40 79/358/39
f 82/35/30 81/831/247 68/36/29
f 52/832/237 50/833/4 62/834/236
f 83/374/32 51/835/9 84/371/33
f 84/39/33 53/8/8 86/380/246
f 40/381/244 64/348/242 85/379/248
f 70/836/27 63/357/28 78/24/23
f 71/52/31 88/837/249 73/18/18
f 87/838/42 14/395/41 88/394/249
f 57/839/251 20/396/230 14/395/41
f 20/840/230 57/841/251 12/842/252
f 108/843/377 109/844/48 90/845/74
f 58/402/2 5/331/231 20/330/230
f 100/846/257 93/847/45 92/848/44
f 93/849/45 105/850/378 94/851/43
f 105/852/378 99/853/255 94/854/43
f 108/855/377 96/856/46 109/857/48
f 136/858/65 98/409/256 95/61/51
f 99/408/255 161/57/47 96/56/46
f 102/859/260 106/860/262 98/861/256
f 101/862/261 102/863/260 98/864/256
f 101/865/261 104/866/379 121/867/269
f 101/868/261 121/869/269 103/410/61
f 103/410/61 107/59/49 95/61/51
f 123/870/380 139/871/272 111/872/381
f 129/873/275 128/454/263 113/468/268
f 116/874/75 114/875/77 128/876/263
f 112/877/382 130/878/383 133/879/384
f 124/414/258 137/880/266 126/881/385
f 126/882/385 125/883/259 117/884/264
f 139/885/272 123/886/380 122/887/386
f 146/434/267 127/436/76 126/882/385
f 130/888/383 132/889/387 129/890/275
f 131/891/388 148/892/270 149/893/62
f 120/894/389 149/893/62 121/869/269
f 95/895/51 97/896/50 136/897/65
f 159/451/274 155/90/67 152/89/68
f 154/100/66 138/898/273 139/445/272
f 128/899/263 129/900/275 160/901/72
f 89/106/56 109/58/48 143/407/57
f 150/103/73 97/105/50 103/78/61
f 123/902/380 120/903/389 119/904/390
f 99/905/255 105/906/378 93/907/45
f 131/908/388 111/909/381 133/910/384
f 111/911/381 132/912/387 133/913/384
f 117/884/264 124/914/258 126/882/385
f 120/894/389 121/869/269 122/915/386
f 187/506/287 164/916/279 189/122/88
f 162/470/90 187/917/287 168/471/277
f 165/918/80 167/919/280 164/920/279
f 168/921/277 187/922/287 189/923/88
f 189/122/88 164/916/279 166/475/278
f 180/485/285 165/476/80 162/124/90
f 190/924/78 165/476/80 180/485/285
f 167/925/280 165/926/80 166/927/278
f 174/928/81 183/929/83 173/930/391
f 182/931/392 173/932/391 170/933/283
f 166/934/278 179/935/79 176/936/85
f 194/937/99 182/938/392 192/939/286
f 181/486/91 180/485/285 162/124/90
f 184/149/98 178/940/100 191/494/284
f 192/495/286 191/941/284 178/496/100
f 193/115/82 181/942/91 183/116/83
f 168/943/277 189/944/88 163/945/87
f 242/946/309 202/947/310 201/592/322
f 247/948/321 201/949/322 214/950/393
f 209/522/291 201/592/322 202/947/310
f 250/516/119 247/591/321 205/517/290
f 215/951/394 213/952/139 208/953/395
f 254/151/104 211/153/106 208/954/395
f 253/955/293 210/956/396 214/957/393
f 247/591/321 214/958/393 210/959/396
f 229/537/300 212/960/294 211/961/106
f 213/525/139 215/962/394 212/526/294
f 202/963/310 257/964/311 209/965/291
f 228/966/397 221/534/299 217/536/125
f 219/967/398 223/968/105 229/969/300
f 225/970/399 228/966/397 224/971/123
f 220/535/298 223/152/105 217/536/125
f 228/966/397 217/536/125 224/971/123
f 227/972/297 226/973/400 233/538/128
f 225/970/399 226/973/400 227/972/297
f 220/535/298 227/972/297 233/538/128
f 228/974/397 225/975/399 227/976/297
f 229/537/300 220/535/298 256/539/295
f 256/539/295 212/960/294 229/537/300
f 237/977/301 222/978/110 232/979/302
f 236/980/304 225/970/399 234/544/108
f 258/981/305 238/982/318 233/983/128
f 244/558/307 222/157/110 243/159/112
f 239/984/401 241/985/308 240/986/306
f 257/964/311 239/987/401 209/965/291
f 255/523/292 209/522/291 239/988/401
f 283/557/312 222/157/110 244/558/307
f 267/179/126 264/162/115 266/989/124
f 278/572/316 269/571/315 271/171/122
f 232/587/302 280/589/319 234/155/108
f 280/589/319 259/156/109 234/155/108
f 276/191/134 277/190/133 251/990/314
f 223/991/105 254/992/104 217/993/125
f 245/160/113 261/994/402 269/571/315
f 207/995/140 248/996/289 204/997/141
f 204/998/141 248/999/289 249/1000/325
f 324/1001/330 288/1002/403 291/1003/328
f 324/1004/330 290/1005/332 288/1006/403
f 289/1007/326 291/1008/328 288/1009/403
f 295/1010/404 296/1011/405 293/1012/143
f 298/622/331 297/1013/343 339/1014/170
f 301/1015/406 302/1016/145 312/1017/147
f 300/1018/407 301/1019/406 306/1020/408
f 304/1021/327 290/1022/332 303/1023/333
f 305/1024/409 304/1025/327 303/1026/333
f 310/1027/149 311/1028/148 308/1029/340
f 332/626/177 309/642/339 311/627/148
f 344/212/152 315/1030/410 313/213/153
f 51/9/9 1/341/225 28/7/7
f 334/638/171 308/1031/340 309/1032/339
f 333/1033/335 318/1034/337 314/1035/155
f 315/1036/410 314/1037/155 316/1038/411
f 315/1039/410 316/1040/411 313/1041/153
f 338/214/154 314/215/155 318/1042/337
f 334/1043/171 333/1044/335 344/212/152
f 343/662/159 341/240/158 350/235/169
f 335/1045/173 328/1046/156 327/1047/329
f 332/1048/177 312/1049/147 331/1050/146
f 293/203/143 298/622/331 339/1014/170
f 312/1049/147 307/1051/150 310/1052/149
f 310/1053/149 300/1054/407 306/1055/408
f 297/1056/343 299/1057/151 339/1058/170
f 397/256/180 358/258/182 354/694/217
f 361/1059/345 368/1060/412 358/1061/182
f 361/1062/345 372/1063/413 368/1064/412
f 374/762/350 396/1065/348 362/760/347
f 381/1066/414 365/1067/415 367/1068/363
f 360/1069/361 358/258/182 368/1070/412
f 367/1071/363 380/1072/206 376/1073/211
f 370/1074/185 363/1075/364 367/1076/363
f 371/257/181 397/256/180 372/1077/413
f 373/1078/346 368/1070/412 372/1077/413
f 378/1079/207 382/1080/349 375/1081/186
f 381/1082/414 367/1071/363 376/1073/211
f 386/1083/353 390/1084/191 385/1085/190
f 413/263/187 387/717/352 384/264/188
f 377/1086/358 390/267/191 386/1087/353
f 388/718/205 387/717/352 413/263/187
f 355/1088/200 412/1089/197 397/1090/180
f 397/1091/180 373/1092/346 372/1093/413
f 409/279/201 395/274/198 415/281/193
f 418/1094/357 400/1095/351 407/1096/218
f 418/1097/357 407/1098/218 417/1099/214
f 399/726/221 417/725/214 398/1100/359
f 376/1101/211 380/287/206 379/289/208
f 379/290/208 392/1102/212 376/1103/211
f 419/292/209 408/740/213 392/1104/212
f 402/714/355 403/1105/362 401/1106/416
f 378/1079/207 380/1107/206 382/1080/349
f 374/1108/350 382/1109/349 380/287/206
f 396/1110/348 363/1111/364 360/1069/361
f 354/694/217 356/692/199 397/256/180
f 8/801/223 21/800/250 24/1112/224
f 5/1113/231 28/1114/7 29/1115/232
f 1/1116/225 29/1117/232 3/1118/365
f 3/1119/365 29/1120/232 28/1121/7
f 10/1122/417 7/1123/366 55/1124/418
f 25/799/369 54/793/368 21/398/250
f 54/1125/368 10/1126/417 22/1127/234
f 7/1128/366 25/799/369 56/5/5
f 19/1129/14 13/1130/370 41/1131/15
f 55/1132/418 22/1133/234 10/1134/417
f 13/1135/370 19/1136/14 36/1137/371
f 17/3/3 58/2/2 12/1138/252
f 16/333/1 18/785/372 53/1139/8
f 59/1140/11 38/1141/233 14/1142/41
f 56/790/5 55/1143/418 7/1144/366
f 19/14/14 22/337/234 55/1145/418
f 56/790/5 61/1146/22 36/791/371
f 6/338/235 22/337/234 15/1147/13
f 20/1148/230 26/1149/229 6/1150/235
f 62/339/236 6/338/235 26/794/229
f 29/1151/232 27/323/227 20/1152/230
f 34/1153/419 61/1154/22 33/1155/375
f 64/348/242 40/381/244 39/10/10
f 36/1156/371 65/12/12 41/15/15
f 34/1157/419 42/1158/17 65/1159/12
f 40/1160/244 60/1161/373 37/1162/376
f 37/1163/376 60/1164/373 35/1165/374
f 15/13/13 65/12/12 59/11/11
f 63/1166/28 44/1167/240 66/1168/24
f 45/1169/25 43/824/238 77/21/21
f 75/1170/37 77/47/21 76/1171/245
f 47/1172/20 53/1173/8 5/1174/231
f 72/41/35 71/52/31 68/36/29
f 16/1175/1 47/362/20 58/361/2
f 50/1176/4 73/367/18 49/1177/38
f 68/1178/29 85/376/248 64/1179/242
f 75/1170/37 50/1180/4 49/1181/38
f 94/53/43 90/107/74 92/54/44
f 73/18/18 88/837/249 48/42/36
f 71/52/31 87/51/42 88/837/249
f 90/1182/74 96/1183/46 108/1184/377
f 91/1185/254 100/1186/257 92/1187/44
f 118/1188/253 100/1189/257 91/1190/254
f 136/858/65 139/1191/272 98/409/256
f 101/1192/261 139/1193/272 122/1194/386
f 137/1195/266 145/1196/265 126/1197/385
f 101/1198/261 122/1199/386 104/1200/379
f 104/1201/379 122/1202/386 121/1203/269
f 106/1204/262 102/417/260 103/416/61
f 103/410/61 97/60/50 107/59/49
f 133/1205/384 132/1206/387 112/1207/382
f 132/1208/387 130/1209/383 112/1210/382
f 137/1211/266 118/1212/253 92/1213/44
f 125/415/259 127/1214/76 128/454/263
f 119/1215/390 122/1216/386 123/1217/380
f 132/889/387 139/1218/272 129/890/275
f 129/1219/275 139/1220/272 138/1221/273
f 89/1222/56 142/432/53 90/428/74
f 146/1223/267 130/1224/383 113/1225/268
f 145/1226/265 146/1223/267 126/1227/385
f 133/1228/384 148/892/270 131/891/388
f 147/1229/276 133/1228/384 130/1224/383
f 148/1230/270 152/1231/68 151/1232/271
f 120/894/389 131/891/388 149/893/62
f 147/460/276 156/459/69 152/1231/68
f 156/92/69 159/451/274 152/89/68
f 160/455/72 99/411/255 125/415/259
f 157/1233/70 145/426/265 158/433/71
f 123/902/380 131/908/388 120/903/389
f 174/114/81 177/1234/84 193/115/82
f 129/1235/275 113/1236/268 130/1237/383
f 114/1238/77 127/436/76 113/435/268
f 122/1239/386 119/1240/390 120/1241/389
f 187/506/287 165/476/80 164/916/279
f 191/941/284 192/495/286 171/1242/282
f 192/1243/286 182/1244/392 171/1245/282
f 183/1246/83 170/1247/283 173/1248/391
f 171/479/282 182/1249/392 170/480/283
f 182/931/392 177/1234/84 173/932/391
f 170/933/283 181/942/91 191/1250/284
f 180/1251/285 176/1252/85 179/1253/79
f 177/1254/84 166/475/278 176/1255/85
f 199/132/97 185/126/92 181/125/91
f 213/1256/139 249/1000/325 208/1257/395
f 201/1258/322 253/1259/293 214/1260/393
f 252/1261/324 210/959/396 253/524/293
f 248/1262/289 252/1261/324 249/1263/325
f 212/1264/294 208/1265/395 211/1266/106
f 248/1267/289 205/1268/290 210/1269/396
f 216/1270/420 223/1271/105 219/1272/398
f 253/524/293 201/592/322 209/522/291
f 210/959/396 205/1273/290 247/591/321
f 229/1274/300 216/1275/420 219/1276/398
f 227/1277/297 221/1278/299 228/1279/397
f 237/1280/301 260/158/111 222/157/110
f 225/970/399 236/980/304 226/973/400
f 238/982/318 258/981/305 231/1281/107
f 259/156/109 230/580/130 231/154/107
f 235/1282/303 234/155/108 225/970/399
f 238/1283/318 230/1284/130 233/1285/128
f 226/973/400 236/543/304 233/538/128
f 222/1286/110 283/1287/312 232/1288/302
f 234/1289/108 231/1290/107 258/1291/305
f 257/1292/311 241/1293/308 239/1294/401
f 239/1295/401 240/1296/306 243/1297/112
f 255/1298/292 243/1299/112 260/1300/111
f 265/161/114 269/571/315 270/573/317
f 275/568/135 206/1301/120 251/569/314
f 213/566/139 251/1302/314 207/1303/140
f 285/189/132 256/597/295 268/180/127
f 265/1304/114 225/1305/399 264/1306/115
f 282/1307/323 232/587/302 283/557/312
f 225/1308/399 224/172/123 264/174/115
f 283/593/312 272/163/116 271/596/122
f 242/946/309 201/592/322 284/590/117
f 281/1309/320 269/1310/315 261/1311/402
f 281/1309/320 245/1312/113 280/1313/319
f 278/572/316 274/170/121 286/195/137
f 270/1314/317 255/606/292 260/1315/111
f 253/605/293 286/1316/137 252/1317/324
f 268/178/127 279/599/138 277/192/133
f 279/196/138 249/1318/325 287/1319/136
f 296/1320/405 292/1321/144 294/1322/421
f 254/151/104 208/954/395 249/1263/325
f 288/1323/403 290/1324/332 289/1325/326
f 290/1326/332 304/1327/327 289/1328/326
f 291/681/328 289/1329/326 325/679/174
f 292/1330/144 293/1331/143 294/1332/421
f 292/204/144 330/1333/163 329/202/142
f 339/1014/170 313/213/153 338/214/154
f 330/1333/163 295/1334/404 293/203/143
f 296/1335/405 294/1336/421 293/1337/143
f 346/1338/164 300/1339/407 310/1340/149
f 302/1016/145 300/1339/407 304/1327/327
f 302/205/145 327/671/329 331/206/146
f 318/1042/337 337/645/178 338/214/154
f 303/1341/333 302/1342/145 305/1343/409
f 305/1344/409 302/1345/145 304/1346/327
f 301/1347/406 312/1348/147 306/1349/408
f 306/1350/408 312/1351/147 310/1352/149
f 309/1353/339 308/651/340 311/1354/148
f 344/212/152 333/1044/335 315/1030/410
f 333/1044/335 314/215/155 315/1030/410
f 317/1355/334 320/1356/336 318/1357/337
f 329/1358/142 341/219/158 342/222/160
f 342/647/160 299/211/151 298/622/331
f 349/678/167 338/1359/154 337/254/178
f 345/649/165 308/651/340 334/1043/171
f 346/1360/164 326/1361/342 325/1362/174
f 321/644/179 334/1363/171 332/1364/177
f 326/1365/342 346/230/164 323/232/166
f 314/1366/155 313/1367/153 316/1368/411
f 396/1110/348 368/1070/412 373/1078/346
f 381/1369/414 364/1370/422 365/1371/415
f 371/1372/181 372/1373/413 361/1374/345
f 367/1375/363 364/1376/422 370/1377/185
f 366/1378/183 370/1379/185 364/1380/422
f 359/314/210 381/1381/414 376/1101/211
f 411/1382/184 363/1383/364 370/1384/185
f 373/724/346 375/262/186 374/1385/350
f 375/262/186 398/1386/359 378/1387/207
f 380/287/206 396/1110/348 374/1108/350
f 398/1386/359 391/1388/222 399/707/221
f 389/715/354 377/1086/358 386/1087/353
f 403/763/362 385/1389/190 383/317/189
f 388/718/205 403/1105/362 391/716/222
f 377/1086/358 383/265/189 390/267/191
f 416/1390/220 388/1391/205 406/1392/204
f 395/1393/198 412/1089/197 355/1088/200
f 415/1394/193 356/1395/199 357/1396/194
f 416/1390/220 404/1397/219 401/1398/416
f 422/721/356 392/719/212 414/271/195
f 402/732/355 401/1399/416 404/733/219
f 419/292/209 392/1102/212 379/290/208
f 397/1090/180 405/285/196 413/284/187
f 400/706/351 383/265/189 377/1086/358
f 51/9/9 52/342/237 1/341/225
f 5/1113/231 53/1400/8 28/1114/7
f 10/1122/417 9/1401/367 7/1123/366
f 25/799/369 7/1128/366 54/793/368
f 54/1125/368 9/1402/367 10/1126/417
f 19/1129/423 11/1403/423 13/1130/423
f 16/333/1 38/335/233 18/785/372
f 56/790/5 19/792/14 55/1143/418
f 6/338/235 21/398/250 22/337/234
f 20/1148/230 27/1404/227 26/1149/229
f 29/1151/232 1/321/225 27/323/227
f 34/1153/419 65/1405/12 61/1154/22
f 36/1156/371 61/1406/22 65/12/12
f 34/1157/419 33/1407/375 42/1158/17
f 40/1160/244 86/1408/246 60/1161/373
f 15/13/13 41/15/15 65/12/12
f 63/1166/28 30/1409/239 44/1167/240
f 45/1169/25 66/1410/24 43/824/238
f 75/1170/37 79/45/39 77/47/21
f 47/1172/20 74/1411/19 53/1173/8
f 16/1175/1 71/1412/31 47/362/20
f 50/1176/4 52/368/237 73/367/18
f 68/1178/29 81/377/247 85/376/248
f 75/1170/37 76/1171/245 50/1180/4
f 94/53/43 96/56/46 90/107/74
f 118/1188/253 124/1413/258 100/1189/257
f 101/1192/261 98/1414/256 139/1193/272
f 137/1195/266 92/1415/44 145/1196/265
f 125/415/259 126/1416/385 127/1214/76
f 132/889/387 111/1417/381 139/1218/272
f 89/1222/56 135/1418/54 142/432/53
f 146/1223/267 147/1229/276 130/1224/383
f 133/1228/384 147/1229/276 148/892/270
f 148/1230/270 147/460/276 152/1231/68
f 156/92/69 158/94/71 159/451/274
f 160/455/72 161/1419/47 99/411/255
f 157/1233/70 146/1420/267 145/426/265
f 123/902/380 111/909/381 131/908/388
f 174/114/81 173/932/391 177/1234/84
f 182/931/392 194/1421/99 177/1234/84
f 170/933/283 183/116/83 181/942/91
f 177/1254/84 189/122/88 166/475/278
f 213/1256/139 204/998/141 249/1000/325
f 252/1261/324 248/1262/289 210/959/396
f 212/1264/294 215/1422/394 208/1265/395
f 216/1270/420 211/1423/106 223/1271/105
f 229/1274/300 211/1424/106 216/1275/420
f 227/1277/297 218/1425/296 221/1278/299
f 237/1280/301 235/1282/303 260/158/111
f 235/1282/303 232/1426/302 234/155/108
f 257/1292/311 242/1427/309 241/1293/308
f 255/1298/292 239/1428/401 243/1299/112
f 265/161/114 245/160/113 269/571/315
f 275/568/135 274/1429/121 206/1301/120
f 213/566/139 276/565/134 251/1302/314
f 285/189/132 276/191/134 256/597/295
f 265/1304/114 235/1430/303 225/1305/399
f 282/1307/323 281/588/320 232/587/302
f 283/593/312 284/164/117 272/163/116
f 281/1309/320 282/1431/323 269/1310/315
f 281/1309/320 261/1311/402 245/1312/113
f 278/572/316 271/171/122 274/170/121
f 270/1314/317 278/607/316 255/606/292
f 253/605/293 278/607/316 286/1316/137
f 268/178/127 267/179/126 279/599/138
f 279/196/138 254/198/104 249/1318/325
f 296/1320/405 295/1432/404 292/1321/144
f 292/204/144 295/1334/404 330/1333/163
f 339/1014/170 299/211/151 313/213/153
f 346/1338/164 304/1327/327 300/1339/407
f 302/1016/145 301/1015/406 300/1339/407
f 302/205/145 290/672/332 327/671/329
f 318/1042/337 319/646/338 337/645/178
f 329/1358/142 340/1433/162 341/219/158
f 342/647/160 344/212/152 299/211/151
f 349/678/167 350/1434/169 338/1359/154
f 321/644/179 319/646/338 334/1363/171
f 396/1110/348 360/1069/361 368/1070/412
f 381/1369/414 366/1435/183 364/1370/422
f 367/1375/363 365/1436/415 364/1376/422
f 359/314/210 366/259/183 381/1381/414
f 411/1382/184 360/1437/361 363/1383/364
f 373/724/346 413/263/187 375/262/186
f 375/262/186 384/264/188 398/1386/359
f 380/287/206 363/1111/364 396/1110/348
f 398/1386/359 384/264/188 391/1388/222
f 389/715/354 402/714/355 377/1086/358
f 403/763/362 402/1438/355 385/1389/190
f 388/718/205 401/1106/416 403/1105/362
f 416/1390/220 401/1398/416 388/1391/205
f 422/721/356 420/741/360 392/719/212
f 397/1090/180 412/1089/197 405/285/196
