# Blender 4.3.2
# www.blender.org
mtllib Caballo4.mtl
o Caballo4
v -0.080522 5.319069 0.018445
v 0.001426 2.608330 0.016511
v -0.014777 5.319831 -0.082089
v 0.072857 5.318844 -0.028378
v -0.080804 -0.314768 0.071952
v -0.073235 1.842416 0.053817
v -0.015848 2.597383 -0.004586
v 0.073520 1.843003 0.034737
v -0.007239 1.816355 -0.081986
v -0.008333 -0.314813 -0.082460
v 0.081957 -0.314780 0.018996
v -0.084175 5.330630 0.040196
v 0.022511 5.324087 0.006043
v -0.012464 2.846480 0.965626
v 0.349880 2.763541 0.762579
v 0.378562 2.638887 1.321644
v 0.105910 2.667399 1.478871
v 0.417469 2.092070 1.373905
v 0.624641 2.214659 0.889867
v 0.098064 2.114822 1.469807
v -0.063929 1.713427 0.271888
v -0.108642 1.810538 0.617041
v 0.274173 1.873748 0.331966
v 0.495754 2.170352 0.356793
v 0.146963 1.771011 0.716573
v 0.274816 1.286937 1.108688
v 0.396764 1.258759 1.282160
v 0.198876 1.743890 1.074918
v 0.343093 1.648758 1.142794
v 0.003734 2.565798 1.473792
v 0.223922 1.756327 0.172033
v 0.443775 2.223969 0.140330
v 0.316781 2.855799 -0.238752
v 0.235432 1.239857 1.409847
v 0.245180 0.848200 0.738497
v 0.278508 0.981565 0.614770
v 0.414926 0.736375 0.730722
v 0.259340 0.466444 0.576910
v 0.134483 0.630241 0.786369
v -0.056800 2.809767 1.624007
v 0.099613 2.757246 1.637768
v -0.084383 2.630584 1.489170
v 0.012096 2.346701 1.686416
v 0.044997 2.521203 2.079887
v -0.086687 2.627931 1.990194
v 0.062606 2.080063 2.027682
v -0.011457 1.750079 1.600989
v 0.077132 1.725482 0.024674
v 0.491514 1.957637 -0.411978
v 0.128196 1.758790 -0.570796
v 0.139785 2.906866 -0.369655
v 0.145731 2.871580 -1.050425
v 0.251951 3.320822 -0.984413
v 0.060556 2.284942 -1.024072
v 0.066052 3.472300 -0.891037
v 0.147297 2.758736 -1.130538
v 0.138846 2.564528 -1.234406
v -0.008970 2.508965 -1.131292
v 0.166093 2.459482 -1.245613
v -0.003323 2.274562 -1.278285
v -0.015016 2.272403 -1.181892
v 0.087456 2.409748 -1.424104
v 0.189982 2.986235 -1.451528
v 0.102154 3.478199 -1.540264
v 0.168760 3.256037 -1.623682
v 0.063439 3.094345 -1.699618
v -0.071018 1.704429 -0.056416
v 0.072064 1.872740 -0.813937
v 0.262939 1.575921 -1.358702
v 0.301237 1.506938 -1.136170
v 0.370081 1.056479 -0.833698
v 0.182398 1.094511 -0.835639
v 0.256768 0.998873 -1.078897
v 0.270869 0.874433 -0.571409
v 0.181338 1.533672 -1.188360
v 0.206253 2.022284 -0.871349
v 0.417253 1.979800 -0.618470
v 0.114393 3.396978 -1.585891
v 0.056843 3.321799 -1.708814
v 0.215540 3.439722 -1.826647
v -0.004036 2.975944 -0.240275
v 0.064972 3.334506 -0.487438
v -0.027201 3.610068 -0.574812
v 0.080991 3.733609 -0.902600
v -0.029223 3.840112 -0.985838
v -0.079946 3.644769 -1.736383
v -0.065854 3.176145 -1.897888
v 0.039810 3.798696 -1.524939
v 0.063467 3.341359 -1.880290
v 0.046455 2.836392 -0.078161
v 0.308083 2.764935 0.451246
v 0.348927 2.653579 0.107823
v 0.041141 3.013096 0.928284
v 0.370892 2.422155 -0.841298
v 0.441526 2.717512 -0.572964
v 0.251676 3.057834 -1.218731
v 0.094916 2.574088 -1.428847
v -0.468234 2.612528 1.275477
v -0.622171 2.131245 0.704485
v -0.502833 2.139893 1.290804
v -0.018166 2.019180 1.354357
v -0.221894 2.221188 1.516029
v -0.313017 1.904534 0.320268
v -0.329932 1.515358 0.944778
v -0.140090 1.826504 1.101250
v -0.417439 1.679442 1.142329
v -0.305631 1.732783 1.245652
v -0.184146 1.600923 1.160310
v -0.513360 2.344229 0.391024
v -0.252513 1.769304 0.176689
v -0.457851 2.222995 0.139729
v -0.329300 2.697523 0.099966
v -0.212096 1.484192 1.619545
v -0.301250 1.603268 1.744517
v -0.324465 1.433954 1.463308
v -0.420953 1.525982 1.639780
v -0.276212 0.914225 1.242546
v -0.426429 0.778770 1.450360
v -0.261938 0.830902 1.461775
v -0.130103 0.664901 1.534912
v -0.346647 0.465685 1.512401
v -0.118439 2.130895 1.956098
v -0.418385 1.861922 -0.242564
v -0.318272 2.853915 -0.265227
v -0.226096 1.802457 -0.547011
v -0.456988 2.716712 -0.585643
v -0.112496 2.922490 -0.348268
v -0.338700 2.367959 -0.882038
v -0.263498 3.346720 -1.018267
v -0.154908 2.900804 -1.052733
v -0.089935 3.661968 -1.184209
v -0.148222 2.607126 -1.221117
v -0.105957 2.424605 -1.421326
v -0.174899 2.939206 -1.461055
v -0.083667 3.415682 -1.582286
v -0.079055 3.077594 -1.693932
v -0.251096 3.432808 -1.818551
v -0.087593 3.316945 -1.715441
v -0.284673 1.453842 -1.375396
v -0.358750 1.517361 -1.227631
v -0.173813 1.524471 -1.212779
v -0.299998 1.107314 -0.746169
v -0.361193 1.285076 -0.652154
v -0.281370 1.329973 -0.278669
v -0.151492 1.405950 -0.562046
v -0.370837 2.028117 -0.778792
v -0.110236 1.932845 -0.886537
v -0.494180 2.077795 -0.524165
v -0.206875 1.243406 -0.667364
v -0.129455 2.574329 -1.403031
v -0.183032 3.391011 -1.539870
v -0.097729 3.304191 -0.510468
v -0.089449 2.816570 0.012770
v -0.315929 2.755956 0.466210
v -0.332948 2.785630 0.794151
v -0.280082 3.061760 -1.230010
v -0.192733 2.499933 -1.239882
v 0.038449 2.802693 0.084870
v -0.064641 1.727675 0.068408
v 0.145731 2.871580 -1.050425
v 0.060556 2.284942 -1.024072
v 0.147297 2.758736 -1.130538
v 0.114393 3.396978 -1.585891
v 0.056843 3.321799 -1.708814
v 0.063467 3.341359 -1.880290
v -0.361193 1.285076 -0.652154
v -0.151492 1.405950 -0.562046
v -0.206875 1.243406 -0.667364
vn 0.2918 0.0376 0.9557
vn -0.5221 0.0279 0.8524
vn 0.2191 0.0368 0.9750
vn 0.8366 0.0249 0.5473
vn -0.7457 0.0082 0.6662
vn -0.7510 -0.0058 0.6602
vn 0.8691 0.0138 0.4944
vn -0.0722 0.0066 -0.9974
vn -0.1439 0.0003 -0.9896
vn 0.9658 -0.0045 0.2593
vn 0.3044 -0.0080 0.9525
vn 0.8908 -0.2191 0.3981
vn -0.5232 -0.1657 -0.8359
vn 0.9527 -0.1586 -0.2594
vn -0.7852 -0.4115 0.4627
vn 0.5740 0.1670 0.8016
vn 0.6172 -0.2728 0.7380
vn -0.5981 -0.7918 -0.1239
vn -0.7978 0.0668 0.5992
vn -0.0891 0.6437 -0.7601
vn -0.0161 -0.8817 -0.4716
vn 0.9442 -0.2383 0.2274
vn -0.7399 -0.3230 0.5901
vn -0.4275 0.8959 -0.1208
vn 0.8056 0.5921 -0.0208
vn 0.4682 0.6197 0.6299
vn 0.3825 -0.5236 -0.7613
vn 0.5065 -0.4783 0.7174
vn 0.8876 -0.4542 -0.0770
vn 0.8570 0.5142 0.0344
vn 0.9961 -0.0678 -0.0565
vn 0.6471 0.7301 0.2196
vn 0.8937 0.4390 0.0925
vn 0.9576 0.2566 0.1311
vn -0.1319 -0.3490 0.9278
vn 0.3050 -0.5346 0.7881
vn -0.1348 -0.7008 0.7005
vn 0.1008 0.1016 -0.9897
vn 0.9051 -0.1507 0.3975
vn -0.0461 -0.7079 -0.7048
vn 0.9371 0.1021 0.3339
vn -0.8227 0.2462 0.5124
vn -0.0090 -0.4889 0.8723
vn 0.8872 -0.3484 -0.3024
vn -0.9917 -0.1275 -0.0185
vn 0.8058 -0.0712 -0.5879
vn 0.0876 -0.9959 -0.0206
vn 0.0710 -0.2171 -0.9736
vn 0.3971 0.0738 -0.9148
vn -0.5342 -0.5944 -0.6011
vn 0.7345 -0.5434 0.4065
vn 0.6631 -0.4232 -0.6174
vn 0.5949 -0.0384 -0.8029
vn 0.6129 0.4166 0.6714
vn 0.5288 0.1809 -0.8292
vn 0.2508 0.9299 -0.2690
vn 0.9632 0.2357 -0.1294
vn 0.8484 0.4805 0.2220
vn 0.6202 0.7694 -0.1529
vn 0.1052 0.8580 0.5027
vn 0.7465 0.6633 0.0531
vn 0.6309 -0.7705 -0.0913
vn 0.5015 -0.4295 -0.7510
vn 0.9222 -0.2419 0.3017
vn -0.0712 -0.9581 0.2775
vn 0.9968 -0.0774 -0.0212
vn 0.9344 -0.0164 -0.3559
vn 0.5956 0.7841 0.1744
vn -0.0535 0.7678 0.6384
vn -0.9843 -0.1025 -0.1437
vn -0.9480 -0.2541 0.1918
vn -0.8285 -0.1253 0.5457
vn -0.8485 0.0198 0.5289
vn 0.1360 0.3194 0.9378
vn 0.0844 0.3406 0.9364
vn -0.2685 -0.5123 -0.8157
vn 0.1871 0.0336 -0.9818
vn -0.2446 -0.9384 0.2439
vn -0.9473 -0.1778 0.2663
vn -0.8739 -0.2832 0.3951
vn 0.0041 -0.8253 -0.5647
vn -0.9529 0.2993 -0.0488
vn -0.9685 -0.2111 -0.1319
vn -0.9927 -0.1184 0.0229
vn -0.8971 0.4104 0.1636
vn -0.6558 0.7194 0.2289
vn -0.9209 0.3881 -0.0374
vn -0.6915 -0.1082 -0.7142
vn -0.8900 -0.3412 -0.3024
vn 0.7761 -0.4886 0.3987
vn -0.7585 -0.3824 -0.5277
vn -0.9418 -0.0741 -0.3280
vn -0.8118 0.5726 -0.1141
vn -0.5509 0.2644 -0.7916
vn -0.0789 0.1131 0.9904
vn -0.9286 0.2588 0.2660
vn -0.1244 -0.9869 -0.1027
vn 0.7566 0.4530 0.4716
vn -0.7045 0.2123 -0.6773
vn 0.2368 -0.2847 -0.9289
vn -0.0566 -0.2597 -0.9640
vn -0.9855 0.0092 -0.1692
vn 0.9735 -0.0876 -0.2114
vn -0.2603 -0.9622 0.0795
vn 0.9211 -0.2619 0.2880
vn -0.1766 0.6903 0.7017
vn -0.8070 0.3019 0.5075
vn -0.6037 0.7877 -0.1224
vn -0.1627 0.9738 0.1586
vn -0.6808 0.7315 0.0369
vn 0.1185 0.9075 0.4031
vn -0.5797 0.8056 0.1223
vn -0.0183 0.9929 0.1176
vn -0.7720 0.6331 0.0574
vn -0.9717 0.1146 -0.2067
vn -0.7287 -0.2445 -0.6397
vn 0.6045 -0.2045 -0.7699
vn -0.9025 -0.1361 -0.4087
vn -0.9919 -0.1259 0.0169
vn -0.6139 -0.4640 -0.6386
vn -0.8261 -0.0437 0.5618
vn -0.9520 -0.2217 0.2109
vn 0.1890 -0.9797 -0.0663
vn -0.0838 -0.9960 0.0323
vn 0.9993 -0.0263 0.0278
vn -0.3662 -0.2656 0.8918
vn 0.3862 0.2537 0.8868
vn 0.9530 0.3030 -0.0087
vn -0.0271 -0.0705 0.9971
vn -0.0494 -0.9932 0.1053
vn 0.9305 -0.1670 -0.3260
vn 0.4266 0.4725 -0.7712
vn 0.9421 0.3321 -0.0466
vn -0.3746 -0.4264 -0.8233
vn -0.5038 0.5893 -0.6315
vn 0.5061 -0.8457 0.1692
vn 0.6661 0.5578 0.4951
vn -0.0491 0.7527 0.6565
vn 0.9375 -0.1113 0.3296
vn -0.7229 0.5331 0.4397
vn -0.1105 -0.9535 -0.2804
vn 0.9562 -0.2926 -0.0043
vn 0.8103 -0.5220 0.2661
vn 0.5321 0.2461 0.8101
vn 0.8337 -0.2147 0.5087
vn -0.7321 0.6394 0.2348
vn -0.1267 -0.1971 0.9722
vn -0.7523 -0.6588 -0.0086
vn -0.7758 0.6285 -0.0557
vn -0.2900 0.9403 0.1782
vn -0.7613 -0.6422 -0.0890
vn -0.5648 -0.8025 0.1922
vn -0.0604 -0.9664 0.2497
vn 0.2213 -0.9752 0.0060
vn -0.1572 -0.9848 -0.0744
vn -0.5587 0.5957 0.5771
vn 0.8490 -0.1363 0.5105
vn 0.9704 -0.1292 0.2040
vn 0.9681 -0.1355 0.2108
vn 0.9696 -0.1371 0.2028
vn 0.0574 0.5305 -0.8457
vn 0.0609 0.5289 -0.8465
vn 0.0581 0.5268 -0.8480
vn 0.8174 -0.5747 -0.0399
vn 0.8322 -0.5529 -0.0406
vn 0.8196 -0.5722 -0.0301
vt 0.593247 0.111235
vt 0.592736 0.112147
vt 0.593702 0.111712
vt 0.593163 0.110678
vt 0.209647 0.689027
vt 0.210125 0.652889
vt 0.209778 0.688512
vt 0.209521 0.688248
vt 0.209521 0.652805
vt 0.209948 0.652549
vt 0.214181 0.657926
vt 0.210936 0.657911
vt 0.212998 0.652449
vt 0.464128 0.309041
vt 0.464131 0.309040
vt 0.464621 0.309752
vt 0.464043 0.308993
vt 0.464077 0.309059
vt 0.463756 0.309103
vt 0.464254 0.308948
vt 0.464130 0.309040
vt 0.463364 0.308964
vt 0.463373 0.308969
vt 0.463382 0.309007
vt 0.463378 0.308964
vt 0.463377 0.308964
vt 0.466712 0.309156
vt 0.465244 0.311959
vt 0.465431 0.309847
vt 0.470576 0.309092
vt 0.469168 0.308251
vt 0.469328 0.308109
vt 0.463715 0.308970
vt 0.463428 0.308960
vt 0.463784 0.308884
vt 0.466992 0.308590
vt 0.466989 0.308591
vt 0.466989 0.308590
vt 0.467035 0.308832
vt 0.466989 0.308589
vt 0.468003 0.308763
vt 0.466594 0.308629
vt 0.467713 0.308326
vt 0.467189 0.308563
vt 0.466966 0.308476
vt 0.469021 0.308059
vt 0.468992 0.308046
vt 0.469031 0.308050
vt 0.469795 0.307991
vt 0.469032 0.308028
vt 0.469103 0.308017
vt 0.469076 0.308060
vt 0.469278 0.308007
vt 0.462739 0.310392
vt 0.462557 0.309145
vt 0.462899 0.309600
vt 0.464928 0.309142
vt 0.468814 0.308065
vt 0.468801 0.308071
vt 0.468806 0.308062
vt 0.468968 0.308164
vt 0.468938 0.308094
vt 0.470637 0.310620
vt 0.471826 0.307551
vt 0.463735 0.308389
vt 0.463897 0.308660
vt 0.463603 0.308665
vt 0.463936 0.308683
vt 0.463900 0.308701
vt 0.463936 0.308684
vt 0.463937 0.308683
vt 0.468056 0.307035
vt 0.466571 0.307724
vt 0.464572 0.307525
vt 0.469060 0.307821
vt 0.469908 0.306755
vt 0.469157 0.307948
vt 0.467603 0.307792
vt 0.468693 0.307896
vt 0.468760 0.308132
vt 0.468811 0.308057
vt 0.469012 0.308003
vt 0.469013 0.307976
vt 0.469013 0.307997
vt 0.466838 0.308162
vt 0.466953 0.308007
vt 0.466947 0.308221
vt 0.466839 0.308162
vt 0.466838 0.308161
vt 0.466838 0.308163
vt 0.466523 0.308221
vt 0.469438 0.307953
vt 0.469696 0.307785
vt 0.461846 0.307887
vt 0.457081 0.289739
vt 0.462488 0.308608
vt 0.489391 0.314515
vt 0.468815 0.305227
vt 0.447874 0.321684
vt 0.462827 0.305491
vt 0.463699 0.307701
vt 0.468817 0.308051
vt 0.468824 0.308067
vt 0.468893 0.308000
vt 0.468878 0.307925
vt 0.468969 0.308023
vt 0.468783 0.308033
vt 0.468795 0.308053
vt 0.464463 0.308683
vt 0.464983 0.308611
vt 0.463930 0.309374
vt 0.464128 0.309040
vt 0.463376 0.308964
vt 0.468828 0.309234
vt 0.468778 0.308067
vt 0.468792 0.308064
vt 0.468777 0.308242
vt 0.469034 0.308055
vt 0.469045 0.308060
vt 0.469017 0.308025
vt 0.469065 0.308014
vt 0.465278 0.308961
vt 0.463412 0.309158
vt 0.462802 0.309071
vt 0.468801 0.308083
vt 0.463280 0.308708
vt 0.464034 0.308648
vt 0.463972 0.308701
vt 0.463968 0.308779
vt 0.463362 0.308938
vt 0.463579 0.308815
vt 0.465992 0.307986
vt 0.469035 0.307992
vt 0.469233 0.307988
vt 0.464556 0.308253
vt 0.465066 0.308351
vt 0.465442 0.308549
vt 0.465573 0.308704
vt 0.465636 0.308520
vt 0.463375 0.308964
vt 0.463937 0.308684
s 1
usemtl Material.012
f 2/1/1 4/2/2 3/3/3
f 1/4/4 2/1/1 3/3/3
usemtl Material.017
f 6/5/5 5/6/6 8/7/7
f 5/6/6 9/8/8 10/9/9
f 8/7/7 5/6/6 11/10/10
f 11/10/10 9/8/8 8/7/7
f 5/6/6 6/5/5 9/8/8
f 11/10/10 10/9/9 9/8/8
f 13/11/11 12/12/11 7/13/11
usemtl Material.018
f 27/14/12 26/15/13 24/16/14
f 28/17/15 29/18/16 18/19/17
f 26/15/13 28/17/15 25/20/18
f 35/21/19 26/15/13 36/21/20
f 38/21/21 37/21/22 39/21/23
f 40/22/24 41/23/25 17/24/26
f 43/25/27 41/23/25 46/26/28
f 49/27/29 92/28/30 32/29/31
f 51/30/32 53/31/33 55/32/34
f 20/33/35 30/34/36 101/35/37
f 69/36/38 70/37/39 73/38/40
f 71/38/41 73/38/40 70/37/39
f 72/38/42 74/38/43 71/38/41
f 70/37/39 69/36/38 77/39/44
f 73/38/40 72/38/42 75/40/45
f 49/27/29 77/39/44 94/41/46
f 50/42/47 70/37/39 77/39/44
f 54/43/48 76/44/49 68/45/50
f 65/46/51 66/47/52 79/48/53
f 51/30/32 55/32/34 82/49/54
f 89/50/55 88/51/56 64/52/57
f 84/53/58 82/49/54 55/32/34
f 64/52/57 88/51/56 84/53/58
f 91/54/59 93/55/60 15/56/61
f 23/57/62 32/29/31 24/16/14
f 62/58/63 59/59/64 60/60/65
f 66/47/52 96/61/66 63/62/67
f 33/63/68 51/30/32 81/64/69
f 99/65/70 106/66/71 100/67/72
f 116/68/73 107/69/74 106/66/71
f 107/69/74 116/68/73 114/70/75
f 116/68/73 115/71/76 117/71/77
f 121/71/78 118/71/79 117/71/77
f 46/26/28 122/26/80 47/26/81
f 126/72/82 148/73/83 111/74/84
f 129/75/85 127/76/86 131/77/87
f 128/78/88 130/79/89 56/80/90
f 133/81/91 62/58/63 60/60/65
f 138/82/92 151/83/93 137/84/94
f 144/85/95 143/85/96 142/85/97
f 143/85/96 144/85/95 145/85/98
f 146/86/99 147/87/100 139/88/101
f 140/89/102 141/90/103 125/91/104
f 149/85/105 142/85/97 141/90/103
f 142/85/97 149/85/105 144/85/95
f 146/86/99 148/73/83 128/78/88
f 54/43/48 147/87/100 146/86/99
f 82/49/54 83/92/106 152/93/107
f 152/93/107 131/77/87 127/76/86
f 152/93/107 83/92/106 131/77/87
f 154/94/108 91/54/59 153/95/109
f 91/54/59 154/94/108 93/55/60
f 93/55/60 154/94/108 155/96/110
f 90/97/111 81/64/69 124/98/112
f 158/99/113 153/95/109 91/54/59
f 112/100/114 111/74/84 109/101/115
f 126/72/82 124/98/112 127/76/86
f 150/102/116 133/81/91 60/60/65
f 150/102/116 97/103/117 133/81/91
f 134/104/118 156/105/119 136/106/120
f 132/107/121 150/102/116 157/108/122
f 127/76/86 81/64/69 152/93/107
f 156/105/119 129/75/85 151/83/93
f 22/109/123 21/110/124 23/57/62
f 27/14/12 24/16/14 29/18/16
f 26/15/13 25/20/18 23/57/62
f 24/16/14 91/54/59 19/111/125
f 25/20/18 28/17/15 101/35/37
f 22/109/123 23/57/62 25/20/18
f 22/109/123 25/20/18 101/35/37
f 29/18/16 28/17/15 34/112/126
f 27/14/12 34/112/126 35/21/19
f 26/15/13 37/21/22 36/21/20
f 27/14/12 37/21/22 26/15/13
f 35/21/19 39/21/23 37/21/22
f 30/34/36 41/23/25 43/25/27
f 41/23/25 44/113/127 46/26/28
f 95/114/128 94/41/46 53/31/33
f 53/31/33 64/52/57 55/32/34
f 58/115/129 61/116/130 59/59/64
f 75/40/45 72/38/42 70/37/39
f 68/45/50 76/44/49 69/36/38
f 77/39/44 49/27/29 50/42/47
f 68/45/50 69/36/38 75/40/45
f 96/61/66 52/117/131 56/80/90
f 79/48/53 80/118/132 65/46/51
f 80/118/132 78/119/133 65/46/51
f 79/48/53 78/119/133 80/118/132
f 87/120/134 89/50/55 66/47/52
f 55/32/34 64/52/57 84/53/58
f 86/121/135 88/51/56 89/50/55
f 92/28/30 90/97/111 91/54/59
f 23/57/62 31/122/136 32/29/31
f 23/57/62 21/110/124 31/122/136
f 33/63/68 95/114/128 51/30/32
f 16/123/137 15/56/61 14/124/138
f 59/59/64 61/116/130 157/108/122
f 56/80/90 58/115/129 57/125/139
f 97/103/117 57/125/139 59/59/64
f 96/61/66 66/47/52 78/119/133
f 57/125/139 63/62/67 96/61/66
f 94/41/46 95/114/128 49/27/29
f 65/46/51 78/119/133 66/47/52
f 64/52/57 78/119/133 89/50/55
f 14/124/138 155/96/110 98/126/140
f 106/66/71 99/65/70 104/127/141
f 109/101/115 99/65/70 98/126/140
f 108/128/142 105/129/143 107/69/74
f 22/109/123 101/35/37 105/129/143
f 104/127/141 115/71/76 106/66/71
f 107/69/74 114/70/75 108/128/142
f 106/66/71 115/71/76 116/68/73
f 118/71/79 116/68/73 117/71/77
f 116/68/73 118/71/79 119/71/144
f 117/71/77 119/71/144 120/71/145
f 120/71/145 119/71/144 121/71/78
f 119/71/144 118/71/79 121/71/78
f 122/26/80 46/26/28 44/113/127
f 122/26/80 42/130/146 43/25/27
f 47/26/81 122/26/80 43/25/27
f 126/72/82 129/75/85 128/78/88
f 102/131/147 101/35/37 30/34/36
f 130/79/89 132/107/121 56/80/90
f 142/85/97 139/88/101 141/90/103
f 149/85/105 145/85/98 144/85/95
f 125/91/104 141/90/103 147/87/100
f 123/132/148 125/91/104 50/42/47
f 50/42/47 125/91/104 147/87/100
f 150/102/116 132/107/121 156/105/119
f 130/79/89 129/75/85 156/105/119
f 146/86/99 128/78/88 54/43/48
f 54/43/48 68/45/50 147/87/100
f 138/82/92 136/106/120 151/83/93
f 135/133/149 137/84/94 151/83/93
f 136/106/120 87/120/134 66/47/52
f 135/133/149 131/77/87 86/121/135
f 135/133/149 86/121/135 138/82/92
f 87/120/134 138/82/92 86/121/135
f 85/134/150 88/51/56 131/77/87
f 153/95/109 124/98/112 112/100/114
f 112/100/114 154/94/108 153/95/109
f 124/98/112 153/95/109 90/97/111
f 81/64/69 90/97/111 33/63/68
f 103/135/151 109/101/115 110/136/152
f 111/74/84 112/100/114 126/72/82
f 103/135/151 99/65/70 109/101/115
f 124/98/112 126/72/82 112/100/114
f 112/100/114 109/101/115 154/94/108
f 154/94/108 109/101/115 155/96/110
f 14/124/138 93/55/60 155/96/110
f 156/105/119 151/83/93 136/106/120
f 156/105/119 132/107/121 130/79/89
f 58/115/129 132/107/121 157/108/122
f 159/137/153 31/122/136 110/136/152
f 19/111/125 29/18/16 24/16/14
f 30/34/36 20/33/35 17/24/26
f 28/17/15 20/33/35 101/35/37
f 29/18/16 19/111/125 18/19/17
f 18/19/17 20/33/35 28/17/15
f 17/24/26 16/123/137 14/124/138
f 26/15/13 35/21/19 34/112/126
f 36/21/20 39/21/23 35/21/19
f 39/21/23 36/21/20 38/21/21
f 47/26/81 43/25/27 46/26/28
f 95/114/128 92/28/30 49/27/29
f 94/41/46 54/43/48 52/117/131
f 50/42/47 48/138/154 67/139/155
f 150/102/116 66/47/52 97/103/117
f 53/31/33 96/61/66 64/52/57
f 75/40/45 69/36/38 73/38/40
f 72/38/42 73/38/40 74/38/43
f 69/36/38 76/44/49 77/39/44
f 96/61/66 53/31/33 52/117/131
f 90/97/111 92/28/30 33/63/68
f 32/29/31 31/122/136 49/27/29
f 110/136/152 31/122/136 21/110/124
f 33/63/68 92/28/30 95/114/128
f 78/119/133 64/52/57 96/61/66
f 57/125/139 58/115/129 59/59/64
f 57/125/139 97/103/117 63/62/67
f 59/59/64 62/58/63 97/103/117
f 42/130/146 98/126/140 102/131/147
f 103/135/151 22/109/123 104/127/141
f 30/34/36 42/130/146 102/131/147
f 105/129/143 102/131/147 107/69/74
f 106/66/71 107/69/74 100/67/72
f 103/135/151 21/110/124 22/109/123
f 14/124/138 98/126/140 17/24/26
f 121/71/78 117/71/77 120/71/145
f 40/22/24 17/24/26 42/130/146
f 42/130/146 45/140/156 40/22/24
f 44/113/127 45/140/156 122/26/80
f 122/26/80 45/140/156 42/130/146
f 123/132/148 50/42/47 67/139/155
f 56/80/90 132/107/121 58/115/129
f 150/102/116 134/104/118 136/106/120
f 150/102/116 136/106/120 66/47/52
f 58/115/129 157/108/122 61/116/130
f 143/85/96 139/88/101 142/85/97
f 138/82/92 137/84/94 135/133/149
f 87/120/134 86/121/135 89/50/55
f 109/101/115 111/74/84 110/136/152
f 123/132/148 110/136/152 111/74/84
f 98/126/140 155/96/110 109/101/115
f 134/104/118 150/102/116 156/105/119
f 67/139/155 110/136/152 123/132/148
f 67/139/155 159/137/153 110/136/152
f 158/99/113 91/54/59 90/97/111
f 16/123/137 17/24/26 18/19/17
f 26/15/13 23/57/62 24/16/14
f 91/54/59 15/56/61 19/111/125
f 35/21/19 37/21/22 27/14/12
f 38/21/21 36/21/20 37/21/22
f 41/23/25 30/34/36 17/24/26
f 41/23/25 45/140/156 44/113/127
f 50/42/47 49/27/29 48/138/154
f 53/31/33 51/30/32 95/114/128
f 53/31/33 94/41/46 52/117/131
f 66/47/52 63/62/67 97/103/117
f 74/38/43 73/38/40 71/38/41
f 70/37/39 68/45/50 75/40/45
f 94/41/46 77/39/44 76/44/49
f 66/47/52 89/50/55 79/48/53
f 88/51/56 85/134/150 84/53/58
f 24/16/14 92/28/30 91/54/59
f 93/55/60 14/124/138 15/56/61
f 157/108/122 60/60/65 59/59/64
f 54/43/48 94/41/46 76/44/49
f 51/30/32 82/49/54 81/64/69
f 42/130/146 17/24/26 98/126/140
f 98/126/140 99/65/70 100/67/72
f 104/127/141 99/65/70 103/135/151
f 104/127/141 22/109/123 105/129/143
f 100/67/72 107/69/74 102/131/147
f 108/128/142 115/71/76 104/127/141
f 108/128/142 114/70/75 113/141/157
f 113/141/157 114/70/75 116/68/73
f 117/71/77 115/71/76 113/141/157
f 126/72/82 127/76/86 129/75/85
f 129/75/85 135/133/149 151/83/93
f 97/103/117 62/58/63 133/81/91
f 143/85/96 140/89/102 139/88/101
f 140/89/102 143/85/96 141/90/103
f 140/89/102 146/86/99 139/88/101
f 146/86/99 140/89/102 148/73/83
f 141/90/103 139/88/101 147/87/100
f 125/91/104 148/73/83 140/89/102
f 123/132/148 148/73/83 125/91/104
f 130/79/89 128/78/88 129/75/85
f 87/120/134 136/106/120 138/82/92
f 85/134/150 131/77/87 83/92/106
f 131/77/87 88/51/56 86/121/135
f 110/136/152 21/110/124 103/135/151
f 123/132/148 111/74/84 148/73/83
f 60/60/65 157/108/122 150/102/116
f 56/80/90 54/43/48 128/78/88
f 128/78/88 148/73/83 126/72/82
f 15/56/61 16/123/137 19/111/125
f 19/111/125 16/123/137 18/19/17
f 20/33/35 18/19/17 17/24/26
f 26/15/13 34/112/126 28/17/15
f 29/18/16 34/112/126 27/14/12
f 41/23/25 40/22/24 45/140/156
f 42/130/146 30/34/36 43/25/27
f 70/37/39 72/38/42 71/38/41
f 70/37/39 50/42/47 68/45/50
f 50/42/47 147/87/100 68/45/50
f 82/49/54 84/53/58 83/92/106
f 24/16/14 32/29/31 92/28/30
f 56/80/90 57/125/139 96/61/66
f 100/67/72 102/131/147 98/126/140
f 105/129/143 108/128/142 104/127/141
f 102/131/147 105/129/143 101/35/37
f 108/128/142 113/141/157 115/71/76
f 119/71/144 113/141/157 116/68/73
f 117/71/77 113/141/157 119/71/144
f 129/75/85 131/77/87 135/133/149
f 141/90/103 143/85/96 149/85/105
f 152/93/107 81/64/69 82/49/54
f 85/134/150 83/92/106 84/53/58
f 81/64/69 127/76/86 124/98/112
f 48/138/154 49/27/29 31/122/136
f 159/137/153 48/138/154 31/122/136
f 161/43/158 162/80/159 160/117/160
f 168/85/161 166/85/162 167/85/163
f 163/119/164 164/48/165 165/50/166
