# Blender 4.3.2
# www.blender.org
mtllib Caballo3.mtl
o Caballo3
v 0.003999 2.237864 -0.016811
v -0.074343 5.310622 0.028816
v -0.086692 5.311519 -0.064989
v 0.046910 5.311440 -0.099142
v 0.056124 -0.252634 0.041049
v 0.037989 1.782779 0.033480
v -0.020051 2.230766 -0.043245
v 0.018907 1.783335 -0.113275
v -0.097811 1.758189 -0.032518
v -0.098288 -0.252676 -0.031422
v 0.003168 -0.252646 -0.121712
v -0.038301 5.324592 0.038956
v -0.063778 5.315250 0.022447
v 0.049263 5.326911 -0.091665
v 0.949798 2.828978 -0.027286
v 0.746752 2.746040 -0.389634
v 1.305816 2.621385 -0.418318
v 1.463044 2.649898 -0.145666
v 1.358077 2.074566 -0.457225
v 0.875154 2.197793 -0.664262
v 1.453980 2.097321 -0.137819
v 0.256060 1.695925 0.024173
v 0.601216 1.793037 0.068886
v 0.401949 1.825373 -0.291252
v 0.281510 1.936137 -0.402341
v 1.115762 1.624494 -0.405893
v 0.667444 1.739852 -0.206978
v 1.080721 1.254190 -0.321690
v 1.059090 1.726389 -0.238631
v 0.378456 2.257427 -0.519506
v 1.457965 2.548296 -0.043490
v 0.156205 1.738824 -0.263677
v 0.124502 2.206464 -0.483530
v -0.254581 2.838298 -0.356534
v 1.394019 1.222355 -0.275186
v 1.283868 1.240114 -0.448615
v 0.722668 0.830698 -0.284934
v 0.598941 0.964062 -0.318264
v 0.714894 0.718870 -0.454681
v 0.561077 0.448938 -0.299095
v 0.770542 0.612737 -0.174238
v 1.608180 2.792264 0.017045
v 1.621941 2.739745 -0.139369
v 1.473342 2.613082 0.044628
v 1.670559 2.329279 -0.051853
v 2.064059 2.503702 -0.084753
v 1.974366 2.610430 0.046931
v 2.011854 2.062560 -0.102362
v 1.585177 1.732576 -0.028296
v 0.008843 1.707981 -0.116887
v -0.427805 1.940135 -0.531270
v -0.586624 1.741289 -0.167952
v -0.385481 2.889364 -0.179537
v -1.066257 2.854071 -0.185479
v -1.000239 3.303318 -0.291707
v -1.039899 2.267439 -0.100311
v -0.906868 3.454801 -0.105808
v -1.146365 2.741236 -0.187055
v -1.250233 2.547027 -0.178602
v -1.156244 2.522510 -0.054567
v -1.262816 2.441957 -0.206101
v -1.186436 2.262228 -0.003478
v -1.441215 2.392066 -0.128081
v -1.597173 3.421537 -0.114895
v -1.560329 3.364733 -0.205771
v -1.723365 3.218597 -0.086454
v -1.770449 3.387983 -0.230149
v -0.072239 1.686931 0.031265
v -0.829765 1.855240 -0.111819
v -1.654234 3.050500 -0.179603
v -1.374529 1.558420 -0.302694
v -1.151996 1.489437 -0.340993
v -0.849525 1.038978 -0.409836
v -0.851466 1.077009 -0.222153
v -1.094725 0.981372 -0.296523
v -0.587237 0.856930 -0.310625
v -1.204185 1.516171 -0.221094
v -0.887176 2.004782 -0.246009
v -0.634298 1.962298 -0.457009
v -0.256102 2.958441 -0.035721
v -0.503266 3.317002 -0.104728
v -0.590638 3.592566 -0.012554
v -0.918430 3.716107 -0.120748
v -1.001667 3.822610 -0.010533
v -1.912520 3.157658 0.026016
v -1.549395 3.783304 -0.074965
v -1.877940 3.423654 -0.097654
v -0.093997 2.818892 -0.086204
v 0.435418 2.747435 -0.347838
v 0.091995 2.636075 -0.388684
v 0.912456 2.995589 -0.080894
v -1.450575 2.977344 -0.242048
v -1.295405 2.256809 -0.033819
v -0.857126 2.404653 -0.410648
v -0.588792 2.700010 -0.481281
v -1.235525 3.041704 -0.292631
v -1.444646 2.556579 -0.134604
v 1.259649 2.595026 0.428479
v 0.688659 2.113743 0.582416
v 1.274977 2.122392 0.463078
v 1.338529 2.001678 -0.021590
v 1.500201 2.203684 0.182139
v 0.304440 1.887033 0.273262
v 0.928950 1.497857 0.290177
v 1.085421 1.809002 0.100334
v 1.126501 1.661940 0.377683
v 1.229824 1.715280 0.265876
v 1.144480 1.583423 0.144390
v 0.375197 2.326726 0.473605
v 0.160862 1.751804 0.212756
v 0.123901 2.205492 0.418095
v 0.084138 2.680022 0.289544
v 1.603717 1.466689 0.172340
v 1.728690 1.585766 0.261495
v 1.447481 1.416453 0.284709
v 1.623953 1.508480 0.381197
v 1.226718 0.896722 0.236457
v 1.434533 0.761268 0.386674
v 1.445947 0.813400 0.222183
v 1.519084 0.647398 0.090347
v 1.496573 0.448184 0.306892
v 1.940273 2.113398 0.078683
v -0.258390 1.844419 0.378629
v -0.281054 2.836412 0.278517
v -0.562840 1.784956 0.186340
v -0.601470 2.699211 0.417232
v -0.364095 2.904988 0.072740
v -0.897863 2.350458 0.298940
v -1.034090 3.329216 0.223743
v -1.068570 2.883313 0.115160
v -0.574101 3.329603 0.050436
v -1.234091 2.540767 0.115067
v -1.436457 2.407857 0.066649
v -1.476883 2.921703 0.135144
v -1.598113 3.398180 0.043911
v -1.709764 3.060095 0.039297
v -1.834379 3.415307 0.211341
v -1.731269 3.299446 0.047838
v -1.391224 1.436340 0.244917
v -1.243460 1.499858 0.318995
v -1.228607 1.506967 0.134058
v -0.761996 1.089811 0.260243
v -0.667982 1.267573 0.321437
v -0.294496 1.312472 0.241615
v -0.577874 1.388449 0.111737
v -0.794619 2.010615 0.331081
v -0.902365 1.915344 0.070480
v -0.539993 2.060294 0.454424
v -0.683191 1.225904 0.167120
v -1.418859 2.556825 0.089701
v -1.555696 3.373508 0.143277
v -1.659137 3.702228 0.061442
v -0.003055 2.799068 0.049695
v 0.450382 2.738453 0.276174
v 0.778323 2.768128 0.293192
v -1.245838 3.044259 0.240327
v -1.297424 2.471492 0.146739
v 0.069044 2.785192 -0.078204
v 0.052581 1.710172 0.024885
vn 0.2476 0.0225 0.9686
vn 0.8271 0.0332 0.5610
vn 0.7255 0.0329 0.6875
vn 0.9911 0.0272 -0.1302
vn 0.6614 0.0087 0.7500
vn 0.6601 -0.0061 0.7511
vn 0.4893 0.0146 -0.8720
vn -0.7106 0.0145 -0.7034
vn -0.3043 0.0235 -0.9523
vn -0.8307 0.0099 -0.5567
vn -0.9973 0.0069 0.0727
vn -0.9896 0.0003 0.1440
vn 0.2592 -0.0048 -0.9658
vn 0.5370 0.0256 -0.8432
vn 0.5987 -0.0901 -0.7959
vn -0.9227 0.2052 0.3263
vn -0.2112 -0.5308 -0.8207
vn 0.4615 -0.4335 0.7740
vn 0.7441 -0.2669 -0.6125
vn -0.1728 -0.7765 0.6060
vn 0.5968 0.0705 0.7993
vn -0.7569 0.6470 0.0924
vn -0.4716 -0.8817 0.0163
vn 0.2226 -0.2439 -0.9439
vn 0.5907 -0.3212 0.7402
vn -0.1209 0.8962 0.4269
vn -0.0207 0.5922 -0.8055
vn 0.6299 0.6197 -0.4682
vn -0.7614 -0.5234 -0.3825
vn 0.7172 -0.4786 -0.5066
vn -0.0770 -0.4542 -0.8876
vn 0.0272 0.5179 -0.8550
vn -0.0256 -0.0627 -0.9977
vn 0.2195 0.7301 -0.6471
vn 0.0914 0.4592 -0.8836
vn 0.1064 0.2583 -0.9602
vn -0.6873 -0.2891 -0.6664
vn -0.7541 0.4824 -0.4456
vn -0.0016 0.5075 -0.8617
vn 0.9278 -0.3490 0.1319
vn 0.7881 -0.5347 -0.3050
vn 0.6999 -0.7015 0.1345
vn -0.9684 -0.2269 -0.1038
vn 0.3211 -0.3600 -0.8760
vn -0.2621 -0.1648 -0.9509
vn -0.9899 0.1009 -0.1000
vn 0.3973 -0.1510 -0.9052
vn -0.7048 -0.7080 0.0456
vn 0.3338 0.1021 -0.9371
vn 0.5125 0.2463 0.8226
vn 0.8725 -0.4886 0.0085
vn -0.3021 -0.3487 -0.8872
vn -0.0186 -0.1273 0.9917
vn -0.5878 -0.0712 -0.8059
vn -0.0198 -0.9959 -0.0887
vn -0.9148 0.0739 -0.3971
vn -0.6005 -0.5943 0.5351
vn 0.6932 0.4540 -0.5598
vn -0.8315 0.2346 -0.5036
vn -0.2813 0.8420 -0.4603
vn -0.1056 0.5205 -0.8473
vn 0.2117 0.4759 -0.8536
vn -0.1497 0.7744 -0.6147
vn 0.5026 0.8581 -0.1054
vn 0.0531 0.6638 -0.7460
vn -0.1961 0.0437 -0.9796
vn -0.7535 -0.4281 -0.4990
vn 0.3180 -0.2809 -0.9055
vn 0.3187 -0.9429 0.0972
vn 0.0173 -0.1065 -0.9942
vn -0.2620 -0.0969 -0.9602
vn 0.1745 0.7842 -0.5955
vn 0.6301 0.7742 0.0592
vn -0.1435 -0.1025 0.9843
vn 0.1913 -0.2537 0.9482
vn 0.5462 -0.1255 0.8282
vn 0.5289 0.0195 0.8485
vn 0.9381 0.3189 -0.1354
vn 0.9364 0.3408 -0.0836
vn -0.8157 -0.5124 0.2685
vn -0.9817 0.0340 -0.1875
vn 0.2433 -0.9385 0.2448
vn 0.2659 -0.1780 0.9474
vn 0.3951 -0.2831 0.8739
vn -0.5653 -0.8249 -0.0046
vn -0.0488 0.2993 0.9529
vn -0.1319 -0.2111 0.9685
vn 0.0229 -0.1184 0.9927
vn 0.0536 0.6431 0.7639
vn 0.2355 0.7222 0.6504
vn 0.5446 0.3460 0.7640
vn -0.7143 -0.1082 0.6915
vn -0.2793 -0.3221 0.9046
vn -0.5267 -0.3754 0.7627
vn -0.3187 -0.0955 0.9430
vn -0.1136 0.5737 0.8111
vn -0.7916 0.2644 0.5509
vn 0.9904 0.1130 0.0793
vn 0.0558 0.3914 0.9185
vn -0.1024 -0.9869 0.1250
vn -0.0899 0.7120 -0.6964
vn -0.6773 0.2122 0.7045
vn -0.9289 -0.2847 -0.2368
vn -0.9641 -0.2596 0.0567
vn -0.1692 0.0096 0.9855
vn -0.2113 -0.0876 -0.9735
vn 0.0795 -0.9609 0.2651
vn -0.0244 -0.0727 -0.9971
vn -0.4873 0.5836 0.6496
vn 0.7117 0.6739 0.1984
vn -0.1226 0.7881 0.6032
vn 0.1585 0.9739 0.1627
vn 0.0369 0.7315 0.6808
vn 0.4031 0.9075 -0.1185
vn 0.1235 0.8041 0.5815
vn 0.1177 0.9929 0.0183
vn 0.0574 0.6330 0.7720
vn -0.2075 0.1143 0.9715
vn -0.6757 -0.2204 0.7034
vn -0.7878 -0.1865 -0.5870
vn -0.4088 -0.1360 0.9024
vn 0.0158 -0.1188 0.9928
vn -0.7887 -0.4249 0.4444
vn 0.5468 -0.3030 0.7805
vn 0.1247 -0.9702 0.2079
vn 0.9980 -0.0518 -0.0371
vn -0.0520 -0.9848 -0.1658
vn 0.0047 -0.9961 0.0881
vn -0.4055 -0.8990 -0.1657
vn 0.0166 -0.0096 -0.9998
vn 0.8772 -0.2549 0.4068
vn 0.4102 -0.1629 -0.8973
vn 0.8868 0.2537 -0.3862
vn -0.0087 0.3030 -0.9530
vn -0.7873 -0.3290 -0.5215
vn -0.8210 -0.5259 0.2223
vn 0.2422 -0.8406 -0.4846
vn 0.4951 0.5579 -0.6661
vn 0.6567 0.7526 0.0491
vn 0.3308 -0.1025 -0.9381
vn 0.4406 0.5328 0.7225
vn -0.2806 -0.9535 0.1103
vn -0.0039 -0.2923 -0.9563
vn 0.2662 -0.5220 -0.8104
vn 0.8100 0.2462 -0.5323
vn 0.5082 -0.2135 -0.8344
vn 0.2350 0.6394 0.7320
vn 0.9722 -0.1971 0.1267
vn -0.0086 -0.6588 0.7523
vn 0.0100 0.5991 0.8006
vn 0.2053 0.9273 0.3129
vn -0.0890 -0.6422 0.7613
vn 0.1922 -0.8025 0.5649
vn 0.2524 -0.9658 0.0593
vn 0.0060 -0.9751 -0.2215
vn -0.0744 -0.9848 0.1572
vn 0.5771 0.5957 0.5587
vn 0.1655 -0.3422 0.9249
vn 0.5105 -0.1362 -0.8490
vt 0.655403 0.094325
vt 0.655768 0.093137
vt 0.655388 0.093356
vt 0.654863 0.092885
vt 0.207654 0.697861
vt 0.209410 0.644130
vt 0.208137 0.697094
vt 0.218173 0.643490
vt 0.212459 0.651616
vt 0.225720 0.651637
vt 0.207192 0.696703
vt 0.207192 0.644006
vt 0.208765 0.643625
vt 0.210308 0.651594
vt 0.439921 0.324275
vt 0.439904 0.324316
vt 0.439524 0.323953
vt 0.439942 0.324406
vt 0.440066 0.324193
vt 0.439850 0.324469
vt 0.439905 0.324316
vt 0.440236 0.324464
vt 0.440232 0.324454
vt 0.440229 0.324380
vt 0.440230 0.324464
vt 0.438788 0.324091
vt 0.439423 0.318656
vt 0.439342 0.322751
vt 0.437117 0.324216
vt 0.437726 0.325847
vt 0.437657 0.326121
vt 0.437810 0.326217
vt 0.437785 0.326224
vt 0.437779 0.326194
vt 0.440084 0.324451
vt 0.440208 0.324471
vt 0.440054 0.324619
vt 0.438355 0.325700
vt 0.437902 0.326076
vt 0.437895 0.325863
vt 0.438667 0.325189
vt 0.438668 0.325187
vt 0.438668 0.325188
vt 0.438649 0.324720
vt 0.438668 0.325192
vt 0.438230 0.324852
vt 0.438840 0.325112
vt 0.438582 0.325240
vt 0.438678 0.325409
vt 0.437455 0.326350
vt 0.437781 0.326282
vt 0.437755 0.326302
vt 0.437772 0.326230
vt 0.437679 0.326318
vt 0.440506 0.321693
vt 0.440585 0.324112
vt 0.440437 0.323230
vt 0.439675 0.322747
vt 0.437879 0.326208
vt 0.437885 0.326195
vt 0.437883 0.326211
vt 0.437812 0.326016
vt 0.437824 0.326142
vt 0.437091 0.321252
vt 0.436576 0.327203
vt 0.440075 0.325578
vt 0.440006 0.325053
vt 0.440133 0.325043
vt 0.439988 0.325007
vt 0.440004 0.324972
vt 0.439988 0.325008
vt 0.438207 0.328204
vt 0.438849 0.326867
vt 0.439713 0.327253
vt 0.437773 0.326680
vt 0.437406 0.328747
vt 0.437525 0.326728
vt 0.438403 0.326736
vt 0.437931 0.326535
vt 0.437881 0.326221
vt 0.437794 0.326327
vt 0.437793 0.326379
vt 0.437793 0.326338
vt 0.438734 0.326018
vt 0.438684 0.326318
vt 0.438686 0.325905
vt 0.438733 0.326018
vt 0.438734 0.326020
vt 0.438733 0.326017
vt 0.438870 0.325905
vt 0.437765 0.326319
vt 0.437609 0.326424
vt 0.440892 0.326551
vt 0.442953 0.361743
vt 0.440615 0.325153
vt 0.428982 0.313703
vt 0.437879 0.331711
vt 0.446934 0.299797
vt 0.440468 0.331197
vt 0.440091 0.326913
vt 0.437878 0.326233
vt 0.437875 0.326202
vt 0.437845 0.326333
vt 0.437851 0.326478
vt 0.437812 0.326288
vt 0.437890 0.326248
vt 0.437889 0.326208
vt 0.437897 0.326202
vt 0.439761 0.325008
vt 0.439536 0.325148
vt 0.439630 0.324315
vt 0.439992 0.323672
vt 0.439905 0.324317
vt 0.439905 0.324315
vt 0.440230 0.324463
vt 0.437873 0.323939
vt 0.437792 0.326247
vt 0.437792 0.326284
vt 0.439408 0.324468
vt 0.440215 0.324087
vt 0.440479 0.324255
vt 0.437885 0.326172
vt 0.440272 0.324959
vt 0.439946 0.325076
vt 0.439973 0.324973
vt 0.439975 0.324823
vt 0.440237 0.324514
vt 0.440143 0.324752
vt 0.439099 0.326359
vt 0.437784 0.326349
vt 0.437698 0.326356
vt 0.439720 0.325842
vt 0.439500 0.325651
vt 0.439337 0.325268
vt 0.439281 0.324969
vt 0.439254 0.325325
vt 0.440231 0.324464
vt 0.437886 0.326229
s 1
usemtl Material.008
f 4/1/1 3/2/2 1/3/3
f 3/2/2 2/4/4 1/3/3
usemtl Material.009
f 6/5/5 5/6/6 8/7/7
f 7/8/8 12/9/9 14/10/10
f 5/6/6 9/11/11 10/12/12
f 8/7/7 5/6/6 11/13/13
f 11/13/13 9/11/11 8/7/7
f 5/6/6 6/5/5 9/11/11
f 11/13/13 10/12/12 9/11/11
f 12/9/9 7/8/8 13/14/14
usemtl Material.010
f 26/15/15 28/16/16 25/17/17
f 29/18/18 26/15/15 19/19/19
f 28/16/16 29/18/18 27/20/20
f 37/21/21 28/16/16 38/21/22
f 40/21/23 39/21/24 41/21/25
f 42/22/26 43/23/27 18/24/28
f 45/25/29 43/23/27 48/25/30
f 51/26/31 90/27/32 33/28/33
f 53/29/34 55/30/35 57/31/36
f 70/32/37 67/33/38 65/34/39
f 21/35/40 31/36/41 101/37/42
f 56/38/43 58/39/44 54/40/45
f 71/41/46 72/42/47 75/43/48
f 73/43/49 75/43/48 72/42/47
f 74/43/50 76/43/51 73/43/49
f 72/42/47 71/41/46 79/44/52
f 75/43/48 74/43/50 77/45/53
f 51/26/31 79/44/52 94/46/54
f 52/47/55 72/42/47 79/44/52
f 56/38/43 78/48/56 69/49/57
f 53/29/34 57/31/36 81/50/58
f 87/51/59 86/52/60 64/53/61
f 83/54/62 81/50/58 57/31/36
f 64/53/61 86/52/60 83/54/62
f 89/55/63 91/56/64 16/57/65
f 25/17/17 33/28/33 30/58/66
f 63/59/67 61/60/68 93/61/69
f 70/32/37 96/62/70 92/63/71
f 34/64/72 53/29/34 80/65/73
f 99/66/74 106/67/75 100/68/76
f 116/69/77 107/70/78 106/67/75
f 107/70/78 116/69/77 114/69/79
f 116/69/77 115/71/80 117/71/81
f 121/71/82 118/71/83 117/71/81
f 48/25/30 122/25/84 49/25/85
f 126/72/86 148/73/87 111/74/88
f 129/75/89 127/76/90 131/77/91
f 128/78/92 130/79/93 58/39/44
f 133/80/94 63/59/67 93/61/69
f 138/81/95 151/82/96 137/83/97
f 144/84/98 143/84/99 142/84/100
f 143/84/99 144/84/98 145/84/101
f 146/85/102 147/86/103 139/87/104
f 140/88/105 141/89/106 125/90/107
f 149/84/108 142/84/100 141/89/106
f 142/84/100 149/84/108 144/84/98
f 146/85/102 148/73/87 128/78/92
f 56/38/43 147/86/103 146/85/102
f 152/91/109 131/77/91 82/92/110
f 81/50/58 82/92/110 131/77/91
f 154/93/111 89/55/63 153/94/112
f 89/55/63 154/93/111 91/56/64
f 91/56/64 154/93/111 155/95/113
f 88/96/114 80/65/73 124/97/115
f 158/98/116 153/94/112 89/55/63
f 112/99/117 111/74/88 109/100/118
f 126/72/86 124/97/115 127/76/90
f 150/101/119 133/80/94 93/61/69
f 150/101/119 97/102/120 133/80/94
f 134/103/121 156/104/122 136/105/123
f 132/106/124 62/107/125 60/108/126
f 127/76/90 80/65/73 131/77/91
f 156/104/122 129/75/89 151/82/96
f 23/109/127 22/110/128 24/111/129
f 20/112/130 26/15/15 25/17/17
f 30/58/66 89/55/63 20/112/130
f 27/20/20 29/18/18 101/37/42
f 23/109/127 24/111/129 27/20/20
f 23/109/127 27/20/20 101/37/42
f 26/15/15 29/18/18 35/113/131
f 36/114/132 28/16/16 26/15/15
f 36/114/132 35/113/131 37/21/21
f 28/16/16 39/21/24 38/21/22
f 36/114/132 39/21/24 28/16/16
f 37/21/21 41/21/25 39/21/24
f 31/36/41 43/23/27 45/25/29
f 43/23/27 46/115/133 48/25/30
f 95/116/134 94/46/54 55/30/35
f 55/30/35 64/53/61 57/31/36
f 60/108/126 62/107/125 61/60/68
f 77/45/53 74/43/50 72/42/47
f 69/49/57 78/48/56 71/41/46
f 79/44/52 51/26/31 52/47/55
f 69/49/57 71/41/46 77/45/53
f 96/62/70 54/40/45 58/39/44
f 64/53/61 65/34/39 67/33/38
f 66/117/135 64/53/61 67/33/38
f 85/118/136 87/51/59 66/117/135
f 57/31/36 64/53/61 83/54/62
f 90/27/32 88/96/114 89/55/63
f 25/17/17 32/119/137 33/28/33
f 25/17/17 22/110/128 32/119/137
f 22/110/128 25/17/17 24/111/129
f 34/64/72 95/116/134 53/29/34
f 17/120/138 16/57/65 15/121/139
f 61/60/68 62/107/125 132/106/124
f 58/39/44 60/108/126 59/122/140
f 97/102/120 59/122/140 61/60/68
f 96/62/70 70/32/37 65/34/39
f 59/122/140 92/63/71 96/62/70
f 94/46/54 95/116/134 51/26/31
f 15/121/139 155/95/113 98/123/141
f 106/67/75 99/66/74 104/124/142
f 109/100/118 99/66/74 98/123/141
f 108/125/143 105/126/144 107/70/78
f 23/109/127 101/37/42 105/126/144
f 104/124/142 115/71/80 106/67/75
f 107/70/78 114/69/79 108/125/143
f 106/67/75 115/71/80 116/69/77
f 118/71/83 116/69/77 117/71/81
f 116/69/77 118/71/83 119/71/145
f 117/71/81 119/71/145 120/71/146
f 120/71/146 119/71/145 121/71/82
f 119/71/145 118/71/83 121/71/82
f 122/25/84 48/25/30 46/115/133
f 122/25/84 44/127/147 45/25/29
f 49/25/85 122/25/84 45/25/29
f 126/72/86 129/75/89 128/78/92
f 102/128/148 101/37/42 31/36/41
f 130/79/93 132/106/124 58/39/44
f 142/84/100 139/87/104 141/89/106
f 149/84/108 143/84/99 145/84/101
f 149/84/108 145/84/101 144/84/98
f 125/90/107 141/89/106 147/86/103
f 123/129/149 125/90/107 52/47/55
f 52/47/55 125/90/107 147/86/103
f 150/101/119 132/106/124 156/104/122
f 130/79/93 129/75/89 156/104/122
f 146/85/102 128/78/92 56/38/43
f 56/38/43 69/49/57 147/86/103
f 138/81/95 136/105/123 151/82/96
f 135/130/150 137/83/97 151/82/96
f 136/105/123 85/118/136 66/117/135
f 135/130/150 152/91/109 138/81/95
f 85/118/136 138/81/95 152/91/109
f 152/91/109 135/130/150 131/77/91
f 84/131/151 86/52/60 152/91/109
f 87/51/59 152/91/109 86/52/60
f 153/94/112 124/97/115 112/99/117
f 112/99/117 154/93/111 153/94/112
f 124/97/115 153/94/112 88/96/114
f 80/65/73 88/96/114 34/64/72
f 103/132/152 109/100/118 110/133/153
f 111/74/88 112/99/117 126/72/86
f 103/132/152 99/66/74 109/100/118
f 124/97/115 126/72/86 112/99/117
f 112/99/117 109/100/118 154/93/111
f 154/93/111 109/100/118 155/95/113
f 15/121/139 91/56/64 155/95/113
f 156/104/122 151/82/96 136/105/123
f 156/104/122 132/106/124 130/79/93
f 159/134/154 32/119/137 110/133/153
f 27/20/20 24/111/129 28/16/16
f 31/36/41 21/35/40 18/24/28
f 29/18/18 21/35/40 101/37/42
f 26/15/15 20/112/130 19/19/19
f 19/19/19 21/35/40 29/18/18
f 18/24/28 17/120/138 15/121/139
f 28/16/16 37/21/21 35/113/131
f 38/21/22 41/21/25 37/21/21
f 41/21/25 38/21/22 40/21/23
f 49/25/85 45/25/29 48/25/30
f 95/116/134 90/27/32 51/26/31
f 94/46/54 56/38/43 54/40/45
f 52/47/55 50/135/155 68/136/156
f 150/101/119 70/32/37 97/102/120
f 67/33/38 70/32/37 66/117/135
f 64/53/61 55/30/35 65/34/39
f 55/30/35 96/62/70 65/34/39
f 77/45/53 71/41/46 75/43/48
f 74/43/50 75/43/48 76/43/51
f 71/41/46 78/48/56 79/44/52
f 96/62/70 55/30/35 54/40/45
f 88/96/114 90/27/32 34/64/72
f 33/28/33 32/119/137 51/26/31
f 110/133/153 32/119/137 22/110/128
f 34/64/72 90/27/32 95/116/134
f 59/122/140 60/108/126 61/60/68
f 59/122/140 97/102/120 92/63/71
f 61/60/68 63/59/67 97/102/120
f 44/127/147 98/123/141 102/128/148
f 103/132/152 23/109/127 104/124/142
f 31/36/41 44/127/147 102/128/148
f 105/126/144 102/128/148 107/70/78
f 106/67/75 107/70/78 100/68/76
f 103/132/152 22/110/128 23/109/127
f 15/121/139 98/123/141 18/24/28
f 121/71/82 117/71/81 120/71/146
f 42/22/26 18/24/28 44/127/147
f 44/127/147 47/137/157 42/22/26
f 46/115/133 47/137/157 122/25/84
f 122/25/84 47/137/157 44/127/147
f 123/129/149 52/47/55 68/136/156
f 58/39/44 132/106/124 60/108/126
f 150/101/119 134/103/121 136/105/123
f 150/101/119 136/105/123 70/32/37
f 143/84/99 139/87/104 142/84/100
f 138/81/95 137/83/97 135/130/150
f 109/100/118 111/74/88 110/133/153
f 123/129/149 110/133/153 111/74/88
f 98/123/141 155/95/113 109/100/118
f 134/103/121 150/101/119 156/104/122
f 132/106/124 150/101/119 157/138/158
f 68/136/156 110/133/153 123/129/149
f 68/136/156 159/134/154 110/133/153
f 158/98/116 89/55/63 88/96/114
f 17/120/138 18/24/28 19/19/19
f 20/112/130 25/17/17 30/58/66
f 28/16/16 24/111/129 25/17/17
f 89/55/63 16/57/65 20/112/130
f 37/21/21 39/21/24 36/114/132
f 40/21/23 38/21/22 39/21/24
f 43/23/27 31/36/41 18/24/28
f 43/23/27 47/137/157 46/115/133
f 52/47/55 51/26/31 50/135/155
f 55/30/35 53/29/34 95/116/134
f 55/30/35 94/46/54 54/40/45
f 70/32/37 92/63/71 97/102/120
f 136/105/123 66/117/135 70/32/37
f 76/43/51 75/43/48 73/43/49
f 72/42/47 69/49/57 77/45/53
f 94/46/54 79/44/52 78/48/56
f 64/53/61 66/117/135 87/51/59
f 86/52/60 84/131/151 83/54/62
f 30/58/66 90/27/32 89/55/63
f 91/56/64 15/121/139 16/57/65
f 157/138/158 93/61/69 61/60/68
f 56/38/43 94/46/54 78/48/56
f 53/29/34 81/50/58 80/65/73
f 44/127/147 18/24/28 98/123/141
f 98/123/141 99/66/74 100/68/76
f 104/124/142 99/66/74 103/132/152
f 104/124/142 23/109/127 105/126/144
f 100/68/76 107/70/78 102/128/148
f 108/125/143 115/71/80 104/124/142
f 108/125/143 114/69/79 113/69/159
f 113/69/159 114/69/79 116/69/77
f 117/71/81 115/71/80 113/69/159
f 126/72/86 127/76/90 129/75/89
f 129/75/89 135/130/150 151/82/96
f 97/102/120 63/59/67 133/80/94
f 143/84/99 140/88/105 139/87/104
f 140/88/105 143/84/99 141/89/106
f 140/88/105 146/85/102 139/87/104
f 146/85/102 140/88/105 148/73/87
f 141/89/106 139/87/104 147/86/103
f 125/90/107 148/73/87 140/88/105
f 123/129/149 148/73/87 125/90/107
f 130/79/93 128/78/92 129/75/89
f 85/118/136 136/105/123 138/81/95
f 84/131/151 152/91/109 82/92/110
f 152/91/109 87/51/59 85/118/136
f 110/133/153 22/110/128 103/132/152
f 123/129/149 111/74/88 148/73/87
f 93/61/69 157/138/158 150/101/119
f 58/39/44 56/38/43 128/78/92
f 128/78/92 148/73/87 126/72/86
f 16/57/65 17/120/138 20/112/130
f 20/112/130 17/120/138 19/19/19
f 21/35/40 19/19/19 18/24/28
f 28/16/16 35/113/131 29/18/18
f 26/15/15 35/113/131 36/114/132
f 43/23/27 42/22/26 47/137/157
f 44/127/147 31/36/41 45/25/29
f 72/42/47 74/43/50 73/43/49
f 72/42/47 52/47/55 69/49/57
f 52/47/55 147/86/103 69/49/57
f 81/50/58 83/54/62 82/92/110
f 30/58/66 33/28/33 90/27/32
f 61/60/68 132/106/124 157/138/158
f 58/39/44 59/122/140 96/62/70
f 100/68/76 102/128/148 98/123/141
f 105/126/144 108/125/143 104/124/142
f 102/128/148 105/126/144 101/37/42
f 108/125/143 113/69/159 115/71/80
f 119/71/145 113/69/159 116/69/77
f 117/71/81 113/69/159 119/71/145
f 129/75/89 131/77/91 135/130/150
f 141/89/106 143/84/99 149/84/108
f 131/77/91 80/65/73 81/50/58
f 84/131/151 82/92/110 83/54/62
f 80/65/73 127/76/90 124/97/115
f 50/135/155 51/26/31 32/119/137
f 159/134/154 50/135/155 32/119/137
