# Blender 4.3.2
# www.blender.org
mtllib Caballo1.mtl
o Caballo1
v 0.066980 5.312989 -0.082559
v 0.084980 5.312989 -0.055556
v 0.024327 1.963167 -0.044027
v -0.078394 5.305419 -0.024821
v -0.050720 5.304188 -0.082559
v 0.048345 5.315863 0.059304
v -0.057582 -0.225567 -0.097466
v -0.039445 1.726065 -0.089897
v 0.007030 1.965775 -0.000257
v -0.007433 1.982486 -0.029866
v -0.020366 1.726597 0.056857
v 0.096355 1.702488 -0.023903
v 0.096831 -0.225608 -0.024995
v -0.004625 -0.225577 0.065295
v 0.071082 5.321738 -0.089867
v 0.084980 5.321791 -0.055556
v -0.070154 5.308479 -0.020544
v -0.044488 5.315289 -0.072716
v 0.040883 5.318403 0.052157
v 0.075958 1.982054 -0.069042
v 0.075958 5.304188 -0.069044
v -0.951255 2.793789 -0.029129
v -0.748209 2.710852 0.333215
v -1.307275 2.586196 0.361898
v -1.464501 2.614709 0.089246
v -1.359533 2.039379 0.400807
v -0.876613 2.162606 0.607843
v -1.455437 2.062133 0.081401
v -0.257517 1.660736 -0.080592
v -0.602672 1.757848 -0.125305
v -0.403407 1.790184 0.234835
v -0.282967 1.900949 0.345924
v -1.117219 1.589306 0.349476
v -0.668900 1.704662 0.150560
v -1.082179 1.219000 0.265272
v -1.060547 1.691200 0.182212
v -0.379913 2.222238 0.463086
v -1.459422 2.513107 -0.012929
v -0.157662 1.703637 0.207260
v -0.125959 2.171278 0.427111
v 0.253125 2.803110 0.300115
v -1.395477 1.187166 0.218769
v -1.285324 1.204925 0.392197
v -0.724126 0.795510 0.228517
v -0.600398 0.928874 0.261846
v -0.716351 0.683683 0.398264
v -0.562534 0.413750 0.242676
v -0.771999 0.577548 0.117820
v -1.609636 2.757076 -0.073464
v -1.623397 2.704556 0.082949
v -1.474800 2.577893 -0.101047
v -1.672016 2.294091 -0.004567
v -2.065516 2.468513 0.028334
v -1.975824 2.575239 -0.103350
v -2.013311 2.027371 0.045943
v -1.586634 1.697387 -0.028123
v -0.010302 1.672791 0.060470
v 0.426348 1.904948 0.474851
v 0.585167 1.706101 0.111534
v 0.384024 2.854178 0.123117
v 1.064800 2.818884 0.129061
v 0.998780 3.268128 0.235289
v 1.040032 2.232365 0.040325
v 0.905406 3.419610 0.049390
v 1.146305 2.702988 0.127374
v 1.248776 2.511838 0.122183
v 1.154787 2.487321 -0.001852
v 1.261358 2.406769 0.149683
v 1.184980 2.227041 -0.052941
v 1.439758 2.356878 0.071662
v 1.595715 3.386350 0.058476
v 1.558872 3.329549 0.149352
v 1.721908 3.183410 0.030036
v 1.768992 3.352797 0.173729
v 0.070783 1.651739 -0.087684
v 0.828308 1.820050 0.055400
v 0.817279 1.799386 -0.114643
v 1.652778 3.015315 0.123182
v 1.373072 1.523231 0.246276
v 1.150539 1.454248 0.284573
v 0.848069 1.003788 0.353418
v 0.850010 1.041821 0.165735
v 1.093268 0.946182 0.240105
v 0.585779 0.821742 0.254207
v 1.202730 1.480982 0.164675
v 0.885719 1.969594 0.189591
v 0.632843 1.927107 0.400589
v 0.254645 2.923255 -0.020698
v 0.501810 3.281816 0.048310
v 0.589182 3.557378 -0.043865
v 0.916968 3.680918 0.064327
v 1.000210 3.787423 -0.045888
v 1.911064 3.122468 -0.082435
v 1.547938 3.748119 0.018543
v 1.876482 3.388471 0.041235
v 0.092538 2.783703 0.029784
v -0.436875 2.712245 0.291419
v -0.093452 2.600887 0.332264
v -0.913914 2.960404 0.024482
v 1.449119 2.942158 0.185629
v 1.293947 2.221619 -0.022600
v 0.855669 2.369464 0.354230
v 0.587336 2.664821 0.424862
v 1.234068 3.006519 0.236212
v 1.443188 2.521390 0.078185
v -1.261107 2.559837 -0.484898
v -0.690115 2.078556 -0.638835
v -1.276433 2.087201 -0.519497
v -1.339986 1.966490 -0.034829
v -1.501659 2.168498 -0.238557
v -0.305897 1.851843 -0.329680
v -0.930404 1.462670 -0.346593
v -1.086879 1.773813 -0.156752
v -1.127961 1.626755 -0.434101
v -1.231281 1.680092 -0.322294
v -1.145937 1.548233 -0.200809
v -0.376654 2.291539 -0.530024
v -0.162318 1.716616 -0.269174
v -0.125358 2.170302 -0.474514
v -0.085596 2.644833 -0.345963
v -1.605174 1.431501 -0.228758
v -1.730147 1.550577 -0.317914
v -1.448938 1.381264 -0.341127
v -1.625411 1.473293 -0.437611
v -1.228175 0.861534 -0.292876
v -1.435989 0.726078 -0.443092
v -1.447404 0.778211 -0.278601
v -1.520541 0.612211 -0.146766
v -1.498031 0.412996 -0.363309
v -1.941727 2.078206 -0.135103
v 0.422275 1.902174 -0.524556
v 0.279596 2.801225 -0.334935
v 0.550346 1.760402 -0.255802
v 0.362638 2.869800 -0.129159
v 1.032634 3.294026 -0.280163
v 0.871996 2.341809 -0.393969
v 1.066662 2.847611 -0.171421
v 0.572642 3.294416 -0.106852
v 1.232634 2.505578 -0.171486
v 1.435000 2.372668 -0.123068
v 1.475426 2.886515 -0.191563
v 1.596656 3.362991 -0.100330
v 1.708307 3.024906 -0.095717
v 1.832922 3.380118 -0.267760
v 1.729812 3.264256 -0.104257
v 1.390842 1.406630 -0.287587
v 1.204983 1.465133 -0.362388
v 0.760537 1.054623 -0.316662
v 0.641774 1.233943 -0.388073
v 0.684132 1.220829 -0.233245
v 0.293039 1.277282 -0.298031
v 0.576418 1.353259 -0.168156
v 0.889510 1.992893 -0.250532
v 0.622765 1.938388 -0.445071
v 1.273619 1.476038 -0.182459
v 1.417401 2.521636 -0.146120
v 1.554240 3.338320 -0.199695
v 1.657679 3.667041 -0.117862
v 0.001596 2.763880 -0.106113
v -0.451841 2.703266 -0.332592
v -0.779780 2.732940 -0.349611
v 0.986245 2.322707 -0.197819
v 0.597287 2.658878 -0.476667
v 0.943036 2.319885 -0.248294
v 1.244381 3.009069 -0.296746
v 1.295967 2.436304 -0.203158
v 0.951645 2.344401 -0.244668
v -0.070501 2.750002 0.021784
v -0.054037 1.674984 -0.081303
vn 0.8191 0.0285 -0.5730
vn 0.9013 0.0248 0.4324
vn 0.9569 0.0311 -0.2888
vn 0.5517 0.0217 -0.8338
vn -0.6580 0.0090 -0.7529
vn -0.6601 -0.0055 -0.7512
vn -0.4858 0.0152 0.8740
vn 0.1455 0.0240 0.9891
vn 0.1455 0.0236 0.9891
vn 0.1458 0.0229 0.9891
vn 0.9973 0.0072 -0.0731
vn 0.9896 0.0003 -0.1440
vn -0.2593 -0.0051 0.9658
vn -0.9255 0.0227 -0.3782
vn -0.5987 -0.0901 0.7959
vn 0.9226 0.2056 -0.3263
vn 0.2112 -0.5308 0.8208
vn -0.4615 -0.4335 -0.7740
vn -0.7441 -0.2669 0.6125
vn 0.1728 -0.7765 -0.6060
vn -0.5969 0.0705 -0.7992
vn 0.7559 0.6480 -0.0935
vn 0.4716 -0.8817 -0.0163
vn -0.2226 -0.2438 0.9439
vn -0.5907 -0.3212 -0.7402
vn 0.1209 0.8962 -0.4269
vn 0.0208 0.5921 0.8056
vn -0.6298 0.6197 0.4683
vn 0.7614 -0.5231 0.3829
vn -0.7172 -0.4786 0.5066
vn 0.0770 -0.4542 0.8876
vn -0.0272 0.5179 0.8550
vn 0.0256 -0.0627 0.9977
vn -0.2195 0.7301 0.6471
vn -0.0914 0.4592 0.8836
vn -0.1064 0.2583 0.9602
vn 0.6872 -0.2891 0.6664
vn 0.7541 0.4824 0.4457
vn 0.0016 0.5075 0.8617
vn -0.9278 -0.3490 -0.1319
vn -0.7881 -0.5347 0.3050
vn -0.6999 -0.7015 -0.1345
vn 0.9600 -0.2524 0.1210
vn -0.3199 -0.3593 0.8767
vn 0.2715 -0.1708 0.9472
vn 0.9899 0.1009 0.1000
vn -0.3973 -0.1510 0.9052
vn 0.7049 -0.7079 -0.0456
vn -0.3338 0.1022 0.9371
vn -0.5125 0.2463 -0.8226
vn -0.8725 -0.4886 -0.0085
vn 0.3021 -0.3487 0.8872
vn 0.0186 -0.1273 -0.9917
vn 0.5883 -0.0713 0.8055
vn 0.0028 -0.9981 0.0619
vn 0.9143 0.0739 0.3982
vn 0.6732 -0.5490 -0.4954
vn -0.6932 0.4540 0.5598
vn 0.8315 0.2346 0.5036
vn 0.2814 0.8420 0.4603
vn 0.1059 0.5209 0.8470
vn -0.2118 0.4759 0.8536
vn 0.1497 0.7744 0.6147
vn -0.5026 0.8581 0.1054
vn -0.0531 0.6638 0.7461
vn 0.1961 0.0437 0.9796
vn 0.7535 -0.4281 0.4990
vn -0.3180 -0.2809 0.9055
vn -0.3186 -0.9429 -0.0971
vn -0.0178 -0.1081 0.9940
vn 0.2620 -0.0969 0.9602
vn -0.1745 0.7841 0.5955
vn -0.6301 0.7742 -0.0592
vn 0.1436 -0.1025 -0.9843
vn -0.1915 -0.2538 -0.9481
vn -0.5462 -0.1255 -0.8282
vn -0.5289 0.0195 -0.8485
vn -0.9381 0.3188 0.1356
vn -0.9364 0.3408 0.0833
vn 0.8157 -0.5123 -0.2685
vn 0.9817 0.0340 0.1875
vn -0.2436 -0.9385 -0.2445
vn -0.2659 -0.1780 -0.9474
vn -0.3951 -0.2831 -0.8739
vn 0.5653 -0.8249 0.0046
vn 0.0249 0.3020 -0.9530
vn 0.1253 -0.5029 -0.8552
vn -0.0327 -0.1159 -0.9927
vn -0.0535 0.6452 -0.7621
vn -0.2353 0.7214 -0.6513
vn -0.5446 0.3459 -0.7640
vn 0.8765 -0.1052 -0.4697
vn 0.2817 -0.3162 -0.9059
vn 0.5267 -0.3754 -0.7627
vn 0.3187 -0.0955 -0.9430
vn 0.1136 0.5737 -0.8111
vn 0.7916 0.2644 -0.5509
vn -0.9931 0.1092 -0.0432
vn -0.0898 0.3246 -0.9416
vn 0.0758 -0.9949 -0.0672
vn 0.0925 0.6690 0.7375
vn 0.0162 0.1623 0.9866
vn 0.3733 0.0325 0.9271
vn 0.3268 -0.3362 -0.8833
vn 0.6330 -0.0991 -0.7678
vn 0.4335 -0.7106 0.5541
vn 0.9043 0.0156 -0.4267
vn 0.4873 0.5837 -0.6495
vn -0.7116 0.6740 -0.1983
vn 0.1228 0.7881 -0.6032
vn -0.1586 0.9739 -0.1626
vn -0.0369 0.7315 -0.6808
vn -0.4031 0.9075 0.1185
vn -0.1198 0.8053 -0.5807
vn -0.1177 0.9929 -0.0183
vn -0.0582 0.6335 -0.7715
vn 0.2075 0.1143 -0.9715
vn 0.6757 -0.2204 -0.7035
vn 0.7878 -0.1865 0.5870
vn 0.4088 -0.1360 -0.9024
vn -0.0155 -0.1187 -0.9928
vn 0.7887 -0.4251 -0.4441
vn 0.8162 -0.3378 -0.4687
vn 0.0911 0.9901 0.1071
vn -0.5468 -0.3033 -0.7804
vn -0.1247 -0.9702 -0.2079
vn -0.9980 -0.0497 0.0379
vn 0.0520 -0.9848 0.1658
vn -0.0047 -0.9961 -0.0880
vn 0.4055 -0.8990 0.1656
vn -0.0166 -0.0096 0.9998
vn -0.8773 -0.2549 -0.4067
vn -0.4102 -0.1629 0.8973
vn -0.8868 0.2537 0.3863
vn 0.0087 0.3030 0.9530
vn 0.7873 -0.3290 0.5215
vn 0.8210 -0.5259 -0.2223
vn -0.2422 -0.8406 0.4846
vn -0.4951 0.5579 0.6660
vn -0.6567 0.7526 -0.0491
vn -0.3328 -0.1000 0.9377
vn -0.4406 0.5328 -0.7225
vn 0.2805 -0.9535 -0.1102
vn 0.0040 -0.2923 0.9563
vn -0.2662 -0.5220 0.8103
vn -0.8099 0.2465 0.5323
vn -0.5082 -0.2134 0.8344
vn -0.2350 0.6394 -0.7321
vn -0.9722 -0.1971 -0.1267
vn 0.0462 0.0824 -0.9955
vn 0.9643 -0.2400 -0.1119
vn -0.9497 -0.2231 0.2200
vn -0.0100 0.5991 -0.8006
vn -0.2058 0.9278 -0.3112
vn 0.0890 -0.6422 -0.7613
vn -0.1787 -0.8040 -0.5672
vn -0.2524 -0.9658 -0.0593
vn -0.0060 -0.9751 0.2215
vn 0.0854 -0.9792 -0.1840
vn -0.5771 0.5957 -0.5587
vn -0.1655 -0.3422 -0.9249
vn -0.5107 -0.1362 0.8489
vt 0.572675 0.056166
vt 0.573721 0.056352
vt 0.573323 0.055900
vt 0.572061 0.056509
vt 0.235213 0.711502
vt 0.235756 0.643862
vt 0.235325 0.710540
vt 0.230907 0.657176
vt 0.233780 0.652330
vt 0.228187 0.652355
vt 0.235107 0.710051
vt 0.235254 0.644074
vt 0.235196 0.643513
vt 0.235856 0.643208
vt 0.236589 0.653506
vt 0.237627 0.643259
vt 0.442922 0.318227
vt 0.442940 0.318186
vt 0.443336 0.318554
vt 0.442901 0.318094
vt 0.442772 0.318310
vt 0.442996 0.318031
vt 0.442940 0.318185
vt 0.442595 0.318036
vt 0.442599 0.318046
vt 0.442603 0.318121
vt 0.442601 0.318036
vt 0.444101 0.318413
vt 0.443441 0.323924
vt 0.443525 0.319772
vt 0.445839 0.318287
vt 0.445206 0.316634
vt 0.445278 0.316356
vt 0.445119 0.316259
vt 0.445144 0.316251
vt 0.445151 0.316281
vt 0.442753 0.318049
vt 0.442624 0.318029
vt 0.442784 0.317879
vt 0.444551 0.316772
vt 0.445021 0.316401
vt 0.445030 0.316617
vt 0.444227 0.317301
vt 0.444226 0.317303
vt 0.444226 0.317301
vt 0.444246 0.317777
vt 0.444226 0.317298
vt 0.444681 0.317642
vt 0.444048 0.317379
vt 0.444315 0.317249
vt 0.444215 0.317078
vt 0.445488 0.316124
vt 0.445149 0.316193
vt 0.445176 0.316172
vt 0.445158 0.316245
vt 0.445255 0.316156
vt 0.442314 0.320845
vt 0.442232 0.318393
vt 0.442386 0.319287
vt 0.443179 0.319776
vt 0.445046 0.316268
vt 0.445041 0.316280
vt 0.445043 0.316264
vt 0.445116 0.316462
vt 0.445103 0.316335
vt 0.445867 0.321293
vt 0.446401 0.315259
vt 0.442762 0.316907
vt 0.442835 0.317439
vt 0.442703 0.317449
vt 0.442853 0.317485
vt 0.442836 0.317521
vt 0.442853 0.317484
vt 0.444681 0.314219
vt 0.443892 0.315727
vt 0.443139 0.315208
vt 0.445157 0.315789
vt 0.445538 0.313693
vt 0.445416 0.315740
vt 0.444567 0.316009
vt 0.444986 0.315957
vt 0.445045 0.316254
vt 0.445136 0.316147
vt 0.445136 0.316094
vt 0.445136 0.316135
vt 0.444158 0.316460
vt 0.444158 0.316461
vt 0.444089 0.316009
vt 0.444506 0.315604
vt 0.444169 0.316674
vt 0.444238 0.316385
vt 0.445165 0.316155
vt 0.445327 0.316049
vt 0.441913 0.315920
vt 0.439769 0.280239
vt 0.442201 0.317337
vt 0.454302 0.328947
vt 0.445047 0.310688
vt 0.435628 0.343045
vt 0.442354 0.311209
vt 0.442746 0.315553
vt 0.445048 0.316242
vt 0.445051 0.316274
vt 0.445082 0.316141
vt 0.445075 0.315994
vt 0.445116 0.316186
vt 0.444568 0.316158
vt 0.444547 0.316015
vt 0.445035 0.316227
vt 0.445037 0.316267
vt 0.445028 0.316274
vt 0.443089 0.317484
vt 0.443323 0.317343
vt 0.443225 0.318187
vt 0.442848 0.318839
vt 0.442939 0.318185
vt 0.442939 0.318187
vt 0.442601 0.318037
vt 0.445053 0.318568
vt 0.445137 0.316228
vt 0.445138 0.316191
vt 0.443456 0.318032
vt 0.442617 0.318418
vt 0.442342 0.318247
vt 0.445041 0.316304
vt 0.442557 0.317534
vt 0.442896 0.317415
vt 0.442868 0.317520
vt 0.442867 0.317672
vt 0.442594 0.317985
vt 0.442692 0.317744
vt 0.443998 0.316496
vt 0.445146 0.316125
vt 0.445235 0.316117
vt 0.443132 0.316639
vt 0.443360 0.316832
vt 0.443530 0.317221
vt 0.443588 0.317524
vt 0.443617 0.317163
vt 0.442600 0.318036
vt 0.445040 0.316246
vt 0.442853 0.317486
s 1
usemtl Material.019
f 3/1/1 5/2/2 4/3/3
f 6/4/4 3/1/1 4/3/3
usemtl Material.020
f 8/5/5 7/6/6 11/7/7
f 9/8/8 15/9/9 18/10/10
f 7/6/6 12/11/11 13/12/12
f 11/7/7 7/6/6 14/13/13
f 14/13/13 12/11/11 11/7/7
f 7/6/6 8/5/5 12/11/11
f 14/13/13 13/12/12 12/11/11
f 16/14/14 10/15/14 19/16/14
usemtl Material.021
f 33/17/15 35/18/16 32/19/17
f 36/20/18 33/17/15 26/21/19
f 35/18/16 36/20/18 34/22/20
f 44/23/21 35/18/16 45/23/22
f 47/23/23 46/23/24 48/23/25
f 49/24/26 50/25/27 25/26/28
f 52/27/29 50/25/27 55/27/30
f 58/28/31 98/29/32 40/30/33
f 60/31/34 62/32/35 64/33/36
f 78/34/37 74/35/38 72/36/39
f 28/37/40 38/38/41 109/39/42
f 63/40/43 65/41/44 61/42/45
f 79/43/46 80/44/47 83/45/48
f 81/45/49 83/45/48 80/44/47
f 82/45/50 84/45/51 81/45/49
f 80/44/47 79/43/46 87/46/52
f 83/45/48 82/45/50 85/47/53
f 58/28/31 87/46/52 102/48/54
f 59/49/55 80/44/47 87/46/52
f 63/40/43 86/50/56 76/51/57
f 60/31/34 64/33/36 89/52/58
f 95/53/59 94/54/60 71/55/61
f 91/56/62 89/52/58 64/33/36
f 71/55/61 94/54/60 91/56/62
f 97/57/63 99/58/64 23/59/65
f 32/19/17 40/30/33 37/60/66
f 70/61/67 68/62/68 101/63/69
f 78/34/37 104/64/70 100/65/71
f 41/66/72 60/31/34 88/67/73
f 107/68/74 114/69/75 108/70/76
f 124/71/77 115/72/78 114/69/75
f 115/72/78 124/71/77 122/71/79
f 124/71/77 123/73/80 125/71/81
f 129/71/82 126/71/83 125/71/81
f 55/27/30 130/27/84 56/27/85
f 163/74/86 131/75/87 119/76/88
f 135/77/89 134/78/90 138/79/91
f 167/80/92 137/81/93 65/41/44
f 140/82/94 70/61/67 101/63/69
f 145/83/95 157/84/96 144/85/97
f 151/86/98 149/86/99 148/86/100
f 149/86/99 151/86/98 152/86/101
f 150/86/102 148/86/100 155/87/103
f 148/86/100 150/86/102 151/86/98
f 154/88/104 131/75/87 136/89/105
f 63/40/43 77/90/106 153/91/107
f 158/92/108 138/79/91 90/93/109
f 89/52/58 90/93/109 138/79/91
f 160/94/110 97/57/63 159/95/111
f 97/57/63 160/94/110 99/58/64
f 99/58/64 160/94/110 161/96/112
f 96/97/113 88/67/73 132/98/114
f 168/99/115 159/95/111 97/57/63
f 120/100/116 119/76/88 117/101/117
f 163/74/86 132/98/114 134/78/90
f 156/102/118 140/82/94 101/63/69
f 156/102/118 105/103/119 140/82/94
f 141/104/120 165/105/121 143/106/122
f 63/40/43 136/89/105 162/107/123
f 162/107/123 136/89/105 164/108/124
f 139/109/125 69/110/126 67/111/127
f 137/81/93 167/80/92 136/89/105
f 167/80/92 65/41/44 162/107/123
f 134/78/90 88/67/73 138/79/91
f 165/105/121 135/77/89 157/84/96
f 30/112/128 29/113/129 31/114/130
f 27/115/131 33/17/15 32/19/17
f 37/60/66 97/57/63 27/115/131
f 34/22/20 36/20/18 109/39/42
f 30/112/128 31/114/130 34/22/20
f 30/112/128 34/22/20 109/39/42
f 33/17/15 36/20/18 42/116/132
f 43/117/133 35/18/16 33/17/15
f 43/117/133 42/116/132 44/23/21
f 35/18/16 46/23/24 45/23/22
f 43/117/133 46/23/24 35/18/16
f 44/23/21 48/23/25 46/23/24
f 38/38/41 50/25/27 52/27/29
f 50/25/27 53/118/134 55/27/30
f 103/119/135 102/48/54 62/32/35
f 62/32/35 71/55/61 64/33/36
f 67/111/127 69/110/126 68/62/68
f 85/47/53 82/45/50 80/44/47
f 76/51/57 86/50/56 79/43/46
f 87/46/52 58/28/31 59/49/55
f 76/51/57 79/43/46 85/47/53
f 104/64/70 61/42/45 65/41/44
f 71/55/61 72/36/39 74/35/38
f 73/120/136 71/55/61 74/35/38
f 93/121/137 95/53/59 73/120/136
f 64/33/36 71/55/61 91/56/62
f 98/29/32 96/97/113 97/57/63
f 32/19/17 39/122/138 40/30/33
f 32/19/17 29/113/129 39/122/138
f 29/113/129 32/19/17 31/114/130
f 41/66/72 103/119/135 60/31/34
f 24/123/139 23/59/65 22/124/140
f 68/62/68 69/110/126 139/109/125
f 65/41/44 67/111/127 66/125/141
f 105/103/119 66/125/141 68/62/68
f 104/64/70 78/34/37 72/36/39
f 66/125/141 100/65/71 104/64/70
f 102/48/54 103/119/135 58/28/31
f 22/124/140 161/96/112 106/126/142
f 114/69/75 107/68/74 112/127/143
f 117/101/117 107/68/74 106/126/142
f 116/128/144 113/129/145 115/72/78
f 30/112/128 109/39/42 113/129/145
f 112/127/143 123/73/80 114/69/75
f 115/72/78 122/71/79 116/128/144
f 114/69/75 123/73/80 124/71/77
f 126/71/83 124/71/77 125/71/81
f 124/71/77 126/71/83 127/71/146
f 125/71/81 127/71/146 128/71/147
f 128/71/147 127/71/146 129/71/82
f 127/71/146 126/71/83 129/71/82
f 130/27/84 55/27/30 53/118/134
f 130/27/84 51/130/148 52/27/29
f 56/27/85 130/27/84 52/27/29
f 136/89/105 163/74/86 135/77/89
f 110/131/149 109/39/42 38/38/41
f 137/81/93 139/109/125 65/41/44
f 147/86/150 146/86/151 148/86/100
f 152/86/101 150/86/102 149/86/99
f 155/87/103 147/86/150 150/86/102
f 148/86/100 146/86/151 155/87/103
f 150/86/102 152/86/101 151/86/98
f 153/91/107 77/90/106 155/87/103
f 133/132/152 155/87/103 77/90/106
f 131/75/87 77/90/106 59/49/55
f 156/102/118 139/109/125 165/105/121
f 137/81/93 135/77/89 165/105/121
f 153/91/107 136/89/105 63/40/43
f 63/40/43 76/51/57 77/90/106
f 145/83/95 143/106/122 157/84/96
f 142/133/153 144/85/97 157/84/96
f 143/106/122 93/121/137 73/120/136
f 142/133/153 158/92/108 145/83/95
f 93/121/137 145/83/95 158/92/108
f 158/92/108 142/133/153 138/79/91
f 92/134/154 94/54/60 158/92/108
f 95/53/59 158/92/108 94/54/60
f 159/95/111 132/98/114 120/100/116
f 120/100/116 160/94/110 159/95/111
f 132/98/114 159/95/111 96/97/113
f 88/67/73 96/97/113 41/66/72
f 111/135/155 117/101/117 118/136/156
f 119/76/88 120/100/116 163/74/86
f 111/135/155 107/68/74 117/101/117
f 132/98/114 163/74/86 120/100/116
f 120/100/116 117/101/117 160/94/110
f 160/94/110 117/101/117 161/96/112
f 22/124/140 99/58/64 161/96/112
f 165/105/121 157/84/96 143/106/122
f 165/105/121 139/109/125 137/81/93
f 167/80/92 164/108/124 136/89/105
f 169/137/157 39/122/138 118/136/156
f 34/22/20 31/114/130 35/18/16
f 38/38/41 28/37/40 25/26/28
f 36/20/18 28/37/40 109/39/42
f 33/17/15 27/115/131 26/21/19
f 26/21/19 28/37/40 36/20/18
f 25/26/28 24/123/139 22/124/140
f 35/18/16 44/23/21 42/116/132
f 45/23/22 48/23/25 44/23/21
f 48/23/25 45/23/22 47/23/23
f 56/27/85 52/27/29 55/27/30
f 103/119/135 98/29/32 58/28/31
f 102/48/54 63/40/43 61/42/45
f 59/49/55 57/138/158 75/139/159
f 156/102/118 78/34/37 105/103/119
f 74/35/38 78/34/37 73/120/136
f 71/55/61 62/32/35 72/36/39
f 62/32/35 104/64/70 72/36/39
f 85/47/53 79/43/46 83/45/48
f 82/45/50 83/45/48 84/45/51
f 79/43/46 86/50/56 87/46/52
f 104/64/70 62/32/35 61/42/45
f 96/97/113 98/29/32 41/66/72
f 40/30/33 39/122/138 58/28/31
f 118/136/156 39/122/138 29/113/129
f 41/66/72 98/29/32 103/119/135
f 66/125/141 67/111/127 68/62/68
f 66/125/141 105/103/119 100/65/71
f 68/62/68 70/61/67 105/103/119
f 51/130/148 106/126/142 110/131/149
f 111/135/155 30/112/128 112/127/143
f 38/38/41 51/130/148 110/131/149
f 113/129/145 110/131/149 115/72/78
f 114/69/75 115/72/78 108/70/76
f 111/135/155 29/113/129 30/112/128
f 22/124/140 106/126/142 25/26/28
f 129/71/82 125/71/81 128/71/147
f 49/24/26 25/26/28 51/130/148
f 51/130/148 54/140/160 49/24/26
f 53/118/134 54/140/160 130/27/84
f 130/27/84 54/140/160 51/130/148
f 131/75/87 59/49/55 75/139/159
f 65/41/44 139/109/125 67/111/127
f 156/102/118 141/104/120 143/106/122
f 156/102/118 143/106/122 78/34/37
f 149/86/99 147/86/150 148/86/100
f 133/132/152 147/86/150 155/87/103
f 131/75/87 133/132/152 77/90/106
f 145/83/95 144/85/97 142/133/153
f 117/101/117 119/76/88 118/136/156
f 131/75/87 118/136/156 119/76/88
f 106/126/142 161/96/112 117/101/117
f 141/104/120 156/102/118 165/105/121
f 139/109/125 156/102/118 166/141/161
f 75/139/159 118/136/156 131/75/87
f 75/139/159 169/137/157 118/136/156
f 168/99/115 97/57/63 96/97/113
f 24/123/139 25/26/28 26/21/19
f 27/115/131 32/19/17 37/60/66
f 35/18/16 31/114/130 32/19/17
f 97/57/63 23/59/65 27/115/131
f 44/23/21 46/23/24 43/117/133
f 47/23/23 45/23/22 46/23/24
f 50/25/27 38/38/41 25/26/28
f 50/25/27 54/140/160 53/118/134
f 59/49/55 58/28/31 57/138/158
f 62/32/35 60/31/34 103/119/135
f 62/32/35 102/48/54 61/42/45
f 78/34/37 100/65/71 105/103/119
f 143/106/122 73/120/136 78/34/37
f 84/45/51 83/45/48 81/45/49
f 80/44/47 76/51/57 85/47/53
f 102/48/54 87/46/52 86/50/56
f 71/55/61 73/120/136 95/53/59
f 94/54/60 92/134/154 91/56/62
f 37/60/66 98/29/32 97/57/63
f 99/58/64 22/124/140 23/59/65
f 166/141/161 101/63/69 68/62/68
f 63/40/43 102/48/54 86/50/56
f 60/31/34 89/52/58 88/67/73
f 51/130/148 25/26/28 106/126/142
f 106/126/142 107/68/74 108/70/76
f 112/127/143 107/68/74 111/135/155
f 112/127/143 30/112/128 113/129/145
f 108/70/76 115/72/78 110/131/149
f 116/128/144 123/73/80 112/127/143
f 116/128/144 122/71/79 121/142/162
f 121/142/162 122/71/79 124/71/77
f 125/71/81 123/73/80 121/142/162
f 163/74/86 134/78/90 135/77/89
f 135/77/89 142/133/153 157/84/96
f 105/103/119 70/61/67 140/82/94
f 147/86/150 149/86/99 150/86/102
f 147/86/150 153/91/107 146/86/151
f 155/87/103 146/86/151 153/91/107
f 131/75/87 154/88/104 133/132/152
f 137/81/93 136/89/105 135/77/89
f 136/89/105 153/91/107 154/88/104
f 93/121/137 143/106/122 145/83/95
f 92/134/154 158/92/108 90/93/109
f 158/92/108 95/53/59 93/121/137
f 118/136/156 29/113/129 111/135/155
f 101/63/69 166/141/161 156/102/118
f 65/41/44 63/40/43 162/107/123
f 136/89/105 131/75/87 163/74/86
f 23/59/65 24/123/139 27/115/131
f 27/115/131 24/123/139 26/21/19
f 28/37/40 26/21/19 25/26/28
f 35/18/16 42/116/132 36/20/18
f 33/17/15 42/116/132 43/117/133
f 50/25/27 49/24/26 54/140/160
f 51/130/148 38/38/41 52/27/29
f 80/44/47 82/45/50 81/45/49
f 80/44/47 59/49/55 76/51/57
f 59/49/55 77/90/106 76/51/57
f 89/52/58 91/56/62 90/93/109
f 37/60/66 40/30/33 98/29/32
f 68/62/68 139/109/125 166/141/161
f 65/41/44 66/125/141 104/64/70
f 108/70/76 110/131/149 106/126/142
f 113/129/145 116/128/144 112/127/143
f 110/131/149 113/129/145 109/39/42
f 116/128/144 121/142/162 123/73/80
f 127/71/146 121/142/162 124/71/77
f 125/71/81 121/142/162 127/71/146
f 135/77/89 138/79/91 142/133/153
f 147/86/150 154/88/104 153/91/107
f 147/86/150 133/132/152 154/88/104
f 138/79/91 88/67/73 89/52/58
f 92/134/154 90/93/109 91/56/62
f 88/67/73 134/78/90 132/98/114
f 57/138/158 58/28/31 39/122/138
f 169/137/157 57/138/158 39/122/138
l 20 21
l 17 18
l 1 2
