# Blender 4.3.2
# www.blender.org
mtllib Caballo2.mtl
o Caballo2
v 0.005919 5.307312 0.051958
v 0.019909 2.254874 -0.031565
v -0.054854 5.308782 0.024282
v -0.008028 5.308691 -0.117190
v 0.080345 -0.280984 -0.099879
v 0.072776 1.718128 -0.081743
v 0.006780 1.694013 0.054059
v 0.007874 -0.281026 0.054534
v -0.082416 -0.280996 -0.046923
v -0.073979 1.718672 -0.062663
v 0.003758 5.315748 0.039840
v 0.022484 2.272506 0.045883
v 0.038109 5.315616 0.034579
v 0.064183 1.708749 -0.096334
v 0.088990 2.797644 -0.040696
v 0.070562 1.685507 0.028486
v -0.038907 2.783767 -0.112799
v -0.077591 1.706557 -0.052599
v 0.012005 2.827554 -0.993553
v -0.350338 2.744617 -0.790507
v -0.379021 2.619961 -1.349570
v -0.106369 2.648473 -1.506798
v -0.417929 2.073144 -1.401831
v -0.624966 2.196371 -0.918911
v -0.098522 2.095896 -1.497734
v 0.063471 1.694501 -0.299815
v 0.108183 1.791612 -0.644967
v -0.251956 1.823949 -0.445704
v -0.363046 1.934714 -0.325265
v -0.366597 1.623069 -1.159516
v -0.167682 1.738426 -0.711199
v -0.282394 1.252766 -1.124476
v -0.199335 1.724964 -1.102845
v -0.480209 2.256001 -0.422210
v -0.004193 2.546872 -1.501719
v -0.224343 1.737390 -0.199952
v -0.444230 2.205029 -0.168267
v -0.317238 2.836876 0.210826
v -0.235890 1.220930 -1.437773
v -0.409319 1.238690 -1.327622
v -0.245651 0.829241 -0.766379
v -0.278970 0.962642 -0.642697
v -0.415385 0.717447 -0.758648
v -0.259799 0.447515 -0.604831
v -0.134943 0.611317 -0.814299
v 0.056341 2.790840 -1.651935
v -0.100072 2.738319 -1.665695
v 0.083924 2.611658 -1.517097
v -0.012556 2.327855 -1.714313
v -0.045474 2.502264 -2.107810
v 0.086228 2.609001 -2.018123
v -0.063065 2.061129 -2.055605
v 0.011001 1.731151 -1.628931
v -0.491973 1.938711 0.384051
v -0.128655 1.739864 0.542869
v -0.140240 2.887940 0.341727
v -0.146183 2.852648 1.022502
v -0.252411 3.301895 0.956485
v -0.061015 2.266016 0.996145
v -0.066511 3.453373 0.863109
v -0.147758 2.739811 1.102610
v -0.139305 2.545602 1.206479
v -0.015270 2.521086 1.112489
v -0.166806 2.440535 1.219062
v 0.035818 2.260805 1.142682
v -0.088785 2.390642 1.397461
v -0.190441 2.967309 1.423600
v -0.102612 3.459274 1.512337
v -0.169225 3.237111 1.595751
v -0.063898 3.075420 1.671693
v -0.072522 1.853814 0.786010
v 0.097521 1.833150 0.774981
v -0.263398 1.556995 1.330776
v -0.301696 1.488012 1.108242
v -0.370540 1.037553 0.805772
v -0.182857 1.075585 0.807713
v -0.257226 0.979947 1.050971
v -0.271328 0.855507 0.543483
v -0.181797 1.514747 1.160432
v -0.206712 2.003358 0.843422
v -0.417712 1.960873 0.590543
v -0.114853 3.378109 1.557936
v -0.057302 3.302873 1.680886
v -0.216005 3.420797 1.798718
v 0.003576 2.957017 0.212347
v -0.065432 3.315579 0.459511
v 0.026742 3.591142 0.546884
v -0.081450 3.714683 0.874673
v 0.028764 3.821186 0.957911
v 0.065326 3.156252 1.868788
v -0.035667 3.781882 1.505642
v -0.058352 3.422301 1.834132
v -0.046914 2.817466 0.050234
v -0.308542 2.746009 -0.479173
v -0.349384 2.634653 -0.135749
v -0.041600 2.994168 -0.956212
v 0.005477 2.255385 1.251650
v -0.371351 2.403229 0.813371
v -0.441985 2.698586 0.545037
v -0.252137 3.038908 1.190805
v -0.095311 2.555152 1.400901
v 0.467775 2.593603 -1.303404
v 0.621713 2.112317 -0.732416
v 0.502381 2.120970 -1.318730
v 0.017707 2.000254 -1.382284
v 0.221434 2.202262 -1.543956
v 0.312559 1.885608 -0.348195
v 0.329471 1.496436 -0.972700
v 0.139631 1.807577 -1.129177
v 0.416977 1.660516 -1.170264
v 0.305172 1.713857 -1.273579
v 0.183687 1.581997 -1.188236
v 0.512900 2.325305 -0.418952
v 0.252052 1.750379 -0.204613
v 0.457390 2.204063 -0.167663
v 0.328841 2.678597 -0.127893
v 0.211637 1.465265 -1.647472
v 0.300792 1.584341 -1.772444
v 0.324006 1.415027 -1.491235
v 0.420490 1.507058 -1.667708
v 0.275753 0.895299 -1.270472
v 0.425971 0.759843 -1.478287
v 0.261479 0.811975 -1.489701
v 0.129644 0.645975 -1.562839
v 0.346188 0.446759 -1.540327
v 0.117980 2.111965 -1.984025
v 0.507433 1.935938 0.379977
v 0.317813 2.834989 0.237300
v 0.238679 1.794166 0.508048
v 0.456528 2.697786 0.557716
v 0.112038 2.903563 0.320340
v 0.338237 2.349034 0.854108
v 0.263039 3.327792 0.990336
v 0.154456 2.881886 1.024815
v 0.089732 3.328180 0.530347
v 0.154363 2.539342 1.190336
v 0.105946 2.406432 1.392702
v 0.174440 2.920280 1.433129
v 0.083208 3.396756 1.554359
v 0.078593 3.058667 1.666012
v 0.250637 3.413882 1.790624
v 0.087134 3.298020 1.687514
v 0.367094 1.496180 1.223744
v 0.236176 1.489154 1.120073
v 0.299540 1.088387 0.718240
v 0.361419 1.267170 0.622836
v 0.280910 1.311046 0.250742
v 0.151034 1.387024 0.534121
v 0.233409 2.026657 0.847213
v 0.427949 1.972153 0.580468
v 0.217898 1.445849 1.345558
v 0.206424 1.224559 0.639388
v 0.128997 2.555400 1.375104
v 0.182573 3.372085 1.511942
v 0.100739 3.700805 1.615383
v 0.315470 2.737030 -0.494137
v 0.332489 2.766704 -0.822078
v 0.279623 3.042833 1.202082
v 0.186036 2.470068 1.253669
vn 0.9963 0.0259 -0.0819
vn 0.9492 0.0175 0.3142
vn 0.9174 0.0297 -0.3969
vn 0.4148 0.0268 -0.9095
vn 0.7514 0.0088 -0.6598
vn 0.7511 -0.0062 -0.6601
vn -0.8729 0.0149 -0.4876
vn 0.0729 0.0071 0.9973
vn 0.1440 0.0003 0.9896
vn -0.9658 -0.0047 -0.2593
vn -0.1514 -0.0029 -0.9885
vn -0.7960 -0.0901 -0.5985
vn 0.3262 0.2048 0.9228
vn -0.8207 -0.5309 0.2112
vn 0.7739 -0.4340 -0.4612
vn -0.6129 -0.2670 -0.7437
vn 0.6060 -0.7765 0.1728
vn 0.7990 0.0707 -0.5971
vn 0.0924 0.6471 0.7568
vn 0.0162 -0.8817 0.4715
vn -0.9439 -0.2432 -0.2235
vn 0.7400 -0.3229 -0.5900
vn 0.4275 0.8959 0.1207
vn -0.8056 0.5921 0.0208
vn -0.4682 0.6197 -0.6299
vn -0.3825 -0.5236 0.7613
vn -0.5066 -0.4786 -0.7172
vn -0.8876 -0.4541 0.0770
vn -0.8550 0.5179 -0.0271
vn -0.9977 -0.0628 0.0257
vn -0.6471 0.7301 -0.2196
vn -0.8937 0.4391 -0.0924
vn -0.9576 0.2566 -0.1311
vn 0.1319 -0.3490 -0.9278
vn -0.3050 -0.5346 -0.7881
vn 0.1345 -0.7015 -0.6999
vn -0.1104 -0.2318 0.9665
vn -0.8783 -0.3555 -0.3197
vn -0.9508 -0.1644 0.2627
vn -0.1008 0.1016 0.9897
vn -0.9051 -0.1507 -0.3975
vn 0.0461 -0.7079 0.7048
vn -0.9371 0.1021 -0.3339
vn 0.8227 0.2462 -0.5124
vn 0.0090 -0.4889 -0.8723
vn -0.8872 -0.3484 0.3024
vn 0.9917 -0.1274 0.0184
vn -0.8058 -0.0712 0.5879
vn -0.0606 -0.9982 0.0037
vn -0.3971 0.0738 0.9148
vn 0.4951 -0.5480 0.6742
vn -0.7345 -0.5433 -0.4066
vn -0.6591 -0.4064 0.6328
vn -0.8178 -0.1301 0.5606
vn -0.5598 0.4540 -0.6932
vn -0.4632 0.2628 0.8464
vn -0.4296 0.8571 0.2842
vn -0.9649 0.2371 0.1129
vn -0.8485 0.4810 -0.2208
vn -0.6147 0.7745 0.1492
vn -0.1051 0.8581 -0.5026
vn -0.7465 0.6633 -0.0531
vn -0.9797 0.0439 0.1958
vn -0.4990 -0.4280 0.7535
vn -0.9058 -0.2809 -0.3173
vn 0.0971 -0.9429 -0.3187
vn -0.9967 -0.0780 0.0210
vn -0.9344 -0.0165 0.3559
vn -0.5956 0.7841 -0.1744
vn 0.0588 0.7752 -0.6290
vn 0.9843 -0.1025 0.1436
vn 0.9480 -0.2539 -0.1916
vn 0.8285 -0.1253 -0.5458
vn 0.8485 0.0194 -0.5289
vn -0.1362 0.3193 -0.9378
vn -0.0835 0.3407 -0.9365
vn 0.2684 -0.5125 0.8157
vn -0.1871 0.0336 0.9818
vn 0.2445 -0.9385 -0.2439
vn 0.9473 -0.1779 -0.2664
vn 0.8739 -0.2831 -0.3951
vn -0.0043 -0.8253 0.5647
vn 0.9544 0.2940 0.0510
vn 0.8573 -0.4974 0.1327
vn 0.9928 -0.1155 -0.0318
vn 0.7639 0.6431 -0.0536
vn 0.6504 0.7222 -0.2354
vn 0.7637 0.3465 -0.5447
vn 0.7143 -0.1110 0.6910
vn 0.9046 -0.3221 0.2793
vn 0.7627 -0.3754 0.5266
vn 0.9431 -0.0954 0.3186
vn 0.8118 0.5726 0.1141
vn 0.5509 0.2644 0.7916
vn 0.0780 0.1123 -0.9906
vn 0.9151 0.3942 -0.0845
vn 0.1160 -0.9913 0.0619
vn -0.6964 0.7117 0.0917
vn -0.3046 -0.2204 0.9266
vn -0.8509 0.0579 -0.5221
vn -0.9974 -0.0710 0.0130
vn 0.8928 -0.3160 0.3209
vn -0.5216 -0.7278 0.4452
vn 0.4159 0.0314 0.9089
vn 0.6495 0.5837 0.4873
vn 0.1984 0.6740 -0.7116
vn 0.6037 0.7877 0.1224
vn 0.1627 0.9738 -0.1586
vn 0.6808 0.7315 -0.0369
vn -0.1185 0.9075 -0.4031
vn 0.5797 0.8056 -0.1223
vn 0.0183 0.9929 -0.1176
vn 0.7720 0.6330 -0.0575
vn 0.9717 0.1146 0.2067
vn 0.7134 -0.2333 0.6608
vn -0.6039 -0.2014 0.7712
vn 0.9025 -0.1361 0.4087
vn 0.9928 -0.1188 -0.0158
vn 0.6141 -0.4641 0.6384
vn 0.7805 -0.3031 -0.5468
vn 0.2070 -0.9704 -0.1243
vn -0.0371 -0.0519 -0.9980
vn -0.1659 -0.9848 0.0520
vn 0.0892 -0.9960 -0.0062
vn -0.1657 -0.8990 0.4055
vn -0.9998 -0.0096 -0.0165
vn 0.4070 -0.2549 -0.8771
vn -0.8970 -0.1627 -0.4109
vn -0.3863 0.2537 -0.8868
vn -0.9530 0.3030 0.0087
vn -0.4265 0.4725 0.7712
vn -0.9636 0.2628 0.0491
vn 0.3144 -0.4024 0.8598
vn -0.4845 -0.8406 -0.2422
vn -0.6660 0.5579 -0.4951
vn 0.0491 0.7529 -0.6563
vn -0.9391 -0.0994 -0.3288
vn 0.7228 0.5332 -0.4397
vn 0.1102 -0.9535 0.2806
vn -0.9562 -0.2926 0.0043
vn -0.8104 -0.5220 -0.2661
vn -0.5321 0.2461 -0.8101
vn -0.8338 -0.2147 -0.5086
vn 0.7321 0.6395 -0.2348
vn 0.1267 -0.1971 -0.9722
vn 0.9012 0.0256 0.4326
vn -0.2060 -0.2475 -0.9467
vn 0.8006 0.5991 -0.0100
vn 0.3118 0.9276 -0.2057
vn 0.7613 -0.6422 0.0891
vn 0.5670 -0.8041 -0.1788
vn 0.0604 -0.9665 -0.2496
vn -0.2214 -0.9752 -0.0059
vn 0.1839 -0.9792 0.0854
vn 0.5586 0.5957 -0.5771
vn 0.9249 -0.3422 -0.1654
vn -0.8491 -0.1363 -0.5103
vt 0.635511 0.038435
vt 0.635901 0.038959
vt 0.634892 0.037996
vt 0.634344 0.038337
vt 0.223025 0.701504
vt 0.222926 0.640527
vt 0.223244 0.700637
vt 0.222781 0.700193
vt 0.221842 0.640386
vt 0.222589 0.639951
vt 0.429312 0.998290
vt 0.485600 0.583750
vt 0.492796 0.998439
vt 0.437541 0.344475
vt 0.437529 0.344520
vt 0.437245 0.344119
vt 0.437557 0.344620
vt 0.437649 0.344385
vt 0.437488 0.344689
vt 0.437529 0.344521
vt 0.437776 0.344684
vt 0.437773 0.344673
vt 0.437770 0.344591
vt 0.437772 0.344684
vt 0.437772 0.344683
vt 0.436696 0.344272
vt 0.437169 0.338270
vt 0.437109 0.342792
vt 0.435448 0.344410
vt 0.435903 0.346210
vt 0.435851 0.346513
vt 0.437663 0.344669
vt 0.437756 0.344691
vt 0.437640 0.344855
vt 0.436372 0.346048
vt 0.436035 0.346464
vt 0.436029 0.346228
vt 0.436605 0.345484
vt 0.436606 0.345482
vt 0.436606 0.345484
vt 0.436591 0.344966
vt 0.436606 0.345487
vt 0.436279 0.345112
vt 0.436734 0.345399
vt 0.436541 0.345541
vt 0.436613 0.345727
vt 0.435951 0.346620
vt 0.435960 0.346648
vt 0.435947 0.346641
vt 0.435701 0.346766
vt 0.435943 0.346691
vt 0.435924 0.346714
vt 0.435933 0.346619
vt 0.435867 0.346731
vt 0.437978 0.341624
vt 0.438036 0.344294
vt 0.437926 0.343321
vt 0.437357 0.342788
vt 0.436017 0.346609
vt 0.436021 0.346595
vt 0.436020 0.346613
vt 0.435967 0.346396
vt 0.435977 0.346545
vt 0.435428 0.341136
vt 0.435045 0.347708
vt 0.437656 0.345913
vt 0.437604 0.345334
vt 0.437699 0.345322
vt 0.437591 0.345284
vt 0.437603 0.345245
vt 0.437591 0.345283
vt 0.436262 0.348813
vt 0.436845 0.347198
vt 0.437386 0.347763
vt 0.435938 0.347131
vt 0.435664 0.349413
vt 0.435752 0.347184
vt 0.436408 0.347193
vt 0.436056 0.346971
vt 0.436018 0.346625
vt 0.435953 0.346741
vt 0.435953 0.346798
vt 0.435953 0.346754
vt 0.436655 0.346399
vt 0.436654 0.346399
vt 0.436704 0.346891
vt 0.436646 0.346167
vt 0.436597 0.346482
vt 0.435932 0.346732
vt 0.435815 0.346848
vt 0.438266 0.346988
vt 0.439804 0.385849
vt 0.438059 0.345445
vt 0.429376 0.332796
vt 0.436017 0.352686
vt 0.442776 0.317446
vt 0.437949 0.352118
vt 0.437668 0.347388
vt 0.436016 0.346637
vt 0.436014 0.346602
vt 0.435991 0.346747
vt 0.435996 0.346907
vt 0.435967 0.346698
vt 0.436025 0.346654
vt 0.436024 0.346610
vt 0.436030 0.346603
vt 0.437422 0.345285
vt 0.437254 0.345439
vt 0.437324 0.344519
vt 0.437594 0.343809
vt 0.437529 0.344519
vt 0.436013 0.344104
vt 0.435946 0.346630
vt 0.435942 0.346620
vt 0.435952 0.346693
vt 0.437158 0.344688
vt 0.437761 0.344268
vt 0.437958 0.344453
vt 0.436021 0.346569
vt 0.437803 0.345231
vt 0.437560 0.345360
vt 0.437580 0.345245
vt 0.437581 0.345080
vt 0.437777 0.344739
vt 0.437707 0.345001
vt 0.436655 0.346401
vt 0.436769 0.346360
vt 0.435946 0.346765
vt 0.435882 0.346773
vt 0.437392 0.346205
vt 0.437227 0.345995
vt 0.437105 0.345572
vt 0.437063 0.345241
vt 0.437043 0.345633
vt 0.436022 0.346633
s 1
usemtl Material.022
f 2/1/1 4/2/2 3/3/3
f 2/1/1 3/3/3 1/4/4
usemtl Material.023
f 6/5/5 5/6/6 10/7/7
f 5/6/6 7/8/8 8/9/9
f 9/10/10 7/8/8 10/7/7
f 10/7/7 5/6/6 9/10/10
f 5/6/6 6/5/5 7/8/8
f 9/10/10 8/9/9 7/8/8
f 13/11/11 12/12/11 11/13/11
usemtl Material.024
f 30/14/12 32/15/13 29/16/14
f 33/17/15 30/14/12 23/18/16
f 32/15/13 33/17/15 31/19/17
f 41/20/18 32/15/13 42/20/19
f 44/20/20 43/20/21 45/20/22
f 46/21/23 47/22/24 22/23/25
f 49/24/26 47/22/24 52/25/27
f 54/26/28 95/27/29 37/28/30
f 56/29/31 58/30/32 60/31/33
f 25/32/34 35/33/35 105/34/36
f 59/35/37 61/36/38 57/37/39
f 73/38/40 74/39/41 77/40/42
f 75/40/43 77/40/42 74/39/41
f 76/40/44 78/40/45 75/40/43
f 74/39/41 73/38/40 81/41/46
f 77/40/42 76/40/44 79/42/47
f 54/26/28 81/41/46 98/43/48
f 55/44/49 74/39/41 81/41/46
f 59/35/37 80/45/50 71/46/51
f 69/47/52 70/48/53 83/49/54
f 56/29/31 60/31/33 86/50/55
f 92/51/56 91/52/57 68/53/58
f 88/54/59 86/50/55 60/31/33
f 68/53/58 91/52/57 88/54/59
f 94/55/60 96/56/61 20/57/62
f 29/16/14 37/28/30 34/58/63
f 66/59/64 64/60/65 97/61/66
f 70/48/53 100/62/67 67/63/68
f 38/64/69 56/29/31 85/65/70
f 103/66/71 110/67/72 104/68/73
f 120/69/74 111/70/75 110/67/72
f 111/70/75 120/69/74 118/71/76
f 120/69/74 119/69/77 121/69/78
f 125/69/79 122/69/80 121/69/78
f 52/25/27 126/25/81 53/25/82
f 130/72/83 127/73/84 115/74/85
f 133/75/86 131/76/87 135/77/88
f 132/78/89 134/79/90 61/36/38
f 137/80/91 66/59/64 97/61/66
f 142/81/92 154/82/93 141/83/94
f 147/84/95 146/84/96 145/84/97
f 146/84/96 147/84/95 148/84/98
f 151/85/99 144/84/100 152/84/101
f 152/84/101 145/84/97 151/85/99
f 145/84/97 152/84/101 147/84/95
f 150/86/102 127/73/84 132/78/89
f 59/35/37 72/87/103 149/88/104
f 155/89/105 135/77/88 87/90/106
f 86/50/55 87/90/106 135/77/88
f 156/91/107 94/55/60 15/92/108
f 94/55/60 156/91/107 96/56/61
f 96/56/61 156/91/107 157/93/109
f 93/94/110 85/65/70 128/95/111
f 17/96/112 15/92/108 94/55/60
f 116/97/113 115/74/85 113/98/114
f 130/72/83 128/95/111 131/76/87
f 153/99/115 137/80/91 97/61/66
f 153/99/115 101/100/116 137/80/91
f 138/101/117 158/102/118 140/103/119
f 136/104/120 65/105/121 63/106/122
f 131/76/87 85/65/70 135/77/88
f 158/102/118 133/75/86 154/82/93
f 27/107/123 26/108/124 28/109/125
f 24/110/126 30/14/12 29/16/14
f 34/58/63 94/55/60 24/110/126
f 31/19/17 33/17/15 105/34/36
f 27/107/123 28/109/125 31/19/17
f 27/107/123 31/19/17 105/34/36
f 30/14/12 33/17/15 39/20/127
f 40/111/128 32/15/13 30/14/12
f 40/111/128 39/20/127 41/20/18
f 32/15/13 43/20/21 42/20/19
f 40/111/128 43/20/21 32/15/13
f 41/20/18 45/20/22 43/20/21
f 35/33/35 47/22/24 49/24/26
f 47/22/24 50/25/129 52/25/27
f 99/112/130 98/43/48 58/30/32
f 58/30/32 68/53/58 60/31/33
f 63/106/122 65/105/121 64/60/65
f 79/42/47 76/40/44 74/39/41
f 71/46/51 80/45/50 73/38/40
f 81/41/46 54/26/28 55/44/49
f 71/46/51 73/38/40 79/42/47
f 100/62/67 57/37/39 61/36/38
f 83/49/54 84/113/131 69/47/52
f 84/113/131 82/114/132 69/47/52
f 83/49/54 82/114/132 84/113/131
f 90/115/133 92/51/56 70/48/53
f 60/31/33 68/53/58 88/54/59
f 95/27/29 93/94/110 94/55/60
f 29/16/14 36/116/134 37/28/30
f 29/16/14 26/108/124 36/116/134
f 26/108/124 29/16/14 28/109/125
f 38/64/69 99/112/130 56/29/31
f 21/117/135 20/57/62 19/118/136
f 64/60/65 65/105/121 136/104/120
f 61/36/38 63/106/122 62/119/137
f 101/100/116 62/119/137 64/60/65
f 100/62/67 70/48/53 82/114/132
f 62/119/137 67/63/68 100/62/67
f 98/43/48 99/112/130 54/26/28
f 69/47/52 82/114/132 70/48/53
f 68/53/58 82/114/132 92/51/56
f 19/118/136 157/93/109 102/120/138
f 110/67/72 103/66/71 108/121/139
f 113/98/114 103/66/71 102/120/138
f 112/122/140 109/123/141 111/70/75
f 27/107/123 105/34/36 109/123/141
f 108/121/139 119/69/77 110/67/72
f 111/70/75 118/71/76 112/122/140
f 110/67/72 119/69/77 120/69/74
f 122/69/80 120/69/74 121/69/78
f 120/69/74 122/69/80 123/69/142
f 121/69/78 123/69/142 124/69/143
f 124/69/143 123/69/142 125/69/79
f 123/69/142 122/69/80 125/69/79
f 126/25/81 52/25/27 50/25/129
f 126/25/81 48/124/144 49/24/26
f 53/25/82 126/25/81 49/24/26
f 130/72/83 133/75/86 132/78/89
f 106/125/145 105/34/36 35/33/35
f 134/79/90 136/104/120 61/36/38
f 143/126/146 151/85/99 145/84/97
f 152/84/101 146/84/96 148/84/98
f 152/84/101 148/84/98 147/84/95
f 144/84/100 151/85/99 129/127/147
f 149/88/104 72/87/103 151/85/99
f 129/127/147 151/85/99 72/87/103
f 127/73/84 72/87/103 55/44/49
f 153/99/115 136/104/120 158/102/118
f 134/79/90 133/75/86 158/102/118
f 149/88/104 132/78/89 59/35/37
f 59/35/37 71/46/51 72/87/103
f 142/81/92 140/103/119 154/82/93
f 139/128/148 141/83/94 154/82/93
f 140/103/119 90/115/133 70/48/53
f 139/128/148 155/89/105 142/81/92
f 90/115/133 142/81/92 155/89/105
f 155/89/105 139/128/148 135/77/88
f 89/129/149 91/52/57 155/89/105
f 92/51/56 155/89/105 91/52/57
f 15/92/108 128/95/111 116/97/113
f 116/97/113 156/91/107 15/92/108
f 128/95/111 15/92/108 93/94/110
f 85/65/70 93/94/110 38/64/69
f 107/130/150 113/98/114 114/131/151
f 115/74/85 116/97/113 130/72/83
f 107/130/150 103/66/71 113/98/114
f 128/95/111 130/72/83 116/97/113
f 116/97/113 113/98/114 156/91/107
f 156/91/107 113/98/114 157/93/109
f 19/118/136 96/56/61 157/93/109
f 158/102/118 154/82/93 140/103/119
f 158/102/118 136/104/120 134/79/90
f 14/132/152 36/116/134 114/131/151
f 31/19/17 28/109/125 32/15/13
f 35/33/35 25/32/34 22/23/25
f 33/17/15 25/32/34 105/34/36
f 30/14/12 24/110/126 23/18/16
f 23/18/16 25/32/34 33/17/15
f 22/23/25 21/117/135 19/118/136
f 32/15/13 41/20/18 39/20/127
f 42/20/19 45/20/22 41/20/18
f 45/20/22 42/20/19 44/20/20
f 53/25/82 49/24/26 52/25/27
f 99/112/130 95/27/29 54/26/28
f 98/43/48 59/35/37 57/37/39
f 55/44/49 18/133/153 16/134/154
f 153/99/115 70/48/53 101/100/116
f 58/30/32 100/62/67 68/53/58
f 79/42/47 73/38/40 77/40/42
f 76/40/44 77/40/42 78/40/45
f 73/38/40 80/45/50 81/41/46
f 100/62/67 58/30/32 57/37/39
f 93/94/110 95/27/29 38/64/69
f 37/28/30 36/116/134 54/26/28
f 114/131/151 36/116/134 26/108/124
f 38/64/69 95/27/29 99/112/130
f 82/114/132 68/53/58 100/62/67
f 62/119/137 63/106/122 64/60/65
f 62/119/137 101/100/116 67/63/68
f 64/60/65 66/59/64 101/100/116
f 48/124/144 102/120/138 106/125/145
f 107/130/150 27/107/123 108/121/139
f 35/33/35 48/124/144 106/125/145
f 109/123/141 106/125/145 111/70/75
f 110/67/72 111/70/75 104/68/73
f 107/130/150 26/108/124 27/107/123
f 19/118/136 102/120/138 22/23/25
f 125/69/79 121/69/78 124/69/143
f 46/21/23 22/23/25 48/124/144
f 48/124/144 51/25/155 46/21/23
f 50/25/129 51/25/155 126/25/81
f 126/25/81 51/25/155 48/124/144
f 127/73/84 55/44/49 16/134/154
f 61/36/38 136/104/120 63/106/122
f 153/99/115 138/101/117 140/103/119
f 153/99/115 140/103/119 70/48/53
f 146/84/96 143/126/146 145/84/97
f 127/73/84 129/127/147 72/87/103
f 142/81/92 141/83/94 139/128/148
f 113/98/114 115/74/85 114/131/151
f 127/73/84 114/131/151 115/74/85
f 102/120/138 157/93/109 113/98/114
f 138/101/117 153/99/115 158/102/118
f 136/104/120 153/99/115 159/135/156
f 16/134/154 114/131/151 127/73/84
f 16/134/154 14/132/152 114/131/151
f 17/96/112 94/55/60 93/94/110
f 21/117/135 22/23/25 23/18/16
f 24/110/126 29/16/14 34/58/63
f 32/15/13 28/109/125 29/16/14
f 94/55/60 20/57/62 24/110/126
f 41/20/18 43/20/21 40/111/128
f 44/20/20 42/20/19 43/20/21
f 47/22/24 35/33/35 22/23/25
f 47/22/24 51/25/155 50/25/129
f 55/44/49 54/26/28 18/133/153
f 58/30/32 56/29/31 99/112/130
f 58/30/32 98/43/48 57/37/39
f 70/48/53 67/63/68 101/100/116
f 78/40/45 77/40/42 75/40/43
f 74/39/41 71/46/51 79/42/47
f 98/43/48 81/41/46 80/45/50
f 82/114/132 83/49/54 92/51/56
f 70/48/53 92/51/56 83/49/54
f 91/52/57 89/129/149 88/54/59
f 34/58/63 95/27/29 94/55/60
f 96/56/61 19/118/136 20/57/62
f 159/135/156 97/61/66 64/60/65
f 59/35/37 98/43/48 80/45/50
f 56/29/31 86/50/55 85/65/70
f 48/124/144 22/23/25 102/120/138
f 102/120/138 103/66/71 104/68/73
f 108/121/139 103/66/71 107/130/150
f 108/121/139 27/107/123 109/123/141
f 104/68/73 111/70/75 106/125/145
f 112/122/140 119/69/77 108/121/139
f 112/122/140 118/71/76 117/71/157
f 117/71/157 118/71/76 120/69/74
f 121/69/78 119/69/77 117/71/157
f 130/72/83 131/76/87 133/75/86
f 133/75/86 139/128/148 154/82/93
f 101/100/116 66/59/64 137/80/91
f 146/84/96 144/84/100 143/126/146
f 143/126/146 149/88/104 151/85/99
f 144/84/100 150/86/102 143/126/146
f 127/73/84 150/86/102 129/127/147
f 134/79/90 132/78/89 133/75/86
f 132/78/89 149/88/104 150/86/102
f 90/115/133 140/103/119 142/81/92
f 89/129/149 155/89/105 87/90/106
f 155/89/105 92/51/56 90/115/133
f 114/131/151 26/108/124 107/130/150
f 97/61/66 159/135/156 153/99/115
f 61/36/38 59/35/37 132/78/89
f 132/78/89 127/73/84 130/72/83
f 20/57/62 21/117/135 24/110/126
f 24/110/126 21/117/135 23/18/16
f 25/32/34 23/18/16 22/23/25
f 32/15/13 39/20/127 33/17/15
f 30/14/12 39/20/127 40/111/128
f 47/22/24 46/21/23 51/25/155
f 48/124/144 35/33/35 49/24/26
f 74/39/41 76/40/44 75/40/43
f 74/39/41 55/44/49 71/46/51
f 55/44/49 72/87/103 71/46/51
f 86/50/55 88/54/59 87/90/106
f 34/58/63 37/28/30 95/27/29
f 64/60/65 136/104/120 159/135/156
f 61/36/38 62/119/137 100/62/67
f 104/68/73 106/125/145 102/120/138
f 109/123/141 112/122/140 108/121/139
f 106/125/145 109/123/141 105/34/36
f 112/122/140 117/71/157 119/69/77
f 123/69/142 117/71/157 120/69/74
f 121/69/78 117/71/157 123/69/142
f 133/75/86 135/77/88 139/128/148
f 143/126/146 150/86/102 149/88/104
f 144/84/100 146/84/96 152/84/101
f 144/84/100 129/127/147 150/86/102
f 135/77/88 85/65/70 86/50/55
f 89/129/149 87/90/106 88/54/59
f 85/65/70 131/76/87 128/95/111
f 18/133/153 54/26/28 36/116/134
f 14/132/152 18/133/153 36/116/134
