# Blender 4.3.2
# www.blender.org
mtllib carruseltexturizado_optim.mtl
o carruseltexturizado
v 0.009900 4.729933 1.045300
v -1.310553 5.640378 -1.357165
v 0.748200 4.716300 -0.727250
v -1.343403 5.640378 -1.343565
v 0.067800 4.770850 1.021300
v 0.748200 4.757200 -0.727250
v 0.029700 4.766300 1.037100
v -2.763458 7.215672 -1.500261
v -2.741326 7.215676 -1.582745
v -3.080600 5.643400 0.125900
v -3.086900 5.643400 0.157800
v 0.075617 5.648901 1.889129
v 0.033118 5.648901 1.906726
v 3.242415 5.642671 -0.126862
v 3.192955 5.646128 -0.052871
v 0.125900 5.644403 3.247000
v 0.094100 5.644403 3.240700
v -0.158100 5.644400 -3.087102
v -0.184800 5.644400 -3.104903
v -0.094100 5.644400 -3.240700
v -0.067100 5.644400 -3.222703
v 2.837006 7.191636 -1.638509
v 0.203700 9.314000 -0.117607
v 0.217604 9.291954 0.058036
v 3.276191 7.191634 -0.000509
v 1.637976 7.187546 -2.837204
v -0.000485 7.191623 -3.276191
v 0.056912 9.293373 -0.214489
v -1.638054 7.187609 -2.837163
v -0.159222 9.291618 -0.158959
v -2.837610 7.209300 -1.638277
v -0.235228 9.314001 -0.000046
v -2.770381 7.239549 -1.500352
v -2.749767 7.209300 -1.587583
v -2.733271 7.222608 -1.577988
v -3.276183 7.193688 0.000490
v -2.837006 7.191635 1.638496
v -0.159049 9.291917 0.159432
v -1.637630 7.191631 2.837507
v 0.000503 7.191638 3.276186
v 0.058532 9.291775 0.217414
v 1.638502 7.191632 2.837003
v 2.837509 7.191633 1.637625
v 3.235770 7.209300 -3.304009
v 3.590300 7.209300 -2.903301
v 2.837610 7.209300 -1.638277
v 3.867589 7.209300 -2.450650
v 3.528054 7.209300 -2.856951
v 4.454160 7.209300 -1.243816
v 4.308400 7.209300 -1.657307
v 4.255657 7.209300 -1.637971
v 4.560900 7.209300 -0.719107
v 3.276598 7.209300 -0.000007
v 4.562930 7.209300 -0.284212
v 4.483916 7.209300 -0.710145
v 4.479445 7.209300 1.149332
v 4.559900 7.209300 0.718993
v 4.566837 7.209300 0.256170
v 4.492834 7.209300 0.704262
v 1.149293 7.209300 -4.479458
v 1.657700 7.209300 -4.309505
v 1.811499 7.209300 -4.187134
v 1.638271 7.209300 -2.837610
v 1.638086 7.209300 -4.245142
v 1.711900 7.209300 -4.183300
v 2.902600 7.209300 -3.589500
v 2.449103 7.209300 -3.868546
v 2.856330 7.209300 -3.538728
v -1.243804 7.209300 -4.454165
v -0.719100 7.209300 -4.560905
v -0.602638 7.209300 -4.498780
v 0.000000 7.209300 -3.276598
v 0.082142 7.209300 -4.585011
v -0.702242 7.209300 -4.496511
v 0.719000 7.209300 -4.559900
v 0.704266 7.209300 -4.492836
v -3.304014 7.209300 -3.235765
v -2.903300 7.209300 -3.590302
v -1.638271 7.209300 -2.837610
v -2.450626 7.209300 -3.867605
v -2.856950 7.209300 -3.528054
v -1.657300 7.209300 -4.308403
v -1.637965 7.209300 -4.255654
v -4.437616 7.209300 -1.287956
v -4.309500 7.209300 -1.657707
v -2.837610 7.209300 -1.638277
v -4.251861 7.209300 -1.642611
v -3.589500 7.209300 -2.902601
v -3.868548 7.209300 -2.449096
v -3.538726 7.209300 -2.856330
v -4.454159 7.209300 1.243809
v -4.560900 7.209300 0.719093
v -3.276598 7.209300 -0.000007
v -4.566729 7.209300 0.257298
v -4.483916 7.209300 0.710133
v -4.562886 7.209300 -0.719893
v -4.491291 7.209300 -0.712764
v -4.563086 7.209300 -0.283163
v -3.335059 7.209301 3.198282
v -3.590300 7.209300 2.903300
v -2.837610 7.209300 1.638264
v -3.867581 7.209300 2.450655
v -3.528053 7.209300 2.856946
v -4.308400 7.209300 1.657293
v -4.255664 7.209300 1.637947
v -1.397422 7.209301 4.406720
v -1.651746 7.209301 4.296432
v -1.811499 7.209301 4.187129
v -1.638270 7.209301 2.837609
v -1.639068 7.209301 4.248126
v -1.708415 7.209301 4.195199
v -2.904857 7.209301 3.591645
v -2.856615 7.209301 3.537107
v -2.449414 7.209301 3.868376
v 1.243777 7.209301 4.454165
v 0.719100 7.209301 4.560900
v 0.565062 7.209301 4.509794
v 0.000000 7.209301 3.276595
v -0.082147 7.209301 4.585002
v 0.713667 7.209301 4.469326
v -0.719885 7.209301 4.562881
v -0.704266 7.209301 4.492827
v 3.303666 7.209301 3.236135
v 2.903200 7.209301 3.590300
v 1.638270 7.209301 2.837609
v 2.446991 7.209301 3.869838
v 2.860166 7.209301 3.537076
v 2.788952 7.209301 3.582752
v 1.657300 7.209301 4.308400
v 1.969897 7.209301 4.120035
v 1.705531 7.209301 4.205616
v 1.640873 7.209301 4.244936
v 4.309500 7.209300 1.657693
v 4.196373 7.209300 1.788311
v 2.837610 7.209300 1.638264
v 4.249223 7.209300 1.640973
v 3.576674 7.209300 2.889822
v 3.868346 7.209300 2.449465
v 3.543295 7.209300 2.863523
v -3.225188 5.638718 0.184399
v 3.711860 5.648908 -2.752198
v 3.878398 5.648942 -2.461797
v 4.367177 5.648901 -1.521210
v 4.078146 5.648925 -2.132390
v 4.599128 5.648957 -0.197968
v 4.547447 5.648899 -0.819861
v 4.518502 5.648886 1.009359
v 4.610314 5.648900 0.186852
v 4.524200 5.648901 0.284598
v 4.578394 5.648899 0.170681
v 1.836586 5.648900 -4.240174
v 1.009380 5.648900 -4.518499
v 2.127976 5.648900 -4.071161
v 3.133520 5.648908 -3.408360
v 2.465603 5.648900 -3.885813
v -0.197995 5.648900 -4.599144
v -0.819853 5.648900 -4.547451
v 0.192357 5.648900 -4.597989
v -2.752198 5.648900 -3.711861
v -3.408351 5.648901 -3.133529
v -2.461793 5.648900 -3.878399
v -1.521209 5.648900 -4.367177
v -2.132388 5.648900 -4.078147
v -4.240172 5.648904 -1.836591
v -4.518502 5.648901 -1.009362
v -4.071160 5.648942 -2.127977
v -3.885810 5.648945 -2.465605
v -4.599143 5.648952 0.197994
v -4.496150 5.648884 1.104604
v -4.597985 5.648950 -0.192357
v -4.533100 5.648901 -0.000000
v -3.711869 5.648905 2.752182
v -3.133536 5.648901 3.408340
v -3.878398 5.648942 2.461792
v -4.199559 5.648909 1.927611
v -4.068145 5.648933 2.131021
v -1.836537 5.648901 4.240191
v -1.009366 5.648902 4.518497
v -2.127976 5.648913 4.071157
v -2.465603 5.648913 3.885808
v 0.197968 5.648901 4.599125
v 0.819862 5.648901 4.547442
v 1.521370 5.648901 4.367122
v -0.192355 5.648901 4.597980
v 0.000000 5.648901 4.533100
v 2.752178 5.648901 3.711874
v 3.408346 5.648901 3.133533
v 2.132384 5.648901 4.078184
v 2.461712 5.648901 3.878422
v 4.240172 5.648899 1.836589
v 4.071159 5.648942 2.127975
v 3.900480 5.648901 2.472892
v 3.867934 5.648903 2.440526
v 3.244367 5.648901 -0.092606
v 4.533100 5.648901 -0.000001
v 3.925800 5.648901 2.266598
v 2.266600 5.648901 3.925800
v -3.925800 5.648901 2.266598
v -3.925800 5.648901 -2.266603
v -2.266600 5.648900 -3.925802
v 0.000000 5.648900 -4.533103
v -0.038736 5.648901 -3.163702
v 2.266600 5.648900 -3.925802
v 3.925800 5.648901 -2.266603
v -1.366655 5.648901 -1.366656
v -3.178362 5.638668 0.042927
v -2.266600 5.648902 3.925797
v 1.366656 5.648901 1.366654
v 3.090271 5.640022 -0.113746
v 1.908304 5.648897 -0.028907
v 1.366655 5.648901 -1.366656
v 0.013051 5.648894 -1.917585
v -1.889146 5.648901 -0.075604
v -1.889148 5.648901 0.075601
v -1.389300 5.648901 1.282400
v -1.366672 5.648901 1.366647
v 0.000000 5.648899 1.932763
v 1.906751 5.648896 0.033088
v -1.920446 5.648901 0.003791
v -3.180032 5.648901 0.209084
v -3.102045 5.648901 0.187514
v -3.083287 5.648901 0.092538
v 3.156016 5.640500 -0.214280
v 0.039426 5.640532 3.162635
v 0.166165 5.645869 3.246758
v -0.203055 5.640368 -3.196028
v 3.180384 5.648901 -0.042840
v 3.102180 5.648901 -0.064217
v 3.234012 5.648901 -0.173348
v 0.092657 5.648901 3.083219
v 0.201255 5.648904 3.113661
v -0.069453 5.640325 -3.230181
v -0.201255 5.648903 -3.113667
v -0.092659 5.648902 -3.083220
v 1.049496 1.112000 -0.000119
v 0.678639 1.118775 -0.778096
v -1.045316 1.111999 0.332769
v -0.742066 1.112000 -0.742066
v 0.039288 1.125562 0.966717
v 0.742069 1.112000 0.742065
v 1.053071 4.803489 -0.000014
v 1.366633 5.653462 -1.366457
v 1.917205 5.631044 -0.033277
v 0.736864 4.757830 -0.729892
v -0.002776 4.802606 -1.051343
v -1.304504 5.632391 -1.350910
v -0.744646 4.805085 -0.746422
v -1.899153 5.631676 -0.076035
v -1.056598 4.809055 -0.001319
v -1.404018 5.621338 1.313635
v -0.743387 4.799582 0.743401
v 0.027615 5.627679 1.927425
v 1.366577 5.652156 1.366575
v 0.748402 4.808116 0.743858
v 1.918148 5.637169 0.030604
v 0.067800 4.757200 1.021299
v 0.017507 4.716300 1.013999
v 0.728951 4.716300 -0.704260
v 0.069150 1.118775 -1.028285
v 0.754301 4.757200 -0.712401
v 0.067800 4.784500 1.021300
v 0.040354 4.761193 1.062453
v 0.001312 4.757301 1.046191
v 0.015362 5.626151 -1.930544
v -1.369477 5.612643 -1.352852
v -1.899822 5.630490 0.076043
v 0.076043 5.630444 1.899813
v -1.931186 5.630684 0.000415
v -1.316400 5.648901 -1.362900
v 3.097405 5.641541 -0.129246
v 3.104090 5.645010 -0.186610
v 3.170586 5.643825 -0.202471
v 3.086618 5.647280 -0.091995
v 3.193304 5.643172 -0.126148
v 3.212698 5.644538 -0.183048
v -3.080281 5.646358 0.125072
v -3.091408 5.644331 0.154449
v -3.166576 5.642602 0.199957
v -3.132225 5.642528 0.194696
v -3.195861 5.641365 0.035127
v -3.219733 5.644171 0.179296
v -0.180141 5.642438 -3.108593
v -0.198792 5.643708 -3.194679
v -0.125900 5.644400 -3.247001
v -0.094100 5.644400 -3.240701
v 0.122495 5.641543 3.230211
v 0.158703 5.647171 3.239613
v 4.613058 1.107078 -0.878429
v 4.183961 1.109772 -2.111620
v 3.139271 1.106492 -3.535976
v 1.301288 1.109215 -4.511512
v -0.758876 1.105054 -4.679973
v -2.032998 0.210328 -4.232389
v -3.025668 1.105876 -3.603184
v -4.101709 1.104464 -2.297569
v -4.644030 1.110012 -0.729230
v -4.503183 1.109265 1.488442
v -3.359813 1.105717 3.298738
v -1.509839 1.109853 4.466590
v 0.276502 1.102586 4.691969
v 2.148846 1.109649 4.205860
v 4.019421 1.108486 2.501451
v 4.643455 1.106203 0.703651
v 4.442820 0.008338 -0.709580
v 2.221402 0.009921 -3.878859
v -0.131779 0.010845 -4.503825
v -3.817233 0.012663 -2.340004
v -4.444013 0.010664 -0.412886
v -4.202091 0.003600 1.539361
v -1.073426 0.008435 4.342603
v 0.825292 0.012120 4.395278
v 4.143650 0.008062 1.679790
v 4.379259 0.192775 -1.074258
v 4.389716 0.186303 0.837149
v 4.469260 0.206287 1.435108
v 3.906622 0.186291 2.159312
v 3.821518 0.209273 2.727780
v 1.877574 0.190313 4.051632
v 0.297764 0.188919 4.472361
v -1.496245 0.190351 4.226266
v -2.028431 0.208637 4.289316
v -2.732918 0.189604 3.523855
v -3.838633 0.186790 2.340098
v -3.805001 0.210671 2.777012
v -4.497095 0.206033 1.327823
v -4.701840 0.208659 -0.433626
v -4.346071 0.185997 -1.117078
v -3.715443 0.199007 -2.952768
v -3.449237 0.186709 -2.853274
v -2.138585 0.189283 -3.922608
v -0.453933 0.188049 -4.468692
v 1.824232 0.184063 -4.098855
v 2.233509 0.203850 -4.142412
v 3.355982 0.189124 -2.967072
v 4.010227 0.207719 -2.512966
v 3.011981 0.189837 3.305820
v 4.701380 0.205514 -0.342820
v -0.023842 0.209598 -4.748035
v 0.337974 0.205387 4.701447
v 2.457276 0.207961 4.034409
v -4.436641 0.191932 0.586415
v 2.915220 0.009650 3.423962
v -2.946163 0.009639 3.372153
v -2.404605 0.004782 -3.763616
v 3.583260 0.004495 -2.662276
v 0.067184 1.138569 1.021567
v -0.000008 1.138569 1.049381
v -3.144886 1.118464 0.033843
v -3.094560 1.126266 0.186196
v -3.235372 1.112668 0.084086
v -1.722392 1.112000 0.669747
v 3.087976 1.115399 -0.132839
v -0.049626 1.118199 -3.216018
v -0.135550 1.116371 -3.081125
v 0.135667 1.116404 3.081258
v 0.049630 1.118217 3.216025
v 0.690698 1.137810 -0.776307
v 1.049447 1.112000 -0.000000
v 0.060541 1.137978 -1.037271
v -1.049384 1.112000 -0.000000
v -0.742065 1.112000 -0.742065
v -0.742065 1.112000 0.742064
v 0.742063 1.112000 0.742065
v 3.229158 1.115446 -0.066901
v 3.152449 1.121044 -0.212596
v 0.177005 1.116580 3.233503
v -0.177011 1.116582 -3.233505
v 3.335077 7.207221 -3.198020
v 3.598413 7.238529 -2.906492
v 3.721344 5.639340 -2.744391
v 3.551915 6.007054 -3.048553
v 3.867304 7.209322 -2.451159
v 3.506400 7.209300 -2.856000
v 4.221166 5.585233 -2.436177
v 3.672462 5.885296 -3.135803
v 3.781914 7.336873 -3.008240
v 4.056100 5.644485 -2.132097
v 3.531029 7.209624 -2.856979
v 3.881187 5.672139 -2.466436
v 4.095371 7.283481 -2.029917
v 4.312547 7.213774 -1.661872
v 4.577497 7.258919 -0.725549
v 4.496872 5.658391 -1.332487
v 4.092742 5.649514 -2.140662
v 4.413271 5.892048 -1.569283
v 4.242729 7.233878 -1.636514
v 4.554193 5.885515 -1.614257
v 4.534741 7.345021 -1.824333
v 3.222194 5.658331 -3.406910
v 4.638968 7.201201 -0.696600
v 4.591579 5.640114 -0.549575
v 4.661712 6.133197 -0.891553
v 4.562935 7.209197 -0.284404
v 4.464600 7.209300 -0.720107
v 4.869705 5.584491 -0.004279
v 4.776667 5.782284 -0.752710
v 4.792094 7.346024 -0.719552
v 4.590044 5.643758 -0.191993
v 4.495275 7.285332 0.705905
v 4.516771 7.345140 -0.698658
v 4.486652 7.209600 -0.708627
v 4.565537 7.209800 0.717361
v 4.363199 7.203089 1.714802
v 4.437110 7.214655 1.290724
v 4.550369 5.656898 1.124892
v 4.616326 5.641841 0.190687
v 4.566948 7.209410 0.255777
v 4.605363 5.895993 0.846504
v 4.812140 7.348368 0.711208
v 4.754798 5.873415 0.868053
v 1.710489 7.200949 -4.363298
v 1.659164 7.186081 -4.324533
v 1.149752 5.656288 -4.543397
v 2.136426 5.645999 -4.095284
v 1.609579 5.795845 -4.412120
v 1.811421 7.207469 -4.187203
v 1.637488 7.234279 -4.244484
v 2.436717 5.584400 -4.221685
v 1.617016 5.878619 -4.546600
v 1.787954 7.348830 -4.522328
v 2.140604 5.625617 -4.048048
v 2.313193 7.348309 -3.982554
v 1.711900 7.209300 -4.183300
v 2.906846 7.240345 -3.597764
v 2.469164 5.653133 -3.884320
v 2.445569 7.209487 -3.871091
v 3.037239 5.891327 -3.565675
v 3.005561 7.338500 -3.800221
v 3.135978 5.887885 -3.668952
v 2.856336 7.207983 -3.538797
v -0.697191 7.201026 -4.638941
v -0.725899 7.259346 -4.577435
v -1.144294 5.653409 -4.553198
v -0.200876 5.655620 -4.623065
v -0.551705 7.269104 -4.521421
v -0.846322 5.891365 -4.605062
v -0.042093 7.209205 -4.577912
v 0.000645 5.585842 -4.873880
v -0.883369 5.890157 -4.741549
v -0.703612 7.338078 -4.794286
v -0.171697 5.630136 -4.576613
v -0.609100 7.209300 -4.478800
v -0.702201 7.206820 -4.496583
v 0.717284 7.214649 -4.566074
v 0.198424 5.657909 -4.601408
v 0.708060 7.256511 -4.500669
v 0.846689 5.896060 -4.605588
v 0.712722 7.344776 -4.808002
v 0.869822 5.876192 -4.746871
v -3.198347 7.208704 -3.334935
v -2.906489 7.238687 -3.598420
v -2.744620 5.639329 -3.721184
v -3.048501 6.007069 -3.551841
v -3.401001 5.658300 -3.229182
v -2.451180 7.209329 -3.867293
v -2.856000 7.209300 -3.506402
v -2.442605 5.581857 -4.214564
v -3.129691 5.877344 -3.673465
v -3.010601 7.344533 -3.789412
v -2.128882 5.658092 -4.081151
v -2.856978 7.209620 -3.531029
v -2.465366 5.670301 -3.880337
v -2.029739 7.283266 -4.095457
v -1.661867 7.213776 -4.312551
v -1.569132 5.892025 -4.412738
v -1.636510 7.233897 -4.242733
v -1.800939 7.343565 -4.520041
v -1.614171 5.885642 -4.554296
v -4.363089 7.203426 -1.714714
v -4.326863 7.233582 -1.659872
v -4.550374 5.656899 -1.124882
v -4.243701 5.648099 -1.834422
v -4.415689 6.003984 -1.552945
v -4.226500 7.209300 -1.608607
v -4.220703 5.585412 -2.436756
v -4.546689 5.878528 -1.617115
v -4.509266 7.348230 -1.778454
v -4.071185 5.640347 -2.129351
v -3.957615 7.347714 -2.349890
v -4.239838 7.209799 -1.629659
v -4.200692 7.242108 -1.777304
v -3.597686 7.227149 -2.906410
v -3.884315 5.653139 -2.469167
v -3.869524 7.209689 -2.447840
v -3.565884 5.891997 -3.036727
v -3.680136 5.875938 -3.139356
v -3.819527 7.349628 -3.010798
v -3.538318 7.236415 -2.856423
v -4.639038 7.201131 0.696478
v -4.577497 7.258922 0.725536
v -4.553192 5.653411 1.144305
v -4.623062 5.655617 0.200875
v -4.604748 5.893123 0.847996
v -4.567212 7.209121 0.253245
v -4.464600 7.209300 0.720093
v -4.871337 5.585342 0.002532
v -4.744215 5.884801 0.878170
v -4.790067 7.343368 0.717628
v -4.576610 5.630134 0.171693
v -4.550653 7.343251 -0.679239
v -4.516881 7.345371 0.698608
v -4.486651 7.209600 0.708615
v -4.565542 7.209934 -0.717352
v -4.601469 5.658309 -0.198531
v -4.420500 7.209300 -0.794807
v -4.563046 7.209262 -0.283878
v -4.605362 5.895995 -0.846508
v -4.491827 7.209249 -0.710886
v -4.808250 7.344837 -0.713094
v -4.754831 5.873434 -0.868077
v -2.908839 7.232903 3.599013
v -3.600486 7.215253 2.916111
v -3.721192 5.639338 2.744601
v -3.552898 6.029240 3.051362
v -3.867270 7.209328 2.451205
v -3.506400 7.209300 2.855999
v -4.214808 5.581873 2.442486
v -3.671871 5.882432 3.135296
v -3.831176 7.346218 3.004421
v -4.081195 5.658074 2.128869
v -3.531028 7.209622 2.856976
v -3.880342 5.670331 2.465377
v -4.095390 7.283446 2.029871
v -4.312548 7.213827 1.661837
v -4.413010 5.892586 1.568338
v -4.242773 7.233916 1.636480
v -4.545030 5.882810 1.614071
v -4.506129 7.337943 1.771580
v -1.710977 7.202363 4.364501
v -1.396157 7.219533 4.407460
v -1.657700 7.209301 4.309500
v -1.834423 5.648109 4.243698
v -1.811409 7.207222 4.187201
v -1.125038 5.656901 4.550339
v -1.552945 6.003963 4.415684
v -2.436725 5.585412 4.220722
v -1.617112 5.878502 4.546686
v -1.775366 7.347476 4.510228
v -2.129354 5.640327 4.071184
v -1.644253 7.241058 4.241443
v -2.311679 7.348289 3.983639
v -1.642704 7.209229 4.273824
v -1.712000 7.209301 4.183300
v -3.228855 5.658302 3.401320
v -2.469167 5.653150 3.884313
v -2.445903 7.209458 3.870908
v -3.036700 5.891994 3.565856
v -3.139358 5.875956 3.680135
v -3.010787 7.349607 3.819564
v -2.856590 7.227730 3.536793
v 1.661945 7.223197 4.316555
v 1.093160 7.217570 4.489830
v 0.712388 7.207036 4.560761
v 0.549702 5.640294 4.591554
v 0.561362 7.209219 4.511693
v 1.352773 5.659722 4.491959
v 0.896062 6.082700 4.687713
v 0.042197 7.209208 4.577909
v 0.720100 7.209301 4.464599
v -0.001746 5.585611 4.874679
v 0.678797 5.750268 4.791728
v 0.716986 7.344079 4.811911
v 0.192010 5.644279 4.590034
v 0.621032 7.345037 4.588280
v -0.717358 7.209748 4.565536
v -0.198339 5.657444 4.600965
v -0.707675 7.229445 4.500067
v -0.883187 5.933824 4.626100
v -0.801337 5.816236 4.764295
v -0.717977 7.344958 4.791090
v 3.671760 7.195851 2.936821
v 2.916065 7.215502 3.600502
v 3.394470 5.658359 3.236884
v 2.772540 5.640534 3.700881
v 3.050804 6.106524 3.553576
v 2.447717 7.209279 3.869419
v 2.860159 7.209477 3.537292
v 2.443045 5.581794 4.214166
v 3.136767 5.885798 3.670372
v 3.002853 7.337718 3.794173
v 1.791576 7.347311 4.525584
v 2.132080 5.644589 4.056196
v 2.466381 5.672183 3.881217
v 1.745227 7.356328 4.279696
v 2.766900 7.209301 3.574198
v 2.792567 7.209414 3.584157
v 2.140675 5.649498 4.092721
v 1.568156 5.892826 4.413620
v 1.637959 7.209270 4.256032
v 1.613919 5.883053 4.545887
v 1.706300 7.209301 4.136300
v 1.699757 7.209306 4.213117
v 4.243687 5.648105 1.834453
v 4.188700 7.209300 1.786093
v 4.197917 7.209367 1.789102
v 4.415687 6.003954 1.552943
v 4.220650 5.585388 2.436697
v 4.546700 5.878500 1.617115
v 4.200152 7.343695 2.496176
v 4.500371 7.340814 1.770082
v 3.870785 5.642486 2.436727
v 3.971369 7.347573 2.328676
v 4.072739 5.652972 2.127834
v 4.306469 7.208954 1.651456
v 3.588643 7.202159 2.907393
v 3.899262 5.650032 2.475584
v 3.869913 7.209838 2.447344
v 3.565859 5.891993 3.036698
v 3.766058 7.239192 3.026747
v 3.737324 5.804967 3.071671
v 3.538623 7.210375 2.855371
v 3.128035 5.669876 -3.411979
v 4.415217 5.669039 -1.390002
v 3.925800 5.648901 -2.266603
v 4.518506 5.648479 1.009341
v 4.579897 5.646696 0.189194
v 4.533100 5.648901 -0.000001
v 1.566104 5.640859 -4.348047
v 0.866773 5.648674 -4.542639
v 2.266600 5.648900 -3.925802
v -1.390103 5.669116 -4.415184
v 0.000000 5.648900 -4.533103
v -3.411968 5.669864 -3.128048
v -2.266600 5.648900 -3.925802
v -4.518505 5.648479 -1.009344
v -3.925800 5.648901 -2.266603
v -4.415135 5.669137 1.390264
v -4.533100 5.648901 -0.000000
v -3.127959 5.669955 3.412040
v -3.925800 5.648901 2.266598
v -1.009348 5.648472 4.518502
v -2.266600 5.648901 3.925797
v 1.390136 5.669065 4.415174
v 0.000000 5.648901 4.533100
v 3.411956 5.669858 3.128061
v 2.266600 5.648901 3.925800
v 3.925800 5.648901 2.266598
v 0.219639 9.296188 -0.047189
v 0.203497 9.313688 0.117486
v 0.053236 9.306252 -0.222997
v -0.122707 9.321977 -0.207221
v -0.226995 9.305497 -0.061292
v -0.175910 9.309049 0.159565
v 0.060435 9.305457 0.226406
v 0.060790 9.995261 -0.057244
v 0.072292 9.907616 0.236758
v -0.148656 9.866336 -0.273402
v -0.224762 9.743994 0.285282
v 0.353983 9.697863 0.107018
v 0.272571 9.665236 -0.257441
v -0.116301 9.536460 -0.359714
v 0.111374 9.529998 0.355525
v -0.391117 9.615438 0.004181
v 0.323541 9.401821 0.013886
vn 0.5320 0.8219 0.2038
vn 0.5661 0.8244 -0.0013
vn 0.4929 0.8228 -0.2830
vn 0.0510 0.8310 -0.5540
vn 0.2841 0.8211 -0.4950
vn -0.0016 0.8248 -0.5654
vn 0.4847 0.8407 -0.2415
vn -0.2908 0.8238 -0.4866
vn -0.5719 0.8203 -0.0023
vn -0.5130 0.8584 -0.0045
vn -0.4992 0.8167 -0.2894
vn -0.3250 0.8300 -0.4534
vn -0.4321 0.8117 -0.3930
vn 0.0009 1.0000 -0.0016
vn -0.0048 1.0000 0.0082
vn -0.9208 0.2457 -0.3028
vn -0.4927 0.8216 0.2867
vn -0.2819 0.8244 0.4909
vn -0.3193 0.8330 0.4519
vn -0.0011 0.8244 0.5660
vn 0.4896 0.8244 0.2840
vn 0.1378 0.8482 0.5114
vn 0.2841 0.8244 0.4895
vn -0.4272 0.8137 -0.3942
vn 0.0066 0.9999 -0.0115
vn -0.0000 1.0000 -0.0000
vn -0.0000 -1.0000 -0.0000
vn 0.0005 -1.0000 0.0001
vn 0.0221 -0.9997 -0.0127
vn 0.0001 -1.0000 -0.0000
vn -0.0005 -1.0000 0.0002
vn -0.0001 -1.0000 -0.0001
vn -0.0016 -1.0000 -0.0020
vn -0.0069 -1.0000 -0.0011
vn -0.0007 -1.0000 -0.0000
vn 0.0290 -0.9996 0.0008
vn -0.0006 -1.0000 -0.0006
vn 0.0001 -1.0000 -0.0008
vn -0.0001 -1.0000 0.0002
vn -0.0000 -1.0000 -0.0001
vn 0.0023 -1.0000 0.0086
vn -0.0014 -1.0000 0.0021
vn 0.0004 -1.0000 -0.0016
vn 0.0009 -1.0000 0.0001
vn 0.0503 -0.9956 0.0792
vn 0.0346 -0.9981 0.0509
vn 0.0079 -0.9946 0.1037
vn -0.0075 -1.0000 -0.0006
vn 0.0005 -0.9971 0.0755
vn 0.0026 -1.0000 0.0046
vn -0.0242 -0.9831 0.1817
vn 0.0046 -1.0000 0.0034
vn 0.0217 -0.9996 0.0177
vn 0.0783 -0.9969 -0.0063
vn 0.0025 -1.0000 -0.0064
vn 0.1492 -0.9888 0.0014
vn 0.0053 -1.0000 0.0054
vn 0.0850 -0.9948 0.0567
vn 0.0009 -1.0000 0.0007
vn -0.0002 -1.0000 0.0003
vn -0.0010 -1.0000 0.0005
vn -0.0000 -1.0000 0.0001
vn 0.0002 1.0000 0.0001
vn -0.0000 1.0000 0.0001
vn 0.0009 1.0000 0.0007
vn 0.0010 -1.0000 -0.0004
vn 0.0009 -1.0000 -0.0000
vn -0.0038 -1.0000 0.0037
vn 0.0017 -0.9984 0.0571
vn -0.6587 -0.7035 -0.2669
vn -0.6576 -0.7008 -0.2765
vn -0.6578 -0.7060 -0.2624
vn 0.6886 -0.7251 0.0109
vn 0.6920 -0.7160 -0.0921
vn 0.6822 -0.7124 0.1644
vn 0.1964 -0.7126 0.6735
vn 0.3135 -0.6760 0.6669
vn 0.3905 -0.6283 0.6729
vn -0.4644 0.6151 0.6371
vn -0.5117 -0.7368 0.4419
vn -0.8978 0.4404 -0.0098
vn -0.3148 -0.6600 0.6822
vn -0.4364 -0.6022 0.6685
vn -0.3645 0.2003 -0.9094
vn -0.3771 -0.0002 -0.9262
vn -0.5187 -0.7060 -0.4821
vn -0.5034 -0.0548 0.8623
vn -0.1325 0.0140 0.9911
vn 0.8993 -0.1320 -0.4169
vn 0.9027 -0.0038 -0.4303
vn -0.6576 -0.7060 0.2628
vn -0.6599 -0.7025 0.2664
vn -0.6587 -0.7017 0.2714
vn 0.3853 -0.6312 0.6731
vn -0.6596 -0.7003 -0.2729
vn 0.1772 -0.4996 -0.8479
vn 0.0541 -0.5520 -0.8321
vn -0.5327 0.7311 -0.4262
vn -0.3644 0.2003 -0.9094
vn 0.1682 0.2849 -0.9437
vn -0.4644 0.6151 0.6372
vn -0.0037 0.4396 0.8982
vn -0.2457 0.2236 0.9432
vn -0.2538 -0.1471 0.9560
vn -0.3789 -0.0586 0.9236
vn 0.6211 0.6863 -0.3785
vn 0.9219 -0.0027 -0.3874
vn 0.9222 -0.0009 -0.3867
vn 0.1163 -0.2327 -0.9656
vn 0.6224 0.1583 -0.7665
vn -0.0051 -0.1922 -0.9813
vn 0.2761 -0.6915 -0.6675
vn 0.2746 -0.6873 -0.6724
vn 0.2914 -0.7049 -0.6467
vn -0.6582 -0.7058 0.2621
vn 0.2844 -0.6953 0.6601
vn -0.6568 -0.6985 -0.2842
vn 0.1636 -0.6041 -0.7799
vn -0.2900 -0.6896 -0.6636
vn -0.2798 -0.6826 -0.6751
vn -0.2070 -0.7748 -0.5973
vn -0.6530 -0.7093 0.2656
vn 0.6920 -0.7160 -0.0922
vn 0.7694 -0.5789 -0.2698
vn 0.6738 -0.6797 -0.2897
vn -0.2920 -0.6851 0.6673
vn -0.2231 -0.7896 0.5716
vn -0.2868 -0.6789 0.6759
vn 0.6654 -0.6939 0.2753
vn -0.3734 -0.0065 -0.9276
vn -0.3392 -0.0109 -0.9407
vn -0.3802 -0.0014 -0.9249
vn 0.0676 -0.5031 0.8616
vn 0.2934 0.6911 0.6606
vn 0.1230 0.6426 0.7562
vn -0.2296 0.9620 0.1478
vn -0.3700 0.2978 -0.8800
vn 0.7695 -0.5789 -0.2698
vn -0.3001 -0.6948 0.6536
vn 0.6632 -0.6935 0.2816
vn -0.4008 0.9160 0.0157
vn 0.2112 0.7831 0.5849
vn 0.0237 0.8079 -0.5889
vn -0.3326 -0.0124 -0.9430
vn -0.9212 0.0322 0.3878
vn 0.3137 -0.0147 0.9494
vn 0.3735 -0.0028 0.9276
vn 0.3644 -0.2003 0.9094
vn -0.2955 -0.6988 -0.6514
vn -0.0000 -1.0000 0.0005
vn -0.0031 -1.0000 0.0005
vn 0.0017 -1.0000 0.0009
vn -0.0015 -1.0000 0.0001
vn 0.0013 -1.0000 -0.0007
vn -0.0004 -1.0000 0.0010
vn -0.0014 -1.0000 0.0011
vn 0.0009 -1.0000 -0.0020
vn 0.0014 -1.0000 -0.0019
vn 0.0004 -1.0000 0.0023
vn 0.0002 -1.0000 -0.0005
vn 0.0018 -1.0000 0.0063
vn -0.0018 -1.0000 -0.0003
vn 0.0414 -0.9969 -0.0663
vn 0.0491 -0.9984 -0.0270
vn 0.0970 -0.9902 -0.1008
vn -0.1921 0.0016 -0.9814
vn -0.4352 0.0477 -0.8991
vn -0.6157 0.0047 -0.7880
vn 0.4717 -0.0042 -0.8817
vn 0.6604 -0.0594 -0.7485
vn 0.8477 -0.0069 -0.5304
vn -0.4415 0.0215 0.8970
vn -0.6971 -0.0117 0.7169
vn -0.8073 0.0074 0.5901
vn 0.0751 -0.9969 0.0245
vn 0.0662 -0.9964 0.0523
vn 0.0968 -0.9939 0.0523
vn 0.0355 -0.9977 0.0572
vn 0.0042 -0.9974 0.0722
vn 0.0325 -0.9952 0.0922
vn -0.0283 -0.9966 -0.0774
vn 0.0064 -0.9978 -0.0657
vn -0.0489 -0.9953 -0.0840
vn 0.0345 -0.9994 0.0022
vn 0.1310 -0.9905 -0.0409
vn 0.0824 -0.9929 0.0857
vn 0.0013 -0.9974 0.0724
vn -0.0270 -0.9979 0.0581
vn -0.0204 -0.9931 0.1159
vn -0.0283 -0.9983 0.0508
vn -0.6670 -0.4072 0.6240
vn -0.1950 -0.9783 -0.0704
vn -0.0398 -0.9987 -0.0310
vn -0.0341 -0.9989 -0.0322
vn -0.0376 -0.9900 -0.1360
vn 0.0311 -0.9872 -0.1566
vn 0.0050 1.0000 0.0005
vn 0.0020 1.0000 -0.0019
vn 0.0061 1.0000 0.0006
vn -0.0028 1.0000 0.0022
vn -0.0017 1.0000 0.0036
vn 0.0006 1.0000 0.0005
vn -0.0085 1.0000 -0.0049
vn 0.0023 1.0000 -0.0025
vn -0.0018 1.0000 -0.0009
vn 0.0031 1.0000 0.0016
vn -0.0017 1.0000 -0.0006
vn -0.0023 1.0000 -0.0065
vn -0.0034 1.0000 -0.0041
vn -0.0337 0.9994 0.0059
vn 0.0474 0.9937 -0.1019
vn -0.0024 1.0000 -0.0011
vn -0.0006 0.9999 0.0158
vn 0.0085 1.0000 -0.0028
vn -0.0193 0.9997 0.0122
vn 0.0282 0.9996 0.0098
vn -0.0139 0.9999 -0.0092
vn 0.0085 1.0000 0.0007
vn -0.0445 0.9990 0.0076
vn -0.0017 1.0000 -0.0007
vn 0.0017 1.0000 -0.0049
vn -0.0135 0.9999 -0.0101
vn 0.0038 1.0000 0.0043
vn 0.0019 1.0000 0.0039
vn -0.1433 0.9861 -0.0837
vn 0.0087 1.0000 0.0042
vn -0.0720 -0.9974 -0.0028
vn 0.9883 0.0003 0.1525
vn 0.9967 -0.0101 -0.0802
vn 0.9762 -0.0222 -0.2158
vn -0.7916 -0.0025 -0.6111
vn -0.8970 -0.0478 -0.4395
vn -0.9847 0.0061 -0.1741
vn -0.9957 0.0046 -0.0927
vn -0.9519 -0.0085 0.3063
vn -0.1075 -0.9924 0.0595
vn -0.0613 -0.9964 0.0592
vn -0.0590 -0.9981 0.0168
vn 0.2488 -0.9686 -0.0007
vn -0.0937 -0.9955 0.0101
vn 0.3390 -0.5923 0.7309
vn -0.0238 -0.4583 0.8885
vn -0.8417 -0.5302 0.1024
vn 0.9479 0.3185 -0.0041
vn -0.9454 0.3217 -0.0514
vn -0.0058 1.0000 0.0056
vn -0.0002 0.9995 -0.0303
vn -0.0055 1.0000 0.0003
vn -0.0086 1.0000 0.0019
vn 0.0728 -0.0142 0.9972
vn -0.2895 -0.0035 0.9572
vn 0.9540 0.0005 0.2998
vn -0.0509 -0.9970 0.0584
vn 0.9041 0.0159 -0.4270
vn 0.2773 -0.0175 -0.9606
vn 0.0217 0.0138 -0.9997
vn -0.9643 -0.0527 0.2596
vn 0.0560 0.0144 0.9983
vn 0.4473 0.0012 0.8944
vn 0.5445 0.0179 0.8385
vn 0.8383 0.0045 0.5453
vn 0.7813 -0.6165 0.0978
vn 0.8931 0.3098 0.3263
vn 0.7283 0.0566 0.6829
vn 0.6222 0.1538 0.7676
vn 0.7461 -0.4053 0.5283
vn 0.5327 0.2451 0.8101
vn 0.2430 0.3267 0.9134
vn -0.4770 -0.2062 0.8544
vn -0.4153 -0.4376 0.7975
vn -0.4885 -0.1463 0.8602
vn -0.7021 0.2800 0.6548
vn -0.7020 0.2796 0.6550
vn -0.7738 -0.5810 -0.2523
vn -0.7865 0.4654 -0.4061
vn -0.6185 -0.4941 -0.6110
vn -0.6144 0.2374 -0.7524
vn -0.2892 -0.3493 -0.8913
vn -0.2892 -0.3506 -0.8908
vn -0.2892 -0.3490 -0.8914
vn 0.1447 0.4389 -0.8868
vn 0.2164 -0.5368 -0.8155
vn 0.5625 0.3193 -0.7627
vn 0.8431 0.2845 -0.4563
vn 0.0015 0.9998 0.0203
vn -0.0097 0.9999 -0.0069
vn 0.7833 -0.0160 0.6215
vn 0.7417 -0.4201 0.5228
vn -0.1293 0.3033 0.9441
vn -0.4114 -0.4488 0.7933
vn -0.6291 -0.6454 0.4332
vn -0.6294 -0.6454 0.4328
vn -0.8592 0.4186 0.2942
vn -0.2892 -0.3507 -0.8907
vn 0.6148 -0.3821 -0.6899
vn 0.8256 -0.4324 -0.3626
vn 0.7467 -0.0246 -0.6647
vn 0.6845 -0.0340 -0.7282
vn 0.7060 0.0546 -0.7061
vn -0.1981 -0.9695 -0.1440
vn -0.1168 -0.9922 0.0447
vn -0.0231 -0.9925 0.1200
vn 0.9484 0.0442 -0.3140
vn 0.9389 0.0537 -0.3400
vn 0.9485 -0.0597 -0.3111
vn 0.9311 -0.0398 -0.3627
vn 0.8532 0.0293 -0.5207
vn 0.8635 -0.0016 -0.5043
vn -0.2136 0.9667 0.1408
vn -0.2291 0.9515 0.2052
vn -0.2153 0.9612 0.1725
vn 0.1743 -0.9440 0.2801
vn 0.4667 0.2507 0.8482
vn 0.5217 0.1553 0.8389
vn 0.4083 0.3527 0.8419
vn 0.8909 -0.1288 -0.4355
vn 0.9329 -0.0330 -0.3586
vn 0.9404 -0.0126 -0.3398
vn 0.9674 -0.2206 -0.1242
vn 0.7780 0.0059 -0.6282
vn 0.7772 0.0048 -0.6292
vn 0.7772 0.0057 -0.6292
vn -0.9080 -0.4178 -0.0299
vn -0.8277 -0.5610 -0.0134
vn -0.9135 -0.4057 -0.0303
vn -0.7105 -0.7037 0.0056
vn -0.8276 -0.5611 -0.0134
vn -0.1719 0.9851 0.0062
vn -0.1954 0.9807 0.0006
vn -0.0296 0.9989 0.0371
vn -0.1605 -0.9866 0.0301
vn -0.0943 -0.9954 0.0162
vn -0.0644 -0.9760 0.2079
vn -0.0399 0.1099 0.9931
vn -0.0370 0.1083 0.9934
vn -0.0393 0.1140 0.9927
vn 0.5010 -0.0009 -0.8654
vn 0.3601 -0.0265 -0.9325
vn 0.4677 0.0208 -0.8836
vn -0.4655 0.2221 0.8567
vn -0.3431 -0.1296 0.9303
vn -0.5893 0.0834 0.8036
vn 0.0308 0.9379 0.3455
vn 0.0317 0.9377 0.3461
vn 0.5452 0.0245 -0.8379
vn -0.0320 0.9968 0.0733
vn -0.0745 0.9398 0.3334
vn -0.2098 0.9558 0.2058
vn 0.5376 -0.1460 -0.8305
vn 0.6214 -0.0419 -0.7824
vn -0.2800 -0.9376 -0.2061
vn -0.3242 -0.8761 -0.3568
vn -0.2632 -0.9226 -0.2820
vn -0.1237 -0.0634 -0.9903
vn -0.2490 -0.0453 -0.9674
vn -0.3025 0.0346 -0.9525
vn -0.0183 -0.7638 0.6452
vn -0.0179 -0.7639 0.6451
vn -0.1221 0.9237 0.3632
vn -0.2628 0.8308 0.4906
vn -0.1567 0.6685 0.7270
vn -0.0034 -0.0011 -1.0000
vn 0.0378 0.0207 -0.9991
vn 0.1527 -0.0248 -0.9880
vn -0.0012 0.9625 0.2714
vn -0.0030 0.9610 0.2766
vn -0.0941 0.9501 0.2975
vn 0.9914 0.1209 0.0493
vn 0.9928 0.1117 0.0428
vn 0.9895 0.1342 0.0530
vn -0.3598 -0.9326 -0.0287
vn -0.4932 -0.8537 -0.1673
vn -0.3951 -0.9156 -0.0748
vn -0.7080 0.0546 -0.7041
vn -0.7063 0.0556 -0.7058
vn -0.7270 -0.0332 -0.6858
vn -0.6632 -0.0232 -0.7481
vn -0.4745 0.0202 -0.8800
vn -0.5071 0.0001 -0.8619
vn -0.5485 0.0248 -0.8358
vn -0.1153 -0.9641 0.2392
vn 0.0719 -0.9864 0.1480
vn 0.2383 -0.9710 -0.0181
vn -0.3120 0.0409 -0.9492
vn -0.3712 -0.0257 -0.9282
vn 0.1486 0.9620 0.2291
vn 0.2117 0.9453 0.2483
vn 0.1815 0.9553 0.2335
vn 0.8695 0.2136 -0.4453
vn 0.8614 0.1446 -0.4869
vn 0.8689 0.2920 -0.3997
vn -0.4132 -0.2318 -0.8806
vn -0.3593 -0.0983 -0.9280
vn -0.8698 -0.0003 -0.4933
vn -0.9311 -0.0163 -0.3645
vn -0.8915 0.0231 -0.4525
vn -0.8495 0.0216 -0.5272
vn 0.2767 0.9590 0.0606
vn 0.2640 0.9320 0.2484
vn 0.0902 0.9947 0.0486
vn 0.5313 0.2710 -0.8027
vn 0.4882 0.1520 -0.8594
vn 0.5577 0.3854 -0.7352
vn -0.8294 -0.1488 -0.5385
vn -0.7835 -0.0430 -0.6199
vn -0.9903 -0.0624 0.1238
vn -0.9675 -0.0451 0.2488
vn -0.9525 0.0347 0.3025
vn 0.9735 -0.2260 -0.0363
vn 0.9526 0.2762 0.1275
vn 0.9823 0.1159 -0.1473
vn 0.0045 1.0000 0.0007
vn 0.0063 1.0000 0.0016
vn -0.0052 1.0000 -0.0014
vn 0.9995 -0.0212 0.0241
vn 0.0696 0.1523 -0.9859
vn 0.0684 0.1589 -0.9849
vn 0.1135 0.2493 -0.9618
vn -0.0207 -0.9333 0.3585
vn -0.1643 -0.8522 0.4968
vn -0.0674 -0.9160 0.3955
vn -0.7434 -0.0209 0.6685
vn -0.7017 0.0519 0.7106
vn -0.7023 0.0528 0.7099
vn 0.2397 -0.9634 0.1199
vn 0.1491 -0.9864 -0.0687
vn -0.0176 -0.9710 -0.2384
vn -0.9492 0.0412 0.3121
vn -0.9306 -0.0147 0.3656
vn -0.8685 -0.0038 0.4957
vn -0.8945 0.0222 0.4465
vn -0.8513 0.0181 0.5244
vn 0.2342 0.9616 -0.1430
vn 0.2605 0.9411 -0.2156
vn 0.2417 0.9529 -0.1833
vn 0.4031 0.8997 -0.1672
vn -0.4090 0.1554 -0.8992
vn -0.4295 0.1213 -0.8949
vn -0.3854 0.1975 -0.9014
vn -0.8810 -0.2309 0.4130
vn -0.9281 -0.0976 0.3592
vn -0.4935 -0.0005 0.8698
vn -0.3645 -0.0162 0.9311
vn -0.4522 0.0232 0.8916
vn -0.5269 0.0218 0.8497
vn 0.4672 0.2204 -0.8563
vn 0.3450 -0.1199 -0.9309
vn 0.5914 0.0797 -0.8024
vn 0.0713 0.9525 -0.2959
vn 0.2064 0.9560 -0.2087
vn 0.0437 0.9957 -0.0811
vn -0.0362 0.8942 -0.4462
vn -0.0370 0.8940 -0.4466
vn -0.7537 0.3651 -0.5465
vn -0.8614 0.1585 -0.4825
vn -0.6272 0.5306 -0.5702
vn -0.5384 -0.1484 0.8295
vn -0.6193 -0.0448 0.7838
vn -0.6850 -0.0357 0.7277
vn 0.5236 0.1797 0.8328
vn 0.3848 0.0243 0.9227
vn 0.3025 0.0820 0.9496
vn 0.1241 -0.3026 0.9450
vn 0.1245 -0.3033 0.9447
vn 0.1266 -0.3011 0.9451
vn 0.4589 -0.0221 0.8882
vn 0.0657 0.0226 0.9976
vn 0.2109 -0.0174 0.9773
vn -0.0164 0.1445 -0.9894
vn -0.0254 0.1802 -0.9833
vn 0.0818 -0.2756 -0.9578
vn -0.0074 0.0033 1.0000
vn -0.0485 0.0271 0.9985
vn -0.1395 -0.0097 0.9902
vn -0.0064 0.9992 -0.0383
vn -0.0505 0.9416 -0.3330
vn 0.0001 1.0000 0.0036
vn 0.0898 -0.3106 -0.9463
vn -0.9858 0.1426 -0.0882
vn -0.9882 0.1296 -0.0811
vn -0.9825 0.1584 -0.0977
vn 0.6530 -0.0203 0.7571
vn 0.6798 0.0334 0.7326
vn 0.6598 0.0484 0.7499
vn 0.7199 -0.0544 0.6919
vn 0.5974 -0.1041 0.7952
vn 0.4720 0.0182 0.8814
vn 0.5032 -0.0012 0.8642
vn 0.5482 0.0252 0.8360
vn 0.1356 -0.9673 -0.2143
vn -0.0458 -0.9900 -0.1333
vn -0.1256 -0.9918 -0.0238
vn 0.3616 -0.0309 0.9318
vn -0.4939 0.0627 -0.8673
vn -0.3915 0.4175 -0.8200
vn -0.3966 0.4037 -0.8245
vn -0.2796 -0.9447 0.1713
vn -0.8752 0.3550 0.3286
vn -0.8808 0.2864 0.3772
vn -0.8146 0.5506 0.1823
vn 0.4409 -0.1138 0.8903
vn 0.3639 -0.0261 0.9311
vn 0.8703 -0.0065 0.4925
vn 0.9280 -0.0040 0.3725
vn 0.8640 -0.0043 0.5034
vn -0.1364 -0.9886 0.0634
vn -0.0760 -0.9949 -0.0663
vn -0.1767 -0.9554 0.2365
vn 0.8208 -0.1332 0.5554
vn 0.7959 -0.0704 0.6013
vn 0.1246 -0.9915 0.0379
vn 0.1541 -0.9876 0.0295
vn 0.1610 -0.9864 0.0344
vn -0.0705 -0.9975 0.0058
vn -0.0878 -0.9859 -0.1424
vn 0.0262 -0.9896 -0.1414
vn 0.0238 -0.9213 -0.3881
vn 0.0342 -0.9118 -0.4092
vn 0.2270 -0.9705 0.0808
vn 0.0815 -0.9910 0.1059
vn 0.0933 -0.9808 0.1714
vn -0.1314 -0.9907 -0.0359
vn -0.2018 -0.9793 -0.0157
vn -0.2185 -0.9756 -0.0214
vn 0.0826 -0.9705 -0.2267
vn 0.1027 -0.9913 -0.0823
vn 0.1730 -0.9804 -0.0945
vn -0.0361 -0.9907 0.1312
vn -0.0163 -0.9796 0.2002
vn -0.0219 -0.9760 0.2167
vn -0.1854 -0.9749 -0.1233
vn -0.0329 -0.9990 0.0297
vn 0.1215 -0.9886 -0.0885
vn 0.8178 0.0332 -0.5746
vn 0.8440 -0.0166 -0.5360
vn -0.3581 0.9190 0.1651
vn -0.3878 0.9051 0.1745
vn 0.9993 0.0195 0.0308
vn 1.0000 0.0009 -0.0027
vn 0.9988 0.0261 -0.0419
vn 0.0006 0.9991 0.0435
vn -0.0276 -0.0167 -0.9995
vn -0.0749 0.0893 -0.9932
vn -0.0133 -0.0524 -0.9985
vn 0.0645 -0.2224 -0.9728
vn -0.0498 0.4049 0.9130
vn -0.0491 0.4050 0.9130
vn 0.9758 0.0358 0.2158
vn 0.9705 -0.0418 0.2376
vn 0.9782 0.0438 0.2031
vn 0.9868 -0.1416 0.0789
vn 0.9858 -0.0399 0.1629
vn -0.0878 -0.9859 -0.1425
vn 0.2216 -0.0645 -0.9730
vn 0.2138 0.0362 -0.9762
vn 0.3356 -0.2521 -0.9076
vn -0.2528 0.9352 0.2479
vn -0.8591 -0.0902 -0.5038
vn -0.9168 0.0536 -0.3957
vn -0.9071 0.0124 -0.4208
vn 0.7051 0.0542 -0.7070
vn 0.6239 -0.0146 -0.7813
vn -0.0976 0.9099 0.4031
vn 0.1059 -0.9762 0.1895
vn 0.1692 -0.9694 0.1776
vn -0.0114 -0.9790 0.2033
vn -0.0866 -0.1216 -0.9888
vn -0.0529 0.0238 -0.9983
vn -0.1537 -0.0169 -0.9880
vn -0.9961 -0.0826 -0.0317
vn -0.9921 0.0706 0.1033
vn -0.9978 0.0208 0.0623
vn 0.9030 0.4294 0.0143
vn 0.2053 0.0427 -0.9778
vn 0.0701 -0.1769 -0.9817
vn 0.1574 -0.0595 -0.9857
vn 0.1810 -0.9752 0.1276
vn -0.5975 -0.1287 -0.7915
vn 0.1727 0.9125 0.3708
vn 0.1812 0.8988 0.3992
vn -0.9710 -0.0459 -0.2346
vn -0.9758 0.0358 -0.2159
vn -0.9399 -0.0529 -0.3373
vn 0.8561 0.2116 0.4716
vn 0.8708 0.2595 0.4175
vn 0.8074 0.1030 0.5810
vn 0.3098 0.9053 0.2907
vn 0.3110 0.9081 0.2806
vn -0.5501 -0.1977 0.8114
vn -0.3792 0.0244 0.9250
vn -0.4421 -0.0443 0.8959
vn 0.3368 0.9387 0.0733
vn 0.0813 -0.9961 0.0343
vn 0.1687 -0.9749 -0.1453
vn -0.0657 -0.9832 0.1703
vn -0.9890 -0.1200 0.0866
vn -0.9983 0.0240 0.0525
vn -1.0000 0.0014 0.0070
vn -0.9889 -0.0144 0.1480
vn -0.9992 0.0221 -0.0321
vn -0.0081 1.0000 -0.0023
vn 0.0230 -0.0137 0.9996
vn 0.0676 0.0878 0.9938
vn 0.1306 0.0347 0.9908
vn 0.0900 -0.0512 0.9946
vn 0.0502 0.4055 -0.9127
vn 0.0495 0.4056 -0.9127
vn -0.9782 0.0438 -0.2032
vn -0.9848 -0.1611 -0.0646
vn -0.9868 -0.0497 -0.1541
vn 0.1267 0.2798 -0.9517
vn 0.1308 -0.9749 -0.1804
vn -0.7917 -0.1282 0.5973
vn 0.4347 0.8835 -0.1747
vn -0.2522 -0.0644 0.9655
vn -0.2154 0.0357 0.9759
vn -0.3372 -0.0534 0.9399
vn 0.2462 0.9365 -0.2498
vn 0.8855 -0.0678 0.4597
vn 0.9315 0.0517 0.3601
vn 0.9208 0.0253 0.3892
vn 0.0850 0.9310 -0.3549
vn 0.0343 -0.9961 -0.0809
vn -0.1458 -0.9748 -0.1687
vn 0.1680 -0.9837 0.0634
vn 0.7579 0.5671 -0.3224
vn 0.7586 0.5661 -0.3225
vn 0.7581 0.5662 -0.3236
vn -0.2177 0.0476 0.9748
vn -0.0633 -0.2174 0.9740
vn -0.2557 -0.0418 0.9659
vn -0.8458 0.0361 0.5322
vn -0.8453 0.0369 0.5330
vn -0.8458 0.0371 0.5322
vn -0.0561 0.9273 -0.3701
vn -0.0244 -0.9913 -0.1290
vn -0.1689 0.8659 -0.4707
vn -0.1687 0.8659 -0.4709
vn 0.0270 0.9991 0.0316
vn 0.0273 0.9991 0.0313
vn -0.8088 0.5621 0.1731
vn 0.2505 0.0582 0.9664
vn 0.9398 -0.0529 0.3375
vn 0.9241 -0.0107 0.3821
vn -0.8529 0.2204 -0.4734
vn -0.8630 0.2650 -0.4302
vn -0.8046 0.0862 -0.5875
vn -0.3915 0.8442 -0.3661
vn -0.3952 0.8417 -0.3678
vn -0.3660 0.8594 -0.3570
vn 0.0152 0.9999 0.0023
vn -0.0493 0.9947 0.0904
vn -0.0582 0.9954 0.0762
vn 0.0511 -0.9777 -0.2039
vn 0.6621 -0.4060 -0.6299
vn 0.6617 -0.4061 -0.6302
vn -0.5006 -0.4455 0.7422
vn -0.5021 -0.4456 0.7412
vn -0.5025 -0.4457 0.7408
vn 0.0314 0.9912 0.1288
vn 0.0435 0.9950 0.0904
vn 0.0563 0.9969 0.0548
vn 0.1102 -0.9841 -0.1390
vn -0.1981 -0.9696 -0.1440
vn 0.1692 -0.9695 0.1776
vn -0.0224 -0.9776 0.2093
vn 0.0123 -0.9908 0.1347
vn -0.0015 -0.9907 0.1363
vn 0.0484 -0.9988 -0.0110
vn 0.1348 -0.9908 -0.0123
vn 0.1364 -0.9907 0.0015
vn -0.0110 -0.9988 -0.0485
vn -0.1255 -0.9918 -0.0238
vn 0.1395 -0.9839 0.1114
vn -0.0114 -0.9991 -0.0413
vn -0.5256 0.1139 -0.8431
vn -0.5278 0.1133 -0.8418
vn -0.5059 0.1171 -0.8546
vn 0.0715 -0.9324 0.3542
vn 0.0906 -0.9360 0.3402
vn 0.3367 0.0948 0.9368
vn 0.9921 -0.0071 -0.1252
vn -0.2973 0.1653 -0.9404
vn -0.2977 0.1645 -0.9404
vn -0.2973 0.1665 -0.9402
vn 0.9901 -0.0238 0.1383
vn -0.1880 -0.9173 0.3511
vn -0.1469 -0.9264 0.3467
vn -0.3306 -0.1677 0.9288
vn -0.9967 0.0748 -0.0315
vn 0.2434 -0.9338 0.2624
vn 0.2518 -0.9371 0.2419
vn 0.7390 0.0901 0.6677
vn 0.8677 0.1216 0.4820
vn 0.8620 0.1187 0.4929
vn -0.9608 0.1168 0.2515
vn 0.3389 -0.9226 0.1841
vn 0.3351 -0.9300 0.1512
vn -0.6217 -0.0114 -0.7832
vn -0.8479 0.1105 0.5185
vn -0.8458 0.1099 0.5220
vn -0.8740 0.1173 0.4716
vn 0.3476 -0.9350 -0.0702
vn 0.3365 -0.9378 -0.0850
vn 0.9397 0.0936 -0.3290
vn -0.5088 0.1332 0.8506
vn 0.3183 -0.9244 -0.2101
vn 0.2854 -0.9322 -0.2225
vn 0.6390 0.0932 -0.7635
vn 0.4882 0.1519 -0.8594
vn 0.2065 0.1183 0.9713
vn -0.9900 -0.0212 -0.1395
vn 0.1872 -0.9222 -0.3384
vn 0.1539 -0.9299 -0.3340
vn 0.4560 0.1282 0.8807
vn 0.4187 0.1206 0.9001
vn 0.4608 0.1287 0.8781
vn 0.4134 0.1195 0.9027
vn -0.0559 -0.9330 -0.3556
vn -0.0730 -0.9365 -0.3431
vn -0.3435 0.0935 -0.9345
vn 0.3327 -0.1581 -0.9297
vn 0.8516 0.1303 0.5077
vn -0.2102 -0.9247 -0.3173
vn -0.2223 -0.9323 -0.2854
vn -0.7639 0.0922 -0.6387
vn 0.0558 -0.9874 0.1481
vn 0.0535 -0.9874 0.1487
vn 0.0549 -0.9874 0.1483
vn 0.9839 0.1491 -0.0987
vn 0.9838 0.1487 -0.0999
vn 0.9837 0.1495 -0.0996
vn 0.0055 0.9997 0.0250
vn 0.0066 0.9997 0.0241
vn 0.0045 0.9995 0.0305
vn -0.3424 -0.8062 -0.4824
vn -0.3354 -0.8442 -0.4181
vn 0.8930 0.1198 -0.4338
vn 0.8757 0.1252 -0.4663
vn 0.8938 0.1193 -0.4324
vn 0.8732 0.1260 -0.4708
vn -0.3615 -0.9306 0.0578
vn -0.3466 -0.9347 0.0788
vn -0.9326 0.0931 0.3486
vn -0.8808 0.2863 0.3773
vn 0.2889 0.1102 -0.9510
vn 0.2758 0.1086 -0.9551
vn 0.5075 0.1331 -0.8513
vn 0.7895 -0.0076 0.6136
vn 0.7737 0.0039 0.6336
vn -0.4656 -0.8792 0.1012
vn -0.4177 -0.9006 0.1202
vn 0.3477 -0.4387 -0.8286
vn 0.0263 -0.9906 -0.1343
vn -0.2518 0.9450 0.2089
vn -0.2521 0.9447 0.2099
vn -0.2494 0.9455 0.2095
vn -0.2214 -0.9471 -0.2326
vn -0.5006 0.1182 -0.8576
vn -0.7734 -0.5757 -0.2652
vn -0.7737 -0.5750 -0.2660
vn -0.7729 -0.5766 -0.2650
vn 0.3078 0.0915 0.9470
vn -0.0364 -0.9673 -0.2511
vn -0.1169 0.0949 0.9886
vn -0.1270 0.0944 0.9874
vn -0.0232 -0.8993 -0.4368
vn -0.9973 0.0720 -0.0108
vn -0.5991 -0.5300 0.6002
vn -0.6002 -0.5299 0.5991
vn -0.6009 -0.5299 0.5984
vn -0.1014 0.9068 0.4092
vn 0.7221 0.0873 0.6863
vn -0.3363 -0.9383 0.0799
vn -0.3598 -0.9326 -0.0286
vn -0.9590 0.1169 0.2583
vn 0.9863 0.0941 0.1353
vn 0.9847 0.0933 0.1470
vn 0.4927 -0.1747 0.8525
vn 0.4923 -0.1747 0.8527
vn 0.4920 -0.1747 0.8529
vn -0.2216 -0.9463 0.2353
vn -0.8801 0.1192 0.4597
vn -0.2562 -0.5709 0.7800
vn -0.2566 -0.5706 0.7801
vn -0.2561 -0.5718 0.7794
vn 0.9473 0.0915 -0.3070
vn -0.9109 -0.1299 -0.3916
vn -0.1914 -0.9459 0.2621
vn -0.5385 0.1363 0.8315
vn 0.1480 -0.5685 0.8092
vn 0.1478 -0.5680 0.8096
vn 0.1478 -0.5694 0.8087
vn 0.5588 -0.6249 0.5452
vn 0.5575 -0.6249 0.5464
vn 0.5572 -0.6249 0.5468
vn 0.6584 0.0890 -0.7474
vn 0.1060 -0.9362 0.3350
vn 0.2022 0.1189 0.9721
vn 0.9177 0.3667 0.1530
vn 0.1179 0.0948 -0.9885
vn 0.1274 0.0941 -0.9874
vn 0.8587 -0.1476 -0.4909
vn 0.8590 -0.1476 -0.4903
vn 0.2345 -0.9454 0.2263
vn 0.8161 -0.5313 0.2275
vn 0.8162 -0.5309 0.2279
vn 0.8154 -0.5324 0.2273
vn -0.3333 0.0935 -0.9382
vn -0.3915 -0.1298 0.9110
vn 0.2621 -0.9459 0.1914
vn 0.8331 0.1336 0.5367
vn 0.8092 -0.5685 -0.1481
vn 0.8085 -0.5696 -0.1477
vn -0.2266 0.9691 -0.0973
vn -0.0829 0.9955 0.0452
vn -0.1593 0.9868 -0.0298
vn -0.7477 0.0885 -0.6581
vn 0.7940 -0.5770 -0.1916
vn 0.7922 -0.5789 -0.1933
vn 0.7925 -0.5784 -0.1933
vn 0.2299 -0.9722 -0.0439
vn 0.0041 0.9995 0.0319
vn -0.4980 0.0383 -0.8664
vn 0.2252 -0.9442 -0.2405
vn -0.9385 0.0918 0.3329
vn 0.9110 -0.1298 0.3914
vn 0.1502 -0.9484 -0.2794
vn 0.5384 0.1362 -0.8316
vn -0.1481 -0.5686 -0.8092
vn -0.1479 -0.5682 -0.8095
vn -0.1479 -0.5693 -0.8087
vn -0.1507 0.9849 0.0846
vn -0.1674 0.9843 0.0562
vn -0.7125 0.1106 0.6929
vn -0.7121 0.1109 0.6933
vn -0.7120 0.1122 0.6932
vn -0.1831 0.0352 0.9825
vn -0.1830 0.0337 0.9825
vn -0.1819 0.0351 0.9827
vn -0.1255 -0.9900 0.0650
vn -0.1293 -0.9750 0.1808
vn -0.1260 -0.9875 0.0948
vn -0.1240 -0.9922 -0.0108
vn -0.1887 -0.9782 0.0868
vn -0.1389 -0.9902 0.0139
vn 0.0609 -0.9909 0.1202
vn 0.1868 -0.9735 0.1316
vn 0.0893 -0.9884 0.1225
vn -0.1197 -0.9921 -0.0388
vn -0.0391 -0.9920 0.1197
vn 0.0122 -0.9931 -0.1165
vn -0.0680 -0.9859 -0.1531
vn -0.0158 -0.9916 -0.1284
vn -0.0557 -0.9918 -0.1146
vn -0.1900 -0.9727 -0.1333
vn -0.0838 -0.9895 -0.1177
vn 0.1198 -0.9920 0.0385
vn 0.7895 -0.1311 -0.5996
vn -0.8526 -0.1741 0.4927
vn -0.8527 -0.1744 0.4924
vn -0.8523 -0.1744 0.4930
vn 0.7825 -0.4735 -0.4043
vn 0.7867 -0.4735 -0.3961
vn 0.7862 -0.4742 -0.3962
vn 0.7219 0.6506 -0.2356
vn 0.7226 0.6507 -0.2332
vn -0.9638 0.2018 0.1741
vn -0.9640 0.2014 0.1735
vn -0.9641 0.2004 0.1740
vn -0.4758 -0.4525 -0.7542
vn -0.4770 -0.4552 -0.7519
vn -0.4771 -0.4540 -0.7525
vn 0.6185 -0.7858 0.0007
vn 0.6176 -0.7864 0.0129
vn 0.6165 -0.7873 0.0107
vn 0.5794 0.8057 0.1230
vn 0.0706 -0.8512 -0.5200
vn -0.5790 0.6189 -0.5307
vn -0.5795 0.6193 -0.5298
vn -0.6298 0.0247 0.7764
vn -0.3382 -0.9359 0.0991
vn -0.0484 0.9523 0.3012
vn 0.2107 0.9442 0.2533
vn 0.2106 0.9450 0.2504
vn 0.2102 0.9444 0.2529
vn -0.4020 -0.4790 -0.7804
vn -0.3937 -0.4793 -0.7844
vn -0.3937 -0.4797 -0.7841
vn -0.2365 0.6476 -0.7244
vn -0.2342 0.6476 -0.7251
vn -0.7302 -0.5599 -0.3916
vn -0.7198 -0.5628 -0.4063
vn -0.7196 -0.5632 -0.4061
vn 0.4000 0.6651 -0.6306
vn 0.4006 0.6650 -0.6303
vn -0.7886 -0.0208 -0.6145
vn 0.7739 0.0467 0.6316
vn 0.9643 0.2022 -0.1711
vn 0.1277 -0.9325 0.3377
vn -0.5291 0.8410 -0.1129
vn -0.7806 -0.0291 0.6244
vn 0.0471 0.9981 -0.0397
vn 0.0445 0.9982 -0.0399
vn -0.7821 -0.4751 0.4033
vn -0.7861 -0.4752 0.3953
vn -0.7859 -0.4756 0.3951
vn -0.7221 0.6504 0.2357
vn -0.7227 0.6505 0.2336
vn -0.0631 0.9959 0.0645
vn -0.3915 -0.5597 0.7304
vn -0.4062 -0.5629 0.7198
vn -0.4060 -0.5633 0.7196
vn 0.6388 0.5638 0.5236
vn 0.6386 0.5633 0.5243
vn -0.6145 -0.0207 0.7887
vn 0.6315 0.0189 -0.7752
vn -0.0057 -0.8728 0.4881
vn -0.0142 -0.8725 0.4884
vn -0.0118 -0.8731 0.4873
vn -0.1228 0.8072 0.5773
vn -0.9890 0.1257 -0.0775
vn 0.6196 -0.0098 0.7849
vn -0.0450 0.9975 -0.0553
vn -0.0436 0.9978 -0.0507
vn -0.0414 0.9978 -0.0516
vn 0.1943 -0.3982 -0.8965
vn 0.1933 -0.4000 -0.8959
vn 0.1935 -0.3989 -0.8963
vn 0.4090 -0.4988 0.7642
vn 0.4004 -0.4988 0.7687
vn 0.4007 -0.4996 0.7680
vn -0.0037 1.0000 -0.0040
vn 0.0609 0.9974 0.0378
vn 0.0615 0.9974 0.0377
vn -0.5163 0.7522 -0.4094
vn 0.7320 -0.5404 0.4149
vn 0.7215 -0.5430 0.4296
vn 0.7212 -0.5436 0.4293
vn 0.0614 0.9973 0.0404
vn -0.7749 0.0289 -0.6315
vn -0.2038 -0.9714 0.1215
vn 0.3637 -0.4579 -0.8112
vn -0.1229 -0.9675 0.2208
vn 0.2750 -0.7818 0.5596
vn 0.2665 -0.7818 0.5637
vn -0.1544 -0.9711 -0.1818
vn -0.1476 -0.9709 -0.1883
vn -0.1392 -0.9715 -0.1918
vn 0.2264 -0.9657 0.1272
vn 0.5604 -0.7810 -0.2756
vn 0.5646 -0.7810 -0.2669
vn -0.1817 -0.9711 0.1548
vn -0.1882 -0.9709 0.1477
vn -0.1919 -0.9715 0.1394
vn 0.1324 -0.9732 -0.1878
vn 0.1235 -0.9882 -0.0904
vn 0.1210 -0.9907 -0.0621
vn 0.1280 -0.9653 -0.2277
vn -0.1044 -0.9811 -0.1632
vn -0.2287 -0.9646 -0.1311
vn -0.1472 0.9820 -0.1181
vn -0.1469 0.9820 -0.1187
vn -0.1351 0.9907 0.0153
vn -0.1353 0.9907 0.0156
vn -0.1348 0.9907 0.0155
vn -0.8032 -0.4743 -0.3604
vn -0.8420 -0.3278 -0.4285
vn -0.8045 -0.1426 -0.5766
vn -0.1238 -0.5725 -0.8105
vn -0.1244 -0.5724 -0.8105
vn -0.1236 -0.5722 -0.8108
vn -0.7865 0.0830 -0.6120
vn 0.7107 -0.3880 0.5869
vn 0.6837 -0.5238 0.5082
vn 0.7730 -0.2614 0.5781
vn -0.7775 -0.6143 -0.1344
vn -0.3325 -0.3458 0.8774
vn -0.4958 -0.3325 0.8023
vn -0.2507 -0.4392 0.8627
vn 0.6781 -0.4159 -0.6060
vn 0.6863 -0.2898 -0.6671
vn 0.5278 -0.3702 -0.7645
vn -0.4294 0.8607 0.2734
vn -0.5420 0.8261 0.1541
vn -0.5867 0.7980 0.1377
vn -0.6791 0.7310 0.0676
vn -0.6252 0.7758 0.0847
vn 0.6421 0.7412 0.1958
vn 0.7266 0.6847 -0.0572
vn 0.7128 0.7014 -0.0024
vn 0.5739 0.2992 0.7623
vn -0.0089 0.2992 0.9542
vn 0.9760 -0.0327 -0.2151
vn -0.5974 -0.2839 0.7500
vn -0.7771 -0.2538 0.5759
vn 0.5277 -0.3702 -0.7645
vn 0.3319 -0.2889 -0.8980
vn 0.5364 -0.3991 -0.7436
vn 0.6360 -0.5556 0.5355
vn 0.7530 0.6189 -0.2236
vn 0.3297 0.6352 -0.6984
vn 0.2507 0.4573 -0.8533
vn 0.2561 0.4694 -0.8450
vn 0.1624 0.2646 -0.9506
vn 0.5587 -0.7515 0.3507
vt 0.068228 0.681076
vt 0.087558 0.655848
vt 0.074260 0.646291
vt 0.065920 0.680302
vt 0.058999 0.646380
vt 0.045838 0.655998
vt 0.067220 0.680019
vt 0.038261 0.672559
vt 0.045903 0.708350
vt 0.065532 0.683688
vt 0.039611 0.692128
vt 0.065080 0.682137
vt 0.039283 0.691357
vt 0.038256 0.691701
vt 0.039093 0.691420
vt 0.059114 0.717943
vt 0.074374 0.717953
vt 0.066770 0.684255
vt 0.087618 0.708375
vt 0.095253 0.672494
vt 0.068230 0.683194
vt 0.095265 0.691735
vt 0.360250 0.710343
vt 0.352027 0.716779
vt 0.349034 0.714131
vt 0.351734 0.717370
vt 0.354896 0.719712
vt 0.363126 0.724879
vt 0.360279 0.723718
vt 0.360415 0.723135
vt 0.371456 0.714078
vt 0.366717 0.725179
vt 0.369652 0.725780
vt 0.373326 0.725728
vt 0.366683 0.725888
vt 0.379398 0.724805
vt 0.376488 0.725696
vt 0.376369 0.725103
vt 0.351966 0.699636
vt 0.342469 0.699819
vt 0.340847 0.695418
vt 0.341977 0.700033
vt 0.342873 0.701384
vt 0.345140 0.707074
vt 0.342839 0.700507
vt 0.347002 0.711227
vt 0.347324 0.710794
vt 0.348801 0.684839
vt 0.340454 0.678676
vt 0.340752 0.673761
vt 0.340007 0.678508
vt 0.340106 0.685771
vt 0.340517 0.679619
vt 0.340174 0.691554
vt 0.340615 0.691394
vt 0.351598 0.669906
vt 0.346786 0.658933
vt 0.348764 0.654929
vt 0.346345 0.658542
vt 0.344600 0.662768
vt 0.341614 0.669959
vt 0.342049 0.670141
vt 0.359602 0.658841
vt 0.359470 0.646149
vt 0.361805 0.644303
vt 0.359301 0.645483
vt 0.354038 0.649718
vt 0.350933 0.652210
vt 0.351257 0.652640
vt 0.370672 0.654609
vt 0.375374 0.643548
vt 0.378960 0.643837
vt 0.375408 0.642841
vt 0.372267 0.642947
vt 0.365683 0.643699
vt 0.365642 0.643068
vt 0.368610 0.643044
vt 0.381848 0.658343
vt 0.390053 0.651906
vt 0.392355 0.653616
vt 0.390345 0.651315
vt 0.387185 0.648983
vt 0.381805 0.644991
vt 0.381670 0.645572
vt 0.390133 0.669038
vt 0.399699 0.668792
vt 0.400764 0.670986
vt 0.399213 0.667279
vt 0.396943 0.661596
vt 0.399311 0.668218
vt 0.394725 0.657877
vt 0.395080 0.657448
vt 0.393317 0.683832
vt 0.401494 0.690135
vt 0.401373 0.694860
vt 0.402106 0.690122
vt 0.401996 0.682872
vt 0.401730 0.688729
vt 0.401480 0.677260
vt 0.401920 0.677094
vt 0.390523 0.698836
vt 0.395498 0.709782
vt 0.393500 0.713797
vt 0.395881 0.710155
vt 0.395825 0.709103
vt 0.397608 0.705872
vt 0.400530 0.698670
vt 0.400079 0.698545
vt 0.399835 0.699212
vt 0.399282 0.701539
vt 0.382594 0.709800
vt 0.382773 0.722722
vt 0.382878 0.723301
vt 0.383755 0.722221
vt 0.388213 0.719047
vt 0.391060 0.716147
vt 0.391256 0.716419
vt 0.577768 0.124251
vt 0.581407 0.126138
vt 0.578887 0.125541
vt 0.605341 0.016110
vt 0.606392 0.051106
vt 0.592955 0.018786
vt 0.547044 0.077868
vt 0.547900 0.075486
vt 0.547128 0.082249
vt 0.592135 0.111895
vt 0.547938 0.064439
vt 0.546981 0.073080
vt 0.550627 0.055547
vt 0.554429 0.048267
vt 0.557100 0.044113
vt 0.580149 0.025066
vt 0.556577 0.046578
vt 0.564074 0.035666
vt 0.573174 0.027997
vt 0.615778 0.015908
vt 0.613075 0.016654
vt 0.659302 0.030818
vt 0.646602 0.023924
vt 0.649577 0.024276
vt 0.663941 0.114434
vt 0.654659 0.094275
vt 0.670924 0.105988
vt 0.591920 0.131381
vt 0.621605 0.098983
vt 0.602235 0.133622
vt 0.614915 0.133435
vt 0.612181 0.134300
vt 0.645996 0.126972
vt 0.635043 0.131310
vt 0.647855 0.125031
vt 0.677407 0.094559
vt 0.671450 0.103524
vt 0.641203 0.068355
vt 0.680103 0.085674
vt 0.681067 0.077032
vt 0.680151 0.074624
vt 0.680930 0.067857
vt 0.678163 0.056886
vt 0.673442 0.047096
vt 0.671253 0.045403
vt 0.635901 0.038959
vt 0.582007 0.023125
vt 0.638255 0.087276
vt 0.628521 0.054318
vt 0.631971 0.017721
vt 0.607632 0.051379
vt 0.589420 0.062858
vt 0.568730 0.119236
vt 0.586816 0.081735
vt 0.599905 0.096239
vt 0.627787 0.053482
vt 0.626602 0.053357
vt 0.622652 0.133983
vt 0.560036 0.110937
vt 0.556806 0.104671
vt 0.634892 0.037996
vt 0.634337 0.038134
vt 0.634236 0.038914
vt 0.634996 0.039490
vt 0.644604 0.021999
vt 0.554939 0.102915
vt 0.593163 0.110678
vt 0.593702 0.111712
vt 0.592927 0.112247
vt 0.572061 0.056509
vt 0.573323 0.055900
vt 0.573791 0.056634
vt 0.572966 0.057277
vt 0.655403 0.094325
vt 0.655768 0.093137
vt 0.655038 0.092830
vt 0.654211 0.093502
vt 0.578158 0.126113
vt 0.549900 0.093205
vt 0.554393 0.103042
vt 0.557426 0.107131
vt 0.577395 0.025652
vt 0.610337 0.015944
vt 0.619361 0.015729
vt 0.668017 0.039128
vt 0.670632 0.042939
vt 0.681010 0.072241
vt 0.673600 0.101836
vt 0.654833 0.122102
vt 0.650610 0.124445
vt 0.617653 0.134147
vt 0.583399 0.128060
vt 0.600649 0.096597
vt 0.591978 0.111150
vt 0.592643 0.110607
vt 0.537372 0.530748
vt 0.522226 0.512334
vt 0.522787 0.537711
vt 0.563347 0.530689
vt 0.578036 0.538262
vt 0.578338 0.537339
vt 0.556109 0.510102
vt 0.563667 0.518306
vt 0.562542 0.492525
vt 0.555724 0.539146
vt 0.555958 0.539033
vt 0.545244 0.509572
vt 0.555856 0.510425
vt 0.555847 0.509975
vt 0.556317 0.510409
vt 0.556546 0.510193
vt 0.550032 0.524141
vt 0.550938 0.523863
vt 0.555734 0.538736
vt 0.551337 0.524991
vt 0.550829 0.525518
vt 0.537313 0.518233
vt 0.523108 0.509996
vt 0.522372 0.511044
vt 0.563168 0.493020
vt 0.523235 0.538093
vt 0.556077 0.510154
vt 0.544996 0.539796
vt 0.562336 0.557017
vt 0.538887 0.557290
vt 0.538555 0.492841
vt 0.578653 0.511376
vt 0.549838 0.524949
vt 0.522927 0.538270
vt 0.550314 0.525491
vt 0.551318 0.524274
vt 0.341052 0.106162
vt 0.348277 0.109635
vt 0.345460 0.109698
vt 0.350442 0.108563
vt 0.352212 0.106010
vt 0.352452 0.103013
vt 0.351261 0.100762
vt 0.349165 0.099166
vt 0.346601 0.098625
vt 0.343735 0.099319
vt 0.341667 0.101111
vt 0.340728 0.103332
vt 0.342593 0.108385
vt 0.350911 0.108853
vt 0.347930 0.110223
vt 0.348842 0.109686
vt 0.354304 0.105646
vt 0.353150 0.103638
vt 0.354018 0.101681
vt 0.350302 0.110754
vt 0.342046 0.099897
vt 0.343334 0.097458
vt 0.344808 0.098329
vt 0.342584 0.109078
vt 0.341206 0.107701
vt 0.341904 0.108052
vt 0.340244 0.105434
vt 0.340347 0.102553
vt 0.340431 0.104715
vt 0.352712 0.106318
vt 0.352792 0.103377
vt 0.344792 0.110120
vt 0.345908 0.109995
vt 0.340859 0.106438
vt 0.340660 0.102616
vt 0.341774 0.100499
vt 0.343286 0.099275
vt 0.345403 0.098527
vt 0.350114 0.099440
vt 0.352121 0.101062
vt 0.351960 0.101293
vt 0.352607 0.105687
vt 0.351036 0.108306
vt 0.345289 0.111553
vt 0.347498 0.111629
vt 0.342808 0.110733
vt 0.346859 0.096857
vt 0.340436 0.099602
vt 0.339172 0.074744
vt 0.342958 0.115333
vt 0.358408 0.107766
vt 0.340433 0.108756
vt 0.334698 0.101015
vt 0.350434 0.093604
vt 0.350625 0.093370
vt 0.350437 0.097741
vt 0.325199 0.154482
vt 0.374612 0.151801
vt 0.296652 0.088289
vt 0.295062 0.090897
vt 0.397656 0.124569
vt 0.298098 0.123771
vt 0.358029 0.107565
vt 0.357987 0.107917
vt 0.352999 0.108666
vt 0.335134 0.100815
vt 0.335135 0.101204
vt 0.338837 0.105136
vt 0.343262 0.115165
vt 0.342840 0.114897
vt 0.349399 0.098707
vt 0.352568 0.099406
vt 0.347015 0.098075
vt 0.343402 0.109261
vt 0.347958 0.098524
vt 0.350211 0.093107
vt 0.396805 0.079737
vt 0.323579 0.058335
vt 0.364432 0.058124
vt 0.339054 0.102134
vt 0.533496 0.775831
vt 0.533526 0.775853
vt 0.533493 0.775878
vt 0.463558 0.679238
vt 0.450749 0.671662
vt 0.527060 0.675358
vt 0.533544 0.775882
vt 0.533492 0.775869
vt 0.533525 0.775851
vt 0.506767 0.658132
vt 0.532490 0.655709
vt 0.508732 0.657811
vt 0.523984 0.662962
vt 0.509319 0.664460
vt 0.527871 0.675200
vt 0.533346 0.772413
vt 0.508619 0.661870
vt 0.533571 0.775883
vt 0.533542 0.775831
vt 0.533497 0.775831
vt 0.533485 0.775878
vt 0.479136 0.665608
vt 0.473719 0.664591
vt 0.473283 0.664690
vt 0.466061 0.673846
vt 0.456844 0.676942
vt 0.477087 0.670677
vt 0.456828 0.677073
vt 0.509722 0.664411
vt 0.508390 0.657903
vt 0.532815 0.656256
vt 0.528043 0.679209
vt 0.532493 0.655720
vt 0.525885 0.660760
vt 0.508609 0.661842
vt 0.451137 0.671517
vt 0.474869 0.664353
vt 0.473634 0.664660
vt 0.459305 0.675854
vt 0.475226 0.671314
vt 0.459789 0.676040
vt 0.533485 0.775883
vt 0.533494 0.775883
vt 0.533490 0.775883
vt 0.530657 0.655729
vt 0.508198 0.657905
vt 0.531975 0.655729
vt 0.527698 0.662656
vt 0.533570 0.775883
vt 0.463653 0.680669
vt 0.460247 0.673572
vt 0.533494 0.775831
vt 0.533515 0.775858
vt 0.533492 0.775868
vt 0.461215 0.675517
vt 0.456852 0.676940
vt 0.475505 0.671207
vt 0.533486 0.775883
vt 0.532379 0.655724
vt 0.508295 0.657923
vt 0.507017 0.658104
vt 0.509536 0.664441
vt 0.532815 0.656255
vt 0.508614 0.661872
vt 0.451527 0.671371
vt 0.463827 0.680749
vt 0.460632 0.673518
vt 0.452934 0.670740
vt 0.450849 0.671639
vt 0.473820 0.664578
vt 0.462669 0.677626
vt 0.531513 0.739873
vt 0.506769 0.658132
vt 0.532723 0.655708
vt 0.508683 0.657826
vt 0.523998 0.662961
vt 0.509318 0.664460
vt 0.508616 0.661858
vt 0.451202 0.671488
vt 0.474876 0.664351
vt 0.473683 0.664619
vt 0.452412 0.671101
vt 0.458965 0.675880
vt 0.508616 0.661878
vt 0.508574 0.657867
vt 0.509323 0.664477
vt 0.461805 0.675333
vt 0.477086 0.670678
vt 0.510143 0.664331
vt 0.508307 0.657913
vt 0.529484 0.662628
vt 0.519679 0.663254
vt 0.508610 0.661843
vt 0.509341 0.664482
vt 0.451148 0.671514
vt 0.460629 0.673520
vt 0.533493 0.775883
vt 0.450845 0.671640
vt 0.531515 0.739904
vt 0.507026 0.658094
vt 0.532720 0.655708
vt 0.508010 0.657877
vt 0.530453 0.655651
vt 0.524008 0.662960
vt 0.451203 0.671488
vt 0.473741 0.664606
vt 0.452412 0.671100
vt 0.459354 0.675844
vt 0.475225 0.671314
vt 0.459767 0.676048
vt 0.508610 0.661885
vt 0.508573 0.657867
vt 0.509334 0.664482
vt 0.533527 0.775852
vt 0.533493 0.775882
vt 0.478308 0.664773
vt 0.473632 0.664630
vt 0.471598 0.665066
vt 0.474863 0.671336
vt 0.477113 0.670591
vt 0.461217 0.675516
vt 0.532308 0.655726
vt 0.508058 0.657935
vt 0.507569 0.657995
vt 0.529192 0.662355
vt 0.532260 0.655978
vt 0.529643 0.662624
vt 0.509335 0.664459
vt 0.508609 0.661841
vt 0.533544 0.775869
vt 0.452804 0.670781
vt 0.450847 0.671655
vt 0.473746 0.664575
vt 0.463553 0.679233
vt 0.527062 0.675359
vt 0.506984 0.658099
vt 0.532740 0.655722
vt 0.508286 0.657906
vt 0.532815 0.662560
vt 0.509226 0.664493
vt 0.511534 0.664161
vt 0.527870 0.675201
vt 0.533347 0.772439
vt 0.508612 0.661857
vt 0.474876 0.664352
vt 0.457389 0.669188
vt 0.528122 0.676591
vt 0.531892 0.655728
vt 0.533247 0.770912
vt 0.533525 0.775855
vt 0.533528 0.775883
vt 0.533959 0.775883
vt 0.461872 0.676443
vt 0.533521 0.775856
vt 0.533536 0.775883
vt 0.526547 0.665266
vt 0.464484 0.681010
vt 0.533529 0.775883
vt 0.526551 0.665278
vt 0.526582 0.665517
vt 0.461904 0.676465
vt 0.455314 0.670130
vt 0.475275 0.664259
vt 0.473888 0.664535
vt 0.476243 0.668668
vt 0.461386 0.675407
vt 0.452314 0.670981
vt 0.451520 0.671355
vt 0.477173 0.670733
vt 0.475984 0.668170
vt 0.533439 0.662527
vt 0.533493 0.775828
vt 0.477200 0.670707
vt 0.475977 0.668166
vt 0.533544 0.775878
vt 0.506802 0.658128
vt 0.508748 0.662415
vt 0.531146 0.733874
vt 0.532729 0.662355
vt 0.469195 0.686978
vt 0.473738 0.664589
vt 0.475145 0.664290
vt 0.452315 0.670981
vt 0.477183 0.670721
vt 0.475984 0.668169
vt 0.533440 0.662527
vt 0.533484 0.775880
vt 0.476245 0.668669
vt 0.461294 0.675437
vt 0.473564 0.671650
vt 0.458260 0.676549
vt 0.477184 0.670737
vt 0.475989 0.668182
vt 0.527116 0.662627
vt 0.531148 0.733897
vt 0.532729 0.662354
vt 0.469208 0.686995
vt 0.469714 0.665559
vt 0.475047 0.664315
vt 0.532028 0.655737
vt 0.473089 0.664761
vt 0.476119 0.668438
vt 0.461289 0.675444
vt 0.533492 0.775870
vt 0.477213 0.670692
vt 0.476002 0.668207
vt 0.527704 0.662658
vt 0.531148 0.733904
vt 0.532769 0.662363
vt 0.533541 0.775831
vt 0.506716 0.661398
vt 0.476123 0.668446
vt 0.461295 0.675434
vt 0.473992 0.664538
vt 0.458950 0.676144
vt 0.472526 0.671982
vt 0.458793 0.676345
vt 0.477252 0.670740
vt 0.455388 0.677422
vt 0.462428 0.677470
vt 0.509311 0.664423
vt 0.508608 0.661884
vt 0.507530 0.658002
vt 0.533543 0.775883
vt 0.533544 0.775883
vt 0.464475 0.680992
vt 0.461454 0.676248
vt 0.461455 0.676251
vt 0.507151 0.661702
vt 0.507137 0.658095
vt 0.507147 0.661702
vt 0.507160 0.661700
vt 0.474766 0.664374
vt 0.507149 0.661702
vt 0.507058 0.658091
vt 0.507136 0.658095
vt 0.478681 0.667121
vt 0.474937 0.664338
vt 0.507162 0.661700
vt 0.507149 0.661701
vt 0.507047 0.658092
vt 0.533513 0.775883
vt 0.451522 0.671354
vt 0.533496 0.775883
vt 0.533487 0.775883
vt 0.479473 0.666910
vt 0.474921 0.664337
vt 0.507163 0.661700
vt 0.525958 0.655955
vt 0.507752 0.657959
vt 0.466659 0.683470
vt 0.533498 0.775883
vt 0.462343 0.675124
vt 0.477181 0.670750
vt 0.478739 0.667106
vt 0.473905 0.668420
vt 0.476727 0.667653
vt 0.509350 0.664492
vt 0.477151 0.667537
vt 0.462521 0.675072
vt 0.533484 0.775881
vt 0.478719 0.667112
vt 0.473882 0.668428
vt 0.477170 0.667532
vt 0.462521 0.675073
vt 0.478718 0.667112
vt 0.474933 0.668135
vt 0.533465 0.775883
vt 0.462474 0.675088
vt 0.525017 0.662918
vt 0.477182 0.670749
vt 0.525362 0.662892
vt 0.533508 0.775883
vt 0.524957 0.662920
vt 0.474995 0.668118
vt 0.533477 0.775883
vt 0.533495 0.775883
vt 0.527541 0.662662
vt 0.525313 0.662897
vt 0.493452 0.965921
vt 0.488190 0.965931
vt 0.490900 0.965924
vt 0.483717 0.965939
vt 0.478372 0.965954
vt 0.481013 0.965944
vt 0.479455 0.954544
vt 0.481927 0.958691
vt 0.477665 0.957816
vt 0.476811 0.954500
vt 0.478472 0.961867
vt 0.488255 0.957787
vt 0.492574 0.956471
vt 0.491730 0.959884
vt 0.483176 0.954573
vt 0.488225 0.954477
vt 0.491826 0.954470
vt 0.496110 0.954771
vt 0.488418 0.962608
vt 0.481507 0.964673
vt 0.484936 0.960258
vt 0.493255 0.964615
vt 0.495173 0.959384
vt 0.497953 0.957748
vt 0.497569 0.962145
s 1
usemtl Material.009
f 24/1/1 25/2/2 22/3/3
f 28/4/4 26/5/5 27/6/6
f 23/7/7 22/3/3 26/5/5
f 28/4/4 27/6/6 29/8/8
f 36/9/9 32/10/10 33/11/11
f 30/12/12 29/8/8 35/13/13
f 31/14/14 36/9/15 34/15/14
f 36/9/16 33/11/16 34/15/16
f 32/10/10 36/9/9 37/16/17
f 39/17/18 38/18/19 37/16/17
f 38/18/19 39/17/18 40/19/20
f 43/20/21 41/21/22 42/22/23
f 42/22/23 41/21/22 40/19/20
f 25/2/2 24/1/1 43/20/21
f 23/7/7 24/1/1 22/3/3
f 28/4/4 23/7/7 26/5/5
f 30/12/12 28/4/4 29/8/8
f 35/13/13 29/8/8 34/15/24
f 38/18/19 32/10/10 37/16/17
f 41/21/22 38/18/19 40/19/20
f 24/1/1 41/21/22 43/20/21
f 34/15/14 29/8/25 31/14/14
f 30/12/12 33/11/11 32/10/10
f 30/12/12 35/13/13 33/11/11
usemtl Material.010
f 46/23/26 48/24/26 44/25/26
f 45/26/26 44/25/26 48/24/26
f 48/24/26 46/23/26 47/27/26
f 49/28/26 50/29/26 51/30/26
f 47/27/26 46/23/26 51/30/26
f 51/30/26 46/23/26 49/28/26
f 53/31/26 55/32/26 49/28/26
f 54/33/26 53/31/26 58/34/26
f 52/35/26 49/28/26 55/32/26
f 55/32/26 53/31/26 54/33/26
f 56/36/26 57/37/26 59/38/26
f 59/38/26 53/31/26 56/36/26
f 53/31/26 59/38/26 58/34/26
f 63/39/26 64/40/26 60/41/26
f 61/42/26 60/41/26 64/40/26
f 62/43/26 63/39/26 67/44/26
f 65/45/26 63/39/26 62/43/26
f 63/39/26 65/45/26 64/40/26
f 44/25/26 66/46/26 68/47/26
f 68/47/26 63/39/26 44/25/26
f 63/39/26 68/47/26 67/44/26
f 72/48/26 74/49/26 69/50/26
f 70/51/26 69/50/26 74/49/26
f 72/48/26 73/52/26 71/53/26
f 72/48/26 71/53/26 74/49/26
f 60/41/26 75/54/26 76/55/26
f 76/55/26 72/48/26 60/41/26
f 72/48/26 76/55/26 73/52/26
f 79/56/26 81/57/26 77/58/26
f 78/59/26 77/58/26 81/57/26
f 81/57/26 79/56/26 80/60/26
f 69/50/26 82/61/26 83/62/26
f 80/60/26 79/56/26 83/62/26
f 83/62/26 79/56/26 69/50/26
f 86/63/26 87/64/26 84/65/26
f 85/66/26 84/65/26 87/64/26
f 87/64/26 86/63/26 89/67/26
f 77/58/26 88/68/26 90/69/26
f 90/69/26 86/63/26 77/58/26
f 86/63/26 90/69/26 89/67/26
f 93/70/26 95/71/26 91/72/26
f 92/73/26 91/72/26 95/71/26
f 95/71/26 93/70/26 94/74/26
f 84/65/26 97/75/26 93/70/26
f 84/65/26 96/76/26 97/75/26
f 93/70/26 98/77/26 94/74/26
f 98/77/26 93/70/26 97/75/26
f 101/78/26 103/79/26 99/80/26
f 100/81/26 99/80/26 103/79/26
f 103/79/26 101/78/26 102/82/26
f 91/72/26 104/83/26 105/84/26
f 102/82/26 101/78/26 105/84/26
f 105/84/26 101/78/26 91/72/26
f 109/85/26 110/86/26 106/87/26
f 108/88/26 109/85/26 114/89/26
f 111/90/26 109/85/26 108/88/26
f 109/85/26 111/90/26 110/86/26
f 99/80/26 113/91/26 109/85/26
f 99/80/26 112/92/26 113/91/26
f 114/89/26 109/85/26 113/91/26
f 118/93/26 120/94/26 115/95/26
f 116/96/26 115/95/26 120/94/26
f 118/93/26 119/97/26 117/98/26
f 118/93/26 117/98/26 120/94/26
f 106/87/26 122/99/26 118/93/26
f 106/87/26 121/100/26 122/99/26
f 119/97/26 118/93/26 122/99/26
f 125/101/26 127/102/26 123/103/26
f 124/104/26 123/103/26 127/102/26
f 128/105/26 125/101/26 126/106/26
f 125/101/26 128/105/26 127/102/26
f 115/95/26 129/107/26 132/108/26
f 131/109/26 125/101/26 115/95/26
f 126/106/26 125/101/26 130/110/26
f 130/110/26 125/101/26 131/109/26
f 132/108/26 131/109/26 115/95/26
f 135/111/26 136/112/26 56/36/26
f 133/113/26 56/36/26 136/112/26
f 134/114/26 135/111/26 138/115/26
f 136/112/26 135/111/26 134/114/26
f 139/116/26 123/103/26 137/117/26
f 139/116/26 135/111/26 123/103/26
f 135/111/26 139/116/26 138/115/26
f 53/31/26 49/28/26 46/23/26
f 86/63/26 84/65/26 93/70/26
f 101/78/26 99/80/26 109/85/26
f 118/93/26 115/95/26 125/101/26
f 125/101/26 123/103/26 135/111/26
f 135/111/26 56/36/26 53/31/26
f 44/25/26 63/39/26 46/23/26
f 60/41/26 72/48/26 63/39/26
f 69/50/26 79/56/26 72/48/26
f 77/58/26 86/63/26 79/56/26
f 91/72/26 101/78/26 93/70/26
f 106/87/26 118/93/26 109/85/26
usemtl Material.011
f 149/118/27 195/119/28 150/120/29
f 172/121/27 216/122/27 173/123/27
f 189/124/27 197/125/30 186/126/27
f 149/118/27 194/127/27 195/119/28
f 183/128/27 197/125/30 188/129/27
f 182/130/27 197/125/30 183/128/27
f 181/131/27 197/125/30 182/130/27
f 184/132/27 207/133/31 185/134/27
f 178/135/27 207/133/31 184/132/27
f 177/136/27 207/133/31 178/135/27
f 176/137/27 216/122/27 198/138/32
f 165/139/33 171/140/34 170/141/35
f 152/142/27 202/143/36 158/144/27
f 146/145/27 195/119/28 211/146/37
f 143/147/27 146/145/27 211/146/37
f 204/148/30 144/149/27 211/146/37
f 155/150/27 154/151/27 211/146/37
f 203/152/27 155/150/27 211/146/37
f 157/153/27 201/154/38 205/155/39
f 162/156/27 157/153/27 205/155/39
f 205/155/39 163/157/27 162/156/27
f 200/158/27 205/155/39 159/159/27
f 159/159/27 205/155/39 160/160/27
f 167/161/40 160/160/27 205/155/39
f 199/162/40 167/161/40 205/155/39
f 171/140/34 165/139/33 206/163/41
f 180/164/27 173/123/27 216/122/27
f 207/133/31 180/164/27 216/122/27
f 152/142/27 211/146/37 212/165/27
f 165/139/33 205/155/39 213/166/27
f 169/167/42 215/168/27 216/122/27
f 207/133/31 216/122/27 217/169/43
f 147/170/27 208/171/27 218/172/27
f 169/167/42 219/173/44 214/174/27
f 219/173/44 206/163/41 165/139/33
f 211/146/37 154/151/27 141/175/27
f 208/171/27 190/176/27 196/177/27
f 205/155/39 200/158/27 163/157/27
f 140/178/45 171/140/34 206/163/41
f 219/173/44 220/179/46 221/180/27
f 169/167/42 220/179/46 219/173/44
f 169/167/42 140/178/45 220/179/46
f 219/173/44 221/180/27 222/181/47
f 140/178/45 168/182/48 171/140/34
f 193/183/27 208/171/27 196/177/27
f 209/184/49 211/146/37 223/185/50
f 223/185/50 195/119/28 229/186/51
f 229/186/51 195/119/28 194/127/27
f 207/133/31 225/187/52 197/125/30
f 207/133/31 224/188/53 225/187/52
f 217/169/43 230/189/54 224/188/53
f 197/125/30 231/190/55 217/169/43
f 207/133/31 217/169/43 224/188/53
f 202/143/36 232/191/56 201/154/38
f 201/154/38 232/191/56 226/192/57
f 205/155/39 226/192/57 233/193/58
f 205/155/39 201/154/38 226/192/57
f 212/165/27 234/194/27 202/143/36
f 212/165/27 205/155/39 234/194/27
f 205/155/39 233/193/58 234/194/27
f 147/170/27 149/118/27 148/195/27
f 187/196/27 193/183/27 192/197/27
f 190/176/27 191/198/59 196/177/27
f 186/126/27 197/125/30 187/196/27
f 177/136/27 179/199/60 207/133/31
f 172/121/27 174/200/61 198/138/32
f 176/137/27 175/201/62 216/122/27
f 175/201/62 169/167/42 216/122/27
f 164/202/63 199/162/64 166/203/65
f 159/159/27 161/204/27 200/158/27
f 157/153/27 156/205/27 201/154/38
f 158/144/27 202/143/36 201/154/38
f 151/206/27 153/207/27 203/152/27
f 141/175/27 142/208/66 204/148/30
f 146/145/27 145/209/67 195/119/28
f 172/121/27 198/138/32 216/122/27
f 197/125/30 217/169/43 208/171/27
f 187/196/27 197/125/30 208/171/27
f 149/118/27 147/170/27 218/172/27
f 209/184/49 210/210/68 211/146/37
f 169/167/42 214/174/27 215/168/27
f 193/183/27 187/196/27 208/171/27
f 141/175/27 204/148/30 211/146/37
f 218/172/27 210/210/68 149/118/27
f 149/118/27 227/211/27 194/127/27
f 228/212/69 210/210/68 209/184/49
f 217/169/43 231/190/55 230/189/54
f 197/125/30 225/187/52 231/190/55
f 152/142/27 212/165/27 202/143/36
f 197/125/30 185/134/27 207/133/31
f 144/149/27 143/147/27 211/146/37
f 151/206/27 211/146/37 152/142/27
f 205/155/39 164/202/27 199/162/40
f 213/166/27 219/173/44 165/139/33
f 208/171/27 147/170/27 190/176/27
f 140/178/45 169/167/42 168/182/48
f 222/181/47 206/163/41 219/173/44
f 227/211/27 210/210/68 228/212/69
f 223/185/50 211/146/37 195/119/28
f 197/125/30 181/131/27 185/134/27
f 151/206/27 203/152/27 211/146/37
f 205/155/39 165/139/33 164/202/27
f 227/211/27 149/118/27 210/210/68
usemtl Material.012
f 247/213/70 248/214/71 265/215/72
f 241/216/73 243/217/74 255/218/75
f 262/219/76 254/220/77 252/221/78
f 244/222/79 260/223/80 241/216/81
f 251/224/82 257/225/83 263/226/82
f 256/227/84 261/228/85 254/220/86
f 251/224/87 237/229/87 239/230/88
f 258/231/89 235/232/90 236/233/90
f 249/234/91 266/235/92 268/236/93
f 254/220/77 267/237/94 252/221/78
f 247/213/70 249/234/95 248/214/71
f 247/213/96 265/215/96 246/238/97
f 262/239/98 256/227/99 257/225/100
f 244/222/101 245/240/102 258/231/103
f 262/219/104 251/224/105 263/226/105
f 260/223/106 241/216/107 235/232/108
f 258/231/109 260/223/110 235/232/111
f 242/241/112 245/240/113 264/242/114
f 266/235/92 249/234/91 250/243/115
f 267/237/94 254/220/77 253/244/116
f 268/236/117 248/214/71 249/234/95
f 245/240/113 242/241/112 244/222/118
f 245/240/119 247/213/120 246/238/121
f 249/234/91 251/224/122 250/243/115
f 243/217/123 244/222/124 242/241/125
f 250/243/126 262/219/127 252/221/128
f 255/218/75 254/220/129 241/216/73
f 245/240/130 238/245/131 247/213/132
f 264/242/133 269/246/134 246/238/135
f 264/242/136 265/215/137 269/246/137
f 243/217/74 241/216/73 244/222/138
f 250/243/126 251/224/139 262/219/127
f 255/218/75 253/244/140 254/220/129
f 254/220/141 261/228/142 262/219/143
f 245/240/130 259/247/144 238/245/131
f 251/224/145 249/234/145 237/229/145
f 240/248/146 254/220/147 256/227/148
f 264/242/149 245/240/119 246/238/121
usemtl Material.007
f 342/249/150 345/250/151 304/251/152
f 342/249/150 305/252/153 345/250/151
f 342/249/150 306/253/154 305/252/153
f 342/249/150 344/254/155 306/253/154
f 342/249/150 307/255/156 344/254/155
f 342/249/150 308/256/157 307/255/156
f 342/249/150 309/257/158 308/256/157
f 342/249/150 343/258/159 309/257/158
f 342/249/150 310/259/160 343/258/159
f 342/249/150 311/260/161 310/259/160
f 342/249/150 304/251/152 312/261/162
f 333/262/163 335/263/164 334/264/165
f 292/265/166 293/266/167 294/267/168
f 333/262/169 290/268/170 335/263/171
f 321/269/172 298/270/173 324/271/174
f 315/272/175 317/273/176 316/274/177
f 340/275/178 339/276/179 318/277/180
f 293/266/181 338/278/182 330/279/183
f 335/263/164 337/280/184 313/281/185
f 336/282/186 316/274/177 317/273/176
f 319/283/187 321/269/188 320/284/189
f 320/284/189 321/269/188 322/285/190
f 322/285/191 321/269/191 323/286/191
f 327/287/192 328/288/193 329/289/194
f 330/279/183 338/278/182 331/290/195
f 331/290/195 333/262/163 332/291/196
f 332/291/196 333/262/163 334/264/165
f 288/292/197 289/293/198 303/294/199
f 297/295/200 299/296/201 351/297/202
f 352/298/203 290/268/204 354/299/205
f 302/300/206 352/298/203 355/301/207
f 354/299/205 292/265/208 294/267/209
f 350/302/210 348/303/211 296/304/212
f 348/303/211 351/297/202 296/304/212
f 350/302/210 296/304/212 297/295/200
f 358/305/213 352/298/203 357/306/214
f 347/307/215 355/301/207 346/308/216
f 357/306/214 354/299/205 359/309/217
f 355/301/207 363/310/218 346/308/216
f 354/299/205 367/311/219 292/265/208
f 353/312/220 291/313/221 367/311/219
f 356/314/222 299/296/201 366/315/223
f 301/316/224 355/301/207 366/315/223
f 352/298/203 365/317/225 289/293/198
f 364/318/226 289/293/198 365/317/225
f 302/300/206 364/318/226 352/298/203
f 327/287/192 326/319/227 328/288/193
f 303/294/228 337/280/229 288/292/230
f 294/267/168 328/288/231 295/320/232
f 296/304/233 326/319/234 297/295/235
f 323/286/236 324/271/237 325/321/238
f 314/322/239 313/281/185 315/272/175
f 316/274/177 314/322/239 315/272/175
f 318/277/180 336/282/186 340/275/178
f 318/277/180 339/276/179 319/283/187
f 323/286/236 325/321/238 341/323/240
f 327/287/192 341/323/240 326/319/227
f 330/279/183 329/289/194 328/288/193
f 313/281/185 334/264/165 335/263/164
f 342/249/241 318/277/241 311/260/241
f 311/260/242 319/283/242 310/259/242
f 309/257/243 341/323/243 308/256/243
f 314/322/244 304/251/244 313/281/244
f 327/287/245 308/256/245 341/323/245
f 297/295/200 298/270/246 299/296/201
f 290/268/204 291/313/221 353/312/220
f 355/301/207 299/296/201 356/314/222
f 302/300/206 355/301/207 301/316/224
f 302/300/206 303/294/199 364/318/226
f 352/298/203 289/293/198 290/268/204
f 348/303/211 349/324/247 351/297/202
f 357/306/214 352/298/203 354/299/205
f 361/325/248 359/309/217 354/299/205
f 362/326/249 360/327/26 351/297/202
f 353/312/220 354/299/205 290/268/204
f 366/315/223 299/296/201 301/316/224
f 339/276/250 299/296/251 321/269/172
f 337/280/229 303/294/228 315/272/252
f 324/271/237 323/286/236 321/269/253
f 330/279/183 328/288/193 293/266/181
f 297/295/200 349/324/247 350/302/210
f 288/292/230 335/263/171 289/293/254
f 335/263/171 290/268/170 289/293/254
f 290/268/170 333/262/169 291/313/255
f 291/313/255 338/278/256 292/265/166
f 295/320/232 326/319/234 296/304/233
f 325/321/257 297/295/235 326/319/234
f 324/271/174 298/270/173 297/295/235
f 298/270/173 321/269/172 299/296/251
f 339/276/250 300/328/258 299/296/251
f 300/328/258 339/276/250 301/316/259
f 301/316/259 340/275/260 302/300/261
f 315/272/252 303/294/228 302/300/261
f 337/280/184 315/272/175 313/281/185
f 341/323/240 325/321/238 326/319/227
f 339/276/179 321/269/188 319/283/187
f 304/251/262 314/322/262 312/261/262
f 338/278/182 333/262/163 331/290/195
f 312/261/263 314/322/263 316/274/263
f 336/282/264 342/249/265 316/274/266
f 342/249/265 336/282/264 318/277/267
f 311/260/268 318/277/268 319/283/268
f 343/258/269 320/284/270 322/285/271
f 343/258/272 322/285/273 323/286/273
f 308/256/274 327/287/274 307/255/274
f 307/255/275 327/287/275 329/289/275
f 307/255/276 329/289/276 344/254/276
f 344/254/277 329/289/277 330/279/277
f 306/253/278 330/279/279 331/290/280
f 331/290/281 332/291/281 306/253/281
f 306/253/282 332/291/282 305/252/282
f 334/264/283 305/252/283 332/291/283
f 345/250/284 334/264/284 313/281/284
f 299/296/201 300/328/285 301/316/224
f 294/267/209 295/320/286 296/304/212
f 296/304/212 354/299/205 294/267/209
f 299/296/201 355/301/207 351/297/202
f 351/297/202 361/325/248 354/299/205
f 297/295/200 351/297/202 349/324/247
f 355/301/207 362/326/249 351/297/202
f 352/298/203 363/310/218 355/301/207
f 292/265/208 367/311/219 291/313/221
f 364/318/226 303/294/199 289/293/198
f 337/280/229 335/263/171 288/292/230
f 333/262/169 338/278/256 291/313/255
f 338/278/256 293/266/167 292/265/166
f 293/266/167 328/288/231 294/267/168
f 295/320/232 328/288/231 326/319/234
f 325/321/257 324/271/174 297/295/235
f 339/276/250 340/275/260 301/316/259
f 340/275/260 317/273/287 302/300/261
f 317/273/287 315/272/252 302/300/261
f 336/282/186 317/273/176 340/275/178
f 342/249/265 312/261/288 316/274/266
f 310/259/289 319/283/289 320/284/289
f 343/258/269 310/259/290 320/284/270
f 309/257/291 343/258/292 323/286/291
f 309/257/293 323/286/293 341/323/293
f 306/253/278 344/254/294 330/279/279
f 334/264/295 345/250/295 305/252/295
f 313/281/296 304/251/296 345/250/296
f 296/304/212 351/297/202 354/299/205
f 351/297/202 360/327/26 361/325/248
f 355/301/207 347/307/215 362/326/249
f 352/298/203 358/305/213 363/310/218
usemtl Material.002
f 371/329/297 389/330/298 369/331/299
f 379/332/300 374/333/301 377/334/302
f 381/335/303 390/336/304 383/337/305
f 387/338/306 374/339/307 388/340/308
f 380/341/309 386/342/310 388/340/311
f 377/343/302 374/339/301 384/344/312
f 381/345/313 388/340/314 386/342/315
f 384/346/316 385/347/317 383/337/305
f 392/348/318 383/337/305 390/336/304
f 383/337/305 392/348/318 391/349/319
f 392/350/320 397/351/321 396/352/322
f 393/353/323 399/354/324 400/355/325
f 393/353/323 407/356/326 399/354/327
f 399/357/328 409/358/329 397/359/330
f 616/360/331 395/361/332 406/362/333
f 402/363/334 409/358/335 399/357/336
f 418/364/337 419/365/338 420/366/339
f 422/367/340 416/368/341 426/369/342
f 416/370/343 417/371/344 423/372/343
f 420/373/339 428/374/345 418/375/337
f 422/376/346 428/374/347 420/373/348
f 425/377/349 427/347/350 389/330/298
f 418/364/351 421/378/352 414/379/353
f 436/380/354 433/381/355 431/382/356
f 437/383/357 446/384/357 435/385/358
f 435/386/359 443/371/360 442/372/361
f 438/387/362 448/388/363 449/389/364
f 446/390/365 448/388/366 440/391/367
f 444/392/368 448/388/369 446/390/370
f 438/393/371 441/394/372 434/395/373
f 482/335/374 451/331/375 454/337/376
f 453/329/377 454/337/376 451/331/375
f 467/396/378 457/397/379 459/398/380
f 462/399/381 457/397/382 460/400/383
f 464/335/384 431/382/356 433/381/355
f 468/401/385 457/402/379 467/403/378
f 463/404/386 466/405/387 467/403/388
f 464/406/389 467/403/390 466/405/391
f 460/346/392 465/347/393 433/381/355
f 475/407/394 476/408/395 477/409/396
f 487/410/397 475/407/394 477/409/396
f 487/410/398 477/409/399 479/411/400
f 482/412/401 487/413/402 488/414/403
f 483/377/404 485/347/405 454/337/376
f 493/380/406 491/381/407 489/336/408
f 494/415/409 500/354/410 501/416/411
f 500/417/412 509/418/413 498/359/414
f 494/419/409 506/420/415 500/417/410
f 503/421/416 509/418/417 508/422/418
f 496/423/419 499/394/420 492/424/421
f 514/329/422 511/335/423 512/425/424
f 522/399/425 517/426/426 520/427/427
f 524/335/428 489/336/408 491/381/407
f 527/428/429 517/429/430 528/430/431
f 519/431/432 528/430/431 517/429/430
f 523/432/433 526/405/434 528/430/435
f 523/432/433 528/430/435 519/431/436
f 524/406/437 528/430/438 526/405/439
f 520/346/440 525/347/441 491/381/407
f 536/433/442 537/408/443 538/434/444
f 549/435/445 536/433/442 538/434/444
f 541/436/446 533/437/447 546/438/448
f 549/435/449 538/434/450 541/436/451
f 533/370/452 540/371/453 543/372/452
f 511/439/454 549/440/455 550/441/456
f 545/377/457 547/347/458 544/337/459
f 557/348/460 556/442/461 553/443/462
f 556/442/463 557/348/464 554/349/465
f 557/444/466 562/445/467 561/446/468
f 564/447/469 553/448/470 558/449/471
f 560/450/472 570/451/473 569/452/474
f 564/453/475 570/451/476 562/454/477
f 558/455/471 567/456/478 564/453/469
f 565/457/479 570/451/480 567/456/481
f 575/348/482 571/458/483 572/425/484
f 573/337/485 575/348/482 574/349/486
f 581/459/487 578/460/488 580/461/489
f 583/462/490 578/460/491 582/463/492
f 590/464/493 578/465/488 581/466/487
f 576/467/494 589/468/495 584/469/496
f 582/470/492 578/465/491 587/471/497
f 551/472/498 581/466/499 589/468/500
f 587/346/501 588/347/502 556/442/461
f 597/407/503 598/473/504 599/474/505
f 601/475/506 597/476/507 606/477/508
f 606/377/509 608/347/510 573/337/485
f 405/478/511 615/479/512 406/346/513
f 616/360/331 617/480/514 398/481/515
f 413/482/516 619/483/517 445/346/518
f 445/484/519 622/480/520 441/485/521
f 471/478/522 625/486/523 504/346/524
f 504/487/525 628/480/526 499/485/527
f 534/478/528 631/479/529 566/346/530
f 566/488/531 634/480/532 563/489/533
f 388/490/308 375/491/534 376/492/535
f 376/492/536 369/493/537 380/494/309
f 380/494/309 388/490/311 376/492/536
f 385/347/317 381/335/303 383/337/305
f 409/495/538 395/496/539 397/351/540
f 397/351/330 400/355/541 399/354/328
f 401/497/542 400/355/543 397/351/544
f 401/497/542 397/351/544 390/498/545
f 390/336/546 382/425/546 401/371/547
f 403/336/548 405/478/549 402/335/550
f 406/346/551 408/347/552 405/478/549
f 408/347/552 402/335/550 405/478/549
f 395/361/332 616/360/331 398/499/553
f 413/482/554 411/382/555 415/500/556
f 417/501/557 422/367/346 420/366/348
f 417/501/558 420/366/559 411/502/560
f 427/347/350 424/503/561 389/330/298
f 429/504/562 418/375/337 428/374/345
f 422/376/346 424/505/563 428/374/347
f 418/375/564 425/506/565 421/507/566
f 436/380/354 434/508/567 433/381/355
f 440/509/568 438/393/362 439/510/569
f 448/511/363 438/393/362 440/509/568
f 440/509/367 435/385/359 446/384/365
f 443/512/360 435/385/359 440/509/367
f 443/512/570 440/509/571 431/513/572
f 431/382/573 432/425/573 443/371/573
f 411/382/555 413/482/554 444/335/574
f 445/346/575 447/347/576 413/482/554
f 447/347/576 444/335/574 413/482/554
f 438/387/577 445/484/519 441/514/521
f 453/329/377 452/515/578 454/337/376
f 459/398/579 451/516/580 463/517/386
f 463/517/386 467/396/388 459/398/579
f 465/347/393 464/335/384 433/381/355
f 471/478/581 469/336/582 473/329/583
f 479/411/584 481/518/585 484/519/586
f 477/409/399 481/518/587 479/411/400
f 480/520/588 481/518/587 477/409/399
f 480/520/589 477/409/590 469/521/591
f 485/347/405 482/335/374 454/337/376
f 479/522/400 488/414/592 487/413/398
f 475/476/593 483/523/594 478/524/595
f 493/380/406 492/525/596 491/381/407
f 498/526/597 496/423/598 497/527/599
f 509/495/600 496/423/598 498/526/597
f 498/526/414 501/416/601 500/354/412
f 502/497/602 501/416/603 498/526/604
f 502/497/602 498/526/604 489/498/605
f 489/336/606 490/425/606 502/371/607
f 469/336/582 471/478/581 503/335/608
f 504/346/609 507/347/610 471/478/581
f 471/478/581 507/347/610 503/335/608
f 509/418/417 500/417/611 508/422/418
f 496/528/612 504/487/525 499/499/527
f 514/329/422 513/515/613 544/337/459
f 519/529/436 512/530/614 523/531/433
f 525/347/441 524/335/428 491/381/407
f 534/478/615 529/532/616 535/329/617
f 538/434/450 540/533/618 541/436/451
f 540/533/619 538/434/620 529/534/621
f 547/347/458 511/335/423 544/337/459
f 541/535/451 550/441/622 549/440/449
f 536/476/623 545/536/624 539/537/625
f 553/448/626 564/447/627 562/445/628
f 529/532/616 534/478/615 565/335/629
f 566/346/630 568/538/631 534/478/615
f 568/538/631 565/335/629 534/478/615
f 570/451/632 568/539/633 569/452/634
f 564/453/475 567/456/635 570/451/476
f 560/450/636 566/488/531 563/499/533
f 580/461/637 572/540/637 584/541/638
f 584/541/639 581/459/640 580/461/639
f 581/466/499 584/469/641 589/468/500
f 588/347/502 551/335/642 556/442/461
f 405/478/549 403/336/548 596/329/643
f 598/473/504 600/542/644 599/474/505
f 602/543/645 595/544/646 607/545/647
f 604/546/648 602/543/649 600/542/650
f 600/542/651 602/543/652 599/474/653
f 601/547/506 603/548/654 597/407/507
f 604/546/655 600/542/656 403/521/656
f 608/347/510 571/458/483 573/337/485
f 611/549/657 571/550/658 609/551/659
f 611/552/660 605/553/661 571/458/662
f 377/334/302 614/480/663 379/332/664
f 421/554/566 425/506/665 620/480/666
f 621/486/667 433/381/667 434/508/668
f 478/555/595 483/523/594 626/480/669
f 627/486/670 491/381/670 492/525/671
f 539/556/625 545/536/624 632/480/672
f 582/463/673 636/480/674 583/462/490
f 603/548/654 601/475/506 637/480/675
f 369/493/676 376/492/677 375/491/678
f 385/557/679 384/344/312 387/338/680
f 387/338/681 388/340/314 381/345/313
f 374/339/301 387/338/680 384/344/312
f 397/351/540 395/496/539 396/352/682
f 390/498/683 397/351/684 392/350/685
f 409/358/538 410/558/686 395/361/539
f 408/559/687 406/362/333 410/558/688
f 395/361/332 410/558/688 406/362/333
f 416/368/341 422/367/340 417/501/689
f 411/502/560 420/366/559 419/365/690
f 427/560/691 425/506/565 429/504/692
f 429/504/693 428/374/694 424/505/695
f 418/375/564 429/504/692 425/506/565
f 431/513/572 440/509/571 439/510/696
f 447/557/697 445/484/519 449/389/698
f 438/387/577 449/389/698 445/484/519
f 458/561/699 459/398/380 457/397/379
f 451/516/700 459/398/701 458/561/702
f 465/557/703 460/400/383 468/401/704
f 468/401/705 467/403/390 464/406/389
f 457/402/382 468/401/704 460/400/383
f 469/521/591 477/409/590 476/408/706
f 485/562/707 483/523/594 486/563/708
f 486/563/709 487/413/710 482/412/401
f 475/476/593 486/563/708 483/523/594
f 489/498/605 498/526/604 497/527/711
f 509/418/600 510/564/712 496/528/598
f 507/559/713 504/487/525 510/564/714
f 496/528/612 510/564/714 504/487/525
f 514/565/715 519/529/716 518/566/717
f 519/529/716 514/565/715 512/530/718
f 525/567/719 520/427/427 527/428/720
f 527/428/721 528/430/438 524/406/437
f 517/429/426 527/428/720 520/427/427
f 533/437/447 541/436/446 540/533/722
f 529/534/621 538/434/620 537/408/723
f 547/568/724 545/536/624 548/569/725
f 548/569/726 549/440/455 511/439/454
f 536/476/623 548/569/725 545/536/624
f 553/443/727 551/335/728 552/570/729
f 562/445/467 560/571/472 561/446/468
f 553/448/730 562/445/731 557/444/732
f 553/425/733 559/572/734 555/573/735
f 568/539/736 566/488/531 569/452/737
f 560/450/636 569/452/737 566/488/531
f 575/574/738 580/461/739 579/575/740
f 580/461/739 575/574/738 572/540/741
f 588/576/742 587/471/497 590/464/743
f 590/464/744 581/466/745 551/472/498
f 578/465/491 590/464/743 587/471/497
f 403/521/746 600/542/747 598/473/748
f 599/577/505 610/578/749 597/476/503
f 610/578/749 599/577/505 609/551/750
f 608/562/751 606/477/508 610/578/752
f 597/476/507 610/578/752 606/477/508
f 413/482/554 415/500/556 414/579/753
f 413/482/516 618/580/754 619/483/517
f 375/491/534 388/490/308 374/333/307
f 372/581/755 369/493/756 378/582/757
f 379/332/300 375/491/758 374/333/301
f 371/583/759 369/493/676 375/491/678
f 375/491/760 370/584/761 371/583/762
f 387/338/681 381/345/313 385/557/763
f 398/481/553 396/352/764 395/496/332
f 410/558/765 402/363/334 408/559/766
f 414/379/353 419/365/767 418/364/351
f 415/585/768 411/502/560 419/365/690
f 424/503/769 368/570/770 369/331/771
f 422/376/346 430/586/772 424/505/563
f 429/504/693 424/505/695 427/560/773
f 389/330/298 424/503/561 369/331/299
f 434/395/373 439/510/774 438/393/775
f 436/587/776 431/513/572 439/510/696
f 449/389/777 444/392/368 447/557/778
f 451/516/779 455/588/780 463/517/781
f 462/399/381 458/561/782 457/397/382
f 453/583/783 451/516/700 458/561/702
f 458/561/784 452/584/785 453/583/786
f 468/401/705 464/406/389 465/557/787
f 472/589/788 471/478/581 473/329/583
f 478/555/595 476/408/789 475/407/593
f 473/590/790 469/521/591 476/408/706
f 476/408/791 472/591/792 473/590/793
f 482/335/794 450/570/795 451/331/796
f 486/563/709 482/412/401 485/562/797
f 492/424/421 497/527/798 496/423/419
f 493/592/799 489/498/605 497/527/711
f 500/417/410 506/420/415 508/422/800
f 510/564/801 503/421/416 507/559/802
f 514/329/422 544/337/459 511/335/423
f 512/530/803 515/593/803 523/531/804
f 522/399/425 518/566/805 517/426/426
f 518/566/806 513/584/807 514/565/808
f 527/428/721 524/406/437 525/567/809
f 532/589/810 534/478/615 535/329/617
f 539/556/625 537/408/811 536/433/623
f 535/594/812 529/534/621 537/408/723
f 537/408/813 532/591/813 535/594/814
f 542/371/815 529/532/816 531/425/817
f 548/569/726 511/439/454 547/568/818
f 553/443/462 556/442/461 551/335/642
f 554/595/819 557/444/820 561/446/821
f 563/489/533 561/446/822 560/571/636
f 555/573/735 558/596/823 553/425/733
f 575/348/482 573/337/485 571/458/483
f 572/540/824 576/597/494 584/541/496
f 583/462/490 579/575/825 578/460/491
f 590/464/744 551/472/498 588/576/826
f 593/589/827 405/478/549 596/329/643
f 603/548/654 598/473/828 597/407/507
f 596/594/829 403/521/746 598/473/748
f 598/473/830 593/591/831 596/594/832
f 599/577/653 611/549/833 609/551/834
f 609/551/835 571/550/836 608/562/837
f 610/578/838 609/551/839 608/562/840
f 370/515/841 612/486/842 389/330/843
f 391/349/844 613/486/845 383/337/846
f 452/515/847 623/486/848 454/337/849
f 472/589/850 625/486/523 471/478/522
f 532/589/851 631/479/529 534/478/528
f 554/349/852 633/486/853 556/442/854
f 574/349/855 635/486/856 573/337/857
f 593/589/858 615/479/512 405/478/511
f 370/515/859 389/330/298 371/329/297
f 372/581/860 380/494/861 369/493/862
f 379/332/863 370/584/864 375/491/865
f 382/425/866 390/336/866 381/335/867
f 401/497/868 393/353/869 400/355/870
f 391/595/871 392/350/872 396/352/873
f 398/481/874 391/595/875 396/352/876
f 404/570/877 403/336/877 402/335/877
f 410/558/765 409/358/335 402/363/334
f 414/379/353 415/585/878 419/365/767
f 417/371/879 411/382/880 412/425/880
f 422/376/340 426/598/342 430/586/881
f 434/395/373 436/587/882 439/510/774
f 412/425/883 411/382/883 444/335/883
f 449/389/777 448/388/369 444/392/368
f 451/516/884 461/599/885 455/588/886
f 462/399/887 452/584/888 458/561/889
f 432/425/890 431/382/890 464/335/891
f 478/555/892 472/591/893 476/408/894
f 480/371/895 469/336/896 470/425/896
f 486/563/897 475/476/394 487/413/397
f 479/522/584 484/600/586 488/414/898
f 502/497/899 494/415/409 501/416/411
f 492/424/421 493/592/900 497/527/798
f 470/425/901 469/336/901 503/335/901
f 510/564/801 509/418/417 503/421/416
f 519/529/432 517/426/430 518/566/902
f 512/530/903 521/599/904 515/593/903
f 522/399/905 513/584/906 518/566/907
f 490/425/908 489/336/908 524/335/909
f 530/601/910 531/425/817 529/532/816
f 539/556/911 532/591/912 537/408/913
f 542/371/914 540/371/915 529/532/914
f 548/569/916 536/476/442 549/440/445
f 541/535/446 546/602/448 550/441/917
f 563/489/918 554/595/919 561/446/920
f 530/601/921 529/532/921 565/335/921
f 562/454/467 570/451/473 560/450/472
f 568/539/922 570/451/480 565/457/479
f 580/461/489 578/460/488 579/575/923
f 572/540/924 577/599/925 576/597/926
f 574/603/927 575/574/928 579/575/929
f 583/462/930 574/603/931 579/575/932
f 576/604/926 577/605/925 586/372/933
f 404/570/934 604/425/935 403/336/934
f 595/544/936 602/543/649 604/546/648
f 603/548/937 593/591/938 598/473/939
f 571/458/662 605/553/661 572/425/940
f 602/606/645 607/607/647 611/549/941
f 599/577/653 602/606/652 611/549/833
f 384/346/942 383/337/846 613/486/845
f 413/482/554 414/579/753 618/580/943
f 425/377/944 389/330/843 612/486/842
f 460/346/945 433/381/946 621/486/946
f 460/400/947 624/480/948 462/399/949
f 483/377/950 454/337/849 623/486/848
f 520/346/951 491/381/952 627/486/952
f 520/427/953 630/480/954 522/399/955
f 629/486/956 544/337/957 513/515/958
f 545/377/959 544/337/957 629/486/956
f 587/346/960 556/442/854 633/486/853
f 606/377/961 573/337/857 635/486/856
usemtl Material.017
f 638/608/962 644/609/963 639/610/963
f 643/611/964 641/612/965 642/613/966
f 641/614/967 653/615/968 651/616/969
f 651/616/970 640/617/971 641/614/972
f 647/618/973 651/616/969 653/615/968
f 652/619/974 654/620/975 649/621/976
f 653/615/968 641/614/967 643/622/977
f 652/619/978 643/622/979 644/623/980
f 654/620/981 638/624/982 640/625/983
f 646/626/984 645/627/985 648/628/986
f 653/615/987 648/628/986 647/618/988
f 646/626/989 649/621/990 645/629/991
f 649/621/992 646/626/992 652/619/992
f 648/628/993 652/619/993 646/626/993
f 649/621/994 654/620/994 650/630/994
f 643/622/979 648/628/995 653/615/996
f 643/622/979 652/619/978 648/628/995
f 640/625/997 651/631/998 650/630/999
f 644/623/1000 654/620/975 652/619/974
f 647/618/988 648/628/986 645/627/985
f 649/621/990 650/630/1001 645/629/991
f 645/629/1002 650/630/1003 647/632/1004
f 647/632/1004 650/630/1003 651/631/1005
f 654/620/981 640/625/997 650/630/999
f 644/623/1000 638/624/1006 654/620/975
l 1 7
l 278 281
l 589 592
l 270 273
l 373 378
l 16 17
l 271 272
l 2 4
l 10 11
l 272 275
l 3 6
l 495 502
l 591 592
l 106 107
l 456 461
l 18 19
l 12 13
l 5 7
l 274 275
l 585 586
l 505 508
l 282 283
l 594 595
l 474 480
l 530 542
l 20 21
l 14 15
l 394 401
l 286 287
l 276 280
l 8 9
l 284 285
l 277 279
l 516 521
o Parte1
v 1.049496 1.112000 -0.000119
v 0.742069 1.112000 0.742065
v 1.053071 4.803489 -0.000014
v 0.748402 4.808116 0.743858
vn 0.9245 -0.0025 0.3812
vn 0.9241 -0.0010 0.3822
vn 0.9239 -0.0009 0.3827
vn 0.9259 -0.0062 0.3777
vt 0.167643 0.989037
vt 0.863654 0.000102
vt 0.163966 0.003283
vt 0.868850 0.994052
s 1
usemtl Parte1
f 657/633/1007 656/634/1008 655/635/1009
f 657/633/1007 658/636/1010 656/634/1008
o Parte2
v 0.678639 1.118775 -0.778096
v -0.002776 4.802606 -1.051343
v 0.728951 4.716300 -0.704260
v 0.069150 1.118775 -1.028285
vn 0.3867 0.0031 -0.9222
vn 0.4269 0.0107 -0.9042
vn 0.3341 -0.0654 -0.9403
vn 0.3797 0.0016 -0.9251
vt 0.928755 0.111487
vt 0.216581 0.757008
vt 0.921185 0.753452
vt 0.203389 0.105153
s 1
usemtl Parte2
f 659/637/1011 660/638/1012 661/639/1013
f 662/640/1014 660/638/1012 659/637/1011
o Parte3
v -1.045316 1.111999 0.332769
v -0.742066 1.112000 -0.742066
v -0.744646 4.805085 -0.746422
v -1.056598 4.809055 -0.001319
vn -0.9576 -0.0062 -0.2880
vn -0.9305 -0.0309 -0.3649
vn -0.9624 -0.0010 -0.2715
vn -0.9218 -0.0377 -0.3857
vt -0.005480 -0.001321
vt 0.994930 0.996370
vt 0.997164 0.004763
vt 0.002338 0.998917
s 1
usemtl Parte3
f 663/641/1015 665/642/1016 664/643/1017
f 663/641/1015 666/644/1018 665/642/1016
o Parte4
v 0.039288 1.125562 0.966717
v 0.742069 1.112000 0.742065
v -0.743387 4.799582 0.743401
v 0.067800 4.757200 1.021299
v 0.017507 4.716300 1.013999
vn 0.0264 -0.1738 0.9844
vn -0.0938 -0.0722 0.9930
vn -0.3364 -0.0144 0.9416
vn -0.0964 -0.0359 0.9947
vn 0.3644 -0.2003 0.9094
vn 0.3137 -0.0147 0.9494
vt 0.000669 0.000199
vt 0.757430 0.999843
vt 0.000600 0.998124
vt 0.998010 0.999475
vt 1.002439 -0.000829
s 1
usemtl Parte4
f 667/645/1019 671/646/1020 669/647/1021
f 671/646/1020 667/645/1022 670/648/1023
f 668/649/1024 670/648/1023 667/645/1022
