# Blender 4.4.0
# www.blender.org
mtllib KAMIKAZE_optim.mtl
o SketchUp.002
v -0.572026 7.043968 -0.454617
v -0.571893 7.349730 -0.446016
v -0.568483 6.821682 -0.244524
v -0.568891 7.533315 -0.268696
v -0.565545 7.580565 -0.070184
v -0.563327 6.813074 0.061192
v -0.562240 7.522216 0.125353
v -0.560071 6.979811 0.254426
v -0.559889 7.373913 0.265514
v -0.559068 7.175373 0.312761
v -0.559068 7.175373 0.312761
v -0.559889 7.373913 0.265514
v -0.560071 6.979811 0.254426
v -0.562240 7.522216 0.125353
v -0.563327 6.813074 0.061192
v -0.565545 7.580565 -0.070184
v -0.568483 6.821682 -0.244524
v -0.568891 7.533315 -0.268696
v -0.571893 7.349730 -0.446016
v -0.572026 7.043968 -0.454617
v -0.559215 7.124542 0.304728
v -0.559570 7.366163 0.283657
v -0.566459 7.604228 -0.124357
v -0.571972 7.337288 -0.450971
v -0.570765 6.880043 -0.379539
v -0.561385 6.859257 0.176117
v 0.871735 7.318252 0.288739
v -0.558820 7.121591 0.328103
v -0.558821 7.121593 0.328101
v 0.871734 7.318354 0.288731
v -0.192926 7.124542 0.298545
v 0.505308 7.124543 0.286761
v 0.871595 7.124543 0.280579
v 0.870990 7.393338 0.244821
v -0.561657 7.504567 0.160077
v -0.561657 7.504568 0.160077
v 0.864363 7.597227 -0.147783
v 0.860981 7.553880 -0.348197
v -0.568499 7.569154 -0.245234
v -0.568499 7.569154 -0.245235
v 0.860981 7.553880 -0.348197
v 0.858081 7.252976 -0.520050
v -0.572687 7.088386 -0.493329
v -0.572598 7.182470 -0.488031
v 0.859781 6.889807 -0.419242
v 0.859781 6.889806 -0.419242
v -0.566896 6.756088 -0.150297
v 0.862233 6.809563 -0.274103
v -0.565292 6.770941 -0.055285
v 0.869165 6.851916 0.136593
v 0.869165 6.851916 0.136593
v 0.869602 6.880415 0.162561
v 0.492497 7.124543 -0.472134
v -0.192926 7.124542 0.298545
v 0.505308 7.124543 0.286761
v -0.205739 7.124543 -0.460347
v -0.205739 7.124543 -0.460347
v 0.492497 7.124543 -0.472134
v -0.192926 7.124542 0.298545
v 0.505308 7.124543 0.286761
v 0.492497 7.124543 -0.472134
v -0.205739 7.124543 -0.460347
v 0.505308 7.124543 0.286761
v -0.192926 0.798346 0.298548
v 0.505309 0.798346 0.286762
v -0.192926 7.124542 0.298545
v -0.192926 7.124542 0.298545
v 0.505308 7.124543 0.286761
v -0.192926 0.798346 0.298548
v 0.505309 0.798346 0.286762
v -0.192926 0.798346 0.298548
v 0.505309 0.798346 0.286762
v 0.858696 7.299178 -0.483180
v 0.858775 7.043968 -0.478771
v 0.860504 7.472976 -0.376224
v 0.862324 6.821681 -0.268676
v 0.863539 7.570010 -0.196707
v 0.866620 6.802925 -0.014164
v 0.866979 7.564266 0.007268
v 0.870287 6.934338 0.204615
v 0.869910 7.457290 0.181043
v 0.871676 7.227456 0.292062
v 0.871676 7.227456 0.292062
v 0.870287 6.934338 0.204615
v 0.869910 7.457290 0.181043
v 0.866979 7.564266 0.007268
v 0.866620 6.802925 -0.014164
v 0.863539 7.570010 -0.196707
v 0.862324 6.821681 -0.268676
v 0.860504 7.472976 -0.376224
v 0.858775 7.043968 -0.478771
v 0.858696 7.299178 -0.483180
v 0.505308 7.124543 0.286761
v 0.492497 0.798346 -0.472131
v 0.492497 7.124543 -0.472134
v 0.505309 0.798346 0.286762
v 0.505309 0.798346 0.286762
v 0.505308 7.124543 0.286761
v 0.492497 0.798346 -0.472131
v 0.492497 7.124543 -0.472134
v 0.492497 0.798346 -0.472131
v -0.205739 7.124543 -0.460347
v 0.492497 0.798346 -0.472131
v -0.205739 0.798346 -0.460345
v 0.492497 7.124543 -0.472134
v 0.492497 7.124543 -0.472134
v -0.205739 7.124543 -0.460347
v 0.492497 0.798346 -0.472131
v -0.205739 0.798346 -0.460345
v -0.205739 0.798346 -0.460345
v -0.192926 0.798346 0.298548
v -0.205739 7.124543 -0.460347
v -0.205739 0.798346 -0.460345
v -0.192926 7.124542 0.298545
v -0.192926 7.124542 0.298545
v -0.192926 0.798346 0.298548
v -0.205739 7.124543 -0.460347
v -0.205739 0.798346 -0.460345
v 2.756951 0.798343 4.188221
v -2.027681 0.096843 4.268988
v 2.756951 0.096843 4.188221
v -2.027681 0.798343 4.268988
v -2.027681 0.798343 4.268988
v 2.756951 0.798343 4.188221
v -2.027681 0.096843 4.268988
v 2.756951 0.096843 4.188221
v 2.756951 0.798343 4.188221
v 2.756951 0.096844 4.188221
v -2.027681 0.798343 4.268988
v -2.027681 0.096843 4.268988
v 2.756951 0.798343 4.188221
v 2.616034 0.096846 -4.159591
v 2.616034 0.798346 -4.159590
v 2.756951 0.096844 4.188221
v 2.756951 0.096844 4.188221
v 2.756951 0.798343 4.188221
v 2.616034 0.096846 -4.159591
v 2.616034 0.798346 -4.159590
v 2.616034 0.096846 -4.159591
v 2.616034 0.798346 -4.159590
v 2.616034 0.798346 -4.159590
v 0.364635 0.798343 4.228604
v -1.009406 0.798346 -2.082806
v 0.186752 0.798346 -2.102998
v -2.027681 0.798343 4.268988
v 2.756951 0.798343 4.188221
v -2.168597 0.798346 -4.078821
v 0.505309 0.798346 0.286762
v 0.492497 0.798346 -0.472131
v -0.192926 0.798346 0.298548
v -0.205739 0.798346 -0.460345
v -2.027681 0.096843 4.268988
v -2.168597 0.798346 -4.078821
v -2.168597 0.096846 -4.078821
v -2.027681 0.798343 4.268988
v -2.027681 0.798343 4.268988
v -2.027681 0.096843 4.268988
v -2.168597 0.798346 -4.078821
v -2.168597 0.096846 -4.078821
v -2.168597 0.096846 -4.078822
v -2.168597 0.798346 -4.078821
v -2.168597 0.096846 -4.078822
v 2.616034 0.096846 -4.159591
v 2.616034 0.798346 -4.159590
v 2.616034 0.798346 -4.159590
v -2.168597 0.798346 -4.078821
v 2.616034 0.096846 -4.159591
v -2.168597 0.096846 -4.078822
vn -0.9999 -0.0000 0.0173
vn -0.9999 -0.0000 0.0168
vn -0.9999 -0.0000 0.0169
vn -0.6044 0.6356 0.4803
vn -0.5986 -0.1896 0.7783
vn 0.6182 0.3389 0.7093
vn -0.6112 0.7305 -0.3045
vn 0.5910 0.6811 -0.4322
vn -0.6247 -0.0339 -0.7801
vn 0.5938 -0.5131 -0.6198
vn -0.6047 -0.7914 -0.0892
vn 0.6180 -0.6523 0.4388
vn -0.0000 1.0000 -0.0000
vn 0.0169 -0.0000 0.9999
vn -0.9999 -0.0000 0.0159
vn -0.9999 -0.0000 0.0167
vn 0.6617 -0.1223 0.7397
vn -0.6076 0.4181 0.6753
vn -0.6392 -0.1374 0.7567
vn -0.6104 -0.5958 -0.5219
vn 0.6026 -0.7188 -0.3467
vn -0.6022 -0.6738 0.4281
vn 0.5873 0.1389 -0.7974
vn -0.6253 0.2977 -0.7214
vn -0.5969 0.7999 -0.0620
vn 0.6289 0.4525 0.6323
vn 0.5977 0.7932 -0.1168
vn 0.6271 -0.6275 0.4615
vn -0.5675 0.5774 0.5870
vn 0.5870 -0.5773 0.5675
vn 0.5870 0.5773 0.5675
vn 0.5675 0.5774 -0.5870
vn -0.5870 0.5773 -0.5675
vn 0.5675 -0.5774 -0.5870
vn -0.5675 -0.5774 0.5870
vn -0.5870 -0.5774 -0.5675
vn -0.6002 -0.1599 0.7837
vn 0.6182 0.3388 0.7093
vn 0.5885 0.6820 -0.4343
vn -0.6070 0.7202 -0.3359
vn -0.6139 -0.1771 -0.7693
vn 0.5908 -0.5173 -0.6192
vn -0.6083 -0.7916 0.0580
vn 0.6180 -0.6543 0.4358
vn -0.0169 -0.0000 -0.9999
vn -0.5675 -0.5773 0.5870
vn -0.5870 -0.5773 -0.5675
vn 0.5675 0.5773 -0.5870
vn -0.0000 -1.0000 -0.0000
vn 0.0052 -0.9824 0.1866
vn -0.5793 -0.8151 0.0098
vn 0.2819 0.5126 -0.8111
vn 0.0968 0.8121 0.5754
vn 0.2737 0.9529 0.1306
vn -0.5872 0.7244 0.3612
vt 0.431326 0.601995
vt 0.435870 0.611383
vt 0.423455 0.596574
vt 0.435870 0.622224
vt 0.412100 0.597189
vt 0.431326 0.631613
vt 0.402468 0.608679
vt 0.423455 0.637033
vt 0.412100 0.636418
vt 0.402468 0.624928
vt 0.460037 0.596574
vt 0.297827 0.614427
vt 0.297827 0.654746
vt 0.266728 0.614427
vt 0.266728 0.654746
vt 0.523126 0.511411
vt 0.523126 0.847465
vt 0.492027 0.511411
vt 0.492027 0.847465
vt 0.357511 0.637237
vt 0.346156 0.637853
vt 0.367143 0.625746
vt 0.338285 0.632432
vt 0.367659 0.612202
vt 0.333740 0.623044
vt 0.361534 0.600780
vt 0.333740 0.612202
vt 0.348376 0.596574
vt 0.338284 0.602814
vt 0.661016 0.825175
vt 0.661016 0.489121
vt 0.694817 0.825175
vt 0.694817 0.489120
vt 0.726807 0.489120
vt 0.757906 0.489120
vt 0.726807 0.825175
vt 0.757906 0.825175
vt 0.763309 0.488589
vt 0.729508 0.488589
vt 0.763309 0.152535
vt 0.729508 0.152535
vt 0.459592 0.596574
vt 0.459146 0.596574
vt 0.210967 0.654270
vt 0.201335 0.642780
vt 0.201336 0.626532
vt 0.222323 0.654886
vt 0.230194 0.649465
vt 0.210968 0.615042
vt 0.234738 0.640077
vt 0.222323 0.614427
vt 0.234738 0.629236
vt 0.230194 0.619847
vt 0.458701 0.596574
vt 0.298273 0.614427
vt 0.329372 0.654746
vt 0.298273 0.654746
vt 0.329372 0.614427
vt 0.460482 0.511411
vt 0.491582 0.847465
vt 0.460482 0.847465
vt 0.491582 0.511411
vt 0.382740 0.596574
vt 0.368104 0.612202
vt 0.372648 0.602814
vt 0.395898 0.600780
vt 0.368104 0.623044
vt 0.402022 0.612202
vt 0.372648 0.632432
vt 0.401507 0.625746
vt 0.380519 0.637853
vt 0.391875 0.637237
vt 0.694817 0.488589
vt 0.661016 0.488589
vt 0.661016 0.152535
vt 0.694817 0.152535
vt 0.726361 0.489120
vt 0.726361 0.825175
vt 0.695262 0.825175
vt 0.695262 0.489120
vt 0.729063 0.152535
vt 0.695262 0.488589
vt 0.695262 0.152535
vt 0.729063 0.488589
vt 0.554812 0.765612
vt 0.523571 0.765612
vt 0.554812 0.511411
vt 0.523571 0.511411
vt 0.364980 0.596043
vt 0.333740 0.596043
vt 0.364980 0.152535
vt 0.333740 0.152535
vt 0.428797 0.596043
vt 0.428797 0.152535
vt 0.460037 0.596043
vt 0.460037 0.152535
vt 0.586943 0.511411
vt 0.618183 0.511411
vt 0.586943 0.765612
vt 0.618183 0.765612
vt 0.458256 0.596574
vt 0.266283 0.614427
vt 0.235183 0.654746
vt 0.235183 0.614427
vt 0.266283 0.654746
vt 0.460482 0.152535
vt 0.660570 0.423393
vt 0.460482 0.510879
vt 0.586497 0.511411
vt 0.555257 0.765612
vt 0.555257 0.511411
vt 0.586497 0.765612
vt 0.365426 0.596043
vt 0.365426 0.152535
vt 0.396666 0.152535
vt 0.396666 0.596043
vt 0.428351 0.596043
vt 0.397111 0.152535
vt 0.428351 0.152535
vt 0.397111 0.596043
vt 0.618628 0.511411
vt 0.649868 0.511411
vt 0.618628 0.765612
vt 0.649868 0.765612
vt 0.333295 0.613896
vt 0.201335 0.309008
vt 0.333295 0.152535
s 1
usemtl material_0.001
f 11/1/1 12/2/2 13/3/3
f 12/2/2 14/4/3 13/3/3
f 13/3/3 14/4/3 15/5/3
f 14/4/3 16/6/3 15/5/3
f 15/5/3 16/6/3 17/7/3
f 16/6/3 18/8/3 17/7/3
f 18/8/3 19/9/3 17/7/3
f 17/7/3 19/9/3 20/10/2
f 36/11/4 29/11/5 30/11/6
f 40/11/7 36/11/4 41/11/8
f 30/11/6 41/11/8 36/11/4
f 44/11/9 40/11/7 41/11/8
f 41/11/8 46/11/10 44/11/9
f 47/11/11 44/11/9 46/11/10
f 51/11/12 47/11/11 46/11/10
f 47/11/11 51/11/12 29/11/5
f 51/11/12 30/11/6 29/11/5
f 57/12/13 59/13/13 58/14/13
f 60/15/13 58/14/13 59/13/13
f 67/16/14 69/17/14 68/18/14
f 70/19/14 68/18/14 69/17/14
f 83/20/15 85/21/16 84/22/16
f 85/21/16 86/23/3 84/22/16
f 84/22/16 86/23/3 87/24/2
f 86/23/3 88/25/3 87/24/2
f 87/24/2 88/25/3 89/26/3
f 88/25/3 90/27/3 89/26/3
f 89/26/3 90/27/3 91/28/3
f 90/27/3 92/29/3 91/28/3
f 97/30/3 98/31/3 99/32/3
f 100/33/3 99/32/3 98/31/3
f 106/34/14 107/35/14 108/36/14
f 109/37/14 108/36/14 107/35/14
f 115/38/3 117/39/3 116/40/3
f 118/41/3 116/40/3 117/39/3
f 33/42/17 22/42/18 21/42/19
f 25/42/20 48/42/21 26/42/22
f 25/42/20 42/42/23 48/42/21
f 24/42/24 42/42/23 25/42/20
f 23/42/25 42/42/23 24/42/24
f 23/42/25 34/42/26 37/42/27
f 24/42/24 25/42/20 22/42/18
f 52/42/28 42/42/23 34/42/26
f 31/43/29 72/43/30 32/43/31
f 31/43/29 61/43/32 62/43/33
f 32/43/31 101/43/34 61/43/32
f 101/43/34 71/43/35 110/43/36
f 71/43/35 62/43/33 110/43/36
f 62/43/33 101/43/34 110/43/36
f 40/11/7 47/11/11 29/11/5
f 46/11/10 41/11/8 30/11/6
f 26/42/22 52/42/28 33/42/17
f 33/42/17 34/42/26 22/42/18
f 21/42/19 26/42/22 33/42/17
f 26/42/22 48/42/21 52/42/28
f 23/42/25 37/42/27 42/42/23
f 23/42/25 22/42/18 34/42/26
f 26/42/22 21/42/19 22/42/18
f 22/42/18 23/42/25 24/42/24
f 25/42/20 26/42/22 22/42/18
f 34/42/26 33/42/17 52/42/28
f 52/42/28 48/42/21 42/42/23
f 42/42/23 37/42/27 34/42/26
f 31/43/29 71/43/35 72/43/30
f 31/43/29 32/43/31 61/43/32
f 32/43/31 72/43/30 101/43/34
f 101/43/34 72/43/30 71/43/35
f 71/43/35 31/43/29 62/43/33
f 62/43/33 61/43/32 101/43/34
f 29/11/5 36/11/4 40/11/7
f 40/11/7 44/11/9 47/11/11
f 30/11/6 51/11/12 46/11/10
f 2/44/3 1/45/2 3/46/3
f 2/44/3 3/46/3 4/47/3
f 4/47/3 3/46/3 5/48/3
f 5/48/3 3/46/3 6/49/3
f 5/48/3 6/49/3 7/50/3
f 7/50/3 6/49/3 8/51/3
f 7/50/3 8/51/3 9/52/2
f 9/52/2 8/51/3 10/53/1
f 28/54/37 27/54/38 35/54/4
f 38/54/39 35/54/4 27/54/38
f 35/54/4 38/54/39 39/54/40
f 39/54/40 38/54/39 43/54/41
f 45/54/42 43/54/41 38/54/39
f 45/54/42 49/54/43 43/54/41
f 49/54/43 45/54/42 50/54/44
f 50/54/44 28/54/37 49/54/43
f 27/54/38 28/54/37 50/54/44
f 53/55/13 54/56/13 55/57/13
f 54/56/13 53/55/13 56/58/13
f 63/59/14 64/60/14 65/61/14
f 64/60/14 63/59/14 66/62/14
f 74/63/3 75/64/3 73/65/3
f 74/63/3 76/66/3 75/64/3
f 76/66/3 77/67/3 75/64/3
f 76/66/3 78/68/2 77/67/3
f 78/68/2 79/69/3 77/67/3
f 78/68/2 80/70/16 79/69/3
f 80/70/16 81/71/16 79/69/3
f 80/70/16 82/72/15 81/71/16
f 93/73/3 95/74/3 94/75/3
f 94/75/3 96/76/3 93/73/3
f 102/77/14 104/78/14 103/79/14
f 103/79/14 105/80/14 102/77/14
f 111/81/3 112/82/3 113/83/3
f 112/82/3 111/81/3 114/84/3
f 45/54/42 38/54/39 27/54/38
f 39/54/40 43/54/41 28/54/37
f 27/54/38 50/54/44 45/54/42
f 28/54/37 35/54/4 39/54/40
f 43/54/41 49/54/43 28/54/37
usemtl material.001
f 123/85/14 125/86/14 124/87/14
f 126/88/14 124/87/14 125/86/14
f 135/89/3 136/90/3 137/91/3
f 138/92/3 137/91/3 136/90/3
f 156/93/3 158/94/3 157/95/3
f 159/96/3 157/95/3 158/94/3
f 165/97/45 167/98/45 166/99/45
f 167/98/45 168/100/45 166/99/45
f 127/101/31 130/101/46 128/101/30
f 128/101/30 130/101/46 160/101/47
f 130/101/46 147/101/33 160/101/47
f 147/101/33 127/101/31 140/101/48
f 139/101/34 160/101/47 147/101/33
f 149/102/49 150/103/49 151/104/49
f 127/101/31 129/101/29 130/101/46
f 140/101/48 127/101/31 128/101/30
f 128/101/30 139/101/34 140/101/48
f 160/101/47 139/101/34 128/101/30
f 130/101/46 129/101/29 147/101/33
f 147/101/33 129/101/29 127/101/31
f 147/101/33 140/101/48 139/101/34
f 149/102/49 148/105/49 150/103/49
f 144/106/50 146/107/51 145/108/52
f 119/109/14 120/110/14 121/111/14
f 120/110/14 119/109/14 122/112/14
f 131/113/3 133/114/3 132/115/3
f 132/115/3 134/116/3 131/113/3
f 152/117/3 153/118/3 154/119/3
f 153/118/3 152/117/3 155/120/3
f 162/121/45 161/122/45 163/123/45
f 163/123/45 161/122/45 164/124/45
f 142/125/53 143/126/54 141/127/55
l 21 31
l 32 33
