# Blender 4.3.2
# www.blender.org
mtllib martilloFrontal.mtl
o MartilloFront
v -0.032772 3.507704 -3.719351
v -0.044376 2.905517 -3.069146
v -0.018957 2.161093 -4.508315
v -0.019069 2.161160 -4.508278
v -0.030793 1.551443 -3.845237
v -0.044376 2.905517 -3.069146
v -0.032772 3.507704 -3.719351
v -0.066839 3.760365 -1.795773
v -0.054822 4.379565 -2.469234
v -0.054822 4.379565 -2.469234
v -0.032772 3.507704 -3.719351
v -0.018959 2.161095 -4.508314
v -0.030793 1.551443 -3.845237
v -0.044376 2.905517 -3.069146
v -0.066839 3.760365 -1.795773
v -0.054822 4.379565 -2.469234
v 0.025534 4.379553 -2.467810
v -0.014644 4.379559 -2.468522
v -0.066839 3.760365 -1.795773
v 0.013515 3.760354 -1.794348
v -0.026662 3.760360 -1.795060
v 0.025534 4.379553 -2.467811
v -0.054822 4.379565 -2.469234
v 0.047582 3.507692 -3.717926
v -0.032772 3.507704 -3.719351
v 0.007405 3.507697 -3.718639
v 0.013515 3.760354 -1.794348
v 0.035978 2.905506 -3.067722
v -0.066839 3.760365 -1.795773
v -0.044376 2.905517 -3.069146
v -0.044376 2.905517 -3.069146
v 0.035978 2.905506 -3.067722
v 0.061395 2.161084 -4.506890
v 0.047582 3.507692 -3.717926
v -0.018959 2.161095 -4.508314
v -0.032772 3.507704 -3.719351
v 0.021218 2.161089 -4.507602
v 0.035978 2.905506 -3.067722
v 0.049561 1.551433 -3.843814
v -0.044376 2.905517 -3.069146
v -0.030793 1.551443 -3.845237
v 0.009384 1.551437 -3.844526
v 0.061395 2.161084 -4.506890
v -0.018959 2.161095 -4.508314
v 0.049561 1.551433 -3.843814
v -0.030793 1.551443 -3.845237
v -0.061073 1.598292 -2.136748
v -0.053391 2.905422 -2.560567
v -0.083460 0.355062 -0.882721
v -0.069324 2.089628 -1.667719
v -0.093040 0.947714 -0.337995
v -0.044274 2.210302 -3.079869
v -0.044273 2.341331 -3.079045
v -0.057016 1.553903 -2.365946
v -0.053391 2.905422 -2.560567
v -0.057077 2.943787 -2.352406
v -0.044273 2.341331 -3.079045
v -0.044274 2.210302 -3.079869
v -0.057016 1.553903 -2.365946
v -0.061073 1.598292 -2.136748
v 0.066816 0.355043 -0.880058
v 0.055762 0.947694 -0.335354
v -0.069324 2.089628 -1.667719
v -0.069467 2.305371 -1.658042
v 0.058738 0.947695 -0.335302
v 0.068319 0.355043 -0.880033
v -0.093040 0.947714 -0.337995
v -0.083460 0.355062 -0.882721
v 0.107504 2.210283 -3.077178
v 0.094764 1.553884 -2.363256
v 0.107507 2.341312 -3.076354
v 0.090707 1.598274 -2.134057
v 0.098388 2.905403 -2.557876
v 0.068319 0.355043 -0.880033
v 0.082455 2.089609 -1.665029
v 0.058738 0.947695 -0.335302
v 0.094703 2.943767 -2.349715
v 0.082312 2.305349 -1.655352
v 0.028691 2.963246 -2.432332
v 0.063358 2.248197 -1.657139
v 0.058738 0.947695 -0.335302
v 0.019205 0.359595 -0.876723
v 0.004438 1.597564 -2.127418
v -0.006423 1.553896 -2.365050
v 0.107869 2.284925 -3.097227
v 0.094703 2.943767 -2.349715
v -0.057077 2.943787 -2.352406
v 0.098388 2.905403 -2.557876
v -0.053391 2.905422 -2.560567
v -0.057077 2.943787 -2.352406
v 0.094703 2.943767 -2.349715
v -0.069467 2.305371 -1.658042
v 0.082312 2.305349 -1.655352
v 0.082312 2.305349 -1.655352
v 0.082455 2.089609 -1.665029
v -0.069467 2.305371 -1.658042
v -0.069324 2.089628 -1.667719
v -0.069324 2.089628 -1.667719
v -0.069324 2.089628 -1.667719
v 0.082455 2.089609 -1.665029
v -0.093040 0.947714 -0.337995
v 0.058738 0.947695 -0.335302
v -0.093040 0.947714 -0.337995
v 0.090707 1.598274 -2.134057
v -0.061073 1.598292 -2.136748
v 0.068319 0.355043 -0.880033
v -0.083460 0.355062 -0.882721
v 0.094764 1.553884 -2.363256
v -0.057016 1.553903 -2.365946
v 0.090707 1.598274 -2.134057
v -0.061073 1.598292 -2.136748
v 0.107504 2.210283 -3.077178
v -0.044274 2.210302 -3.079869
v 0.094764 1.553884 -2.363256
v -0.057016 1.553903 -2.365946
v -0.043926 2.254968 -3.099213
v 0.107504 2.210283 -3.077178
v 0.107507 2.341312 -3.076354
v -0.044274 2.210302 -3.079869
v -0.044273 2.341331 -3.079045
v 0.107507 2.341312 -3.076354
v 0.098388 2.905403 -2.557876
v -0.044273 2.341331 -3.079045
v -0.053391 2.905422 -2.560567
v -0.167411 -3.621793 3.824329
v -0.104692 -0.692616 0.307438
v -0.172429 -3.311467 4.109562
v -0.114217 -0.103452 0.848964
v 0.034587 -0.103473 0.851603
v -0.018608 -3.621811 3.826966
v -0.022152 -3.311487 4.112226
v 0.047087 -0.692636 0.310129
v 0.037563 -0.103472 0.851654
v -0.104692 -0.692616 0.307438
v -0.015632 -3.621812 3.827019
v -0.020649 -3.311487 4.112251
v 0.047087 -0.692636 0.310129
v 0.037563 -0.103472 0.851654
v -0.114217 -0.103452 0.848964
v 0.037563 -0.103472 0.851654
v -0.172429 -3.311467 4.109562
v -0.020649 -3.311487 4.112251
v 0.047087 -0.692636 0.310129
v -0.104692 -0.692616 0.307438
v -0.015632 -3.621812 3.827019
v -0.167411 -3.621793 3.824329
v -0.088536 -0.514813 -0.603218
v -0.093359 -0.697140 -0.331908
v -0.084774 -0.132748 -0.812005
v -0.098990 -0.775035 -0.014446
v -0.084611 0.194102 -0.818935
v -0.106485 -0.672213 0.408587
v -0.086448 0.503405 -0.713065
v -0.112028 -0.371630 0.723530
v -0.091992 0.803991 -0.398114
v -0.114141 0.046202 0.846021
v -0.099475 0.906811 0.024918
v -0.112271 0.469295 0.743222
v -0.106882 0.784300 0.442686
v -0.106474 -0.672213 0.408587
v -0.098996 -0.775035 -0.014446
v -0.112040 -0.371630 0.723530
v -0.114135 0.046202 0.846022
v -0.112281 0.469295 0.743221
v -0.106907 0.784301 0.442685
v -0.099471 0.906811 0.024918
v -0.091988 0.803991 -0.398114
v -0.086425 0.503405 -0.713065
v -0.084611 0.194102 -0.818935
v -0.084795 -0.132748 -0.812005
v -0.088516 -0.514813 -0.603218
v -0.093359 -0.697140 -0.331908
v 0.063259 -0.514829 -0.600533
v 0.058419 -0.697159 -0.329215
v 0.066290 -0.235246 -0.769924
v 0.052780 -0.775054 -0.011758
v 0.067443 0.085556 -0.832866
v 0.045295 -0.672235 0.411268
v 0.066109 0.403054 -0.754982
v 0.062912 0.674405 -0.572689
v 0.039751 -0.371643 0.726223
v 0.057978 0.843837 -0.293140
v 0.037630 0.046179 0.848713
v 0.052294 0.906791 0.027605
v 0.038790 0.366981 0.785770
v 0.046662 0.828893 0.345063
v 0.041815 0.646573 0.616368
v 0.052204 -0.802014 0.020560
v 0.001437 -0.437221 -0.681534
v -0.023618 0.085568 -0.834483
v 0.064436 0.603076 -0.659149
v -0.001685 0.911907 -0.041431
v 0.041561 0.661137 0.631633
v 0.037854 -0.260167 0.834058
v 0.052790 -0.808141 -0.012546
v -0.097035 -0.771940 -0.125077
v -0.097035 -0.771940 -0.125077
v -0.098405 -0.800453 -0.048019
v 0.062413 -0.632037 -0.553950
v -0.085695 -0.353392 -0.761798
v 0.064963 -0.413477 -0.696292
v -0.085695 -0.353392 -0.761797
v 0.066870 0.421971 -0.797783
v 0.066870 0.421971 -0.797783
v -0.085013 0.321340 -0.795415
v -0.088607 0.689694 -0.589937
v -0.092277 0.842785 -0.381760
v 0.050214 0.951251 0.145620
v 0.050214 0.951251 0.145620
v -0.105212 0.841436 0.347913
v -0.108674 0.733067 0.542360
v -0.114268 0.272328 0.854623
v 0.037716 0.269479 0.845658
v -0.114268 0.272328 0.854623
v 0.037716 0.269479 0.845658
v -0.114289 0.128853 0.854729
v 0.040404 -0.445914 0.688927
v -0.109513 -0.584360 0.580084
v 0.042659 -0.629624 0.560380
v -0.109513 -0.584360 0.580084
v -0.110748 -0.490376 0.650428
v 0.072496 -2.515074 5.806120
v 0.089467 -2.113209 4.851575
v 0.072596 -2.037308 5.803949
v 0.091364 -4.166208 4.729803
v 0.102158 -3.251703 4.127489
v 0.105275 -3.091072 3.952784
v 0.108435 -3.286580 3.773089
v 0.089467 -2.113209 4.851575
v 0.072596 -2.037308 5.803949
v 0.072496 -2.515074 5.806120
v 0.091364 -4.166208 4.729803
v 0.108435 -3.286580 3.773089
v 0.103593 -3.159168 4.047190
v 0.072596 -2.037308 5.803949
v -0.506755 -2.113137 4.841005
v -0.523629 -2.037233 5.793380
v 0.089467 -2.113209 4.851575
v -0.506755 -2.113136 4.841005
v 0.091364 -4.166208 4.729803
v -0.487787 -3.286504 3.762520
v -0.504861 -4.166132 4.719235
v -0.487787 -3.286504 3.762520
v 0.118767 -5.377527 3.175131
v 0.108479 -3.642713 3.768096
v 0.091364 -4.166208 4.729803
v 0.127403 -4.459946 2.694602
v 0.127203 -5.415480 2.698943
v 0.111596 -3.482086 3.593392
v 0.108435 -3.286580 3.773089
v 0.111596 -3.482086 3.593392
v -0.490948 -3.090998 3.942216
v 0.108435 -3.286580 3.773089
v -0.487787 -3.286504 3.762520
v 0.105275 -3.091072 3.952784
v -0.523775 -3.178733 4.046620
v 0.102158 -3.251703 4.127489
v -0.490948 -3.090998 3.942216
v 0.105275 -3.091072 3.952784
v 0.089467 -2.113209 4.851575
v -0.494066 -3.251626 4.116921
v -0.506755 -2.113137 4.841005
v 0.102158 -3.251703 4.127489
v 0.108435 -3.286580 3.773089
v -0.484627 -3.482009 3.582823
v -0.487787 -3.286504 3.762520
v 0.111596 -3.482086 3.593392
v -0.484627 -3.482009 3.582823
v 0.127403 -4.459946 2.694602
v -0.469021 -5.415403 2.688374
v -0.468820 -4.459869 2.684033
v 0.127203 -5.415480 2.698943
v -0.487745 -3.642637 3.757527
v 0.127403 -4.459946 2.694602
v -0.468820 -4.459869 2.684033
v 0.108479 -3.642713 3.768096
v -0.487745 -3.642637 3.757527
v -0.484627 -3.482009 3.582823
v 0.108479 -3.642713 3.768096
v -0.487745 -3.642637 3.757527
v 0.111596 -3.482086 3.593392
v -0.469021 -5.415403 2.688374
v 0.118767 -5.377527 3.175131
v -0.477456 -5.377451 3.164561
v 0.127203 -5.415480 2.698943
v 0.127016 -5.514459 2.708799
v -0.469132 -5.474327 2.694242
v -0.477456 -5.377451 3.164561
v 0.091364 -4.166208 4.729803
v -0.504861 -4.166132 4.719235
v 0.118767 -5.377527 3.175131
v -0.504861 -4.166132 4.719235
v 0.091364 -4.166208 4.729803
v 0.091364 -4.166208 4.729803
v -0.523728 -2.515000 5.795551
v -0.504861 -4.166132 4.719235
v 0.072496 -2.515074 5.806120
v -0.525392 -2.038745 5.892822
v 0.071546 -2.038210 5.863149
v -0.523728 -2.515000 5.795551
v 0.072596 -2.037308 5.803949
v -0.523629 -2.037233 5.793380
v 0.072496 -2.515074 5.806120
v -0.487787 -3.286504 3.762520
v -0.490948 -3.090998 3.942216
v -0.504861 -4.166132 4.719235
v -0.494066 -3.251626 4.116921
v -0.506755 -2.113137 4.841005
v -0.523728 -2.515000 5.795551
v -0.523629 -2.037233 5.793380
v -0.504861 -4.166132 4.719235
v -0.484627 -3.482009 3.582823
v -0.523728 -2.515000 5.795551
v -0.523629 -2.037233 5.793380
v -0.506755 -2.113137 4.841005
v -0.494066 -3.251626 4.116921
v -0.490948 -3.090998 3.942216
v -0.469021 -5.415403 2.688374
v -0.468820 -4.459869 2.684033
v -0.477456 -5.377451 3.164561
v -0.487745 -3.642637 3.757527
v -0.504861 -4.166132 4.719235
v -0.484627 -3.482009 3.582823
v -0.487787 -3.286504 3.762520
v -0.469021 -5.415403 2.688374
v -0.477456 -5.377451 3.164561
v -0.487745 -3.642637 3.757527
v -0.468820 -4.459869 2.684033
v -0.030792 1.551435 -3.845237
v -0.031721 1.643999 -3.792186
v -0.072267 0.976675 -1.509733
v -0.070486 1.075571 -1.609487
v -0.031721 1.643999 -3.792186
v -0.030792 1.551435 -3.845237
v -0.072267 0.976675 -1.509733
v -0.070486 1.075571 -1.609487
v -0.081182 1.518671 -1.002859
v -0.065922 3.725466 -1.847765
v -0.066838 3.760366 -1.795775
v -0.079307 1.608853 -1.107873
v -0.079307 1.608853 -1.107873
v -0.081182 1.518671 -1.002859
v -0.065922 3.725466 -1.847765
v -0.066838 3.760366 -1.795775
v -0.051234 -0.394470 -0.034125
v -0.048296 0.364413 0.140215
v -0.046078 -0.403078 0.271591
v -0.044991 0.306064 0.335752
v -0.042822 -0.236341 0.464825
v -0.042640 0.157761 0.475913
v -0.041819 -0.040779 0.523160
v -0.041966 -0.091610 0.515127
v -0.042321 0.150011 0.494056
v -0.049210 0.388076 0.086042
v -0.054723 0.121136 -0.240572
v -0.053516 -0.336109 -0.169140
v -0.044136 -0.356895 0.386516
v -0.041571 -0.094561 0.538502
v -0.041572 -0.094559 0.538500
v -0.044408 0.288415 0.370476
v -0.044408 0.288416 0.370476
v -0.051250 0.353002 -0.034835
v -0.051250 0.353002 -0.034836
v -0.055438 -0.127766 -0.282930
v -0.049647 -0.460064 0.060102
v -0.048043 -0.445211 0.155114
v -0.032772 3.507704 -3.719351
v -0.056416 4.379565 -2.469234
v -0.068433 3.760365 -1.795773
v -0.044376 2.905517 -3.069146
v -0.018957 2.161093 -4.508315
v -0.032387 1.551443 -3.845237
v 0.023940 4.379553 -2.467810
v -0.056416 4.379565 -2.469234
v -0.014644 4.379559 -2.468522
v -0.068433 3.760365 -1.795773
v 0.011921 3.760354 -1.794348
v -0.026662 3.760360 -1.795060
v -0.056416 4.379565 -2.469234
v 0.045988 3.507692 -3.717926
v -0.034366 3.507704 -3.719351
v 0.023940 4.379553 -2.467811
v 0.007405 3.507697 -3.718639
v 0.034384 2.905506 -3.067722
v -0.068433 3.760365 -1.795773
v -0.045970 2.905517 -3.069146
v 0.011921 3.760354 -1.794348
v -0.044376 2.905517 -3.069146
v 0.035978 2.905506 -3.067722
v 0.045988 3.507692 -3.717926
v -0.020553 2.161095 -4.508314
v -0.034366 3.507704 -3.719351
v 0.059801 2.161084 -4.506890
v 0.021218 2.161089 -4.507602
v 0.047967 1.551433 -3.843814
v -0.045970 2.905517 -3.069146
v -0.032387 1.551443 -3.845237
v 0.034384 2.905506 -3.067722
v 0.009384 1.551437 -3.844526
v -0.020553 2.161095 -4.508314
v 0.059801 2.161084 -4.506890
v 0.047967 1.551433 -3.843814
v -0.032387 1.551443 -3.845237
v -0.054985 2.905422 -2.560567
v -0.071061 2.305371 -1.658042
v -0.058671 2.943787 -2.352406
v -0.070918 2.089628 -1.667719
v -0.045867 2.341331 -3.079045
v -0.062667 1.598292 -2.136748
v -0.058610 1.553903 -2.365946
v -0.045868 2.210302 -3.079869
v -0.085054 0.355062 -0.882721
v -0.094634 0.947714 -0.337995
v -0.053391 2.905422 -2.560567
v -0.071061 2.305371 -1.658042
v -0.058671 2.943787 -2.352406
v 0.066725 0.355043 -0.880033
v -0.094634 0.947714 -0.337995
v -0.085054 0.355062 -0.882721
v 0.057144 0.947695 -0.335302
v 0.080861 2.089609 -1.665029
v 0.093109 2.943767 -2.349715
v 0.080718 2.305349 -1.655352
v 0.096794 2.905403 -2.557876
v 0.066725 0.355043 -0.880033
v 0.057144 0.947695 -0.335302
v 0.089113 1.598274 -2.134057
v 0.105913 2.341312 -3.076354
v 0.093170 1.553884 -2.363256
v 0.105910 2.210283 -3.077178
v 0.028691 2.963246 -2.432332
v 0.063358 2.248197 -1.657139
v 0.058738 0.947695 -0.335302
v 0.004438 1.597564 -2.127418
v -0.058671 2.943787 -2.352406
v 0.096794 2.905403 -2.557876
v -0.054985 2.905422 -2.560567
v 0.093109 2.943767 -2.349715
v 0.093109 2.943767 -2.349715
v -0.071061 2.305371 -1.658042
v 0.080718 2.305349 -1.655352
v -0.058671 2.943787 -2.352406
v 0.080861 2.089609 -1.665029
v -0.071061 2.305371 -1.658042
v -0.070918 2.089628 -1.667719
v 0.080718 2.305349 -1.655352
v -0.069324 2.089628 -1.667719
v 0.080861 2.089609 -1.665029
v -0.094634 0.947714 -0.337995
v 0.057144 0.947695 -0.335302
v -0.070918 2.089628 -1.667719
v -0.062667 1.598292 -2.136748
v 0.066725 0.355043 -0.880033
v -0.085054 0.355062 -0.882721
v 0.089113 1.598274 -2.134057
v -0.058610 1.553903 -2.365946
v 0.089113 1.598274 -2.134057
v -0.062667 1.598292 -2.136748
v 0.093170 1.553884 -2.363256
v -0.045868 2.210302 -3.079869
v 0.093170 1.553884 -2.363256
v -0.058610 1.553903 -2.365946
v 0.105910 2.210283 -3.077178
v 0.105913 2.341312 -3.076354
v -0.045868 2.210302 -3.079869
v -0.045867 2.341331 -3.079045
v 0.105910 2.210283 -3.077178
v 0.096794 2.905403 -2.557876
v -0.045867 2.341331 -3.079045
v -0.054985 2.905422 -2.560567
v 0.105913 2.341312 -3.076354
v -0.106286 -0.692616 0.307438
v -0.174023 -3.311467 4.109562
v -0.115811 -0.103452 0.848964
v -0.169005 -3.621793 3.824329
v 0.043990 -0.692635 0.310102
v 0.034587 -0.103473 0.851603
v -0.018608 -3.621811 3.826966
v 0.035969 -0.103472 0.851654
v -0.106286 -0.692616 0.307438
v 0.045493 -0.692636 0.310129
v 0.037563 -0.103472 0.851654
v -0.104692 -0.692616 0.307438
v -0.115811 -0.103452 0.848964
v -0.022243 -3.311487 4.112251
v 0.045493 -0.692636 0.310129
v 0.035969 -0.103472 0.851654
v -0.017226 -3.621812 3.827019
v -0.104783 -0.692617 0.307464
v -0.112835 -0.103452 0.849018
v -0.172520 -3.311467 4.109588
v -0.166029 -3.621792 3.824382
v 0.035969 -0.103472 0.851654
v -0.174023 -3.311467 4.109562
v -0.022243 -3.311487 4.112251
v -0.115811 -0.103452 0.848964
v -0.106286 -0.692616 0.307438
v -0.017226 -3.621812 3.827019
v -0.169005 -3.621793 3.824329
v 0.045493 -0.692636 0.310129
v -0.108476 0.784301 0.442686
v -0.113865 0.469295 0.743222
v -0.101069 0.906811 0.024918
v -0.115735 0.046202 0.846021
v -0.093586 0.803991 -0.398114
v -0.113622 -0.371630 0.723530
v -0.088042 0.503405 -0.713065
v -0.108079 -0.672213 0.408587
v -0.086205 0.194102 -0.818935
v -0.100584 -0.775035 -0.014446
v -0.086368 -0.132748 -0.812005
v -0.094953 -0.697140 -0.331908
v -0.090130 -0.514813 -0.603218
v -0.091992 0.803991 -0.398114
v -0.114141 0.046202 0.846021
v -0.099475 0.906811 0.024918
v 0.040221 0.646573 0.616368
v 0.045068 0.828893 0.345063
v 0.037196 0.366981 0.785770
v 0.050700 0.906791 0.027605
v 0.036036 0.046179 0.848713
v 0.056384 0.843837 -0.293140
v 0.038157 -0.371643 0.726223
v 0.061318 0.674405 -0.572689
v 0.043701 -0.672235 0.411268
v 0.064515 0.403054 -0.754982
v 0.065849 0.085556 -0.832866
v 0.051186 -0.775054 -0.011758
v 0.064696 -0.235246 -0.769924
v 0.056825 -0.697159 -0.329215
v 0.061665 -0.514829 -0.600533
v -0.097035 -0.771940 -0.125077
v -0.085695 -0.353392 -0.761798
v 0.066870 0.421971 -0.797783
v -0.086607 0.321340 -0.795415
v -0.093871 0.842785 -0.381760
v 0.050214 0.951251 0.145620
v -0.106806 0.841436 0.347913
v -0.114268 0.272328 0.854623
v 0.037716 0.269479 0.845658
v -0.109513 -0.584360 0.580084
v 0.106841 -3.286580 3.773089
v 0.089770 -4.166208 4.729803
v 0.103681 -3.091072 3.952784
v 0.100564 -3.251703 4.127489
v 0.087873 -2.113209 4.851575
v 0.070902 -2.515074 5.806120
v 0.071002 -2.037308 5.803949
v 0.089467 -2.113209 4.851575
v 0.072596 -2.037308 5.803949
v 0.091364 -4.166208 4.729803
v 0.108435 -3.286580 3.773089
v 0.103593 -3.159168 4.047190
v 0.087873 -2.113209 4.851575
v 0.071002 -2.037308 5.803949
v -0.508349 -2.113137 4.841005
v -0.525223 -2.037233 5.793380
v -0.506755 -2.113136 4.841005
v 0.091364 -4.166208 4.729803
v -0.487787 -3.286504 3.762520
v 0.106841 -3.286580 3.773089
v 0.089770 -4.166208 4.729803
v -0.489381 -3.286504 3.762520
v -0.506455 -4.166132 4.719235
v -0.487787 -3.286504 3.762520
v -0.506455 -4.166132 4.719235
v 0.106885 -3.642713 3.768096
v 0.089770 -4.166208 4.729803
v 0.110002 -3.482086 3.593392
v 0.106841 -3.286580 3.773089
v 0.125609 -5.415480 2.698943
v 0.117173 -5.377527 3.175131
v 0.125809 -4.459946 2.694602
v 0.125809 -4.459946 2.694602
v 0.125609 -5.415480 2.698943
v 0.106885 -3.642713 3.768096
v 0.111596 -3.482086 3.593392
v 0.103681 -3.091072 3.952784
v -0.492542 -3.090998 3.942216
v 0.106841 -3.286580 3.773089
v -0.489381 -3.286504 3.762520
v 0.102158 -3.251703 4.127489
v -0.490948 -3.090998 3.942216
v -0.495660 -3.251626 4.116921
v 0.103681 -3.091072 3.952784
v 0.100564 -3.251703 4.127489
v -0.492542 -3.090998 3.942216
v -0.495660 -3.251626 4.116921
v 0.100564 -3.251703 4.127489
v 0.087873 -2.113209 4.851575
v -0.495660 -3.251626 4.116921
v -0.508349 -2.113137 4.841005
v 0.110002 -3.482086 3.593392
v 0.106841 -3.286580 3.773089
v -0.486221 -3.482009 3.582823
v -0.489381 -3.286504 3.762520
v -0.470615 -5.415403 2.688374
v -0.470414 -4.459869 2.684033
v 0.106885 -3.642713 3.768096
v -0.489339 -3.642637 3.757527
v 0.125809 -4.459946 2.694602
v -0.470414 -4.459869 2.684033
v -0.487745 -3.642637 3.757527
v 0.110002 -3.482086 3.593392
v -0.486221 -3.482009 3.582823
v 0.106885 -3.642713 3.768096
v -0.489339 -3.642637 3.757527
v 0.125609 -5.415480 2.698943
v -0.470615 -5.415403 2.688374
v 0.117173 -5.377527 3.175131
v -0.479050 -5.377451 3.164561
v 0.117173 -5.377527 3.175131
v -0.479050 -5.377451 3.164561
v 0.089770 -4.166208 4.729803
v -0.506455 -4.166132 4.719235
v 0.070902 -2.515074 5.806120
v 0.089770 -4.166208 4.729803
v -0.525322 -2.515000 5.795551
v -0.506455 -4.166132 4.719235
v 0.070902 -2.515074 5.806120
v -0.525322 -2.515000 5.795551
v 0.071002 -2.037308 5.803949
v -0.525223 -2.037233 5.793380
v -0.508349 -2.113137 4.841005
v -0.525322 -2.515000 5.795551
v -0.525223 -2.037233 5.793380
v -0.506455 -4.166132 4.719235
v -0.495660 -3.251626 4.116921
v -0.492542 -3.090998 3.942216
v -0.489381 -3.286504 3.762520
v -0.486221 -3.482009 3.582823
v -0.506455 -4.166132 4.719235
v -0.489381 -3.286504 3.762520
v -0.489339 -3.642637 3.757527
v -0.479050 -5.377451 3.164561
v -0.470414 -4.459869 2.684033
v -0.470615 -5.415403 2.688374
v -0.033315 1.643999 -3.792186
v -0.073861 0.976675 -1.509733
v -0.072080 1.075571 -1.609487
v -0.032386 1.551435 -3.845237
v -0.080901 1.608853 -1.107873
v -0.082776 1.518671 -1.002859
v -0.067516 3.725466 -1.847765
v -0.068432 3.760366 -1.795775
v -0.054777 -0.172184 -0.244218
v -0.054644 0.133578 -0.235617
v -0.051234 -0.394470 -0.034125
v -0.051642 0.317163 -0.058297
v -0.048296 0.364413 0.140215
v -0.041819 -0.040779 0.523160
v -0.042640 0.157761 0.475913
v -0.042822 -0.236341 0.464825
v -0.044991 0.306064 0.335752
v -0.046078 -0.403078 0.271591
v -0.048296 0.364413 0.140215
v -0.051234 -0.394470 -0.034125
v -0.042321 0.150011 0.494056
v -0.054723 0.121136 -0.240572
v -0.053516 -0.336109 -0.169140
v -0.051250 0.353002 -0.034836
v -0.055349 -0.033682 -0.277632
v -0.049647 -0.460064 0.060102
v -0.053391 2.905422 -2.560567
v -0.069324 2.089628 -1.667719
v -0.071061 2.305371 -1.658042
v 0.035969 -0.103472 0.851654
v -0.106286 -0.692616 0.307438
v -0.115811 -0.103452 0.848964
v -0.022243 -3.311487 4.112251
v -0.017226 -3.621812 3.827019
v -0.174023 -3.311467 4.109562
v -0.169005 -3.621793 3.824329
v 0.091364 -4.166208 4.729803
v 0.108435 -3.286580 3.773089
v 0.106841 -3.286580 3.773089
v 0.089770 -4.166208 4.729803
v -0.489381 -3.286504 3.762520
v -0.487787 -3.286504 3.762520
v 0.125609 -5.415480 2.698943
v 0.111596 -3.482086 3.593392
v 0.117173 -5.377527 3.175131
v 0.125609 -5.415480 2.698943
v 0.125809 -4.459946 2.694602
v -0.470615 -5.415403 2.688374
v -0.470414 -4.459869 2.684033
v -0.490948 -3.090998 3.942216
v -0.504861 -4.166132 4.719235
v -0.494066 -3.251626 4.116921
v -0.487745 -3.642637 3.757527
v -0.504861 -4.166132 4.719235
v -0.484627 -3.482009 3.582823
v -0.048296 0.364413 0.140215
v -0.051234 -0.394470 -0.034125
v -0.051642 0.317163 -0.058297
v -0.054644 0.133578 -0.235617
v -0.054777 -0.172184 -0.244218
v -0.017226 -3.621812 3.827019
v -0.174023 -3.311467 4.109562
v -0.169005 -3.621793 3.824329
v -0.022243 -3.311487 4.112251
v -0.487787 -3.286504 3.762520
v -0.484627 -3.482009 3.582823
vn -0.9998 0.0001 -0.0177
vn -0.9998 0.0001 -0.0178
vn 0.0015 0.9968 -0.0794
vn -0.0110 -0.7889 0.6145
vn -0.0149 -0.5461 0.8376
vn -0.0177 0.0045 0.9998
vn -0.0603 -0.8377 0.5428
vn -0.0179 -0.6776 0.7352
vn -0.0696 -0.8385 0.5405
vn -0.0084 -0.6759 0.7369
vn 0.0349 -0.4716 0.8811
vn 0.0443 -0.4693 0.8819
vn 0.9226 -0.1791 0.3418
vn 0.9923 0.0987 -0.0748
vn 0.9984 0.0557 0.0108
vn 0.9987 -0.0385 0.0330
vn -0.0154 -0.4973 0.8674
vn -0.9983 0.0382 -0.0442
vn 1.0000 -0.0060 -0.0071
vn 0.9992 0.0197 0.0359
vn -0.0119 0.7362 0.6767
vn 0.0102 0.8203 -0.5719
vn 0.0103 0.8203 -0.5719
vn 0.0100 0.8303 -0.5572
vn 0.0154 0.5056 -0.8626
vn 0.0154 0.4973 -0.8674
vn -0.0123 0.7129 0.7012
vn -0.0112 0.7684 0.6398
vn -0.9756 0.1494 -0.1611
vn 0.8783 0.3407 -0.3354
vn -0.9321 0.2813 -0.2284
vn -0.8607 0.4302 -0.2722
vn -0.8779 -0.2764 0.3910
vn -0.8310 -0.2935 0.4726
vn 0.9998 -0.0001 0.0177
vn 0.8343 0.3431 -0.4315
vn -0.0131 -0.6768 0.7361
vn -0.0150 -0.5367 0.8436
vn -0.0108 -0.7957 0.6056
vn -0.9998 0.0001 -0.0176
vn -0.9998 0.0002 -0.0177
vn 0.0131 0.6768 -0.7361
vn -0.9997 -0.0225 0.0060
vn -0.9997 -0.0234 0.0069
vn -0.9973 -0.0586 0.0435
vn -0.9973 -0.0585 0.0435
vn 0.0033 0.9834 -0.1812
vn 0.0177 0.0448 -0.9988
vn -0.0114 0.7587 0.6513
vn -0.0115 0.7587 0.6513
vn -0.0124 0.7102 0.7039
vn 0.0035 0.9818 -0.1901
vn 0.0177 0.0063 -0.9998
vn -0.0836 -0.9945 -0.0629
vn -0.5759 -0.0822 -0.8134
vn 0.6067 0.0582 -0.7928
vn 0.2185 0.7331 0.6440
vn -0.6521 0.5436 0.5285
vn 0.9621 0.1770 0.2077
vn 0.8912 -0.4504 -0.0532
vn -0.9996 -0.0197 -0.0200
vn 0.2647 0.9504 -0.1635
vn -0.0343 -0.9915 0.1258
vn -0.9998 -0.0000 -0.0179
vn 0.5346 -0.8446 0.0289
vn 0.1870 -0.7795 0.5978
vn 0.0154 -0.9441 -0.3294
vn -0.3992 -0.9155 -0.0500
vn 0.5505 -0.6565 0.5158
vn -0.6551 -0.5032 0.5636
vn 0.4509 -0.7282 -0.5161
vn 0.2235 -0.4422 -0.8686
vn 0.6433 -0.5204 -0.5616
vn -0.3951 -0.3081 -0.8654
vn 0.9973 -0.0108 -0.0728
vn 0.5375 0.3637 -0.7608
vn -0.6747 0.1284 -0.7268
vn -0.3638 0.8177 -0.4462
vn 0.4495 0.8848 0.1228
vn -0.5277 0.6689 0.5235
vn -0.5860 0.1973 0.7859
vn 0.6234 0.1926 0.7578
vn 0.5455 -0.3903 0.7417
vn -0.0042 -0.2264 0.9740
vn 0.8006 -0.1251 0.5860
vn -0.5014 -0.6718 0.5452
vn 0.6076 -0.7912 0.0694
vn 0.4619 -0.3117 0.8304
vn -0.4772 0.1471 0.8664
vn 0.5763 0.5181 0.6320
vn -0.6046 0.6846 0.4071
vn 0.1277 0.9909 -0.0416
vn 0.6220 0.4299 -0.6545
vn -0.5724 0.6373 -0.5160
vn -0.0928 -0.1211 -0.9883
vn -0.6003 -0.7855 -0.1505
vn 0.9998 -0.0020 0.0196
vn 0.0639 -0.5264 -0.8478
vn -0.9999 0.0024 -0.0150
vn -0.9998 0.0002 -0.0176
vn -0.9998 0.0003 -0.0176
vn 0.9998 -0.0002 0.0177
vn 0.9998 -0.0002 0.0175
vn 0.9998 -0.0003 0.0179
vn 0.9998 -0.0002 0.0178
vn 0.9998 -0.0000 0.0178
vn 0.9998 -0.0002 0.0179
vn -0.6150 0.5862 -0.5274
vn -0.6083 -0.7341 -0.3017
vn -0.5983 -0.1897 0.7785
vn -0.6022 -0.6739 0.4281
vn -0.6389 -0.1375 0.7569
vn -0.6130 0.7141 0.3381
vn -0.6057 -0.1939 0.7717
vn -0.5969 0.7999 -0.0620
vn -0.6253 -0.2590 -0.7361
vn -0.6144 -0.2319 -0.7542
vn -0.6042 0.6357 0.4804
vn -0.9999 -0.0000 0.0169
vn -0.9999 -0.0000 0.0168
vn -0.9999 -0.0000 0.0173
vn -0.6070 0.7203 -0.3358
vn -0.6139 -0.1771 -0.7693
vn -0.6000 -0.1600 0.7839
vn -0.6042 0.6358 0.4804
vn -0.6083 -0.7916 0.0580
vn -0.9987 0.0099 -0.0507
vn -0.9981 0.0236 -0.0577
vn -0.9991 -0.0058 -0.0426
vn -0.3684 -0.7696 0.5215
vn -0.0100 -0.8303 0.5572
vn -0.9997 -0.0126 0.0224
vn -0.9998 0.0200 0.0005
vn -0.9992 -0.0193 -0.0356
vn 0.9999 -0.0011 0.0166
vn 0.9998 0.0018 0.0200
vn 0.9999 -0.0013 0.0163
vn 0.9998 0.0021 0.0204
vn 0.0321 0.9989 -0.0346
vn 0.0119 -0.7362 -0.6767
vn -0.0160 -0.4420 0.8969
vn -0.0160 -0.4418 0.8970
vn -0.0139 -0.6267 0.7791
vn 0.0076 0.9068 -0.4214
vn -0.0178 -0.0438 0.9989
vn -0.0119 0.7362 0.6766
vn -0.9998 -0.0007 -0.0184
vn -0.9998 0.0018 -0.0186
vn -0.9997 -0.0068 -0.0241
vn -0.6729 0.5285 0.5176
vn -0.9911 -0.1319 -0.0178
vn -0.1539 0.4653 -0.8717
vn -0.9945 -0.0071 -0.1049
vn -0.6753 0.1328 -0.7255
vn -0.3626 0.8172 -0.4479
vn -0.2718 0.9554 0.1154
vn -0.5259 0.6723 0.5210
vn -0.7939 0.4377 0.4221
vn 0.0546 0.7174 0.6945
vn -0.9999 0.0002 -0.0134
vn -0.9998 0.0023 -0.0182
vn 0.0130 0.6768 -0.7361
vn -0.6228 0.5166 -0.5876
vn -0.6066 -0.7375 -0.2968
vn -0.6060 0.2553 0.7534
vn -0.6026 0.7712 0.2049
vn -0.6245 -0.0340 -0.7803
vn -0.5979 -0.7370 0.3151
vn -0.9997 -0.0070 -0.0242
vt 0.000000 0.000000
vt 0.667772 -0.087489
vt 0.538328 -0.087489
vt 0.538328 0.074803
vt 0.667772 0.074803
vt 0.867874 -0.087489
vt 0.333854 0.074803
vt 0.333854 -0.087489
vt 0.867874 0.074803
vt 0.426001 0.074803
vt -0.108019 -0.087489
vt 0.426001 -0.087489
vt -0.108019 0.074803
vt 0.026456 -0.087489
vt -0.102987 0.074803
vt -0.102987 -0.087489
vt 0.026456 0.074803
vt -2.641686 0.646631
vt -2.641686 -2.487042
vt -2.148260 0.646631
vt -2.148260 0.074395
vt 0.319718 0.646631
vt 0.970516 -1.703624
vt 1.621314 -0.920206
vt -6.904686 -0.920206
vt -6.253888 -1.703624
vt -5.603090 0.646631
vt -3.135113 0.074395
vt -3.135113 0.646631
vt 0.478217 -2.212153
vt 0.478456 -2.162539
vt 0.365086 -2.181035
vt 0.385595 0.691932
vt 0.378744 0.541870
vt 0.455233 0.793690
vt 0.455621 0.690841
vt 0.461744 0.541870
vt 0.366230 0.786201
vt 0.366230 0.703727
vt 0.376233 0.793690
vt 0.483600 0.548272
vt 0.566600 0.548272
vt 0.483600 0.541870
vt 0.566600 0.541870
vt 0.432121 0.160309
vt 0.474121 0.160309
vt 0.409796 0.546302
vt 0.489535 0.546302
vt -0.079739 0.006402
vt -0.079739 0.000000
vt 0.000000 0.006402
vt 0.351071 0.632511
vt 0.355201 0.601049
vt 0.367141 0.672093
vt 0.374835 0.573985
vt 0.393328 0.694953
vt 0.416408 0.550763
vt 0.428610 0.706431
vt 0.466297 0.548029
vt 0.478500 0.703698
vt 0.511141 0.566518
vt 0.538917 0.601274
vt 0.520072 0.680475
vt 0.542187 0.642984
vt 0.589050 -2.181035
vt 0.589050 -2.232252
vt 0.365086 -2.231463
vt 0.456660 -1.200556
vt 0.474099 -1.291596
vt 0.474099 -1.211381
vt 0.457048 -1.303405
vt 0.377660 -1.200556
vt 0.387022 -1.302314
vt 0.367657 -1.290519
vt 0.367657 -1.208044
vt 0.380172 -1.452376
vt 0.463172 -1.452376
vt 0.472672 0.782865
vt 0.472672 0.702650
vt -0.886110 2.223192
vt -0.886110 2.210226
vt -0.969110 2.210226
vt -0.969110 2.223192
vt 0.409626 -2.459666
vt 0.473951 -2.845658
vt 0.489365 -2.459666
vt 0.431951 -2.845658
vt 0.409626 1.292206
vt 0.489365 1.305080
vt 0.409626 1.305080
vt 0.538565 -2.397594
vt 0.541836 -2.355884
vt 0.519721 -2.318393
vt 0.510789 -2.432350
vt 0.478149 -2.295170
vt 0.465946 -2.450839
vt 0.428259 -2.292437
vt 0.416057 -2.448105
vt 0.392976 -2.303915
vt 0.374483 -2.424882
vt 0.366790 -2.326775
vt 0.354850 -2.397819
vt 0.350720 -2.366356
vt 0.489365 1.292206
vt 0.015414 0.006402
vt 0.015414 0.000000
vt 0.057414 0.006402
vt 0.057414 0.000000
vt -0.822505 1.305080
vt -0.864505 1.292206
vt -0.822505 1.292206
vt -0.864505 1.305080
s 1
usemtl material_0.002
f 344/1/1 341/1/1 342/1/1
f 344/1/1 343/1/1 341/1/1
f 337/1/1 339/1/1 338/1/1
f 338/1/1 340/1/2 337/1/1
f 363/1/108 365/1/109 359/1/110
f 357/1/111 352/1/112 353/1/113
f 353/1/114 354/1/115 355/1/116
f 356/1/117 357/1/111 353/1/113
f 359/1/110 361/1/118 363/1/108
f 346/1/119 345/1/119 347/1/119
f 346/1/119 347/1/119 348/1/119
f 348/1/119 347/1/119 349/1/119
f 348/1/119 349/1/119 350/1/120
f 350/1/120 349/1/119 351/1/121
f 362/1/122 364/1/123 358/1/124
f 358/1/124 360/1/125 362/1/122
f 364/1/123 366/1/126 358/1/124
f 642/1/2 643/1/1 644/1/1
f 645/1/1 644/1/1 643/1/1
f 651/1/121 652/1/120 653/1/119
f 652/1/120 654/1/119 653/1/119
f 653/1/119 654/1/119 655/1/119
f 654/1/119 656/1/119 655/1/119
f 655/1/119 656/1/119 657/1/119
f 659/1/163 660/1/164 658/1/165
f 661/1/166 662/1/167 663/1/168
f 647/1/119 646/1/120 648/1/119
f 647/1/119 648/1/119 649/1/119
f 649/1/119 648/1/119 650/1/119
f 693/1/119 695/1/119 694/1/119
f 695/1/119 696/1/119 694/1/119
f 694/1/119 696/1/119 697/1/120
usemtl Metal_Aluminum_Anodized.002
f 282/2/3 284/3/3 283/4/3
f 283/4/3 285/5/3 282/2/3
f 288/6/4 289/7/4 290/8/4
f 289/7/4 288/6/4 291/9/4
f 294/10/5 295/11/5 296/12/5
f 295/11/5 294/10/5 297/13/5
f 300/14/6 301/15/6 302/16/6
f 301/15/6 300/14/6 303/17/6
f 286/1/7 292/1/8 287/1/9
f 293/1/10 298/1/11 292/1/8
f 286/1/7 293/1/10 292/1/8
f 293/1/10 299/1/12 298/1/11
f 608/1/3 609/1/3 610/1/3
f 611/1/3 610/1/3 609/1/3
f 612/1/4 614/1/4 613/1/4
f 615/1/4 613/1/4 614/1/4
f 616/1/5 618/1/5 617/1/5
f 619/1/5 617/1/5 618/1/5
f 620/1/6 622/1/6 621/1/6
f 623/1/6 621/1/6 622/1/6
usemtl __Fencing_Metal_Straight_4.002
f 304/18/1 306/19/1 305/20/1
f 307/21/1 306/19/1 308/22/1
f 306/19/1 309/23/1 308/22/1
f 310/24/1 308/22/1 309/23/1
f 318/25/1 320/26/1 319/27/1
f 319/27/1 320/26/1 321/28/1
f 322/19/1 321/28/1 320/26/1
f 324/18/1 323/29/1 322/19/1
f 311/1/1 327/1/1 325/1/1
f 311/1/1 314/1/1 316/1/1
f 325/1/1 326/1/1 311/1/1
f 327/1/1 328/1/1 325/1/1
f 311/1/1 312/1/1 327/1/1
f 317/1/1 312/1/1 311/1/1
f 311/1/1 313/1/1 314/1/1
f 314/1/1 315/1/1 316/1/1
f 316/1/1 317/1/1 311/1/1
f 624/22/1 625/23/1 626/24/1
f 625/23/1 624/22/1 627/19/1
f 627/19/1 624/22/1 628/21/1
f 627/19/1 628/21/1 629/20/1
f 627/19/1 629/20/1 630/18/1
f 631/29/1 632/19/1 633/18/1
f 632/19/1 631/29/1 634/28/1
f 634/28/1 635/26/1 632/19/1
f 635/26/1 634/28/1 636/27/1
f 635/26/1 636/27/1 637/25/1
f 687/20/1 688/19/1 689/21/1
f 690/28/1 691/19/1 692/29/1
usemtl material.002
f 32/1/13 26/1/14 18/1/15
f 42/1/16 32/1/13 31/1/17
f 31/1/18 18/1/15 26/1/14
f 32/1/13 42/1/16 37/1/19
f 18/1/15 21/1/20 32/1/13
f 32/1/13 37/1/19 26/1/14
f 16/1/21 19/1/21 17/1/21
f 20/1/21 17/1/21 19/1/21
f 22/1/22 24/1/23 23/1/22
f 25/1/23 23/1/22 24/1/23
f 27/1/24 28/1/24 29/1/24
f 30/1/24 29/1/24 28/1/24
f 33/1/25 35/1/25 34/1/25
f 36/1/25 34/1/25 35/1/25
f 38/1/26 39/1/26 40/1/26
f 41/1/26 40/1/26 39/1/26
f 43/1/21 44/1/21 45/1/21
f 46/1/21 45/1/21 44/1/21
f 135/1/1 136/1/1 137/1/1
f 138/1/1 137/1/1 136/1/1
f 139/1/27 141/1/27 140/1/27
f 142/1/27 140/1/27 141/1/27
f 143/1/28 144/1/28 145/1/28
f 146/1/28 145/1/28 144/1/28
f 239/1/29 234/1/30 256/1/31
f 234/1/30 243/1/32 256/1/31
f 232/1/33 230/1/34 256/1/31
f 232/1/35 234/1/30 230/1/35
f 277/1/21 251/1/21 268/1/21
f 239/1/29 229/1/36 234/1/30
f 232/1/1 231/1/1 230/1/1
f 256/1/31 243/1/32 232/1/33
f 230/1/34 239/1/29 256/1/31
f 232/1/35 233/1/35 234/1/30
f 234/1/30 229/1/36 230/1/35
f 222/1/1 224/1/1 223/1/1
f 223/1/1 225/1/1 222/1/1
f 223/1/1 226/1/1 225/1/1
f 226/1/1 227/1/1 225/1/1
f 227/1/1 228/1/1 225/1/1
f 235/1/3 236/1/3 237/1/3
f 236/1/3 235/1/3 238/1/3
f 240/1/21 241/1/21 242/1/21
f 244/1/1 246/1/1 245/1/1
f 245/1/1 247/1/1 244/1/1
f 247/1/1 248/1/1 244/1/1
f 246/1/1 250/1/1 249/1/1
f 249/1/1 245/1/1 246/1/1
f 252/1/37 254/1/37 253/1/37
f 253/1/37 255/1/37 252/1/37
f 258/1/21 257/1/21 259/1/21
f 260/1/38 262/1/38 261/1/38
f 261/1/38 263/1/38 260/1/38
f 264/1/37 266/1/37 265/1/37
f 265/1/37 267/1/37 264/1/37
f 269/1/6 271/1/6 270/1/6
f 270/1/6 272/1/6 269/1/6
f 273/1/39 275/1/39 274/1/39
f 274/1/39 276/1/39 273/1/39
f 278/1/21 280/1/21 279/1/21
f 279/1/21 281/1/21 278/1/21
f 334/1/35 336/1/35 335/1/35
f 334/1/35 333/1/35 336/1/35
f 329/1/1 331/1/1 330/1/1
f 332/1/1 330/1/1 331/1/1
f 373/1/21 376/1/21 377/1/21
f 376/1/21 373/1/21 374/1/21
f 379/1/22 380/1/23 381/1/23
f 380/1/23 379/1/22 382/1/22
f 384/1/24 386/1/24 385/1/24
f 385/1/24 387/1/24 384/1/24
f 390/1/25 391/1/25 392/1/25
f 391/1/25 390/1/25 393/1/25
f 395/1/26 397/1/26 396/1/26
f 396/1/26 398/1/26 395/1/26
f 400/1/21 403/1/21 402/1/21
f 402/1/21 401/1/21 400/1/21
f 388/1/127 383/1/128 394/1/129
f 388/1/130 389/1/131 378/1/132
f 388/1/130 378/1/132 375/1/133
f 394/1/129 399/1/134 388/1/127
f 485/1/1 487/1/1 486/1/1
f 486/1/1 488/1/1 485/1/1
f 493/1/27 494/1/27 495/1/27
f 494/1/27 493/1/27 496/1/27
f 497/1/28 499/1/28 498/1/28
f 498/1/28 500/1/28 497/1/28
f 490/1/135 492/1/136 489/1/137
f 490/1/135 491/1/138 492/1/136
f 542/1/1 543/1/1 544/1/1
f 544/1/1 543/1/1 545/1/1
f 545/1/1 543/1/1 546/1/1
f 543/1/1 547/1/1 546/1/1
f 548/1/1 546/1/1 547/1/1
f 554/1/3 556/1/3 555/1/3
f 557/1/3 555/1/3 556/1/3
f 564/1/21 562/1/21 563/1/21
f 567/1/1 568/1/1 569/1/1
f 570/1/1 569/1/1 568/1/1
f 571/1/1 572/1/1 573/1/1
f 573/1/1 572/1/1 567/1/1
f 568/1/1 567/1/1 572/1/1
f 578/1/37 579/1/37 580/1/37
f 581/1/37 580/1/37 579/1/37
f 585/1/21 587/1/21 586/1/21
f 588/1/21 586/1/21 587/1/21
f 589/1/38 590/1/38 591/1/38
f 592/1/38 591/1/38 590/1/38
f 593/1/37 594/1/37 595/1/37
f 596/1/37 595/1/37 594/1/37
f 599/1/39 600/1/39 601/1/39
f 602/1/39 601/1/39 600/1/39
f 604/1/21 605/1/21 606/1/21
f 607/1/21 606/1/21 605/1/21
f 549/1/3 558/1/139 550/1/3
f 565/1/140 551/1/140 566/1/140
f 597/1/6 574/1/141 598/1/142
f 574/1/141 603/1/143 598/1/142
f 553/1/144 552/1/144 565/1/144
f 597/1/6 575/1/6 574/1/141
f 574/1/141 576/1/145 603/1/143
f 603/1/143 576/1/145 577/1/146
f 560/1/21 559/1/21 561/1/21
f 582/1/146 583/1/146 584/1/146
f 638/1/1 639/1/1 640/1/1
f 639/1/1 638/1/1 641/1/1
f 676/1/21 678/1/21 677/1/21
f 683/1/6 684/1/6 685/1/6
f 686/1/6 685/1/6 684/1/6
f 679/1/140 675/1/140 674/1/140
usemtl material_36.002
f 2/30/1 1/31/1 3/32/1
f 10/1/35 12/1/35 11/1/35
f 10/1/35 15/1/35 14/1/35
f 14/1/35 13/1/35 12/1/35
f 10/1/35 14/1/35 12/1/35
f 5/1/40 6/1/1 4/1/40
f 4/1/40 6/1/1 7/1/41
f 6/1/1 8/1/1 7/1/41
f 8/1/1 9/1/1 7/1/41
f 368/65/147 367/31/147 369/66/147
f 369/66/147 367/31/147 370/30/147
f 370/30/148 371/32/148 372/67/148
usemtl material_34.002
f 47/33/1 49/34/1 48/35/1
f 48/35/1 49/34/1 50/36/1
f 51/37/1 50/36/1 49/34/1
f 52/38/1 54/39/1 53/40/1
f 54/39/1 47/33/1 53/40/1
f 48/35/1 53/40/1 47/33/1
f 65/41/42 66/42/42 67/43/42
f 68/44/42 67/43/42 66/42/42
f 55/1/1 60/1/43 63/1/44
f 64/1/1 56/1/1 55/1/1
f 55/1/1 57/1/1 58/1/1
f 58/1/1 59/1/1 60/1/43
f 60/1/43 61/1/45 62/1/46
f 63/1/44 64/1/1 55/1/1
f 60/1/43 62/1/46 63/1/44
f 55/1/1 58/1/1 60/1/43
f 404/68/1 405/69/1 406/70/1
f 405/69/1 404/68/1 407/71/1
f 408/72/1 409/73/1 404/68/1
f 409/73/1 408/72/1 410/74/1
f 410/74/1 408/72/1 411/75/1
f 407/71/1 412/76/1 413/77/1
f 412/76/1 407/71/1 404/68/1
f 412/76/1 404/68/1 409/73/1
f 416/78/149 414/35/149 415/79/149
f 417/80/42 419/81/42 418/82/42
f 418/82/42 420/83/42 417/80/42
f 665/36/169 666/79/169 664/35/169
usemtl __Color_000_6.002
f 69/1/1 70/1/1 71/1/1
f 70/1/1 72/1/1 71/1/1
f 73/1/1 71/1/1 72/1/1
f 72/1/1 74/1/1 73/1/1
f 73/1/1 74/1/1 75/1/1
f 76/1/1 75/1/1 74/1/1
f 73/1/1 75/1/1 77/1/1
f 78/1/1 77/1/1 75/1/1
f 86/1/47 88/1/47 87/1/47
f 89/1/47 87/1/47 88/1/47
f 90/1/21 92/1/21 91/1/21
f 93/1/21 91/1/21 92/1/21
f 94/1/48 95/1/48 96/1/48
f 97/1/48 96/1/48 95/1/48
f 99/1/49 101/1/50 100/1/49
f 102/1/50 100/1/49 101/1/50
f 104/1/51 105/1/51 106/1/51
f 107/1/51 106/1/51 105/1/51
f 108/1/52 109/1/52 110/1/52
f 111/1/52 110/1/52 109/1/52
f 112/1/21 113/1/21 114/1/21
f 115/1/21 114/1/21 113/1/21
f 117/1/53 119/1/53 118/1/53
f 120/1/53 118/1/53 119/1/53
f 121/1/42 123/1/42 122/1/42
f 124/1/42 122/1/42 123/1/42
f 84/1/54 116/1/55 85/1/56
f 81/1/57 98/1/58 103/1/50
f 80/1/59 83/1/60 85/1/56
f 98/1/61 116/1/55 83/1/60
f 85/1/56 116/1/55 79/1/62
f 81/1/57 80/1/59 98/1/58
f 80/1/59 81/1/57 82/1/63
f 83/1/60 84/1/54 85/1/56
f 80/1/59 82/1/63 83/1/60
f 85/1/56 79/1/62 80/1/59
f 83/1/60 82/1/63 81/1/57
f 116/1/55 84/1/54 83/1/60
f 98/1/61 79/1/62 116/1/55
f 173/1/2 174/1/1 175/1/1
f 174/1/1 176/1/1 175/1/1
f 175/1/1 176/1/1 177/1/1
f 176/1/1 178/1/1 177/1/1
f 177/1/1 178/1/1 179/1/1
f 179/1/1 178/1/1 180/1/1
f 178/1/1 181/1/1 180/1/1
f 180/1/1 181/1/1 182/1/1
f 181/1/1 183/1/1 182/1/1
f 182/1/1 183/1/1 184/1/1
f 183/1/1 185/1/1 184/1/1
f 184/1/1 185/1/1 186/1/1
f 185/1/1 187/1/64 186/1/1
f 195/1/65 218/1/66 196/1/67
f 197/1/68 219/1/69 220/1/70
f 219/1/69 197/1/68 199/1/71
f 200/1/72 195/1/65 196/1/67
f 195/1/65 200/1/72 201/1/73
f 197/1/68 202/1/74 199/1/71
f 201/1/73 200/1/72 203/1/75
f 204/1/76 199/1/71 202/1/74
f 205/1/77 204/1/76 202/1/74
f 207/1/78 204/1/76 205/1/77
f 204/1/76 207/1/78 209/1/79
f 210/1/80 209/1/79 207/1/78
f 210/1/80 214/1/81 209/1/79
f 215/1/82 209/1/79 214/1/81
f 217/1/83 212/1/84 218/1/66
f 212/1/84 217/1/83 213/1/85
f 215/1/82 214/1/81 219/1/69
f 220/1/70 219/1/69 214/1/81
f 218/1/66 195/1/65 217/1/83
f 221/1/86 188/1/87 194/1/88
f 194/1/88 216/1/89 221/1/86
f 193/1/90 211/1/91 216/1/89
f 192/1/92 211/1/91 193/1/90
f 191/1/93 206/1/94 192/1/92
f 191/1/93 190/1/95 206/1/94
f 191/1/93 193/1/90 188/1/87
f 216/1/89 206/1/94 198/1/96
f 203/1/75 208/1/97 217/1/83
f 204/1/76 209/1/79 219/1/69
f 214/1/81 205/1/77 197/1/68
f 221/1/86 198/1/96 188/1/87
f 194/1/88 193/1/90 216/1/89
f 189/1/98 188/1/87 198/1/96
f 189/1/98 190/1/95 191/1/93
f 188/1/87 189/1/98 191/1/93
f 191/1/93 192/1/92 193/1/90
f 193/1/90 194/1/88 188/1/87
f 211/1/91 192/1/92 206/1/94
f 190/1/95 189/1/98 198/1/96
f 198/1/96 221/1/86 216/1/89
f 216/1/89 211/1/91 206/1/94
f 206/1/94 190/1/95 198/1/96
f 195/1/65 201/1/73 203/1/75
f 217/1/83 195/1/65 203/1/75
f 208/1/97 213/1/85 217/1/83
f 219/1/69 199/1/71 204/1/76
f 209/1/79 215/1/82 219/1/69
f 214/1/81 210/1/80 207/1/78
f 197/1/68 220/1/70 214/1/81
f 214/1/81 207/1/78 205/1/77
f 205/1/77 202/1/74 197/1/68
f 421/1/1 423/1/1 422/1/1
f 422/1/1 424/1/1 421/1/1
f 425/1/1 426/1/1 421/1/1
f 421/1/1 424/1/1 425/1/1
f 424/1/1 427/1/1 425/1/1
f 427/1/1 424/1/1 428/1/1
f 428/1/1 429/1/1 427/1/1
f 428/1/1 430/1/1 429/1/1
f 435/1/47 436/1/47 437/1/47
f 436/1/47 435/1/47 438/1/47
f 439/1/21 440/1/21 441/1/21
f 440/1/21 439/1/21 442/1/21
f 443/1/48 445/1/48 444/1/48
f 444/1/48 446/1/48 443/1/48
f 448/1/49 449/1/50 450/1/50
f 449/1/50 448/1/49 451/1/49
f 452/1/51 454/1/51 453/1/51
f 453/1/51 455/1/51 452/1/51
f 456/1/52 458/1/52 457/1/52
f 457/1/52 459/1/52 456/1/52
f 460/1/21 462/1/21 461/1/21
f 461/1/21 463/1/21 460/1/21
f 464/1/53 465/1/53 466/1/53
f 465/1/53 464/1/53 467/1/53
f 468/1/42 469/1/42 470/1/42
f 469/1/42 468/1/42 471/1/42
f 447/1/150 432/1/150 431/1/150
f 434/1/151 433/1/151 447/1/151
f 518/1/1 519/1/1 517/1/64
f 518/1/1 520/1/1 519/1/1
f 520/1/1 521/1/1 519/1/1
f 520/1/1 522/1/1 521/1/1
f 522/1/1 523/1/1 521/1/1
f 522/1/1 524/1/1 523/1/1
f 524/1/1 525/1/1 523/1/1
f 524/1/1 526/1/1 525/1/1
f 526/1/1 527/1/1 525/1/1
f 527/1/1 528/1/1 525/1/1
f 527/1/1 529/1/1 528/1/1
f 529/1/1 530/1/1 528/1/1
f 529/1/1 531/1/2 530/1/1
f 534/1/152 533/1/153 535/1/154
f 534/1/152 535/1/154 536/1/155
f 536/1/155 537/1/156 534/1/152
f 537/1/156 536/1/155 538/1/157
f 537/1/156 539/1/158 540/1/159
f 539/1/158 537/1/156 538/1/157
f 539/1/158 535/1/154 532/1/160
f 539/1/158 538/1/157 536/1/155
f 532/1/160 541/1/161 539/1/158
f 539/1/158 536/1/155 535/1/154
f 535/1/154 533/1/153 532/1/160
usemtl material_35.002
f 125/45/1 127/46/1 126/47/1
f 128/48/1 126/47/1 127/46/1
f 132/49/42 134/50/42 133/51/42
f 129/1/99 130/1/99 131/1/99
f 147/52/100 148/53/41 149/54/1
f 148/53/41 150/55/1 149/54/1
f 149/54/1 150/55/1 151/56/1
f 150/55/1 152/57/1 151/56/1
f 151/56/1 152/57/1 153/58/1
f 152/57/1 154/59/1 153/58/1
f 153/58/1 154/59/1 155/60/1
f 154/59/1 156/61/1 155/60/1
f 156/61/1 158/62/1 157/63/41
f 157/63/41 158/62/1 159/64/101
f 169/1/35 165/1/35 160/1/35
f 161/1/102 172/1/102 171/1/35
f 160/1/35 161/1/102 171/1/35
f 171/1/35 170/1/103 169/1/35
f 169/1/35 168/1/104 167/1/105
f 167/1/105 166/1/102 165/1/35
f 165/1/35 164/1/106 163/1/35
f 163/1/35 162/1/107 160/1/35
f 160/1/35 171/1/35 169/1/35
f 169/1/35 167/1/105 165/1/35
f 165/1/35 163/1/35 160/1/35
f 472/84/1 473/85/1 474/86/1
f 473/85/1 472/84/1 475/87/1
f 480/88/42 479/89/42 481/90/42
f 484/1/162 482/51/162 483/50/162
f 477/1/100 476/1/100 478/1/100
f 502/91/1 501/92/101 503/93/1
f 502/91/1 503/93/1 504/94/1
f 504/94/1 503/93/1 505/95/1
f 504/94/1 505/95/1 506/96/1
f 506/96/1 505/95/1 507/97/1
f 506/96/1 507/97/1 508/98/1
f 508/98/1 507/97/1 509/99/1
f 508/98/1 509/99/1 510/100/1
f 510/100/1 509/99/1 511/101/1
f 510/100/1 511/101/1 512/102/41
f 512/102/41 511/101/1 513/103/100
f 514/60/1 515/61/1 516/63/1
f 667/89/42 668/88/42 669/104/42
f 670/105/37 672/106/37 671/107/37
f 673/108/37 671/107/37 672/106/37
f 698/109/37 699/110/37 700/111/37
f 699/110/37 698/109/37 701/112/37
l 675 681
l 674 682
l 680 682
l 702 703
