# Blender 4.3.2
# www.blender.org
mtllib martilloTrasero.mtl
o SketchUp.001
v 0.010216 0.113717 0.375607
v 0.010077 -0.080094 0.367455
v 0.009472 0.188701 0.331697
v 0.002845 0.392590 -0.060907
v -0.000537 0.349243 -0.261321
v -0.003437 0.048338 -0.433174
v -0.001737 -0.314832 -0.332365
v 0.000715 -0.395074 -0.187228
v 0.007647 -0.352722 0.223469
v 0.008084 -0.324223 0.249437
v 0.010158 0.022819 0.378938
v 0.008769 -0.270299 0.291491
v 0.008392 0.252653 0.267919
v 0.005461 0.359629 0.094144
v 0.005102 -0.401712 0.072712
v 0.002021 0.365373 -0.109831
v 0.000806 -0.382957 -0.181800
v -0.001014 0.268339 -0.289348
v -0.002743 -0.160669 -0.391895
v -0.002822 0.094541 -0.396304
v -0.234017 -2.866354 -5.662707
v -0.218335 -2.408441 -4.733723
v -0.234459 -2.389301 -5.688940
v -0.214223 -4.450570 -4.490137
v -0.204991 -3.501864 -3.943233
v -0.202208 -3.331131 -3.778382
v -0.198983 -3.515606 -3.587381
v -0.218335 -2.408441 -4.733723
v -0.234459 -2.389301 -5.688940
v -0.234017 -2.866354 -5.662707
v -0.214223 -4.450570 -4.490137
v -0.198983 -3.515606 -3.587381
v -0.204143 -3.436537 -3.893028
v -0.234459 -2.389301 -5.688940
v 0.377893 -2.408441 -4.743786
v 0.361770 -2.389301 -5.699005
v -0.218335 -2.408441 -4.733723
v 0.377893 -2.408441 -4.743786
v 0.397245 -3.515606 -3.597446
v -0.186810 -5.567306 -2.866188
v -0.198543 -3.870813 -3.561230
v -0.214223 -4.450570 -4.490137
v -0.179634 -4.622771 -2.441041
v -0.178748 -5.576875 -2.388579
v -0.195759 -3.700081 -3.396378
v -0.198983 -3.515606 -3.587381
v -0.179634 -4.622771 -2.441041
v -0.178748 -5.576875 -2.388579
v -0.198543 -3.870813 -3.561230
v -0.195759 -3.700081 -3.396378
v 0.394021 -3.331131 -3.788447
v -0.198983 -3.515606 -3.587381
v 0.397245 -3.515606 -3.597446
v -0.202208 -3.331131 -3.778382
v 0.436256 -3.393865 -3.862338
v -0.204991 -3.501864 -3.943233
v 0.394021 -3.331131 -3.788447
v 0.391239 -3.501864 -3.953299
v -0.202208 -3.331131 -3.778382
v -0.218335 -2.408441 -4.733723
v 0.391239 -3.501864 -3.953299
v 0.377893 -2.408441 -4.743786
v -0.204991 -3.501864 -3.943233
v -0.198983 -3.515606 -3.587381
v 0.400470 -3.700081 -3.406444
v 0.397245 -3.515606 -3.597446
v -0.195759 -3.700081 -3.396378
v 0.400470 -3.700081 -3.406444
v -0.179634 -4.622771 -2.441041
v 0.417482 -5.576875 -2.398644
v 0.416596 -4.622771 -2.451106
v -0.178748 -5.576875 -2.388579
v 0.417482 -5.576875 -2.398644
v 0.416596 -4.622771 -2.451106
v 0.397687 -3.870813 -3.571295
v -0.179634 -4.622771 -2.441041
v 0.416596 -4.622771 -2.451106
v -0.198543 -3.870813 -3.561230
v 0.397687 -3.870813 -3.571295
v 0.400470 -3.700081 -3.406444
v -0.198543 -3.870813 -3.561230
v 0.397687 -3.870813 -3.571295
v -0.195759 -3.700081 -3.396378
v -0.195759 -3.700081 -3.396378
v 0.400470 -3.700081 -3.406444
v -0.198543 -3.870813 -3.561230
v 0.417482 -5.576875 -2.398644
v -0.186810 -5.567306 -2.866188
v 0.409420 -5.567306 -2.876252
v -0.178748 -5.576875 -2.388579
v -0.178815 -5.676266 -2.392534
v 0.417443 -5.636044 -2.400999
v 0.409420 -5.567306 -2.876252
v -0.214223 -4.450570 -4.490136
v 0.382006 -4.450570 -4.500201
v -0.186810 -5.567306 -2.866188
v 0.382006 -4.450570 -4.500201
v -0.214223 -4.450570 -4.490136
v -0.214223 -4.450570 -4.490136
v 0.362212 -2.866354 -5.672772
v 0.382006 -4.450570 -4.500201
v -0.234017 -2.866354 -5.662707
v 0.360773 -2.393720 -5.758047
v -0.236134 -2.396724 -5.788116
v 0.362212 -2.866354 -5.672772
v -0.234459 -2.389301 -5.688940
v 0.361770 -2.389301 -5.699005
v -0.234017 -2.866354 -5.662707
v 0.397245 -3.515606 -3.597446
v 0.391238 -3.501864 -3.953299
v 0.382006 -4.450570 -4.500201
v 0.377894 -2.408441 -4.743786
v 0.362212 -2.866354 -5.672772
v 0.361770 -2.389301 -5.699005
v 0.394021 -3.331131 -3.788447
v 0.382006 -4.450570 -4.500201
v 0.400469 -3.700081 -3.406444
v 0.362212 -2.866354 -5.672772
v 0.361770 -2.389301 -5.699005
v 0.377894 -2.408441 -4.743786
v 0.391238 -3.501864 -3.953299
v 0.394021 -3.331131 -3.788447
v 0.416596 -4.622771 -2.451106
v 0.409420 -5.567306 -2.876252
v 0.397686 -3.870813 -3.571294
v 0.382006 -4.450570 -4.500201
v 0.400469 -3.700081 -3.406444
v 0.397245 -3.515606 -3.597446
v 0.417482 -5.576875 -2.398644
v 0.409420 -5.567306 -2.876252
v 0.397686 -3.870813 -3.571294
v 0.416596 -4.622771 -2.451106
v 0.199270 1.766536 3.720538
v 0.198281 1.855781 3.662079
v 0.160489 1.053918 1.423289
v 0.162072 1.158571 1.516989
v 0.198281 1.855781 3.662079
v 0.199270 1.766536 3.720538
v 0.160489 1.053918 1.423289
v 0.162072 1.158571 1.516989
v 0.151403 1.564818 0.885086
v 0.163426 3.817955 1.597347
v 0.162516 3.849703 1.543372
v 0.153083 1.661085 0.984554
v 0.153083 1.661085 0.984554
v 0.151403 1.564818 0.885086
v 0.163426 3.817955 1.597347
v 0.162516 3.849703 1.543372
v 0.209828 2.414541 4.346223
v 0.199269 1.766542 3.720539
v 0.184832 3.072077 2.865325
v 0.195184 3.711864 3.478598
v 0.162517 3.849701 1.543372
v 0.173243 4.507849 2.178849
v 0.173237 4.507846 2.178853
v 0.195184 3.711864 3.478598
v 0.209829 2.414543 4.346221
v 0.184832 3.072077 2.865325
v 0.162517 3.849701 1.543372
v 0.173243 4.507849 2.178849
v 0.092888 4.507849 2.180207
v 0.133065 4.507849 2.179528
v 0.162517 3.849701 1.543372
v 0.082162 3.849701 1.544728
v 0.122340 3.849701 1.544051
v 0.092888 4.507849 2.180207
v 0.173243 4.507849 2.178849
v 0.114829 3.711864 3.479955
v 0.195184 3.711864 3.478598
v 0.155007 3.711863 3.479278
v 0.082162 3.849701 1.544728
v 0.104477 3.072077 2.866681
v 0.162517 3.849701 1.543372
v 0.184832 3.072077 2.865325
v 0.184832 3.072077 2.865325
v 0.104477 3.072077 2.866681
v 0.129475 2.414543 4.347578
v 0.114829 3.711864 3.479955
v 0.209829 2.414543 4.346221
v 0.195184 3.711864 3.478598
v 0.169652 2.414543 4.346900
v 0.104477 3.072077 2.866681
v 0.118914 1.766542 3.721895
v 0.184832 3.072077 2.865325
v 0.199269 1.766542 3.720539
v 0.159092 1.766542 3.721217
v 0.129475 2.414543 4.347578
v 0.209829 2.414543 4.346221
v 0.118914 1.766542 3.721895
v 0.199269 1.766542 3.720539
v 0.170431 1.711722 2.012256
v 0.176261 3.041743 2.357641
v 0.150546 0.396121 0.834324
v 0.162035 2.174299 1.514845
v 0.140773 0.955336 0.255322
v 0.185709 2.378728 2.917351
v 0.185564 2.509477 2.908739
v 0.174338 1.681037 2.243692
v 0.176261 3.041743 2.357641
v 0.172715 3.067661 2.147564
v 0.185564 2.509477 2.908739
v 0.185709 2.378728 2.917351
v 0.174338 1.681037 2.243692
v 0.170431 1.711722 2.012256
v 0.001743 0.396121 0.836835
v -0.009504 0.955335 0.257856
v 0.162035 2.174299 1.514845
v 0.161654 2.389085 1.492364
v -0.011007 0.955336 0.257882
v -0.001233 0.396121 0.836885
v 0.140773 0.955336 0.255322
v 0.150546 0.396121 0.834324
v 0.033929 2.378728 2.919912
v 0.022558 1.681037 2.246254
v 0.033784 2.509477 2.911301
v 0.018650 1.711722 2.014820
v 0.024481 3.041743 2.360203
v -0.001233 0.396121 0.836885
v 0.010254 2.174299 1.517408
v -0.011007 0.955336 0.257882
v 0.020935 3.067661 2.150127
v 0.009874 2.389085 1.494926
v 0.089745 3.091938 2.229111
v 0.028970 2.298301 1.501892
v -0.011007 0.955336 0.257882
v 0.047733 0.400410 0.831617
v 0.113431 1.694244 2.119430
v 0.117019 2.439224 2.936312
v 0.172715 3.067661 2.147564
v 0.020935 3.067661 2.150127
v 0.161654 2.389085 1.492364
v 0.009874 2.389085 1.494926
v 0.009874 2.389085 1.494926
v 0.010254 2.174299 1.517408
v 0.161654 2.389085 1.492364
v 0.162035 2.174299 1.514845
v 0.162035 2.174299 1.514845
v 0.162035 2.174299 1.514845
v 0.010254 2.174299 1.517408
v 0.140773 0.955336 0.255322
v -0.011007 0.955336 0.257882
v 0.018650 1.711722 2.014820
v 0.170431 1.711722 2.012256
v -0.001233 0.396121 0.836885
v 0.150546 0.396121 0.834324
v 0.022558 1.681037 2.246254
v 0.174338 1.681037 2.243692
v 0.018650 1.711722 2.014820
v 0.170431 1.711722 2.012256
v 0.033929 2.378728 2.919912
v 0.185709 2.378728 2.917351
v 0.022558 1.681037 2.246254
v 0.174338 1.681037 2.243692
v 0.033929 2.378728 2.919912
v 0.033784 2.509477 2.911301
v 0.185709 2.378728 2.917351
v 0.185564 2.509477 2.908739
v 0.033784 2.509477 2.911301
v 0.024481 3.041743 2.360203
v 0.185564 2.509477 2.908739
v 0.176261 3.041743 2.357641
v 0.075218 -3.853598 -3.628106
v 0.131542 -0.720479 -0.291479
v 0.070100 -3.560781 -3.931284
v 0.121827 -0.164549 -0.867079
v -0.018734 -0.720479 -0.288944
v -0.026978 -0.164549 -0.864567
v -0.073586 -3.853598 -3.625595
v -0.080178 -3.560781 -3.928748
v -0.020237 -0.720479 -0.288918
v -0.029954 -0.164549 -0.864516
v 0.131542 -0.720479 -0.291479
v 0.121827 -0.164549 -0.867079
v -0.076562 -3.853598 -3.625544
v -0.081681 -3.560781 -3.928722
v -0.020237 -0.720479 -0.288918
v -0.029954 -0.164549 -0.864516
v 0.118851 -0.164549 -0.867028
v 0.068597 -3.560781 -3.931259
v 0.072242 -3.853599 -3.628056
v 0.121827 -0.164549 -0.867079
v -0.029954 -0.164549 -0.864516
v 0.070100 -3.560781 -3.931284
v -0.081681 -3.560781 -3.928722
v -0.020237 -0.720479 -0.288918
v 0.131542 -0.720479 -0.291479
v -0.076562 -3.853598 -3.625544
v 0.075218 -3.853598 -3.628106
v 0.146711 -0.488848 0.607006
v 0.142321 -0.686975 0.347016
v 0.149284 -0.199670 0.759495
v 0.137047 -0.783611 0.034741
v 0.150018 0.124308 0.803259
v 0.129821 -0.706124 -0.393663
v 0.148391 0.436615 0.706638
v 0.145047 0.696651 0.508530
v 0.124209 -0.424787 -0.725931
v 0.140167 0.849154 0.219404
v 0.121732 -0.014997 -0.873035
v 0.134696 0.892925 -0.104519
v 0.122465 0.308987 -0.829272
v 0.129427 0.796288 -0.416790
v 0.125015 0.598163 -0.676781
v 0.129811 -0.706124 -0.393663
v 0.137036 -0.783611 0.034741
v 0.124229 -0.424787 -0.725931
v 0.121740 -0.014997 -0.873036
v 0.122465 0.308987 -0.829272
v 0.125040 0.598163 -0.676782
v 0.129427 0.796288 -0.416790
v 0.134688 0.892925 -0.104519
v 0.140167 0.849154 0.219404
v 0.145053 0.696651 0.508530
v 0.148391 0.436615 0.706638
v 0.150015 0.124308 0.803259
v 0.149284 -0.199670 0.759495
v 0.146704 -0.488848 0.607006
v 0.142321 -0.686975 0.347016
v -0.006439 -0.562848 0.528484
v -0.011107 -0.737020 0.251870
v -0.003047 -0.304170 0.728345
v -0.001844 0.014626 0.800805
v -0.016582 -0.778594 -0.072351
v -0.002545 0.338898 0.759236
v -0.021963 -0.706127 -0.391095
v -0.006733 0.696650 0.511095
v -0.027571 -0.424786 -0.723368
v -0.011613 0.849154 0.221965
v -0.030052 -0.014997 -0.870473
v -0.017085 0.892925 -0.101954
v -0.029315 0.308987 -0.826710
v -0.022354 0.796288 -0.414227
v -0.026721 0.598156 -0.674224
v 0.029460 -0.794956 -0.155436
v -0.007105 -0.639218 0.489063
v 0.096060 0.155142 0.818720
v -0.005591 0.648294 0.578685
v -0.019062 0.915612 -0.219221
v -0.029446 0.341442 -0.834458
v -0.028759 -0.337533 -0.793738
v 0.097727 -0.781469 0.103642
v 0.097727 -0.781469 0.103642
v -0.004373 -0.480617 0.650855
v -0.004373 -0.480617 0.650855
v 0.146981 -0.502473 0.623112
v 0.150278 -0.218521 0.818362
v 0.147700 -0.429993 0.665697
v -0.002687 0.458044 0.750802
v -0.002687 0.458044 0.750802
v 0.149761 0.350078 0.787822
v 0.145278 0.712750 0.522164
v 0.143243 0.786233 0.401673
v 0.136587 0.934655 0.007386
v 0.080964 0.912361 -0.075595
v -0.015213 0.910249 0.008778
v 0.129065 0.837896 -0.438217
v -0.025926 0.665758 -0.625873
v -0.025926 0.665758 -0.625873
v 0.124048 0.539308 -0.735472
v 0.124048 0.539308 -0.735472
v 0.024983 0.052654 -0.880551
v 0.121868 0.204727 -0.864557
v 0.124164 -0.466802 -0.728667
v -0.025790 -0.586037 -0.617815
v 0.126840 -0.628624 -0.570081
v 0.008016 0.113615 0.375615
v -0.003938 -0.314830 -0.332365
v 0.005446 -0.352722 0.223469
v 0.006568 -0.270299 0.291491
v 0.006191 0.252653 0.267919
v 0.007957 0.022819 0.378938
v -0.201184 -3.515606 -3.587381
v -0.216424 -4.450570 -4.490137
v -0.204409 -3.331131 -3.778382
v -0.207192 -3.501864 -3.943233
v -0.220536 -2.408441 -4.733723
v -0.236218 -2.866354 -5.662707
v -0.236660 -2.389301 -5.688940
v -0.220536 -2.408441 -4.733723
v -0.236660 -2.389301 -5.688940
v 0.375692 -2.408441 -4.743786
v 0.359569 -2.389301 -5.699005
v -0.216424 -4.450570 -4.490137
v 0.395044 -3.515606 -3.597446
v 0.379805 -4.450570 -4.500201
v -0.201184 -3.515606 -3.587381
v -0.200744 -3.870813 -3.561230
v -0.216424 -4.450570 -4.490137
v -0.197960 -3.700081 -3.396378
v -0.201184 -3.515606 -3.587381
v -0.180949 -5.576875 -2.388579
v -0.189011 -5.567306 -2.866188
v -0.181835 -4.622771 -2.441041
v -0.181835 -4.622771 -2.441041
v -0.200744 -3.870813 -3.561230
v -0.204409 -3.331131 -3.778382
v 0.391820 -3.331131 -3.788447
v -0.201184 -3.515606 -3.587381
v 0.395044 -3.515606 -3.597446
v -0.204409 -3.331131 -3.778382
v -0.207192 -3.501864 -3.943233
v 0.391820 -3.331131 -3.788447
v 0.389038 -3.501864 -3.953299
v -0.207192 -3.501864 -3.943233
v -0.220536 -2.408441 -4.733723
v 0.389038 -3.501864 -3.953299
v 0.375692 -2.408441 -4.743786
v -0.197960 -3.700081 -3.396378
v -0.201184 -3.515606 -3.587381
v 0.398269 -3.700081 -3.406444
v 0.395044 -3.515606 -3.597446
v -0.180949 -5.576875 -2.388579
v -0.181835 -4.622771 -2.441041
v 0.415281 -5.576875 -2.398644
v 0.414395 -4.622771 -2.451106
v 0.414395 -4.622771 -2.451106
v 0.395486 -3.870813 -3.571295
v 0.398269 -3.700081 -3.406444
v -0.200744 -3.870813 -3.561230
v 0.395486 -3.870813 -3.571295
v -0.180949 -5.576875 -2.388579
v 0.415281 -5.576875 -2.398644
v -0.189011 -5.567306 -2.866188
v 0.407219 -5.567306 -2.876252
v -0.189011 -5.567306 -2.866188
v 0.407219 -5.567306 -2.876252
v -0.216424 -4.450570 -4.490136
v 0.379805 -4.450570 -4.500201
v -0.236218 -2.866354 -5.662707
v -0.216424 -4.450570 -4.490136
v 0.360011 -2.866354 -5.672772
v 0.379805 -4.450570 -4.500201
v -0.236218 -2.866354 -5.662707
v 0.360011 -2.866354 -5.672772
v -0.236660 -2.389301 -5.688940
v 0.359569 -2.389301 -5.699005
v 0.395044 -3.515606 -3.597446
v 0.389037 -3.501864 -3.953299
v 0.391820 -3.331131 -3.788447
v 0.375693 -2.408441 -4.743786
v 0.360011 -2.866354 -5.672772
v 0.359569 -2.389301 -5.699005
v 0.379805 -4.450570 -4.500201
v 0.398268 -3.700081 -3.406444
v 0.379805 -4.450570 -4.500201
v 0.395044 -3.515606 -3.597446
v 0.395485 -3.870813 -3.571294
v 0.407219 -5.567306 -2.876252
v 0.414395 -4.622771 -2.451106
v 0.415281 -5.576875 -2.398644
v 0.414395 -4.622771 -2.451106
v 0.407219 -5.567306 -2.876252
v 0.395485 -3.870813 -3.571294
v 0.379805 -4.450570 -4.500201
v 0.398268 -3.700081 -3.406444
v 0.196080 1.855781 3.662079
v 0.158288 1.053918 1.423289
v 0.159871 1.158571 1.516989
v 0.197069 1.766536 3.720538
v 0.150882 1.661085 0.984554
v 0.149202 1.564818 0.885086
v 0.161225 3.817955 1.597347
v 0.160315 3.849703 1.543372
v 0.192983 3.711864 3.478598
v 0.171042 4.507849 2.178849
v 0.160316 3.849701 1.543372
v 0.182631 3.072077 2.865325
v 0.207640 2.414577 4.346200
v 0.197068 1.766542 3.720539
v 0.207628 2.414543 4.346221
v 0.197068 1.766542 3.720539
v 0.182631 3.072077 2.865325
v 0.090687 4.507849 2.180207
v 0.171042 4.507849 2.178849
v 0.160316 3.849701 1.543372
v 0.079961 3.849701 1.544728
v 0.171042 4.507849 2.178849
v 0.112628 3.711864 3.479955
v 0.192983 3.711864 3.478598
v 0.090687 4.507849 2.180207
v 0.102276 3.072077 2.866681
v 0.160316 3.849701 1.543372
v 0.182631 3.072077 2.865325
v 0.079961 3.849701 1.544728
v 0.182631 3.072077 2.865325
v 0.102276 3.072077 2.866681
v 0.112628 3.711864 3.479955
v 0.207628 2.414543 4.346221
v 0.192983 3.711864 3.478598
v 0.127274 2.414543 4.347578
v 0.116713 1.766542 3.721895
v 0.182631 3.072077 2.865325
v 0.197068 1.766542 3.720539
v 0.102276 3.072077 2.866681
v 0.156891 1.766542 3.721217
v 0.207628 2.414543 4.346221
v 0.127274 2.414543 4.347578
v 0.116713 1.766542 3.721895
v 0.197068 1.766542 3.720539
v 0.174060 3.041743 2.357641
v 0.159834 2.174299 1.514845
v 0.183363 2.509477 2.908739
v 0.168230 1.711722 2.012256
v 0.172137 1.681037 2.243692
v 0.183508 2.378728 2.917351
v 0.148345 0.396121 0.834324
v 0.138572 0.955336 0.255322
v 0.174060 3.041743 2.357641
v 0.159834 2.174299 1.514845
v 0.159453 2.389085 1.492364
v 0.170514 3.067661 2.147564
v -0.003434 0.396121 0.836885
v 0.138572 0.955336 0.255322
v 0.148345 0.396121 0.834324
v -0.013208 0.955336 0.257882
v 0.008053 2.174299 1.517408
v 0.018734 3.067661 2.150127
v 0.007673 2.389085 1.494926
v 0.022280 3.041743 2.360203
v -0.003434 0.396121 0.836885
v -0.013208 0.955336 0.257882
v 0.016449 1.711722 2.014820
v 0.031583 2.509477 2.911301
v 0.020357 1.681037 2.246254
v 0.031728 2.378728 2.919912
v 0.018734 3.067661 2.150127
v 0.170514 3.067661 2.147564
v 0.022280 3.041743 2.360203
v 0.174060 3.041743 2.357641
v 0.018734 3.067661 2.150127
v 0.159453 2.389085 1.492364
v 0.007673 2.389085 1.494926
v 0.170514 3.067661 2.147564
v 0.008053 2.174299 1.517408
v 0.159453 2.389085 1.492364
v 0.159834 2.174299 1.514845
v 0.007673 2.389085 1.494926
v 0.008053 2.174299 1.517408
v 0.138572 0.955336 0.255322
v -0.013208 0.955336 0.257882
v 0.159834 2.174299 1.514845
v 0.168230 1.711722 2.012256
v -0.003434 0.396121 0.836885
v 0.148345 0.396121 0.834324
v 0.016449 1.711722 2.014820
v 0.172137 1.681037 2.243692
v 0.016449 1.711722 2.014820
v 0.168230 1.711722 2.012256
v 0.020357 1.681037 2.246254
v 0.183508 2.378728 2.917351
v 0.020357 1.681037 2.246254
v 0.172137 1.681037 2.243692
v 0.031728 2.378728 2.919912
v 0.031583 2.509477 2.911301
v 0.183508 2.378728 2.917351
v 0.183363 2.509477 2.908739
v 0.031728 2.378728 2.919912
v 0.022280 3.041743 2.360203
v 0.183363 2.509477 2.908739
v 0.174060 3.041743 2.357641
v 0.031583 2.509477 2.911301
v 0.129341 -0.720479 -0.291479
v 0.067899 -3.560781 -3.931284
v 0.119626 -0.164549 -0.867079
v 0.073017 -3.853598 -3.628106
v -0.032155 -0.164549 -0.864516
v 0.129341 -0.720479 -0.291479
v 0.119626 -0.164549 -0.867079
v -0.022438 -0.720479 -0.288918
v -0.078763 -3.853598 -3.625544
v 0.067899 -3.560781 -3.931284
v 0.073017 -3.853598 -3.628106
v -0.083882 -3.560781 -3.928722
v -0.022438 -0.720479 -0.288918
v -0.032155 -0.164549 -0.864516
v -0.078763 -3.853598 -3.625544
v 0.127838 -0.720479 -0.291454
v 0.116650 -0.164549 -0.867028
v 0.070041 -3.853599 -3.628056
v -0.032155 -0.164549 -0.864516
v 0.067899 -3.560781 -3.931284
v -0.083882 -3.560781 -3.928722
v 0.119626 -0.164549 -0.867079
v 0.129341 -0.720479 -0.291479
v -0.078763 -3.853598 -3.625544
v 0.073017 -3.853598 -3.628106
v -0.022438 -0.720479 -0.288918
v 0.127226 0.796288 -0.416790
v 0.122814 0.598163 -0.676781
v 0.120264 0.308987 -0.829272
v 0.132495 0.892925 -0.104519
v 0.119531 -0.014997 -0.873035
v 0.137966 0.849154 0.219404
v 0.122008 -0.424787 -0.725931
v 0.142846 0.696651 0.508530
v 0.127620 -0.706124 -0.393663
v 0.146190 0.436615 0.706638
v 0.147817 0.124308 0.803259
v 0.134846 -0.783611 0.034741
v 0.147083 -0.199670 0.759495
v 0.140120 -0.686975 0.347016
v 0.144510 -0.488848 0.607006
v 0.127620 -0.706124 -0.393663
v 0.146190 0.436615 0.706638
v 0.142846 0.696651 0.508530
v -0.028922 0.598156 -0.674224
v -0.024555 0.796288 -0.414227
v -0.031516 0.308987 -0.826710
v -0.019286 0.892925 -0.101954
v -0.032253 -0.014997 -0.870473
v -0.013814 0.849154 0.221965
v -0.029772 -0.424786 -0.723368
v -0.008934 0.696650 0.511095
v -0.024164 -0.706127 -0.391095
v -0.004746 0.338898 0.759236
v -0.018783 -0.778594 -0.072351
v -0.004045 0.014626 0.800805
v -0.013308 -0.737020 0.251870
v -0.005248 -0.304170 0.728345
v -0.008640 -0.562848 0.528484
v 0.027259 -0.794956 -0.155436
v -0.030960 -0.337533 -0.793738
v 0.095526 -0.781469 0.103642
v 0.095526 -0.781469 0.103642
v -0.006574 -0.480617 0.650855
v -0.004888 0.458044 0.750802
v 0.078763 0.912361 -0.075595
v -0.028127 0.665758 -0.625873
v 0.121847 0.539308 -0.735472
v 0.022782 0.052654 -0.880551
v 0.121963 -0.466802 -0.728667
v -0.027991 -0.586037 -0.617815
v 0.124639 -0.628624 -0.570081
v -0.027991 -0.586037 -0.617815
v 0.124639 -0.628624 -0.570081
v 0.008016 0.113615 0.375615
v -0.002738 0.349243 -0.261321
v -0.003938 -0.314830 -0.332365
v -0.005023 0.094541 -0.396304
v -0.004944 -0.160669 -0.391895
v -0.003215 0.268339 -0.289348
v -0.001395 -0.382957 -0.181800
v -0.000180 0.365373 -0.109831
v 0.002901 -0.401712 0.072712
v 0.003260 0.359629 0.094144
v 0.006568 -0.270299 0.291491
v 0.006191 0.252653 0.267919
v -0.216424 -4.450570 -4.490137
v -0.201184 -3.515606 -3.587381
v -0.220536 -2.408441 -4.733723
v -0.236660 -2.389301 -5.688940
v 0.375692 -2.408441 -4.743786
v 0.359569 -2.389301 -5.699005
v 0.395044 -3.515606 -3.597446
v 0.379805 -4.450570 -4.500201
v -0.180949 -5.576875 -2.388579
v -0.197960 -3.700081 -3.396378
v -0.189011 -5.567306 -2.866188
v 0.398269 -3.700081 -3.406444
v -0.200744 -3.870813 -3.561230
v 0.395486 -3.870813 -3.571295
v -0.181835 -4.622771 -2.441041
v 0.414395 -4.622771 -2.451106
v 0.398268 -3.700081 -3.406444
v 0.379805 -4.450570 -4.500201
v 0.395485 -3.870813 -3.571294
v 0.407219 -5.567306 -2.876252
v 0.414395 -4.622771 -2.451106
v 0.415281 -5.576875 -2.398644
v 0.174060 3.041743 2.357641
v 0.159453 2.389085 1.492364
v 0.170514 3.067661 2.147564
v 0.159834 2.174299 1.514845
v 0.111230 1.694244 2.119430
v 0.114818 2.439224 2.936312
v 0.170514 3.067661 2.147564
v 0.022280 3.041743 2.360203
v 0.174060 3.041743 2.357641
v 0.018734 3.067661 2.150127
v 0.159834 2.174299 1.514845
v -0.078763 -3.853598 -3.625544
v 0.067899 -3.560781 -3.931284
v 0.073017 -3.853598 -3.628106
v -0.083882 -3.560781 -3.928722
v -0.078763 -3.853598 -3.625544
v 0.067899 -3.560781 -3.931284
v 0.142846 0.696651 0.508530
v 0.127620 -0.706124 -0.393663
v 0.146190 0.436615 0.706638
v 0.095526 -0.781469 0.103642
v -0.027991 -0.586037 -0.617815
v 0.124639 -0.628624 -0.570081
v -0.201184 -3.515606 -3.587381
v -0.216424 -4.450570 -4.490137
v 0.395044 -3.515606 -3.597446
v 0.379805 -4.450570 -4.500201
v -0.078763 -3.853598 -3.625544
v 0.067899 -3.560781 -3.931284
v -0.083882 -3.560781 -3.928722
vn -0.9999 -0.0000 0.0159
vn -0.9999 -0.0000 0.0167
vn -0.9999 -0.0000 0.0169
vn -0.9999 -0.0000 0.0168
vn 0.6269 -0.6276 0.4616
vn 0.5873 0.1389 -0.7974
vn 0.6287 0.4526 0.6324
vn 0.5938 -0.5130 -0.6199
vn 0.5910 0.6811 -0.4322
vn 0.6181 0.3388 0.7093
vn 0.6614 -0.1223 0.7400
vn 0.6026 -0.7188 -0.3467
vn 0.5977 0.7932 -0.1168
vn 0.6180 -0.6524 0.4387
vn 0.9999 -0.0000 -0.0169
vn -0.0121 0.6947 -0.7192
vn 0.9942 0.0811 0.0709
vn -0.8006 0.5022 0.3268
vn 0.9079 0.3534 0.2256
vn -0.5865 0.7705 0.2495
vn 0.7313 0.5724 0.3708
vn 0.8667 -0.2941 -0.4029
vn 0.8161 -0.3245 -0.4781
vn -0.0169 -0.0549 -0.9983
vn -0.8155 0.3596 0.4535
vn 0.0003 0.9998 0.0200
vn 0.0117 0.7193 0.6946
vn 0.0137 0.5859 0.8102
vn 0.0094 0.8303 0.5572
vn 0.0423 -0.8685 -0.4938
vn -0.0023 -0.7193 -0.6947
vn 0.0517 -0.8692 -0.4917
vn 0.0362 -0.5231 -0.8515
vn -0.0117 -0.7193 -0.6946
vn 0.0456 -0.5208 -0.8524
vn 0.0096 0.8240 0.5665
vn -0.0136 -0.5950 -0.8036
vn -0.9999 0.0021 0.0141
vn -0.0125 0.6699 -0.7423
vn -0.0115 0.7290 -0.6844
vn -0.0116 0.7290 -0.6844
vn -0.9989 0.0245 0.0402
vn -0.9990 0.0238 0.0390
vn -0.9952 0.0602 0.0775
vn -0.9952 0.0605 0.0766
vn 0.9253 -0.3232 -0.1983
vn 0.0117 0.7212 0.6926
vn 0.0166 -0.1719 0.9850
vn -0.9315 -0.3232 -0.1669
vn -0.0035 0.9785 -0.2062
vn -0.0168 0.0613 -0.9980
vn 0.0121 -0.6947 0.7192
vn -0.0122 0.6947 -0.7192
vn 0.0088 0.8528 0.5221
vn 0.0086 0.8620 0.5069
vn 0.0140 0.5560 0.8311
vn 0.0141 0.5480 0.8363
vn 0.0168 0.1041 0.9944
vn -0.0117 0.7186 -0.6953
vn -0.0126 0.6671 -0.7449
vn 0.0022 0.9913 0.1314
vn 0.0168 0.0657 0.9977
vn -0.5091 0.5840 -0.6323
vn -0.9782 -0.1708 0.1181
vn -0.9784 0.0580 0.1983
vn 0.8685 0.3061 -0.3900
vn -0.0158 -0.4361 -0.8998
vn 0.0256 -0.9959 -0.0866
vn -0.0162 0.9881 0.1527
vn -0.9999 0.0001 0.0168
vn -0.9999 -0.0001 0.0170
vn -0.9999 0.0002 0.0167
vn 0.4321 -0.2130 0.8763
vn 0.4027 -0.6464 0.6480
vn 0.9912 -0.1244 0.0452
vn 0.2465 -0.9557 0.1607
vn 0.6864 -0.3631 0.6301
vn -0.5727 -0.5272 0.6278
vn 0.3040 0.3924 0.8681
vn -0.5260 0.4797 0.7023
vn 0.5883 0.1576 0.7931
vn 0.4098 0.7853 0.4641
vn 0.5633 0.8237 0.0648
vn -0.0195 0.9963 0.0834
vn -0.6790 0.7293 0.0842
vn -0.5628 0.6559 -0.5031
vn 0.5594 0.3993 -0.7264
vn -0.1242 -0.0593 -0.9905
vn 0.9079 -0.1568 -0.3888
vn -0.7041 -0.3231 -0.6323
vn -0.6699 -0.1446 -0.7282
vn 0.5975 0.0814 -0.7978
vn 0.9400 -0.1226 -0.3185
vn -0.4928 0.8676 -0.0672
vn 0.5329 0.7634 0.3650
vn 0.4829 0.7191 -0.4997
vn -0.5164 0.5148 0.6843
vn 0.0982 0.0528 0.9938
vn -0.4997 -0.7657 0.4050
vn 0.5201 -0.4533 0.7239
vn -0.0548 -0.9984 0.0132
vn -0.5874 0.3360 -0.7362
vn 0.9995 0.0254 -0.0184
vn -0.9571 0.2829 0.0622
vn 0.9999 -0.0009 -0.0157
vn 0.9998 0.0018 -0.0192
vn 0.9998 0.0021 -0.0197
vn 0.9999 -0.0011 -0.0154
vn -0.9999 -0.0002 0.0171
vn -0.9999 -0.0002 0.0170
vn -0.9999 -0.0001 0.0169
vn -0.9999 -0.0000 0.0170
vn -0.9999 -0.0001 0.0167
vn 0.6145 0.6166 0.4921
vn 0.6180 -0.6543 0.4358
vn 0.5880 -0.1940 -0.7853
vn -0.0094 -0.8303 -0.5572
vn -0.9998 -0.0011 0.0184
vn -0.0141 -0.5480 -0.8363
vn 0.0021 0.9925 0.1224
vn -0.1941 -0.9550 -0.2244
vn -0.1961 -0.9551 -0.2222
vn -0.1967 -0.9532 -0.2297
vn 0.1292 0.4764 -0.8697
vn -0.4432 0.6989 -0.5613
vn 0.3700 0.8170 -0.4422
vn -0.1179 -0.0647 -0.9909
vn -0.7016 -0.3216 -0.6359
vn 0.9104 -0.1561 -0.3832
vn -0.4239 -0.7540 -0.5017
vn -0.9999 0.0005 0.0137
vn 0.9991 0.0098 0.0408
vn -0.9163 -0.3970 0.0525
vn -0.9964 -0.0830 0.0197
vn 0.5939 -0.6772 -0.4345
vn 0.5884 0.6821 -0.4342
vn 0.6194 0.0657 0.7823
vn 0.9979 -0.0496 0.0408
vn -0.1984 -0.9540 -0.2246
vn -0.1967 -0.9533 -0.2292
vn -0.1954 -0.9549 -0.2235
vt 0.000000 0.000000
vt 0.667772 -0.087489
vt 0.538328 -0.087489
vt 0.538328 0.074803
vt 0.667772 0.074803
vt 0.867874 -0.087489
vt 0.333854 -0.087489
vt 0.333854 0.074803
vt 0.867874 0.074803
vt 0.426001 0.074803
vt -0.108019 -0.087489
vt 0.426001 -0.087489
vt -0.108019 0.074803
vt 0.026456 -0.087489
vt -0.102987 0.074803
vt -0.102987 -0.087489
vt 0.026456 0.074803
vt -2.641686 0.646631
vt -2.148260 0.074395
vt -2.641686 -2.487042
vt 0.319718 0.646631
vt 0.970516 -1.703624
vt 1.621314 -0.920206
vt -2.148260 0.646631
vt -5.603090 0.646631
vt -3.135113 0.074395
vt -6.253888 -1.703624
vt -3.135113 0.646631
vt 0.385595 0.691932
vt 0.455233 0.793690
vt 0.378744 0.541870
vt 0.455621 0.690841
vt 0.461744 0.541870
vt 0.366230 0.786201
vt 0.376233 0.793690
vt 0.366230 0.703727
vt 0.483600 0.548272
vt 0.566600 0.548272
vt 0.483600 0.541870
vt 0.566600 0.541870
vt 0.432121 0.158528
vt 0.409796 0.544521
vt 0.474121 0.158528
vt 0.489535 0.544521
vt -0.079739 0.006402
vt -0.079739 0.000000
vt 0.000000 0.006402
vt 0.353434 0.632511
vt 0.362441 0.663254
vt 0.357565 0.601049
vt 0.377199 0.573985
vt 0.386131 0.687943
vt 0.418772 0.550763
vt 0.418501 0.704357
vt 0.456134 0.707810
vt 0.468663 0.548030
vt 0.492906 0.700280
vt 0.513504 0.566518
vt 0.522436 0.680475
vt 0.537194 0.591207
vt 0.542070 0.653412
vt 0.546201 0.621951
vt -6.904686 -0.920206
vt 0.377660 -1.200556
vt 0.456660 -1.200556
vt 0.387022 -1.302314
vt 0.367657 -1.290519
vt 0.367657 -1.208044
vt 0.457048 -1.303405
vt 0.463172 -1.452376
vt 0.380172 -1.452376
vt 0.472672 0.702650
vt 0.472672 0.782865
vt -0.886110 2.223192
vt -0.886110 2.210226
vt -0.969110 2.210226
vt -0.969110 2.223192
vt 0.589050 -2.181035
vt 0.589050 -2.232252
vt 0.478456 -2.162539
vt 0.478217 -2.212153
vt 0.365086 -2.181035
vt 0.365086 -2.231463
vt 0.409626 -2.459666
vt 0.489365 -2.459666
vt 0.473951 -2.845658
vt 0.431951 -2.845658
vt 0.489365 1.305080
vt 0.409626 1.292206
vt 0.489365 1.292206
vt 0.409626 1.305080
vt 0.057414 0.000000
vt 0.015414 0.000000
vt 0.057414 0.006402
vt 0.543485 -2.376917
vt 0.534478 -2.407661
vt 0.539355 -2.345456
vt 0.519721 -2.318392
vt 0.510788 -2.432350
vt 0.490190 -2.298588
vt 0.465947 -2.450838
vt 0.453418 -2.291058
vt 0.416057 -2.448105
vt 0.383416 -2.310925
vt 0.415786 -2.294511
vt 0.374483 -2.424882
vt 0.359726 -2.335614
vt 0.354850 -2.397819
vt 0.350719 -2.366357
vt 0.474099 -1.211381
vt 0.474099 -1.291596
vt -0.822505 1.305080
vt -0.822505 1.292206
vt -0.864505 1.292206
vt 0.015414 0.006402
vt -0.864505 1.305080
s 1
usemtl material_0.002
f 11/1/1 13/1/2 12/1/2
f 13/1/2 14/1/3 12/1/2
f 12/1/2 14/1/3 15/1/4
f 14/1/3 16/1/3 15/1/4
f 15/1/4 16/1/3 17/1/3
f 16/1/3 18/1/3 17/1/3
f 17/1/3 18/1/3 19/1/3
f 18/1/3 20/1/3 19/1/3
f 10/1/5 6/1/6 3/1/7
f 7/1/8 5/1/9 1/1/10
f 3/1/7 2/1/11 10/1/5
f 10/1/5 8/1/12 6/1/6
f 6/1/6 4/1/13 3/1/7
f 1/1/10 9/1/14 7/1/8
f 148/1/15 145/1/15 146/1/15
f 148/1/15 147/1/15 145/1/15
f 141/1/3 142/1/3 143/1/3
f 142/1/3 141/1/3 144/1/3
f 369/1/1 371/1/1 370/1/1
f 366/1/114 368/1/115 367/1/116
f 460/1/3 462/1/3 461/1/3
f 463/1/3 461/1/3 462/1/3
f 640/1/3 641/1/3 639/1/3
f 640/1/3 642/1/3 641/1/3
f 642/1/3 643/1/3 641/1/3
f 642/1/3 644/1/4 643/1/3
f 644/1/4 645/1/3 643/1/3
f 644/1/4 646/1/4 645/1/3
f 646/1/4 647/1/3 645/1/3
f 638/1/135 637/1/136 636/1/137
usemtl Material.002
f 84/1/16 85/1/16 86/1/16
f 38/1/17 33/1/18 55/1/19
f 55/1/19 32/1/20 39/1/21
f 31/1/22 29/1/23 55/1/19
f 31/1/3 33/1/18 29/1/3
f 48/1/24 74/1/24 73/1/24
f 79/1/16 50/1/16 68/1/16
f 38/1/17 28/1/25 33/1/18
f 55/1/19 33/1/18 32/1/20
f 31/1/15 30/1/15 29/1/15
f 55/1/19 39/1/21 31/1/22
f 29/1/23 38/1/17 55/1/19
f 31/1/3 32/1/20 33/1/18
f 33/1/18 28/1/25 29/1/3
f 48/1/24 47/1/24 74/1/24
f 79/1/16 49/1/16 50/1/16
f 21/1/3 22/1/3 23/1/3
f 22/1/3 21/1/3 24/1/3
f 22/1/3 24/1/3 25/1/3
f 25/1/3 24/1/3 26/1/3
f 26/1/3 24/1/3 27/1/3
f 34/1/26 35/1/26 36/1/26
f 35/1/26 34/1/26 37/1/26
f 40/1/3 41/1/3 42/1/3
f 41/1/3 40/1/3 43/1/3
f 43/1/3 40/1/3 44/1/3
f 42/1/3 45/1/3 46/1/3
f 45/1/3 42/1/3 41/1/3
f 51/1/27 52/1/27 53/1/27
f 52/1/27 51/1/27 54/1/27
f 56/1/16 57/1/16 58/1/16
f 57/1/16 56/1/16 59/1/16
f 60/1/28 61/1/28 62/1/28
f 61/1/28 60/1/28 63/1/28
f 64/1/27 65/1/27 66/1/27
f 65/1/27 64/1/27 67/1/27
f 69/1/24 71/1/24 70/1/24
f 70/1/24 72/1/24 69/1/24
f 75/1/29 76/1/29 77/1/29
f 76/1/29 75/1/29 78/1/29
f 80/1/16 82/1/16 81/1/16
f 81/1/16 83/1/16 80/1/16
f 372/1/3 374/1/3 373/1/3
f 374/1/3 375/1/3 373/1/3
f 375/1/3 376/1/3 373/1/3
f 373/1/3 376/1/3 377/1/3
f 378/1/3 377/1/3 376/1/3
f 387/1/3 389/1/3 388/1/3
f 390/1/3 388/1/3 389/1/3
f 391/1/3 393/1/3 392/1/3
f 393/1/3 387/1/3 392/1/3
f 388/1/3 392/1/3 387/1/3
f 396/1/27 398/1/27 397/1/27
f 399/1/27 397/1/27 398/1/27
f 400/1/16 402/1/16 401/1/16
f 403/1/16 401/1/16 402/1/16
f 404/1/28 406/1/28 405/1/28
f 407/1/28 405/1/28 406/1/28
f 408/1/27 410/1/27 409/1/27
f 411/1/27 409/1/27 410/1/27
f 412/1/24 413/1/24 414/1/24
f 415/1/24 414/1/24 413/1/24
f 420/1/16 419/1/16 418/1/16
f 380/1/26 381/1/26 382/1/26
f 394/1/117 417/1/117 416/1/117
f 380/1/26 379/1/26 381/1/26
f 394/1/117 395/1/117 417/1/117
f 383/1/16 384/1/16 385/1/16
f 384/1/16 383/1/16 386/1/16
f 650/1/26 652/1/26 651/1/26
f 653/1/26 651/1/26 652/1/26
f 660/1/29 662/1/29 661/1/29
f 663/1/29 661/1/29 662/1/29
f 654/1/52 648/1/52 655/1/52
f 654/1/52 649/1/52 648/1/52
f 693/1/16 695/1/16 694/1/16
f 696/1/16 694/1/16 695/1/16
usemtl Metal_Aluminum_Anodized.002
f 91/1/30 97/1/31 92/1/32
f 104/1/33 97/1/31 98/1/34
f 91/1/30 98/1/34 97/1/31
f 104/1/33 103/1/35 97/1/31
f 87/2/26 89/3/26 88/4/26
f 88/4/26 90/5/26 87/2/26
f 93/6/36 95/7/36 94/8/36
f 94/8/36 96/9/36 93/6/36
f 99/10/37 100/11/37 101/12/37
f 100/11/37 99/10/37 102/13/37
f 105/14/24 106/15/24 107/16/24
f 106/15/24 105/14/24 108/17/24
f 421/1/26 422/1/26 423/1/26
f 424/1/26 423/1/26 422/1/26
f 425/1/36 426/1/36 427/1/36
f 428/1/36 427/1/36 426/1/36
f 429/1/37 431/1/37 430/1/37
f 432/1/37 430/1/37 431/1/37
f 433/1/24 435/1/24 434/1/24
f 436/1/24 434/1/24 435/1/24
usemtl __Fencing_Metal_Straight_4.002
f 109/18/3 110/19/3 111/20/3
f 110/19/3 112/21/3 111/20/3
f 111/20/3 112/21/3 113/22/3
f 114/23/3 113/22/3 112/21/3
f 115/24/3 110/19/3 109/18/3
f 123/25/3 125/26/3 124/27/3
f 126/20/3 124/27/3 125/26/3
f 128/18/3 126/20/3 127/28/3
f 131/1/3 117/1/3 116/1/3
f 121/1/3 119/1/3 116/1/3
f 116/1/3 130/1/3 129/1/3
f 129/1/3 132/1/3 131/1/3
f 116/1/3 129/1/3 131/1/3
f 116/1/3 117/1/3 122/1/3
f 121/1/3 120/1/3 119/1/3
f 116/1/3 122/1/3 121/1/3
f 119/1/3 118/1/3 116/1/3
f 437/18/3 439/24/3 438/19/3
f 440/21/3 442/23/3 441/22/3
f 441/22/3 443/20/3 440/21/3
f 443/20/3 438/19/3 440/21/3
f 443/20/3 437/18/3 438/19/3
f 444/28/3 446/18/3 445/20/3
f 447/26/3 445/20/3 448/27/3
f 448/27/3 449/25/3 447/26/3
f 450/63/3 451/25/3 452/27/3
f 453/26/3 455/28/3 454/20/3
f 665/20/3 666/26/3 664/28/3
f 667/27/3 669/63/3 668/25/3
usemtl material.002
f 138/1/15 140/1/15 137/1/15
f 138/1/15 139/1/15 140/1/15
f 133/1/3 134/1/3 135/1/3
f 136/1/3 135/1/3 134/1/3
f 278/1/38 279/1/38 280/1/38
f 274/1/3 276/1/3 275/1/3
f 277/1/3 275/1/3 276/1/3
f 281/1/39 283/1/39 282/1/39
f 284/1/39 282/1/39 283/1/39
f 285/1/40 286/1/40 287/1/41
f 288/1/41 287/1/41 286/1/40
f 456/1/3 458/1/3 457/1/3
f 457/1/3 459/1/3 456/1/3
f 573/1/3 574/1/3 575/1/3
f 574/1/3 573/1/3 576/1/3
f 580/1/39 581/1/39 582/1/39
f 581/1/39 580/1/39 583/1/39
f 584/1/40 586/1/41 585/1/41
f 585/1/41 587/1/40 584/1/40
f 578/1/118 579/1/118 577/1/118
usemtl material_34.002
f 191/29/3 192/30/3 193/31/3
f 192/30/3 194/32/3 193/31/3
f 195/33/3 193/31/3 194/32/3
f 196/34/3 197/35/3 198/36/3
f 198/36/3 197/35/3 191/29/3
f 192/30/3 191/29/3 197/35/3
f 209/37/27 210/38/27 211/39/27
f 212/40/27 211/39/27 210/38/27
f 207/1/42 204/1/43 202/1/3
f 199/1/3 200/1/3 208/1/3
f 207/1/42 206/1/44 205/1/45
f 199/1/3 208/1/3 207/1/42
f 202/1/3 201/1/3 199/1/3
f 204/1/43 203/1/3 202/1/3
f 207/1/42 205/1/45 204/1/43
f 202/1/3 199/1/3 207/1/42
f 502/64/3 500/65/3 503/66/3
f 503/66/3 504/67/3 502/64/3
f 504/67/3 505/68/3 502/64/3
f 501/69/3 507/70/3 506/71/3
f 506/71/3 500/65/3 501/69/3
f 506/71/3 503/66/3 500/65/3
f 509/32/3 508/30/3 510/72/3
f 511/73/3 510/72/3 508/30/3
f 512/74/27 514/75/27 513/76/27
f 513/76/27 515/77/27 512/74/27
f 670/65/3 672/110/3 671/111/3
f 671/111/3 673/69/3 670/65/3
usemtl __Color_000_6.002
f 158/1/3 157/1/3 155/1/3
f 155/1/3 159/1/3 158/1/3
f 157/1/3 156/1/3 155/1/3
f 150/1/3 149/1/3 151/1/3
f 149/1/3 152/1/3 151/1/3
f 151/1/3 152/1/3 153/1/3
f 153/1/3 152/1/3 154/1/3
f 175/1/46 170/1/47 181/1/48
f 176/1/49 170/1/47 162/1/50
f 175/1/46 176/1/49 165/1/51
f 175/1/46 165/1/51 162/1/50
f 181/1/48 186/1/52 175/1/46
f 175/1/46 162/1/50 170/1/47
f 176/1/49 186/1/52 181/1/48
f 162/1/50 165/1/51 176/1/49
f 176/1/49 181/1/48 170/1/47
f 160/1/53 163/1/16 161/1/53
f 164/1/16 161/1/53 163/1/16
f 166/1/54 168/1/54 167/1/54
f 169/1/54 167/1/54 168/1/54
f 171/1/55 172/1/55 173/1/55
f 174/1/55 173/1/55 172/1/55
f 177/1/56 179/1/56 178/1/56
f 180/1/56 178/1/56 179/1/56
f 182/1/57 183/1/57 184/1/57
f 185/1/57 184/1/57 183/1/57
f 187/1/16 188/1/16 189/1/16
f 190/1/16 189/1/16 188/1/16
f 213/1/3 215/1/3 214/1/3
f 214/1/3 215/1/3 216/1/3
f 217/1/3 216/1/3 215/1/3
f 216/1/3 217/1/3 218/1/3
f 217/1/3 219/1/3 218/1/3
f 220/1/3 218/1/3 219/1/3
f 217/1/3 221/1/3 219/1/3
f 222/1/3 219/1/3 221/1/3
f 229/1/16 231/1/16 230/1/16
f 232/1/16 230/1/16 231/1/16
f 233/1/58 234/1/58 235/1/58
f 236/1/58 235/1/58 234/1/58
f 238/1/59 240/1/59 239/1/59
f 241/1/59 239/1/59 240/1/59
f 242/1/60 243/1/60 244/1/60
f 245/1/60 244/1/60 243/1/60
f 246/1/61 247/1/61 248/1/61
f 249/1/61 248/1/61 247/1/61
f 250/1/16 251/1/16 252/1/16
f 253/1/16 252/1/16 251/1/16
f 254/1/62 256/1/62 255/1/62
f 257/1/62 255/1/62 256/1/62
f 258/1/27 260/1/27 259/1/27
f 261/1/27 259/1/27 260/1/27
f 224/1/63 227/1/64 228/1/65
f 224/1/63 237/1/66 225/1/67
f 224/1/63 225/1/67 226/1/68
f 224/1/63 226/1/68 227/1/64
f 228/1/65 223/1/69 224/1/63
f 237/1/66 224/1/63 223/1/69
f 227/1/64 226/1/68 225/1/67
f 237/1/66 223/1/69 228/1/65
f 227/1/64 225/1/67 237/1/66
f 319/1/70 321/1/71 320/1/3
f 321/1/71 322/1/3 320/1/3
f 320/1/3 322/1/3 323/1/3
f 322/1/3 324/1/3 323/1/3
f 323/1/3 324/1/3 325/1/3
f 324/1/3 326/1/3 325/1/3
f 325/1/3 326/1/3 327/1/3
f 326/1/3 328/1/3 327/1/3
f 327/1/3 328/1/3 329/1/3
f 328/1/3 330/1/3 329/1/3
f 329/1/3 330/1/3 331/1/3
f 330/1/3 332/1/3 331/1/3
f 331/1/3 332/1/3 333/1/72
f 346/1/73 343/1/74 341/1/75
f 342/1/76 347/1/77 344/1/78
f 343/1/74 346/1/73 348/1/79
f 349/1/80 344/1/78 350/1/81
f 347/1/77 350/1/81 344/1/78
f 348/1/79 346/1/73 351/1/82
f 353/1/83 349/1/80 350/1/81
f 351/1/82 354/1/84 348/1/79
f 349/1/80 353/1/83 355/1/85
f 358/1/86 355/1/85 353/1/83
f 353/1/83 360/1/87 358/1/86
f 361/1/88 358/1/86 360/1/87
f 365/1/89 364/1/90 361/1/88
f 340/1/91 362/1/92 363/1/93
f 338/1/94 352/1/95 356/1/96
f 337/1/97 352/1/95 338/1/94
f 337/1/97 336/1/98 352/1/95
f 335/1/99 345/1/100 336/1/98
f 335/1/99 334/1/101 345/1/100
f 337/1/97 339/1/102 334/1/101
f 362/1/92 352/1/95 345/1/100
f 359/1/103 351/1/82 341/1/75
f 349/1/80 358/1/86 364/1/90
f 360/1/87 350/1/81 342/1/76
f 340/1/91 339/1/102 362/1/92
f 339/1/102 356/1/96 362/1/92
f 339/1/102 338/1/94 356/1/96
f 335/1/99 336/1/98 337/1/97
f 334/1/101 335/1/99 337/1/97
f 337/1/97 338/1/94 339/1/102
f 339/1/102 340/1/91 334/1/101
f 345/1/100 334/1/101 363/1/93
f 345/1/100 363/1/93 362/1/92
f 362/1/92 356/1/96 352/1/95
f 352/1/95 336/1/98 345/1/100
f 359/1/103 354/1/84 351/1/82
f 351/1/82 346/1/73 341/1/75
f 348/1/79 354/1/84 357/1/104
f 364/1/90 342/1/76 344/1/78
f 349/1/80 355/1/85 358/1/86
f 364/1/90 344/1/78 349/1/80
f 358/1/86 361/1/88 364/1/90
f 365/1/89 361/1/88 360/1/87
f 342/1/76 365/1/89 360/1/87
f 360/1/87 353/1/83 350/1/81
f 350/1/81 347/1/77 342/1/76
f 465/78/3 466/79/3 464/80/3
f 466/79/3 467/81/3 464/80/3
f 467/81/3 468/82/3 464/80/3
f 467/81/3 469/83/3 468/82/3
f 472/1/3 471/1/3 470/1/3
f 473/1/53 475/1/16 476/1/16
f 475/1/16 473/1/53 474/1/53
f 477/1/54 478/1/54 479/1/54
f 478/1/54 477/1/54 480/1/54
f 481/1/55 483/1/55 482/1/55
f 482/1/55 484/1/55 481/1/55
f 487/1/56 488/1/56 489/1/56
f 488/1/56 487/1/56 490/1/56
f 491/1/57 493/1/57 492/1/57
f 492/1/57 494/1/57 491/1/57
f 496/1/16 499/1/16 498/1/16
f 498/1/16 497/1/16 496/1/16
f 495/1/119 486/1/119 485/1/119
f 516/1/3 517/1/3 518/1/3
f 517/1/3 516/1/3 519/1/3
f 520/1/3 516/1/3 521/1/3
f 516/1/3 520/1/3 519/1/3
f 519/1/3 520/1/3 522/1/3
f 522/1/3 523/1/3 519/1/3
f 523/1/3 522/1/3 524/1/3
f 523/1/3 524/1/3 525/1/3
f 526/1/120 528/1/120 527/1/120
f 529/1/120 527/1/120 528/1/120
f 530/1/16 531/1/16 532/1/16
f 531/1/16 530/1/16 533/1/16
f 534/1/58 536/1/58 535/1/58
f 535/1/58 537/1/58 534/1/58
f 538/1/59 539/1/59 540/1/59
f 539/1/59 538/1/59 541/1/59
f 542/1/60 544/1/60 543/1/60
f 543/1/60 545/1/60 542/1/60
f 546/1/61 548/1/61 547/1/61
f 547/1/61 549/1/61 546/1/61
f 550/1/16 552/1/16 551/1/16
f 551/1/16 553/1/16 550/1/16
f 554/1/62 555/1/62 556/1/62
f 555/1/62 554/1/62 557/1/62
f 558/1/27 559/1/27 560/1/27
f 559/1/27 558/1/27 561/1/27
f 607/1/3 606/1/72 608/1/3
f 607/1/3 608/1/3 609/1/3
f 609/1/3 608/1/3 610/1/3
f 609/1/3 610/1/3 611/1/3
f 611/1/3 610/1/3 612/1/3
f 611/1/3 612/1/3 613/1/3
f 613/1/3 612/1/3 614/1/3
f 613/1/3 614/1/3 615/1/3
f 615/1/3 614/1/3 616/1/3
f 615/1/3 616/1/3 617/1/3
f 617/1/3 616/1/3 618/1/3
f 617/1/3 618/1/3 619/1/71
f 619/1/71 618/1/3 620/1/70
f 634/1/121 635/1/122 624/1/123
f 629/1/124 628/1/125 627/1/126
f 628/1/125 629/1/124 630/1/127
f 632/1/128 630/1/127 633/1/129
f 622/1/130 631/1/130 621/1/130
f 626/1/131 628/1/125 632/1/128
f 633/1/129 630/1/127 629/1/124
f 623/1/132 633/1/129 629/1/124
f 632/1/128 623/1/133 625/1/134
f 632/1/128 625/1/134 626/1/131
f 628/1/125 630/1/127 632/1/128
f 676/1/120 677/1/120 678/1/120
f 677/1/120 676/1/120 679/1/120
f 680/1/138 675/1/138 674/1/138
f 692/1/139 690/1/140 691/1/141
usemtl material_35.002
f 262/41/3 263/42/3 264/43/3
f 265/44/3 264/43/3 263/42/3
f 270/45/27 272/46/27 271/47/27
f 273/1/27 271/47/27 272/46/27
f 267/1/105 268/1/106 269/1/107
f 267/1/105 266/1/108 268/1/106
f 289/48/3 291/49/3 290/50/3
f 290/50/3 291/49/3 292/51/3
f 291/49/3 293/52/3 292/51/3
f 292/51/3 293/52/3 294/53/3
f 293/52/3 295/54/3 294/53/3
f 294/53/3 296/55/3 297/56/3
f 296/55/3 298/57/3 297/56/3
f 297/56/3 298/57/3 299/58/3
f 298/57/3 300/59/3 299/58/3
f 299/58/3 300/59/3 301/60/3
f 300/59/3 302/61/3 301/60/3
f 301/60/3 302/61/3 303/62/109
f 315/1/3 309/1/3 304/1/3
f 305/1/3 318/1/110 317/1/3
f 315/1/3 314/1/3 313/1/3
f 311/1/111 310/1/70 309/1/3
f 304/1/3 305/1/3 317/1/3
f 317/1/3 316/1/112 315/1/3
f 315/1/3 313/1/3 312/1/3
f 312/1/3 311/1/111 309/1/3
f 309/1/3 308/1/71 307/1/4
f 307/1/4 306/1/113 304/1/3
f 304/1/3 317/1/3 315/1/3
f 315/1/3 312/1/3 309/1/3
f 309/1/3 307/1/4 304/1/3
f 562/84/3 564/85/3 563/86/3
f 563/86/3 565/87/3 562/84/3
f 566/88/27 567/89/27 568/90/27
f 567/89/27 566/88/27 569/91/27
f 572/92/27 571/93/27 570/94/27
f 589/95/109 590/96/3 588/97/3
f 590/96/3 591/98/3 588/97/3
f 590/96/3 592/99/3 591/98/3
f 592/99/3 593/100/3 591/98/3
f 592/99/3 594/101/3 593/100/3
f 594/101/3 595/102/3 593/100/3
f 594/101/3 596/103/3 595/102/3
f 596/103/3 598/104/3 597/105/3
f 596/103/3 599/106/3 598/104/3
f 599/106/3 600/107/3 598/104/3
f 599/106/3 601/108/3 600/107/3
f 601/108/3 602/109/3 600/107/3
f 604/54/3 605/55/3 603/53/3
f 681/112/27 683/113/27 682/114/27
f 684/115/27 685/94/27 686/93/27
f 688/103/3 689/105/3 687/102/3
f 698/114/27 699/116/27 697/112/27
l 649 657
l 648 658
l 656 658
l 654 659
