# Blender 4.3.2
# www.blender.org
mtllib Mazo.mtl
o 13060_Rubber_Mallet_v1_l3
v -0.273505 0.044877 0.049466
v -0.261438 0.040041 -0.041543
v -0.014562 0.048498 0.042864
v -0.005614 0.045403 -0.032191
v -1.189486 0.049749 0.009322
v -1.187630 0.043387 0.049837
v 0.000976 0.029520 0.058747
v -0.260401 -0.031996 0.056561
v -0.005556 -0.041420 0.011770
v -0.851464 -0.033145 0.058791
v -0.018004 -0.033602 0.057522
v -0.031693 -0.031167 -0.049598
v -0.000017 -0.024743 -0.042163
v -1.184101 0.009454 -0.059818
v -0.978756 0.028631 -0.052893
v -0.955478 -0.020625 -0.054856
v -0.786809 0.038991 -0.051962
v -0.765465 -0.004391 -0.070270
v -0.457670 -0.000562 -0.069503
v -0.254320 0.010036 -0.057678
v -0.254488 -0.028437 -0.045425
v -0.036753 0.021408 -0.065243
v -0.025248 -0.002028 -0.067490
v -0.000321 0.027527 -0.044555
v -0.025254 0.010927 0.083408
v -0.036740 -0.012509 0.081157
v -0.000317 -0.018575 0.060488
v -0.269404 0.033621 0.065154
v -0.254281 -0.001138 0.073593
v -0.457266 0.009386 0.085390
v -0.820171 0.031046 0.074442
v -0.952514 0.008673 0.075715
v -0.788256 -0.008005 0.083028
v -1.186008 0.020863 0.072206
v -0.462432 0.032841 -0.059550
v -0.032670 0.032974 0.072476
v -0.508171 -0.031175 -0.052022
v -0.463128 -0.024238 0.075271
v -1.186831 -0.027608 0.062905
v -1.217476 -0.035187 0.310471
v -1.189226 -0.000197 0.140312
v -1.198265 -0.050426 0.142840
v -1.254006 -0.109356 0.310517
v -1.234588 -0.113510 0.152195
v -1.288827 -0.155632 0.138411
v -1.314333 -0.150854 0.305913
v -1.363908 -0.174832 0.140434
v -1.437032 -0.159582 0.141151
v -1.478475 -0.111334 0.310796
v -1.506993 -0.111700 0.112818
v -1.521506 -0.028570 0.308690
v -1.544228 -0.029212 0.136350
v -1.538009 0.052467 0.145830
v -1.486452 0.108934 0.308586
v -1.508321 0.112166 0.146066
v -1.452630 0.160942 0.134756
v -1.372420 0.182549 0.100251
v -1.298040 0.166511 0.142574
v -1.256068 0.118811 0.308133
v -1.247726 0.134135 0.138364
v -1.201796 0.076834 0.098281
v -1.194957 -0.044555 -0.120311
v -1.226194 -0.106428 -0.103326
v -1.245688 -0.099288 -0.293613
v -1.286363 -0.148016 -0.206672
v -1.324155 -0.169227 -0.104867
v -1.329704 -0.156566 -0.292570
v -1.404050 -0.172988 -0.076913
v -1.401191 -0.154909 -0.294419
v -1.469854 -0.143318 -0.106379
v -1.450069 -0.134904 -0.292129
v -1.496013 -0.091185 -0.292901
v -1.547251 0.019836 -0.099566
v -1.523640 0.001482 -0.293509
v -1.523241 0.094943 -0.083062
v -1.476183 0.122168 -0.293338
v -1.468017 0.152571 -0.099585
v -1.410837 0.176377 -0.102282
v -1.368417 0.166923 -0.293371
v -1.421498 0.155977 -0.292663
v -1.338123 0.180248 -0.093155
v -1.284579 0.162391 -0.081689
v -1.310136 0.155566 -0.290586
v -1.244759 0.135118 -0.075799
v -1.257797 0.120138 -0.292797
v -1.220223 0.103519 -0.119961
v -1.228281 0.074003 -0.294452
v -1.187116 0.041517 -0.038977
v -1.211881 -0.002738 -0.293865
v -1.266553 -0.145697 -0.038551
v -1.546114 -0.026359 0.005473
v -1.216458 0.043260 0.310267
v -1.313192 0.156005 0.310378
v -1.373977 0.168993 0.306660
v -1.446077 0.143480 0.310366
v -1.513899 0.058489 0.309785
v -1.423031 -0.148797 0.309991
v -1.369911 -0.160100 0.308184
v -1.511848 0.061780 -0.293369
v -1.526457 -0.082750 -0.087163
v -1.189600 -0.041362 0.016036
v -1.188442 -0.033024 -0.040938
vn -0.0022 0.8593 0.5114
vn 0.3528 0.9075 0.2280
vn 0.6465 0.7102 0.2788
vn 0.7483 -0.6520 0.1219
vn 0.3769 -0.9214 0.0950
vn 0.4340 -0.8994 0.0520
vn 0.7502 -0.6572 0.0728
vn 0.0141 0.6435 -0.7653
vn -0.0165 -0.1410 -0.9899
vn -0.0105 0.7733 -0.6339
vn 0.0010 0.0938 -0.9956
vn 0.0261 -0.1265 -0.9916
vn 0.5381 0.7901 -0.2936
vn 0.8050 0.3933 0.4441
vn 0.8041 0.3056 -0.5100
vn 0.7516 -0.5001 -0.4301
vn 0.5670 -0.8236 0.0134
vn 0.8030 -0.3552 0.4786
vn -0.0285 0.0357 0.9990
vn 0.7711 0.2424 0.5888
vn -0.1465 -0.8213 0.5514
vn -0.0123 0.5996 0.8002
vn 0.1178 0.4682 -0.8757
vn 0.1218 0.6800 0.7230
vn 0.3108 0.1282 0.9418
vn 0.0067 -0.8252 -0.5648
vn 0.0055 -0.8143 0.5805
vn 0.0149 -0.6558 0.7548
vn -0.0013 -0.8828 0.4697
vn 0.0124 -0.7243 -0.6893
vn 0.1056 -0.8176 -0.5661
vn 0.3030 -0.1504 -0.9411
vn 0.2603 -0.8406 0.4750
vn 0.1217 -0.4318 0.8937
vn 0.6489 0.6891 -0.3226
vn 0.5137 0.8573 -0.0333
vn 0.5541 -0.8308 0.0515
vn 0.7245 -0.6120 -0.3170
vn -0.0172 0.3067 -0.9517
vn -0.0284 -0.3548 -0.9345
vn 0.7605 0.0730 -0.6452
vn -0.0059 -0.1349 0.9908
vn 0.0216 0.1615 0.9866
vn -0.0189 -0.2642 0.9643
vn 0.0126 0.5880 -0.8088
vn 0.0082 0.5760 0.8174
vn 0.9596 -0.2366 0.1520
vn 0.9369 -0.3397 0.0825
vn 0.9948 0.0084 0.1015
vn -0.9712 -0.1958 0.1360
vn -0.9631 0.2581 0.0768
vn -0.9786 -0.1911 0.0760
vn -0.5851 0.4769 0.6558
vn -0.4644 0.8840 0.0530
vn -0.7879 0.6122 0.0670
vn 0.8970 0.4369 0.0676
vn 0.9603 0.2385 0.1449
vn 0.9540 -0.2851 -0.0928
vn 0.9874 -0.0494 -0.1501
vn 0.2195 -0.9748 -0.0395
vn 0.2465 -0.9610 -0.1253
vn 0.5124 -0.8531 -0.0988
vn -0.2032 -0.9755 -0.0839
vn -0.1902 -0.9811 -0.0346
vn -0.8428 -0.5254 -0.1171
vn -0.5756 -0.8158 -0.0558
vn -0.8856 -0.4603 -0.0616
vn -0.9901 -0.0508 -0.1312
vn -0.9258 0.3555 -0.1290
vn -0.8600 0.5084 -0.0428
vn -0.7063 0.6984 -0.1159
vn -0.5693 0.8209 -0.0446
vn -0.2248 0.9735 -0.0423
vn -0.3625 0.9266 -0.1004
vn 0.1455 0.9886 -0.0390
vn 0.3854 0.9180 -0.0935
vn -0.0066 0.9958 -0.0914
vn 0.9171 0.3772 -0.1290
vn 0.7847 -0.6175 -0.0547
vn 0.5518 -0.8339 -0.0107
vn -0.9818 -0.1897 0.0047
vn -0.9952 0.0674 -0.0714
vn 0.3764 0.9247 0.0576
vn 0.4520 0.8912 -0.0377
vn 0.6822 0.7285 0.0621
vn 0.6784 0.7343 -0.0259
vn -0.7684 -0.6377 0.0537
vn 0.8414 0.5347 -0.0781
vn 0.0228 -0.9986 0.0482
vn -0.0274 -0.9959 0.0867
vn -0.9380 0.2909 0.1885
vn -0.4985 0.8513 0.1636
vn -0.0558 0.9946 0.0876
vn 0.3759 0.9221 0.0918
vn -0.0288 0.9990 0.0345
vn 0.7272 0.6764 0.1170
vn 0.7865 -0.5962 -0.1612
vn -0.5337 -0.8404 -0.0947
vn -0.4006 -0.9144 0.0585
vn -0.3937 -0.9151 0.0867
vn -0.7425 -0.6608 0.1098
vn 0.7064 0.6991 -0.1110
vt 0.229291 0.184719
vt 0.036292 0.177294
vt 0.959632 0.184455
vt 0.984295 0.979871
vt 0.978258 0.980223
vt 0.979753 0.971893
vt 0.987515 0.974780
vt 0.373407 0.088867
vt 0.613312 0.062929
vt 0.615035 0.091732
vt 0.216452 0.071802
vt 0.369219 0.064612
vt 0.058788 0.644800
vt 0.021410 0.633468
vt 0.080746 0.630565
vt 0.076198 0.584294
vt 0.039283 0.574500
vt 0.017323 0.588757
vt 0.759292 0.216967
vt 0.962191 0.206157
vt 0.956897 0.244215
vt 0.644372 0.198918
vt 0.033826 0.112027
vt 0.024398 0.092853
vt 0.052331 0.080643
vt 0.048642 0.197266
vt 0.043059 0.215391
vt 0.024072 0.197984
vt 0.410702 0.342126
vt 0.613865 0.352251
vt 0.366929 0.354129
vt 0.225432 0.247215
vt 0.373376 0.240049
vt 0.669394 0.253192
vt 0.216854 0.334274
vt 0.046469 0.334592
vt 0.036739 0.351316
vt 0.025422 0.329352
vt 0.037727 0.254954
vt 0.024208 0.247517
vt 0.052444 0.232359
vt 0.957021 0.098666
vt 0.956760 0.136010
vt 0.031692 0.289412
vt 0.956014 0.280738
vt 0.961351 0.330777
vt 0.760347 0.089353
vt 0.760805 0.060152
vt 0.962645 0.072749
vt 0.216310 0.222930
vt 0.370777 0.215774
vt 0.629035 0.229112
vt 0.223577 0.096639
vt 0.228428 0.202250
vt 0.757269 0.338259
vt 0.847196 0.980900
vt 0.844377 0.972981
vt 0.852567 0.972149
vt 0.839918 0.980123
vt 0.836275 0.972383
vt 0.974016 0.906361
vt 0.961785 0.899338
vt 0.974367 0.898755
vt 0.986021 0.960981
vt 0.979958 0.953297
vt 0.988685 0.952717
vt 0.864008 0.970433
vt 0.859362 0.980380
vt 0.855223 0.962738
vt 0.845214 0.959568
vt 0.852190 0.951366
vt 0.924844 0.974805
vt 0.924447 0.966081
vt 0.931431 0.969767
vt 0.912602 0.966078
vt 0.913270 0.975961
vt 0.899775 0.966632
vt 0.902858 0.975037
vt 0.895900 0.977224
vt 0.982945 0.843899
vt 0.969220 0.834848
vt 0.982646 0.834838
vt 0.959610 0.834781
vt 0.955652 0.844370
vt 0.954553 0.834780
vt 0.940851 0.959056
vt 0.934437 0.956645
vt 0.936649 0.948023
vt 0.924855 0.956450
vt 0.928456 0.947779
vt 0.913108 0.956919
vt 0.908375 0.947911
vt 0.918064 0.947337
vt 0.858968 0.964338
vt 0.861456 0.951640
vt 0.845669 0.966296
vt 0.989900 0.965721
vt 0.985077 0.965803
vt 0.976061 0.965700
vt 0.973667 0.892632
vt 0.964251 0.892600
vt 0.956118 0.953452
vt 0.954029 0.947200
vt 0.962637 0.947200
vt 0.948604 0.953420
vt 0.946451 0.947130
vt 0.870435 0.972458
vt 0.870700 0.966020
vt 0.836658 0.960965
vt 0.973662 0.848478
vt 0.981874 0.848500
vt 0.967064 0.842946
vt 0.868126 0.960084
vt 0.857458 0.968790
vt 0.860489 0.967105
vt 0.851054 0.969516
vt 0.853671 0.969748
vt 0.041106 0.063177
vt 0.023687 0.055783
vt 0.968259 0.054100
vt 0.222543 0.054100
vt 0.967803 0.971931
vt 0.967395 0.980029
vt 0.959697 0.906366
vt 0.953430 0.899177
vt 0.980746 0.961800
vt 0.968651 0.961484
vt 0.956123 0.961126
vt 0.968143 0.951584
vt 0.867442 0.980185
vt 0.839820 0.952056
vt 0.935226 0.978419
vt 0.940276 0.977545
vt 0.905773 0.966420
vt 0.905361 0.957488
vt 0.951736 0.965700
vt 0.961594 0.965700
vt 0.956361 0.971861
vt 0.947052 0.971197
vt 0.956844 0.892609
vt 0.984598 0.897922
vt 0.940892 0.843597
vt 0.945022 0.850982
vt 0.934102 0.838255
vt 0.908676 0.896242
vt 0.915485 0.894479
vt 0.902270 0.903067
vt 0.945487 0.864095
vt 0.946599 0.853794
vt 0.848735 0.963338
vt 0.512799 0.679646
vt 0.606527 0.682329
vt 0.506772 0.697211
vt 0.956111 0.979640
vt 0.950571 0.979594
vt 0.984275 0.906459
vt 0.949055 0.961083
vt 0.953071 0.906425
vt 0.937298 0.966432
vt 0.899944 0.957816
vt 0.901156 0.947971
vt 0.897232 0.955156
vt 0.868406 0.952049
vt 0.986927 0.947200
vt 0.989900 0.947200
vt 0.976060 0.947200
vt 0.922253 0.980300
vt 0.898873 0.980300
vt 0.932862 0.961800
vt 0.922253 0.961800
s 1
usemtl Rubber_Mallet_1
f 1/1/1 3/2/2 6/3/3
f 43/4/4 46/5/5 45/6/6 44/7/7
f 35/8/8 18/9/9 17/10/10
f 35/8/8 20/11/11 19/12/12
f 4/13/13 7/14/14 24/15/15
f 24/15/15 7/14/14 13/16/16
f 9/17/17 13/16/16 27/18/18
f 32/19/19 34/20/20 39/21/21
f 32/19/19 31/22/22 34/20/20
f 34/20/20 31/22/22 6/3/3
f 4/23/13 24/24/15 22/25/23
f 36/26/24 25/27/25 7/28/14
f 37/29/26 18/30/9 19/31/12
f 8/32/27 38/33/28 10/34/29
f 21/35/30 37/29/26 19/31/12
f 12/36/31 23/37/32 13/38/16
f 11/39/33 27/40/18 26/41/34
f 88/42/35 5/43/36 17/10/10
f 9/44/17 101/45/37 102/46/38
f 39/21/21 101/45/37 10/34/29
f 15/47/39 16/48/40 14/49/41
f 17/10/10 18/9/9 15/47/39
f 38/33/28 29/50/42 30/51/43
f 31/22/22 33/52/44 30/51/43
f 33/52/44 32/19/19 39/21/21
f 17/10/10 2/53/45 35/8/8
f 25/27/25 36/26/24 28/54/46
f 28/54/46 36/26/24 1/1/1
f 3/2/2 1/1/1 36/26/24
f 33/52/44 10/34/29 38/33/28
f 23/37/32 12/36/31 21/35/30
f 18/30/9 37/29/26 16/55/40
f 102/46/38 16/55/40 37/29/26
f 40/56/47 42/57/48 41/58/49
f 40/56/47 43/59/4 42/57/48
f 43/59/4 44/60/7 42/57/48
f 51/61/50 53/62/51 52/63/52
f 54/64/53 56/65/54 55/66/55
f 41/58/49 61/67/56 92/68/57
f 14/69/41 62/70/58 89/71/59
f 66/72/60 67/73/61 65/74/62
f 69/75/63 67/73/61 68/76/64
f 72/77/65 70/78/66 100/79/67
f 100/80/67 74/81/68 72/82/65
f 99/83/69 75/84/70 76/85/71
f 75/86/70 77/87/72 76/88/71
f 78/89/73 80/90/74 77/87/72
f 81/91/75 83/92/76 79/93/77
f 89/71/59 88/94/35 14/69/41
f 88/94/35 89/71/59 87/95/78
f 42/57/48 44/60/7 101/96/37
f 63/97/79 44/7/7 90/98/80
f 90/98/80 45/6/6 66/99/60
f 91/100/81 52/63/52 73/101/82
f 58/102/83 82/103/84 81/104/75
f 60/105/85 84/106/86 82/103/84
f 60/107/85 61/67/56 84/108/86
f 62/70/58 101/96/37 63/109/79
f 91/110/81 100/80/67 50/111/87
f 91/110/81 73/112/82 100/80/67
f 84/108/86 61/67/56 86/113/88
f 88/94/35 86/113/88 61/67/56
f 6/114/3 5/115/36 61/67/56
f 6/114/3 61/67/56 41/58/49
f 39/116/21 34/117/20 41/58/49
f 3/2/2 7/28/14 4/23/13
f 5/43/36 3/2/2 4/23/13
f 6/3/3 3/2/2 5/43/36
f 13/38/16 9/44/17 12/36/31
f 8/32/27 10/34/29 101/45/37
f 9/44/17 37/29/26 21/35/30
f 9/44/17 11/39/33 8/32/27
f 22/25/23 24/24/15 23/118/32
f 24/24/15 13/119/16 23/118/32
f 27/18/18 13/16/16 7/14/14
f 25/27/25 28/54/46 29/50/42
f 26/41/34 27/40/18 25/27/25
f 27/40/18 7/28/14 25/27/25
f 28/54/46 30/51/43 29/50/42
f 38/33/28 30/51/43 33/52/44
f 22/25/23 20/11/11 2/53/45
f 88/42/35 17/10/10 15/47/39
f 3/2/2 36/26/24 7/28/14
f 26/41/34 29/50/42 8/32/27
f 9/44/17 27/40/18 11/39/33
f 15/47/39 18/9/9 16/48/40
f 2/53/45 17/10/10 4/23/13
f 17/10/10 5/43/36 4/23/13
f 37/29/26 9/44/17 102/46/38
f 8/32/27 101/45/37 9/44/17
f 21/35/30 12/36/31 9/44/17
f 16/48/40 102/120/38 14/49/41
f 35/8/8 19/12/12 18/9/9
f 21/121/30 19/12/12 20/11/11
f 23/118/32 21/121/30 20/11/11
f 20/11/11 35/8/8 2/53/45
f 1/1/1 6/3/3 31/22/22
f 14/49/41 88/42/35 15/47/39
f 29/50/42 38/33/28 8/32/27
f 92/68/57 40/56/47 41/58/49
f 47/122/89 46/5/5 98/123/90
f 47/122/89 45/6/6 46/5/5
f 53/62/51 96/124/91 55/125/55
f 54/64/53 95/126/92 56/65/54
f 56/65/54 95/126/92 94/127/93
f 94/127/93 93/128/94 58/102/83
f 57/129/95 94/127/93 58/102/83
f 59/130/96 61/67/56 60/107/85
f 64/131/97 62/70/58 63/109/79
f 89/71/59 62/70/58 64/131/97
f 90/132/80 65/74/62 63/133/79
f 67/73/61 66/72/60 68/76/64
f 72/77/65 71/134/98 70/78/66
f 73/112/82 99/83/69 74/81/68
f 100/80/67 73/112/82 74/81/68
f 75/84/70 99/83/69 73/112/82
f 78/89/73 79/93/77 80/90/74
f 82/135/84 83/92/76 81/91/75
f 79/93/77 78/89/73 81/91/75
f 101/96/37 44/60/7 63/109/79
f 45/6/6 90/98/80 44/7/7
f 70/136/66 68/137/64 48/138/99
f 47/122/89 48/138/99 68/137/64
f 48/138/99 50/139/87 70/136/66
f 73/101/82 53/62/51 75/140/70
f 91/100/81 50/141/87 52/63/52
f 73/101/82 52/63/52 53/62/51
f 53/62/51 55/125/55 75/140/70
f 57/129/95 58/102/83 81/104/75
f 58/102/83 60/105/85 82/103/84
f 54/142/53 96/143/91 95/144/92
f 65/145/62 67/146/61 64/147/97
f 51/148/50 96/143/91 53/149/51
f 61/67/56 5/115/36 88/94/35
f 62/70/58 14/69/41 102/150/38
f 41/58/49 42/57/48 101/96/37
f 101/96/37 62/70/58 102/150/38
f 34/117/20 6/114/3 41/58/49
f 41/151/49 101/152/37 39/153/21
f 29/50/42 26/41/34 25/27/25
f 32/19/19 33/52/44 31/22/22
f 31/22/22 30/51/43 28/54/46
f 31/22/22 28/54/46 1/1/1
f 4/23/13 22/25/23 2/53/45
f 11/39/33 26/41/34 8/32/27
f 20/11/11 22/25/23 23/118/32
f 10/34/29 33/52/44 39/21/21
f 97/154/100 48/138/99 47/122/89 98/123/90
f 49/155/101 50/139/87 48/138/99 97/154/100
f 51/61/50 52/63/52 50/141/87 49/156/101
f 59/157/96 60/105/85 58/102/83 93/128/94
f 55/125/55 96/124/91 54/158/53
f 94/127/93 57/129/95 56/65/54
f 69/75/63 68/76/64 70/78/66 71/134/98
f 61/67/56 59/130/96 92/68/57
f 64/159/97 63/133/79 65/74/62
f 82/135/84 84/160/86 85/161/102 83/92/76
f 77/87/72 80/90/74 76/88/71
f 84/160/86 86/162/88 85/161/102
f 86/113/88 88/94/35 87/95/78
f 87/95/78 85/163/102 86/113/88
f 66/99/60 45/6/6 47/122/89
f 77/164/72 55/66/55 56/65/54
f 55/66/55 77/164/72 75/165/70
f 78/166/73 56/65/54 57/129/95
f 66/72/60 65/74/62 90/132/80
f 68/76/64 66/72/60 47/167/89
f 70/78/66 50/168/87 100/79/67
f 78/89/73 77/87/72 56/169/54
f 81/91/75 78/89/73 57/170/95
o TapaIzq
v -1.217476 -0.035187 0.310471
v -1.254006 -0.109356 0.310517
v -1.314333 -0.150854 0.305913
v -1.478475 -0.111334 0.310796
v -1.521506 -0.028570 0.308690
v -1.256068 0.118811 0.308133
v -1.216458 0.043260 0.310267
v -1.313192 0.156005 0.310378
v -1.373977 0.168993 0.306660
v -1.446077 0.143480 0.310366
v -1.513899 0.058489 0.309785
v -1.423031 -0.148797 0.309991
v -1.369911 -0.160100 0.308184
vn 0.0870 0.0737 0.9935
vn 0.0076 0.0301 0.9995
vn 0.0086 0.0076 0.9999
vn -0.0625 -0.0071 0.9980
vn -0.0073 -0.0041 1.0000
vn -0.0184 0.0021 0.9998
vn 0.0218 -0.0955 0.9952
vn 0.0761 -0.2186 0.9728
vn 0.0079 -0.0236 0.9997
vn -0.0047 0.0208 0.9998
vn 0.0038 -0.0295 0.9996
vn 0.0007 0.0018 1.0000
vn -0.0184 0.1945 0.9807
vt 0.844938 0.174954
vt 0.954579 0.359407
vt 0.632401 0.049236
vt 0.435580 0.982016
vt 0.203844 0.849498
vt 0.677348 0.975972
vt 0.072663 0.519940
vt 0.105186 0.332375
vt 0.219733 0.173699
vt 0.913866 0.764712
vt 0.102365 0.681456
vt 0.426647 0.047673
vt 0.980085 0.546749
s 1
usemtl TextureIzq
f 108/171/103 110/172/104 109/173/105
f 107/174/106 106/175/107 113/176/108
f 115/177/109 105/178/110 104/179/111
f 113/176/108 106/175/107 112/180/112
f 114/181/113 104/179/111 106/175/107
f 103/182/114 106/175/107 104/179/111
f 111/183/115 112/180/112 110/172/104
f 115/177/109 104/179/111 114/181/113
f 110/172/104 106/175/107 109/173/105
f 112/180/112 106/175/107 110/172/104
f 109/173/105 106/175/107 103/182/114
o TapaDer
v -1.245688 -0.099288 -0.293613
v -1.329704 -0.156566 -0.292570
v -1.401191 -0.154909 -0.294419
v -1.450069 -0.134904 -0.292129
v -1.496013 -0.091185 -0.292901
v -1.523640 0.001482 -0.293509
v -1.476183 0.122168 -0.293338
v -1.368417 0.166923 -0.293371
v -1.421498 0.155977 -0.292663
v -1.310136 0.155566 -0.290586
v -1.257797 0.120138 -0.292797
v -1.228281 0.074003 -0.294452
v -1.211881 -0.002738 -0.293865
v -1.511848 0.061780 -0.293369
vn -0.0069 -0.0172 -0.9998
vn 0.0046 0.0084 -1.0000
vn 0.0091 -0.0105 -0.9999
vn 0.0246 -0.0542 -0.9982
vn -0.0046 0.0032 -1.0000
vn -0.0051 0.0073 -1.0000
vn -0.0069 0.0005 -1.0000
vn -0.0261 0.0622 -0.9977
vn 0.0039 0.0275 -0.9996
vn -0.0300 -0.0208 -0.9993
vn -0.0938 -0.1161 -0.9888
vn 0.0089 -0.0057 -0.9999
vn 0.0319 0.0631 -0.9975
vn 0.0825 0.1830 -0.9797
vt 0.043014 0.457054
vt 0.686290 0.946657
vt 0.223682 0.927685
vt 0.060569 0.680347
vt 0.616261 0.071642
vt 0.782162 0.167432
vt 0.456078 0.050607
vt 0.888674 0.335893
vt 0.922984 0.498233
vt 0.223705 0.146147
vt 0.092974 0.300574
vt 0.479202 1.003967
vt 0.802644 0.844542
vt 0.898560 0.681888
s 1
usemtl TextureDer
f 118/184/116 127/185/117 116/186/118
f 117/187/119 118/184/116 116/186/118
f 129/188/120 122/189/121 121/190/122
f 124/191/123 123/192/124 122/189/121
f 121/190/122 118/184/116 120/193/125
f 127/185/117 122/189/121 123/192/124
f 119/194/126 120/193/125 118/184/116
f 128/195/127 116/186/118 127/185/117
f 126/196/128 127/185/117 123/192/124
f 125/197/129 126/196/128 123/192/124
f 122/189/121 118/184/116 121/190/122
f 127/185/117 118/184/116 122/189/121
