# Blender 4.4.0
# www.blender.org
mtllib topos.mtl
o tripo_node_adfe7e0f-81ad-430d-b710-51059cf96a18.002
v 0.280924 0.726269 0.110054
v 0.382937 0.558535 0.083460
v 0.403917 0.522069 0.084744
v 0.261674 0.628924 0.172248
v 0.349394 0.513128 0.096418
v 0.358973 0.439645 -0.004112
v 0.469714 0.558359 -0.078627
v 0.230032 0.629294 -0.205810
v 0.344159 0.554414 -0.163113
v 0.380899 0.534274 -0.156382
v 0.315737 0.509658 -0.132743
v 0.288989 0.474873 -0.028231
v 0.357139 0.426755 -0.043896
v 0.235089 0.191842 -0.266238
v 0.255145 0.124318 -0.251806
v 0.263956 0.086423 -0.388337
v 0.237492 0.060466 -0.360107
v 0.293080 0.081157 -0.345324
v 0.290165 0.103558 -0.297320
v 0.326535 0.025161 -0.291716
v 0.284784 -0.164154 -0.281293
v 0.208432 -0.122772 -0.241537
v 0.230452 0.012261 -0.346891
v 0.355875 -0.157973 0.127913
v 0.364499 0.025718 0.232308
v 0.312063 0.086103 0.285303
v 0.315567 0.058431 0.331426
v 0.328146 -0.163106 0.224578
v 0.357859 -0.163515 0.184894
v 0.270965 -0.119524 0.138904
v 0.158794 -0.127660 0.065756
v 0.272373 0.097619 0.210412
v -0.071291 -0.021213 0.036172
v -0.004554 0.000444 0.205396
v 0.130745 -0.132285 -0.078164
v 0.085213 -0.026267 -0.275225
v -0.068435 -0.026206 -0.026636
v 0.109233 0.735739 -0.166934
v 0.159683 0.762347 -0.156309
v 0.144647 0.717032 0.163227
v 0.145659 0.820334 0.146293
v 0.244052 0.379775 0.154370
v 0.284732 0.665412 0.083380
v 0.301550 0.743320 0.027827
v 0.220663 0.807987 -0.014841
v 0.391268 0.580838 0.073661
v 0.391481 0.622267 -0.004079
v 0.450005 0.597562 0.028759
v 0.478370 0.620238 -0.043385
v 0.363732 0.563807 -0.149793
v 0.397511 0.611271 -0.092448
v 0.342113 0.639811 -0.028348
v 0.287783 0.744745 -0.091525
v 0.289432 0.613771 -0.115203
v 0.257336 0.720428 -0.157196
v 0.281169 0.519482 -0.251164
v 0.217644 0.376876 -0.192043
v 0.332810 0.076194 -0.247366
v 0.290192 0.016676 -0.328125
v 0.272132 -0.168846 -0.200373
v 0.234675 -0.119384 -0.180188
v 0.321365 -0.157090 -0.249915
v 0.346181 0.017411 0.274164
v 0.368748 0.074670 0.182318
v 0.346848 0.103165 0.241721
v 0.373223 0.090192 0.274079
v 0.287460 0.123258 0.211039
v 0.255806 0.234203 0.240448
v 0.282250 0.021209 0.312705
v 0.069379 -0.173868 0.050872
v 0.042044 -0.173524 0.197902
v 0.017612 -0.083243 0.085286
v 0.117541 -0.103288 0.034274
v 0.104514 -0.104915 -0.055182
v 0.205348 -0.152380 -0.293982
v 0.140049 0.821208 -0.180341
v 0.069389 0.751746 -0.199624
v 0.190777 0.754591 0.128927
v 0.135527 0.756965 0.144644
v 0.309127 0.525160 0.210744
v 0.017143 0.330465 0.209792
v 0.109186 0.755538 0.189864
v 0.115762 0.769077 0.107941
v 0.163312 0.807867 0.186755
v 0.311718 0.601337 0.061391
v 0.436253 0.543693 0.016942
v 0.431172 0.529542 -0.076206
v 0.028674 0.612792 0.157696
v 0.409256 0.470405 -0.080089
v -0.021623 0.613790 -0.124082
v 0.095948 0.757244 -0.137127
v 0.117412 0.763929 -0.226246
v 0.170327 0.532958 0.238120
v 0.382384 0.464982 -0.023274
v 0.142710 0.513391 -0.272839
v 0.013776 0.729452 -0.025186
v 0.308317 0.525432 -0.018379
v -0.044354 0.541535 0.029540
v 0.182815 0.430854 0.212376
v 0.042305 0.458379 0.180483
v 0.058063 0.452215 -0.219220
v -0.018981 0.400536 -0.177741
v 0.292056 0.362786 -0.019801
v 0.172747 0.414889 -0.227179
v 0.072690 0.245736 0.341314
v 0.265361 0.149426 0.356442
v -0.028244 0.266113 0.183293
v 0.192447 0.245387 -0.246318
v 0.383513 0.140362 0.082827
v 0.344178 0.195053 -0.150776
v 0.325224 0.065540 -0.176088
v 0.231962 -0.050733 -0.186958
v 0.137723 -0.104901 -0.242140
v 0.138246 0.132885 -0.277307
v -0.000514 0.230639 -0.339791
v 0.107602 0.244966 -0.369847
v 0.160609 0.065799 -0.341913
v 0.200688 0.053774 -0.393933
v 0.181803 0.289223 -0.294113
v 0.295983 0.155923 -0.336157
v 0.006504 0.207140 -0.239345
v 0.060102 0.185296 0.244309
v 0.379499 0.067625 -0.038440
v 0.011017 -0.178096 -0.094236
v -0.036139 0.067621 -0.220501
v 0.234119 -0.093191 -0.028227
v 0.334793 -0.037704 -0.042322
v 0.009342 -0.078524 -0.078507
v 0.009979 -0.163259 -0.207649
v 0.326367 -0.156731 -0.185474
v -0.075605 0.049079 0.115180
v 0.336842 0.171899 0.275904
v 0.274035 -0.035995 0.136555
v -0.086133 0.062864 -0.131253
v 0.106352 -0.018744 0.258773
v 0.216889 0.140044 0.236310
v 0.250455 0.066623 0.358980
v 0.188190 -0.109653 0.209764
v 0.257550 -0.134901 0.247025
vn 0.6103 -0.3276 0.7212
vn -0.0094 0.7338 0.6793
vn 0.4288 0.4447 0.7864
vn 0.5102 0.4690 0.7209
vn 0.6233 -0.0172 0.7818
vn 0.1510 0.9144 0.3757
vn 0.7693 -0.4728 -0.4297
vn 0.9384 0.3374 -0.0740
vn 0.9760 -0.1474 -0.1600
vn 0.4719 0.3410 0.8130
vn 0.3073 -0.9309 0.1975
vn -0.1016 -0.3474 0.9322
vn 0.3337 -0.8186 0.4674
vn 0.4484 -0.1338 -0.8838
vn 0.8357 -0.5090 -0.2061
vn 0.3753 -0.9180 0.1282
vn -0.1389 -0.5353 -0.8332
vn 0.5686 -0.6311 -0.5276
vn 0.1838 0.2291 -0.9559
vn -0.0565 -0.1750 -0.9829
vn 0.4390 0.5267 0.7279
vn -0.0332 0.2728 0.9615
vn 0.8635 -0.1413 0.4841
vn -0.0777 0.9672 -0.2417
vn 0.4140 0.6794 0.6058
vn -0.5783 0.8085 0.1095
vn -0.6899 -0.1853 0.6998
vn 0.1864 0.9824 -0.0123
vn 0.7259 0.4577 0.5134
vn 0.8197 0.5388 0.1945
vn 0.9389 0.1071 0.3271
vn 0.7152 0.5033 -0.4850
vn 0.5593 0.4734 -0.6805
vn 0.5824 0.4627 -0.6684
vn 0.6951 0.7182 -0.0312
vn 0.2276 0.7552 -0.6148
vn 0.2471 0.6567 -0.7125
vn -0.6924 0.2868 0.6620
vn 0.7689 -0.3151 -0.5563
vn 0.7931 0.6020 -0.0922
vn 0.3898 0.2411 0.8888
vn 0.4588 -0.1963 -0.8666
vn 0.5138 0.2271 -0.8273
vn 0.5695 -0.0360 -0.8212
vn 0.2420 0.7473 -0.6189
vn 0.4146 0.9062 -0.0826
vn -0.9034 -0.2306 -0.3616
vn -0.6508 0.7585 -0.0345
vn -0.3040 -0.1683 -0.9377
vn 0.3105 -0.1159 -0.9435
vn -0.0727 0.0838 0.9938
vn 0.8723 -0.2579 0.4155
vn 0.4912 -0.8211 -0.2906
vn 0.8246 -0.3680 -0.4296
vn -0.1740 0.0114 -0.9847
vn -0.8523 0.2816 -0.4407
vn -0.7431 0.6690 0.0125
vn 0.0122 -0.9868 0.1614
vn 0.3388 -0.9388 -0.0627
vn 0.9976 0.0205 -0.0656
vn -0.9661 0.1858 0.1793
vn 0.8439 -0.0567 0.5335
vn -0.6001 0.2244 0.7678
vn 0.2392 0.0681 0.9686
vn 0.3035 -0.0077 -0.9528
vn -0.4530 0.2528 -0.8549
vn 0.9901 -0.1225 -0.0689
vn -0.8637 0.2226 -0.4522
vn -0.7879 0.1061 0.6066
vn -0.7841 0.1918 0.5903
vn -0.5347 0.0463 0.8438
vn 0.6265 -0.0674 0.7765
vn 0.9470 0.0380 0.3188
vn 0.7388 0.4278 -0.5206
vn 0.7830 -0.0401 -0.6207
vn 0.9132 0.2633 -0.3111
vn 0.8617 0.2364 -0.4489
vn 0.4558 0.0496 -0.8887
vn -0.8431 -0.1719 -0.5096
vn -0.4803 -0.8531 0.2039
vn -0.7894 -0.0872 -0.6076
vn -0.0013 0.3663 -0.9305
vn 0.4205 -0.8432 0.3350
vn 0.8047 0.4815 -0.3473
vn 0.6433 -0.6228 0.4453
vn 0.1794 -0.9573 0.2268
vn 0.3588 -0.8641 0.3530
vn -0.6499 -0.2388 0.7215
vn 0.9767 -0.1901 -0.0993
vn 0.7765 -0.2576 -0.5750
vn 0.0693 -0.8917 0.4473
vn -0.6287 -0.5926 0.5036
vn -0.4684 -0.7459 0.4735
vn 0.4996 -0.3933 0.7718
vn -0.7026 -0.0374 -0.7106
vn -0.9674 -0.1071 -0.2296
vn 0.7590 0.6200 0.1986
vn 0.9080 0.3017 -0.2906
vn 0.3607 0.2970 0.8841
vn 0.7543 -0.6527 -0.0713
vn 0.7429 -0.5783 0.3372
vn 0.3093 -0.9509 -0.0119
vn 0.0982 -0.8785 -0.4676
vn -0.7797 -0.6239 -0.0539
vn -0.9230 -0.1859 0.3370
vn -0.8455 -0.5082 0.1640
vn -0.8080 -0.5770 -0.1190
vn 0.0071 -0.0930 -0.9956
vn 0.4399 -0.2530 -0.8617
vn -0.5476 -0.6697 -0.5017
vn 0.4821 -0.1314 -0.8662
vn -0.0470 -0.1498 0.9876
vn -0.7248 -0.2213 0.6524
vn -0.1804 -0.4959 0.8494
vn 0.2740 0.9463 -0.1715
vn 0.1981 0.2993 0.9333
vn 0.6776 -0.2079 0.7054
vn 0.3099 0.2775 0.9094
vn -0.5272 -0.7134 0.4616
vn 0.8771 -0.0992 -0.4700
vn 0.9343 -0.1824 0.3064
vn -0.3506 -0.6734 -0.6509
vn 0.9891 0.0149 0.1468
vn 0.6887 -0.5548 -0.4668
vn 0.0355 -0.7529 -0.6572
vn 0.1793 -0.9194 -0.3501
vn 0.2355 -0.8693 -0.4346
vn -0.2895 -0.3658 -0.8845
vn 0.1233 -0.9919 -0.0292
vn 0.6023 -0.4754 0.6413
vn 0.4943 -0.8654 0.0822
vn 0.3172 0.9366 0.1486
vn 0.2392 0.9153 -0.3241
vn 0.7438 -0.5233 0.4158
vn 0.7149 0.5866 -0.3806
vn 0.9840 -0.0245 -0.1762
vn 0.6857 0.6500 0.3276
vn 0.3814 -0.9191 0.0991
vn 0.9916 -0.0724 -0.1075
vn 0.5300 -0.6308 -0.5668
vt 0.299992 0.946479
vt 0.318123 0.939797
vt 0.316372 0.943977
vt 0.065314 0.851684
vt 0.014025 0.865232
vt 0.016507 0.801216
vt 0.692354 0.209575
vt 0.687524 0.172208
vt 0.698817 0.176390
vt 0.746906 0.440933
vt 0.756984 0.460442
vt 0.744306 0.477181
vt 0.613259 0.212007
vt 0.654800 0.186738
vt 0.626963 0.230966
vt 0.717746 0.958058
vt 0.713603 0.945671
vt 0.719139 0.924997
vt 0.236765 0.983141
vt 0.236839 0.988089
vt 0.229719 0.985990
vt 0.373621 0.432843
vt 0.314073 0.483676
vt 0.306932 0.450187
vt 0.777271 0.963450
vt 0.790518 0.980662
vt 0.775243 0.978277
vt 0.989046 0.086748
vt 0.991949 0.096359
vt 0.982843 0.095164
vt 0.973110 0.955328
vt 0.970455 0.931035
vt 0.976416 0.944133
vt 0.672761 0.703369
vt 0.670991 0.711634
vt 0.663254 0.691188
vt 0.134536 0.811916
vt 0.126127 0.836076
vt 0.109010 0.815667
vt 0.114955 0.773667
vt 0.132272 0.779721
vt 0.966180 0.484682
vt 0.963366 0.482343
vt 0.963075 0.473905
vt 0.673063 0.097731
vt 0.639803 0.116456
vt 0.628796 0.065397
vt 0.671812 0.216300
vt 0.697642 0.252487
vt 0.930248 0.388897
vt 0.941001 0.396383
vt 0.940518 0.432457
vt 0.682450 0.719727
vt 0.699536 0.694333
vt 0.714024 0.775185
vt 0.505022 0.928797
vt 0.525887 0.916977
vt 0.533061 0.943779
vt 0.745430 0.950259
vt 0.729629 0.944182
vt 0.736745 0.916731
vt 0.930495 0.435053
vt 0.906849 0.333675
vt 0.931843 0.331793
vt 0.923785 0.345534
vt 0.107329 0.741488
vt 0.094697 0.651561
vt 0.117306 0.724673
vt 0.970176 0.203027
vt 0.971365 0.218924
vt 0.955034 0.225581
vt 0.712964 0.982144
vt 0.702562 0.986151
vt 0.702737 0.971355
vt 0.954519 0.182870
vt 0.960680 0.182452
vt 0.960680 0.185413
vt 0.062619 0.639143
vt 0.073645 0.599077
vt 0.075440 0.633361
vt 0.558700 0.767426
vt 0.510041 0.796903
vt 0.513115 0.735830
vt 0.884273 0.169674
vt 0.909252 0.209096
vt 0.889761 0.197373
vt 0.883373 0.227304
vt 0.115936 0.958035
vt 0.121531 0.943491
vt 0.126766 0.944008
vt 0.112018 0.945913
vt 0.929108 0.289760
vt 0.057740 0.740879
vt 0.013185 0.700236
vt 0.072021 0.662246
vt 0.017116 0.625348
vt 0.033853 0.591006
vt 0.227284 0.948339
vt 0.213119 0.976008
vt 0.204149 0.957813
vt 0.975781 0.848717
vt 0.981048 0.846549
vt 0.980909 0.866510
vt 0.226453 0.094353
vt 0.148862 0.099135
vt 0.211819 0.025605
vt 0.601706 0.505960
vt 0.606236 0.560382
vt 0.581759 0.556674
vt 0.909489 0.666974
vt 0.938634 0.708079
vt 0.911431 0.705174
vt 0.600506 0.739236
vt 0.612508 0.783529
vt 0.870716 0.161017
vt 0.871091 0.203689
vt 0.826675 0.164061
vt 0.892612 0.552569
vt 0.872386 0.596562
vt 0.847497 0.550606
vt 0.601620 0.610011
vt 0.586294 0.605791
vt 0.260129 0.802299
vt 0.324135 0.710079
vt 0.298958 0.798456
vt 0.215505 0.210474
vt 0.033018 0.208927
vt 0.086534 0.113575
vt 0.221412 0.806474
vt 0.168657 0.864952
vt 0.218994 0.759807
vt 0.178402 0.767582
vt 0.537835 0.165309
vt 0.476807 0.180782
vt 0.478519 0.065823
vt 0.075296 0.534820
vt 0.018872 0.489573
vt 0.063337 0.467828
vt 0.131084 0.512224
vt 0.155934 0.449887
vt 0.163886 0.515206
vt 0.373997 0.728208
vt 0.393291 0.768894
vt 0.376373 0.784694
vt 0.513726 0.544348
vt 0.499914 0.574913
vt 0.497728 0.546003
vt 0.081514 0.574963
vt 0.356338 0.634337
vt 0.383546 0.546064
vt 0.382132 0.645739
vt 0.419113 0.984507
vt 0.409635 0.965713
vt 0.420921 0.959242
vt 0.506769 0.256037
vt 0.503364 0.241632
vt 0.533564 0.219437
vt 0.396774 0.620853
vt 0.100774 0.531216
vt 0.124578 0.540961
vt 0.836450 0.324272
vt 0.848623 0.378010
vt 0.850190 0.395881
vt 0.197330 0.514888
vt 0.182856 0.532599
vt 0.166000 0.547524
vt 0.419947 0.930903
vt 0.408254 0.954117
vt 0.408312 0.914631
vt 0.976358 0.413525
vt 0.973434 0.401552
vt 0.982782 0.402413
vt 0.387596 0.069624
vt 0.344049 0.085550
vt 0.367197 0.018233
vt 0.843736 0.672744
vt 0.826520 0.730788
vt 0.773437 0.698382
vt 0.146487 0.610442
vt 0.199442 0.660076
vt 0.140634 0.660089
vt 0.732446 0.831273
vt 0.740666 0.811893
vt 0.761156 0.828178
vt 0.634769 0.896748
vt 0.646072 0.922420
vt 0.636218 0.928133
vt 0.154696 0.341686
vt 0.100563 0.342613
vt 0.558100 0.155945
vt 0.542385 0.108616
vt 0.592728 0.148098
vt 0.432224 0.789799
vt 0.467157 0.754730
vt 0.473851 0.810071
vt 0.689622 0.550390
vt 0.729963 0.566897
vt 0.707193 0.609893
vt 0.688751 0.497710
vt 0.749104 0.507633
vt 0.417184 0.869395
vt 0.429585 0.834987
vt 0.447704 0.848588
vt 0.029197 0.317929
vt 0.416131 0.736261
vt 0.666359 0.372124
vt 0.681739 0.387675
vt 0.667558 0.405734
vt 0.487924 0.626506
vt 0.473425 0.667691
vt 0.480551 0.530992
vt 0.271671 0.377957
vt 0.301461 0.339537
vt 0.455328 0.694886
vt 0.500672 0.837960
vt 0.521943 0.880863
vt 0.508053 0.902776
vt 0.356938 0.179628
vt 0.390110 0.160285
vt 0.792435 0.618709
vt 0.764073 0.589173
vt 0.799425 0.517904
vt 0.872170 0.993147
vt 0.874732 0.987638
vt 0.875194 0.993556
vt 0.713733 0.829709
vt 0.715464 0.867131
vt 0.667618 0.868050
vt 0.666460 0.822157
vt 0.317490 0.195864
vt 0.276656 0.131864
vt 0.386122 0.250775
vt 0.369160 0.234422
vt 0.968735 0.031452
vt 0.967179 0.004866
vt 0.973759 0.006578
vt 0.791948 0.302131
vt 0.809258 0.335288
vt 0.808694 0.385820
vt 0.808616 0.281591
vt 0.814153 0.301172
vt 0.330647 0.519851
vt 0.330703 0.667193
vt 0.301520 0.668103
vt 0.312370 0.254647
vt 0.561148 0.194387
vt 0.586663 0.867577
vt 0.584927 0.842291
vt 0.597812 0.874563
vt 0.887409 0.618600
vt 0.896281 0.613847
vt 0.890610 0.643878
vt 0.947258 0.506763
vt 0.952994 0.489663
vt 0.958274 0.523886
vt 0.950419 0.323263
vt 0.937312 0.286689
vt 0.951811 0.283140
vt 0.196027 0.920079
vt 0.177666 0.895244
vt 0.199538 0.896731
vt 0.175077 0.938396
vt 0.959850 0.960153
vt 0.947064 0.928830
vt 0.959625 0.934920
vt 0.931835 0.631196
vt 0.934350 0.638826
vt 0.925971 0.642353
vt 0.981459 0.236951
vt 0.989962 0.236988
vt 0.985505 0.253803
vt 0.435445 0.637931
vt 0.441386 0.517039
vt 0.919571 0.010740
vt 0.902630 0.055100
vt 0.862410 0.007201
vt 0.815680 0.021640
vt 0.812264 0.101301
vt 0.808322 0.029653
vt 0.856943 0.074106
vt 0.870650 0.054304
vt 0.868529 0.083217
vt 0.868532 0.761738
vt 0.806226 0.776583
vt 0.711257 0.619194
vt 0.745556 0.605339
vt 0.779920 0.745627
vt 0.535493 0.871723
vt 0.551906 0.841918
vt 0.546775 0.890098
vt 0.937811 0.352162
vt 0.947692 0.330387
vt 0.949427 0.364318
vt 0.955598 0.637662
vt 0.964843 0.612605
vt 0.970734 0.635442
vt 0.649314 0.031822
vt 0.671659 0.013347
vt 0.694877 0.032703
vt 0.736552 0.980007
vt 0.735772 0.961526
vt 0.745319 0.969523
vt 0.978333 0.283564
vt 0.979522 0.307441
vt 0.971932 0.286125
vt 0.123247 0.934140
vt 0.115935 0.894940
vt 0.122745 0.899676
vt 0.932591 0.261642
vt 0.931658 0.275347
vt 0.922746 0.269526
vt 0.012906 0.978880
vt 0.006775 0.963893
vt 0.026571 0.958077
vt 0.048978 0.964543
vt 0.052004 0.952377
vt 0.057418 0.977167
vt 0.912925 0.128163
vt 0.922144 0.120291
vt 0.922745 0.129250
vt 0.085529 0.791074
vt 0.056832 0.767046
vt 0.709383 0.046991
vt 0.684390 0.074115
vt 0.795535 0.797292
vt 0.823593 0.849817
vt 0.774393 0.809116
vt 0.783147 0.833093
vt 0.907653 0.110483
vt 0.896215 0.129705
vt 0.888102 0.122413
vt 0.486745 0.236872
vt 0.480556 0.255335
vt 0.462841 0.247213
vt 0.051377 0.792109
vt 0.299613 0.918759
vt 0.328606 0.914153
vt 0.685986 0.980979
vt 0.698989 0.967496
vt 0.697890 0.985602
vt 0.685326 0.928103
vt 0.704570 0.937855
vt 0.693856 0.956218
vt 0.893285 0.236855
vt 0.907268 0.264039
vt 0.880882 0.258332
vt 0.656259 0.987329
vt 0.660881 0.970715
vt 0.671172 0.980093
vt 0.859597 0.802180
vt 0.872981 0.829311
vt 0.526932 0.686726
vt 0.503687 0.689870
vt 0.815820 0.612169
vt 0.825714 0.620071
vt 0.823617 0.644611
vt 0.759623 0.919925
vt 0.708260 0.117012
vt 0.671176 0.155998
vt 0.078625 0.983291
vt 0.080678 0.982427
vt 0.079700 0.990698
vt 0.771448 0.449095
vt 0.782004 0.441260
vt 0.781313 0.462786
vt 0.270118 0.983818
vt 0.260311 0.960898
vt 0.279605 0.971520
vt 0.977833 0.497205
vt 0.977611 0.509376
vt 0.968981 0.516543
vt 0.765573 0.694567
vt 0.913318 0.160463
vt 0.736249 0.172043
vt 0.759299 0.165197
vt 0.727047 0.198396
vt 0.663660 0.782053
vt 0.054208 0.824090
vt 0.070153 0.824707
vt 0.565736 0.500122
vt 0.562707 0.516596
vt 0.571825 0.541971
vt 0.721501 0.237981
vt 0.730554 0.230043
vt 0.739873 0.268946
vt 0.353626 0.859328
vt 0.370529 0.868541
vt 0.360110 0.904030
vt 0.141620 0.975480
vt 0.140848 0.953829
vt 0.150167 0.976499
vt 0.880677 0.360935
vt 0.863163 0.382601
vt 0.859675 0.374078
vt 0.121210 0.050021
vt 0.531379 0.812433
vt 0.832952 0.601246
vt 0.260790 0.738952
vt 0.259888 0.706792
vt 0.410534 0.264079
vt 0.417017 0.225316
vt 0.436365 0.238186
vt 0.241403 0.836132
vt 0.508249 0.023194
vt 0.938356 0.231506
vt 0.924352 0.246467
vt 0.931008 0.204754
vt 0.078257 0.388396
vt 0.751961 0.308049
vt 0.718473 0.401872
vt 0.722027 0.302933
vt 0.420729 0.083235
vt 0.923274 0.528469
vt 0.905740 0.518448
vt 0.906058 0.513784
vt 0.244118 0.405280
vt 0.223115 0.394525
vt 0.239105 0.370980
vt 0.136667 0.373784
vt 0.362871 0.528921
vt 0.514922 0.656047
vt 0.500409 0.669378
vt 0.504339 0.629314
vt 0.391670 0.805287
vt 0.352176 0.817790
vt 0.529545 0.268583
vt 0.237409 0.565618
vt 0.247600 0.549755
vt 0.239861 0.583363
vt 0.975964 0.355775
vt 0.971597 0.337208
vt 0.977432 0.336667
vt 0.182199 0.564786
vt 0.194729 0.575825
vt 0.822829 0.353060
vt 0.803349 0.442040
vt 0.797982 0.474868
vt 0.794024 0.433809
vt 0.197662 0.551303
vt 0.204367 0.539789
vt 0.508173 0.222762
vt 0.228781 0.286100
vt 0.217966 0.246391
vt 0.242815 0.298753
vt 0.590392 0.057485
vt 0.757281 0.860861
vt 0.345976 0.373143
vt 0.388881 0.387883
vt 0.380708 0.332641
vt 0.280522 0.289402
vt 0.535176 0.118014
vt 0.616535 0.331191
vt 0.577761 0.370392
vt 0.561508 0.294079
vt 0.655718 0.597605
vt 0.724560 0.490244
vt 0.785459 0.138351
vt 0.789903 0.039801
vt 0.790225 0.126119
vt 0.883963 0.401524
vt 0.900575 0.418394
vt 0.869999 0.431195
vt 0.905197 0.756739
vt 0.923991 0.748261
vt 0.919677 0.785652
vt 0.980726 0.906970
vt 0.978863 0.886119
vt 0.991314 0.898052
vt 0.230612 0.513881
vt 0.767231 0.148563
vt 0.726355 0.137033
vt 0.756718 0.122162
vt 0.812970 0.327344
vt 0.634583 0.393843
vt 0.694628 0.331974
vt 0.694059 0.347255
vt 0.966782 0.120667
vt 0.947539 0.133680
vt 0.948685 0.112377
vt 0.275227 0.525923
vt 0.282544 0.658334
vt 0.260491 0.605668
vt 0.556974 0.412205
vt 0.582488 0.434786
vt 0.287282 0.101734
vt 0.578992 0.380263
vt 0.614349 0.424533
vt 0.982612 0.103995
vt 0.978984 0.126763
vt 0.976076 0.101778
vt 0.244623 0.502473
vt 0.588535 0.199250
vt 0.954690 0.884044
vt 0.949702 0.916943
vt 0.948366 0.882096
vt 0.360509 0.941181
vt 0.353394 0.951785
vt 0.356408 0.913332
vt 0.872102 0.465613
vt 0.271337 0.500697
vt 0.528878 0.403881
vt 0.492923 0.416576
vt 0.522958 0.329569
vt 0.840787 0.112499
vt 0.829461 0.071087
vt 0.839413 0.010828
vt 0.421300 0.664931
vt 0.595337 0.970591
vt 0.600247 0.980416
vt 0.594148 0.985719
vt 0.890174 0.086682
vt 0.947122 0.609622
vt 0.943843 0.643579
vt 0.941751 0.607810
vt 0.453460 0.668594
vt 0.354698 0.834436
vt 0.917339 0.801452
vt 0.935865 0.842040
vt 0.910096 0.833511
vt 0.253860 0.465317
vt 0.253911 0.450243
vt 0.255904 0.445542
vt 0.341638 0.754144
vt 0.330182 0.760880
vt 0.823973 0.085590
vt 0.820904 0.108988
vt 0.640516 0.011755
vt 0.669467 0.679136
vt 0.696734 0.658508
vt 0.979507 0.588654
vt 0.978111 0.561296
vt 0.982385 0.566797
vt 0.520738 0.954831
vt 0.984364 0.539899
vt 0.983984 0.525328
vt 0.989781 0.533708
vt 0.579288 0.271417
vt 0.573731 0.273608
vt 0.554032 0.239177
vt 0.767500 0.422782
vt 0.771123 0.328688
vt 0.286407 0.689084
vt 0.574455 0.815869
vt 0.195308 0.481714
vt 0.632787 0.187382
vt 0.441350 0.341387
vt 0.472739 0.329164
vt 0.450458 0.376788
vt 0.274459 0.858240
vt 0.280486 0.882435
vt 0.258357 0.856822
vt 0.989246 0.701733
vt 0.977387 0.707156
vt 0.978909 0.691938
vt 0.569581 0.884472
vt 0.565923 0.839296
vt 0.981090 0.017648
vt 0.989165 0.007683
vt 0.993597 0.021472
vt 0.966629 0.524412
vt 0.976146 0.535131
vt 0.968533 0.551900
vt 0.473138 0.401725
vt 0.209385 0.603817
vt 0.241962 0.633142
vt 0.619865 0.116701
s 1
usemtl tripo_mat_adfe7e0f-81ad-430d-b710-51059cf96a18.001
f 3/1/1 46/2/2 2/3/3
f 4/4/4 80/5/5 2/6/3
f 47/7/6 2/8/3 46/9/2
f 11/10/7 12/11/8 13/12/9
f 14/13/10 114/14/11 15/15/12
f 59/16/13 16/17/14 18/18/15
f 16/19/14 17/20/16 118/21/17
f 112/22/18 113/23/19 36/24/20
f 84/25/21 40/26/22 79/27/23
f 41/28/24 78/29/25 83/30/26
f 40/31/22 84/32/21 82/33/27
f 79/34/23 40/35/22 78/36/25
f 45/37/28 78/38/25 1/39/29
f 1/39/29 44/40/30 45/41/28
f 1/42/29 43/43/31 44/44/30
f 54/45/32 8/46/33 55/47/34
f 2/8/3 47/7/6 52/48/35
f 52/48/35 47/7/6 51/49/36
f 52/50/35 51/51/36 50/52/37
f 40/53/22 83/54/26 88/55/38
f 7/56/39 49/57/40 48/58/41
f 10/59/42 50/60/37 51/61/36
f 52/50/35 50/52/37 9/62/43
f 9/63/43 54/64/32 52/65/35
f 56/66/44 39/67/45 8/68/33
f 76/69/46 77/70/47 91/71/48
f 77/72/47 38/73/49 91/74/48
f 77/75/47 92/76/50 38/77/49
f 91/78/48 45/79/28 39/80/45
f 93/81/51 80/82/5 4/83/4
f 86/84/52 89/85/53 87/86/54
f 87/86/54 89/85/53 10/87/42
f 11/88/7 10/89/42 89/90/53
f 11/88/7 9/91/43 10/89/42
f 54/64/32 9/63/43 8/92/33
f 95/93/55 90/94/56 38/95/49
f 90/94/56 96/96/57 91/78/48
f 96/96/57 83/97/26 91/78/48
f 11/98/7 94/99/58 97/100/59
f 13/101/9 12/102/8 6/103/60
f 90/104/56 98/105/61 96/106/57
f 80/107/5 42/108/62 6/109/60
f 98/110/61 100/111/63 88/112/38
f 93/81/51 88/113/38 100/114/63
f 99/115/64 42/116/62 80/117/5
f 104/118/65 101/119/66 95/120/55
f 103/121/67 13/122/9 42/108/62
f 103/123/67 56/124/44 13/125/9
f 102/126/68 98/105/61 90/104/56
f 98/105/61 107/127/69 100/128/63
f 81/129/70 105/130/71 100/131/63
f 100/131/63 105/130/71 99/132/64
f 32/133/72 109/134/73 42/135/62
f 119/136/74 104/137/65 57/138/75
f 108/139/76 110/140/77 15/141/78
f 121/142/79 117/143/80 114/144/11
f 115/145/81 117/146/80 121/147/79
f 119/136/74 116/148/82 104/137/65
f 118/149/17 116/150/82 16/151/14
f 23/152/83 17/153/16 117/154/80
f 17/155/16 18/156/15 15/157/12
f 16/151/14 116/150/82 120/158/84
f 119/136/74 108/159/76 14/160/10
f 14/161/10 15/162/12 58/163/85
f 58/164/85 19/165/86 120/166/84
f 18/167/15 20/168/87 19/169/86
f 58/170/85 15/171/12 19/172/86
f 107/173/69 122/174/88 81/175/70
f 109/176/73 123/177/89 110/178/77
f 111/179/90 112/180/18 15/181/78
f 74/182/91 128/183/92 124/184/93
f 113/185/19 112/186/18 35/187/94
f 102/126/68 125/188/95 134/189/96
f 132/190/97 68/191/98 106/192/99
f 127/193/100 133/194/101 126/195/102
f 73/196/103 74/197/91 126/198/102
f 72/199/104 128/200/92 74/197/91
f 128/201/92 134/202/96 124/203/93
f 131/204/105 98/105/61 134/189/96
f 109/205/73 133/194/101 127/193/100
f 33/206/106 37/207/107 72/208/104
f 75/209/108 21/210/109 129/211/110
f 36/24/20 125/212/95 121/213/79
f 131/204/105 107/127/69 98/105/61
f 133/194/101 109/205/73 32/214/72
f 133/215/101 31/216/111 73/217/103
f 135/218/112 122/174/88 34/219/113
f 137/220/114 106/221/99 105/222/71
f 30/223/115 139/224/116 28/225/117
f 138/226/118 139/227/116 30/228/115
f 30/228/115 31/229/111 138/226/118
f 138/230/118 32/231/72 135/218/112
f 135/218/112 71/232/119 138/233/118
f 24/234/120 30/235/115 29/236/121
f 70/237/122 31/238/111 24/239/120
f 72/240/104 73/241/103 70/237/122
f 70/242/122 24/243/120 29/244/121
f 71/232/119 139/245/116 138/233/118
f 106/192/99 66/246/123 132/190/97
f 65/247/124 132/248/97 66/249/123
f 26/250/125 66/251/123 63/252/126
f 66/253/123 26/254/125 25/255/127
f 25/256/127 26/257/125 65/258/124
f 26/259/125 67/260/128 65/261/124
f 67/260/128 26/259/125 69/262/129
f 63/263/126 27/264/130 26/265/125
f 106/266/99 137/267/114 27/268/130
f 26/269/125 27/270/130 69/271/129
f 21/210/109 60/272/131 124/273/93
f 35/274/94 61/275/132 113/276/19
f 75/277/108 113/278/19 22/279/133
f 75/280/108 22/281/133 21/282/109
f 123/177/89 109/176/73 127/283/100
f 123/177/89 127/283/100 111/284/90
f 126/285/102 74/197/91 112/286/18
f 111/284/90 110/287/77 123/177/89
f 35/288/94 112/289/18 74/290/91
f 12/291/8 5/292/134 6/293/60
f 51/294/36 49/295/40 7/296/39
f 53/297/135 44/298/30 52/299/35
f 10/300/42 9/301/43 50/302/37
f 17/303/16 23/304/83 118/305/17
f 62/306/136 61/307/132 60/308/131
f 29/309/121 30/310/115 28/311/117
f 83/312/26 82/313/27 41/314/24
f 84/315/21 41/316/24 82/317/27
f 82/318/27 83/319/26 40/320/22
f 43/321/31 52/322/35 44/40/30
f 53/297/135 52/323/35 54/324/32
f 55/47/34 53/297/135 54/324/32
f 39/325/45 45/326/28 55/327/34
f 55/327/34 45/326/28 53/328/135
f 84/329/21 79/330/23 78/331/25
f 1/332/29 4/333/4 43/334/31
f 52/322/35 43/321/31 85/335/137
f 46/2/2 86/336/52 47/337/6
f 3/1/1 86/336/52 46/2/2
f 48/338/41 47/339/6 86/340/52
f 49/341/40 47/342/6 48/343/41
f 51/344/36 47/345/6 49/346/40
f 87/347/54 51/348/36 7/349/39
f 91/350/48 83/351/26 45/326/28
f 40/352/22 93/81/51 78/353/25
f 93/81/51 4/83/4 78/353/25
f 78/38/25 4/4/4 1/39/29
f 52/354/35 85/355/137 2/356/3
f 51/61/36 87/357/54 10/59/42
f 8/46/33 9/358/43 56/359/44
f 38/95/49 90/94/56 91/78/48
f 39/360/45 76/361/46 91/362/48
f 92/363/50 76/364/46 38/365/49
f 38/366/49 76/367/46 39/368/45
f 76/369/46 92/370/50 77/371/47
f 83/54/26 96/372/57 88/55/38
f 86/84/52 3/373/1 89/85/53
f 3/374/1 5/375/134 94/376/58
f 38/95/49 39/67/45 95/93/55
f 88/55/38 93/377/51 40/53/22
f 4/4/4 85/378/137 43/379/31
f 2/380/3 80/107/5 5/381/134
f 80/107/5 6/109/60 5/382/134
f 89/383/53 94/384/58 11/385/7
f 97/386/59 12/387/8 11/388/7
f 5/389/134 97/390/59 94/391/58
f 13/392/9 56/393/44 11/394/7
f 39/67/45 56/66/44 95/93/55
f 98/105/61 88/395/38 96/106/57
f 93/81/51 99/396/64 80/82/5
f 95/120/55 101/119/66 90/397/56
f 56/124/44 57/398/75 104/399/65
f 101/400/66 102/401/68 90/402/56
f 100/131/63 107/403/69 81/129/70
f 99/404/64 68/191/98 42/135/62
f 106/192/99 68/191/98 99/404/64
f 68/405/98 136/406/138 42/407/62
f 103/408/67 110/140/77 57/138/75
f 101/409/66 115/410/81 102/411/68
f 42/135/62 109/134/73 103/412/67
f 108/413/76 119/414/74 57/415/75
f 102/126/68 134/189/96 98/105/61
f 122/416/88 105/417/71 81/418/70
f 103/408/67 109/419/73 110/140/77
f 110/140/77 108/139/76 57/138/75
f 118/149/17 115/420/81 116/150/82
f 120/166/84 116/148/82 119/136/74
f 118/421/17 23/422/83 117/423/80
f 114/144/11 117/424/80 15/425/12
f 15/157/12 117/426/80 17/155/16
f 18/427/15 17/428/16 59/429/13
f 59/430/13 17/431/16 16/432/14
f 119/136/74 14/160/10 120/166/84
f 120/166/84 18/433/15 16/434/14
f 120/435/84 14/161/10 58/163/85
f 19/436/86 20/437/87 120/438/84
f 18/439/15 120/166/84 20/440/87
f 15/157/12 18/156/15 19/441/86
f 118/421/17 117/423/80 115/145/81
f 121/442/79 102/443/68 115/444/81
f 106/192/99 99/404/64 105/445/71
f 74/182/91 124/184/93 35/446/94
f 36/24/20 121/213/79 114/447/11
f 36/24/20 15/448/78 112/22/18
f 114/447/11 108/449/76 36/24/20
f 121/213/79 125/212/95 102/450/68
f 136/451/138 32/133/72 42/135/62
f 73/196/103 72/199/104 74/197/91
f 21/210/109 124/273/93 129/211/110
f 107/173/69 34/219/113 122/174/88
f 131/452/105 34/453/113 107/454/69
f 126/198/102 133/455/101 73/196/103
f 37/456/107 128/200/92 72/199/104
f 124/457/93 130/458/139 35/459/94
f 136/460/138 68/461/98 67/462/128
f 133/463/101 138/464/118 31/465/111
f 69/466/129 122/467/88 136/468/138
f 122/416/88 137/469/114 105/417/71
f 67/470/128 69/471/129 136/472/138
f 31/473/111 70/237/122 73/241/103
f 131/452/105 33/206/106 72/474/104
f 131/452/105 134/475/96 33/206/106
f 37/476/107 33/206/106 134/475/96
f 138/477/118 133/478/101 32/479/72
f 71/480/119 28/481/117 139/482/116
f 72/474/104 34/453/113 131/452/105
f 135/483/112 34/453/113 71/484/119
f 135/218/112 136/485/138 122/174/88
f 32/231/72 136/485/138 135/218/112
f 34/486/113 72/487/104 71/484/119
f 28/481/117 71/480/119 29/244/121
f 24/488/120 31/489/111 30/490/115
f 71/480/119 70/242/122 29/244/121
f 69/491/129 137/469/114 122/416/88
f 66/246/123 106/192/99 27/492/130
f 27/493/130 63/494/126 66/495/123
f 66/496/123 25/497/127 65/498/124
f 64/499/140 67/462/128 68/461/98
f 36/24/20 113/23/19 129/500/110
f 36/501/20 129/502/110 125/503/95
f 130/504/139 61/505/132 35/506/94
f 124/273/93 60/272/131 130/507/139
f 22/281/133 113/276/19 61/275/132
f 130/508/139 60/509/131 61/510/132
f 22/281/133 61/275/132 62/511/136
f 22/512/133 62/513/136 21/514/109
f 21/210/109 62/515/136 60/272/131
f 97/386/59 5/516/134 12/387/8
f 4/517/4 2/518/3 85/519/137
f 2/520/3 5/521/134 3/522/1
f 9/523/43 11/524/7 56/124/44
f 36/24/20 108/449/76 15/448/78
f 75/525/108 129/526/110 113/278/19
f 45/527/28 44/298/30 53/297/135
f 83/54/26 78/528/25 45/529/28
f 78/530/25 41/531/24 84/532/21
f 7/56/39 48/58/41 86/533/52
f 7/534/39 86/535/52 87/536/54
f 94/537/58 89/538/53 3/539/1
f 116/540/82 101/409/66 104/541/65
f 13/122/9 6/109/60 42/108/62
f 95/542/55 56/124/44 104/399/65
f 93/81/51 100/114/63 99/543/64
f 56/124/44 103/123/67 57/398/75
f 110/140/77 111/544/90 15/141/78
f 114/14/11 14/13/10 108/545/76
f 37/546/107 134/547/96 128/548/92
f 134/547/96 125/503/95 129/502/110
f 72/549/104 70/550/122 71/551/119
f 65/552/124 64/553/140 132/554/97
f 132/248/97 64/555/140 68/556/98
f 65/557/124 67/558/128 64/559/140
f 27/560/130 137/561/114 69/562/129
f 124/563/93 134/547/96 129/502/110
f 127/564/100 126/565/102 112/180/18
f 112/180/18 111/179/90 127/564/100
f 39/566/45 55/47/34 8/46/33
f 116/540/82 115/410/81 101/409/66
