# Blender 4.3.2
# www.blender.org
mtllib Arbol_lp.mtl
o Mball.008_Mesh
v 3.870886 6.048563 -0.661209
v 1.843770 6.629549 -1.882939
v 0.168689 8.744901 -2.070587
v -0.255133 3.748388 -2.317611
v 1.216281 4.750728 -1.542721
v 3.223927 4.576953 -1.495441
v 3.097288 4.122898 0.398360
v 1.245605 8.024671 -0.379789
v 0.953973 6.941767 0.674267
v 0.728490 6.772369 2.426385
v 2.383498 6.950780 1.163323
v 1.885863 5.633073 2.520027
v -0.288059 3.947419 2.584211
v 1.354970 4.605629 1.590215
v 1.025129 4.254379 -0.712204
v 0.149853 5.617278 0.238916
v -0.453475 5.741386 3.619430
v -0.774721 8.144461 0.048687
v -0.145047 7.136046 -2.817025
v -1.501913 4.481139 -1.221464
v -1.534290 6.303404 2.026697
v -3.956670 6.608847 0.649126
v -2.800119 7.205980 -1.177694
v -3.553645 5.431287 -1.532064
v -3.188772 4.096610 0.064500
v -1.073634 4.763977 1.298031
vn 0.4954 0.7261 -0.4768
vn 0.3492 -0.2786 -0.8947
vn 0.6371 -0.7173 -0.2820
vn 0.0075 -0.1806 -0.9835
vn 0.5542 -0.6975 0.4543
vn -0.2138 0.9746 0.0667
vn -0.5154 -0.2323 -0.8249
vn -0.4617 0.4458 -0.7668
vn -0.8305 -0.3338 0.4458
vn -0.8739 -0.3954 0.2828
vn -0.3229 -0.4821 0.8144
vn -0.4971 -0.3379 0.7992
vn -0.8212 0.4248 -0.3811
vn -0.9575 -0.2876 -0.0216
vn -0.1636 -0.8960 0.4129
vn 0.1238 0.9389 0.3211
vn 0.3652 -0.4398 0.8205
vn 0.0792 -0.8190 -0.5683
vn -0.2061 -0.6456 0.7354
vn -0.2320 0.7098 0.6651
vn 0.0610 -0.9715 -0.2289
vn -0.0613 -0.8505 -0.5224
vn 0.5487 0.2165 -0.8075
vn 0.8336 -0.0549 -0.5496
vn 0.8785 -0.1248 -0.4611
vn 0.8073 0.2470 0.5360
vn 0.1935 0.6571 0.7286
vn 0.4737 0.5385 0.6968
vn -0.0375 0.9951 0.0914
vn -0.1531 -0.9734 0.1704
vn 0.3940 0.4654 0.7926
vn -0.0276 -0.8119 -0.5832
vn -0.2581 0.8427 0.4725
vn -0.6854 -0.0843 -0.7232
vn 0.5694 -0.8220 -0.0045
vn -0.2679 -0.7684 -0.5812
vn 0.6052 0.7894 0.1031
vn -0.7532 -0.6256 0.2033
vn 0.2470 -0.7173 0.6516
vn 0.5345 -0.1402 -0.8335
vn -0.2498 0.7548 0.6066
vn 0.2669 -0.9617 0.0626
vn -0.4312 0.9020 0.0219
vn -0.4466 0.8931 0.0542
vn 0.8503 -0.0535 0.5236
vn 0.4668 0.2957 -0.8335
vn 0.7713 0.5894 -0.2402
vn 0.2122 0.6734 0.7082
vn 0.1985 0.1102 -0.9739
vn 0.9214 -0.3874 -0.0313
vt 0.563942 0.545557
vt 0.470936 0.762312
vt 0.495024 0.267663
vt 0.651444 0.799665
vt 0.629062 0.281764
vt 0.648473 0.190249
vt 0.721649 0.253797
vt 0.553123 0.107452
vt 0.190574 0.131184
vt 0.313637 0.148608
vt 0.331343 0.243638
vt 0.388755 0.577793
vt 0.181692 0.613204
vt 0.301750 0.511232
vt 0.823765 0.950436
vt 0.793578 0.425300
vt 0.580860 1.008573
vt 0.233312 0.394914
vt 0.131720 0.358741
vt 0.048867 0.445172
vt 0.087496 0.880917
vt 0.004274 0.950436
vt 0.002288 0.734481
vt 0.288091 0.913770
vt 0.175048 0.439566
vt 0.994538 0.439566
vt 0.405847 0.460205
vt 0.471371 -0.015981
vt 0.951211 0.358741
vt 0.868358 0.445172
vt 0.821779 0.734481
s 1
usemtl Material.002
f 2/1/1 8/2/1 1/3/1
f 19/4/2 2/1/2 5/5/2
f 15/6/3 4/7/3 5/5/3
f 2/1/4 6/8/4 5/5/4
f 13/9/5 14/10/5 12/11/5
f 9/12/6 21/13/6 10/14/6
f 23/15/7 19/4/7 20/16/7
f 19/4/8 23/15/8 3/17/8
f 21/13/9 13/9/9 17/18/9
f 21/13/10 26/19/10 13/9/10
f 21/13/11 25/20/11 26/19/11
f 21/13/12 22/21/12 25/20/12
f 23/22/13 24/23/13 22/21/13
f 22/21/14 24/23/14 25/20/14
f 15/6/15 20/16/15 4/7/15
f 3/17/16 18/24/16 8/2/16
f 12/11/17 17/18/17 13/9/17
f 26/19/18 16/25/18 13/9/18
f 15/6/19 16/26/19 20/16/19
f 11/27/20 8/2/20 9/12/20
f 6/8/21 7/28/21 15/6/21
f 5/5/22 6/8/22 15/6/22
f 2/1/23 1/3/24 6/8/25
f 12/11/26 1/3/26 11/27/26
f 9/12/27 8/2/27 18/24/27
f 11/27/28 10/14/28 12/11/28
f 11/27/29 9/12/29 10/14/29
f 15/6/30 7/28/30 14/10/30
f 10/14/31 17/18/31 12/11/31
f 13/9/32 16/25/32 14/10/32
f 17/18/33 10/14/33 21/13/33
f 19/4/34 4/7/34 20/16/34
f 16/26/35 26/29/35 20/16/35
f 20/16/36 25/30/36 24/31/36
f 11/27/37 1/3/37 8/2/37
f 15/6/38 14/10/38 16/25/38
f 7/28/39 12/11/39 14/10/39
f 4/7/40 19/4/40 5/5/40
f 21/13/41 18/24/41 22/21/41
f 20/16/42 26/29/42 25/30/42
f 18/24/43 23/22/43 22/21/43
f 3/17/44 23/15/44 18/24/44
f 7/28/45 1/3/45 12/11/45
f 3/17/46 2/1/46 19/4/46
f 2/1/47 3/17/47 8/2/47
f 9/12/48 18/24/48 21/13/48
f 20/16/49 24/31/49 23/15/49
f 1/3/24 7/28/50 6/8/25
o Vert
v -0.158172 -0.046361 -0.155912
v -0.156789 -0.046754 0.155912
v 0.150846 -0.088887 0.155912
v 0.152188 -0.089263 -0.155912
v 0.047850 1.488575 -0.155912
v 0.047868 1.488999 0.155912
v 0.361509 1.487130 0.155912
v 0.361414 1.486122 -0.155912
v -0.110993 3.170377 -0.153613
v 0.196286 3.194879 0.155409
v -0.111580 3.109668 0.155194
v 0.185018 3.220513 -0.154069
v -0.844684 4.165904 -0.151375
v -0.690390 4.000790 0.167313
v -0.662404 4.430159 0.156117
v -0.498961 4.255154 -0.163892
v -1.370987 4.671797 -0.083631
v -1.369733 4.673867 0.084640
v -1.353129 4.848148 0.083534
v -1.349067 4.847487 -0.082067
v -2.254173 4.359067 -0.000000
v 0.706096 4.044609 -0.155546
v 0.526351 4.294014 0.150944
v 1.952620 4.576509 -0.103431
v 1.950287 4.576648 0.102766
v 1.948318 4.787478 0.102841
v 1.951552 4.787595 -0.103654
v 2.733798 4.075882 -0.043294
v 2.797708 4.054771 0.005559
v 3.136215 4.194368 -0.011554
v -0.069407 4.279966 -1.052750
v 0.069055 4.280674 -1.049027
v 0.069312 4.427987 -1.029633
v -0.070817 4.427213 -1.025969
v -0.347578 4.456131 1.477320
v -0.261944 5.590622 1.875758
v -0.508779 5.600434 1.905942
v -0.501443 5.820937 1.872736
v -0.268331 5.859935 1.967986
v -0.383935 5.925439 2.445570
v 1.137276 5.406922 0.072463
v 1.134771 5.408294 0.267714
v 1.203967 5.601340 0.269681
v 1.208714 5.599632 0.070043
v -0.470246 5.894822 -0.070939
v -0.529897 5.917155 -0.214067
v -0.387272 5.947250 -0.269114
v -0.326816 5.919692 -0.127156
v -0.611598 5.601648 -0.709998
v -0.428849 5.583207 -0.777506
v -0.360712 5.658732 -0.610811
v -0.541515 5.667485 -0.539628
v -0.504110 6.237062 -0.831618
v -0.423606 6.227678 -0.860880
v -0.453923 6.393639 0.057961
v -0.486435 6.417099 -0.013582
v -0.491438 4.168236 0.140516
v 0.274641 3.497201 -0.155912
v 0.274641 3.497201 0.155912
v 0.017763 3.702178 0.180866
v 0.021892 3.729972 -0.166284
v 0.701802 4.040635 0.152059
v 0.527341 4.299030 -0.154661
v 2.665211 4.336986 -0.066327
v 3.062639 4.320101 0.059415
v 3.057421 4.320971 -0.060417
v 2.677803 4.309170 0.069524
v 2.846756 4.240887 0.071676
v 2.836622 4.271203 -0.066618
v -0.134924 3.535262 -0.344486
v 0.134924 3.535262 -0.344486
v -0.134924 3.734076 -0.162029
v 0.121235 3.696937 -0.500410
v 0.000000 4.096945 -1.596943
v -0.247259 3.453889 -0.155912
v -0.247259 3.453889 0.155912
v -0.375238 3.605932 0.155912
v -0.064066 3.721090 0.144805
v -0.136675 3.806736 -0.155912
v -0.259590 4.010658 0.335926
v -0.518781 3.953843 0.301581
v -0.252222 4.153309 0.128428
v -0.498596 4.233813 0.623241
v -0.287935 4.278953 0.747858
v -0.479934 4.468922 0.720009
v -0.284195 4.467738 0.718854
v -0.426195 4.516165 1.465421
v -0.458795 4.388102 1.346663
v -0.309074 4.536240 1.324947
v -0.491197 4.516578 0.540084
v -0.276672 4.516578 0.540084
v -0.247001 5.097178 1.400752
v -0.491197 4.369046 0.695827
v -0.525475 5.372411 1.305745
v -0.253967 5.442932 1.375757
v -0.523518 5.212340 1.486434
v 0.203648 3.708847 -0.061169
v -0.140605 3.756563 0.097138
v 0.293875 3.970314 -0.015529
v 0.166860 3.970312 0.242406
v 0.100063 5.027667 0.178434
v 0.513901 5.265888 0.074969
v 0.422784 5.252152 0.326695
v 0.255960 5.195610 -0.007461
v 0.480733 5.555704 0.320433
v 0.240104 5.575867 0.346047
v 0.240104 5.644459 0.144560
v 0.512973 5.556581 0.087711
v 0.322530 6.435995 0.602482
v 0.370521 6.482393 0.466188
v 1.625972 5.008902 0.170637
v -0.273848 3.636161 -0.007264
v -0.089641 3.636161 -0.258863
v -0.454931 4.460732 -0.139842
v -0.088259 3.636683 -0.260937
v 0.180293 3.714387 -0.071640
v -0.016642 3.729078 0.144473
v -0.027956 4.542624 -0.213700
v -0.270724 4.460732 -0.391441
v -0.212162 4.542624 0.037899
v -0.412831 5.128240 -0.036761
v -0.486521 5.191545 -0.259581
v -0.246323 5.204887 -0.360455
v -0.168362 5.133266 -0.131135
v -0.533916 4.984916 -0.420061
v -0.292173 5.015371 -0.536149
v 0.274641 3.497201 -0.155912
v 0.274641 3.497201 0.155912
v 0.017763 3.702178 0.180866
v 0.014144 3.720119 -0.164057
v 0.014144 3.720119 -0.164057
v -0.247259 3.453889 0.155912
v -0.247259 3.453889 -0.155912
v -0.276672 4.516578 0.540084
v -0.491197 4.516578 0.540084
v -0.276672 4.369046 0.695827
vn 0.0791 -0.0222 0.9966
vn 0.0120 -0.0459 0.9989
vn 0.0041 -0.0174 0.9998
vn 0.0059 -0.0236 0.9997
vn 0.0294 -0.1823 -0.9828
vn 0.0844 -0.5059 -0.8584
vn 0.0441 -0.2683 -0.9623
vn 0.7537 -0.2482 -0.6085
vn -0.0000 0.0002 1.0000
vn -0.9998 0.0181 -0.0012
vn -0.9754 -0.2162 -0.0431
vn -0.9633 -0.2664 -0.0322
vn -0.0000 0.0005 -1.0000
vn -0.0001 0.0005 -1.0000
vn 0.9999 -0.0158 -0.0018
vn 0.9943 -0.1027 -0.0270
vn 0.9967 -0.0696 -0.0421
vn -0.3636 0.2994 0.8821
vn -0.0672 -0.0286 0.9973
vn -0.7280 -0.3547 -0.5867
vn -0.0000 -0.4635 -0.8861
vn -0.0000 0.6470 -0.7625
vn 0.0280 0.9600 0.2786
vn 0.0237 0.9960 -0.0859
vn 0.0356 0.9293 0.3677
vn -0.6327 0.7702 -0.0807
vn -0.1128 0.6718 -0.7321
vn 0.9702 0.1821 0.1597
vn 0.9637 0.2029 0.1733
vn 0.8707 0.3904 0.2993
vn 0.4962 -0.6498 -0.5758
vn 0.3432 0.9307 -0.1268
vn 0.0396 0.9420 -0.3334
vn 0.5695 0.8192 0.0682
vn 0.4937 -0.6494 0.5784
vn 0.9999 -0.0160 -0.0000
vn -0.6480 -0.4952 0.5787
vn -0.0000 0.0001 1.0000
vn -0.6510 -0.4937 -0.5766
vn -0.9998 0.0175 0.0003
vn -0.9984 0.0529 0.0195
vn -0.9962 0.0497 0.0713
vn -0.9991 0.0339 0.0264
vn 0.9976 -0.0213 0.0654
vn 0.9972 -0.0084 0.0741
vn 0.9985 -0.0115 0.0538
vn 0.9299 0.1758 -0.3230
vn 0.9125 0.2252 -0.3416
vn 0.8898 0.1730 -0.4222
vn -0.0481 0.0019 0.9988
vn -0.3982 -0.3084 0.8639
vn -0.4546 -0.4927 -0.7421
vn 0.0847 0.9612 -0.2626
vn -0.2082 -0.9761 -0.0621
vn 0.2073 0.9556 -0.2095
vn 0.1610 0.9837 -0.0803
vn 0.3191 0.9226 -0.2166
vn -0.0000 -0.0000 1.0000
vn -0.3036 -0.0190 0.9526
vn -0.9963 -0.0622 -0.0589
vn -0.0012 0.2296 -0.9733
vn -0.0030 0.2331 -0.9724
vn -0.0043 0.2358 -0.9718
vn -0.2807 -0.2143 0.9356
vn -0.4032 -0.0286 0.9146
vn -0.3329 -0.1375 0.9329
vn 0.3962 -0.3076 -0.8651
vn -0.0588 0.0238 -0.9980
vn 0.3635 -0.2994 -0.8822
vn -0.0000 -0.0000 -0.0000
vn -0.4908 -0.3350 -0.8043
vn -0.6025 -0.3409 -0.7216
vn -0.5959 -0.3389 -0.7280
vn -0.4392 -0.4857 0.7558
vn -0.1395 -0.1542 0.9781
vn -0.4392 -0.4857 0.7557
vn 0.6070 -0.0844 -0.7902
vn 0.6194 -0.1757 -0.7651
vn 0.6028 -0.0714 -0.7947
vn -0.0125 -0.3969 0.9178
vn -0.0314 -0.9982 -0.0516
vn 0.6146 0.1709 0.7701
vn 0.6189 0.1744 0.7658
vn 0.6130 0.1750 0.7704
vn -0.9578 -0.0155 0.2870
vn -0.9581 0.0183 0.2860
vn -0.9522 -0.0460 0.3018
vn -0.0522 0.0460 -0.9976
vn -0.0361 -0.0066 -0.9993
vn -0.0261 -0.0389 -0.9989
vn -0.8333 -0.0328 0.5518
vn -0.7027 -0.1260 0.7003
vn -0.7200 -0.0370 0.6930
vn 0.8134 0.5051 -0.2885
vn 0.7389 0.6596 -0.1378
vn 0.8605 0.4483 -0.2419
vn -0.0501 0.3128 -0.9485
vn 0.1915 0.1564 -0.9689
vn 0.2113 0.2225 -0.9518
vn -0.9157 -0.4003 -0.0365
vn -0.7428 -0.1132 0.6599
vn -0.8882 0.1693 -0.4271
vn -0.8581 0.2764 -0.4328
vn 0.9600 -0.2783 -0.0291
vn 0.0713 -0.5662 0.8212
vn 0.0849 -0.4221 0.9025
vn -0.0270 -0.3463 0.9377
vn 0.9988 0.0147 0.0462
vn 0.9988 0.0137 0.0468
vn -0.9962 0.0820 -0.0295
vn 0.0036 0.7508 -0.6605
vn -0.0000 0.7498 -0.6617
vn 0.0235 -0.9446 0.3275
vn -0.0510 -0.9083 0.4152
vn -0.1371 -0.8343 0.5340
vn 0.2325 -0.2188 0.9476
vn -0.1946 0.9676 0.1608
vn 0.7913 -0.5344 0.2972
vn -0.8360 0.3255 -0.4418
vn 0.5881 0.6185 -0.5212
vn 0.5814 0.3061 -0.7539
vn 0.5621 0.6375 -0.5269
vn 0.9921 -0.0910 -0.0862
vn 0.5921 0.0433 -0.8047
vn 0.9921 -0.0910 -0.0861
vn -0.6168 -0.0719 0.7838
vn -0.6316 -0.1296 0.7644
vn -0.6021 -0.0971 0.7925
vn 0.5928 0.4142 0.6907
vn -0.0045 -0.0847 0.9964
vn 0.2202 -0.4597 0.8603
vn 0.6423 0.7646 -0.0531
vn -0.7213 -0.6925 -0.0147
vn -0.7577 -0.6519 0.0314
vn -0.2055 -0.5015 -0.8404
vn 0.0139 0.0226 0.9996
vn -0.0174 0.7969 0.6039
vn -0.0942 0.0124 0.9955
vn 0.0663 0.9975 -0.0262
vn -0.0891 0.0248 -0.9957
vn 0.1931 -0.7227 -0.6636
vn -0.4034 0.6298 0.6638
vn 0.6084 -0.7936 -0.0022
vn 0.7856 -0.6187 0.0008
vn 0.7854 -0.6190 -0.0000
vn 0.0374 0.0154 0.9992
vn 0.0540 -0.0357 0.9979
vn 0.0648 0.0192 0.9977
vn -0.5603 0.8281 0.0182
vn -0.7589 0.6500 0.0388
vn -0.7386 0.6738 0.0231
vn 0.0144 0.0111 -0.9998
vn 0.0231 -0.0035 -0.9997
vn 0.0067 -0.0117 -0.9999
vn 0.0487 -0.9988 0.0003
vn 0.6136 -0.7896 -0.0011
vn 0.0215 0.9998 0.0022
vn -0.5684 0.8226 0.0169
vn 0.0436 -0.0028 -0.9990
vn 0.0105 0.0042 -0.9999
vn 0.0391 -0.0024 0.9992
vn 0.0372 0.0020 0.9993
vn -0.6810 -0.7290 -0.0699
vn 0.0510 -0.9987 -0.0082
vn 0.0287 0.9996 0.0004
vn 0.5398 0.4498 -0.7116
vn 0.0030 -0.0587 -0.9983
vn -0.5064 -0.8602 -0.0603
vn -0.7388 -0.6740 0.0017
vn 0.3159 -0.9296 0.1898
vn 0.4803 -0.8083 -0.3405
vn 0.7956 -0.6012 -0.0747
vn -0.8397 -0.4909 -0.2324
vn -0.0045 -0.6898 -0.7240
vn -0.0000 -0.6892 -0.7246
vn 0.9395 0.2552 0.2286
vn 0.8959 0.2967 0.3306
vn 0.9593 0.0098 0.2822
vn -0.9945 0.0106 -0.1042
vn -0.9983 0.0368 -0.0458
vn -0.9983 0.0392 -0.0427
vn 0.6032 0.7970 0.0312
vn -0.0031 0.9957 0.0926
vn 0.0122 0.7773 0.6291
vn 0.8443 -0.4823 -0.2333
vn 0.0003 -0.4107 -0.9118
vn -0.7657 -0.6432 -0.0006
vn -0.7677 -0.6408 0.0067
vn 0.6202 -0.4442 -0.6466
vn -0.0362 0.0568 0.9977
vn -0.0051 0.0019 -1.0000
vn -0.0073 0.0125 -0.9999
vn 0.2739 0.5305 -0.8022
vn -0.9985 0.0298 -0.0457
vn -0.4808 0.5140 0.7104
vn -0.0258 0.9972 -0.0696
vn 0.0057 0.9980 -0.0637
vn -0.6813 -0.6560 0.3248
vn 0.6597 0.7452 0.0975
vn 0.4496 -0.2409 0.8601
vn -0.0579 -0.6880 0.7234
vn -0.0099 -0.6938 0.7201
vn -0.0000 -0.6956 0.7185
vn -0.0073 0.7165 -0.6976
vn 0.0026 0.6672 -0.7449
vn -0.0000 0.6668 -0.7453
vn 0.9998 0.0189 -0.0077
vn 0.9998 -0.0094 -0.0185
vn 0.9998 -0.0132 -0.0125
vn -0.9999 0.0025 0.0100
vn -1.0000 -0.0047 0.0050
vn -0.9459 -0.2380 -0.2208
vn 0.0240 -0.7863 0.6174
vn -0.0475 -0.6963 0.7162
vn -0.6160 0.7370 -0.2780
vn -0.0039 0.7472 -0.6646
vn -0.7301 -0.5094 0.4555
vn -0.9992 0.0397 0.0086
vn 0.6976 0.7053 -0.1264
vn 0.9979 0.0003 0.0643
vn 0.9998 0.0190 0.0037
vn -0.0090 0.3366 0.9416
vn 0.8320 -0.3132 0.4578
vn 0.7636 -0.4406 0.4720
vn -0.4443 0.0349 0.8952
vn -0.4465 0.0347 0.8941
vn -0.4449 0.0316 0.8950
vn -0.8244 0.1819 -0.5359
vn -0.8605 0.1410 -0.4895
vn 0.6663 -0.7247 0.1756
vn 0.8187 -0.3921 0.4196
vn 0.4868 0.4380 -0.7558
vn -0.1774 0.6347 0.7521
vn 0.0908 -0.0737 0.9931
vn -0.9965 -0.0358 -0.0752
vn 0.1566 0.9684 -0.1940
vn 0.1951 0.5771 -0.7930
vn 0.7711 0.6275 0.1081
vn -0.2107 -0.9775 0.0063
vn 0.7474 -0.6211 0.2358
vn -0.0204 -0.5840 0.8115
vn 0.0914 -0.0106 0.9958
vn 0.3901 0.9208 0.0020
vn 0.3621 0.6873 -0.6297
vn -0.0236 0.0344 -0.9991
vn -0.0281 0.0437 -0.9987
vn -0.3900 -0.6405 0.6615
vn 0.6608 0.3541 -0.6618
vn -0.7785 -0.2626 -0.5700
vn -0.7785 -0.2626 -0.5701
vn 0.7663 0.2678 0.5840
vn 0.7309 0.2835 0.6208
vn 0.7173 0.2891 0.6340
vn 0.5780 0.0048 -0.8160
vn -0.5297 0.0136 0.8481
vn 0.3757 -0.0758 0.9236
vn 0.3576 0.0675 0.9314
vn 0.3581 0.0674 0.9312
vn -0.4381 -0.1075 0.8925
vn -0.3915 0.1986 -0.8985
vn -0.0431 0.9989 -0.0172
vn -0.2105 0.9016 -0.3778
vn 0.3365 0.3388 -0.8786
vn 0.8995 0.2901 -0.3267
vn 0.9127 0.2160 -0.3468
vn -0.9034 -0.1167 -0.4127
vn -0.3816 -0.3899 -0.8381
vn -0.9380 0.1262 0.3228
vn 0.9309 -0.0044 -0.3653
vn 0.8989 0.3128 0.3068
vn 0.3412 0.4667 0.8159
vn 0.4825 0.7683 -0.4206
vn -0.4454 0.8910 -0.0877
vn 0.1278 0.6548 0.7449
vn -0.9240 -0.0743 0.3751
vn -0.2723 0.9535 -0.1294
vn 0.9350 0.2102 -0.2858
vn -0.0649 -0.9778 0.1993
vn 0.1916 0.9532 -0.2340
vn -0.9921 -0.0909 -0.0862
vn -0.0000 0.2272 -0.9738
vn -0.0313 -0.9982 -0.0516
vn 0.6224 0.1468 0.7688
vn -0.8324 -0.0243 0.5537
vn 0.8921 0.4395 -0.1048
vn -0.9013 -0.4332 -0.0000
vn 0.9513 -0.3082 -0.0000
vn 0.0994 -0.5911 0.8005
vn 0.5226 -0.4918 0.6965
vn -0.8360 0.3256 -0.4418
vn -0.4145 0.8587 -0.3015
vn -0.6547 -0.1040 0.7487
vn 0.0073 -0.0379 -0.9993
vn 0.0699 0.0229 0.9973
vn -0.0382 0.0282 0.9989
vn -0.2546 -0.9670 0.0138
vn 0.0090 -0.0037 1.0000
vn 0.0450 -0.0004 -0.9990
vn -0.0393 -0.0980 -0.9944
vn -0.0466 -0.6950 -0.7175
vn 0.0378 0.7485 0.6621
vn -0.7651 -0.6440 -0.0000
vn 0.5323 0.8394 0.1094
vn -0.0265 0.0107 -0.9996
vn 0.0790 -0.7544 0.6517
vn 0.9990 0.0153 -0.0411
vn -0.9987 0.0343 0.0379
vn 0.9989 0.0304 0.0355
vn 0.5048 -0.0334 -0.8626
vn 0.0960 -0.0470 0.9943
vn 0.0592 -0.0301 -0.9978
vn -0.5075 0.0206 0.8614
vn 0.5630 0.0065 -0.8265
vn -0.7785 -0.2627 -0.5700
vn 0.7787 0.2618 0.5701
vn 0.9338 0.2555 -0.2503
vn -0.3572 -0.2907 -0.8877
vt 0.464637 0.393139
vt 0.491389 0.315667
vt 0.503737 0.361939
vt 0.446063 0.302775
vt 0.444758 0.311934
vt 0.482471 0.367733
vt 0.490814 0.319710
vt 0.367733 0.427800
vt 0.361939 0.456503
vt 0.319710 0.456503
vt 0.469220 0.056266
vt 0.056201 0.456503
vt 0.302775 0.503966
vt 0.311934 0.456503
vt 0.516945 0.055828
vt 0.469217 0.056201
vt 0.055981 0.503966
vt 0.315667 0.503966
vt 0.440532 0.401417
vt 0.424298 0.355347
vt 0.355347 0.456503
vt 0.441397 0.367733
vt 0.448289 0.383091
vt 0.441397 0.455572
vt 0.440532 0.495020
vt 0.464823 0.454078
vt 0.420251 0.479129
vt 0.441397 0.397995
vt 0.462426 0.499325
vt 0.438727 0.532927
vt 0.409054 0.503966
vt 0.485446 -0.184004
vt 0.387674 0.501382
vt 0.423918 0.499325
vt 0.392430 0.456503
vt -0.183970 0.503966
vt 0.055828 0.456503
vt 0.438426 -0.177535
vt 0.516960 0.055981
vt -0.177499 0.456503
vt 0.056266 0.503966
vt 0.471921 0.577116
vt 0.509847 0.589829
vt 0.517101 0.562442
vt 0.480932 0.594068
vt 0.509579 0.589764
vt 0.621567 0.425617
vt 0.521066 0.447707
vt 0.592991 0.398231
vt 0.420251 0.383091
vt 0.462649 0.398432
vt 0.492931 0.470924
vt 0.454337 0.506100
vt 0.448289 0.440832
vt 0.464087 0.455263
vt 0.387167 0.517101
vt 0.419821 0.517101
vt 0.494645 0.586148
vt 0.418106 0.509847
vt 0.387167 0.494645
vt 0.388882 0.509847
vt 0.498480 0.678338
vt 0.479490 0.594241
vt 0.530119 0.622947
vt 0.588388 0.416296
vt 0.508601 0.420652
vt 0.508601 0.458949
vt 0.492931 0.394154
vt 0.420726 0.508601
vt 0.417995 0.592991
vt 0.457678 0.521066
vt 0.464637 0.507765
vt 0.610969 0.460274
vt 0.521066 0.486003
vt 0.619556 0.439695
vt 0.610187 0.474853
vt 0.485444 0.456503
vt 0.438423 0.503966
vt 0.438423 0.456503
vt 0.333261 0.463639
vt 0.384611 0.476147
vt 0.441130 0.409054
vt 0.398738 0.610187
vt 0.392687 0.508601
vt 0.429640 0.521066
vt 0.409054 0.456503
vt 0.476147 0.456488
vt 0.498480 0.688779
vt 0.544040 0.628234
vt 0.500894 0.620458
vt 0.355347 0.503966
vt 0.678338 0.532907
vt 0.620458 0.479099
vt 0.594241 0.509799
vt 0.361939 0.503966
vt 0.423288 0.438727
vt 0.404818 0.378489
vt 0.454337 0.400113
vt 0.464453 0.501382
vt 0.387167 0.562442
vt 0.419821 0.562442
vt 0.418106 0.594068
vt 0.387598 0.577251
vt 0.421520 0.549357
vt 0.464087 0.395870
vt 0.383091 0.479129
vt 0.394154 0.470924
vt 0.355315 0.437308
vt 0.382969 0.431446
vt 0.387699 0.464239
vt 0.927691 0.486317
vt 0.867301 0.483924
vt 0.894932 0.477315
vt 0.503559 0.503966
vt 0.328474 0.456510
vt 0.328793 0.503887
vt 0.263992 0.465314
vt 0.256173 0.566566
vt 0.253722 0.541673
vt 0.361017 0.503927
vt 0.256534 0.467476
vt 0.256173 0.492969
vt 0.253641 0.541723
vt 0.256534 0.566547
vt 0.118621 0.494823
vt 0.119955 0.491849
vt 0.445745 0.456503
vt 0.568460 0.445035
vt 0.483508 0.503966
vt 0.395870 0.455263
vt 0.393139 0.507765
vt 0.541759 0.484040
vt 0.759009 0.464519
vt 0.568491 0.503983
vt 0.569027 0.445652
vt 0.758466 0.495956
vt 0.541544 0.456528
vt 0.541274 0.483675
vt 0.758862 0.557694
vt 0.758781 0.526742
vt 0.758466 0.557719
vt 0.860225 0.469706
vt 0.758781 0.495962
vt 0.927691 0.489942
vt 0.758862 0.464528
vt 0.926990 0.486649
vt 0.865839 0.488175
vt 0.450906 0.474557
vt 0.483924 0.490308
vt 0.488175 0.470083
vt 0.887563 0.448589
vt 0.448856 0.478753
vt 0.479489 0.470532
vt 0.478401 0.489938
vt 0.879537 0.450906
vt 0.891709 0.479489
vt 0.936876 0.469473
vt 0.894438 0.489938
vt 0.891306 0.470532
vt 0.470360 0.480235
vt 0.486090 0.470532
vt 0.486090 0.489938
vt 0.451295 0.481942
vt 0.392342 0.404066
vt 0.397398 0.454114
vt 0.502508 0.324018
vt 0.397995 0.455572
vt 0.472553 0.323743
vt 0.451292 0.324018
vt 0.481875 0.320700
vt 0.502463 0.323743
vt 0.453377 0.237485
vt 0.481950 0.320667
vt 0.461923 0.238310
vt 0.472585 0.320743
vt 0.451280 0.320761
vt 0.453377 0.237485
vt 0.378489 0.503966
vt 0.463639 0.456509
vt 0.431446 0.526139
vt 0.398076 0.700675
vt 0.418106 0.589829
vt 0.388882 0.589829
vt 0.497546 0.685214
vt 0.514059 0.701078
vt 0.520094 0.681908
vt 0.408596 0.703148
vt 0.392099 0.685214
vt 0.423666 0.682763
vt 0.387167 0.586148
vt 0.419821 0.586148
vt 0.382243 0.647340
vt 0.657292 0.690343
vt 0.622690 0.706752
vt 0.647340 0.679031
vt 0.494645 0.586148
vt 0.421920 0.765758
vt 0.381838 0.709931
vt 0.423487 0.704688
vt 0.387339 0.767577
vt 0.423377 0.690343
vt 0.382183 0.680442
vt 0.683030 0.769818
vt 0.711301 0.767577
vt 0.719311 0.780744
vt 0.680388 0.765758
vt 0.403494 0.852486
vt 0.385243 0.769818
vt 0.731078 0.851397
vt 0.403494 0.850256
vt 0.419264 0.780744
vt 0.433953 0.477871
vt 0.487332 0.433953
vt 0.401417 0.495020
vt 0.628234 0.491599
vt 0.433953 0.517132
vt 0.464128 0.396351
vt 0.511027 0.808902
vt 0.535975 0.676211
vt 0.808902 0.571833
vt 0.688779 0.502239
vt 0.518332 0.815974
vt 0.541783 0.677136
vt 0.815974 0.551060
vt 0.678338 0.532907
vt 0.677136 0.493483
vt 0.635051 0.491165
vt 0.530119 0.525882
vt 0.551538 0.489350
vt 0.634804 0.653466
vt 0.644370 0.521254
vt 0.546931 0.489350
vt 0.535975 0.529783
vt 0.645128 0.680930
vt 0.706090 0.504956
vt 0.634804 0.521268
vt 0.595207 0.507459
vt 0.680953 0.491246
vt 0.681204 0.521199
vt 0.383169 0.440820
vt 0.398432 0.499821
vt 0.396307 0.470438
vt 0.448272 0.383169
vt 0.412188 0.730673
vt 0.436307 0.610969
vt 0.726883 0.469288
vt 0.381277 0.730287
vt 0.424875 0.621567
vt 0.388889 0.619556
vt 0.734768 0.439464
vt 0.730673 0.460880
vt 0.369070 0.682267
vt 0.380665 0.588388
vt 0.692284 0.398097
vt 0.679455 0.361889
vt 0.407029 0.690951
vt 0.379508 0.692284
vt 0.776834 0.349399
vt 0.690951 0.387262
vt 0.382806 0.776881
vt 0.395131 0.775087
vt 0.399838 0.778581
vt 0.778628 0.353773
vt 0.682267 0.372298
vt 0.800904 0.491066
vt 0.730287 0.447651
vt 0.387911 0.806120
vt 0.402939 0.734768
vt 0.392914 0.802252
vt 0.390437 0.726883
vt 0.807468 0.475887
vt 0.803600 0.486735
vt 0.438430 -0.177499
vt -0.184004 0.456503
vt 0.485450 -0.183970
vt -0.177535 0.503966
vt 0.464637 0.499870
vt 0.419821 0.494645
vt 0.437308 0.503964
vt 0.485444 0.503966
vt 0.482471 0.427800
vt 0.263984 0.495160
vt 0.361017 0.503792
vt 0.361192 0.456441
vt 0.117282 0.480235
vt 0.253729 0.467487
vt 0.253759 0.492985
vt 0.121293 0.480235
vt 0.445184 0.503966
vt 0.489808 0.503966
vt 0.489808 0.456503
vt 0.759009 0.526800
vt 0.926990 0.470522
vt 0.860225 0.490763
vt 0.447908 0.484996
vt 0.480387 0.392342
vt 0.472579 0.481874
vt 0.441130 0.456503
vt 0.385468 0.456351
vt 0.414889 0.681908
vt 0.509425 0.702724
vt 0.424805 0.648915
vt 0.605708 0.693111
vt 0.383322 0.682763
vt 0.506665 0.433953
vt 0.613506 0.527621
vt 0.808902 0.571833
vt 0.644700 0.681165
vt 0.644588 0.491166
vt 0.635051 0.653452
vt 0.708879 0.592633
vt 0.492091 0.396307
vt 0.396657 0.679455
vt 0.387512 0.780374
vt 0.804771 0.480217
s 1
usemtl Material.004
f 86/32/51 36/33/51 85/34/51
f 86/32/52 37/35/53 36/33/54
f 35/36/55 97/37/56 38/38/57
f 97/39/58 84/40/58 38/41/58
f 32/42/59 36/33/54 37/35/53
f 31/43/60 37/44/61 35/45/62
f 34/46/63 31/47/64 38/38/57
f 33/48/65 38/41/66 36/49/67
f 124/50/68 102/51/68 86/32/68
f 102/51/69 37/35/69 86/32/69
f 101/52/70 96/39/70 35/45/70
f 96/53/71 97/37/71 35/36/71
f 96/53/72 139/54/72 97/37/72
f 98/55/73 124/56/74 87/57/75
f 98/55/76 138/58/76 124/56/76
f 98/59/77 139/54/77 96/53/77
f 108/60/78 106/61/79 104/62/80
f 30/63/81 31/47/64 34/46/63
f 83/64/82 108/65/83 42/66/84
f 29/67/85 34/68/86 33/48/65
f 28/69/87 33/70/88 32/42/59
f 27/71/89 32/72/90 31/43/60
f 109/73/91 111/74/92 116/75/93
f 110/76/94 106/61/95 112/77/96
f 149/78/97 144/79/98 152/80/99
f 138/81/100 143/82/101 124/50/101
f 124/56/102 142/83/103 104/84/104
f 104/84/105 141/85/106 157/86/107
s 0
f 116/87/108 160/88/108 117/88/108
s 1
f 117/75/109 162/89/110 112/77/110
f 112/90/111 119/91/112 111/92/113
f 132/93/114 127/94/115 129/95/116
f 124/50/117 158/51/118 102/51/119
s 0
f 102/51/120 159/51/120 101/51/120
s 1
f 151/96/121 145/97/122 140/98/123
f 123/99/124 153/34/125 84/34/126
s 0
f 84/34/120 154/34/120 85/34/120
s 1
f 145/100/127 152/101/128 144/102/129
s 0
f 85/34/108 155/32/108 86/32/108
s 1
f 86/103/130 156/86/131 123/83/131
f 150/104/132 146/105/133 144/79/134
f 148/106/135 151/96/136 147/107/137
f 30/108/81 28/109/87 27/110/89
f 39/111/138 42/112/139 105/113/140
f 147/114/141 140/115/142 146/116/143
f 108/60/144 105/117/145 42/118/146
f 133/119/147 128/120/148 130/121/149
f 102/122/150 35/45/62 37/44/61
f 132/123/151 130/124/152 127/125/153
f 38/41/66 85/126/154 36/49/67
f 106/127/155 103/128/156 104/129/157
f 112/77/158 108/60/78 117/75/159
f 109/73/91 116/75/93 83/130/160
f 108/65/83 116/131/161 117/132/162
f 110/133/163 109/134/164 106/135/165
f 101/51/166 157/136/167 138/81/168
f 138/137/169 96/39/169 101/52/169
f 97/39/170 123/138/171 84/40/172
f 111/92/173 161/87/174 116/87/175
f 40/139/176 107/140/177 83/141/178
f 91/142/179 93/143/180 94/144/181
f 83/130/82 42/118/84 41/145/182
f 39/146/183 40/147/184 43/148/185
f 40/139/186 45/149/187 44/150/188
f 41/151/182 46/152/189 45/153/187
f 42/112/139 43/154/185 46/155/190
f 46/155/190 43/154/185 47/156/191
f 44/150/188 45/149/187 47/157/192
f 48/158/193 154/126/194 153/40/195
f 88/159/196 155/32/197 154/34/198
f 49/160/199 156/161/200 155/162/201
f 89/163/202 153/34/203 156/136/204
f 50/164/205 88/165/206 48/166/193
f 52/167/207 89/168/208 49/169/199
f 53/170/209 48/166/210 89/163/202
f 51/171/211 52/172/212 88/159/196
f 90/173/213 51/174/214 50/164/205
f 91/175/179 53/176/215 52/167/207
f 92/177/216 90/178/217 53/170/209
f 93/143/180 91/142/179 51/171/211
f 54/179/218 93/180/219 90/181/213
f 55/182/220 94/144/181 93/143/180
f 55/183/220 95/184/221 94/185/181
f 55/182/220 54/186/218 95/187/221
f 56/188/222 94/189/181 95/190/221
f 56/188/222 91/142/179 94/144/181
f 56/191/222 92/192/216 91/193/179
f 57/194/223 97/37/224 96/53/225
f 99/195/226 87/196/227 97/39/228
f 60/197/229 96/39/230 98/198/231
f 59/199/232 60/200/233 87/57/234
f 58/201/235 59/202/232 99/195/226
f 100/203/236 57/204/223 60/197/229
f 100/205/236 58/206/235 57/207/223
f 100/208/236 59/202/232 58/201/235
f 159/52/237 103/209/238 39/210/183
f 158/51/118 104/129/239 103/128/240
f 157/136/241 39/111/242 105/113/243
f 109/73/91 83/130/160 107/211/244
f 113/212/245 112/213/246 111/214/247
f 114/215/248 113/216/245 109/73/91
f 115/217/249 110/76/94 112/77/96
f 61/218/250 114/219/248 110/133/163
f 118/220/251 119/221/252 162/222/253
f 120/223/254 160/88/255 161/87/256
f 121/224/257 162/89/258 160/75/259
f 122/225/260 120/226/261 119/227/262
f 62/228/263 122/229/264 118/230/251
f 64/231/265 121/232/266 120/233/254
f 63/234/267 64/235/265 122/225/268
f 65/236/269 62/237/270 121/224/271
f 66/238/272 63/239/267 62/228/263
f 66/240/272 64/235/265 63/234/267
f 66/241/272 65/242/269 64/231/265
f 125/243/273 86/162/274 123/138/274
f 126/244/275 124/50/276 86/32/277
f 127/125/153 87/196/278 124/245/279
f 128/246/280 126/247/281 125/243/273
f 129/95/116 127/94/115 126/244/275
f 130/121/149 128/120/148 87/248/282
f 135/249/283 132/93/151 131/250/284
f 135/251/283 133/252/285 132/123/151
f 136/253/286 134/254/287 133/119/147
f 136/255/286 131/256/288 134/257/287
f 67/258/289 129/259/290 128/260/280
f 68/261/291 131/250/284 129/95/292
f 69/262/293 134/263/287 131/264/288
f 70/265/294 128/120/295 134/254/296
f 137/266/297 68/267/291 67/258/289
f 137/268/298 70/269/294 69/270/293
f 140/98/299 141/271/300 138/137/300
f 144/79/301 143/272/302 142/273/303
f 145/100/127 144/102/129 141/274/304
f 146/116/143 140/115/142 143/82/305
f 74/275/306 147/114/307 150/276/308
f 71/277/309 148/106/135 147/107/137
f 72/278/310 149/279/311 148/280/312
f 73/281/313 74/282/314 149/78/315
f 75/283/316 152/101/317 151/284/121
f 78/285/318 151/96/136 148/106/135
f 76/286/319 149/78/97 152/80/99
f 77/287/320 78/288/321 149/279/311
f 80/289/322 77/290/320 76/286/319
f 79/291/323 80/292/322 75/283/316
f 80/293/322 78/288/321 77/287/320
f 79/294/323 75/295/316 78/285/318
f 81/296/324 72/297/325 71/277/309
f 82/298/326 73/299/313 72/278/310
f 81/300/324 71/301/309 74/275/306
f 82/302/326 81/303/324 73/281/313
f 38/38/57 31/47/64 35/36/55
f 31/43/60 32/72/90 37/44/61
f 33/48/65 34/68/86 38/41/66
f 32/42/59 33/70/88 36/33/54
f 30/63/81 27/304/89 31/47/64
f 29/67/85 30/305/81 34/68/86
f 28/69/87 29/306/85 33/70/88
f 27/71/89 28/307/87 32/72/90
f 149/78/97 150/104/327 144/79/98
f 124/56/102 143/308/328 142/83/103
f 104/84/105 142/83/329 141/85/106
s 0
f 116/87/108 161/87/108 160/88/108
s 1
f 117/88/109 160/88/330 162/309/110
f 112/90/111 162/309/331 119/91/112
f 124/50/117 104/129/239 158/51/118
s 0
f 102/51/120 158/51/120 159/51/120
s 1
f 151/284/121 152/101/317 145/100/122
f 123/99/124 156/136/124 153/34/125
s 0
f 84/34/120 153/34/120 154/34/120
f 85/34/108 154/34/108 155/32/108
s 1
f 86/32/130 155/32/332 156/136/131
f 150/276/132 147/114/333 146/116/133
f 103/209/238 40/310/184 39/210/183
f 30/108/81 29/311/85 28/109/87
f 147/107/141 151/96/334 140/98/142
f 108/60/144 104/62/335 105/117/145
f 133/119/147 134/254/287 128/120/148
f 102/122/150 101/52/336 35/45/62
f 131/250/284 132/93/151 129/95/292
f 132/123/151 133/252/285 130/124/152
f 38/41/66 84/40/337 85/126/154
f 106/127/155 107/140/338 103/128/156
f 112/77/158 106/61/79 108/60/78
f 108/65/83 83/64/82 116/131/161
f 101/51/166 159/51/339 157/136/167
f 138/137/169 98/198/340 96/39/169
f 97/312/170 87/57/282 123/83/171
f 157/86/167 141/85/341 138/58/168
f 111/74/173 119/227/262 161/75/174
f 40/139/176 103/128/342 107/140/177
f 92/177/216 95/187/343 90/178/217
f 40/139/186 83/141/344 41/151/345
f 42/112/139 39/111/138 43/154/185
f 43/148/185 40/147/184 44/313/346
f 40/139/186 41/314/345 45/149/187
f 41/151/182 42/315/84 46/152/189
f 45/153/187 46/152/189 47/316/192
f 43/317/185 44/318/346 47/319/191
f 48/158/193 88/320/206 154/126/194
f 88/159/196 49/169/347 155/32/197
f 49/321/199 89/322/208 156/86/200
f 89/163/202 48/166/210 153/34/203
f 88/159/196 52/172/212 49/169/347
f 52/167/207 53/176/215 89/168/208
f 53/170/209 50/323/348 48/166/210
f 50/164/205 51/174/214 88/165/206
f 51/171/211 91/142/179 52/172/212
f 53/170/209 90/178/217 50/323/348
f 91/175/179 92/324/216 53/176/215
f 90/173/213 93/325/219 51/174/214
f 95/187/343 54/186/349 90/178/217
f 54/179/218 55/326/220 93/180/219
f 92/177/216 56/188/222 95/187/343
f 57/194/223 99/327/350 97/37/224
f 87/57/75 60/200/351 98/55/73
f 60/197/229 57/204/223 96/39/230
f 99/195/226 59/202/232 87/196/227
f 57/194/223 58/328/235 99/327/350
f 59/199/232 100/205/236 60/200/233
f 159/52/237 158/122/352 103/209/238
f 104/84/335 157/86/353 105/329/145
f 157/136/241 159/51/354 39/111/242
f 106/127/155 109/330/355 107/140/338
f 109/73/91 113/216/245 111/74/92
f 110/133/163 114/219/248 109/134/164
f 113/212/245 115/331/249 112/213/246
f 115/217/249 61/332/250 110/76/94
f 61/218/250 113/212/245 114/219/248
f 113/212/245 61/218/250 115/331/249
f 119/227/262 120/226/261 161/75/174
f 120/223/254 121/333/266 160/88/255
f 121/224/257 118/334/356 162/89/258
f 118/220/251 122/335/264 119/221/252
f 122/225/260 64/235/357 120/226/261
f 121/224/257 62/237/358 118/334/356
f 62/228/263 63/239/267 122/229/264
f 64/231/265 65/242/269 121/232/266
f 65/236/269 66/240/272 62/237/270
f 125/243/273 126/247/281 86/162/274
f 126/244/275 127/94/115 124/50/276
f 87/248/282 125/336/359 123/99/171
f 128/246/280 129/337/290 126/247/281
f 87/248/282 128/120/148 125/336/359
f 127/125/153 130/124/152 87/196/278
f 135/251/283 136/255/286 133/252/285
f 136/255/286 135/338/283 131/256/288
f 67/258/289 68/267/291 129/259/290
f 68/261/291 69/339/360 131/250/284
f 69/262/293 70/340/294 134/263/287
f 70/265/294 67/341/361 128/120/295
f 68/261/291 137/342/297 69/339/360
f 70/265/294 137/342/298 67/341/361
f 143/82/305 140/115/142 138/81/362
f 141/274/304 144/102/129 142/343/363
f 140/98/299 145/97/364 141/271/300
f 144/79/301 146/105/365 143/272/302
f 149/78/97 74/282/366 150/104/327
f 71/277/309 72/297/325 148/106/135
f 72/278/310 73/299/313 149/279/311
f 74/275/306 71/301/309 147/114/307
f 149/279/311 78/288/321 148/280/312
f 78/285/318 75/295/316 151/96/136
f 75/283/316 76/344/367 152/101/317
f 76/286/319 77/290/320 149/78/97
f 75/283/316 80/292/322 76/344/367
f 80/293/322 79/345/323 78/288/321
f 81/296/324 82/346/326 72/297/325
f 73/281/313 81/303/324 74/282/314
