# Blender 4.3.2
# www.blender.org
mtllib Arbusto.mtl
o ChamferBox03
v 0.259553 1.363131 -1.852445
v 0.427222 1.357730 -1.391680
v 0.273901 1.399934 -1.637096
v 0.491961 1.388919 -1.327142
v 0.575781 1.388536 -1.131052
v -0.121845 1.279554 -1.309275
v 0.540402 1.355143 -0.948544
v 0.240621 1.365113 -0.599415
v -0.194869 1.330929 -1.072989
v -0.222267 1.390136 -0.757630
v -0.291120 1.355056 -0.294534
v -0.327933 1.399038 -0.075651
v 0.275087 1.373438 -0.176569
v -0.129492 1.384307 0.262527
v 0.047904 1.364067 0.328251
v 0.254707 1.375512 0.238713
v -0.050634 1.364294 0.678564
v 0.091934 1.339594 0.492760
v 0.366559 1.360104 0.834314
v -0.051735 1.370494 1.332794
v 0.120310 1.356396 1.250092
v 0.228147 1.399794 0.980170
v 0.381248 1.354678 1.203099
v 0.597774 1.371241 1.285066
v 0.277097 1.381529 1.718174
v 0.773609 1.379408 1.633821
v 0.583353 1.342041 2.003047
v -0.034631 1.374719 -1.267751
v 0.893895 1.352084 1.578700
v 0.496016 1.304132 0.836129
v 0.364679 1.303206 0.489428
v 0.728223 1.381065 -1.538777
v -0.289188 1.351501 0.803508
v 0.139052 1.326701 1.806661
v 0.511027 1.272713 -0.666908
v -0.302956 1.345769 -0.758571
v -0.447039 1.250112 -0.230436
v -0.433429 1.285848 0.270485
v 0.624233 1.267869 1.060040
v 0.398965 1.254303 -0.009543
v 0.540615 1.335619 -1.765056
v -0.026559 1.211420 -1.464260
v 0.024119 1.239995 1.683180
v 0.987390 1.263663 1.670886
v 0.393101 1.309071 -0.427782
v 0.920771 1.271838 -1.470897
v 0.453633 1.253500 -1.970296
v -0.390056 1.073368 -0.672592
v -0.379774 1.270437 0.790638
v 0.400010 1.252829 2.135771
v 0.598737 1.208803 2.086919
v 0.849585 1.220326 1.834569
v 0.829854 1.157535 1.378427
v 0.434669 1.246974 0.319076
v 0.432379 1.195867 -0.417007
v 0.645846 1.188226 -0.995389
v 0.844272 1.191979 -1.630856
v 0.272683 1.112906 -1.989143
v 0.041313 1.217257 -1.689429
v -0.278051 0.990914 1.150213
v 0.663396 1.295199 -1.766538
v 0.554915 1.123398 -1.889678
v 0.399525 1.097531 -2.020983
v 0.067071 0.975778 -1.680668
v -0.170981 1.095541 -1.314593
v -0.345324 1.176403 -0.956942
v -0.423725 0.854704 -0.413109
v -0.507966 0.992872 0.035172
v 0.405286 0.823467 2.151301
v 0.706524 0.941395 1.992836
v 0.979042 1.013973 1.669908
v 1.001993 1.062004 1.510790
v 0.419043 1.116786 0.545063
v 0.485423 0.978352 -0.634135
v -0.424849 1.011277 0.614702
v -0.088814 0.992197 1.519482
v 0.601156 0.964560 2.143970
v 0.367855 0.921787 0.240208
v 0.424465 1.027041 -0.120102
v 0.854902 0.872981 -1.606912
v -0.086424 0.631548 1.488766
v 0.056592 0.841688 1.781899
v 0.955173 0.797428 1.760457
v 0.793914 0.881701 1.315740
v 0.604637 0.940164 0.963849
v 0.466543 0.679281 0.507427
v 0.393307 0.850710 -0.267278
v 0.875502 0.858686 -1.361861
v -0.249131 0.695240 -1.044491
v -0.350805 0.792540 -0.783865
v 0.545539 0.635931 2.132043
v 0.371951 0.572874 -0.016142
v 0.454976 0.605464 -0.463762
v 0.254462 0.470281 -1.945637
v 0.015049 0.707474 -1.575248
v -0.378859 0.678601 -0.457157
v -0.432939 0.668674 0.440641
v 0.255325 0.669966 1.941993
v 0.570707 0.744477 -0.861857
v 0.348247 0.575077 -1.983465
v -0.174957 0.479837 -1.313600
v -0.430420 0.642790 -0.692958
v -0.506011 0.623498 -0.125502
v -0.251192 0.562951 1.251818
v 0.137322 0.340474 1.869653
v 0.874784 0.505369 1.788906
v 0.988558 0.523899 1.602848
v 0.956122 0.661681 1.519771
v 0.667315 0.565409 1.201046
v 0.537048 0.518714 0.785831
v 0.420147 0.668785 -0.608216
v 0.939519 0.762459 -1.417716
v 0.805949 0.461707 -1.641170
v 0.620518 0.492123 -1.857340
v -0.413591 0.322496 -0.629282
v -0.457937 0.375891 0.041194
v -0.357117 0.354365 0.854484
v -0.096730 0.417985 1.432641
v 0.371704 0.481132 0.255291
v -0.144160 0.384973 1.200746
v 0.361448 0.523717 2.141229
v 0.829169 0.475978 1.363859
v 0.531394 0.389178 -0.671118
v 0.905047 0.505688 -1.455461
v 0.334439 0.293569 -2.004645
v -0.199727 0.114609 1.361575
v 0.609813 0.205921 2.124403
v 0.708482 0.376116 1.115845
v 0.535199 0.249318 -0.745600
v 0.941319 0.109017 1.761777
v 0.444049 0.129944 0.585038
v 0.415704 0.239723 -0.372188
v 0.913081 0.116347 -1.428751
v -0.288759 0.154675 -1.045851
v -0.404053 0.123149 -0.548872
v -0.448963 0.094343 0.428037
v 0.274108 0.106696 2.023195
v 0.836595 0.167834 1.348869
v 0.602447 0.249686 1.024532
v 0.395542 0.152783 -0.096929
v 0.691237 0.115711 -1.727622
v 0.443000 0.118398 -1.988787
v -0.396502 0.161240 0.842208
v 0.422699 0.043108 2.091001
v 0.671316 0.131495 1.986045
v 0.983337 0.075575 1.586263
v 0.534471 0.132806 0.795279
v 0.398696 0.194283 0.241017
v 0.477001 0.085652 -0.607200
v 0.652345 0.102640 -1.069171
v 0.852451 0.078116 -1.580358
v 0.324975 0.021022 -1.908823
v 0.091947 0.129894 -1.803728
v -0.016170 0.050170 -1.520263
v -0.161095 0.030257 -1.110018
v -0.457075 0.081559 -0.007432
v 0.321394 0.068420 0.109529
v -0.179495 0.017395 1.091636
v -0.112469 0.017613 1.357646
v -0.279716 0.000628 0.644109
v 0.548640 -0.010657 1.978467
v 0.495332 0.020866 0.989975
v 0.335967 0.004924 0.610664
v 0.338872 0.035205 -0.391211
v 0.418024 -0.008013 -0.747399
v 0.783676 0.001868 -1.408907
v -0.236453 -0.014957 -0.887601
v -0.305895 0.025386 -0.598288
v 0.167083 0.018061 1.717449
v 0.770691 0.015812 1.440712
v 0.657545 0.017307 -1.660242
v -0.233584 -0.028381 0.116933
v 0.218999 0.016574 1.504009
v 0.660482 -0.010009 1.905525
v 0.876211 0.017560 1.665613
v 0.239243 -0.027086 0.462656
v -0.217540 -0.012829 -0.315178
v 0.069622 -0.033256 1.241843
v 0.432773 0.003674 1.236482
v 0.264457 0.041351 1.056689
v 0.130915 0.003200 0.779180
v -0.154563 0.010476 0.303704
v 0.014167 0.022791 0.262193
v -0.269353 -0.035171 0.366626
v 0.083742 0.000622 -0.194305
v -0.136775 0.007469 0.004859
v 0.042959 0.007761 -0.674623
v 0.272926 -0.009938 -0.761430
v 0.213880 -0.035577 -1.357218
vn -0.5980 -0.7502 0.2821
vn -0.4175 -0.7508 -0.5119
vn 0.1030 -0.9922 0.0698
vn -0.0204 0.9400 -0.3407
vn -0.6521 -0.1753 -0.7376
vn 0.1439 -0.8346 0.5318
vn 0.4785 0.8537 -0.2054
vn -0.4028 0.9107 -0.0919
vn 0.0978 0.8935 0.4383
vn -0.4785 0.8298 0.2871
vn -0.2927 0.8503 -0.4375
vn -0.5643 0.7637 0.3137
vn -0.8951 0.3426 -0.2854
vn -0.3311 0.7550 0.5661
vn -0.6880 0.6878 -0.2317
vn -0.8307 -0.3692 0.4167
vn -0.6020 0.7074 0.3704
vn -0.3329 0.9362 -0.1127
vn -0.1313 0.9901 0.0492
vn -0.3791 0.7454 -0.5483
vn 0.0845 0.9933 -0.0792
vn -0.1035 -0.9930 -0.0576
vn -0.2528 -0.9603 -0.1177
vn -0.2018 -0.9173 0.3433
vn 0.4217 -0.8087 -0.4100
vn 0.0572 0.9857 0.1582
vn 0.1939 0.7798 0.5953
vn -0.3614 -0.7565 -0.5450
vn 0.1281 -0.8964 0.4243
vn 0.0361 -0.9900 -0.1363
vn 0.0277 -0.9943 -0.1034
vn -0.9886 0.0418 0.1445
vn -0.1617 0.9381 0.3062
vn -0.6933 0.6031 0.3945
vn 0.6130 -0.7716 -0.1701
vn 0.1773 0.9541 -0.2414
vn -0.9550 -0.2856 0.0806
vn 0.4985 0.8471 0.1842
vn 0.3573 -0.9332 -0.0394
vn 0.0688 -0.9773 0.2003
vn -0.1987 0.9311 0.3059
vn -0.3393 -0.8755 0.3439
vn -0.5350 -0.6661 -0.5197
vn -0.3105 -0.9071 -0.2843
vn -0.1159 -0.9394 0.3227
vn -0.9536 0.2615 0.1494
vn 0.9865 0.0673 -0.1494
vn -0.8890 0.4533 0.0645
vn -0.3986 0.9100 0.1137
vn -0.0286 0.9129 0.4071
vn -0.0227 -0.7633 -0.6456
vn -0.7030 -0.6278 -0.3342
vn -0.0004 -0.7306 -0.6829
vn -0.8893 -0.4493 0.0852
vn -0.4217 -0.8859 0.1934
vn -0.6413 -0.7645 0.0654
vn -0.3147 0.8758 -0.3661
vn -0.6443 0.7621 -0.0640
vn -0.9110 -0.0363 -0.4109
vn -0.6556 -0.2825 -0.7003
vn -0.9023 -0.2723 -0.3343
vn -0.9369 -0.1859 0.2961
vn -0.9796 0.1874 -0.0720
vn -0.8793 -0.3361 0.3375
vn -0.7205 0.6823 0.1239
vn 0.2670 0.6511 0.7105
vn 0.7290 0.6798 -0.0806
vn 0.1769 0.9104 0.3739
vn -0.8887 -0.4208 -0.1822
vn -0.2575 -0.9644 -0.0598
vn -0.0034 -0.7733 0.6340
vn -0.2369 -0.5444 0.8047
vn -0.2738 -0.8881 0.3692
vn -0.7305 0.4277 -0.5325
vn -0.0923 -0.1698 0.9811
vn -0.7035 0.1328 -0.6982
vn -0.4748 -0.6464 -0.5973
vn -0.9214 -0.2059 -0.3296
vn -0.0762 -0.9406 -0.3310
vn -0.7182 -0.6938 -0.0539
vn -0.6073 -0.7163 -0.3437
vn -0.4095 0.1501 0.8999
vn -0.9025 0.0006 -0.4307
vn -0.8355 0.5309 0.1419
vn -0.9081 0.0033 -0.4187
vn -0.7120 0.6411 0.2864
vn -0.9976 0.0273 0.0643
vn -0.5950 -0.6166 -0.5155
vn -0.8718 -0.3319 -0.3603
vn -0.7732 -0.3708 -0.5144
vn 0.3041 0.8707 0.3865
vn 0.2961 0.9445 -0.1420
vn 0.8041 -0.3457 -0.4835
vn -0.0866 0.5397 -0.8374
vn -0.8171 -0.4967 0.2925
vn -0.8589 0.4985 0.1177
vn -0.9374 -0.2314 0.2603
vn -0.9915 -0.0692 -0.1098
vn -0.4737 0.2591 -0.8417
vn -0.7782 -0.0879 -0.6219
vn -0.5916 0.2347 -0.7713
vn -0.7270 0.0379 -0.6856
vn -0.9256 -0.1122 0.3615
vn -0.8047 0.0117 0.5936
vn -0.7128 0.1266 -0.6898
vn -0.9039 -0.3632 0.2261
vn -0.9861 -0.1203 -0.1149
vn -0.7694 -0.0966 -0.6314
vn -0.1990 0.1083 0.9740
vn -0.0468 -0.6141 -0.7878
vn -0.0472 -0.0026 -0.9989
vn 0.1393 0.0813 -0.9869
vn -0.9638 -0.1950 -0.1818
vn -0.8764 0.1411 -0.4605
vn -0.7153 0.2055 -0.6680
vn -0.7343 -0.3063 0.6059
vn -0.7381 -0.4747 -0.4794
vn -0.7696 -0.2628 0.5819
vn -0.7224 0.1353 -0.6781
vn -0.7733 -0.0290 -0.6334
vn -0.9009 -0.2409 0.3609
vn -0.9796 0.1495 -0.1343
vn -0.8676 -0.3097 0.3892
vn -0.4763 -0.3754 -0.7951
vn -0.8711 -0.0632 -0.4870
vn -0.1923 -0.0605 -0.9795
vn 0.9212 -0.2646 0.2853
vn 0.6041 -0.0362 0.7961
vn 0.6696 -0.1593 0.7255
vn -0.9738 -0.0490 -0.2221
vn -0.9864 0.1204 -0.1118
vn -0.9752 -0.1100 -0.1919
vn -0.9979 -0.0332 -0.0557
vn -0.6279 0.2671 0.7310
vn 0.5399 0.1537 0.8276
vn -0.9538 -0.1310 0.2703
vn -0.9590 -0.2142 -0.1853
vn -0.9887 -0.0503 -0.1415
vn -0.9461 -0.1610 0.2811
vn -0.9530 -0.1468 0.2651
vn -0.7151 0.2013 0.6694
vn -0.8374 0.2410 0.4907
vn -0.9833 -0.1803 0.0232
vn -0.9640 -0.2382 -0.1179
vn -0.8675 -0.2226 0.4448
vn -0.9188 -0.2579 0.2989
vn -0.9646 0.2320 -0.1255
vn -0.8140 -0.3278 -0.4795
vn -0.8369 0.1834 -0.5158
vn -0.9627 0.1690 -0.2114
vn -0.7902 -0.0067 0.6129
vn -0.9224 -0.2120 -0.3229
vn -0.8738 -0.2405 0.4227
vn -0.9205 -0.0041 -0.3907
vn -0.8956 0.2004 -0.3972
vn -0.8209 -0.2372 0.5195
vn -0.8102 0.1736 0.5598
vn -0.7966 -0.1476 0.5863
vn -0.9860 -0.0164 0.1660
vn -0.4135 0.1588 -0.8965
vn -0.9792 -0.1097 -0.1709
vn -0.4967 -0.2680 -0.8255
vn -0.9939 -0.1088 -0.0167
vn -0.7637 -0.3431 0.5468
vn -0.4302 0.4010 -0.8088
vn 0.1275 0.0277 -0.9914
vn -0.5081 -0.2830 -0.8135
vn -0.8681 -0.1092 0.4842
vn -0.9107 0.2224 0.3482
vn -0.9459 -0.0696 -0.3170
vn -0.9736 0.1051 -0.2026
vn -0.8400 0.2168 0.4974
vn -0.7461 -0.3650 -0.5569
vn -0.7672 -0.6271 -0.1352
vn -0.3208 -0.4697 0.8225
vn -0.6775 0.5763 -0.4570
vn -0.9391 0.3388 0.0568
vn -0.9645 -0.0755 0.2529
vn -0.8813 -0.2742 0.3849
vn -0.7996 0.4679 -0.3765
vn -0.9289 0.1847 -0.3210
vn -0.8588 -0.1391 -0.4931
vn -0.7493 0.4458 0.4897
vn -0.5588 0.5904 0.5824
vn -0.3811 -0.8387 -0.3891
vn -0.9765 -0.0126 0.2153
vn 0.4241 0.6041 -0.6746
vn -0.6059 0.3886 -0.6942
vn -0.9079 0.4167 -0.0452
vn -0.6636 -0.7373 -0.1269
vn -0.6893 -0.7094 0.1472
vn -0.0268 0.1294 -0.9912
vn -0.4032 0.9141 0.0441
vn -0.9996 -0.0105 -0.0268
vn -0.2638 -0.8810 -0.3928
vn -0.1719 -0.5437 0.8215
vn -0.4437 -0.8793 -0.1731
vn 0.2739 -0.7127 0.6458
vn -0.5031 0.5239 -0.6874
vn 0.6220 -0.3966 -0.6752
vn 0.5055 -0.8299 -0.2361
vn 0.3348 -0.5711 -0.7495
vn -0.1727 -0.8311 -0.5286
vn -0.3167 -0.8155 0.4843
vn -0.9291 0.1996 -0.3112
vn -0.6816 0.6078 -0.4073
vn -0.6743 0.7204 0.1622
vn -0.2104 0.9773 -0.0238
vn -0.4796 0.8383 -0.2594
vn -0.4108 0.3397 0.8461
vn -0.8991 0.3164 0.3023
vn -0.1961 -0.9456 -0.2594
vn 0.0919 0.9941 -0.0583
vn -0.4111 0.9072 0.0891
vn 0.3927 -0.9166 0.0752
vn -0.6197 0.7751 0.1236
vn -0.0340 -0.9547 -0.2956
vn -0.4480 -0.8169 0.3634
vn -0.0779 -0.9409 -0.3296
vn 0.9543 0.0261 -0.2979
vn -0.2279 -0.9319 -0.2820
vn -0.5073 -0.8604 -0.0479
vn -0.2797 -0.9124 -0.2988
vn -0.6524 -0.7533 -0.0825
vn 0.2303 -0.9294 0.2884
vn -0.3015 -0.9533 0.0159
vn -0.2454 -0.9660 0.0808
vn -0.2411 -0.9239 0.2972
vn -0.1857 -0.9697 0.1589
vn -0.4057 -0.8832 -0.2353
vn -0.0902 -0.9110 0.4024
vn -0.2972 -0.9510 0.0855
vn -0.1854 -0.9149 -0.3587
vn 0.0205 -0.8845 -0.4661
vn -0.1270 -0.9751 0.1817
vn 0.6300 -0.7663 -0.1263
vn -0.2896 -0.9278 -0.2352
vn -0.2251 -0.9414 -0.2510
vn -0.9881 -0.1452 -0.0516
vn -0.3887 -0.8758 0.2861
vn 0.6916 -0.7176 0.0825
vn 0.2008 -0.9772 -0.0685
vn 0.6805 -0.6410 0.3550
vn 0.2815 -0.7151 0.6398
vn 0.6117 -0.5648 -0.5539
vn -0.5656 0.8214 -0.0739
vn -0.0443 -0.9700 -0.2389
vn -0.0429 -0.9983 -0.0389
vn 0.2094 -0.9508 -0.2283
vn -0.3034 -0.8082 -0.5048
vn 0.1628 -0.9453 0.2828
vn 0.5128 -0.8411 -0.1722
vn 0.0343 -0.9974 0.0626
vn 0.1929 -0.9164 -0.3507
vn 0.7679 0.3745 0.5197
vn 0.1924 0.9344 -0.2997
vn 0.2225 -0.0401 -0.9741
vn -0.5311 0.7864 0.3155
vn -0.4092 0.9115 0.0417
vn 0.9955 -0.0555 0.0764
vn -0.1462 0.9756 0.1636
vn -0.6035 0.7104 -0.3621
vn 0.7272 0.2573 0.6364
vn 0.2242 0.3655 0.9034
vn -0.9751 -0.1457 -0.1671
vn -0.9333 -0.1656 0.3185
vn -0.0923 0.2037 0.9747
vn -0.8815 -0.1840 -0.4349
vn 0.0675 -0.1580 0.9851
vn -0.9428 0.0253 -0.3324
vn -0.0743 -0.0451 0.9962
vn -0.6095 -0.0318 -0.7921
vn -0.7607 -0.4545 -0.4634
vn -0.7023 0.6876 -0.1843
vn -0.2020 0.9633 -0.1766
vn -0.1803 0.9808 0.0747
vn -0.5264 -0.8403 0.1296
vn -0.4737 -0.5285 -0.7044
vn -0.2623 -0.9620 0.0757
vn -0.7383 -0.6683 -0.0911
vn -0.0287 0.9982 0.0532
vn 0.6504 -0.7246 0.2278
vn 0.0820 0.9386 -0.3352
vn -0.0495 -0.9921 -0.1152
vn -0.0478 -0.9509 0.3058
vn -0.3426 -0.9376 0.0598
vn -0.0673 -0.1876 0.9799
vn 0.5916 -0.8028 0.0739
vn 0.1816 -0.9757 0.1227
vt 1.821501 1.005600
vt 1.719700 0.962600
vt 1.790200 1.046400
vt 0.738160 1.710185
vt 0.828400 1.748200
vt 0.777600 1.816200
vt 0.373068 1.491794
vt 0.563498 1.320958
vt 0.530200 1.632100
vt 0.675336 1.593891
vt 0.757037 1.269001
vt 0.720738 1.530596
vt 0.338592 1.101678
vt 0.456821 1.256284
vt 0.289637 1.247329
vt 0.462856 1.106341
vt 0.183338 0.768198
vt 0.253329 0.561155
vt 0.468426 0.684258
vt 0.624700 1.005300
vt 0.559623 1.004985
vt 0.683545 0.999700
vt 0.370412 0.461699
vt 0.475509 0.377116
vt 0.414800 0.207747
vt 0.338402 0.326370
vt 0.558087 0.138061
vt 0.292734 0.123532
vt 0.413215 0.108173
vt 0.588821 -0.021940
vt 0.491956 -0.047591
vt 0.205974 -0.282136
vt 0.284265 0.073186
vt 0.139348 -0.038395
vt 0.580043 -0.110185
vt 0.600600 -0.236100
vt 0.330467 -0.464842
vt 0.730290 -0.445607
vt 0.396500 -0.405700
vt 0.517748 -0.635350
vt 0.906006 0.999257
vt 0.918300 0.960500
vt 0.852600 0.990700
vt 0.568305 1.749805
vt 0.667761 1.907887
vt 0.736047 1.875504
vt 0.101994 0.608043
vt 0.026800 0.394074
vt 0.158976 0.350791
vt 0.405400 1.003400
vt 0.283567 0.976109
vt 0.310500 1.055100
vt 0.453719 -0.815298
vt 0.639288 -0.883360
vt 0.510667 -0.674956
vt 0.837888 -0.633698
vt 0.881085 -0.703728
vt 0.885100 -0.800400
vt 0.820500 -0.469800
vt 0.855691 -0.418593
vt 0.844630 -0.565960
vt 0.092847 0.975448
vt 0.061606 0.945817
vt -0.026700 0.994700
vt 0.505040 0.389114
vt 0.526326 0.579006
vt 0.565244 1.024790
vt 0.660533 1.045609
vt 0.700426 1.216958
vt -0.875909 0.994039
vt -0.703722 0.909030
vt -0.761400 0.983300
vt 0.295206 1.575701
vt 0.247800 1.479200
vt 0.305150 1.491771
vt 1.230307 0.919033
vt 1.235500 0.998100
vt 1.128165 0.972221
vt 0.291214 -0.575268
vt 0.408300 -0.761008
vt 0.451502 -0.705630
vt 0.558922 -0.929213
vt 0.110600 0.952300
vt 0.093335 0.991024
vt 0.052100 0.951900
vt 0.587305 0.540447
vt 0.789447 1.813890
vt 0.819513 1.877927
vt 0.834204 1.745601
vt 0.402701 1.841856
vt 0.420100 1.784500
vt 0.479660 1.838694
vt 1.838884 0.924968
vt 1.963993 0.939517
vt 1.860900 0.971500
vt -0.671197 0.937948
vt -0.741545 0.922055
vt -0.737200 0.996000
vt 0.557841 0.438926
vt 0.651400 0.333000
vt 0.557497 0.293353
vt 0.669877 0.978485
vt 0.751718 0.947243
vt 0.674447 0.920759
vt 0.787800 1.375400
vt 0.840377 1.419657
vt 0.803163 1.302225
vt 0.252300 0.968300
vt 0.310670 0.990413
vt 0.287100 0.883800
vt 0.137500 1.314400
vt 0.130651 1.215712
vt 0.206900 1.298000
vt 0.055114 0.900083
vt 0.216550 0.901746
vt -0.098015 0.985283
vt 0.128259 -0.255095
vt 0.135400 -0.348700
vt 0.190400 -0.378000
vt 0.570313 0.415475
vt 0.620165 0.456119
vt 0.618200 0.379900
vt 0.708778 0.905144
vt 0.688583 0.895368
vt 0.604912 0.920235
vt 1.332500 0.969000
vt 1.389463 0.937045
vt 1.308306 0.868939
vt 0.105338 0.941423
vt 0.041040 0.904652
vt -0.011463 0.933797
vt 0.216725 0.876735
vt 0.259496 0.959289
vt 0.211300 0.957500
vt 1.921500 0.949000
vt 1.968265 0.898836
vt 1.929692 0.851831
vt 0.096761 0.846213
vt 0.012718 0.870646
vt 0.036300 0.937900
vt 0.254600 0.925547
vt 0.193824 0.829765
vt -0.073726 0.926588
vt 0.337994 0.918102
vt 0.616600 2.000600
vt 0.596690 2.011185
vt 0.676100 2.012600
vt -1.015322 0.828462
vt -0.911900 0.828100
vt -0.968281 0.870652
vt -0.525192 0.729746
vt -0.337317 0.878679
vt -0.536890 0.886070
vt 0.064436 1.248664
vt 0.101293 1.147861
vt 0.146300 1.194100
vt 1.367903 0.844018
vt 1.506991 0.781648
vt 1.627302 0.827082
vt 1.845069 0.877441
vt 1.924326 0.805890
vt 1.958300 0.879600
vt -0.825337 0.845901
vt -0.905689 0.708943
vt -0.857900 0.906300
vt 0.345607 0.913866
vt 0.301470 0.806514
vt 0.270300 0.879700
vt 0.756392 0.945430
vt 0.663156 0.750785
vt 0.559452 0.904698
vt 1.074389 0.919175
vt 1.020010 0.703895
vt 0.898855 0.857932
vt 0.322168 0.808633
vt 0.211032 0.794204
vt 0.265300 0.889200
vt 1.526256 0.705950
vt 1.648601 0.834245
vt 0.399697 -1.026332
vt 0.323400 -0.976800
vt 0.355700 -1.024200
vt -0.963379 0.685679
vt -0.994226 0.705393
vt -0.960700 0.839300
vt -0.745203 0.890621
vt -0.694839 0.760395
vt -0.732665 0.697809
vt 0.098804 0.722789
vt 0.028236 0.765681
vt -0.011873 0.694191
vt -0.008100 0.815000
vt 1.755446 0.845647
vt 1.791186 0.706884
vt 1.724383 0.639199
vt 0.598500 0.755405
vt 0.656098 0.602522
vt 0.720100 0.735600
vt 1.521390 0.490486
vt 1.285477 0.769332
vt 0.181241 0.820873
vt 0.265475 0.703642
vt 0.175800 0.694800
vt -0.980582 0.565796
vt -0.889221 0.586220
vt -0.978833 0.652498
vt -0.212399 0.821147
vt -0.152805 0.564500
vt -0.093646 0.690463
vt 0.706836 0.665919
vt 0.693494 0.537788
vt 0.669000 0.623000
vt 0.897199 0.608412
vt 0.971252 0.602804
vt 0.858522 0.735414
vt 0.646290 0.729459
vt 0.592839 0.401694
vt 0.383099 0.686696
vt 0.008995 0.647991
vt -0.056168 0.630406
vt -0.009200 0.727100
vt -0.119540 0.584292
vt 0.096520 0.511969
vt 0.040400 0.630900
vt 0.944115 0.514429
vt 0.990833 0.605735
vt 0.956288 0.647784
vt 1.698788 0.454019
vt 1.726697 0.604776
vt 0.747062 0.535151
vt 0.714300 0.589300
vt 0.734500 0.651800
vt 0.099101 -0.740147
vt 0.052100 -0.788600
vt 0.113600 -0.802700
vt -0.018698 0.568059
vt -0.037600 0.547300
vt -0.018549 0.632130
vt 0.329537 0.456728
vt 0.666769 0.479061
vt 0.128998 0.620193
vt 1.170612 0.686971
vt 1.347834 0.429083
vt 1.862246 0.517865
vt 1.976000 0.504600
vt 2.018820 0.547860
vt 0.084274 0.619015
vt -0.007374 0.371298
vt -0.063642 0.579106
vt 0.449302 0.273127
vt 0.151997 0.435225
vt 0.203100 0.409400
vt 0.200800 0.471900
vt 0.765618 0.601179
vt 0.903224 0.432348
vt 0.856633 0.198309
vt 1.527918 0.616514
vt 1.570084 0.449554
vt 1.436499 0.433788
vt 0.121672 0.584236
vt 0.161173 0.380664
vt 0.107800 0.468400
vt 0.054315 0.374252
vt 0.162219 0.390767
vt -0.273399 0.288995
vt -0.155630 0.654124
vt 0.848778 0.198760
vt 0.703700 0.457600
vt 0.550161 0.311574
vt 0.649600 0.340700
vt 0.552000 0.370500
vt 0.391074 0.280567
vt 0.463100 0.347800
vt 0.462740 0.417985
vt 0.204906 0.374223
vt 0.155173 0.277694
vt 0.102518 0.404620
vt 1.011952 0.482785
vt 1.124149 0.429795
vt 1.038899 0.281610
vt -0.746903 0.186016
vt -0.665183 0.282916
vt -0.832049 0.304013
vt 0.106210 0.266345
vt 0.164700 0.251400
vt 0.138500 0.320300
vt 1.484529 0.313207
vt 1.751030 0.332814
vt 0.719153 0.162872
vt 0.587777 0.244951
vt 0.688162 0.415666
vt 0.813901 0.326887
vt 0.860681 0.240935
vt 0.762081 0.236832
vt -0.428727 0.358995
vt -0.377931 0.214042
vt 0.377200 0.358792
vt 0.337722 0.111134
vt 0.156634 0.457994
vt 0.490732 0.337115
vt 0.494918 0.258676
vt 1.896219 0.296614
vt 1.818661 0.213178
vt 1.834700 0.336800
vt 0.075016 0.125362
vt 0.217035 0.290172
vt 0.659453 0.149632
vt 0.842821 0.088308
vt 0.981261 0.295517
vt 0.362704 0.161503
vt 0.379219 0.248148
vt 0.285400 0.245000
vt 0.815222 0.108672
vt -0.439500 0.241300
vt -0.450639 0.163848
vt -0.535953 0.292963
vt 0.149717 0.099764
vt -0.002073 0.126601
vt -0.143174 0.176479
vt 1.016032 0.215488
vt 0.957100 0.228200
vt 1.126062 0.253225
vt 1.016628 0.075273
vt 1.478611 0.323271
vt 1.303356 0.109814
vt 1.347634 0.321869
vt 1.752078 0.330230
vt 1.703632 0.140882
vt 1.647544 0.377465
vt 0.335163 0.105111
vt 0.476772 0.071048
vt 0.701561 0.101605
vt 0.269600 0.166400
vt 0.279596 0.135137
vt 0.271757 0.251428
vt 1.999264 0.204980
vt 2.003900 0.123000
vt 2.011500 0.154200
vt 0.117800 -0.885400
vt 0.116896 -0.819207
vt 0.186100 -0.859100
vt -0.632902 0.295445
vt -0.490922 0.129258
vt -0.572900 0.166700
vt 0.458417 0.175311
vt 0.405558 0.149132
vt -0.024711 0.221516
vt -0.004239 0.145050
vt -0.018579 0.083110
vt 0.454293 0.066330
vt 0.503900 0.114600
vt 0.410549 0.144521
vt 0.255623 0.117035
vt 0.339000 0.062700
vt 0.304700 0.132300
vt -0.186381 0.143375
vt -0.142009 0.048794
vt -0.293500 0.134900
vt 0.402424 0.364632
vt 0.398100 0.253400
vt 0.347300 0.276600
vt 1.046197 0.127915
vt 1.250219 0.028291
vt 1.188100 0.084100
vt 0.107499 0.800655
vt 0.017706 0.711664
vt 0.073900 0.721600
vt 1.983502 0.097483
vt 1.943700 0.017400
vt 2.044200 0.077300
vt -0.976348 0.101516
vt -0.897506 0.094709
vt -0.943700 0.017400
vt -0.042947 0.084699
vt -0.129300 0.028200
vt 0.121684 0.054769
vt 0.085000 0.094200
vt 0.042275 0.107633
vt -0.439810 0.053261
vt -0.272199 0.012405
vt -0.210903 0.077431
vt 0.834097 1.149571
vt 0.947365 0.993892
vt 0.895025 1.217337
vt -0.872772 -0.011068
vt -0.942184 0.011586
vt -0.331452 0.092656
vt -0.296693 0.029338
vt -0.399600 0.026300
vt 0.189920 0.064960
vt 0.136536 -0.012596
vt 0.013885 1.645024
vt 0.033726 1.607525
vt -0.031641 1.622999
vt 0.301200 1.991900
vt 0.337460 1.926402
vt 0.217200 1.901500
vt 0.869000 0.999000
vt 0.879689 0.976728
vt 0.965220 0.696983
vt 0.973311 0.868150
vt -0.389400 -0.028100
vt 0.166356 1.365084
vt 0.220219 1.400415
vt 0.303760 1.262419
vt 0.653900 0.016000
vt 0.750410 -0.033535
vt 0.774333 0.029114
vt 0.316596 0.006885
vt 0.273200 -0.034300
vt 0.221665 0.063472
vt 0.869814 0.312430
vt 0.845400 0.180800
vt 0.893765 0.122619
vt 0.625838 -0.021854
vt 0.814291 -0.215563
vt 0.894507 0.059138
vt 0.482182 0.079699
vt 0.489911 -0.208716
vt 0.361100 -0.090200
vt 0.208537 -0.719766
vt 0.515543 -0.510722
vt 0.352361 -0.344606
vt 0.245424 -0.848996
vt 0.325269 -0.830077
vt 0.389500 -0.777600
vt 0.492583 -0.622636
vt 0.424000 -0.416200
vt -0.337525 0.031536
vt -0.469644 0.018371
vt -0.358672 -0.042331
vt 0.346061 -0.192339
vt 0.354686 -0.343686
vt 0.447100 -0.218700
vt 0.970100 -0.015500
vt 1.095117 0.018099
vt 0.979575 0.014883
vt 0.591570 0.210990
vt 0.601838 0.048737
vt 0.782590 0.339366
vt 0.666298 0.384323
vt 0.525773 0.251447
vt 0.606437 0.725352
vt 0.415910 0.031118
vt 0.462700 -0.042800
vt 0.504300 -0.001200
vt 0.828711 0.586720
vt 0.884354 0.567478
vt 0.846407 0.813036
vt 0.908700 0.020600
vt 0.885352 -0.002970
vt 1.004460 -0.026159
vt 0.612115 1.086419
vt 0.741221 0.834739
vt 0.847355 0.990272
vt -0.126894 0.005694
vt -0.041118 0.015743
vt -0.199000 0.032900
vt 0.439569 1.322774
vt 0.480719 1.475859
vt 0.693791 1.112208
vt 0.629500 1.365100
vt 0.706683 1.437011
vt 0.529198 1.623928
vt 0.470562 1.576268
vt 0.187934 1.718455
vt 0.505375 1.809065
vt 0.374074 1.917194
vt 0.883176 1.664877
vt 0.796234 1.391888
vt 0.431100 1.662100
vt 0.527766 1.611682
vt 0.438614 1.427769
vt 0.239100 0.869700
vt 0.369923 0.934771
vt 0.364611 0.872851
vt 0.241542 0.262796
vt 0.172285 0.268042
vt 0.139778 -0.059228
vt 0.299840 0.078795
vt 0.402893 -0.309314
vt 0.393970 0.042118
vt 0.140019 1.034129
vt 0.155000 0.972800
vt 0.068400 1.005100
vt 0.991266 1.004439
vt 1.068000 0.984700
vt 1.083700 1.041700
vt 0.573474 0.987798
vt 0.535500 1.032700
vt 0.491500 1.026600
vt 0.597208 -0.257672
vt 0.612083 -0.168529
vt 0.663727 -0.261034
vt 0.538628 -0.323128
vt 0.557854 -0.399055
vt 0.739438 -0.864982
vt 0.794587 -0.771104
vt 0.524915 1.878686
vt 0.455556 1.727764
vt 0.095566 1.052176
vt 0.160543 1.064594
vt 0.676339 -0.132438
vt 0.117202 0.049079
vt 0.608178 0.928532
vt 1.011327 1.585175
vt 0.916482 1.543611
vt 0.198179 1.377194
vt 0.156100 1.272200
vt 0.196900 1.277900
vt 0.743900 -0.342700
vt 0.753595 -0.233347
vt 0.808924 -0.341452
vt 0.938955 -0.589248
vt 0.307459 0.951078
vt 0.609214 0.920342
vt 0.390800 1.000100
vt 0.015499 0.264904
vt 0.003100 0.185700
vt 1.346339 0.996155
vt 0.640900 0.951200
vt 0.698663 0.910248
vt 0.655806 0.974167
vt -0.576800 0.961500
vt -0.472906 0.952995
vt -0.561809 0.907033
vt 1.170310 0.948901
vt 1.235470 0.975900
vt 1.246500 0.886200
vt 0.335488 0.917198
vt 0.383900 0.864600
vt 0.401924 0.944509
vt 1.526755 0.924924
vt 1.478400 0.894300
vt 1.463000 0.877600
vt 1.751000 0.922600
vt 1.840700 0.970400
vt -0.416200 0.916700
vt -0.868161 0.907338
vt -0.888500 0.853600
vt -0.927217 0.866445
vt -0.826456 0.885169
vt -0.778454 0.700430
vt -0.659274 0.850935
vt 0.438836 0.742641
vt 0.864057 0.739203
vt 1.441200 0.802300
vt 1.592880 0.862970
vt 1.537318 0.769559
vt 0.652558 0.798920
vt 0.766156 0.759796
vt 0.728809 0.876545
vt -0.691293 0.880812
vt -0.657151 0.923702
vt -0.582149 0.790605
vt -0.683993 0.729553
vt 0.039937 0.781516
vt -0.223300 0.773500
vt -0.307192 0.785796
vt 1.894617 0.716748
vt 1.904100 0.651500
vt 1.919909 0.555673
vt 0.863986 0.753840
vt 0.873718 0.708347
vt 0.865037 0.874540
vt 0.855907 0.757262
vt 0.824900 0.649900
vt 0.849400 0.732200
vt 0.784532 0.566881
vt 0.785417 0.681537
vt 0.831800 0.624800
vt 0.841500 0.687300
vt -0.345009 0.527065
vt 1.756074 0.613147
vt 1.940525 0.636113
vt 1.744754 0.708880
vt -0.018700 0.668100
vt 0.344445 0.603202
vt 0.390183 0.681907
vt 0.379000 0.597700
vt 1.023500 0.681000
vt 1.041522 0.576759
vt 0.999794 0.635569
vt -0.873000 0.558000
vt -0.728252 0.522930
vt -0.798862 0.575836
vt 0.437132 0.745574
vt -0.628663 0.480816
vt -0.718900 0.562400
vt -0.030941 0.630362
vt 0.047473 0.677260
vt 0.004013 0.495694
vt 0.376310 0.354152
vt 0.254739 0.564948
vt 0.677615 0.890598
vt 0.661600 0.993500
vt 0.701800 0.977500
vt 1.686600 0.616800
vt 1.680356 0.526968
vt 1.616818 0.616851
vt 0.261210 0.608099
vt 0.339062 0.616861
vt 0.360696 0.412224
vt -0.066917 0.473099
vt 0.370883 0.551505
vt 0.340500 0.515800
vt 0.475178 0.486444
vt 0.140068 -0.340131
vt 0.165900 -0.264500
vt 0.226500 -0.292000
vt 0.989882 0.610407
vt 1.988506 0.567123
vt 2.010300 0.463100
vt 1.942800 0.514200
vt 0.860045 1.165055
vt 0.959362 1.122348
vt 0.917471 1.224899
vt 0.155000 0.472300
vt 0.631589 0.553622
vt 0.572992 0.429023
vt -0.416959 0.568886
vt -0.503677 0.504937
vt -0.295249 0.370248
vt -0.369400 0.466300
vt -0.255792 0.415052
vt -0.225583 0.547785
vt 1.564849 0.512572
vt 1.641886 0.495110
vt 1.607582 0.497255
vt -0.853211 0.402401
vt -0.778500 0.340700
vt -0.432823 0.361751
vt -0.089756 0.270694
vt 0.950200 1.039300
vt 0.226802 -0.921963
vt 0.140900 -0.882400
vt 0.137800 -0.847600
vt 1.124707 0.375422
vt 1.301488 0.408994
vt 1.297800 0.326800
vt -0.721460 0.517207
vt -0.746160 0.334684
vt 0.647708 0.464153
vt 0.724000 0.366300
vt 0.653400 0.406300
vt 0.172375 -0.307026
vt 0.145300 -0.420200
vt 0.213500 -0.427600
vt 0.408351 0.199731
vt 0.430102 0.302842
vt -0.676100 0.336600
vt -0.692445 0.243396
vt 1.344502 0.179522
vt 1.125017 0.165740
vt 0.050862 0.325137
vt 0.101886 0.418256
vt 0.108750 0.188317
vt 1.396160 0.105120
vt 1.291563 0.241517
vt 1.233328 0.189729
vt -0.633993 0.246436
vt -0.565500 0.197200
vt -0.551567 0.293172
vt -0.492500 0.158700
vt -0.373108 0.248363
vt -0.038485 0.288930
vt 0.647599 0.137191
vt -0.786400 0.247000
vt -0.788000 0.262400
vt -0.785841 0.188989
vt 0.696600 1.667300
vt 0.666600 1.618700
vt 0.734209 1.540993
vt -0.316090 0.103283
vt 0.003623 0.124410
vt 1.337892 0.069105
vt -0.610692 0.093361
vt 1.996762 0.209998
vt 1.930000 0.165900
vt 2.000365 0.116687
vt 1.023300 0.184400
vt -0.624042 0.079373
vt -0.521503 0.106077
vt 0.350700 0.466400
vt 0.416980 0.520792
vt 0.381383 0.362920
vt 2.007000 0.118300
vt 1.973800 0.076800
vt 2.023465 0.063103
vt 0.483209 1.927057
vt 0.611823 1.773339
vt 0.543347 1.923815
vt 1.281500 0.042000
vt 1.381200 0.008100
vt 1.674039 0.069055
vt 1.823258 0.045956
vt 1.786696 0.082276
vt 0.649554 0.142529
vt 0.650200 0.025400
vt 0.606900 0.075500
vt 1.022163 0.030103
vt 0.918426 0.033257
vt -0.448843 0.050861
vt 1.562991 0.018045
vt 1.506325 0.081181
vt 1.561600 0.075600
vt 1.072417 0.109857
vt 1.094666 0.012497
vt 1.886500 0.044700
vt 1.791651 0.063633
vt 1.897200 0.015300
vt -0.755900 0.069200
vt -0.657400 0.064900
vt -0.657269 -0.000935
vt 0.252000 -0.002000
vt 0.385410 0.612329
vt 0.458955 0.665483
vt 0.457862 0.550247
vt 0.341200 1.030200
vt 0.379849 1.112098
vt 0.377274 0.950551
vt 0.826681 0.407704
vt 0.961735 0.461763
vt 0.830500 -0.012300
vt 0.762453 -0.245069
vt 0.699100 -0.417300
vt 0.781922 -0.427246
vt 0.694468 -0.448649
vt 0.622200 -0.525000
vt 0.744761 -0.509393
vt 0.583171 -0.617930
vt 0.018700 -0.586000
vt 0.111400 -0.486200
vt 0.092444 -0.666988
vt 0.449770 1.111602
vt 0.038046 1.707171
vt 0.082900 1.776600
vt 0.100631 1.574011
vt 0.462707 -0.748261
vt 0.377938 -0.823469
vt 0.403528 -0.953856
vt -0.744077 -0.012570
vt -0.612074 -0.042266
vt -0.753465 0.023016
vt 0.180903 -0.643933
vt 0.648566 -0.268318
vt 0.500900 0.147000
vt 0.535648 0.047831
vt 0.113500 0.012900
vt 0.106300 -0.021600
vt 0.329672 0.002936
vt 0.527086 -0.032607
vt 0.598600 -0.002400
vt 0.557400 -0.006100
vt 0.712148 0.562655
vt 0.340288 -0.005038
vt 0.393700 -0.005600
vt 0.230176 0.009760
vt 0.612864 0.973004
vt -0.021882 -0.045578
vt -0.059800 0.003300
vt 0.073300 0.004600
vt 0.804042 1.236730
vt -0.351573 1.037918
vt -0.309900 0.977800
vt -0.370200 0.967900
vt -0.074279 0.813111
vt -0.713700 0.744500
vt -0.654027 0.846994
vt -0.760041 0.782148
vt 0.884403 0.909012
vt 1.079620 0.908626
vt 1.267778 0.787471
vt 0.454300 0.603500
vt 0.429000 0.618400
vt 1.156500 0.589100
vt 1.158159 0.639264
vt 0.766700 1.600500
vt 0.691000 1.608700
vt 0.753900 1.540800
vt 1.328417 0.473033
vt 1.330422 0.644975
vt 0.403820 0.136266
vt 0.195151 0.438080
vt 0.943500 0.001400
vt 1.907534 0.077502
vt 1.907800 0.165500
vt 1.841811 0.239533
vt 1.944236 0.098725
vt 1.954800 0.201700
vt 1.980291 0.097696
vt 1.285156 0.080125
vt 0.910382 0.060961
vt 0.844800 0.036400
vt 0.821100 0.094500
vt 0.110725 0.035739
vt 0.041791 0.080625
vt 0.325300 1.326300
vt 0.265688 1.322538
vt 0.401100 -0.008000
vt 0.397000 0.019100
vt 0.339000 -0.027900
vt 0.425496 1.522841
vt 0.440088 1.454899
vt 0.477484 0.549962
vt 0.659500 1.662700
vt 0.294300 0.192300
vt 1.088900 0.013000
vt 0.835481 0.023193
vt -0.062200 0.042600
vt 0.254065 1.526261
vt 0.440800 -0.005400
s 1
usemtl PhysicalMaterial
f 41/1/1 2/2/2 3/3/3
f 2/4/4 32/5/5 41/6/6
f 28/7/7 2/8/8 3/9/9
f 2/10/10 7/11/11 4/12/12
f 10/13/13 7/14/14 9/15/15
f 7/14/14 10/13/13 8/16/16
f 11/17/17 14/18/18 13/19/19
f 12/20/20 14/21/18 11/22/17
f 14/18/18 15/23/21 13/19/19
f 16/24/22 18/25/23 15/26/24
f 18/25/25 31/27/26 16/24/27
f 15/26/24 18/25/23 17/28/28
f 18/29/29 19/30/30 22/31/31
f 20/32/32 17/33/33 33/34/34
f 22/31/31 19/35/30 23/36/35
f 20/37/36 24/38/37 21/39/38
f 20/37/39 24/38/40 25/40/41
f 8/41/42 45/42/43 13/43/44
f 3/44/3 1/45/45 41/46/1
f 12/47/20 38/48/46 14/49/18
f 25/50/41 43/51/47 20/52/39
f 34/53/48 27/54/49 25/55/50
f 26/56/51 29/57/52 27/58/53
f 24/59/40 39/60/54 26/61/51
f 31/62/55 30/63/56 19/64/30
f 16/65/57 13/66/19 15/23/21
f 8/67/16 35/68/58 7/69/14
f 1/70/59 42/71/60 6/72/61
f 6/73/61 9/74/15 28/75/62
f 49/76/63 20/77/32 33/78/34
f 43/79/64 34/80/48 25/81/50
f 34/53/48 50/82/65 27/54/49
f 29/83/66 27/84/67 44/85/68
f 13/66/44 40/86/69 16/65/70
f 41/87/71 61/88/72 32/89/73
f 59/90/74 42/91/60 1/92/59
f 43/93/64 50/94/65 34/95/48
f 44/96/75 52/97/76 27/98/77
f 16/99/70 54/100/78 31/101/55
f 13/102/44 45/103/43 40/104/69
f 5/105/79 46/106/80 7/107/81
f 41/108/1 1/109/45 47/110/82
f 66/111/83 36/112/84 9/113/15
f 48/114/85 37/115/86 36/116/84
f 49/117/63 60/118/87 43/119/64
f 16/120/70 40/121/69 54/122/78
f 35/123/88 55/124/89 45/125/43
f 7/126/81 46/127/80 56/128/90
f 32/129/73 57/130/91 46/131/80
f 62/132/92 41/133/93 61/134/94
f 41/135/1 47/136/82 62/137/95
f 53/138/96 72/139/97 44/140/75
f 31/141/55 73/142/98 30/143/56
f 31/141/55 54/144/78 73/142/98
f 63/145/99 58/146/100 47/147/101
f 58/148/100 59/149/74 1/150/59
f 65/151/102 66/152/83 6/153/61
f 66/154/83 48/155/85 36/156/84
f 60/157/87 76/158/103 43/159/64
f 43/160/64 69/161/104 50/162/65
f 52/163/76 70/164/105 27/165/77
f 30/166/56 85/167/106 39/168/54
f 45/169/43 79/170/107 40/171/69
f 35/172/88 74/173/108 55/174/89
f 63/175/109 62/176/95 47/177/82
f 76/178/103 69/161/104 43/179/64
f 50/180/110 77/181/111 69/182/112
f 70/183/113 77/184/111 50/185/110
f 52/186/76 71/187/114 83/188/115
f 53/138/96 84/189/116 72/139/97
f 35/172/88 56/128/90 74/173/108
f 57/190/91 88/191/117 46/192/80
f 57/193/91 61/194/72 80/195/118
f 64/196/119 95/197/120 65/198/102
f 81/199/121 76/178/103 60/200/87
f 73/201/98 78/202/122 86/203/123
f 94/204/124 64/205/119 58/206/100
f 66/207/83 90/208/125 48/209/85
f 77/210/111 91/211/126 69/212/112
f 70/213/127 83/214/128 52/215/129
f 79/216/107 92/217/130 78/218/122
f 80/219/118 112/220/131 57/221/91
f 90/222/125 96/223/132 48/224/85
f 96/225/132 67/226/133 48/227/85
f 81/228/121 82/229/134 76/178/103
f 70/230/113 91/231/126 77/232/111
f 106/233/135 83/234/128 70/235/127
f 108/236/136 107/237/137 71/238/114
f 103/239/138 97/240/139 67/241/133
f 60/242/87 104/243/140 81/199/121
f 98/244/141 121/245/142 69/246/104
f 73/247/98 110/248/143 85/249/106
f 103/239/138 116/250/144 97/240/139
f 104/251/140 118/252/145 81/253/121
f 87/254/146 93/255/147 132/256/148
f 88/257/117 124/258/149 133/259/150
f 61/260/72 114/261/151 80/262/118
f 115/263/152 103/264/138 96/223/132
f 110/248/143 128/265/153 85/266/106
f 132/267/148 92/217/130 87/268/146
f 125/269/154 101/270/155 94/271/124
f 105/272/156 121/273/142 98/274/141
f 109/275/157 128/276/153 122/277/158
f 111/278/159 99/279/160 123/280/161
f 153/281/162 101/282/155 125/283/154
f 117/284/163 120/285/164 104/286/140
f 81/199/121 118/287/145 105/288/156
f 127/289/165 121/290/166 91/291/126
f 91/292/126 106/293/167 127/294/165
f 122/295/158 128/265/153 138/296/168
f 119/297/169 148/298/170 86/299/123
f 92/300/130 140/301/171 119/297/169
f 114/302/151 141/303/172 80/304/118
f 135/305/173 116/250/144 103/306/138
f 116/250/144 136/307/174 97/240/139
f 97/240/139 136/308/174 117/309/163
f 137/310/175 105/311/156 118/312/145
f 127/294/165 106/293/167 145/313/176
f 122/314/158 138/315/168 108/316/136
f 131/317/177 147/318/178 139/319/179
f 123/320/161 132/321/148 93/255/147
f 123/280/161 129/322/180 149/323/181
f 133/324/150 150/325/182 99/326/160
f 113/327/183 151/328/184 124/329/149
f 135/305/173 156/330/185 116/250/144
f 156/331/185 136/332/174 116/250/144
f 126/333/186 137/334/175 118/335/145
f 121/336/166 127/337/165 144/338/187
f 106/339/167 130/340/188 145/341/176
f 107/342/137 138/343/168 146/344/189
f 140/345/171 148/346/170 119/297/169
f 124/347/149 151/348/184 133/349/150
f 152/350/190 153/351/162 125/352/154
f 126/353/186 159/354/191 137/355/175
f 139/356/179 162/357/192 138/358/168
f 148/359/170 157/360/193 131/361/177
f 143/362/194 158/363/195 126/364/186
f 11/365/17 37/366/86 12/367/20
f 144/368/196 161/369/197 127/370/198
f 127/371/165 145/372/176 161/373/199
f 139/319/179 147/374/178 162/375/192
f 171/376/200 141/377/201 151/378/202
f 155/379/203 167/380/204 134/381/205
f 167/382/204 135/383/173 134/384/205
f 145/372/176 174/385/206 161/386/199
f 138/387/168 162/388/192 170/389/207
f 157/390/193 163/391/208 131/317/177
f 151/392/184 166/393/209 133/394/150
f 142/395/210 152/396/211 141/397/172
f 167/382/204 168/398/212 135/383/173
f 168/399/212 156/400/185 135/401/173
f 170/389/207 162/388/192 179/402/213
f 150/403/182 166/404/209 165/405/214
f 156/406/185 184/407/215 136/408/174
f 152/409/211 171/410/216 141/411/172
f 184/412/215 182/413/217 160/414/218
f 181/415/219 158/416/195 160/417/218
f 163/418/208 180/419/220 162/420/192
f 174/421/221 173/422/222 179/423/223
f 174/424/221 161/425/197 169/426/224
f 173/422/222 174/424/221 169/427/224
f 173/422/222 180/419/225 179/428/223
f 180/429/225 173/430/222 178/431/226
f 162/432/227 179/433/223 180/434/225
f 163/435/228 180/436/225 181/437/219
f 176/438/229 181/439/219 182/440/217
f 176/438/229 182/440/217 183/441/230
f 176/442/229 183/441/230 185/443/231
f 183/444/230 172/445/232 186/446/233
f 186/447/233 172/448/232 156/400/185
f 186/447/233 156/400/185 177/449/234
f 164/450/235 185/451/231 188/452/236
f 187/453/237 177/454/234 168/455/212
f 187/456/237 168/457/212 167/458/204
f 188/459/236 187/453/237 189/460/238
f 189/460/238 187/461/237 155/462/203
f 155/463/203 154/464/239 189/465/238
f 171/466/240 189/465/238 154/464/239
f 171/466/240 154/467/239 152/468/190
f 2/10/241 32/469/73 4/12/242
f 32/469/73 5/470/79 4/12/242
f 6/471/243 3/472/244 28/7/245
f 4/12/12 7/11/11 5/470/246
f 28/7/247 2/473/248 9/15/249
f 2/473/248 7/14/250 9/15/249
f 10/474/251 8/475/42 11/17/252
f 11/17/252 8/476/42 13/19/44
f 14/477/253 15/26/24 17/28/28
f 14/478/253 17/33/28 33/479/254
f 17/480/255 21/481/256 18/482/257
f 18/483/29 31/484/55 19/485/30
f 18/486/257 21/487/256 22/488/258
f 22/489/258 21/490/256 23/491/259
f 23/492/35 19/493/30 24/494/40
f 21/481/260 23/495/35 24/496/40
f 24/38/40 26/56/51 25/40/41
f 25/55/50 27/497/49 26/498/261
f 1/499/59 6/500/61 3/44/262
f 36/501/84 11/365/17 10/502/13
f 24/494/40 19/493/30 30/503/56
f 14/49/18 38/48/46 33/504/34
f 8/67/42 35/68/88 45/505/43
f 32/469/73 46/506/80 5/507/79
f 9/508/15 36/509/84 10/510/13
f 24/511/40 30/512/56 39/513/54
f 29/514/52 26/61/51 39/60/54
f 37/515/86 38/516/46 12/517/20
f 38/518/46 49/519/63 33/504/34
f 49/76/63 43/159/64 20/520/32
f 50/521/65 51/522/263 27/523/49
f 29/524/52 39/525/54 44/526/75
f 35/527/88 7/528/81 56/529/90
f 47/530/101 58/531/100 1/532/59
f 44/533/75 39/534/54 53/535/96
f 32/536/73 61/537/72 57/193/91
f 9/538/15 6/153/61 66/152/83
f 27/539/77 70/540/105 51/541/264
f 59/542/74 58/148/100 64/543/119
f 42/544/60 65/151/102 6/153/61
f 37/115/86 68/545/265 38/516/46
f 68/545/265 75/546/266 38/516/46
f 56/547/90 46/548/80 88/549/117
f 50/550/65 70/551/267 51/552/263
f 52/186/76 44/553/75 71/187/114
f 44/554/75 72/555/97 71/556/114
f 30/143/56 73/201/98 85/557/106
f 73/142/98 54/144/78 78/218/122
f 78/218/122 54/144/78 40/171/69
f 39/558/54 85/266/106 53/559/96
f 61/560/72 62/561/95 114/562/151
f 40/171/69 79/216/107 78/218/122
f 45/169/43 55/563/89 79/216/107
f 74/173/108 87/564/146 55/565/89
f 68/545/265 97/240/139 75/546/266
f 53/566/96 85/567/106 84/568/116
f 79/216/107 55/563/89 87/569/146
f 65/570/102 89/571/268 66/572/83
f 66/207/83 89/573/268 90/208/125
f 82/574/134 69/575/104 76/576/103
f 71/238/114 72/577/97 108/236/136
f 79/578/107 87/579/146 92/580/130
f 57/581/91 112/582/131 88/583/117
f 94/584/124 95/585/120 64/586/119
f 68/587/265 67/241/133 97/240/139
f 75/546/266 97/240/139 60/242/87
f 69/575/104 82/574/134 98/244/141
f 71/556/114 107/588/137 83/589/115
f 72/590/97 84/591/116 108/592/136
f 78/218/122 119/593/169 86/594/123
f 92/217/130 119/297/169 78/218/122
f 93/595/147 87/596/146 74/597/108
f 80/598/118 113/599/183 112/600/131
f 62/601/95 63/602/109 100/603/269
f 90/222/125 102/604/270 96/223/132
f 82/229/134 81/228/121 105/288/156
f 82/605/134 105/606/156 98/607/141
f 84/608/116 85/609/106 109/610/157
f 73/247/98 86/299/123 110/248/143
f 93/255/147 74/611/108 111/278/159
f 62/612/95 100/613/269 114/614/151
f 89/615/268 102/616/270 90/617/125
f 102/604/270 115/263/152 96/223/132
f 67/241/133 96/618/132 103/239/138
f 69/619/104 121/620/142 91/291/271
f 84/621/116 122/295/158 108/622/136
f 84/621/116 109/623/157 122/624/158
f 109/625/157 85/626/106 128/265/153
f 110/248/143 86/299/123 131/317/177
f 88/257/117 112/627/131 124/258/149
f 113/628/183 124/329/149 112/629/131
f 94/630/124 101/631/155 95/585/120
f 89/573/268 101/632/155 115/633/152
f 89/615/268 115/634/152 102/616/270
f 91/635/126 70/636/113 106/637/167
f 60/242/87 117/638/163 104/639/140
f 104/243/140 120/640/164 118/287/145
f 83/641/115 107/588/137 106/642/167
f 111/643/159 123/644/161 93/645/147
f 120/646/164 126/647/186 118/648/145
f 128/265/153 110/248/143 139/319/179
f 100/603/272 125/649/154 94/650/124
f 106/642/167 107/651/137 130/652/188
f 110/248/143 131/317/177 139/319/179
f 86/299/123 148/298/170 131/317/177
f 123/280/161 99/279/160 129/322/180
f 99/326/160 150/653/182 129/654/180
f 113/655/183 80/656/118 141/657/172
f 126/658/186 120/659/164 117/660/163
f 101/661/155 153/281/162 134/662/205
f 101/663/155 134/664/205 115/665/152
f 115/666/152 135/305/173 103/264/138
f 107/342/137 108/316/136 138/315/168
f 128/265/153 139/356/179 138/296/168
f 92/217/130 132/267/148 140/667/171
f 113/668/183 141/669/172 151/670/184
f 153/671/162 154/672/239 134/673/205
f 134/674/205 135/675/173 115/633/152
f 117/309/163 136/308/174 143/362/194
f 143/362/194 126/676/186 117/638/163
f 146/677/189 130/652/188 107/342/137
f 121/678/142 137/679/175 144/680/196
f 123/681/161 149/323/181 132/267/148
f 154/682/239 155/379/203 134/683/205
f 140/684/171 157/685/193 148/686/170
f 125/687/154 142/688/273 152/689/190
f 152/690/190 154/691/239 153/692/162
f 158/693/195 159/694/191 126/676/186
f 159/695/191 169/696/224 137/697/175
f 132/698/148 164/699/274 140/700/171
f 132/267/148 149/701/181 164/702/274
f 146/703/189 138/387/168 170/389/207
f 166/704/209 150/705/182 133/706/150
f 149/323/181 129/707/180 165/708/214
f 137/709/175 169/710/224 144/711/196
f 130/712/188 146/713/189 175/714/275
f 157/390/193 176/715/276 163/391/208
f 140/716/171 164/717/274 157/718/193
f 149/719/181 165/720/214 164/721/274
f 168/399/212 177/449/234 156/400/185
f 172/448/232 182/722/217 156/723/185
f 156/723/185 182/722/217 184/412/215
f 184/407/215 160/724/218 136/408/174
f 158/725/195 178/726/226 159/727/191
f 178/728/226 173/729/222 159/730/191
f 159/730/191 173/729/222 169/731/224
f 146/732/189 170/733/207 175/734/275
f 164/721/235 188/735/236 165/720/277
f 151/736/184 171/737/278 166/738/209
f 169/739/224 161/740/197 144/741/196
f 174/742/221 170/743/279 175/744/280
f 179/423/223 170/745/279 174/421/221
f 180/419/225 178/746/226 181/415/219
f 178/746/226 158/416/195 181/415/219
f 176/442/229 163/747/228 181/748/219
f 181/749/219 160/750/218 182/751/217
f 172/752/232 183/753/230 182/754/217
f 185/443/231 183/441/230 186/755/233
f 185/756/231 186/757/233 177/758/234
f 185/443/231 177/454/234 187/759/237
f 188/760/281 187/761/282 185/762/283
f 155/463/203 187/461/237 167/763/204
f 20/764/284 17/765/285 21/766/286
f 67/241/133 37/115/86 48/767/85
f 64/768/119 42/769/60 59/770/74
f 49/771/63 38/516/46 75/546/266
f 49/772/63 75/546/266 60/773/87
f 100/603/272 58/774/100 63/775/99
f 99/776/160 74/173/108 56/777/90
f 65/778/102 101/779/155 89/780/268
f 88/257/117 99/781/160 56/782/90
f 125/783/287 114/784/151 100/603/269
f 60/242/87 97/240/139 117/309/163
f 160/785/218 143/362/194 136/308/174
f 137/786/175 121/787/142 105/788/156
f 141/789/172 114/790/151 142/791/210
f 129/654/180 150/792/182 165/708/214
f 130/793/188 174/794/206 145/795/176
f 163/796/208 147/374/178 131/797/177
f 188/798/236 166/738/288 165/799/277
f 157/800/289 185/801/231 164/802/235
f 171/803/240 188/804/236 189/460/238
f 11/365/17 36/501/84 37/366/86
f 67/241/133 68/587/265 37/115/86
f 64/768/119 65/151/102 42/769/60
f 100/603/272 94/805/124 58/774/100
f 99/776/160 111/278/159 74/173/108
f 65/778/102 95/806/120 101/779/155
f 88/257/117 133/324/150 99/781/160
f 125/783/287 142/807/210 114/784/151
f 160/785/218 158/808/195 143/362/194
f 130/793/188 175/809/275 174/794/206
f 163/796/208 162/810/192 147/374/178
f 188/798/236 171/811/240 166/738/288
f 157/800/289 176/812/229 185/801/231
