# Blender 4.3.2
# www.blender.org
mtllib grass_optim.mtl
o grass
v -6.040466 0.056256 3.001840
v -6.040370 0.035692 -3.001765
v 6.040371 0.144867 -3.001788
v -6.040478 0.095383 -2.076147
v -6.040561 0.117119 -1.568562
v -6.040428 0.122612 -0.957336
v -6.040523 0.095017 -0.139599
v -6.040408 0.023259 0.963486
v -6.040491 0.001134 1.569357
v -6.040475 0.027117 2.064301
v -6.040571 0.055858 2.480405
v -6.040487 0.060851 2.826612
v 0.775797 0.030452 3.001774
v 1.726229 0.019568 3.001901
v 2.367328 0.001736 3.001837
v 6.040462 -0.000069 3.001852
v 6.040463 0.044715 1.059656
v 6.040457 0.112831 -0.563560
v 6.040442 0.142294 -0.849587
v 6.040484 0.192606 -1.254689
v 6.040449 0.215618 -1.527154
v 6.040468 0.223430 -1.761106
v 6.040474 0.216807 -2.038161
v 6.040432 0.184519 -2.433097
v 6.040508 0.152928 -2.825463
v -1.835288 0.005006 -3.001842
v -2.382716 0.031204 -3.001858
v -3.508571 0.094393 -3.001856
v -4.094115 0.109599 -3.001871
v -4.576165 0.107498 -3.001841
v -5.157663 0.087734 -3.001822
v -5.436106 0.144123 3.001851
v -5.139447 0.161980 3.001846
v -4.912781 0.156623 3.001850
v -4.625334 0.128997 3.001870
v -3.916326 0.024125 3.001861
v -3.612843 0.000309 3.001853
v -0.619943 0.000506 3.001876
v -0.186772 0.009057 3.001872
v 5.344629 0.170143 -3.001809
v 4.935074 0.170428 -3.001890
v 4.464347 0.148506 -3.001819
v 3.476908 0.113505 -3.001856
v 1.071245 0.016689 -3.001854
v 0.095964 0.000115 -3.001852
v 0.241513 0.048932 2.745708
v 0.256539 0.124501 2.296896
v 0.281465 0.307027 1.345373
v 0.020185 0.300442 1.143572
v -0.061121 0.322021 0.783756
v 0.210485 0.379319 0.580453
v 0.202641 0.380781 0.347579
v -0.126686 0.139219 -1.195029
v 0.163757 0.041573 -1.965504
v 0.628816 0.006461 -2.616029
v -5.744729 0.044459 1.937135
v -5.754670 0.078330 0.451325
v -5.233067 0.213387 -1.115485
v -5.587694 0.096480 -2.638599
v -5.619537 0.128848 2.736031
v -5.651945 0.019869 1.339647
v -5.156581 0.215489 -0.803854
v -5.419991 0.037336 1.630394
v -5.434409 0.056770 0.941583
v -5.523207 0.126260 2.442045
v -5.384037 0.158480 2.751484
v -5.386271 0.064703 1.874784
v -5.036448 0.044203 1.300717
v -5.140355 0.201443 -0.482203
v -5.238101 0.201176 -1.618563
v -5.346593 0.139918 2.399445
v -4.762135 0.221598 -0.384146
v -5.209673 0.169384 2.819549
v -5.103633 0.169336 2.606166
v -5.162469 0.143737 2.358193
v -5.092336 0.078862 1.900971
v -5.145212 0.043402 1.564004
v -4.919434 0.195726 -2.058915
v -5.042330 0.172515 2.810277
v -4.927289 0.142005 2.372902
v -4.865377 0.053864 1.691113
v -4.676394 0.187149 0.030206
v -4.775571 0.237498 -1.567998
v -4.798356 0.157050 2.809107
v -4.779702 0.149057 2.548391
v -4.735168 0.087891 2.055082
v -4.599101 0.043911 1.407228
v -4.784460 0.056545 1.201511
v -4.653644 0.247289 -0.755356
v -4.697286 0.253849 -1.175963
v -4.606261 0.134280 2.710970
v -4.561137 0.052452 1.827911
v -4.454208 0.216175 -2.039840
v -4.291269 0.044992 2.065005
v -4.356794 0.262377 -0.941893
v -4.342147 0.262264 -1.318578
v -4.061456 0.018304 1.912940
v -4.360077 0.034447 1.656502
v -4.291267 0.041863 1.406594
v -4.211145 0.211117 -0.129118
v -4.211989 0.246159 -0.568476
v -3.965093 0.034682 2.763346
v -4.098717 0.043864 2.393481
v -4.082318 0.219027 -2.010284
v -3.978013 0.252115 -0.769496
v -3.907069 0.257547 -1.048980
v -4.204659 0.257494 -1.487748
v -3.907797 0.012880 2.190557
v -3.572625 0.051323 1.213243
v -3.818279 0.176024 0.118428
v -3.724366 0.214265 -0.326996
v -3.701271 0.240933 -1.401454
v -3.710021 0.006903 2.685308
v -3.726894 0.001703 2.134090
v -3.928388 0.013590 1.783234
v -3.559316 0.215692 -1.750566
v -3.615429 0.183883 -2.186633
v -3.429281 0.013087 1.685474
v -3.485207 0.203543 -0.396885
v -3.510304 0.223801 -0.734430
v -3.290454 0.212871 -1.137450
v -3.169597 0.193159 -1.515359
v -2.791814 0.011553 1.460621
v -2.884137 0.044958 0.960342
v -3.106726 0.186540 -0.712447
v -2.780093 0.070627 -2.805728
v -2.581897 0.002313 1.586009
v -2.740739 0.075948 0.456426
v -2.820288 0.122738 -0.087953
v -2.154873 0.049549 -2.347704
v -2.106197 0.061163 -0.255147
v -1.931336 0.048124 -1.873576
v -1.876261 0.051985 -0.736560
v -1.878734 0.053867 -1.361609
v -1.933675 0.002867 1.072779
v -2.269991 0.030652 0.658525
v -1.975741 0.042194 0.009740
v -1.613000 0.002077 1.896386
v -1.835243 0.046852 -0.418976
v -1.765339 0.038129 0.139582
v -1.662156 0.044681 -0.418598
v -1.589462 0.046247 0.242561
v -1.636335 0.039223 -0.810209
v -1.504713 0.030691 1.247286
v -1.477393 0.053927 -0.199199
v -1.439345 0.004397 -2.448423
v -1.268027 0.006318 2.229722
v -1.395593 0.024572 1.615942
v -1.338545 0.069519 0.750409
v -1.388484 0.052369 -0.515047
v -1.328271 0.036384 -0.947004
v -1.166479 0.001539 -1.827993
v -1.267957 0.085799 0.327305
v -1.200398 0.089627 -0.047683
v -1.092636 0.094940 -0.300194
v -1.117268 0.007677 -1.588754
v -0.980397 0.027121 2.169253
v -1.106481 0.047214 1.741123
v -1.053158 0.100656 1.134201
v -1.024486 0.129023 0.661418
v -1.043067 0.083087 -0.589175
v -1.140919 0.048847 -0.918386
v -0.962192 0.141887 0.209651
v -0.797009 0.074791 1.882670
v -0.706288 0.126750 1.532828
v -0.090864 0.300450 -0.146395
v -0.687680 0.109072 -0.880325
v -0.640945 0.055267 -1.400050
v -0.548522 0.014193 -1.900370
v -0.565382 0.001161 -2.150911
v -0.770796 0.007896 2.669676
v -0.604100 0.071465 2.107446
v -0.651325 0.028679 2.467073
v -0.306622 0.071540 2.339164
v -0.154588 0.254628 -0.439102
v -0.435646 0.118126 -1.086109
v -0.390533 0.134089 1.842606
v -0.229890 0.300213 0.487864
v -0.116606 0.317701 0.153848
v -0.105854 0.131263 2.079421
v -0.218907 0.044404 -1.764861
v -0.190226 0.040358 2.641525
v 0.319442 0.389238 0.120201
v 0.294177 0.365007 -0.121040
v 0.185586 0.307291 -0.446607
v 0.274757 0.010882 -2.325591
v 0.314002 0.371009 0.913680
v 0.336238 0.103029 -1.628179
v 0.557699 0.321027 1.420275
v 0.751267 0.039354 -2.185964
v 0.737593 0.070154 2.714334
v 0.661276 0.123852 2.402128
v 0.540971 0.377239 1.057959
v 0.536372 0.411656 0.744958
v 0.525791 0.423576 0.395420
v 0.530533 0.335204 -0.513085
v 0.756255 0.070201 -1.956909
v 0.638405 0.416350 0.026645
v 0.794801 0.305036 -0.763880
v 0.738863 0.128002 -1.611687
v 0.865046 0.303662 1.571887
v 0.784371 0.380513 1.142600
v 0.763743 0.427201 0.750926
v 0.841496 0.443415 0.539345
v 0.831765 0.438608 0.159473
v 0.823854 0.383838 -0.331506
v 1.067607 0.150464 -1.550072
v 1.153676 0.063691 2.743837
v 1.160986 0.136537 2.349523
v 1.006453 0.379889 1.161697
v 1.004545 0.424015 0.819997
v 1.057861 0.446307 0.350224
v 1.182835 0.311220 1.514289
v 1.136152 0.437162 0.620235
v 1.201060 0.434191 0.135311
v 1.185265 0.401328 -0.219574
v 1.221738 0.333755 -0.638596
v 1.146228 0.097909 -1.842349
v 1.260767 0.387746 1.044945
v 1.437631 0.414372 0.645106
v 1.448101 0.421639 0.365695
v 1.545001 0.152542 -1.522047
v 1.722056 0.050683 2.714252
v 1.610238 0.080449 2.558874
v 1.527162 0.141195 2.246119
v 1.549214 0.315037 1.345700
v 1.565921 0.368256 0.974953
v 1.643485 0.368972 -0.197443
v 1.584171 0.338095 -0.481163
v 1.668606 0.066927 -2.106307
v 1.732221 0.379170 0.063826
v 1.915282 0.177525 -1.288336
v 1.841141 0.175908 1.928600
v 1.965884 0.286103 1.171426
v 1.917391 0.337106 0.789165
v 1.968166 0.347126 0.466860
v 1.912542 0.356347 0.209162
v 2.171787 0.118552 -1.596786
v 1.735007 0.101346 -1.826276
v 2.035067 0.036426 2.701945
v 2.215858 0.186983 -1.065496
v 2.123633 0.146225 1.902777
v 1.811243 0.052018 -2.332620
v 2.456466 0.181819 -0.902580
v 2.349729 0.089898 -1.839696
v 2.502868 0.030533 2.476988
v 2.388820 0.086200 2.093242
v 2.597453 0.115214 1.670893
v 2.678150 0.188499 -0.536010
v 2.400218 0.135811 -1.363027
v 2.185597 0.062624 -2.324870
v 2.704977 0.135325 1.376092
v 2.839298 0.148476 1.021790
v 2.798853 0.177764 0.729951
v 2.934755 0.169761 0.303437
v 2.872800 0.177802 -0.160985
v 2.662026 0.109997 -1.471166
v 2.888191 0.044884 1.975640
v 2.782922 0.134663 -1.071577
v 3.645855 0.019708 1.568603
v 2.709521 0.090576 -1.799764
v 3.018633 0.095193 -1.769199
v 3.321073 0.003228 2.208849
v 2.995970 0.139592 -0.686457
v 3.011075 0.111669 -1.201578
v 3.418364 0.044497 1.349174
v 3.417084 0.061796 1.081417
v 3.251796 0.091364 0.932378
v 3.235994 0.114284 0.552470
v 3.244625 0.121599 -0.393243
v 3.227542 0.112482 -0.837531
v 3.348369 0.112466 -0.039265
v 3.215095 0.103577 -1.226046
v 3.514792 0.085841 0.425215
v 3.517036 0.100373 -0.851278
v 3.622885 0.105020 -1.131149
v 3.901718 0.134098 -2.621543
v 3.729478 0.083496 -0.080878
v 3.602191 0.120547 -1.977492
v 3.846189 0.056352 0.568819
v 3.731501 0.100599 -0.857429
v 3.723600 0.132775 -1.915077
v 3.810713 0.116752 -1.095885
v 3.876909 0.153752 -1.699330
v 3.856982 0.140096 -2.323087
v 4.863575 0.021832 1.714717
v 3.926157 0.098853 -0.607210
v 4.043745 0.110522 -0.726156
v 3.947722 0.155839 -1.393561
v 3.963376 0.169174 -2.016055
v 4.186965 0.103026 -0.502704
v 3.999965 0.133209 -1.022961
v 4.187838 0.190344 -2.325113
v 4.170448 0.152811 -0.988399
v 4.163270 0.195371 -1.348542
v 4.194366 0.165551 -2.573555
v 4.622667 0.100834 -0.263363
v 4.366964 0.127018 -0.623771
v 4.432956 0.165166 -0.816145
v 4.394005 0.163718 -2.792988
v 4.507668 0.115473 -0.452292
v 4.564615 0.304541 -1.607801
v 4.662379 0.324914 -1.867384
v 4.576643 0.290907 -2.087073
v 4.448834 0.214118 -2.477361
v 4.667126 0.292450 -1.325363
v 4.665407 0.266869 -2.348495
v 4.695393 0.184078 -2.827078
v 4.780615 0.155794 -0.606860
v 4.861323 0.304897 -1.253228
v 4.808959 0.340054 -1.530872
v 4.807013 0.349073 -1.705196
v 4.810546 0.322649 -2.114262
v 5.044322 0.142146 -0.496566
v 4.911342 0.359175 -1.862069
v 4.931467 0.311114 -2.255785
v 4.908783 0.196289 -2.825633
v 5.161362 0.104697 -0.228876
v 5.099792 0.301807 -1.178366
v 5.038187 0.346763 -1.431820
v 4.979915 0.365311 -1.651561
v 5.033241 0.363945 -1.918770
v 6.040462 0.007747 2.213523
v 5.089232 0.369420 -1.652195
v 5.084770 0.334604 -2.158204
v 5.152480 0.200747 -2.826428
v 5.238559 0.160352 -0.587407
v 5.209986 0.343480 -1.423434
v 5.273680 0.356283 -1.557637
v 5.262846 0.364848 -1.708936
v 5.262816 0.362137 -1.876119
v 5.272083 0.330812 -2.156722
v 5.340106 0.308281 -1.264111
v 5.450644 0.214879 -2.697752
v 5.731475 0.106854 -0.329677
v 5.503201 0.117803 -0.380653
v 5.496472 0.151325 -0.594246
v 5.532947 0.295352 -1.324647
v 5.526678 0.324098 -1.546910
v 5.539207 0.330457 -1.746151
v 5.521562 0.329614 -1.897609
v 5.500297 0.313205 -2.100157
v 5.642180 0.208540 -0.944048
v 5.774718 0.204059 -2.573390
v 5.637607 0.172548 -2.888143
v 5.799579 0.137941 -0.644691
v 5.859118 0.170361 -2.770488
v 5.850232 0.205724 -1.102338
vn -0.0578 0.9948 -0.0841
vn -0.0223 0.9938 -0.1086
vn -0.0528 0.9935 -0.1006
vn 0.0679 0.9945 -0.0793
vn 0.0598 0.9967 -0.0541
vn 0.0445 0.9937 -0.1029
vn 0.0292 0.9995 -0.0135
vn -0.0062 1.0000 -0.0018
vn 0.0366 0.9989 -0.0279
vn -0.0502 0.9967 0.0636
vn -0.0721 0.9945 0.0754
vn -0.0947 0.9938 0.0581
vn -0.0949 0.9937 -0.0594
vn -0.0726 0.9940 -0.0818
vn -0.0732 0.9943 -0.0775
vn -0.1495 0.9883 0.0286
vn -0.1382 0.9904 -0.0041
vn -0.1560 0.9877 0.0100
vn -0.1460 0.9882 -0.0456
vn -0.0288 0.9993 0.0220
vn -0.0450 0.9985 0.0318
vn -0.0480 0.9954 0.0832
vn -0.0887 0.9956 0.0308
vn -0.1129 0.9935 0.0156
vn -0.1133 0.9906 -0.0766
vn -0.1042 0.9913 -0.0798
vn -0.1039 0.9859 -0.1308
vn -0.0576 0.9936 -0.0974
vn -0.0558 0.9972 -0.0507
vn -0.1088 0.9937 -0.0277
vn -0.0883 0.9951 -0.0452
vn -0.0246 0.9956 -0.0909
vn -0.0814 0.9949 0.0590
vn -0.1055 0.9935 0.0434
vn -0.0935 0.9956 -0.0114
vn -0.0895 0.9928 -0.0797
vn -0.0578 0.9912 -0.1195
vn -0.0240 0.9997 -0.0072
vn -0.0196 0.9993 0.0320
vn -0.0934 0.9956 -0.0044
vn -0.0509 0.9961 0.0724
vn -0.0452 0.9988 0.0208
vn -0.0045 0.9984 -0.0568
vn -0.0563 0.9906 -0.1246
vn -0.0055 0.9931 -0.1169
vn -0.0186 0.9956 0.0915
vn 0.0065 0.9983 0.0582
vn 0.0250 0.9996 0.0148
vn 0.0468 0.9922 -0.1156
vn -0.0199 0.9924 -0.1211
vn 0.0084 0.9977 -0.0672
vn -0.0346 0.9943 0.1011
vn -0.0561 0.9984 -0.0091
vn 0.0788 0.9957 0.0490
vn 0.0916 0.9957 0.0141
vn 0.0832 0.9948 -0.0596
vn 0.0353 0.9909 -0.1299
vn 0.0245 0.9996 -0.0121
vn -0.0384 0.9983 0.0428
vn 0.0832 0.9913 -0.1019
vn 0.0671 0.9930 -0.0972
vn 0.0605 0.9924 -0.1068
vn 0.1457 0.9890 0.0260
vn 0.1349 0.9908 -0.0110
vn 0.1146 0.9887 -0.0971
vn 0.1104 0.9927 -0.0488
vn -0.0511 0.9975 -0.0479
vn -0.0211 0.9957 -0.0897
vn 0.0453 0.9976 -0.0516
vn 0.0615 0.9976 -0.0326
vn 0.0452 0.9970 -0.0630
vn -0.0180 0.9998 -0.0120
vn 0.1384 0.9894 -0.0433
vn 0.0838 0.9958 -0.0361
vn 0.0323 0.9989 0.0338
vn 0.0086 0.9973 0.0729
vn 0.0025 0.9992 0.0411
vn 0.0033 0.9955 0.0949
vn 0.0005 0.9980 0.0624
vn 0.1265 0.9920 -0.0041
vn 0.0113 0.9938 -0.1106
vn 0.0446 0.9990 0.0095
vn 0.0277 0.9990 0.0358
vn 0.0361 0.9982 0.0476
vn -0.0089 0.9996 0.0252
vn 0.0801 0.9964 -0.0275
vn 0.0276 0.9956 0.0893
vn 0.0406 0.9940 0.1018
vn 0.0492 0.9958 0.0768
vn 0.0395 0.9992 0.0041
vn 0.0545 0.9980 -0.0310
vn 0.0132 0.9991 -0.0413
vn 0.1182 0.9929 0.0113
vn 0.0999 0.9950 -0.0064
vn 0.0258 0.9997 0.0027
vn 0.0634 0.9960 -0.0626
vn 0.0205 0.9963 -0.0837
vn 0.0381 0.9993 -0.0021
vn 0.0745 0.9965 0.0371
vn 0.0909 0.9959 -0.0032
vn 0.0951 0.9948 -0.0354
vn 0.0182 0.9986 0.0496
vn 0.0492 0.9960 0.0748
vn 0.0757 0.9949 0.0670
vn 0.0985 0.9945 0.0364
vn 0.0086 0.9997 0.0210
vn 0.0224 0.9985 0.0496
vn 0.0747 0.9944 0.0743
vn 0.0912 0.9938 0.0639
vn 0.0869 0.9957 0.0307
vn 0.0796 0.9957 -0.0463
vn 0.0922 0.9957 -0.0096
vn 0.0826 0.9947 0.0615
vn 0.0769 0.9970 0.0109
vn 0.0420 0.9986 0.0333
vn -0.0270 0.9995 0.0162
vn -0.0185 0.9995 0.0269
vn 0.0324 0.9994 0.0131
vn -0.0289 0.9994 0.0181
vn -0.0114 0.9999 -0.0016
vn -0.0581 0.9981 0.0220
vn 0.0262 0.9996 -0.0091
vn 0.0836 0.9961 -0.0280
vn -0.0923 0.9957 0.0023
vn -0.0811 0.9967 -0.0056
vn -0.1054 0.9940 0.0305
vn -0.1329 0.9908 0.0260
vn -0.0789 0.9960 -0.0412
vn -0.0328 0.9981 -0.0529
vn 0.0182 0.9998 -0.0103
vn -0.0085 1.0000 0.0016
vn -0.1753 0.9840 0.0305
vn -0.1716 0.9852 0.0032
vn -0.1551 0.9861 -0.0602
vn 0.0140 0.9994 -0.0312
vn -0.0813 0.9938 0.0752
vn -0.1187 0.9900 0.0761
vn -0.0925 0.9947 0.0457
vn -0.1809 0.9829 0.0350
vn -0.0790 0.9948 -0.0641
vn -0.1980 0.9801 -0.0149
vn -0.1524 0.9881 -0.0225
vn -0.0550 0.9959 -0.0724
vn -0.0219 0.9992 0.0322
vn -0.0467 0.9974 0.0551
vn -0.0305 0.9984 0.0474
vn -0.0863 0.9935 0.0743
vn -0.1278 0.9859 0.1082
vn -0.1600 0.9819 0.1011
vn -0.1769 0.9802 -0.0888
vn -0.1302 0.9884 -0.0780
vn -0.1431 0.9829 -0.1161
vn -0.0962 0.9908 -0.0956
vn -0.0493 0.9965 -0.0676
vn -0.0369 0.9982 -0.0475
vn -0.0120 0.9997 -0.0229
vn -0.0706 0.9934 0.0899
vn -0.1069 0.9871 0.1195
vn -0.1652 0.9787 -0.1220
vn -0.1082 0.9885 -0.1055
vn -0.1033 0.9889 -0.1071
vn -0.0335 0.9984 0.0460
vn -0.1344 0.9815 0.1364
vn -0.1762 0.9821 0.0660
vn -0.1682 0.9836 0.0653
vn -0.1944 0.9809 0.0105
vn -0.1933 0.9800 -0.0473
vn -0.0406 0.9948 0.0934
vn -0.0542 0.9946 0.0885
vn -0.0509 0.9945 0.0920
vn -0.0909 0.9873 0.1305
vn -0.0987 0.9811 0.1666
vn -0.0698 0.9906 -0.1179
vn -0.1561 0.9799 0.1245
vn -0.1323 0.9804 -0.1462
vn -0.1135 0.9811 -0.1565
vn -0.0177 0.9997 -0.0191
vn -0.0335 0.9900 0.1369
vn -0.0714 0.9878 0.1381
vn -0.0606 0.9825 0.1760
vn -0.1171 0.9802 0.1598
vn -0.1586 0.9855 0.0595
vn -0.1603 0.9870 -0.0139
vn -0.0570 0.9981 -0.0230
vn -0.0703 0.9939 -0.0853
vn -0.0406 0.9992 -0.0065
vn -0.0668 0.9865 -0.1495
vn -0.0376 0.9883 -0.1476
vn -0.0564 0.9880 -0.1438
vn 0.0163 0.9853 -0.1703
vn 0.0223 0.9870 -0.1595
vn 0.0021 0.9853 -0.1707
vn 0.0390 0.9938 -0.1040
vn 0.0522 0.9970 -0.0577
vn 0.0494 0.9925 -0.1115
vn -0.1335 0.9891 -0.0613
vn -0.1300 0.9856 -0.1080
vn -0.0200 0.9980 -0.0599
vn -0.1303 0.9862 0.1021
vn -0.0650 0.9831 -0.1712
vn -0.0443 0.9914 -0.1227
vn -0.0839 0.9837 -0.1592
vn -0.0275 0.9926 -0.1179
vn -0.0281 0.9825 0.1844
vn -0.0843 0.9875 0.1333
vn -0.0950 0.9928 0.0724
vn -0.1448 0.9893 0.0200
vn -0.0974 0.9952 -0.0036
vn -0.0362 0.9883 -0.1481
vn -0.0315 0.9995 -0.0058
vn -0.0779 0.9928 -0.0908
vn -0.0146 0.9811 0.1931
vn -0.0659 0.9818 0.1779
vn -0.0337 0.9886 0.1471
vn -0.0440 0.9953 0.0868
vn -0.0320 0.9990 0.0307
vn -0.0398 0.9887 -0.1445
vn -0.0445 0.9794 -0.1968
vn -0.0147 0.9829 -0.1834
vn -0.0358 0.9822 -0.1842
vn -0.0086 0.9910 0.1333
vn 0.0115 0.9875 0.1574
vn -0.0112 0.9872 0.1592
vn 0.0177 0.9809 0.1937
vn 0.0094 0.9878 0.1556
vn -0.0043 0.9936 0.1127
vn 0.0216 0.9997 -0.0082
vn -0.0341 0.9976 -0.0598
vn -0.0162 0.9853 -0.1702
vn 0.0331 0.9956 0.0873
vn 0.0434 0.9974 0.0572
vn 0.0494 0.9969 -0.0607
vn 0.0312 0.9920 -0.1223
vn 0.0217 0.9836 -0.1791
vn -0.0139 0.9971 -0.0748
vn 0.0638 0.9886 0.1365
vn 0.1010 0.9929 0.0626
vn 0.1015 0.9948 -0.0021
vn 0.0288 0.9852 -0.1690
vn 0.0013 0.9923 -0.1242
vn 0.0356 0.9936 0.1073
vn 0.0383 0.9901 0.1348
vn 0.0534 0.9809 0.1872
vn 0.0431 0.9803 0.1929
vn 0.1095 0.9890 -0.0997
vn 0.0234 0.9879 -0.1534
vn 0.1324 0.9898 -0.0533
vn 0.0626 0.9847 -0.1628
vn -0.0265 0.9987 -0.0435
vn -0.0349 0.9993 -0.0112
vn 0.1055 0.9771 0.1848
vn 0.1008 0.9803 0.1696
vn 0.1179 0.9861 0.1170
vn 0.1528 0.9850 0.0799
vn 0.1551 0.9866 0.0511
vn 0.1633 0.9864 -0.0174
vn 0.0739 0.9831 -0.1676
vn 0.0438 0.9933 0.1073
vn 0.1201 0.9808 0.1537
vn 0.0923 0.9860 -0.1386
vn 0.1027 0.9888 -0.1081
vn 0.0864 0.9875 -0.1315
vn 0.1327 0.9835 0.1228
vn 0.1522 0.9793 0.1334
vn 0.0349 0.9925 -0.1174
vn 0.0281 0.9946 -0.0998
vn 0.0111 0.9922 -0.1245
vn 0.0376 0.9976 0.0582
vn 0.1058 0.9865 0.1252
vn 0.1329 0.9884 -0.0735
vn 0.0604 0.9919 -0.1119
vn 0.0120 0.9969 -0.0784
vn -0.0030 0.9990 -0.0452
vn 0.0144 0.9967 -0.0797
vn 0.0681 0.9933 0.0934
vn 0.1553 0.9816 0.1115
vn 0.1604 0.9834 0.0846
vn 0.1738 0.9831 0.0578
vn 0.1687 0.9857 0.0028
vn 0.1530 0.9878 -0.0285
vn 0.0776 0.9942 -0.0749
vn 0.0274 0.9981 -0.0550
vn -0.0286 0.9996 -0.0004
vn 0.0437 0.9977 -0.0509
vn 0.0615 0.9957 -0.0699
vn 0.1023 0.9935 -0.0507
vn -0.0689 0.9976 0.0037
vn 0.1003 0.9901 0.0980
vn 0.0815 0.9948 0.0604
vn 0.1030 0.9927 0.0629
vn 0.1305 0.9897 0.0591
vn 0.1413 0.9892 0.0381
vn 0.1629 0.9864 0.0195
vn 0.1063 0.9942 -0.0173
vn 0.0199 0.9996 -0.0211
vn 0.1083 0.9941 0.0059
vn 0.0892 0.9954 0.0347
vn 0.0165 0.9999 0.0031
vn 0.0654 0.9975 -0.0255
vn -0.0382 0.9990 0.0230
vn 0.0463 0.9985 0.0293
vn 0.0248 0.9989 0.0394
vn -0.1262 0.9920 -0.0020
vn 0.0167 0.9996 0.0237
vn -0.0033 0.9995 0.0300
vn 0.0230 0.9988 0.0430
vn -0.0324 0.9990 0.0301
vn -0.0684 0.9966 0.0466
vn -0.1733 0.9846 0.0220
vn -0.1247 0.9911 -0.0457
vn -0.0265 0.9988 0.0412
vn -0.1230 0.9892 0.0796
vn -0.1854 0.9812 0.0537
vn -0.1811 0.9833 -0.0178
vn -0.1649 0.9852 -0.0468
vn -0.0820 0.9936 0.0782
vn -0.1389 0.9859 0.0933
vn -0.1797 0.9820 -0.0574
vn -0.1690 0.9812 -0.0934
vn -0.1606 0.9858 -0.0490
vn -0.1385 0.9849 0.1040
vn -0.2007 0.9767 0.0765
vn -0.1400 0.9863 -0.0871
vn -0.0433 0.9971 0.0627
vn -0.0801 0.9871 0.1386
vn -0.1146 0.9788 0.1698
vn -0.1080 0.9884 -0.1065
vn -0.1012 0.9883 -0.1137
vn -0.1097 0.9899 -0.0900
vn -0.1954 0.9792 0.0552
vn -0.2008 0.9796 0.0004
vn -0.1424 0.9799 -0.1395
vn 0.0020 0.9999 0.0127
vn -0.1573 0.9769 0.1448
vn -0.1676 0.9748 0.1475
vn -0.1864 0.9744 0.1259
vn -0.0555 0.9918 0.1153
vn -0.0560 0.9787 0.1974
vn -0.1222 0.9772 0.1734
vn -0.1313 0.9873 0.0890
vn -0.1540 0.9855 -0.0710
vn -0.1431 0.9832 -0.1136
vn -0.1703 0.9803 -0.1000
vn -0.0250 0.9974 0.0679
vn -0.0129 0.9904 0.1379
vn -0.1152 0.9933 -0.0127
vn -0.1226 0.9915 -0.0438
vn -0.0819 0.9852 -0.1503
vn -0.0636 0.9831 -0.1718
vn -0.1238 0.9795 -0.1587
vn -0.0455 0.9844 -0.1698
vn -0.0011 0.9962 0.0874
vn -0.0007 0.9779 0.2089
vn -0.0616 0.9802 0.1880
vn -0.0257 0.9894 0.1432
vn -0.0875 0.9855 0.1451
vn -0.0891 0.9927 0.0815
vn -0.1487 0.9881 0.0382
vn -0.0665 0.9961 -0.0583
vn -0.0645 0.9963 -0.0573
vn -0.0911 0.9896 -0.1110
vn -0.0193 0.9979 0.0611
vn -0.0383 0.9988 0.0314
vn 0.0067 0.9965 -0.0833
vn -0.0141 0.9877 -0.1555
vn 0.0451 0.9887 0.1431
vn 0.0390 0.9926 0.1147
vn 0.0256 0.9997 0.0055
vn 0.0682 0.9960 -0.0577
vn 0.0595 0.9869 -0.1499
vn 0.0275 0.9910 0.1311
vn 0.0364 0.9793 0.1989
vn 0.0491 0.9777 0.2040
vn 0.0648 0.9831 -0.1715
vn 0.0213 0.9977 0.0642
vn 0.0588 0.9828 0.1751
vn 0.1177 0.9810 0.1540
vn 0.1542 0.9848 0.0803
vn 0.1031 0.9917 0.0770
vn 0.1657 0.9861 0.0099
vn 0.0778 0.9969 0.0145
vn 0.1559 0.9864 -0.0527
vn 0.1347 0.9836 -0.1201
vn 0.0967 0.9751 0.1998
vn 0.1014 0.9755 0.1950
vn 0.1146 0.9838 -0.1378
vn 0.0724 0.9863 -0.1482
vn 0.0614 0.9859 0.1559
vn 0.1385 0.9751 0.1733
vn 0.1560 0.9755 0.1553
vn 0.1429 0.9780 0.1518
vn 0.0632 0.9943 -0.0859
vn 0.0631 0.9937 -0.0926
vn 0.0790 0.9921 -0.0977
vn 0.2067 0.9784 0.0032
vn 0.1998 0.9779 -0.0617
vn 0.0032 0.9992 0.0392
vn 0.0480 0.9961 0.0733
vn 0.0562 0.9939 0.0953
vn 0.1494 0.9815 0.1198
vn 0.1494 0.9814 0.1203
vn 0.1494 0.9815 0.1197
vn 0.1945 0.9756 0.1019
vn 0.2061 0.9770 0.0543
vn -0.0621 0.9961 0.0621
vn 0.0245 0.9974 0.0673
vn 0.0985 0.9933 0.0602
vn 0.0277 0.9996 -0.0032
vn -0.0038 0.9995 -0.0316
vn 0.0595 0.9979 -0.0264
vn 0.0351 0.9994 -0.0006
vn 0.0522 0.9945 -0.0906
vn -0.1985 0.9801 0.0045
vn -0.0147 0.9823 -0.1868
vn 0.0452 0.9973 -0.0579
vn 0.0527 0.9936 0.1001
vn -0.0159 0.9969 -0.0769
vn 0.0373 0.9838 0.1756
vn -0.0131 0.9972 -0.0739
vn 0.0476 0.9950 -0.0878
vn 0.0594 0.9943 -0.0885
vn -0.0121 0.9757 0.2188
vn -0.0760 0.9920 0.1005
vn -0.0932 0.9956 0.0023
vn -0.0620 0.9893 -0.1321
vn 0.0042 0.9998 0.0178
vn 0.0087 0.9770 0.2132
vn 0.0057 0.9794 0.2018
vn 0.0975 0.9849 0.1431
vn 0.1498 0.9824 -0.1113
vn 0.0961 0.9872 -0.1272
vn 0.1046 0.9841 0.1438
vn 0.1154 0.9828 0.1443
vn 0.0796 0.9899 0.1171
vn 0.0668 0.9930 -0.0979
vt 0.092774 0.843655
vt 0.122161 0.999990
vt 0.073080 1.000000
vt 0.266371 0.951579
vt 0.309364 0.999936
vt 0.209494 0.999226
vt 0.385793 0.900904
vt 0.507242 1.000004
vt 0.347356 0.998482
vt -0.000415 0.336893
vt 0.026076 0.430147
vt 0.000572 0.524782
vt 0.000593 0.843616
vt 0.038781 0.935728
vt 0.000000 1.000000
vt -0.000000 0.000000
vt 0.034208 0.044146
vt -0.000001 0.030007
vt -0.000009 0.086650
vt 0.002843 0.231147
vt 0.030097 0.274211
vt 0.051104 0.344345
vt 0.072469 0.634412
vt -0.000005 0.660578
vt 0.040485 0.091445
vt 0.001089 0.157317
vt 0.024719 0.172065
vt 0.049802 0.226616
vt -0.000282 0.758720
vt 0.063398 0.769164
vt 0.072928 0.239421
vt 0.071260 0.582013
vt 0.050054 0.000000
vt 0.054974 0.042832
vt 0.055827 0.099650
vt 0.054013 0.188143
vt 0.080000 0.277859
vt 0.066279 0.686693
vt 0.104959 0.561524
vt 0.068627 0.030370
vt 0.077582 0.067497
vt 0.076778 0.180123
vt 0.106206 0.312820
vt 0.074583 0.000000
vt 0.083005 0.031370
vt 0.092576 0.105195
vt 0.071919 0.107189
vt 0.097327 0.217904
vt 0.111634 0.492506
vt 0.110472 0.696443
vt 0.093339 0.000000
vt 0.102372 0.030206
vt 0.104717 0.075867
vt 0.108089 0.159278
vt 0.119732 0.263417
vt 0.115290 0.627389
vt 0.123910 0.198015
vt 0.117115 0.000000
vt 0.121779 0.049052
vt 0.145075 0.148797
vt 0.105321 0.764348
vt 0.129322 0.841482
vt 0.139086 0.223874
vt 0.140906 0.719501
vt 0.157360 0.096419
vt 0.163924 0.183237
vt 0.149447 0.265745
vt 0.151357 0.520035
vt 0.150545 0.590733
vt 0.171225 0.040576
vt 0.160613 1.000002
vt 0.174012 0.201781
vt 0.170901 0.624581
vt 0.140739 0.656417
vt 0.174937 0.133583
vt 0.204118 0.302234
vt 0.185353 0.480339
vt 0.189483 0.548407
vt 0.177980 0.675175
vt 0.193649 0.735539
vt 0.153596 0.755457
vt 0.175850 0.000000
vt 0.190755 0.055781
vt 0.192116 0.147057
vt 0.205791 0.797821
vt 0.161873 0.834591
vt 0.201248 0.000004
vt 0.211505 0.617612
vt 0.227993 0.689663
vt 0.237016 0.754910
vt 0.218102 0.223768
vt 0.259499 0.339231
vt 0.211074 0.561543
vt 0.247232 0.617007
vt 0.283625 0.235571
vt 0.266659 0.260973
vt 0.274106 0.428329
vt 0.266959 0.513516
vt 0.323489 0.552746
vt 0.320944 0.894740
vt 0.340128 0.735965
vt 0.305608 0.387862
vt 0.342752 0.628311
vt 0.337085 0.492313
vt 0.367370 0.185376
vt 0.341210 0.319534
vt 0.348335 0.569350
vt 0.352941 0.476724
vt 0.363766 0.569247
vt 0.368029 0.457238
vt 0.368507 0.638856
vt 0.336707 0.818498
vt 0.376911 0.532258
vt 0.376723 0.291795
vt 0.391988 0.380627
vt 0.386055 0.586153
vt 0.390028 0.658662
vt 0.405124 0.798465
vt 0.450063 0.004268
vt 0.396085 0.446931
vt 0.408983 0.553737
vt 0.407421 0.762104
vt 0.395361 0.128985
vt 0.407449 0.214012
vt 0.389764 0.230405
vt 0.417165 0.384863
vt 0.407869 0.654066
vt 0.419299 0.462411
vt 0.401221 0.509494
vt 0.436329 0.055281
vt 0.418544 0.140093
vt 0.434232 0.184140
vt 0.444833 0.245507
vt 0.489557 0.529818
vt 0.415341 0.601986
vt 0.445083 0.644116
vt 0.458590 0.810179
vt 0.453658 0.856822
vt 0.447751 0.088272
vt 0.451008 0.147756
vt 0.487371 0.575930
vt 0.464612 0.676571
vt 0.447229 0.733433
vt 0.485243 0.002039
vt 0.470104 0.199731
vt 0.493524 0.366605
vt 0.414762 0.307092
vt 0.479576 0.420360
vt 0.488765 0.479658
vt 0.485873 0.059964
vt 0.475074 0.111535
vt 0.495253 0.152676
vt 0.484148 0.792838
vt 0.500041 0.305728
vt 0.516853 0.572643
vt 0.495767 0.702677
vt 0.552940 0.927026
vt 0.519216 0.044159
vt 0.523384 0.116071
vt 0.522054 0.274953
vt 0.517587 0.402988
vt 0.516967 0.441075
vt 0.823975 0.936495
vt 0.869265 1.000271
vt 0.789379 0.999193
vt 0.888397 0.969663
vt 0.908506 1.000000
vt 0.925921 0.970861
vt 0.942837 1.000240
vt 0.966655 0.980392
vt 0.999996 1.000000
vt 0.526421 0.480854
vt 0.524010 0.518757
vt 0.522785 0.887362
vt 0.524677 0.347453
vt 0.526499 0.773530
vt 0.513876 0.826290
vt 0.542725 0.584021
vt 0.561524 0.857986
vt 0.554574 0.101450
vt 0.544649 0.323821
vt 0.544150 0.375142
vt 0.544455 0.434269
vt 0.563374 0.823538
vt 0.588841 0.998426
vt 0.553084 0.495657
vt 0.572761 0.235112
vt 0.545764 0.261823
vt 0.564234 0.310030
vt 0.563860 0.374213
vt 0.570592 0.412524
vt 0.568507 0.555013
vt 0.565620 0.629114
vt 0.591450 0.750696
vt 0.561611 0.768176
vt 0.563827 0.000908
vt 0.596499 0.042330
vt 0.560244 0.050010
vt 0.595772 0.110189
vt 0.583261 0.306864
vt 0.583207 0.363406
vt 0.588061 0.441787
vt 0.570096 0.473301
vt 0.593088 0.803945
vt 0.593735 0.397389
vt 0.599675 0.479767
vt 0.599269 0.534489
vt 0.600520 0.617372
vt 0.650179 0.888894
vt 0.604486 0.326735
vt 0.618538 0.391822
vt 0.620092 0.440561
vt 0.627451 0.753174
vt 0.637760 0.847126
vt 0.642885 0.000000
vt 0.642562 0.049365
vt 0.622635 0.124037
vt 0.599208 0.245662
vt 0.635512 0.536302
vt 0.643412 0.800882
vt 0.643849 0.491612
vt 0.658083 0.708169
vt 0.679780 0.886135
vt 0.653617 0.190032
vt 0.629183 0.274201
vt 0.629477 0.340529
vt 0.658159 0.367987
vt 0.663217 0.422519
vt 0.658991 0.464219
vt 0.631626 0.583043
vt 0.672892 0.047215
vt 0.677219 0.182170
vt 0.682838 0.676042
vt 0.701867 0.650661
vt 0.714499 0.226637
vt 0.662595 0.304806
vt 0.679043 0.765228
vt 0.693935 0.805861
vt 0.700852 -0.002664
vt 0.697234 0.151147
vt 0.720104 0.587829
vt 0.698516 0.727406
vt 0.723729 0.797765
vt 0.706599 0.087663
vt 0.723044 0.274664
vt 0.735875 0.331729
vt 0.730984 0.376535
vt 0.735995 0.529588
vt 0.728337 0.678348
vt 0.718139 0.748371
vt 0.751091 0.795377
vt 0.748752 0.699588
vt 0.748419 0.613935
vt 0.798020 0.828596
vt 0.737916 0.172436
vt 0.783826 0.264516
vt 0.782977 0.316593
vt 0.769607 0.341429
vt 0.767810 0.410422
vt 0.741372 0.452549
vt 0.767275 0.565578
vt 0.767138 0.704812
vt 0.777348 0.507279
vt 0.789834 0.428271
vt 0.790371 0.642205
vt 0.767148 0.639800
vt 0.798474 0.698379
vt 0.804917 0.515313
vt 0.812065 0.398417
vt 0.809316 0.817974
vt 0.774435 0.120920
vt 0.896431 0.232588
vt 0.808121 0.227025
vt 0.808190 0.640628
vt 0.816936 0.682942
vt 0.822304 0.779394
vt 0.819727 0.884823
vt 0.823665 0.601283
vt 0.827049 0.735715
vt 0.828487 0.836062
vt 0.834654 0.622003
vt 0.833333 0.670339
vt 0.847703 0.888327
vt 0.846805 0.662784
vt 0.844764 0.725686
vt 0.848493 0.926746
vt 0.845282 0.578361
vt 0.861472 0.608813
vt 0.869552 0.644231
vt 0.862712 0.961580
vt 0.877768 0.767730
vt 0.885267 0.813733
vt 0.868750 0.910363
vt 1.000000 0.000000
vt 0.885536 0.718572
vt 0.872248 0.576700
vt 0.897709 0.601181
vt 0.901047 0.708294
vt 0.897627 0.754713
vt 0.898025 0.851474
vt 0.878492 0.848836
vt 0.880226 0.540962
vt 0.917213 0.582272
vt 0.897915 0.784314
vt 0.906170 0.808991
vt 0.908599 0.876674
vt 0.885197 0.887431
vt 0.906934 0.971551
vt 0.928140 0.539045
vt 0.922450 0.696762
vt 0.916783 0.737126
vt 0.911765 0.775108
vt 0.917202 0.820987
vt 0.921569 0.775211
vt 0.921569 0.859459
vt 0.931373 0.737123
vt 0.936726 0.759902
vt 0.935844 0.812994
vt 0.936800 0.863365
vt 0.955584 0.563458
vt 0.935596 0.600674
vt 0.942032 0.710231
vt 0.950344 0.949168
vt 0.973820 0.554028
vt 0.955581 0.599202
vt 0.958178 0.755518
vt 0.959219 0.786686
vt 0.935622 0.784314
vt 0.957671 0.816137
vt 0.955907 0.851137
vt 0.966597 0.658632
vt 0.977186 0.924140
vt 0.979348 0.607443
vt 0.984539 0.684732
vt 0.957882 0.716931
vt 0.984750 0.957144
vt 0.999746 0.969534
vt 1.000000 0.793332
vt 1.000010 0.837328
vt 1.000295 0.314928
vt 1.000000 0.593852
vt 0.999972 0.638074
vt 1.000064 0.709467
vt 1.000002 0.754713
vt 0.202640 0.868166
vt 0.631597 0.077233
vt 0.998193 0.130748
vt 0.995838 0.901816
s 1
usemtl grass
f 78/1/1 30/2/2 31/3/3
f 126/4/4 27/5/5 28/6/6
f 146/7/7 45/8/8 26/9/9
f 8/10/10 57/11/11 7/12/12
f 4/13/13 59/14/14 2/15/15
f 1/16/16 60/17/17 12/18/18
f 12/18/18 60/17/17 11/19/19
f 9/20/20 61/21/21 8/10/10
f 61/21/21 64/22/22 8/10/10
f 7/12/12 62/23/23 6/24/24
f 60/17/17 65/25/25 11/19/19
f 11/19/19 65/25/25 10/26/26
f 56/27/27 63/28/28 10/26/26
f 10/26/26 63/28/28 9/20/29
f 5/29/30 70/30/31 4/13/13
f 70/30/31 59/14/14 4/13/13
f 63/28/28 77/31/32 9/20/29
f 7/12/12 69/32/33 62/23/23
f 32/33/34 66/34/35 60/17/17
f 65/25/25 71/35/36 56/27/27
f 56/27/27 67/36/37 63/28/28
f 77/31/38 68/37/39 61/21/21
f 8/10/10 64/22/22 57/11/11
f 58/38/40 70/30/31 5/29/30
f 70/30/31 78/1/1 59/14/14
f 66/34/35 71/35/36 65/25/25
f 57/11/11 72/39/41 69/32/33
f 32/33/34 73/40/42 66/34/35
f 66/34/35 74/41/43 71/35/36
f 71/35/44 76/42/45 67/36/37
f 67/36/37 77/31/32 63/28/28
f 68/37/39 88/43/46 64/22/22
f 33/44/47 79/45/48 73/40/42
f 74/41/43 80/46/49 75/47/50
f 76/42/45 81/48/51 77/31/32
f 64/22/22 82/49/52 72/39/41
f 58/38/40 90/50/53 70/30/31
f 34/51/54 84/52/55 79/45/48
f 79/45/48 85/53/56 74/41/43
f 80/46/49 86/54/57 76/42/45
f 81/48/51 87/55/58 77/31/32
f 69/32/33 89/56/59 62/23/23
f 62/23/23 90/50/53 58/38/40
f 86/54/60 92/57/61 81/48/62
f 35/58/63 91/59/64 84/52/55
f 84/52/55 91/59/64 85/53/56
f 85/53/65 94/60/66 86/54/60
f 83/61/67 93/62/68 78/1/1
f 92/57/69 98/63/70 81/48/71
f 90/50/53 96/64/72 83/61/67
f 91/59/64 103/65/73 85/53/56
f 86/54/60 97/66/74 92/57/61
f 98/63/75 99/67/76 87/55/77
f 87/55/77 99/67/76 88/43/46
f 88/43/46 100/68/78 82/49/52
f 82/49/52 100/68/78 72/39/41
f 72/39/41 101/69/79 89/56/59
f 35/58/63 102/70/80 91/59/64
f 93/62/68 29/71/81 30/2/2
f 97/66/82 115/72/83 98/63/75
f 101/69/79 105/73/84 95/74/85
f 103/65/73 108/75/86 94/60/66
f 115/72/83 109/76/87 99/67/76
f 99/67/76 110/77/88 100/68/78
f 100/68/78 111/78/89 101/69/79
f 106/79/90 112/80/91 107/81/92
f 36/82/93 113/83/94 102/70/80
f 102/70/80 114/84/95 108/75/86
f 108/75/86 114/84/95 97/66/74
f 107/81/92 116/85/96 104/86/97
f 104/86/97 28/6/6 29/71/81
f 36/82/93 37/87/98 113/83/94
f 111/78/89 120/88/99 105/73/84
f 121/89/100 122/90/101 112/80/91
f 112/80/91 122/90/101 116/85/96
f 118/91/102 124/92/103 109/76/87
f 119/93/104 125/94/105 120/88/99
f 37/87/98 127/95/106 114/84/95
f 114/84/95 127/95/106 123/96/107
f 124/92/103 128/97/108 111/78/89
f 128/97/108 129/98/109 119/93/104
f 129/98/109 131/99/110 125/94/105
f 122/90/101 130/100/111 116/85/96
f 121/89/100 134/101/112 122/90/101
f 124/92/103 136/102/113 128/97/108
f 131/99/110 133/103/114 125/94/105
f 125/94/105 133/103/114 121/89/100
f 123/96/107 136/102/113 124/92/103
f 128/97/108 137/104/115 129/98/109
f 130/100/111 27/5/5 126/4/4
f 37/87/98 138/105/116 135/106/117
f 127/95/106 137/104/115 136/102/113
f 137/104/115 139/107/118 131/99/110
f 135/106/117 140/108/119 137/104/115
f 137/104/115 141/109/120 139/107/118
f 135/106/117 142/110/121 140/108/119
f 139/107/118 143/111/122 133/103/114
f 133/103/114 143/111/122 134/101/112
f 132/112/123 146/7/7 26/9/9
f 142/110/124 145/113/125 141/109/120
f 143/111/122 146/7/7 134/101/112
f 144/114/126 149/115/127 142/110/124
f 145/113/125 150/116/128 141/109/120
f 141/109/120 151/117/129 143/111/122
f 143/111/122 152/118/130 146/7/7
f 37/87/98 38/119/131 138/105/116
f 149/115/132 153/120/133 145/113/125
f 145/113/125 155/121/134 150/116/128
f 143/111/122 156/122/135 152/118/130
f 147/123/136 158/124/137 148/125/138
f 148/125/138 160/126/139 149/115/132
f 150/116/128 162/127/140 151/117/129
f 149/115/132 160/126/139 153/120/133
f 153/120/133 163/128/141 154/129/142
f 151/117/129 162/127/140 156/122/143
f 38/119/144 171/130/145 147/123/146
f 157/131/147 164/132/148 158/124/137
f 164/132/148 165/133/149 158/124/137
f 163/128/141 166/134/150 154/129/142
f 161/135/151 167/136/152 162/127/140
f 162/127/153 169/137/154 156/122/155
f 156/122/155 170/138/156 152/118/130
f 152/118/130 45/8/8 146/7/7
f 171/130/145 173/139/157 157/131/147
f 173/139/157 172/140/158 157/131/147
f 155/121/134 175/141/159 161/135/151
f 167/136/152 176/142/160 168/143/161
f 38/119/144 39/144/162 171/130/145
f 172/140/158 177/145/163 164/132/148
f 164/132/148 177/145/163 165/133/149
f 165/133/149 50/146/164 159/147/165
f 159/147/165 50/146/164 160/126/139
f 178/148/166 179/149/167 163/128/141
f 152/118/130 170/138/156 45/8/8
f 39/144/168 182/150/169 173/139/170
f 174/151/171 180/152/172 172/140/158
f 176/142/160 181/153/173 168/143/161
f 165/133/149 49/154/174 50/146/164
f 168/143/161 181/153/173 169/137/154
f 172/140/158 180/152/172 177/145/163
f 175/141/159 185/155/175 167/136/152
f 167/136/152 53/156/176 176/142/160
f 169/137/154 55/157/177 170/138/156
f 39/144/168 46/158/178 182/150/169
f 182/150/179 47/159/180 174/151/171
f 177/145/163 48/160/181 49/154/174
f 50/146/164 51/161/182 178/148/166
f 178/148/166 52/162/183 179/149/167
f 277/163/184 42/164/185 43/165/186
f 308/166/187 41/167/188 42/164/189
f 326/168/190 40/169/191 41/167/192
f 345/170/193 3/171/194 40/169/195
f 174/151/171 47/159/180 180/152/172
f 52/162/183 183/172/196 179/149/167
f 179/149/167 184/173/197 166/134/150
f 166/134/150 185/155/175 175/141/159
f 181/153/173 186/174/198 169/137/154
f 49/154/174 187/175/199 50/146/164
f 53/156/176 188/176/200 54/177/201
f 185/155/175 196/178/202 53/156/176
f 54/177/201 190/179/203 186/174/198
f 46/158/178 192/180/204 47/159/180
f 48/160/181 193/181/205 187/175/199
f 187/175/199 194/182/206 51/161/182
f 51/161/207 195/183/208 52/162/183
f 184/173/197 196/178/202 185/155/175
f 188/176/200 197/184/209 54/177/201
f 55/157/177 44/185/210 45/8/8
f 195/183/208 198/186/211 183/172/196
f 183/172/196 198/186/211 184/173/197
f 192/180/204 201/187/212 189/188/213
f 189/188/213 202/189/214 193/181/205
f 193/181/205 203/190/215 194/182/206
f 194/182/206 204/191/216 195/183/208
f 198/186/211 206/192/217 196/178/202
f 199/193/218 207/194/219 200/195/220
f 13/196/221 208/197/222 191/198/223
f 191/198/223 209/199/224 192/180/204
f 201/187/212 210/200/225 202/189/214
f 202/189/214 211/201/226 203/190/215
f 204/191/216 212/202/227 205/203/228
f 200/195/220 218/204/229 197/184/209
f 192/180/204 209/199/224 201/187/212
f 211/201/230 214/205/231 204/191/216
f 212/202/227 215/206/232 205/203/228
f 205/203/228 216/207/233 206/192/217
f 206/192/217 217/208/234 199/193/218
f 207/194/219 218/204/229 200/195/220
f 190/179/203 243/209/235 186/174/198
f 210/200/225 219/210/236 211/201/226
f 219/210/236 220/211/237 214/205/231
f 214/205/231 221/212/238 212/202/227
f 217/208/234 222/213/239 207/194/219
f 218/204/229 230/214/240 197/184/209
f 197/184/209 230/214/240 190/179/203
f 14/215/241 223/216/242 208/197/222
f 208/197/222 225/217/243 209/199/224
f 209/199/224 225/217/243 213/218/244
f 215/206/232 228/219/245 216/207/233
f 207/194/219 239/220/246 218/204/229
f 221/212/238 231/221/247 215/206/232
f 217/208/234 232/222/248 222/213/239
f 243/209/249 251/223/250 55/157/177
f 225/217/243 233/224/251 226/225/252
f 227/226/253 235/227/254 220/211/237
f 220/211/237 236/228/255 221/212/238
f 221/212/238 237/229/256 231/221/247
f 229/230/257 232/222/248 217/208/234
f 14/215/241 240/231/258 223/216/242
f 233/224/251 242/232/259 226/225/252
f 229/230/257 241/233/260 232/222/248
f 223/216/242 242/232/259 233/224/251
f 228/219/245 244/234/261 229/230/262
f 242/232/259 248/235/263 234/236/264
f 238/237/265 245/238/266 239/220/267
f 239/220/267 245/238/266 230/214/240
f 14/215/241 15/239/268 240/231/258
f 240/231/258 247/240/269 242/232/259
f 231/221/247 249/241/270 228/219/245
f 241/233/260 250/242/271 232/222/248
f 232/222/248 250/242/271 238/237/265
f 245/238/272 261/243/273 243/209/274
f 15/239/268 246/244/275 240/231/258
f 240/231/258 246/244/275 247/240/269
f 248/235/263 252/245/276 234/236/264
f 234/236/264 253/246/277 235/227/254
f 253/246/277 254/247/278 235/227/254
f 235/227/254 254/247/278 236/228/255
f 236/228/279 256/248/280 237/229/256
f 251/223/250 43/165/186 44/185/210
f 237/229/256 256/248/280 249/241/270
f 244/234/261 259/249/281 250/242/271
f 249/241/270 259/249/281 244/234/261
f 257/250/282 261/243/273 245/238/272
f 261/243/273 262/251/283 251/223/250
f 259/249/281 265/252/284 257/250/285
f 249/241/270 264/253/286 259/249/281
f 262/251/283 279/254/287 251/223/250
f 258/255/288 266/256/289 248/235/263
f 248/235/263 267/257/290 252/245/276
f 252/245/276 268/258/291 253/246/277
f 253/246/277 269/259/292 254/247/278
f 255/260/293 270/261/294 256/248/280
f 265/252/284 273/262/295 261/243/273
f 255/260/293 272/263/296 270/261/294
f 268/258/291 274/264/297 269/259/292
f 269/259/292 274/264/297 272/263/296
f 270/261/294 275/265/298 271/266/299
f 271/266/299 275/265/298 273/262/295
f 273/262/295 276/267/300 262/251/283
f 274/264/297 278/268/301 272/263/296
f 276/267/300 279/254/287 262/251/283
f 267/257/290 280/269/302 274/264/297
f 276/267/300 282/270/303 279/254/287
f 263/271/304 286/272/305 260/273/306
f 281/274/307 283/275/308 276/267/300
f 276/267/300 284/276/309 282/270/303
f 279/254/287 285/277/310 277/163/184
f 280/269/302 287/278/311 278/268/301
f 278/268/301 287/278/311 281/274/307
f 283/275/312 289/279/313 284/276/309
f 284/276/309 290/280/314 282/270/303
f 282/270/303 290/280/314 285/277/315
f 260/273/306 286/272/305 280/269/302
f 288/281/316 292/282/317 283/275/312
f 290/280/318 293/283/319 285/277/320
f 288/281/316 294/284/321 292/282/317
f 292/282/317 295/285/322 289/279/313
f 285/277/310 296/286/323 277/163/184
f 291/287/324 298/288/325 288/281/316
f 288/281/316 299/289/326 294/284/321
f 296/286/327 300/290/328 277/163/329
f 295/285/322 302/291/330 284/276/309
f 284/276/309 303/292/331 290/280/314
f 293/283/319 305/293/332 296/286/323
f 16/294/333 286/272/305 263/271/304
f 299/289/326 306/295/334 294/284/335
f 294/284/335 306/295/334 295/285/336
f 305/293/332 308/166/187 300/290/328
f 300/290/328 308/166/187 42/164/185
f 301/296/337 309/297/338 298/288/325
f 298/288/325 309/297/338 299/289/326
f 299/289/326 310/298/339 306/295/334
f 306/295/334 311/299/340 302/291/330
f 303/292/341 313/300/342 304/301/343
f 297/302/344 314/303/345 301/296/337
f 312/304/346 315/305/347 303/292/341
f 313/300/348 316/306/349 307/307/350
f 307/307/350 317/308/351 308/166/187
f 286/272/305 318/309/352 297/302/344
f 309/297/338 319/310/353 310/298/354
f 310/298/354 320/311/355 311/299/356
f 311/299/340 321/312/357 312/304/358
f 315/305/359 322/313/360 313/300/361
f 320/311/355 324/314/362 321/312/363
f 321/312/363 322/313/360 315/305/359
f 322/313/364 325/315/365 316/306/349
f 316/306/349 325/315/365 317/308/351
f 319/310/353 328/316/366 320/311/355
f 320/311/355 329/317/367 324/314/362
f 324/314/368 331/318/369 322/313/364
f 322/313/364 332/319/370 325/315/365
f 318/309/352 336/320/371 314/303/345
f 327/321/372 333/322/373 319/310/353
f 319/310/353 333/322/373 328/316/366
f 332/319/370 334/323/374 326/168/190
f 286/272/305 335/324/375 318/309/352
f 336/320/371 337/325/376 327/321/372
f 333/322/377 339/326/378 329/317/379
f 329/317/379 340/327/380 330/328/381
f 330/328/381 341/329/382 331/318/369
f 331/318/369 342/330/383 332/319/370
f 337/325/376 343/331/384 333/322/385
f 342/330/383 344/332/386 332/319/370
f 332/319/370 344/332/386 334/323/374
f 334/323/374 345/170/387 40/169/191
f 336/320/371 346/333/388 337/325/376
f 343/331/389 348/334/390 338/335/391
f 347/336/392 25/337/393 345/170/394
f 339/326/378 22/338/395 340/327/380
f 340/327/380 23/339/396 341/329/382
f 17/340/397 18/341/398 335/324/375
f 335/324/375 18/341/398 346/333/399
f 19/342/400 20/343/401 348/334/402
f 348/334/390 20/343/403 338/335/391
f 20/343/403 21/344/404 339/326/378
f 2/15/15 59/14/14 31/3/3
f 59/14/14 78/1/1 31/3/3
f 6/24/24 58/38/40 5/29/30
f 1/16/16 32/33/34 60/17/17
f 10/26/26 65/25/25 56/27/27
f 6/24/24 62/23/23 58/38/40
f 9/20/20 77/31/38 61/21/21
f 7/12/12 57/11/11 69/32/33
f 60/17/17 66/34/35 65/25/25
f 56/27/27 71/35/44 67/36/37
f 61/21/21 68/37/39 64/22/22
f 32/33/34 33/44/405 73/40/42
f 66/34/35 73/40/42 74/41/43
f 71/35/44 74/41/43 75/47/50
f 71/35/44 75/47/50 76/42/45
f 67/36/37 76/42/45 77/31/32
f 57/11/11 64/22/22 72/39/41
f 73/40/42 79/45/48 74/41/43
f 33/44/47 34/51/406 79/45/48
f 75/47/50 80/46/49 76/42/45
f 70/30/31 90/50/53 83/61/67
f 70/30/31 83/61/67 78/1/1
f 79/45/48 84/52/55 85/53/56
f 74/41/43 85/53/56 80/46/49
f 76/42/45 86/54/57 81/48/51
f 77/31/38 87/55/77 68/37/39
f 64/22/22 88/43/46 82/49/52
f 69/32/33 72/39/41 89/56/59
f 34/51/54 35/58/407 84/52/55
f 80/46/49 85/53/56 86/54/57
f 68/37/39 87/55/77 88/43/46
f 62/23/23 89/56/59 90/50/53
f 78/1/1 93/62/68 30/2/2
f 81/48/51 98/63/408 87/55/58
f 89/56/59 95/74/85 90/50/53
f 83/61/67 96/64/409 107/81/92
f 83/61/67 107/81/92 93/62/68
f 85/53/65 103/65/73 94/60/66
f 86/54/60 94/60/66 97/66/74
f 72/39/41 100/68/78 101/69/79
f 89/56/59 101/69/79 95/74/85
f 90/50/53 95/74/85 96/64/72
f 91/59/64 102/70/80 103/65/73
f 92/57/69 97/66/410 98/63/70
f 98/63/75 115/72/83 99/67/76
f 93/62/68 107/81/92 104/86/97
f 93/62/68 104/86/97 29/71/81
f 35/58/63 36/82/93 102/70/80
f 88/43/46 99/67/76 100/68/78
f 95/74/85 105/73/84 106/79/90
f 95/74/85 106/79/90 96/64/72
f 94/60/66 108/75/86 97/66/74
f 96/64/409 106/79/90 107/81/92
f 103/65/73 102/70/80 108/75/86
f 99/67/76 109/76/87 110/77/88
f 100/68/78 110/77/88 111/78/89
f 101/69/79 111/78/89 105/73/84
f 102/70/80 113/83/94 114/84/95
f 97/66/82 114/84/411 115/72/83
f 115/72/83 118/91/102 109/76/87
f 107/81/92 112/80/91 116/85/96
f 104/86/97 116/85/96 117/345/412
f 104/86/97 117/345/412 28/6/6
f 115/72/83 114/84/95 118/91/102
f 111/78/89 119/93/104 120/88/99
f 105/73/84 120/88/99 106/79/90
f 113/83/94 37/87/98 114/84/95
f 110/77/88 109/76/87 111/78/89
f 106/79/90 121/89/100 112/80/91
f 106/79/90 120/88/99 121/89/100
f 117/345/412 126/4/4 28/6/6
f 114/84/95 123/96/107 118/91/102
f 109/76/87 124/92/103 111/78/89
f 120/88/99 125/94/105 121/89/100
f 111/78/89 128/97/108 119/93/104
f 119/93/104 129/98/109 125/94/105
f 117/345/412 116/85/96 126/4/4
f 118/91/102 123/96/107 124/92/103
f 116/85/96 130/100/111 126/4/4
f 122/90/101 134/101/112 132/112/123
f 122/90/101 132/112/123 130/100/111
f 121/89/100 133/103/114 134/101/112
f 127/95/106 37/87/98 135/106/117
f 123/96/107 127/95/106 136/102/113
f 128/97/108 136/102/113 137/104/115
f 129/98/109 137/104/115 131/99/110
f 127/95/106 135/106/117 137/104/115
f 27/5/5 130/100/111 26/9/9
f 131/99/110 139/107/118 133/103/114
f 137/104/115 140/108/119 141/109/120
f 130/100/111 132/112/123 26/9/9
f 135/106/117 138/105/116 142/110/121
f 140/108/119 142/110/121 141/109/120
f 139/107/118 141/109/120 143/111/122
f 132/112/123 134/101/112 146/7/7
f 138/105/116 144/114/126 142/110/121
f 138/105/116 147/123/136 148/125/138
f 138/105/116 148/125/138 144/114/126
f 142/110/124 149/115/127 145/113/125
f 141/109/120 150/116/128 151/117/129
f 144/114/126 148/125/138 149/115/127
f 145/113/125 153/120/133 154/129/142
f 145/113/125 154/129/142 155/121/134
f 143/111/122 151/117/129 156/122/135
f 147/123/136 157/131/147 158/124/137
f 148/125/138 158/124/137 159/147/165
f 148/125/138 159/147/165 160/126/139
f 150/116/128 155/121/134 161/135/151
f 150/116/128 161/135/151 162/127/140
f 138/105/116 38/119/131 147/123/136
f 153/120/133 160/126/413 163/128/141
f 147/123/136 171/130/145 157/131/147
f 158/124/137 165/133/149 159/147/165
f 154/129/142 166/134/150 155/121/134
f 162/127/153 167/136/152 168/143/161
f 162/127/153 168/143/161 169/137/154
f 156/122/155 169/137/154 170/138/156
f 157/131/147 172/140/158 164/132/148
f 173/139/157 174/151/171 172/140/158
f 160/126/413 178/148/166 163/128/141
f 163/128/141 179/149/167 166/134/150
f 161/135/151 175/141/159 167/136/152
f 171/130/145 39/144/162 173/139/157
f 160/126/413 50/146/164 178/148/166
f 155/121/134 166/134/150 175/141/159
f 173/139/157 182/150/179 174/151/171
f 165/133/149 177/145/163 49/154/174
f 167/136/152 185/155/175 53/156/176
f 176/142/160 53/156/176 181/153/173
f 170/138/156 55/157/177 45/8/8
f 178/148/166 51/161/207 52/162/183
f 181/153/173 53/156/176 54/177/201
f 169/137/154 186/174/198 55/157/177
f 308/166/187 317/308/351 41/167/188
f 317/308/351 326/168/414 41/167/188
f 345/170/193 25/337/415 3/171/194
f 177/145/163 180/152/172 48/160/181
f 179/149/167 183/172/196 184/173/197
f 166/134/150 184/173/197 185/155/175
f 181/153/173 54/177/201 186/174/198
f 182/150/179 46/158/178 47/159/180
f 49/154/174 48/160/181 187/175/199
f 50/146/164 187/175/199 51/161/182
f 39/144/168 13/196/221 46/158/178
f 180/152/172 47/159/180 189/188/213
f 180/152/172 189/188/213 48/160/181
f 53/156/176 196/178/202 188/176/200
f 46/158/178 13/196/221 191/198/223
f 48/160/181 189/188/213 193/181/205
f 187/175/199 193/181/205 194/182/206
f 51/161/207 194/182/206 195/183/208
f 52/162/183 195/183/208 183/172/196
f 54/177/201 197/184/209 190/179/203
f 46/158/178 191/198/223 192/180/204
f 47/159/180 192/180/204 189/188/213
f 184/173/197 198/186/211 196/178/202
f 196/178/202 199/193/218 200/195/220
f 196/178/202 200/195/220 188/176/200
f 188/176/200 200/195/220 197/184/209
f 193/181/205 202/189/214 203/190/215
f 194/182/206 203/190/215 204/191/216
f 195/183/208 204/191/216 205/203/228
f 195/183/208 205/203/228 198/186/211
f 196/178/202 206/192/217 199/193/218
f 189/188/213 201/187/212 202/189/214
f 198/186/211 205/203/228 206/192/217
f 202/189/214 210/200/225 211/201/226
f 203/190/215 211/201/226 204/191/216
f 191/198/223 208/197/222 209/199/224
f 201/187/212 209/199/224 213/218/244
f 201/187/212 213/218/244 210/200/225
f 204/191/216 214/205/231 212/202/227
f 205/203/228 215/206/232 216/207/233
f 206/192/217 216/207/233 217/208/234
f 199/193/218 217/208/234 207/194/219
f 186/174/198 243/209/249 55/157/177
f 210/200/225 213/218/244 219/210/236
f 211/201/230 219/210/416 214/205/231
f 13/196/221 14/215/241 208/197/222
f 214/205/231 220/211/237 221/212/238
f 212/202/227 221/212/238 215/206/232
f 190/179/203 230/214/417 243/209/235
f 208/197/222 223/216/242 224/346/418
f 208/197/222 224/346/418 225/217/243
f 213/218/244 225/217/243 226/225/252
f 213/218/244 226/225/252 219/210/236
f 219/210/236 227/226/253 220/211/237
f 216/207/233 228/219/245 229/230/262
f 216/207/233 229/230/262 217/208/234
f 218/204/229 239/220/267 230/214/240
f 219/210/236 226/225/252 227/226/253
f 215/206/232 231/221/247 228/219/245
f 207/194/219 222/213/239 239/220/246
f 55/157/177 251/223/250 44/185/210
f 225/217/243 224/346/418 233/224/251
f 226/225/252 234/236/264 227/226/253
f 220/211/237 235/227/254 236/228/255
f 221/212/238 236/228/279 237/229/256
f 222/213/239 232/222/248 238/237/265
f 224/346/418 223/216/242 233/224/251
f 226/225/252 242/232/259 234/236/264
f 227/226/253 234/236/264 235/227/254
f 222/213/239 238/237/265 239/220/246
f 223/216/242 240/231/258 242/232/259
f 229/230/257 244/234/261 241/233/260
f 230/214/417 245/238/419 243/209/235
f 243/209/249 261/243/273 251/223/250
f 231/221/247 237/229/256 249/241/270
f 228/219/245 249/241/270 244/234/261
f 242/232/259 247/240/269 248/235/263
f 236/228/279 254/247/278 255/260/293
f 236/228/279 255/260/293 256/248/280
f 241/233/260 244/234/261 250/242/271
f 250/242/271 257/250/420 238/237/265
f 251/223/250 277/163/184 43/165/186
f 247/240/269 246/244/275 258/255/288
f 250/242/271 259/249/421 257/250/420
f 238/237/265 257/250/420 245/238/266
f 247/240/269 258/255/288 248/235/263
f 246/244/275 15/239/268 260/273/306
f 246/244/275 260/273/306 258/255/288
f 234/236/264 252/245/276 253/246/277
f 257/250/282 265/252/284 261/243/273
f 249/241/270 256/248/280 264/253/286
f 259/249/281 264/253/286 265/252/284
f 251/223/250 279/254/287 277/163/184
f 15/239/268 263/271/304 260/273/306
f 248/235/263 266/256/289 267/257/290
f 252/245/276 267/257/290 268/258/291
f 254/247/278 269/259/292 255/260/293
f 256/248/280 270/261/294 264/253/286
f 264/253/286 271/266/299 265/252/284
f 261/243/273 273/262/295 262/251/283
f 253/246/277 268/258/291 269/259/292
f 264/253/286 270/261/294 271/266/299
f 265/252/284 271/266/299 273/262/295
f 258/255/288 260/273/306 266/256/289
f 255/260/293 269/259/292 272/263/296
f 15/239/268 16/294/333 263/271/304
f 268/258/291 267/257/290 274/264/297
f 270/261/294 272/263/296 275/265/298
f 273/262/295 275/265/298 276/267/300
f 272/263/296 278/268/301 275/265/298
f 267/257/290 266/256/289 280/269/302
f 274/264/297 280/269/302 278/268/301
f 275/265/298 278/268/301 281/274/307
f 275/265/298 281/274/307 276/267/300
f 266/256/289 260/273/306 280/269/302
f 276/267/300 283/275/308 284/276/309
f 279/254/287 282/270/303 285/277/310
f 281/274/307 287/278/311 288/281/316
f 281/274/307 288/281/316 283/275/308
f 287/278/311 291/287/324 288/281/316
f 283/275/312 292/282/317 289/279/313
f 287/278/311 280/269/302 291/287/324
f 292/282/317 294/284/321 295/285/322
f 289/279/313 295/285/322 284/276/309
f 285/277/310 293/283/319 296/286/323
f 280/269/302 297/302/344 291/287/324
f 288/281/316 298/288/325 299/289/326
f 277/163/184 300/290/328 42/164/185
f 291/287/324 301/296/337 298/288/325
f 284/276/309 302/291/330 303/292/331
f 290/280/318 303/292/341 304/301/343
f 290/280/318 304/301/343 293/283/319
f 296/286/327 305/293/332 300/290/328
f 291/287/324 297/302/344 301/296/337
f 295/285/322 306/295/334 302/291/330
f 293/283/319 307/307/350 305/293/332
f 280/269/302 286/272/305 297/302/344
f 293/283/319 304/301/343 307/307/350
f 305/293/332 307/307/350 308/166/187
f 302/291/330 311/299/340 312/304/358
f 302/291/330 312/304/358 303/292/331
f 304/301/343 313/300/342 307/307/350
f 301/296/337 314/303/422 309/297/338
f 299/289/326 309/297/338 310/298/339
f 306/295/334 310/298/339 311/299/340
f 303/292/341 315/305/347 313/300/342
f 307/307/350 316/306/349 317/308/351
f 297/302/344 318/309/352 314/303/345
f 309/297/338 314/303/422 319/310/353
f 310/298/354 319/310/353 320/311/355
f 311/299/340 320/311/423 321/312/357
f 312/304/346 321/312/424 315/305/347
f 313/300/348 322/313/425 316/306/349
f 321/312/363 324/314/362 322/313/360
f 317/308/351 325/315/365 326/168/414
f 16/294/333 323/347/426 286/272/305
f 314/303/422 327/321/427 319/310/353
f 320/311/355 328/316/366 329/317/367
f 324/314/368 329/317/379 330/328/381
f 324/314/368 330/328/381 331/318/369
f 322/313/364 331/318/369 332/319/370
f 325/315/365 332/319/370 326/168/414
f 314/303/422 336/320/428 327/321/427
f 328/316/366 333/322/429 329/317/367
f 326/168/190 334/323/374 40/169/191
f 318/309/352 335/324/375 336/320/371
f 327/321/372 337/325/376 333/322/373
f 333/322/377 338/335/391 339/326/378
f 329/317/379 339/326/378 340/327/380
f 330/328/381 340/327/380 341/329/382
f 331/318/369 341/329/382 342/330/383
f 333/322/377 343/331/389 338/335/391
f 337/325/376 346/333/388 343/331/384
f 342/330/383 341/329/382 24/348/430
f 334/323/374 344/332/386 347/336/431
f 334/323/374 347/336/431 345/170/387
f 286/272/305 17/340/397 335/324/375
f 336/320/371 335/324/375 346/333/388
f 343/331/389 346/333/432 348/334/390
f 338/335/391 20/343/403 339/326/378
f 342/330/383 24/348/430 344/332/386
f 346/333/432 19/342/433 348/334/390
f 339/326/378 21/344/404 22/338/395
f 341/329/382 23/339/396 24/348/430
f 344/332/386 24/348/430 347/336/431
f 286/272/305 323/347/426 17/340/397
f 346/333/432 18/341/434 19/342/433
f 340/327/380 22/338/395 23/339/396
f 347/336/392 24/348/435 25/337/393
