# Blender 4.3.2
# www.blender.org
mtllib hacha.mtl
o hacha
v -0.059692 0.072344 0.047252
v -0.075306 0.270077 0.047342
v 0.357062 -0.054007 -0.027705
v -0.055313 0.217012 0.055934
v -0.200499 0.064205 -0.030597
v -0.041440 0.121822 -0.060149
v 0.367850 0.224693 0.021682
v 0.346554 -0.024061 0.026996
v 0.358508 0.243283 0.022287
v 0.345608 0.217471 -0.031881
v 0.403723 -0.070706 -0.001727
v 0.403155 0.249451 -0.003288
v 0.420082 0.165298 -0.000802
v 0.359243 -0.055657 0.022614
v 0.383419 -0.058914 -0.013297
v -0.205042 0.065308 -0.054739
v 0.421236 0.162836 -0.002757
v -0.207864 0.064677 0.048427
v 0.042263 0.077247 0.035373
v 0.041429 0.079847 0.044707
v 0.111087 0.239753 0.041665
v 0.042741 0.253109 0.035594
v 0.180328 0.044832 -0.036046
v 0.176730 0.049626 -0.041760
v -0.049597 0.122445 0.055771
v 0.098408 0.094031 0.048212
v 0.086914 0.195318 0.050022
v -0.207776 0.287633 0.048434
v -0.052631 0.216509 -0.060484
v 0.087721 0.196545 -0.054519
v 0.106906 0.092052 -0.052058
v 0.366536 -0.006295 0.022749
v 0.346355 0.217356 0.027046
v 0.227085 0.042318 0.034982
v 0.186523 0.243604 0.022785
v 0.221777 0.236392 0.031476
v 0.345981 -0.023701 -0.031789
v 0.242595 0.033180 -0.038550
v 0.048855 0.077368 -0.026321
v 0.050121 0.251105 -0.025119
v -0.055552 0.267312 -0.027569
v 0.199491 0.037262 -0.017556
v -0.210304 0.058610 -0.002742
v 0.421332 -0.000615 -0.002904
v 0.380540 0.244676 -0.014814
v 0.194003 0.241240 -0.020681
v 0.198389 0.246002 -0.002821
v 0.052824 0.072691 -0.002745
v 0.049725 0.257312 -0.001551
v 0.420027 -0.002994 -0.000710
v 0.401471 0.249581 -0.000025
v 0.180808 0.045724 0.034912
v 0.178932 0.043620 0.027723
v -0.211207 0.291586 0.020651
v -0.206836 0.120432 -0.062932
v -0.210383 0.294234 -0.002446
v -0.200480 0.286220 -0.030355
v -0.205693 0.270464 -0.061569
v -0.205079 0.286027 -0.054696
v 0.045947 0.079817 -0.049423
v 0.097747 0.242586 -0.042926
v 0.097303 0.240339 -0.048168
v -0.060826 0.266902 -0.052820
v 0.368147 -0.046548 -0.026328
v 0.363348 0.224409 -0.027898
v 0.357909 0.243114 -0.026985
v 0.214640 0.234521 -0.037953
v 0.186091 0.239729 -0.035155
v 0.252046 0.008404 -0.034984
v 0.241512 0.215526 -0.038495
v 0.344077 -0.039632 0.019071
v 0.356706 -0.039736 -0.015245
v 0.330849 -0.032214 -0.029488
v 0.372783 -0.049367 0.001695
v -0.213398 0.267215 -0.054734
v -0.219449 0.235895 -0.002973
v -0.209602 0.231163 -0.030511
v -0.212632 0.081834 -0.054385
v -0.209736 0.120758 -0.029842
v -0.219865 0.115516 -0.001223
v -0.220410 0.234245 0.020214
v -0.220035 0.118962 0.023749
v -0.216303 0.083511 0.047779
v -0.215703 0.270797 0.047374
v -0.211215 0.061373 0.020271
v -0.206368 0.232118 0.057714
v -0.206347 0.120298 0.057737
v 0.110743 0.075110 0.041491
v -0.056837 0.085560 0.053777
v -0.051758 0.253100 -0.058515
v -0.056492 0.253892 0.053775
v 0.416757 -0.062694 -0.003016
v 0.415765 0.228377 -0.000736
v -0.171427 0.290111 -0.001453
v 0.113243 0.072576 -0.040615
v 0.391601 -0.050542 -0.014423
v 0.113441 0.070468 0.031983
v -0.019469 0.088700 -0.057997
v 0.113857 0.244578 0.032885
v 0.078113 0.230746 -0.053546
v 0.084767 0.229718 0.048445
v 0.415749 -0.061976 -0.000731
v 0.118878 0.070805 -0.024782
v 0.119287 0.242841 -0.024182
v 0.416771 0.228147 -0.002880
v 0.125502 0.066049 -0.001485
v 0.124683 0.247942 -0.001674
v 0.110732 0.075806 -0.047106
v 0.246857 0.008487 -0.031071
v -0.206529 0.272971 0.055374
v 0.234940 0.214288 0.034622
v 0.372511 0.246818 0.015209
v 0.211343 0.241224 0.027765
v -0.206514 0.079022 0.055341
v 0.254010 0.003675 0.023802
v -0.206076 0.079548 -0.060884
v 0.253904 0.007737 -0.018989
v -0.064596 0.072777 -0.053091
v 0.335344 -0.035259 0.024343
v -0.213510 0.245177 0.054783
v -0.212068 0.250020 -0.060696
v -0.217078 0.073220 -0.002872
v -0.217309 0.279687 -0.002194
v -0.218023 0.277131 0.021271
v -0.207395 0.078267 -0.030019
v -0.207382 0.272131 -0.030083
v -0.213370 0.102224 0.054241
v -0.212767 0.106040 -0.060828
v -0.218124 0.075778 0.020315
v 0.055173 -0.943678 -0.000748
v 0.048117 -0.949164 0.006553
v 0.062973 -0.926038 0.009324
v 0.048883 -0.948340 -0.014633
v 0.058500 -0.930964 -0.028057
v 0.057782 -0.937472 -0.023399
v 0.063104 -0.919418 -0.023103
v 0.048012 -0.930735 0.039797
v 0.047358 -0.912652 0.044542
v 0.037387 -0.933701 0.043397
v 0.044603 -0.940520 0.034509
v 0.032122 -0.917486 0.050803
v 0.017808 -0.927970 0.044926
v 0.021431 -0.939876 0.029806
v 0.008784 -0.906705 0.055726
v -0.009930 -0.898533 0.056172
v -0.013972 -0.877983 0.060538
v -0.011919 -0.905751 0.049943
v -0.030744 0.067712 0.016004
v -0.078829 0.049555 0.046478
v -0.106598 0.067712 -0.043445
v -0.105498 0.037993 -0.039799
v -0.049785 0.049560 -0.039837
v -0.036601 0.067935 0.026935
v -0.044382 0.067332 0.036092
v -0.092380 0.067932 0.047044
v -0.103489 0.067333 0.042475
v -0.128742 0.067933 0.000209
v -0.127829 0.067331 -0.011770
v -0.126010 0.038460 -0.001501
v -0.095437 0.067932 -0.048846
v -0.083757 0.067334 -0.051681
v -0.038490 0.067939 -0.032331
v -0.032186 0.067335 -0.022101
v -0.051020 0.293803 0.045642
v -0.056908 0.306327 0.037740
v -0.115345 0.299022 0.038636
v -0.108627 0.310270 0.030817
v -0.128530 0.299715 -0.023122
v -0.117897 0.310983 -0.020886
v -0.073883 0.295675 -0.055646
v -0.071713 0.307460 -0.045437
v -0.028296 0.298169 -0.009659
v -0.025139 0.290284 -0.013896
v 0.016067 -0.958334 -0.024599
v 0.007615 -0.957858 -0.023967
v 0.026548 -0.956709 -0.024033
v -0.022871 -0.935157 -0.007004
v -0.017925 -0.941730 -0.020267
v -0.016717 -0.933308 0.009135
v 0.059060 -0.934103 0.021517
v 0.061525 -0.913893 0.025905
v 0.053756 -0.941011 0.022385
v 0.003589 -0.945420 0.014058
v -0.009531 -0.917031 0.036400
v -0.126628 -0.036661 0.009590
v -0.123281 0.043620 0.012787
v -0.117407 -0.041656 0.028434
v -0.082924 0.029114 0.045550
v -0.080550 -0.068636 0.050581
v -0.065085 0.036857 0.043121
v -0.045159 -0.027098 0.036448
v -0.060200 -0.001286 0.042867
v -0.028735 -0.057538 0.019270
v -0.030064 -0.009927 0.001199
v -0.033048 0.028690 0.008557
v -0.038637 0.036210 0.024888
v -0.102524 -0.062228 -0.045905
v -0.114798 -0.040408 -0.034206
v -0.031057 -0.011162 -0.013381
v -0.024226 -0.075314 -0.014666
v -0.032798 -0.051582 -0.029128
v -0.039299 0.036008 -0.028487
v -0.123977 -0.037447 -0.019629
v -0.045165 -0.027157 -0.039253
v -0.064281 0.032149 -0.045095
v -0.049858 0.031068 -0.039021
v -0.080200 -0.068717 -0.053410
v -0.027826 0.068399 -0.001924
v -0.029003 0.075344 0.006290
v -0.031587 0.039520 -0.001296
v -0.033864 0.044441 -0.017519
v -0.062221 0.068405 0.046470
v -0.070397 0.075343 0.047890
v -0.052960 0.038733 0.037920
v -0.046595 0.040390 0.033261
v -0.118877 0.068401 0.028713
v -0.122757 0.075339 0.021371
v -0.116000 0.037842 0.025930
v -0.107256 0.041390 0.035279
v -0.095286 0.036096 0.043118
v -0.119495 0.068401 -0.030658
v -0.113716 0.075338 -0.036612
v -0.115969 0.037833 -0.028766
v -0.123782 0.043815 -0.014257
v -0.063220 0.068406 -0.049590
v -0.055776 0.075342 -0.045934
v -0.076971 0.039648 -0.047892
v -0.090918 0.035950 -0.047330
v -0.050608 0.068587 0.041072
v -0.061426 0.102646 0.042141
v -0.039596 0.100278 0.023323
v -0.110156 0.068588 0.038089
v -0.114517 0.102635 0.028130
v -0.079771 0.067645 0.049300
v -0.089872 0.100272 0.043078
v -0.125718 0.068589 -0.019463
v -0.117595 0.102640 -0.026687
v -0.126992 0.067645 0.012895
v -0.124195 0.100265 0.001372
v -0.075793 0.068585 -0.052050
v -0.066411 0.102632 -0.046558
v -0.095134 0.100274 -0.044163
v -0.029372 0.068589 -0.014638
v -0.031696 0.102628 -0.004020
v -0.047362 0.067645 -0.041564
v -0.042849 0.100277 -0.030594
v -0.062107 0.319348 0.014628
v -0.050185 0.314367 0.012512
v -0.043306 0.303617 0.027516
v -0.036967 0.296021 0.028521
v -0.033282 0.302108 0.011703
v -0.024673 0.290851 0.009029
v -0.090170 0.320785 0.018094
v -0.081966 0.316882 0.028647
v -0.094589 0.307697 0.040532
v -0.098636 0.299617 0.046743
v -0.071232 0.313589 0.034071
v -0.050220 0.172091 0.032056
v -0.061311 0.174686 0.039665
v -0.039088 0.151347 0.018628
v -0.035113 0.172735 0.007331
v -0.037854 0.216447 0.018558
v -0.101670 0.151651 0.035868
v -0.112143 0.174855 0.027481
v -0.081349 0.151579 0.042471
v -0.067189 0.151653 0.041960
v -0.120984 0.151683 -0.012080
v -0.118439 0.173119 -0.019759
v -0.121606 0.172996 -0.003248
v -0.120758 0.172391 0.009099
v -0.116121 0.151736 0.022601
v -0.077047 0.150500 -0.045785
v -0.074015 0.216968 -0.046898
v -0.089928 0.172931 -0.043129
v -0.101670 0.151652 -0.038664
v -0.112834 0.151714 -0.029921
v -0.112664 0.229032 -0.032765
v -0.037537 0.151377 -0.017818
v -0.033813 0.216531 -0.011260
v -0.040413 0.225723 -0.026342
v -0.047156 0.151342 -0.032529
v -0.061864 0.151609 -0.043025
v -0.049645 0.217199 -0.036377
v -0.061317 0.216117 -0.044080
v -0.116976 -0.130707 0.018313
v -0.121896 -0.126019 0.002351
v -0.097066 -0.270844 0.018516
v -0.101387 -0.132103 0.039567
v -0.081351 -0.272061 0.039950
v -0.068464 -0.152774 0.052504
v -0.012478 -0.254980 0.039220
v -0.023165 -0.234903 0.044526
v 0.004505 -0.264644 0.012091
v -0.004855 -0.239239 0.027737
v -0.101391 -0.132089 -0.042360
v -0.074571 -0.271692 -0.048086
v -0.003565 -0.209966 -0.014816
v 0.002273 -0.266217 -0.023466
v -0.120535 -0.103410 -0.020989
v -0.097066 -0.270844 -0.021312
v -0.125390 -0.096765 -0.006387
v -0.101245 -0.272146 -0.005188
v -0.022377 -0.194774 -0.042470
v -0.022713 -0.236131 -0.047193
v -0.068467 -0.152776 -0.055299
v -0.038808 -0.234871 -0.053220
v 0.003905 -0.341987 -0.036374
v 0.013734 -0.573717 -0.048367
v -0.081584 -0.435658 0.010584
v -0.086566 -0.341445 0.022704
v -0.072484 -0.486862 0.022245
v -0.096284 -0.302890 0.006816
v -0.073415 -0.565467 0.002451
v 0.020251 -0.419706 -0.022897
v 0.029103 -0.473990 -0.006747
v 0.006454 -0.270594 -0.004766
v -0.054040 -0.452172 -0.048255
v -0.064399 -0.485585 -0.036781
v -0.082141 -0.311623 -0.036448
v 0.027244 -0.465056 0.011522
v -0.066034 -0.403122 0.039986
v -0.049845 -0.560879 0.043623
v -0.044219 -0.484858 0.049769
v -0.061786 -0.311916 0.049332
v -0.058693 -0.569957 0.034746
v -0.019339 -0.528903 0.053120
v -0.035339 -0.443923 0.052267
v -0.004312 -0.556885 0.051665
v -0.081727 -0.401970 -0.021329
v -0.068638 -0.568383 -0.021873
v -0.086274 -0.400605 -0.005173
v -0.072507 -0.567204 -0.009660
v 0.013867 -0.573045 0.045453
v -0.026908 -0.492537 -0.055704
v -0.005254 -0.546585 -0.054393
v 0.052332 -0.742126 0.022616
v 0.062652 -0.868479 0.022792
v -0.040428 -0.851827 -0.052914
v -0.041289 -0.626631 -0.050626
v -0.025542 -0.857131 -0.060550
v -0.055472 -0.851531 -0.041021
v -0.056047 -0.624990 -0.038175
v -0.066345 -0.682783 0.020527
v -0.071262 -0.686249 0.003628
v -0.072291 -0.833220 0.013059
v -0.048728 -0.832809 0.048855
v -0.037732 -0.830896 0.056079
v -0.042639 -0.639282 0.048237
v 0.042190 -0.806105 -0.048267
v 0.048547 -0.798043 0.038639
v 0.055262 -0.747884 -0.016494
v 0.064571 -0.873204 -0.019145
v -0.066133 -0.837353 -0.027781
v -0.072339 -0.832785 -0.015500
v -0.068896 -0.685982 -0.017594
v -0.004859 -0.844078 0.062518
v -0.022765 -0.831962 0.061323
v 0.007067 -0.808842 0.059966
v -0.027487 -0.619787 0.054396
v 0.010228 -0.820341 -0.062822
v -0.025342 -0.627190 -0.057173
v 0.027212 -0.959212 -0.001907
v 0.037765 -0.955198 0.002046
v 0.019101 -0.957980 0.003277
v 0.035401 -0.955707 -0.018271
v -0.066174 -0.883595 0.010785
v -0.067178 -0.871081 0.018222
v -0.060975 -0.891606 0.006926
v -0.072017 -0.863095 0.004782
v -0.049101 -0.892352 0.027262
v -0.044099 -0.883828 0.042735
v -0.035769 -0.881470 0.051215
v -0.043346 -0.869310 0.050384
v -0.033963 -0.893437 0.044147
v -0.021593 -0.920983 -0.054866
v -0.025218 -0.924035 -0.049975
v -0.029032 -0.902515 -0.055972
v -0.037918 -0.916291 -0.033088
v -0.048593 -0.893020 -0.038009
v -0.066661 -0.882403 -0.012811
v -0.069517 -0.868591 -0.017321
v -0.061182 -0.891482 -0.010414
v 0.045721 -0.933286 -0.044115
v 0.040480 -0.921572 -0.050837
v 0.042238 -0.944366 -0.037625
v 0.051605 -0.906386 -0.044364
v 0.021887 -0.943045 -0.048309
v 0.014184 -0.949207 -0.042707
v 0.007103 -0.934675 -0.057383
v -0.003742 -0.929407 -0.059415
v 0.002576 -0.919422 -0.062767
v -0.005081 -0.939616 -0.053019
v -0.053318 0.247561 -0.044005
v -0.050054 0.281879 -0.049928
v -0.040748 0.283027 -0.041732
v -0.074699 0.247784 0.047916
v -0.069432 0.282444 0.054256
v -0.080806 0.284243 0.054504
v -0.088974 0.234756 0.043949
v -0.031166 0.283740 -0.029657
v -0.023784 0.280198 -0.013396
v -0.030281 0.237098 -0.001988
v -0.032736 0.247531 -0.018974
v -0.115974 0.286423 -0.043892
v -0.100506 0.288580 -0.052403
v -0.102922 0.229863 -0.040299
v -0.081334 0.285367 -0.057344
v -0.066208 0.246033 -0.049562
v -0.085610 0.236214 -0.047828
v -0.121254 0.231061 0.017062
v -0.132438 0.287098 0.013594
v -0.124908 0.236771 0.002928
v -0.132817 0.288304 -0.015741
v -0.118760 0.233843 -0.026752
v -0.098447 0.289171 0.050562
v -0.115191 0.235968 0.029219
v -0.102897 0.229998 0.037532
v -0.030296 0.246983 0.009521
v -0.026702 0.280141 0.018171
v -0.022505 0.279017 0.002873
v -0.041660 0.281937 0.040174
v -0.047765 0.247853 0.036847
v -0.057879 0.281162 0.051260
v -0.071456 0.300582 0.049577
v -0.072264 0.294014 0.053578
v -0.091755 0.323645 -0.001406
v -0.099298 0.321319 -0.009949
v -0.107123 0.318881 0.003244
v -0.122764 0.309964 -0.004377
v -0.129307 0.303206 -0.001125
v -0.109138 0.316590 0.015331
v -0.124531 0.304768 0.020888
v -0.128886 0.298195 0.021638
v -0.079225 0.320726 -0.023000
v -0.090738 0.317589 -0.028579
v -0.088910 0.307282 -0.045132
v -0.094368 0.300490 -0.049944
v -0.102964 0.316125 -0.026558
v -0.113689 0.303905 -0.038647
v -0.116145 0.297374 -0.041974
v -0.053710 0.317188 -0.012220
v -0.064614 0.315008 -0.030928
v -0.041872 0.311280 -0.006514
v -0.037222 0.296044 -0.031666
v -0.047399 0.306239 -0.031506
v -0.053911 0.299187 -0.046646
v -0.052271 0.292238 -0.050213
v 0.058555 -0.878657 -0.034830
v 0.044737 -0.864698 0.047494
v 0.039436 -0.882297 0.050752
v -0.049207 0.097451 0.034455
v -0.103429 0.097451 0.037378
v -0.122965 0.097450 -0.013282
v -0.080816 0.097453 -0.047521
v -0.035233 0.097450 -0.018019
v -0.114552 0.287909 0.042514
v 0.038207 -0.947901 0.022959
v -0.033084 0.097031 0.009498
v -0.074713 0.097036 0.045000
v -0.121339 0.097033 0.016377
v -0.108525 0.097033 -0.036809
v -0.053984 0.097034 -0.041060
v -0.069807 0.322894 -0.007476
v 0.039487 -0.888189 -0.053785
v -0.007216 -0.947358 -0.035962
v -0.000136 -0.955275 -0.017352
v -0.035174 -0.048232 0.028949
v -0.023075 -0.075260 0.002728
v -0.128012 -0.035258 -0.004856
v -0.091984 -0.094652 -0.051462
v -0.032578 0.286449 0.028166
v -0.133302 0.293825 0.001200
v -0.089933 0.172933 0.040333
v -0.033921 0.164597 -0.004122
v -0.123844 -0.084957 0.013812
v -0.112664 -0.103508 -0.033878
v -0.074025 0.216829 0.044092
v -0.067714 -0.597590 0.019352
v -0.102516 -0.062179 0.043118
v -0.112666 -0.103502 0.031082
v -0.091988 -0.094641 0.048665
v -0.060368 -0.108186 0.050291
v -0.038769 -0.235112 0.050425
v -0.007109 -0.238575 -0.033485
v -0.060369 -0.108185 -0.053086
v 0.066322 -0.896166 0.002571
v 0.058651 -0.878799 0.031848
v 0.017051 -0.884850 0.058507
v 0.013444 -0.388928 0.027565
v -0.046263 -0.409803 -0.053267
v -0.123849 0.235075 -0.013016
v -0.041186 0.233715 0.026481
v -0.058673 0.237579 0.042506
v -0.055599 -0.674431 0.037162
v -0.062882 -0.844618 0.031914
v 0.061407 -0.800395 0.003038
v 0.053104 -0.793280 -0.034602
v -0.074043 -0.831257 -0.001426
v 0.025249 -0.821849 0.055454
v 0.024597 -0.821226 -0.058764
v -0.002595 -0.865033 -0.065510
v 0.017977 -0.896458 -0.061864
v 0.035072 -0.941067 0.035184
v -0.036881 -0.909640 0.015723
v -0.065405 0.281611 -0.056461
v -0.126990 0.285843 -0.031337
v -0.126972 0.285741 0.028527
v -0.076774 0.322496 0.012114
v -0.001996 -0.952592 -0.005438
vn -0.3627 -0.7609 -0.5380
vn 0.0919 -0.0682 -0.9934
vn -0.3335 -0.8645 -0.3761
vn 0.3277 -0.1714 -0.9291
vn 0.0954 -0.0777 0.9924
vn 0.3107 -0.0166 0.9504
vn 0.1361 0.0616 0.9888
vn 0.3337 0.0775 0.9395
vn 0.1527 0.4689 0.8700
vn 0.2379 0.7074 0.6655
vn 0.1276 0.9901 -0.0581
vn 0.1231 0.8029 0.5833
vn 0.1384 0.9887 -0.0570
vn 0.1820 -0.9829 -0.0262
vn 0.6279 -0.3478 0.6963
vn -0.2678 -0.8196 0.5065
vn -0.4114 0.8937 -0.1789
vn -0.9630 0.2478 -0.1063
vn -0.4878 0.8600 -0.1494
vn -0.0146 -0.9895 -0.1437
vn -0.4423 -0.8845 -0.1483
vn 0.0518 -0.8111 -0.5826
vn 0.1261 0.8170 -0.5626
vn 0.1440 0.9808 -0.1315
vn 0.2396 0.7007 -0.6720
vn 0.9139 0.2662 -0.3065
vn 0.1590 0.6873 -0.7087
vn 0.0371 -0.7449 0.6662
vn 0.0539 -0.8160 0.5755
vn 0.0022 -0.9759 0.2182
vn -0.1857 -0.8860 -0.4249
vn -0.4991 -0.8297 0.2500
vn -0.0753 -0.6419 -0.7631
vn 0.0510 -0.1612 -0.9856
vn -0.1878 -0.5818 -0.7914
vn -0.3868 0.7429 0.5463
vn -0.5059 0.8527 0.1300
vn -0.4108 0.3039 -0.8596
vn 0.0633 0.2299 -0.9712
vn 0.0397 0.0349 -0.9986
vn 0.0742 0.0209 -0.9970
vn 0.0337 -0.0300 -0.9990
vn 0.0469 -0.2381 -0.9701
vn 0.6914 0.0295 0.7219
vn 0.0727 0.0213 0.9971
vn 0.0816 0.0905 0.9925
vn 0.0864 0.2304 0.9693
vn 0.0486 -0.1516 0.9872
vn 0.0297 -0.0907 0.9954
vn 0.0911 0.9317 0.3516
vn 0.0325 0.8630 0.5042
vn 0.0269 0.9842 0.1747
vn 0.1044 0.6307 0.7690
vn 0.0625 0.5229 0.8501
vn 0.0364 -0.0967 -0.9947
vn -0.0264 -0.9988 -0.0411
vn -0.4492 -0.8928 0.0321
vn -0.4079 -0.8629 0.2985
vn -0.4023 -0.9029 0.1516
vn 0.5611 0.7615 -0.3244
vn -0.4163 -0.7365 0.5332
vn -0.5177 -0.8464 -0.1248
vn 0.6883 -0.0336 0.7246
vn 0.9509 0.0163 -0.3091
vn -0.0000 0.9967 -0.0810
vn 0.0679 0.9956 -0.0650
vn 0.3894 0.7946 0.4658
vn -0.3591 -0.6905 0.6279
vn -0.5439 -0.8034 -0.2425
vn -0.4721 -0.7605 -0.4459
vn 0.0215 -0.7950 -0.6063
vn 0.1149 0.9470 -0.3001
vn 0.1427 0.9764 -0.1621
vn 0.1238 0.6120 -0.7811
vn 0.3676 -0.2073 -0.9066
vn 0.9514 -0.0200 -0.3074
vn 0.3163 0.0765 -0.9456
vn 0.1295 0.0578 -0.9899
vn 0.0780 0.0780 -0.9939
vn -0.5217 -0.7840 -0.3365
vn 0.0049 0.9851 -0.1719
vn -0.2308 -0.6439 0.7295
vn 0.0662 0.4130 -0.9083
vn 0.0485 0.9461 -0.3203
vn -0.9441 0.2320 -0.2340
vn -0.7781 -0.0460 -0.6265
vn -0.9454 -0.2361 -0.2246
vn -0.9843 -0.0287 -0.1742
vn -0.9665 -0.2494 0.0600
vn -0.9974 -0.0153 0.0708
vn -0.9982 0.0197 0.0572
vn -0.8863 -0.2019 0.4167
vn -0.7082 0.0403 0.7048
vn -0.8864 0.2048 0.4152
vn -0.9806 0.0283 -0.1939
vn -0.9949 -0.0177 -0.0991
vn -0.5585 -0.8208 0.1199
vn -0.2679 -0.0255 0.9631
vn -0.6728 -0.0447 0.7385
vn -0.3017 -0.2458 0.9212
vn -0.3005 0.2462 0.9215
vn 0.0640 0.2480 0.9667
vn -0.2550 0.0254 0.9666
vn 0.0378 0.0376 0.9986
vn -0.1613 -0.0180 -0.9867
vn -0.3528 -0.2438 -0.9034
vn 0.8177 -0.4999 -0.2856
vn -0.9488 -0.2515 -0.1912
vn 0.7063 0.2452 0.6641
vn -0.9621 -0.2511 -0.1066
vn -0.0964 -0.6642 0.7413
vn -0.2189 -0.9542 0.2040
vn 0.0351 -0.2580 0.9655
vn 0.1513 0.9671 0.2046
vn -0.2413 -0.9673 -0.0777
vn -0.2173 -0.9470 -0.2365
vn -0.4045 -0.8922 -0.2008
vn -0.4508 -0.8825 -0.1342
vn -0.4491 -0.8906 0.0715
vn -0.2248 -0.5436 -0.8087
vn 0.0340 -0.0391 0.9987
vn -0.9657 0.2495 0.0715
vn 0.0830 0.2043 -0.9754
vn -0.9478 0.2559 -0.1903
vn -0.2660 -0.9627 -0.0488
vn 0.0663 0.9829 -0.1715
vn -0.7123 0.0305 -0.7012
vn -0.4473 0.7853 -0.4280
vn -0.9953 0.0165 -0.0956
vn 0.9717 -0.2262 0.0677
vn 0.8641 -0.4054 0.2982
vn 0.7952 -0.6062 0.0132
vn 0.5992 -0.7874 -0.1448
vn 0.8104 -0.5296 -0.2506
vn 0.8408 -0.3028 -0.4488
vn 0.9475 -0.1625 -0.2755
vn 0.7328 -0.0640 -0.6775
vn 0.8570 0.0281 -0.5145
vn 0.1335 -0.5634 0.8153
vn -0.0963 -0.8212 0.5624
vn 0.3952 -0.7256 0.5633
vn 0.6138 -0.3423 0.7114
vn 0.9085 -0.0871 0.4087
vn 0.6086 -0.1118 0.7856
vn 0.4444 -0.0244 0.8955
vn 0.2069 -0.2737 0.9393
vn -0.2747 -0.3929 0.8776
vn -0.4360 -0.6272 0.6453
vn -0.2521 -0.6447 0.7216
vn -0.0458 -0.3308 0.9426
vn -0.1719 -0.1477 0.9740
vn -0.4794 -0.3352 0.8111
vn 0.9437 -0.0005 0.3309
vn 0.8386 -0.0291 0.5439
vn 0.9739 0.0113 0.2268
vn 0.0195 -0.1254 0.9919
vn -0.3665 -0.0248 0.9301
vn -0.0340 0.0192 0.9992
vn -0.5671 -0.0063 -0.8236
vn -0.2580 -0.0284 -0.9657
vn -0.6045 -0.0442 -0.7954
vn 0.5597 -0.1249 -0.8192
vn 0.8159 -0.0235 -0.5777
vn 0.5537 0.0097 -0.8327
vn 0.8247 0.0271 0.5649
vn -0.0218 -0.0104 0.9997
vn -0.2779 0.0250 0.9603
vn -0.9995 -0.0298 0.0070
vn -0.9570 -0.0092 0.2899
vn -0.9992 0.0247 0.0303
vn -0.3391 0.0251 -0.9404
vn 0.6042 -0.0101 -0.7967
vn 0.7901 0.0249 -0.6125
vn 0.5210 0.3776 0.7655
vn 0.3972 -0.0282 0.9173
vn 0.7063 0.0123 0.7078
vn 0.3908 0.7332 0.5565
vn 0.1176 0.6221 0.7741
vn 0.5714 0.6977 0.4321
vn -0.2828 0.4987 0.8194
vn -0.1735 0.7506 0.6375
vn -0.5719 0.4462 0.6884
vn -0.5989 0.0428 0.7997
vn -0.3701 0.7848 0.4971
vn -0.6727 0.6715 0.3107
vn -0.8342 0.4412 -0.3309
vn -0.8581 -0.0108 -0.5134
vn -0.9837 0.0339 -0.1763
vn -0.5470 0.7961 -0.2590
vn -0.4706 0.6578 -0.5880
vn -0.6225 0.7819 -0.0326
vn 0.4970 0.3047 -0.8125
vn 0.2186 -0.0338 -0.9752
vn 0.0681 0.4082 -0.9104
vn 0.1364 0.7552 -0.6412
vn 0.4332 0.6039 -0.6691
vn -0.1203 0.7475 -0.6533
vn 0.7950 0.5894 -0.1434
vn 0.9222 0.3327 0.1973
vn 0.9195 0.3059 -0.2471
vn 0.8432 0.0752 -0.5323
vn 0.7198 0.4849 -0.4967
vn 0.2257 -0.9225 -0.3132
vn 0.1382 -0.9842 0.1107
vn 0.0350 -0.9653 -0.2589
vn -0.6824 -0.7293 -0.0493
vn -0.4815 -0.8426 0.2413
vn -0.6872 -0.6999 0.1946
vn -0.4504 -0.8928 0.0102
vn -0.4876 -0.8126 -0.3191
vn -0.4003 -0.7506 0.5258
vn -0.5967 -0.6793 0.4271
vn -0.6022 -0.6819 0.4152
vn -0.7571 -0.6285 0.1784
vn -0.1505 -0.9330 0.3269
vn -0.2819 -0.7721 0.5695
vn -0.4918 -0.7001 0.5177
vn -0.9369 -0.0775 0.3409
vn -0.9634 -0.0045 0.2679
vn -0.9485 -0.0574 0.3114
vn -0.8070 0.0046 0.5905
vn -0.6436 -0.0719 0.7620
vn -0.5695 0.0026 0.8220
vn -0.3842 -0.0232 0.9230
vn -0.0641 0.0404 0.9971
vn 0.2241 0.0498 0.9733
vn 0.4712 0.0501 0.8806
vn 0.2854 -0.0402 0.9576
vn 0.6217 -0.0555 0.7813
vn 0.4932 -0.0376 0.8691
vn 0.6106 0.0727 0.7886
vn 0.4687 0.0703 0.8805
vn 0.8033 0.0937 0.5881
vn 0.9345 0.1165 0.3364
vn 0.9977 0.0667 0.0104
vn -0.7694 0.0041 -0.6387
vn -0.5630 0.0024 -0.8264
vn 0.9567 -0.0868 -0.2777
vn 0.9771 0.0718 -0.2005
vn 0.9889 0.1359 0.0594
vn 0.9708 0.1347 -0.1986
vn -0.9425 -0.0802 -0.3243
vn -0.8097 -0.0391 -0.5856
vn -0.9141 -0.0063 -0.4054
vn 0.6162 0.0766 -0.7839
vn 0.5006 0.0672 -0.8631
vn 0.3176 -0.0140 -0.9481
vn 0.2242 0.0489 -0.9733
vn 0.0702 -0.0684 -0.9952
vn -0.0622 0.0368 -0.9974
vn -0.3830 -0.0226 -0.9235
vn 0.9692 0.0034 -0.2461
vn 0.9936 0.0792 -0.0807
vn 0.9997 -0.0242 0.0034
vn 0.9988 -0.0483 -0.0088
vn 0.9017 0.0059 -0.4324
vn 0.5324 0.0060 0.8465
vn 0.3798 0.0755 0.9220
vn 0.3094 -0.0226 0.9507
vn 0.6909 0.0052 0.7229
vn -0.6384 0.0028 0.7697
vn -0.7565 0.0763 0.6496
vn -0.8094 -0.0230 0.5869
vn -0.8098 -0.0362 0.5856
vn -0.4778 0.0052 0.8784
vn -0.9288 0.0039 -0.3706
vn -0.8531 0.0756 -0.5163
vn -0.8067 -0.0240 -0.5905
vn -0.9838 0.0048 -0.1794
vn 0.0639 0.0043 -0.9979
vn 0.2397 0.0760 -0.9679
vn 0.3102 -0.0216 -0.9504
vn -0.1303 0.0058 -0.9915
vn 0.6644 0.1060 0.7398
vn 0.8395 0.0868 0.5364
vn 0.9824 0.0876 0.1650
vn 0.9554 0.1077 0.2751
vn -0.5048 0.1058 0.8567
vn -0.2611 0.0869 0.9614
vn 0.1500 0.0908 0.9845
vn 0.0305 0.1079 0.9937
vn -0.9709 0.1042 -0.2155
vn -0.9954 0.0846 0.0451
vn -0.8900 0.0907 0.4468
vn -0.9356 0.1065 0.3366
vn -0.0857 0.1046 -0.9908
vn -0.3476 0.0868 -0.9336
vn -0.6977 0.0875 -0.7110
vn -0.6086 0.1077 -0.7861
vn 0.9101 0.1086 -0.4000
vn 0.7727 0.0887 -0.6285
vn 0.4574 0.0908 -0.8846
vn 0.5593 0.1080 -0.8219
vn 0.1813 0.9800 -0.0818
vn 0.0792 0.9781 0.1923
vn 0.3021 0.9246 0.2321
vn 0.7250 0.4670 0.5063
vn 0.7111 0.6689 0.2167
vn 0.4781 0.8539 0.2057
vn 0.8266 0.1382 0.5455
vn -0.1346 0.9457 0.2959
vn -0.0223 0.8931 0.4493
vn 0.1435 0.8464 0.5128
vn 0.1558 0.0207 0.9876
vn 0.4414 -0.0093 0.8973
vn 0.9000 -0.0610 0.4317
vn 0.7834 -0.1137 0.6111
vn 0.6718 -0.0076 0.7407
vn 0.4399 -0.1369 0.8876
vn 0.9735 -0.0179 0.2282
vn 0.8600 0.0270 0.5096
vn 0.9905 -0.1374 -0.0105
vn -0.8862 0.0285 0.4625
vn -0.7160 -0.0120 0.6980
vn -0.2752 -0.0082 0.9614
vn -0.4919 -0.1002 0.8649
vn -0.5053 0.0247 0.8626
vn -0.7463 -0.1412 0.6505
vn -0.0714 0.0221 0.9972
vn 0.0477 -0.0642 0.9968
vn -0.7413 0.0228 -0.6708
vn -0.9382 -0.0101 -0.3461
vn -0.9983 -0.0097 -0.0566
vn -0.9744 -0.1107 -0.1955
vn -0.6838 -0.1066 -0.7218
vn -0.8543 -0.1287 -0.5036
vn -0.9834 -0.0174 0.1805
vn -0.9310 -0.1019 0.3505
vn -0.9903 -0.1197 0.0700
vn 0.3892 0.0145 -0.9210
vn -0.0067 0.0226 -0.9997
vn -0.2670 -0.0105 -0.9637
vn -0.5126 0.0212 -0.8584
vn -0.4866 -0.1031 -0.8675
vn 0.7222 0.0115 -0.6916
vn 0.8219 -0.0936 -0.5618
vn 0.9139 0.0141 -0.4057
vn 0.9411 -0.0501 -0.3344
vn 0.9977 -0.0044 -0.0675
vn -0.9069 -0.1205 0.4037
vn -0.7871 -0.0666 0.6132
vn -0.9862 -0.1278 0.1055
vn -0.9856 -0.1323 -0.1049
vn -0.9733 -0.1205 0.1956
vn -0.9363 -0.1234 0.3288
vn -0.6551 -0.0859 0.7507
vn -0.6537 -0.0889 0.7515
vn -0.0477 -0.0009 0.9989
vn -0.3980 -0.0467 0.9162
vn -0.1699 -0.0161 0.9853
vn 0.6667 0.0831 0.7407
vn 0.9688 0.1264 0.2133
vn 0.9906 0.1237 -0.0578
vn 0.8545 0.1233 0.5045
vn -0.6514 -0.0820 -0.7543
vn -0.5647 -0.0776 -0.8217
vn 0.7963 0.1130 -0.5943
vn 0.8455 0.1092 -0.5227
vn 0.9328 0.1159 -0.3413
vn -0.7785 -0.0652 -0.6243
vn -0.9107 -0.1204 -0.3952
vn -0.9138 -0.0876 -0.3967
vn -0.9931 -0.0754 -0.0895
vn 0.6497 0.1025 -0.7532
vn 0.7460 0.0865 -0.6603
vn -0.0459 -0.0001 -0.9989
vn -0.3079 -0.0335 -0.9508
vn 0.4613 0.0600 -0.8852
vn -0.9897 -0.1003 -0.1022
vn -0.9685 -0.0841 0.2344
vn -0.8710 -0.0958 0.4818
vn -0.9948 -0.0499 0.0887
vn -0.8832 -0.0680 0.4640
vn -0.9102 -0.0182 0.4137
vn -0.7539 -0.0329 0.6561
vn 0.9315 0.1030 -0.3489
vn 0.8630 0.0748 -0.4996
vn -0.7632 -0.0898 -0.6398
vn -0.5304 -0.0416 -0.8467
vn 0.8557 0.0959 0.5086
vn 0.9746 0.1040 0.1982
vn 0.7641 0.0723 0.6410
vn 0.9344 0.0914 0.3442
vn -0.6774 -0.0663 0.7327
vn -0.6557 -0.0269 0.7545
vn -0.3913 -0.0175 0.9201
vn 0.0660 0.0164 0.9977
vn -0.9159 -0.0894 -0.3914
vn -0.7464 -0.0518 -0.6635
vn -0.9114 -0.0422 -0.4094
vn 0.0085 0.0126 -0.9999
vn -0.3301 0.0028 -0.9439
vn 0.9546 0.0454 0.2944
vn 0.9955 0.0783 0.0537
vn -0.5513 -0.0314 -0.8337
vn -0.5255 -0.0085 -0.8508
vn -0.3406 -0.0252 -0.9399
vn -0.9958 0.0044 0.0909
vn -0.9998 -0.0188 -0.0044
vn -0.9580 -0.0174 0.2862
vn -0.7700 0.0101 0.6380
vn -0.6641 -0.0179 0.7474
vn -0.5258 0.0063 0.8506
vn -0.8307 -0.0720 0.5520
vn -0.4476 -0.0197 0.8940
vn 0.6243 0.0554 -0.7793
vn 0.4986 -0.0046 -0.8668
vn 0.3779 0.0375 -0.9251
vn 0.6213 0.0284 0.7831
vn 0.4654 0.0572 0.8832
vn 0.3685 0.0376 0.9289
vn 0.9752 0.0937 -0.2007
vn 0.9775 0.0368 -0.2075
vn -0.8595 -0.0237 -0.5106
vn -0.9601 -0.0216 -0.2789
vn -0.9392 0.0048 -0.3432
vn -0.2361 0.0103 0.9717
vn 0.0499 -0.0131 0.9987
vn 0.1896 -0.0700 0.9794
vn 0.2035 0.0343 0.9785
vn -0.0339 -0.0202 -0.9992
vn 0.2020 0.0320 -0.9789
vn 0.2434 0.0392 -0.9691
vn 0.2536 -0.0643 -0.9652
vn 0.3743 -0.9161 0.1438
vn 0.1228 -0.8967 0.4252
vn 0.3877 -0.9019 -0.1904
vn -0.8773 -0.2226 0.4252
vn -0.9861 -0.1396 0.0896
vn -0.6557 -0.6057 0.4508
vn -0.5394 -0.5961 0.5947
vn -0.6801 -0.4135 0.6054
vn -0.5930 -0.1697 0.7871
vn -0.6792 -0.5331 -0.5044
vn -0.5176 -0.1812 -0.8362
vn -0.4790 -0.3232 -0.8162
vn -0.7805 -0.2975 -0.5498
vn -0.7361 -0.0735 -0.6729
vn -0.7823 -0.5686 -0.2545
vn -0.8082 -0.5820 -0.0903
vn -0.8930 -0.4085 -0.1886
vn 0.4767 -0.6994 -0.5326
vn 0.2342 -0.6218 -0.7473
vn 0.5887 -0.3715 -0.7180
vn 0.4507 -0.2006 -0.8699
vn 0.0201 -0.8312 -0.5557
vn -0.2178 -0.3593 -0.9074
vn -0.3141 -0.6924 -0.6495
vn 0.0078 -0.1717 -0.9851
vn 0.1209 -0.4663 -0.8763
vn 0.5522 -0.1600 -0.8182
vn 0.2063 -0.1532 -0.9664
vn 0.3902 -0.0782 -0.9174
vn 0.5418 -0.0536 -0.8388
vn 0.7320 0.0421 -0.6800
vn 0.0518 -0.1757 0.9831
vn -0.2558 -0.1260 0.9585
vn 0.1390 -0.0477 0.9891
vn -0.1205 -0.0058 0.9927
vn 0.9182 -0.1687 -0.3585
vn 0.9697 -0.0234 -0.2432
vn 0.9963 -0.0320 0.0792
vn -0.6207 -0.0259 -0.7836
vn -0.3528 0.0905 -0.9313
vn 0.0638 -0.0737 -0.9952
vn -0.1927 -0.1217 -0.9737
vn -0.1184 0.0294 -0.9925
vn -0.8491 -0.0204 0.5278
vn -0.9819 -0.0278 0.1874
vn -0.9850 0.1714 0.0219
vn -0.3276 0.0980 0.9397
vn 0.9391 -0.1855 0.2892
vn 0.9104 -0.0366 0.4121
vn 0.0912 0.3280 0.9403
vn -0.2693 0.9524 -0.1427
vn -0.3876 0.9206 0.0470
vn -0.1253 0.9921 0.0031
vn -0.8372 0.5469 -0.0014
vn -0.4012 0.8873 0.2275
vn -0.8657 0.3416 0.3659
vn 0.0351 0.9468 -0.3198
vn -0.2328 0.5091 -0.8286
vn -0.2888 0.8794 -0.3785
vn -0.1124 0.8996 -0.4220
vn -0.5997 0.3475 -0.7208
vn 0.4032 0.9010 -0.1600
vn 0.2607 0.8674 -0.4238
vn 0.5774 0.8127 -0.0786
vn 0.5234 0.7358 -0.4297
vn 0.5449 -0.8240 0.1550
vn 0.9987 -0.0269 0.0428
vn 0.8421 0.0111 0.5392
vn -0.2156 -0.0120 0.9764
vn -0.2368 -0.9538 -0.1849
vn 0.6548 -0.6924 0.3031
vn -0.9962 -0.0082 -0.0865
vn -0.9765 0.0334 -0.2131
vn 0.6668 -0.0549 -0.7433
vn 0.2414 0.0353 0.9698
vn 0.9698 0.1482 -0.1935
vn 0.2344 0.0345 -0.9715
vn 0.9921 0.1033 -0.0709
vn -0.7443 -0.0171 -0.6677
vn 0.2492 0.0399 0.9676
vn -0.9816 -0.0460 -0.1853
vn -0.9101 0.0059 0.4143
vn -0.8677 -0.4325 0.2448
vn -0.9262 -0.2013 -0.3187
vn 0.6292 -0.2011 0.7508
vt -0.675785 4.271370
vt -0.753653 4.045276
vt -0.707375 3.913523
vt -0.749961 3.576984
vt -0.514165 -4.382131
vt -0.168468 -4.698972
vt 3.148351 -4.185362
vt 5.556732 -4.546738
vt 5.659682 -4.934614
vt 5.626369 -4.714377
vt 5.734868 -4.908516
vt 5.810377 2.690773
vt 5.246727 1.508415
vt 5.888435 -0.192417
vt -0.819437 4.206751
vt -0.835253 4.548372
vt -0.994781 3.826233
vt 6.227162 2.992388
vt 6.219700 2.994204
vt 5.846276 3.114499
vt 4.592595 -2.414484
vt 4.611787 -5.525626
vt 4.699180 -3.982978
vt 6.565369 1.293650
vt 6.221597 1.251081
vt 6.114748 -5.026548
vt 5.965595 -5.618170
vt 6.287281 -4.700941
vt 3.659212 -2.507277
vt 3.629998 -3.760956
vt 3.782567 -2.486467
vt -0.531686 3.676966
vt -0.536318 4.030746
vt 4.895638 -1.504956
vt 4.954947 -1.381528
vt 4.824863 -0.520576
vt 5.171178 3.068733
vt 5.540168 3.124207
vt -1.148307 -5.654427
vt -1.302682 -3.871499
vt -1.937661 -3.835989
vt -2.066519 -1.856499
vt -3.196929 -3.606056
vt -3.779696 -3.264171
vt -3.553269 -1.450364
vt 3.283668 -4.590453
vt 2.298420 -5.379285
vt 2.486071 -0.442481
vt 2.796858 -2.567348
vt 3.022013 -0.254948
vt 0.932342 -0.583570
vt 0.565616 -2.555004
vt 5.425931 -1.328002
vt 5.512584 -2.557980
vt 5.594253 -2.194100
vt 3.003272 -0.775814
vt 3.084468 -2.378210
vt -4.248347 0.600431
vt 4.280315 -2.346664
vt 4.451650 -0.275373
vt 3.995852 0.603438
vt 3.875762 -0.419324
vt 5.962540 -5.348905
vt 3.560994 -5.604493
vt 4.240624 -5.638598
vt 0.036025 -5.521422
vt 2.299464 -5.437989
vt 5.922015 -2.342319
vt 5.903553 -1.278372
vt 5.928108 -5.330805
vt -1.040164 3.656206
vt -0.954776 3.479168
vt -0.512749 3.812777
vt -0.536318 3.538507
vt -0.387399 3.360288
vt -0.382340 3.619253
vt 4.937599 -5.581949
vt 5.033797 -3.365395
vt 4.901183 -2.505475
vt 6.442365 -1.022011
vt 6.197238 -0.150811
vt 6.527666 -0.892163
vt -5.497669 2.905942
vt -5.442139 2.506987
vt -4.519239 3.269008
vt -2.250888 3.112310
vt -1.272425 2.231238
vt 6.261026 -4.887103
vt 6.343817 -4.539045
vt 3.245699 -4.149863
vt -1.436333 1.879775
vt -5.062261 2.079575
vt -1.729657 0.340204
vt 4.021020 2.117377
vt 4.252857 2.562917
vt 6.146577 -2.244678
vt 3.789116 -0.437413
vt 3.937153 2.000624
vt -1.489304 -0.042927
vt -1.439028 -0.431110
vt -1.330467 1.797315
vt 3.548608 6.434746
vt 3.438137 3.713315
vt 3.548608 3.348449
vt 4.268623 4.066271
vt 4.555209 3.237546
vt 4.601846 4.085195
vt 4.554730 5.771164
vt 4.925853 3.383558
vt 5.048990 6.103161
vt 4.925853 6.501378
vt 4.246759 5.785117
vt 3.879640 4.092612
vt 3.934130 -5.653676
vt 3.930082 -5.652730
vt 1.237974 3.188800
vt 0.797960 3.162749
vt 0.504793 3.140195
vt 5.048383 3.045134
vt 5.103446 1.283835
vt 2.713399 3.284547
vt 2.616964 1.550852
vt 3.256873 1.605191
vt 3.437825 3.330733
vt -0.560028 3.360824
vt -3.320898 -5.509653
vt -4.043679 -5.457713
vt -0.819437 3.836412
vt -0.911520 3.638947
vt 4.282409 2.898652
vt 4.282607 3.194166
vt 4.260413 3.136232
vt 4.237690 -5.640092
vt 5.940446 -5.608046
vt 4.607114 -5.528041
vt 4.937600 -5.581223
vt -0.376120 3.874368
vt -0.490057 4.087896
vt 5.048294 -5.605719
vt 5.048294 -5.606980
vt 3.712556 -1.488605
vt 3.837706 -1.440647
vt -1.112762 3.046387
vt 3.493222 -3.845973
vt 3.610343 -1.784616
vt 5.202097 -0.632848
vt 5.313078 -1.116632
vt 5.391084 -0.082206
vt 4.596197 -1.381381
vt 4.808168 -1.463601
vt 4.750398 -0.457420
vt 4.655560 0.515744
vt 4.525755 0.648761
vt 4.780719 0.567541
vt 4.734615 0.612687
vt 0.704287 1.444017
vt 1.348428 1.394454
vt 5.528522 3.122563
vt 5.171178 3.068744
vt 5.048294 3.048308
vt -1.519641 -2.180704
vt 5.839583 3.116262
vt 3.061967 -0.822139
vt 3.166351 -2.234047
vt -0.956103 -4.857706
vt -1.093467 -5.599221
vt 3.429707 -5.309300
vt 4.286098 -1.285607
vt 6.202673 -1.192914
vt 3.560825 -5.603886
vt 3.438239 -5.581883
vt 3.438137 -5.585499
vt -5.657406 3.356647
vt 0.025702 -5.585334
vt -1.111776 -5.659046
vt 3.438137 -5.364201
vt 3.750218 -0.151623
vt -1.111776 4.046287
vt -1.386520 -5.640296
vt -3.671724 -5.484340
vt 6.548450 3.046491
vt 6.548448 3.047545
vt 6.659046 3.069783
vt 6.659046 3.072216
vt 6.653147 1.251421
vt 6.611053 -0.599725
vt -1.565021 -1.542670
vt -1.517916 -1.499648
vt 6.369268 -2.181612
vt 4.709861 1.847823
vt 4.661871 1.918158
vt 3.312307 -4.295699
vt 4.460107 2.303281
vt 3.874696 1.860305
vt 3.874861 5.726195
vt 3.876911 6.543461
vt 3.438138 6.229985
vt 4.256084 6.645436
vt 3.878333 3.275646
vt 4.246448 3.205370
vt 4.567761 6.613630
vt 5.048990 3.626649
vt 3.048007 3.308558
vt 2.254455 0.089367
vt 2.276101 0.082709
vt 2.269657 0.100222
vt 2.265630 0.112097
vt 2.242217 0.112314
vt 2.231911 0.116079
vt 2.226761 0.108041
vt 2.217542 0.127733
vt 2.206792 0.117633
vt 2.324110 0.074334
vt 2.327163 0.083336
vt 2.312114 0.079722
vt 2.305023 0.073668
vt 2.269403 0.076457
vt 2.304937 0.068342
vt 2.316722 0.062549
vt 2.332178 0.068527
vt 0.564467 -0.299271
vt 0.540561 -0.307081
vt 0.535672 -0.348164
vt 0.570107 -0.327865
vt 0.582053 -0.279453
vt 0.541605 -0.261412
vt 2.233001 0.252714
vt 2.232089 0.268351
vt 2.211937 0.261260
vt 0.517757 -0.173843
vt 0.585997 -0.146137
vt 0.544619 -0.134105
vt 0.374102 -0.050664
vt 0.423689 -0.006039
vt 0.379673 -0.005973
vt 0.553039 -0.017577
vt 0.577686 0.006869
vt 0.547111 0.014624
vt 0.337228 -0.136573
vt 0.305665 -0.201340
vt 0.329783 -0.203192
vt 0.515970 -0.207249
vt 0.559894 -0.211469
vt 0.442092 1.005830
vt 0.483540 1.043301
vt 0.448985 1.045731
vt 0.416303 -0.051606
vt 0.548064 1.119370
vt 0.581866 1.182600
vt 0.540459 1.181099
vt 0.325512 -0.624264
vt 0.361568 -0.604014
vt 0.295377 -0.599558
vt 0.345030 -0.646384
vt 0.408357 -0.640956
vt 0.300927 -0.639562
vt 2.240816 0.053060
vt 2.237289 0.045309
vt 2.270931 0.054439
vt 2.269962 0.060702
vt 2.263590 0.044200
vt 2.296904 0.044543
vt 2.346240 0.018416
vt 2.362809 0.013710
vt 2.355794 0.025499
vt 2.322424 0.013529
vt 2.336648 0.000938
vt 2.313991 0.026185
vt 0.596256 -0.364142
vt 0.581924 -0.349458
vt 0.556541 -0.370794
vt 0.571106 -0.387984
vt 0.594296 -0.376145
vt 0.534793 -0.386152
vt 0.398526 1.576968
vt 0.319748 1.564816
vt 0.408834 1.559892
vt 0.480824 1.552687
vt 0.489153 1.577177
vt 2.293112 0.128767
vt 2.312268 0.113620
vt 2.306400 0.133532
vt 0.325841 -0.351119
vt 0.380318 -0.368742
vt 0.371747 -0.338137
vt 0.338760 -0.380851
vt 0.279052 -0.371194
vt 0.428144 -0.357226
vt 0.418142 -0.337732
vt 0.433419 -0.296320
vt 0.397280 -0.264553
vt 2.220775 0.180310
vt 2.195936 0.167795
vt 2.215796 0.162391
vt 2.245756 0.177892
vt 2.246064 0.211179
vt 0.477640 1.007314
vt 0.463216 0.904738
vt 0.472230 0.838397
vt 0.522246 0.894904
vt 0.554750 1.000182
vt 0.573002 0.860243
vt 0.598532 0.814962
vt 0.585142 0.983683
vt 0.569617 0.046876
vt 0.495205 0.124272
vt 0.454829 -0.077772
vt 0.465948 -0.148121
vt 0.383376 -0.149444
vt 0.414698 -0.146076
vt 0.398807 -0.025515
vt 0.396922 0.365260
vt 0.328028 1.137213
vt 0.314673 0.980503
vt 0.349117 0.959150
vt 0.414072 1.045700
vt 0.377938 1.122626
vt 0.322337 0.102708
vt 0.363562 0.134347
vt 0.484105 1.134244
vt 0.463507 1.040981
vt 0.420759 0.923668
vt 0.487230 0.922993
vt 0.401526 1.005905
vt 0.350290 0.991654
vt 0.375636 0.902573
vt 0.547024 0.092038
vt 0.545971 0.390852
vt 0.507672 0.005199
vt 0.479550 0.205012
vt 0.472002 -0.006680
vt 0.430786 0.145363
vt 0.393180 0.180444
vt 0.463300 1.177300
vt 0.416853 1.236170
vt 0.414504 1.176303
vt 0.397961 1.143724
vt 0.496004 1.175865
vt 0.393141 -0.204521
vt 0.428819 -0.268067
vt 0.442892 -0.205384
vt 0.365225 -0.200980
vt 0.567580 1.037715
vt 0.539452 1.092793
vt 0.534789 1.040610
vt 0.523189 0.999765
vt 0.578923 1.026226
vt 0.389987 1.044119
vt 0.364341 1.091362
vt 0.358694 1.040894
vt 0.413829 1.043035
vt 0.479708 -0.048499
vt 0.528045 -0.100140
vt 0.517463 -0.045858
vt 0.453542 -0.047691
vt 0.372071 -0.264085
vt 0.321156 -0.276166
vt 0.353772 1.179794
vt 0.378420 1.192258
vt 0.370621 1.232645
vt 0.327177 1.248158
vt 0.628175 -0.215922
vt 0.603893 -0.210425
vt 0.593560 -0.270304
vt 0.631489 -0.289166
vt 0.539150 -0.271316
vt 0.478998 -0.222959
vt 0.482390 -0.264798
vt 0.409966 1.084585
vt 0.455750 1.087191
vt 0.508910 1.054407
vt 0.501775 1.084702
vt 0.474088 -0.092888
vt 0.428162 -0.097167
vt 0.366831 -0.065177
vt 0.385503 -0.097087
vt 0.475170 1.232945
vt 0.532059 1.238955
vt 0.598780 1.200378
vt 0.583212 1.240617
vt 2.240245 0.001924
vt 2.231596 0.017358
vt 2.212105 0.013855
vt 0.276917 1.597046
vt 0.266799 1.581708
vt 0.326112 1.589554
vt 0.335945 1.614796
vt 0.258701 1.567232
vt 2.243896 0.026470
vt 2.225563 0.031786
vt 2.215472 0.045349
vt 2.208322 0.031505
vt 0.438443 -0.359250
vt 0.396975 -0.402526
vt 0.304602 -0.447905
vt 0.292404 -0.516187
vt 0.352508 -0.400739
vt 0.370946 -0.517565
vt 0.366019 1.369520
vt 0.332255 1.333548
vt 0.368434 1.491394
vt 0.324488 1.464992
vt 0.625877 -0.364742
vt 0.603283 -0.410459
vt 0.518819 -0.407756
vt 0.553431 -0.514436
vt 0.569825 -0.370685
vt 0.599276 -0.524312
vt 0.490671 -0.367261
vt 0.442281 -0.485743
vt 0.364952 1.148096
vt 0.392853 1.181978
vt 0.446423 1.184010
vt 0.421382 1.266322
vt 0.369682 1.211255
vt 0.377671 1.261113
vt 0.485356 1.182682
vt 0.526325 1.150908
vt 0.541394 1.211592
vt 0.515791 1.259877
vt 0.468983 1.270853
vt 0.544914 -0.160385
vt 0.503897 -0.167808
vt 0.467767 -0.199899
vt 0.423921 -0.171822
vt 0.384888 -0.169355
vt 0.441734 -0.281076
vt 0.531388 1.330790
vt 0.489143 1.457445
vt 0.464672 1.327690
vt 0.421016 1.444349
vt 0.399114 1.350834
vt 0.591828 1.331178
vt 0.484626 0.774942
vt 0.527786 0.810245
vt 0.433675 0.779600
vt 0.399564 0.584620
vt 0.440914 0.536733
vt 0.478873 0.579412
vt 0.553958 0.767453
vt 0.548030 0.569727
vt 0.546741 0.203859
vt 0.610005 0.090302
vt 0.565363 0.514450
vt 0.519636 0.752244
vt 0.347643 0.404616
vt 0.382822 0.583262
vt 0.438193 0.574294
vt 0.322281 0.633316
vt 0.341351 0.232675
vt 0.380927 0.439190
vt 0.564301 0.632999
vt 0.538383 0.970463
vt 0.517735 0.580577
vt 0.331836 0.809125
vt 0.358286 0.578862
vt 0.367349 0.812131
vt 0.410999 0.821243
vt 0.563713 0.333513
vt 0.605954 0.395673
vt 0.599391 0.544957
vt 0.441136 0.265778
vt 0.424162 0.634084
vt 0.552734 0.878390
vt 0.399019 0.410964
vt 0.445058 0.353177
vt 0.492223 0.479989
vt 0.412183 0.181828
vt 0.476527 0.281282
vt 0.460982 0.131200
vt 0.512894 0.160105
vt 0.526200 0.305272
vt 0.598695 -0.385637
vt 0.570154 0.365768
vt 0.343374 0.492456
vt 0.390153 0.696444
vt 0.324508 0.363781
vt 0.395785 0.225323
vt 0.320216 -0.385075
vt 0.371490 -0.275720
vt 0.542162 0.391544
vt 0.582096 0.509721
vt 0.545341 0.173915
vt 0.578106 0.272072
vt 0.481758 0.914300
vt 0.351376 0.397545
vt 0.319393 0.501846
vt 0.308653 0.277732
vt 0.338505 0.170169
vt 0.268301 1.453065
vt 0.281262 0.653173
vt 0.465520 0.753981
vt 0.430030 0.945471
vt 0.387327 -0.558412
vt 0.442652 -0.388990
vt 0.300789 1.308189
vt 0.379417 0.943635
vt 0.342632 1.327268
vt 0.415678 0.017373
vt 0.374958 -0.178437
vt 0.416472 -0.181887
vt 0.509011 0.022236
vt 0.535041 -0.191196
vt 0.558236 0.066859
vt 0.478408 -0.199773
vt 0.568195 -0.190969
vt 0.585500 1.229532
vt 0.594103 1.377965
vt 0.548330 1.380508
vt 0.527398 1.244099
vt 0.305309 1.620761
vt 0.365311 1.005763
vt 0.396197 1.488638
vt 0.354961 1.661367
vt 0.517192 -0.288899
vt 0.538012 -0.571201
vt 0.616701 -0.593531
vt 0.289266 -0.182442
vt 0.333592 -0.181041
vt 0.346401 0.017986
vt 0.547336 1.081252
vt 0.533962 1.571071
vt 0.445623 1.643626
vt 0.468625 1.464009
vt 0.428085 1.295899
vt 0.484131 1.231964
vt 0.510193 0.834407
vt 0.495859 1.367549
vt 2.302081 0.106242
vt 2.325259 0.090983
vt 2.283548 0.119685
vt 0.439368 -0.230991
vt 0.391249 -0.221812
vt 0.464913 -0.272412
vt 0.517237 -0.282186
vt 0.509172 -0.260574
vt 0.534078 -0.237434
vt 0.239503 -0.324597
vt 0.210403 -0.310534
vt 0.221760 -0.330840
vt 0.261403 -0.267044
vt 0.240989 -0.205970
vt 0.289979 -0.306312
vt 0.347043 -0.264402
vt 0.337372 -0.248285
vt 2.250244 0.129891
vt 2.268468 0.144672
vt 2.234716 0.131563
vt 2.232470 0.139716
vt 2.236675 0.148980
vt 2.219586 0.141494
vt 2.283421 0.144631
vt 0.406419 1.382964
vt 0.401042 1.398350
vt 0.376955 1.389130
vt 0.439403 1.368435
vt 0.433899 1.388717
vt 0.566395 1.497230
vt 0.604894 1.494973
vt 0.617706 1.558044
vt 0.587743 1.441454
vt 0.577334 1.556041
vt 0.531849 1.555025
vt 0.436517 -0.542474
vt 0.494588 -0.523022
vt 0.407108 -0.607632
vt 0.449269 -0.611401
vt 0.443844 1.490780
vt 0.402510 1.541847
vt 0.327028 1.538773
vt 0.370916 -0.368605
vt 0.412550 -0.370152
vt 0.407635 -0.279414
vt 0.471969 -0.371010
vt 0.566962 -0.296812
vt 0.531893 -0.258388
vt 0.498665 -0.290761
vt 0.530662 -0.358441
vt 0.558258 1.343328
vt 0.508125 1.345191
vt 0.464695 1.354223
vt 0.413175 1.345577
vt 0.516060 -0.627508
vt 0.593444 -0.631821
vt 0.648793 -0.628092
vt 2.227619 0.242624
vt 2.204493 0.222811
vt 2.233273 0.224215
vt 2.255314 0.221558
vt 2.260339 0.229094
vt 0.416717 -0.628305
vt 0.482955 -0.645735
vt 0.384621 -0.655477
vt 2.281614 0.011956
vt 2.282266 0.024589
vt 2.261894 0.014676
vt 2.325186 0.032862
vt 2.275278 0.033508
vt 2.306930 0.048725
vt 2.339737 0.039015
vt 2.321852 0.049633
vt 2.267831 -0.004146
vt 2.307269 -0.013564
vt 2.324562 -0.013523
vt 2.305979 0.003276
vt 2.291245 -0.003170
vt 2.339583 -0.013385
vt 2.349097 0.000171
vt 2.226861 -0.005885
vt 2.258708 -0.014714
vt 0.401291 1.609077
vt 0.494374 1.598510
vt 0.561549 1.588215
vt 2.286758 0.098486
vt 2.231914 0.088690
vt 2.214952 0.103652
vt 2.269114 0.069317
vt 2.293238 0.064158
vt 0.498224 -0.364491
vt 0.492372 -0.329094
vt 2.346658 0.062010
vt 0.541773 -0.369593
vt 0.512863 -0.381103
vt 0.566641 -0.356155
vt 0.481931 -0.391649
vt 0.588193 -0.334656
vt 0.600590 -0.292797
vt 0.275311 -0.625449
vt 0.259702 -0.608586
vt 0.598116 -0.215074
vt 2.198493 0.257279
vt 0.343237 0.001096
vt 0.565174 -0.040361
vt 2.304765 0.055984
vt 2.237336 0.056976
vt 0.508618 -0.381045
vt 2.328135 0.113857
vt 2.316948 0.136055
vt 2.331920 0.135041
vt 2.337057 0.122665
vt 2.312706 0.147225
vt 2.289850 0.084570
vt 2.250684 0.076694
vt 2.245677 0.154259
vt 0.422429 0.904315
vt 0.349284 0.013410
vt 0.311333 0.191523
vt 0.340657 0.895148
vt 0.579250 0.122033
vt 2.202057 0.008110
vt 2.208722 -0.001752
vt 0.337978 1.049735
vt 0.329569 1.036496
vt 0.549047 -0.056259
vt 0.365809 -0.113721
vt 0.608449 1.262848
vt 0.270954 1.610673
vt 0.295429 1.622767
vt 0.268982 1.627070
vt 0.290560 1.552986
vt 0.318673 -0.364752
vt 0.417428 1.155738
vt 0.548521 1.259167
vt 0.563776 -0.251654
vt 0.536952 1.443751
vt 0.305460 0.372499
vt 0.449182 0.366924
vt 0.482053 0.680051
vt 0.508897 0.389644
vt 0.622207 1.213770
vt 0.468368 0.213790
vt 0.342154 0.742904
vt 0.325142 0.938481
vt 0.424887 0.969092
vt 0.586352 0.090934
vt 0.552857 0.831025
vt 0.374433 0.173930
vt 0.294091 0.092889
vt 0.239462 1.287531
vt 0.338137 -0.589775
vt 0.460157 -0.599928
vt 0.456098 0.015956
vt 0.622249 1.377254
vt 0.252512 1.661871
vt 0.619265 1.529271
vt 0.411329 -0.248955
vt 0.241205 -0.358152
vt 0.209320 -0.278009
vt 0.182063 -0.312354
vt 0.321116 -0.226250
vt 2.269877 0.152128
vt 2.290611 0.152121
vt 2.253506 0.151984
vt 0.367894 1.375518
vt 0.358526 1.343063
vt 0.389469 -0.284270
vt 0.322681 -0.539086
vt 2.257096 0.248055
vt 2.242670 0.251298
vt 2.214307 0.246403
vt 0.576228 1.574106
vt 2.288485 -0.016406
vt 2.359302 -0.000937
vt 0.439714 1.613004
vt 0.522247 1.613228
vt 0.564994 1.604364
s 1
usemtl 2
f 73/1/1 37/2/2 3/3/3
f 37/2/2 64/4/4 3/3/3
f 8/5/5 32/6/6 33/7/7
f 33/8/7 7/9/8 9/10/9
f 7/9/8 112/11/10 9/10/9
f 94/12/11 2/13/12 49/14/13
f 11/15/14 102/16/15 14/17/16
f 57/18/17 126/19/18 56/20/19
f 39/21/20 5/22/21 118/23/22
f 63/24/23 57/18/17 41/25/24
f 45/26/25 105/27/26 66/28/27
f 20/29/28 1/30/29 19/31/30
f 15/32/31 72/33/32 73/1/1
f 73/1/1 3/3/3 15/32/31
f 108/34/33 31/35/34 24/36/35
f 28/37/36 94/12/11 54/38/37
f 58/39/38 90/40/39 29/41/40
f 30/42/41 6/43/42 29/41/40
f 98/44/43 6/43/42 31/45/34
f 6/43/42 30/42/41 31/45/34
f 7/46/8 32/6/6 13/47/44
f 27/48/45 111/49/46 101/50/47
f 27/48/45 26/51/48 34/52/49
f 34/52/49 111/49/46 27/48/45
f 99/53/50 113/54/51 35/55/52
f 21/56/53 101/50/47 36/57/54
f 31/45/34 30/42/41 38/58/55
f 5/22/21 39/21/20 48/59/56
f 57/18/17 94/12/11 41/25/24
f 42/60/57 115/61/58 53/62/59
f 12/63/60 105/27/26 45/26/25
f 18/64/61 43/65/62 48/59/56
f 50/66/63 17/67/64 13/47/44
f 47/68/65 107/69/66 99/53/50
f 99/53/50 35/55/52 47/68/65
f 47/68/65 35/55/52 51/70/67
f 8/71/5 119/72/68 14/17/16
f 94/12/11 56/20/19 54/38/37
f 11/73/14 74/74/69 72/75/32
f 72/75/32 15/76/31 11/73/14
f 16/77/70 98/78/43 118/23/22
f 118/23/22 98/78/43 60/79/71
f 61/80/72 41/25/24 40/81/73
f 62/82/74 63/24/23 61/80/72
f 96/83/75 64/84/4 44/85/76
f 64/84/4 17/86/64 44/85/76
f 17/86/64 64/84/4 65/87/77
f 65/88/77 10/89/78 66/28/27
f 36/57/54 33/7/7 9/90/9
f 10/91/78 37/92/2 70/93/79
f 71/94/80 115/61/58 74/95/69
f 35/55/52 113/54/51 112/11/10
f 45/26/25 46/96/81 12/63/60
f 52/97/82 115/61/58 71/94/80
f 71/94/80 119/98/68 52/97/82
f 67/99/83 68/100/84 66/101/27
f 75/102/85 128/103/86 78/104/87
f 80/105/88 129/106/89 82/107/90
f 82/107/90 81/108/91 80/105/88
f 83/109/92 81/108/91 82/107/90
f 83/109/92 120/110/93 84/111/94
f 84/111/94 81/108/91 83/109/92
f 76/112/95 79/113/96 80/105/88
f 43/65/62 18/64/61 85/114/97
f 85/114/97 129/115/89 43/65/62
f 87/116/98 127/117/99 114/118/100
f 110/119/101 91/120/102 2/13/12 28/37/36
f 2/13/12 94/12/11 28/37/36
f 86/121/103 4/122/104 91/123/102 110/124/101
f 64/4/4 96/125/75 3/3/3
f 55/126/105 6/43/42 98/44/43 116/127/106
f 74/128/69 11/15/14 14/17/16 71/129/80
f 49/14/13 41/25/24 94/12/11
f 11/130/14 92/131/107 102/132/15
f 43/65/62 129/115/89 122/133/108
f 51/70/67 112/11/10 93/134/109
f 125/135/110 78/136/87 16/77/70 5/22/21
f 96/137/75 92/138/107 15/76/31
f 116/139/106 16/77/70 78/136/87 128/140/86
f 88/141/111 20/29/28 19/31/30 97/142/112
f 17/86/64 65/87/77 105/143/26
f 66/28/27 105/27/26 65/88/77
f 18/64/61 48/59/56 1/30/29
f 19/31/30 1/30/29 48/59/56
f 89/144/113 1/30/29 20/29/28 26/145/48
f 20/29/28 88/141/111 26/145/48
f 91/120/102 101/146/47 21/147/53 2/13/12
f 21/147/53 99/53/50 22/148/114
f 21/147/53 22/148/114 2/13/12
f 103/149/115 95/150/116 23/151/117 42/60/57
f 15/32/31 3/3/3 96/125/75
f 42/60/57 23/151/117 109/152/118 117/153/119
f 95/150/116 108/34/33 24/36/35 23/151/117
f 38/154/55 69/155/120 24/36/35 31/35/34
f 23/151/117 24/36/35 69/155/120 109/152/118
f 89/156/113 25/157/121 87/116/98 114/118/100
f 25/157/121 26/51/48 27/48/45 4/122/104
f 4/122/104 27/48/45 101/50/47 91/123/102
f 25/157/121 89/156/113 26/51/48
f 124/158/122 84/159/94 28/37/36 54/38/37
f 110/119/101 28/37/36 84/159/94 120/160/93
f 100/161/123 30/42/41 29/41/40 90/40/39
f 94/12/11 57/18/17 56/20/19
f 56/20/19 126/19/18 123/162/124
f 5/22/21 43/65/62 125/135/110
f 99/163/50 21/56/53 36/57/54 113/164/51
f 14/165/16 102/166/15 32/6/6
f 7/46/8 13/47/44 93/167/109
f 33/7/7 32/6/6 7/46/8
f 7/9/8 93/134/109 112/11/10
f 65/87/77 64/84/4 37/92/2 10/91/78
f 36/57/54 101/50/47 111/49/46
f 103/149/115 106/168/125 48/59/56 39/21/20
f 30/42/41 100/161/123 70/93/79
f 70/93/79 38/58/55 30/42/41
f 48/59/56 43/65/62 5/22/21
f 104/169/126 40/81/73 49/14/13 107/69/66
f 106/168/125 42/60/57 53/62/59 97/142/112
f 40/81/73 41/25/24 49/14/13
f 83/170/92 18/64/61 114/171/100 127/172/99
f 129/115/89 85/114/97 18/64/61 83/170/92
f 107/69/66 47/68/65 46/96/81 104/169/126
f 122/133/108 125/135/110 43/65/62
f 44/85/76 92/173/107 96/83/75
f 97/142/112 19/31/30 48/59/56 106/168/125
f 49/14/13 22/148/114 99/53/50 107/69/66
f 44/174/76 50/66/63 102/166/15 92/175/107
f 49/14/13 2/13/12 22/148/114
f 50/66/63 13/47/44 32/6/6
f 50/66/63 32/6/6 102/166/15
f 105/176/26 93/167/109 13/47/44 17/67/64
f 50/66/63 44/174/76 17/67/64
f 12/63/60 51/70/67 93/134/109 105/27/26
f 88/141/111 52/97/82 34/177/49 26/145/48
f 14/17/16 119/72/68 71/129/80
f 14/17/16 32/178/6 8/71/5
f 97/142/112 53/62/59 52/97/82 88/141/111
f 123/162/124 124/158/122 54/38/37 56/20/19
f 53/62/59 115/61/58 52/97/82
f 121/179/127 58/39/38 55/126/105 128/180/86
f 55/126/105 116/127/106 128/180/86
f 11/73/14 15/76/31 92/138/107
f 106/168/125 103/149/115 42/60/57
f 117/153/119 115/61/58 42/60/57
f 75/181/85 59/182/128 58/183/38 121/184/127
f 126/19/18 57/18/17 59/182/128 75/181/85
f 31/35/34 108/34/33 60/79/71 98/78/43
f 16/77/70 118/23/22 5/22/21
f 16/77/70 116/139/106 98/78/43
f 39/21/20 60/79/71 95/150/116 103/149/115
f 108/34/33 95/150/116 60/79/71
f 90/185/39 63/24/23 62/82/74 100/186/123
f 39/21/20 118/23/22 60/79/71
f 61/80/72 63/24/23 41/25/24
f 40/81/73 104/169/126 61/80/72
f 58/183/38 59/182/128 63/24/23 90/185/39
f 62/187/74 67/99/83 70/93/79 100/161/123
f 63/24/23 59/182/128 57/18/17
f 61/188/72 68/100/84 67/99/83 62/187/74
f 104/169/126 46/96/81 68/189/84 61/80/72
f 37/190/2 73/191/1 69/155/120 38/154/55
f 69/155/120 73/191/1 109/152/118
f 34/52/49 8/5/5 33/7/7 111/49/46
f 113/164/51 36/57/54 9/90/9 112/192/10
f 36/57/54 111/49/46 33/7/7
f 46/96/81 45/26/25 66/28/27 68/189/84
f 70/93/79 37/92/2 38/58/55
f 12/63/60 46/96/81 47/68/65
f 51/70/67 35/55/52 112/11/10
f 117/153/119 109/152/118 73/191/1 72/193/32
f 8/194/5 34/177/49 52/97/82 119/98/68
f 51/70/67 12/63/60 47/68/65
f 115/61/58 117/153/119 72/193/32 74/95/69
f 10/91/78 70/93/79 67/99/83 66/101/27
f 77/195/129 75/102/85 78/104/87 79/113/96
f 77/195/129 126/196/18 75/102/85
f 75/102/85 121/197/127 128/103/86
f 76/112/95 81/108/91 123/198/124
f 78/104/87 125/199/110 79/113/96
f 125/199/110 122/200/108 80/105/88 79/113/96
f 80/105/88 122/200/108 129/106/89
f 80/105/88 81/108/91 76/112/95
f 124/201/122 123/198/124 81/108/91
f 127/202/99 120/110/93 83/109/92
f 82/107/90 129/106/89 83/109/92
f 84/111/94 124/201/122 81/108/91
f 126/196/18 77/195/129 76/112/95 123/198/124
f 120/203/93 127/117/99 87/116/98 86/121/103
f 77/195/129 79/113/96 76/112/95
f 86/121/103 110/124/101 120/203/93
f 114/171/100 18/64/61 1/30/29 89/144/113
usemtl 1
f 132/204/130 180/205/131 130/206/132
f 130/206/132 133/207/133 135/208/134
f 134/209/135 136/210/136 135/208/134
f 386/211/137 448/212/138 136/210/136
f 139/213/139 503/214/140 140/215/141
f 137/216/142 181/217/143 138/218/144
f 138/218/144 450/219/145 141/220/146
f 145/221/147 147/222/148 142/223/149
f 145/221/147 144/224/150 146/225/151
f 146/225/151 372/226/152 145/221/147
f 148/227/153 196/228/154 195/229/155
f 149/230/156 220/231/157 188/232/158
f 150/233/159 228/234/160 151/235/161
f 152/236/162 202/237/163 206/238/164
f 196/239/154 148/240/153 153/241/165
f 220/231/157 234/242/166 155/243/167
f 159/244/168 238/245/169 157/246/170
f 228/234/160 150/233/159 160/247/171
f 202/248/163 245/249/172 162/250/173
f 164/251/174 423/252/175 421/253/176
f 165/254/177 424/255/178 164/251/174
f 249/256/179 165/254/177 164/251/174
f 256/257/180 255/258/181 166/259/182
f 456/260/183 256/257/180 166/259/182
f 167/261/184 432/262/185 166/259/182
f 255/258/181 167/261/184 166/259/182
f 168/263/186 506/264/187 413/265/188
f 169/266/189 439/267/190 168/263/186
f 429/268/191 169/266/189 168/263/186
f 447/269/192 505/270/193 170/271/194
f 171/272/195 446/273/196 170/271/194
f 436/274/197 171/272/195 170/271/194
f 172/275/198 252/276/199 173/277/200
f 400/278/201 444/279/202 173/277/200
f 176/280/203 362/281/204 174/282/205
f 178/283/206 509/284/207 177/285/208
f 466/286/209 509/284/207 178/283/206
f 178/283/206 465/287/210 466/286/209
f 509/284/207 183/288/211 179/289/212
f 504/290/213 368/291/214 177/285/208
f 180/205/131 181/217/143 137/216/142
f 180/205/131 132/204/130 181/217/143
f 183/292/211 509/293/207 364/294/215
f 143/295/216 184/296/217 183/292/211
f 186/297/218 159/244/168 185/298/219
f 475/299/220 187/300/221 185/298/219
f 219/301/222 187/300/221 479/302/223
f 479/302/223 481/303/224 220/304/157
f 188/232/158 220/231/157 189/305/225
f 482/306/226 192/307/227 190/308/228
f 215/309/229 214/310/230 191/311/231
f 214/310/230 192/307/227 191/311/231
f 192/307/227 482/306/226 292/312/232
f 196/313/154 467/314/233 193/315/234
f 193/315/234 194/316/235 195/317/155
f 198/318/236 151/235/161 197/319/237
f 151/235/161 228/234/160 197/319/237
f 202/248/163 211/320/238 199/321/239
f 468/322/240 200/323/241 199/321/239
f 224/324/242 223/325/243 203/326/244
f 204/327/245 304/328/246 205/329/247
f 205/329/247 485/330/248 227/331/249
f 207/332/250 470/333/251 228/234/160
f 243/334/252 244/335/253 208/336/254
f 210/337/255 243/334/252 208/336/254
f 211/320/238 202/248/163 163/338/256
f 163/338/256 243/334/252 211/320/238
f 229/339/257 230/340/258 212/341/259
f 190/308/228 229/339/257 212/341/259
f 215/309/229 196/239/154 154/342/260
f 154/342/260 229/339/257 215/309/229
f 232/343/261 233/344/262 216/345/263
f 218/346/264 232/343/261 216/345/263
f 219/301/222 220/304/157 156/347/265
f 156/347/265 232/343/261 219/301/222
f 236/348/266 237/349/267 221/350/268
f 223/325/243 236/348/266 221/350/268
f 224/324/242 159/244/168 158/351/269
f 158/351/269 236/348/266 224/324/242
f 240/352/270 241/353/271 225/354/272
f 205/329/247 240/352/270 225/354/272
f 227/331/249 228/234/160 161/355/273
f 161/355/273 240/352/270 227/331/249
f 229/339/257 154/342/260 451/356/274
f 451/356/274 230/340/258 229/339/257
f 153/241/165 148/240/153 231/357/275
f 231/357/275 154/342/260 153/241/165
f 148/358/153 209/359/276 458/360/277
f 458/360/277 231/361/275 148/358/153
f 232/362/261 156/363/265 452/364/278
f 452/364/278 233/365/262 232/362/261
f 155/243/167 234/242/166 235/366/279
f 235/366/279 156/363/265 155/243/167
f 234/242/166 213/367/280 459/368/281
f 459/368/281 235/366/279 234/242/166
f 236/348/266 158/351/269 453/369/282
f 453/369/282 237/349/267 236/348/266
f 157/246/170 238/245/169 239/370/283
f 239/370/283 158/351/269 157/246/170
f 238/245/169 217/371/284 460/372/285
f 460/372/285 239/370/283 238/245/169
f 240/352/270 161/355/273 454/373/286
f 454/373/286 241/353/271 240/352/270
f 160/247/171 150/233/159 242/374/287
f 242/374/287 161/355/273 160/247/171
f 150/233/159 222/375/288 461/376/289
f 461/376/289 242/374/287 150/233/159
f 243/334/252 163/338/256 455/377/290
f 455/377/290 244/335/253 243/334/252
f 162/250/173 245/249/172 246/378/291
f 246/378/291 163/338/256 162/250/173
f 245/249/172 226/379/292 462/380/293
f 462/380/293 246/378/291 245/249/172
f 463/381/294 508/382/295 247/383/296
f 249/384/179 250/385/297 251/386/298
f 249/384/179 251/386/298 248/387/299
f 250/385/297 471/388/300 252/276/199
f 172/275/198 251/386/298 252/276/199
f 253/389/301 254/390/302 508/382/295
f 255/258/181 256/257/180 424/391/178
f 255/258/181 257/392/303 254/390/302
f 424/391/178 257/392/303 255/258/181
f 266/393/304 230/340/258 259/394/305
f 262/395/306 492/396/307 258/397/308
f 258/397/308 493/398/309 259/394/305
f 458/360/277 261/399/310 260/400/311
f 261/399/310 402/401/312 262/402/306
f 271/403/313 233/365/262 264/404/314
f 473/405/315 417/406/316 263/407/317
f 417/406/316 416/408/318 264/404/314
f 473/405/315 235/366/279 265/409/319
f 459/368/281 266/393/304 265/409/319
f 266/393/304 259/394/305 477/410/320
f 276/411/321 237/349/267 268/412/322
f 269/413/323 491/414/324 268/412/322
f 268/412/322 277/415/325 276/411/321
f 268/412/322 414/416/326 277/415/325
f 269/413/323 239/370/283 270/417/327
f 460/372/285 271/418/313 270/417/327
f 271/418/313 264/419/314 410/420/328
f 412/421/329 269/413/323 270/417/327
f 282/422/330 241/353/271 272/423/331
f 274/424/332 242/374/287 275/425/333
f 461/376/289 276/426/321 275/425/333
f 406/427/334 274/424/332 275/425/333
f 281/428/335 280/429/336 278/430/337
f 278/430/337 279/431/338 474/432/339
f 279/431/338 402/401/312 474/432/339
f 462/380/293 282/433/330 281/428/335
f 285/434/340 480/435/341 475/299/220
f 475/299/220 286/436/342 285/434/340
f 286/436/342 302/437/343 312/438/344
f 287/439/345 480/435/341 285/434/340
f 288/440/346 480/435/341 289/441/347
f 290/442/348 482/306/226 189/305/225
f 189/305/225 481/443/224 290/442/348
f 290/442/348 324/444/349 327/445/350
f 191/311/231 292/312/232 291/446/351
f 293/447/352 468/322/240 193/315/234
f 293/447/352 316/448/353 468/322/240
f 193/315/234 294/449/354 293/447/352
f 295/450/355 197/319/237 470/333/251
f 470/333/251 296/451/356 295/450/355
f 484/452/357 201/453/358 298/454/359
f 200/323/241 468/322/240 316/448/353
f 476/455/360 300/456/361 299/457/362
f 301/458/363 302/437/343 286/436/342
f 304/328/246 204/327/245 303/459/364
f 484/460/357 307/461/365 303/459/364
f 470/333/251 207/332/250 305/462/366
f 305/462/366 490/463/367 470/333/251
f 304/328/246 307/461/365 308/464/368
f 312/438/344 331/465/369 309/466/370
f 287/439/345 312/438/344 310/467/371
f 309/466/370 313/468/372 311/469/373
f 311/469/373 313/468/372 478/470/374
f 478/470/374 325/471/375 311/469/373
f 314/472/376 497/473/377 307/474/365
f 319/475/378 296/451/356 317/476/379
f 293/447/352 489/477/380 320/478/381
f 489/477/380 350/479/382 336/480/383
f 321/481/384 324/482/349 289/441/347
f 289/441/347 310/467/371 321/481/384
f 322/483/385 323/484/386 321/481/384
f 290/442/348 327/445/350 326/485/387
f 329/486/388 319/487/378 318/488/389
f 318/488/389 330/489/390 329/486/388
f 350/490/382 489/491/380 291/446/351
f 334/492/391 361/493/392 490/463/367
f 336/480/383 350/479/382 337/494/393
f 337/494/393 496/495/394 336/480/383
f 338/496/395 339/497/396 340/498/397
f 344/499/398 498/500/399 345/501/400
f 494/502/401 346/503/402 348/504/403
f 495/505/404 346/503/402 494/502/401
f 346/503/402 347/506/405 348/504/403
f 349/507/406 386/508/137 464/509/407
f 464/509/407 500/510/408 349/507/406
f 449/511/409 350/490/382 333/512/410
f 333/512/410 499/513/411 449/511/409
f 499/513/411 450/514/145 449/511/409
f 497/473/377 314/472/376 351/515/412
f 496/495/394 352/516/413 351/515/412
f 352/516/413 448/517/138 497/473/377
f 353/518/414 354/519/415 355/520/416
f 326/485/387 359/521/417 356/522/418
f 488/523/419 499/513/411 358/524/420
f 361/493/392 334/492/391 501/525/421
f 360/526/422 335/527/423 500/510/408
f 500/510/408 502/528/424 360/526/422
f 501/525/421 340/498/397 361/493/392
f 363/529/425 457/530/426 362/281/204
f 362/281/204 365/531/427 363/529/425
f 367/532/428 495/505/404 345/501/400
f 345/501/400 369/533/429 367/532/428
f 370/534/430 374/535/431 371/536/432
f 504/290/213 374/535/431 370/534/430
f 373/537/433 347/506/405 346/503/402
f 372/226/152 146/225/151 373/537/433
f 372/226/152 373/537/433 371/536/432
f 376/538/434 377/539/435 375/540/436
f 379/541/437 341/542/438 377/539/435
f 378/543/439 382/544/440 380/545/441
f 378/543/439 178/283/206 382/544/440
f 378/543/439 379/541/437 376/538/434
f 385/546/442 387/547/443 383/548/444
f 384/549/445 502/550/424 464/551/407
f 464/551/407 386/211/137 384/549/445
f 387/547/443 385/546/442 388/552/446
f 390/553/447 392/554/448 375/555/436
f 390/553/447 391/556/449 389/557/450
f 393/558/451 408/559/452 505/560/193
f 284/561/453 408/559/452 393/558/451
f 505/560/193 394/562/454 393/558/451
f 394/562/454 395/563/455 393/558/451
f 396/564/456 399/565/457 477/410/320
f 477/410/320 493/398/309 396/564/456
f 396/564/456 397/566/458 398/567/459
f 402/401/312 279/431/338 403/568/460
f 400/278/201 401/569/461 403/568/460
f 401/569/461 420/570/462 402/401/312
f 506/571/187 404/572/463 277/573/325
f 404/572/463 405/574/464 406/427/334
f 408/575/452 273/576/465 409/577/466
f 407/578/467 409/577/466 405/574/464
f 410/420/328 507/579/468 411/580/469
f 472/581/470 413/582/188 411/580/469
f 415/583/471 456/584/183 417/406/316
f 417/406/316 456/584/183 416/408/318
f 456/584/183 507/585/468 416/408/318
f 418/586/472 420/587/462 419/588/473
f 471/589/300 421/590/176 419/588/473
f 425/591/474 415/583/471 398/567/459
f 256/592/180 415/583/471 425/591/474
f 165/254/177 257/593/303 424/255/178
f 427/594/475 428/595/476 426/596/477
f 429/268/191 430/597/478 432/262/185
f 429/268/191 431/598/479 428/595/476
f 432/262/185 431/598/479 429/268/191
f 433/599/480 472/600/470 411/601/469
f 430/597/478 472/600/470 433/599/480
f 167/261/184 431/598/479 432/262/185
f 426/596/477 463/381/294 434/602/481
f 436/603/197 437/604/482 439/267/190
f 436/603/197 438/605/483 435/606/484
f 439/267/190 438/605/483 436/603/197
f 437/604/482 405/607/464 440/608/485
f 169/266/189 438/605/483 439/267/190
f 441/609/486 442/610/487 463/381/294
f 442/610/487 434/602/481 463/381/294
f 443/611/488 172/275/198 445/612/489
f 445/612/489 444/279/202 446/613/196
f 132/204/130 130/206/132 135/208/134 136/210/136
f 133/207/133 131/614/490 363/529/425 365/531/427
f 136/210/136 486/615/491 132/204/130
f 130/206/132 180/205/131 131/614/490
f 131/614/490 457/530/426 363/529/425
f 130/206/132 131/614/490 133/207/133
f 383/548/444 134/209/135 135/208/134 385/546/442
f 136/210/136 352/616/413 486/615/491
f 385/546/442 135/208/134 133/207/133 365/531/427
f 386/211/137 136/210/136 134/209/135 383/548/444
f 136/210/136 448/212/138 352/616/413
f 487/617/492 449/618/409 138/218/144 181/217/143
f 139/213/139 140/215/141 137/216/142
f 503/214/140 457/530/426 140/215/141
f 138/218/144 449/618/409 450/219/145
f 141/220/146 139/213/139 137/216/142 138/218/144
f 143/619/216 142/223/149 147/222/148 184/620/217
f 141/220/146 450/219/145 488/621/419
f 139/622/139 142/223/149 143/619/216 503/623/140
f 141/624/146 144/224/150 142/223/149 139/622/139
f 143/619/216 457/625/426 503/623/140
f 374/535/431 147/222/148 145/221/147 372/226/152
f 141/624/146 488/626/419 144/224/150
f 488/626/419 356/627/418 146/225/151 144/224/150
f 147/222/148 374/535/431 184/620/217
f 250/628/297 164/251/174 421/253/176 471/629/300
f 145/221/147 142/223/149 144/224/150
f 356/627/418 357/630/493 146/225/151
f 148/227/153 195/229/155 210/631/255
f 149/230/156 234/242/166 220/231/157
f 149/230/156 188/232/158 190/308/228
f 190/308/228 234/242/166 149/230/156
f 186/297/218 238/245/169 159/244/168
f 218/346/264 238/245/169 186/297/218
f 150/233/159 151/235/161 223/632/243
f 152/236/162 245/633/172 202/237/163
f 152/236/162 206/238/164 205/329/247
f 205/329/247 245/633/172 152/236/162
f 153/241/165 154/342/260 196/239/154
f 155/243/167 156/363/265 220/231/157
f 157/246/170 158/351/269 159/244/168
f 160/247/171 161/355/273 228/234/160
f 162/250/173 163/338/256 202/248/163
f 164/251/174 424/255/178 425/591/474
f 164/251/174 425/591/474 423/252/175
f 164/251/174 250/628/297 249/256/179
f 507/634/468 456/260/183 166/259/182 433/599/480
f 166/259/182 432/262/185 433/599/480
f 430/597/478 168/263/186 413/265/188 472/600/470
f 456/260/183 415/635/471 256/257/180
f 168/263/186 439/267/190 440/608/485
f 168/263/186 440/608/485 506/264/187
f 168/263/186 430/597/478 429/268/191
f 437/636/482 170/271/194 407/578/467 405/574/464
f 170/271/194 505/270/193 407/578/467
f 170/271/194 446/273/196 447/269/192
f 170/271/194 437/636/482 436/274/197
f 420/570/462 401/569/461 173/277/200 252/276/199
f 364/637/215 175/638/494 174/282/205 362/281/204
f 173/277/200 444/279/202 172/275/198
f 401/569/461 400/278/201 173/277/200
f 466/639/209 175/638/494 364/637/215 509/640/207
f 184/620/217 504/290/213 179/289/212 183/288/211
f 466/639/209 465/641/210 175/638/494
f 177/285/208 368/291/214 178/283/206
f 177/285/208 509/284/207 179/289/212
f 182/642/495 180/205/131 137/216/142 140/215/141
f 179/289/212 504/290/213 177/285/208
f 337/643/393 487/617/492 181/217/143
f 182/642/495 131/614/490 180/205/131
f 131/614/490 182/642/495 140/215/141 457/530/426
f 486/615/491 337/643/393 181/217/143 132/204/130
f 143/295/216 183/292/211 364/294/215 457/644/426
f 301/458/363 475/299/220 185/298/219 469/645/496
f 185/298/219 187/300/221 186/297/218
f 187/300/221 218/346/264 186/297/218
f 185/298/219 159/244/168 469/645/496
f 190/308/228 188/232/158 189/305/225 482/306/226
f 475/299/220 480/435/341 187/300/221
f 479/302/223 220/304/157 219/301/222
f 219/301/222 218/346/264 187/300/221
f 187/300/221 480/435/341 479/302/223
f 189/305/225 220/231/157 481/443/224
f 215/309/229 191/311/231 467/646/233 196/239/154
f 194/316/235 199/321/239 211/320/238 210/337/255
f 214/310/230 190/308/228 192/307/227
f 191/311/231 192/307/227 292/312/232
f 194/316/235 210/337/255 195/317/155
f 195/317/155 196/313/154 193/315/234
f 193/315/234 468/322/240 194/316/235
f 198/318/236 223/632/243 151/235/161
f 197/319/237 228/234/160 470/333/251
f 197/319/237 476/647/360 198/318/236
f 201/453/358 202/248/163 199/321/239
f 299/457/362 203/326/244 198/648/236 476/455/360
f 194/316/235 468/322/240 199/321/239
f 199/321/239 200/323/241 201/453/358
f 469/645/496 224/324/242 203/326/244
f 469/645/496 159/244/168 224/324/242
f 203/326/244 223/325/243 198/648/236
f 301/458/363 469/645/496 203/326/244 299/457/362
f 201/649/358 204/327/245 206/238/164 202/237/163
f 205/329/247 206/238/164 204/327/245
f 190/308/228 214/310/230 215/309/229 229/339/257
f 205/329/247 304/328/246 485/330/248
f 207/332/250 228/234/160 227/331/249
f 227/331/249 485/330/248 207/332/250
f 209/359/276 148/358/153 208/336/254
f 208/336/254 244/335/253 209/359/276
f 208/336/254 148/358/153 210/337/255
f 211/320/238 243/334/252 210/337/255
f 213/367/280 234/242/166 212/341/259
f 212/341/259 230/340/258 213/367/280
f 212/341/259 234/242/166 190/308/228
f 441/609/486 247/383/296 248/650/299 443/651/488
f 217/371/284 238/245/169 216/345/263
f 216/345/263 233/344/262 217/371/284
f 216/345/263 238/245/169 218/346/264
f 219/301/222 232/343/261 218/346/264
f 222/652/288 150/653/159 221/350/268
f 221/350/268 237/349/267 222/652/288
f 221/350/268 150/653/159 223/325/243
f 224/324/242 236/348/266 223/325/243
f 226/654/292 245/633/172 225/354/272
f 225/354/272 241/353/271 226/654/292
f 225/354/272 245/633/172 205/329/247
f 227/331/249 240/352/270 205/329/247
f 451/356/274 154/342/260 231/357/275
f 458/360/277 209/359/276 244/335/253
f 452/364/278 156/363/265 235/366/279
f 459/368/281 213/367/280 230/340/258
f 453/369/282 158/351/269 239/370/283
f 460/372/285 217/371/284 233/344/262
f 454/373/286 161/355/273 242/374/287
f 461/376/289 222/375/288 237/655/267
f 455/377/290 163/338/256 246/378/291
f 462/380/293 226/379/292 241/656/271
f 247/383/296 508/382/295 254/390/302 257/392/303
f 247/383/296 441/609/486 463/381/294
f 249/384/179 248/387/299 165/657/177
f 248/387/299 247/658/296 165/657/177
f 247/658/296 257/659/303 165/657/177
f 251/386/298 443/611/488 248/387/299
f 252/276/199 471/388/300 419/660/473
f 251/386/298 250/385/297 252/276/199
f 252/276/199 419/660/473 420/570/462
f 172/275/198 443/611/488 251/386/298
f 451/356/274 258/397/308 259/394/305 230/340/258
f 253/389/301 508/382/295 426/596/477
f 508/382/295 463/381/294 426/596/477
f 255/258/181 254/390/302 167/261/184
f 254/390/302 253/389/301 167/261/184
f 253/389/301 431/598/479 167/261/184
f 260/661/311 258/397/308 451/356/274 231/357/275
f 474/432/339 261/399/310 458/360/277 244/335/253
f 258/397/308 492/396/307 493/398/309
f 260/661/311 262/395/306 258/397/308
f 260/400/311 231/361/275 458/360/277
f 452/364/278 263/407/317 264/404/314 233/365/262
f 261/399/310 474/432/339 402/401/312
f 261/399/310 262/402/306 260/400/311
f 473/405/315 263/407/317 452/364/278 235/366/279
f 453/369/282 267/662/497 268/412/322 237/349/267
f 473/405/315 399/565/457 417/406/316
f 263/407/317 417/406/316 264/404/314
f 265/409/319 235/366/279 459/368/281
f 459/368/281 230/340/258 266/393/304
f 265/409/319 266/393/304 477/410/320
f 477/410/320 259/394/305 493/398/309
f 477/410/320 473/405/315 265/409/319
f 477/410/320 399/565/457 473/405/315
f 269/413/323 267/662/497 453/369/282 239/370/283
f 274/424/332 272/423/331 454/373/286 242/374/287
f 267/662/497 269/413/323 268/412/322
f 269/413/323 412/421/329 491/414/324
f 268/412/322 491/414/324 414/416/326
f 270/417/327 239/370/283 460/372/285
f 460/372/285 233/344/262 271/418/313
f 270/417/327 271/418/313 410/420/328
f 410/420/328 264/419/314 416/663/318
f 410/420/328 412/421/329 270/417/327
f 272/423/331 241/353/271 454/373/286
f 284/664/453 282/422/330 272/423/331 273/576/465
f 272/423/331 274/424/332 273/576/465
f 274/424/332 409/577/466 273/576/465
f 277/573/325 406/427/334 275/425/333 276/426/321
f 275/425/333 242/374/287 461/376/289
f 461/376/289 237/655/267 276/426/321
f 455/377/290 278/430/337 474/432/339 244/335/253
f 406/427/334 409/577/466 274/424/332
f 281/428/335 278/430/337 455/377/290 246/378/291
f 284/561/453 283/665/498 281/428/335 282/433/330
f 278/430/337 280/429/336 279/431/338
f 281/428/335 246/378/291 462/380/293
f 462/380/293 241/656/271 282/433/330
f 312/438/344 287/439/345 285/434/340 286/436/342
f 283/665/498 280/429/336 281/428/335
f 475/299/220 301/458/363 286/436/342
f 481/303/224 288/440/346 289/441/347 324/482/349
f 287/439/345 310/467/371 480/435/341
f 288/440/346 481/303/224 479/302/223
f 479/302/223 480/435/341 288/440/346
f 289/441/347 480/435/341 310/467/371
f 467/646/233 191/311/231 291/446/351 294/666/354
f 290/442/348 481/443/224 324/444/349
f 290/442/348 483/667/499 482/306/226
f 200/323/241 297/668/500 298/454/359 201/453/358
f 292/312/232 482/306/226 483/667/499
f 193/315/234 467/314/233 294/449/354
f 295/450/355 476/647/360 197/319/237
f 470/333/251 490/463/367 296/451/356
f 295/450/355 296/451/356 319/475/378
f 295/450/355 319/475/378 476/647/360
f 302/437/343 301/458/363 299/457/362 300/456/361
f 297/668/500 200/323/241 316/448/353
f 297/668/500 316/448/353 298/454/359
f 476/455/360 319/487/378 300/456/361
f 201/649/358 484/460/357 303/459/364 204/327/245
f 306/669/501 485/330/248 304/328/246
f 304/328/246 308/464/368 335/527/423 306/669/501
f 303/459/364 307/461/365 304/328/246
f 305/462/366 207/332/250 485/330/248
f 485/330/248 306/669/501 305/462/366
f 305/462/366 334/492/391 490/463/367
f 298/454/359 314/472/376 307/474/365 484/452/357
f 308/464/368 307/461/365 349/507/406
f 307/461/365 497/670/377 349/507/406
f 309/466/370 311/469/373 310/467/371
f 310/467/371 312/438/344 309/466/370
f 312/438/344 302/437/343 331/465/369
f 309/466/370 331/465/369 313/468/372
f 316/448/353 315/671/502 314/472/376 298/454/359
f 339/497/396 317/476/379 490/463/367 361/493/392
f 318/672/389 319/475/378 317/476/379
f 317/476/379 296/451/356 490/463/367
f 342/673/503 318/672/389 317/476/379 339/497/396
f 316/448/353 293/447/352 320/478/381 315/671/502
f 483/667/499 290/442/348 326/485/387 328/674/504
f 293/447/352 294/449/354 489/477/380
f 320/478/381 489/477/380 336/480/383
f 320/478/381 496/495/394 315/671/502
f 321/481/384 323/484/386 324/482/349
f 321/481/384 310/467/371 311/469/373
f 321/481/384 325/471/375 322/483/385
f 321/481/384 311/469/373 325/471/375
f 322/483/385 348/504/403 323/484/386
f 348/504/403 359/675/417 323/484/386
f 300/456/361 329/486/388 331/465/369 302/437/343
f 327/445/350 324/444/349 323/676/386
f 326/485/387 327/445/350 359/521/417
f 327/445/350 323/676/386 359/521/417
f 332/677/505 331/465/369 329/486/388 330/489/390
f 329/486/388 300/456/361 319/487/378
f 318/488/389 342/678/503 330/489/390
f 328/674/504 333/512/410 292/312/232 483/667/499
f 331/465/369 332/677/505 313/468/372
f 291/446/351 489/491/380 294/666/354
f 291/446/351 292/312/232 333/512/410 350/490/382
f 306/669/501 335/527/423 334/492/391 305/462/366
f 339/497/396 338/496/395 341/679/438 342/673/503
f 336/480/383 496/495/394 320/478/381
f 337/494/393 350/479/382 487/680/492
f 337/494/393 486/681/491 496/495/394
f 325/471/375 478/470/374 343/682/506 494/502/401
f 340/498/397 339/497/396 361/493/392
f 343/682/506 495/505/404 494/502/401
f 344/499/398 343/682/506 478/470/374 313/468/372
f 359/675/417 348/504/403 347/506/405 357/630/493
f 343/682/506 344/499/398 345/501/400
f 345/501/400 495/505/404 343/682/506
f 325/471/375 494/502/401 348/504/403 322/483/385
f 386/508/137 349/507/406 497/670/377 448/683/138
f 349/507/406 500/510/408 308/464/368
f 500/510/408 335/527/423 308/464/368
f 332/677/505 355/520/416 344/499/398 313/468/372
f 464/509/407 502/528/424 500/510/408
f 333/512/410 328/674/504 499/513/411
f 499/513/411 488/523/419 450/514/145
f 449/511/409 487/684/492 350/490/382
f 351/515/412 314/472/376 315/671/502
f 351/515/412 315/671/502 496/495/394
f 496/495/394 486/681/491 352/516/413
f 351/515/412 352/516/413 497/473/377
f 355/520/416 332/677/505 330/489/390
f 498/500/399 344/499/398 355/520/416
f 342/678/503 341/542/438 353/518/414 355/520/416
f 328/674/504 326/485/387 356/522/418 358/524/420
f 355/520/416 330/489/390 342/678/503
f 355/520/416 354/519/415 498/500/399
f 335/527/423 360/526/422 501/525/421 334/492/391
f 358/524/420 499/513/411 328/674/504
f 356/522/418 359/521/417 357/685/493
f 356/522/418 488/523/419 358/524/420
f 367/532/428 371/536/432 373/537/433 495/505/404
f 360/526/422 502/528/424 501/525/421
f 362/281/204 457/530/426 364/637/215
f 362/281/204 176/280/203 365/531/427
f 366/686/507 367/532/428 369/533/429
f 369/533/429 345/501/400 498/500/399
f 370/534/430 366/686/507 368/291/214
f 370/534/430 368/291/214 504/290/213
f 504/290/213 184/620/217 374/535/431
f 370/534/430 371/536/432 366/686/507
f 371/536/432 367/532/428 366/686/507
f 357/630/493 347/506/405 373/537/433 146/225/151
f 371/536/432 374/535/431 372/226/152
f 178/283/206 378/543/439 376/538/434 465/287/210
f 373/537/433 346/503/402 495/505/404
f 375/540/436 392/687/448 376/538/434
f 392/687/448 465/287/210 376/538/434
f 377/539/435 341/542/438 338/688/395
f 376/538/434 379/541/437 377/539/435
f 377/539/435 338/688/395 340/689/397
f 379/541/437 378/543/439 380/545/441 381/690/508
f 382/544/440 178/283/206 368/291/214
f 366/686/507 380/545/441 382/544/440 368/291/214
f 381/690/508 341/542/438 379/541/437
f 369/533/429 381/690/508 380/545/441 366/686/507
f 498/500/399 354/519/415 381/690/508 369/533/429
f 174/282/205 388/552/446 385/546/442 176/280/203
f 381/690/508 354/519/415 353/518/414
f 381/690/508 353/518/414 341/542/438
f 383/548/444 387/547/443 384/549/445
f 383/548/444 384/549/445 386/211/137
f 389/691/450 387/547/443 388/552/446 392/692/448
f 385/546/442 365/531/427 176/280/203
f 392/692/448 388/552/446 175/638/494 465/641/210
f 174/282/205 175/638/494 388/552/446
f 384/549/445 389/691/450 391/693/449 502/550/424
f 389/691/450 384/549/445 387/547/443
f 391/556/449 390/553/447 375/555/436 377/694/435
f 389/557/450 392/554/448 390/553/447
f 501/525/421 391/556/449 377/694/435 340/498/397
f 423/252/175 397/566/458 396/564/456 493/398/309
f 391/556/449 501/525/421 502/528/424
f 393/558/451 395/563/455 280/429/336
f 393/558/451 280/429/336 283/665/498
f 395/563/455 400/278/201 280/429/336
f 283/665/498 284/561/453 393/558/451
f 396/564/456 398/567/459 399/565/457
f 398/567/459 415/583/471 399/565/457
f 491/414/324 413/582/188 506/695/187 414/416/326
f 401/569/461 402/401/312 403/568/460
f 400/278/201 403/568/460 280/429/336
f 403/568/460 279/431/338 280/429/336
f 405/574/464 409/577/466 406/427/334
f 277/573/325 414/696/326 506/571/187
f 406/427/334 277/573/325 404/572/463
f 505/270/193 408/575/452 409/577/466
f 408/575/452 284/664/453 273/576/465
f 409/577/466 407/578/467 505/270/193
f 410/420/328 411/580/469 412/421/329
f 410/420/328 416/663/318 507/579/468
f 411/580/469 413/582/188 412/421/329
f 423/252/175 493/398/309 422/697/509 421/253/176
f 413/582/188 491/414/324 412/421/329
f 417/406/316 399/565/457 415/583/471
f 418/586/472 419/588/473 492/698/307
f 418/586/472 492/698/307 262/699/306
f 419/588/473 421/590/176 492/698/307
f 262/699/306 402/700/312 418/586/472
f 418/586/472 402/700/312 420/587/462
f 421/253/176 422/697/509 492/396/307
f 422/697/509 493/398/309 492/396/307
f 253/389/301 426/596/477 428/595/476 431/598/479
f 424/255/178 256/592/180 425/591/474
f 398/567/459 397/566/458 425/591/474
f 397/566/458 423/252/175 425/591/474
f 427/594/475 434/602/481 435/606/484 438/605/483
f 429/268/191 428/595/476 169/266/189
f 428/595/476 427/594/475 169/266/189
f 427/594/475 438/605/483 169/266/189
f 432/262/185 430/597/478 433/599/480
f 433/599/480 411/601/469 507/634/468
f 395/563/455 447/701/192 444/279/202 400/278/201
f 434/602/481 427/594/475 426/596/477
f 436/603/197 435/606/484 171/702/195
f 435/606/484 434/602/481 171/702/195
f 434/602/481 442/610/487 171/702/195
f 440/608/485 405/607/464 404/703/463
f 439/267/190 437/604/482 440/608/485
f 440/608/485 404/703/463 506/264/187
f 445/612/489 441/704/486 443/611/488
f 445/612/489 172/275/198 444/279/202
f 445/612/489 442/705/487 441/704/486
f 447/701/192 395/563/455 394/562/454
f 446/613/196 444/279/202 447/701/192
f 445/612/489 446/613/196 171/706/195 442/705/487
f 447/701/192 394/562/454 505/560/193
o Texture1
v -0.055313 0.217012 0.055934
v -0.049597 0.122445 0.055771
v -0.206368 0.232118 0.057714
v -0.206347 0.120298 0.057737
vn 0.0122 -0.0003 0.9999
vt 0.005893 0.004208
vt 0.999700 0.014358
vt 0.996091 1.015432
vt 0.012637 0.996416
s 1
usemtl Texture1
f 513/707/510 511/708/510 510/709/510 512/710/510
o Texture2
v -0.041440 0.121822 -0.060149
v -0.052631 0.216509 -0.060484
v -0.206836 0.120432 -0.062932
v -0.205693 0.270464 -0.061569
vn 0.0126 0.0053 -0.9999
vn 0.0139 0.0031 -0.9999
vn 0.0168 -0.0015 -0.9999
vn 0.0103 0.0090 -0.9999
vt 0.995453 0.001070
vt 0.000092 1.000803
vt 0.001843 0.004749
vt 1.001549 1.001304
s 1
usemtl Texture2
f 516/711/511 515/712/512 514/713/513
f 515/712/512 516/711/511 517/714/514
